<svg width="46" height="46" viewBox="0 0 46 46" fill="none" xmlns="http://www.w3.org/2000/svg">
<path d="M5.12427 23.0004C5.12427 23.4817 5.33603 23.9245 5.72104 24.2903L18.5045 37.0545C18.9088 37.4203 19.3131 37.5936 19.756 37.5936C20.7186 37.5936 21.4502 36.9005 21.4502 35.9379C21.4502 35.4758 21.2769 35.0138 20.9688 34.725L16.6756 30.3355L10.1683 24.4251L14.8466 24.7138H39.1814C40.1825 24.7138 40.8756 24.0016 40.8756 23.0004C40.8756 21.9992 40.1825 21.287 39.1814 21.287H14.8466L10.1876 21.5757L16.6756 15.6653L20.9688 11.2758C21.2961 10.9677 21.4502 10.525 21.4502 10.0629C21.4502 9.10027 20.7186 8.40723 19.756 8.40723C19.3131 8.40723 18.8896 8.56124 18.4661 8.98477L5.72104 21.7105C5.33603 22.0763 5.12427 22.5191 5.12427 23.0004Z" fill="#E4EDF3"/>
</svg>
