<svg width="46" height="46" viewBox="0 0 46 46" fill="none" xmlns="http://www.w3.org/2000/svg">
<path d="M40.8756 23.0004C40.8756 22.5191 40.6833 22.0763 40.298 21.7105L27.553 8.98477C27.1295 8.56124 26.706 8.40723 26.2439 8.40723C25.3006 8.40723 24.569 9.10027 24.569 10.0629C24.569 10.525 24.723 10.9677 25.0311 11.2758L29.3436 15.6653L35.8316 21.5757L31.1725 21.287H6.81846C5.83661 21.287 5.12427 21.9992 5.12427 23.0004C5.12427 24.0016 5.83661 24.7138 6.81846 24.7138H31.1725L35.8508 24.4251L29.3436 30.3355L25.0311 34.725C24.723 35.0138 24.569 35.4758 24.569 35.9379C24.569 36.9005 25.3006 37.5936 26.2439 37.5936C26.706 37.5936 27.1103 37.4203 27.4954 37.0545L40.298 24.2903C40.6833 23.9245 40.8756 23.4817 40.8756 23.0004Z" fill="#E4EDF3"/>
</svg>
