<svg width="66" height="40" viewBox="0 0 66 40" fill="none" xmlns="http://www.w3.org/2000/svg">
<path d="M25.8203 38.9841C28.479 38.0301 30.6006 36.6323 32.185 34.7906C33.7829 32.9356 34.7497 30.7627 35.0854 28.2718C35.4346 25.7676 35.072 23.058 33.9978 20.1431L32.5073 16.0689C31.7016 13.9224 30.5871 12.4252 29.1638 11.5773C27.7405 10.716 26.1493 10.5902 24.3902 11.1996C23.9203 10.5902 23.3362 10.1927 22.6379 10.0072C21.9397 9.80844 21.2012 9.84819 20.4223 10.1264C19.8718 10.3252 19.3481 10.6167 18.8513 11.0009C18.341 10.3384 17.7032 9.90119 16.9378 9.68919C16.1859 9.46395 15.4004 9.49708 14.5813 9.78857C14.1247 9.96081 13.7018 10.1861 13.3124 10.4643L11.0162 4.26348C10.5865 3.07102 9.88157 2.24954 8.90135 1.79905C7.92112 1.33532 6.86705 1.30219 5.73912 1.69968C4.61119 2.11042 3.81895 2.80602 3.36241 3.7865C2.91929 4.75372 2.91258 5.82693 3.34227 7.00615L9.08262 22.5877C9.12291 22.7069 9.09605 22.7798 9.00206 22.8063C8.93492 22.8328 8.86778 22.8129 8.80064 22.7467L6.44407 20.2028C5.85325 19.5933 5.22215 19.1958 4.55076 19.0103C3.87938 18.8116 3.20128 18.8314 2.51646 19.0699C1.60337 19.4012 0.898419 19.9709 0.401593 20.7791C-0.0818059 21.5873 -0.128803 22.5016 0.260601 23.5218C0.354595 23.8133 0.495587 24.1246 0.683575 24.4559C0.871563 24.7739 1.07969 25.0786 1.30796 25.3701L8.0554 33.4192C10.6067 36.4666 13.3661 38.4541 16.3336 39.3816C19.3146 40.3223 22.4768 40.1898 25.8203 38.9841ZM24.9542 36.3805C22.3089 37.3345 19.751 37.5001 17.2803 36.8774C14.8096 36.2547 12.406 34.5521 10.0696 31.7697L3.32212 23.7603C3.10728 23.5085 2.95286 23.2435 2.85887 22.9653C2.73802 22.6473 2.74473 22.3293 2.87901 22.0113C3.01329 21.6933 3.27513 21.4615 3.66453 21.3157C4.24192 21.117 4.79918 21.3025 5.33628 21.8722L10.0091 26.6222C10.3851 27.0197 10.7477 27.2582 11.0968 27.3377C11.4459 27.4039 11.7883 27.3774 12.124 27.2582C12.5268 27.1124 12.8021 26.8607 12.9498 26.5029C13.0975 26.132 13.0908 25.7278 12.9297 25.2906L5.79954 5.93293C5.65184 5.53544 5.65184 5.17108 5.79954 4.83984C5.96067 4.49535 6.23594 4.25023 6.62535 4.10449C7.02818 3.97199 7.39073 3.99186 7.71299 4.16411C8.04869 4.3231 8.29039 4.60135 8.43809 4.99883L13.5339 18.8116C13.6548 19.1428 13.8763 19.3747 14.1986 19.5072C14.5209 19.6397 14.8498 19.6463 15.1855 19.527C15.5078 19.4078 15.7428 19.1958 15.8905 18.891C16.0382 18.5863 16.0583 18.2749 15.9509 17.957L14.0979 12.9685C14.3933 12.677 14.7424 12.4584 15.1452 12.3126C15.6152 12.1404 16.0382 12.1536 16.4142 12.3524C16.7901 12.5379 17.0654 12.8757 17.24 13.366L18.8513 17.7185C18.9721 18.0497 19.1937 18.2816 19.516 18.4141C19.8382 18.5333 20.1605 18.5333 20.4828 18.4141C20.7916 18.3081 21.0266 18.1093 21.1877 17.8178C21.3489 17.5131 21.369 17.1885 21.2481 16.844L19.9389 13.3063C20.2344 13.0148 20.5835 12.7962 20.9863 12.6505C21.4563 12.4782 21.8793 12.4915 22.2552 12.6902C22.6312 12.8757 22.9065 13.2136 23.081 13.7038L24.1485 16.6055C24.2828 16.95 24.5111 17.1885 24.8334 17.321C25.1556 17.4402 25.4779 17.4402 25.8002 17.321C26.109 17.215 26.344 17.0162 26.5051 16.7247C26.6662 16.42 26.6864 16.0954 26.5655 15.7509L25.7599 13.6045C26.6058 13.2997 27.4115 13.4786 28.1769 14.1411C28.9422 14.7903 29.5935 15.8569 30.1306 17.3408L31.3995 20.7394C32.3126 23.2435 32.6617 25.5291 32.4469 27.596C32.232 29.663 31.4868 31.445 30.2112 32.9423C28.9355 34.4395 27.1832 35.5855 24.9542 36.3805Z" fill="#F1F6F9"/>
<path fill-rule="evenodd" clip-rule="evenodd" d="M14.4375 1.72987C14.4375 0.774489 15.2224 0 16.1906 0H64.2469C65.2151 0 66 0.774489 66 1.72987C66 2.68525 65.2151 3.45974 64.2469 3.45974H16.1906C15.2224 3.45974 14.4375 2.68525 14.4375 1.72987Z" fill="#F1F6F9"/>
<path fill-rule="evenodd" clip-rule="evenodd" d="M37.125 9.87043C37.125 8.91505 37.9099 8.14056 38.8781 8.14056L64.2469 8.14056C65.2151 8.14056 66 8.91504 66 9.87042C66 10.8258 65.2151 11.6003 64.2469 11.6003L38.8781 11.6003C37.9099 11.6003 37.125 10.8258 37.125 9.87043Z" fill="#F1F6F9"/>
</svg>
