<svg width="47" height="40" viewBox="0 0 47 40" fill="none" xmlns="http://www.w3.org/2000/svg">
<path d="M25.5822 38.9841C28.2163 38.0301 30.3183 36.6323 31.8882 34.7906C33.4714 32.9356 34.4293 30.7627 34.7618 28.2718C35.1077 25.7676 34.7485 23.058 33.6842 20.1431L32.2075 16.0689C31.4093 13.9224 30.305 12.4252 28.8948 11.5773C27.4846 10.716 25.9081 10.5902 24.1653 11.1996C23.6997 10.5902 23.1209 10.1927 22.4291 10.0072C21.7373 9.80844 21.0056 9.84819 20.234 10.1264C19.6885 10.3252 19.1697 10.6167 18.6774 11.0009C18.1719 10.3384 17.54 9.90119 16.7816 9.68919C16.0366 9.46395 15.2583 9.49708 14.4468 9.78857C13.9945 9.96081 13.5754 10.1861 13.1896 10.4643L10.9146 4.26348C10.4889 3.07102 9.79044 2.24954 8.81925 1.79905C7.84807 1.33532 6.80371 1.30219 5.68619 1.69968C4.56866 2.11042 3.78373 2.80602 3.3314 3.7865C2.89237 4.75372 2.88572 5.82693 3.31144 7.00615L8.99886 22.5877C9.03877 22.7069 9.01216 22.7798 8.91903 22.8063C8.85251 22.8328 8.78599 22.8129 8.71948 22.7467L6.38464 20.2028C5.79927 19.5933 5.17399 19.1958 4.50879 19.0103C3.8436 18.8116 3.17175 18.8314 2.49325 19.0699C1.58859 19.4012 0.890133 19.9709 0.397889 20.7791C-0.0810514 21.5873 -0.127615 22.5016 0.258198 23.5218C0.351325 23.8133 0.491016 24.1246 0.677271 24.4559C0.863525 24.7739 1.06974 25.0786 1.2959 25.3701L7.98111 33.4192C10.5088 36.4666 13.2428 38.4541 16.183 39.3816C19.1364 40.3223 22.2695 40.1898 25.5822 38.9841ZM24.7241 36.3805C22.1032 37.3345 19.5688 37.5001 17.1209 36.8774C14.673 36.2547 12.2916 34.5521 9.97669 31.7697L3.29149 23.7603C3.07862 23.5085 2.92563 23.2435 2.8325 22.9653C2.71277 22.6473 2.71942 22.3293 2.85246 22.0113C2.9855 21.6933 3.24492 21.4615 3.63074 21.3157C4.2028 21.117 4.75491 21.3025 5.28707 21.8722L9.91683 26.6222C10.2893 27.0197 10.6485 27.2582 10.9944 27.3377C11.3403 27.4039 11.6796 27.3774 12.0122 27.2582C12.4113 27.1124 12.684 26.8607 12.8304 26.5029C12.9767 26.132 12.9701 25.7278 12.8104 25.2906L5.74605 5.93293C5.59971 5.53544 5.59971 5.17108 5.74605 4.83984C5.9057 4.49535 6.17843 4.25023 6.56424 4.10449C6.96336 3.97199 7.32257 3.99186 7.64186 4.16411C7.97446 4.3231 8.21393 4.60135 8.36027 4.99883L13.4091 18.8116C13.5288 19.1428 13.7483 19.3747 14.0676 19.5072C14.3869 19.6397 14.7129 19.6463 15.0455 19.527C15.3648 19.4078 15.5976 19.1958 15.7439 18.891C15.8903 18.5863 15.9102 18.2749 15.8038 17.957L13.9679 12.9685C14.2605 12.677 14.6064 12.4584 15.0056 12.3126C15.4712 12.1404 15.8903 12.1536 16.2628 12.3524C16.6353 12.5379 16.908 12.8757 17.081 13.366L18.6774 17.7185C18.7972 18.0497 19.0167 18.2816 19.336 18.4141C19.6553 18.5333 19.9746 18.5333 20.2939 18.4141C20.5999 18.3081 20.8327 18.1093 20.9923 17.8178C21.152 17.5131 21.1719 17.1885 21.0522 16.844L19.7551 13.3063C20.0477 13.0148 20.3936 12.7962 20.7928 12.6505C21.2584 12.4782 21.6775 12.4915 22.05 12.6902C22.4225 12.8757 22.6952 13.2136 22.8682 13.7038L23.9258 16.6055C24.0589 16.95 24.285 17.1885 24.6043 17.321C24.9236 17.4402 25.2429 17.4402 25.5622 17.321C25.8682 17.215 26.101 17.0162 26.2607 16.7247C26.4203 16.42 26.4403 16.0954 26.3205 15.7509L25.5223 13.6045C26.3604 13.2997 27.1587 13.4786 27.917 14.1411C28.6753 14.7903 29.3206 15.8569 29.8527 17.3408L31.1099 20.7394C32.0146 23.2435 32.3605 25.5291 32.1476 27.596C31.9348 29.663 31.1964 31.445 29.9325 32.9423C28.6687 34.4395 26.9325 35.5855 24.7241 36.3805Z" fill="#F1F6F9"/>
<path fill-rule="evenodd" clip-rule="evenodd" d="M14.3043 1.72987C14.3043 0.774489 15.082 0 16.0413 0H45.263C46.2223 0 47 0.774489 47 1.72987C47 2.68525 46.2223 3.45974 45.263 3.45974H16.0413C15.082 3.45974 14.3043 2.68525 14.3043 1.72987Z" fill="#F1F6F9"/>
<path fill-rule="evenodd" clip-rule="evenodd" d="M34.7391 9.87043C34.7391 8.91505 35.5168 8.14056 36.4761 8.14056L45.263 8.14056C46.2223 8.14056 47 8.91505 47 9.87043C47 10.8258 46.2223 11.6003 45.263 11.6003H36.4761C35.5168 11.6003 34.7391 10.8258 34.7391 9.87043Z" fill="#F1F6F9"/>
</svg>
