<svg width="47" height="40" viewBox="0 0 47 40" fill="none" xmlns="http://www.w3.org/2000/svg">
<path d="M21.4178 38.9841C18.7837 38.0301 16.6817 36.6323 15.1118 34.7906C13.5286 32.9356 12.5707 30.7627 12.2382 28.2718C11.8923 25.7676 12.2515 23.058 13.3158 20.1431L14.7925 16.0689C15.5907 13.9224 16.695 12.4252 18.1052 11.5773C19.5154 10.716 21.0919 10.5902 22.8347 11.1996C23.3003 10.5902 23.8791 10.1927 24.5709 10.0072C25.2627 9.80844 25.9944 9.84819 26.766 10.1264C27.3115 10.3252 27.8303 10.6167 28.3226 11.0009C28.8281 10.3384 29.46 9.90119 30.2184 9.68919C30.9634 9.46395 31.7417 9.49708 32.5532 9.78857C33.0055 9.96081 33.4246 10.1861 33.8104 10.4643L36.0854 4.26348C36.5111 3.07102 37.2096 2.24954 38.1807 1.79905C39.1519 1.33532 40.1963 1.30219 41.3138 1.69968C42.4313 2.11042 43.2163 2.80602 43.6686 3.7865C44.1076 4.75372 44.1143 5.82693 43.6886 7.00615L38.0011 22.5877C37.9612 22.7069 37.9878 22.7798 38.081 22.8063C38.1475 22.8328 38.214 22.8129 38.2805 22.7467L40.6154 20.2028C41.2007 19.5933 41.826 19.1958 42.4912 19.0103C43.1564 18.8116 43.8282 18.8314 44.5067 19.0699C45.4114 19.4012 46.1099 19.9709 46.6021 20.7791C47.0811 21.5873 47.1276 22.5016 46.7418 23.5218C46.6487 23.8133 46.509 24.1246 46.3227 24.4559C46.1365 24.7739 45.9303 25.0786 45.7041 25.3701L39.0189 33.4192C36.4912 36.4666 33.7572 38.4541 30.817 39.3816C27.8636 40.3223 24.7305 40.1898 21.4178 38.9841ZM22.2759 36.3805C24.8968 37.3345 27.4312 37.5001 29.8791 36.8774C32.327 36.2547 34.7084 34.5521 37.0233 31.7697L43.7085 23.7603C43.9214 23.5085 44.0744 23.2435 44.1675 22.9653C44.2872 22.6473 44.2806 22.3293 44.1475 22.0113C44.0145 21.6933 43.7551 21.4615 43.3693 21.3157C42.7972 21.117 42.2451 21.3025 41.7129 21.8722L37.0832 26.6222C36.7107 27.0197 36.3515 27.2582 36.0056 27.3377C35.6597 27.4039 35.3204 27.3774 34.9878 27.2582C34.5887 27.1124 34.316 26.8607 34.1696 26.5029C34.0233 26.132 34.0299 25.7278 34.1896 25.2906L41.2539 5.93293C41.4003 5.53544 41.4003 5.17108 41.2539 4.83984C41.0943 4.49535 40.8216 4.25023 40.4358 4.10449C40.0366 3.97199 39.6774 3.99186 39.3581 4.16411C39.0255 4.3231 38.7861 4.60135 38.6397 4.99883L33.5909 18.8116C33.4712 19.1428 33.2517 19.3747 32.9324 19.5072C32.6131 19.6397 32.2871 19.6463 31.9545 19.527C31.6352 19.4078 31.4024 19.1958 31.2561 18.891C31.1097 18.5863 31.0898 18.2749 31.1962 17.957L33.0321 12.9685C32.7395 12.677 32.3936 12.4584 31.9944 12.3126C31.5288 12.1404 31.1097 12.1536 30.7372 12.3524C30.3647 12.5379 30.092 12.8757 29.919 13.366L28.3226 17.7185C28.2028 18.0497 27.9833 18.2816 27.664 18.4141C27.3447 18.5333 27.0254 18.5333 26.7061 18.4141C26.4001 18.3081 26.1673 18.1093 26.0077 17.8178C25.848 17.5131 25.8281 17.1885 25.9478 16.844L27.2449 13.3063C26.9523 13.0148 26.6064 12.7962 26.2072 12.6505C25.7416 12.4782 25.3225 12.4915 24.95 12.6902C24.5775 12.8757 24.3048 13.2136 24.1318 13.7038L23.0742 16.6055C22.9411 16.95 22.715 17.1885 22.3957 17.321C22.0764 17.4402 21.7571 17.4402 21.4378 17.321C21.1318 17.215 20.899 17.0162 20.7393 16.7247C20.5797 16.42 20.5597 16.0954 20.6795 15.7509L21.4777 13.6045C20.6396 13.2997 19.8413 13.4786 19.083 14.1411C18.3247 14.7903 17.6794 15.8569 17.1473 17.3408L15.8901 20.7394C14.9854 23.2435 14.6395 25.5291 14.8524 27.596C15.0652 29.663 15.8036 31.445 17.0675 32.9423C18.3313 34.4395 20.0675 35.5855 22.2759 36.3805Z" fill="#F1F6F9"/>
<path fill-rule="evenodd" clip-rule="evenodd" d="M32.6957 1.72987C32.6957 0.774489 31.918 0 30.9587 0H1.73696C0.77766 0 0 0.774489 0 1.72987C0 2.68525 0.77766 3.45974 1.73696 3.45974H30.9587C31.918 3.45974 32.6957 2.68525 32.6957 1.72987Z" fill="#F1F6F9"/>
<path fill-rule="evenodd" clip-rule="evenodd" d="M12.2609 9.87043C12.2609 8.91505 11.4832 8.14056 10.5239 8.14056L1.73696 8.14056C0.777664 8.14056 0 8.91505 0 9.87043C0 10.8258 0.777664 11.6003 1.73696 11.6003H10.5239C11.4832 11.6003 12.2609 10.8258 12.2609 9.87043Z" fill="#F1F6F9"/>
</svg>
