<svg width="47" height="57" viewBox="0 0 47 57" fill="none" xmlns="http://www.w3.org/2000/svg">
<path d="M37.7227 55.9821C40.3484 55.0264 42.4438 53.6259 44.0086 51.7807C45.5868 49.9222 46.5416 47.7451 46.8731 45.2495C47.2179 42.7405 46.8599 40.0258 45.799 37.1054L44.3269 33.0233C43.5312 30.8728 42.4305 29.3728 41.0248 28.5232C39.6191 27.6603 38.0476 27.5342 36.3103 28.1449C35.8461 27.5342 35.2693 27.136 34.5797 26.9501C33.8901 26.751 33.1607 26.7908 32.3915 27.0696C31.8478 27.2687 31.3306 27.5608 30.8399 27.9457C30.336 27.282 29.706 26.8439 28.9501 26.6315C28.2075 26.4059 27.4317 26.439 26.6227 26.7311C26.1718 26.9037 25.7541 27.1293 25.3695 27.4081L23.1018 21.1955C22.6774 20.0008 21.9812 19.1777 21.0131 18.7264C20.045 18.2618 19.0039 18.2286 17.89 18.6268C16.776 19.0383 15.9936 19.7353 15.5427 20.7176C15.105 21.6867 15.0984 22.7619 15.5228 23.9434L21.1921 39.5546C21.2319 39.674 21.2054 39.747 21.1125 39.7736C21.0462 39.8001 20.9799 39.7802 20.9136 39.7139L18.5862 37.1651C18.0027 36.5545 17.3794 36.1562 16.7163 35.9704C16.0532 35.7712 15.3835 35.7911 14.7072 36.0301C13.8054 36.362 13.1092 36.9328 12.6185 37.7425C12.1411 38.5523 12.0947 39.4683 12.4792 40.4904C12.5721 40.7825 12.7113 41.0944 12.897 41.4263C13.0826 41.7449 13.2882 42.0502 13.5136 42.3423L20.1776 50.4067C22.6973 53.4599 25.4225 55.4512 28.3534 56.3804C31.2974 57.3229 34.4205 57.1902 37.7227 55.9821ZM36.8673 53.3736C34.2548 54.3294 31.7284 54.4954 29.2883 53.8714C26.8482 53.2475 24.4743 51.5417 22.1668 48.754L15.5029 40.7294C15.2907 40.4772 15.1382 40.2117 15.0454 39.9329C14.926 39.6143 14.9326 39.2957 15.0653 38.9771C15.1979 38.6585 15.4565 38.4262 15.8411 38.2802C16.4113 38.0811 16.9617 38.2669 17.4921 38.8377L22.1071 43.5967C22.4785 43.995 22.8365 44.2339 23.1813 44.3136C23.5261 44.38 23.8643 44.3534 24.1958 44.2339C24.5937 44.0879 24.8656 43.8357 25.0114 43.4773C25.1573 43.1056 25.1507 42.7007 24.9915 42.2626L17.9496 22.8681C17.8038 22.4699 17.8038 22.1048 17.9496 21.7729C18.1088 21.4278 18.3806 21.1822 18.7652 21.0362C19.1631 20.9034 19.5211 20.9234 19.8394 21.0959C20.171 21.2552 20.4097 21.534 20.5555 21.9322L25.5883 35.7712C25.7077 36.1031 25.9265 36.3354 26.2448 36.4682C26.563 36.6009 26.8879 36.6076 27.2195 36.4881C27.5378 36.3686 27.7698 36.1562 27.9157 35.8509C28.0616 35.5456 28.0815 35.2336 27.9754 34.915L26.1453 29.917C26.4371 29.625 26.7819 29.406 27.1797 29.2599C27.6439 29.0874 28.0616 29.1006 28.4329 29.2998C28.8042 29.4856 29.0761 29.8241 29.2485 30.3153L30.8399 34.6761C30.9593 35.0079 31.1781 35.2402 31.4963 35.373C31.8146 35.4925 32.1329 35.4925 32.4512 35.373C32.7562 35.2668 32.9883 35.0677 33.1474 34.7756C33.3065 34.4703 33.3264 34.1451 33.2071 33.7999L31.9141 30.2556C32.2058 29.9635 32.5506 29.7445 32.9485 29.5984C33.4126 29.4259 33.8304 29.4391 34.2017 29.6383C34.573 29.8241 34.8449 30.1626 35.0173 30.6538L36.0716 33.561C36.2042 33.9061 36.4296 34.1451 36.7479 34.2778C37.0662 34.3973 37.3845 34.3973 37.7028 34.2778C38.0078 34.1716 38.2399 33.9725 38.399 33.6805C38.5581 33.3751 38.578 33.0499 38.4587 32.7048L37.663 30.5542C38.4985 30.2489 39.2942 30.4281 40.0501 31.0919C40.806 31.7423 41.4492 32.811 41.9796 34.2977L43.2328 37.7027C44.1346 40.2117 44.4794 42.5016 44.2672 44.5724C44.0551 46.6433 43.319 48.4288 42.0592 49.9288C40.7993 51.4289 39.0687 52.5772 36.8673 53.3736Z" fill="#F1F6F9"/>
<path fill-rule="evenodd" clip-rule="evenodd" d="M11.679 1.09374C14.6073 0.0172353 17.7665 -0.271108 20.841 0.257532C23.9155 0.786171 26.7975 2.11328 29.199 4.10622C31.6006 6.09916 33.4375 8.68813 34.5263 11.6144C35.6151 14.5406 35.9175 17.7017 35.4034 20.7816C35.2644 21.6147 34.477 22.1771 33.6448 22.0379C32.8126 21.8988 32.2507 21.1106 32.3897 20.2776C32.8157 17.7256 32.5651 15.1065 31.663 12.6819C30.7608 10.2573 29.2388 8.11211 27.2489 6.46081C25.2591 4.80952 22.8711 3.70992 20.3237 3.2719C17.7763 2.83389 15.1586 3.0728 12.7323 3.96476C10.3061 4.85673 8.15613 6.3705 6.49744 8.3548C4.83874 10.3391 3.72936 12.7244 3.28018 15.2724C2.831 17.8203 3.05774 20.4416 3.93775 22.8744C4.81776 25.3071 6.32021 27.4661 8.29495 29.1354C8.93957 29.6804 9.02082 30.6452 8.47642 31.2905C7.93202 31.9358 6.96813 32.0171 6.32351 31.4721C3.94021 29.4574 2.12691 26.8518 1.06483 23.9157C0.00274637 20.9796 -0.27091 17.8159 0.271207 14.7408C0.813324 11.6657 2.15223 8.7869 4.1541 6.39206C6.15598 3.99722 8.75071 2.17025 11.679 1.09374ZM13.7763 6.85204C15.7043 6.12878 17.7857 5.93472 19.8115 6.29016C21.8373 6.64558 23.7332 7.53737 25.3105 8.87306C26.8876 10.2086 28.0908 11.9406 28.8031 13.8942C29.5154 15.8476 29.7129 17.9565 29.3768 20.011C29.2405 20.8445 28.455 21.4095 27.6223 21.273C26.7897 21.1365 26.2252 20.3502 26.3615 19.5167C26.613 17.9795 26.4649 16.402 25.9328 14.9429C25.4009 13.4839 24.5046 12.1968 23.3371 11.2081C22.1699 10.2197 20.772 9.56382 19.284 9.30275C17.7962 9.04171 16.267 9.18391 14.8485 9.71605C13.4297 10.2483 12.1688 11.1529 11.1938 12.3431C10.2186 13.5335 9.56418 14.9674 9.29903 16.5021C9.03387 18.0369 9.16788 19.6158 9.68691 21.0799C10.2059 22.5439 11.0907 23.8394 12.2494 24.8389C12.8886 25.3903 12.9602 26.3559 12.4094 26.9957C11.8586 27.6355 10.8939 27.7072 10.2548 27.1559C8.68976 25.8058 7.50219 24.0627 6.80737 22.1027C6.11259 20.1428 5.93386 18.0322 6.28826 15.9809C6.64267 13.9295 7.51842 12.0062 8.8311 10.4038C10.1439 8.80115 11.8484 7.57522 13.7763 6.85204Z" fill="#F1F6F9"/>
</svg>
