<svg fill="none" height="32" viewBox="0 0 32 32" width="32" xmlns="http://www.w3.org/2000/svg"><g clip-rule="evenodd" fill="#af38f9" fill-rule="evenodd"><path d="m16 30c7.732 0 14-6.268 14-14 0-7.73199-6.268-14-14-14-7.73199 0-14 6.26801-14 14 0 7.732 6.26801 14 14 14zm0 1c8.2843 0 15-6.7157 15-15 0-8.28427-6.7157-15-15-15-8.28427 0-15 6.71573-15 15 0 8.2843 6.71573 15 15 15z"/><path d="m12.7815 7.5h6.937l4.96 16h-7.2446l-1.1839-3.7361-1.1839 3.7361h-7.24457zm3.9459 10.4599 1.4387 4.5401h5.1554l-4.34-14h-5.1552zm-3.58-8.26294 2.5789 8.40934-1.3924 4.3937h-5.15542z"/></g></svg>