<svg fill="none" height="36" viewBox="0 0 149 36" width="149" xmlns="http://www.w3.org/2000/svg"><path clip-rule="evenodd" d="m17.675 34.1717c9.1109 0 16.4967-7.3858 16.4967-16.4967 0-9.11086-7.3858-16.49667-16.4967-16.49667-9.11086 0-16.49667 7.38581-16.49667 16.49667 0 9.1109 7.38581 16.4967 16.49667 16.4967zm0 1.1783c9.7616 0 17.675-7.9134 17.675-17.675 0-9.76163-7.9134-17.675-17.675-17.675-9.76163 0-17.675 7.91337-17.675 17.675 0 9.7616 7.91337 17.675 17.675 17.675z" fill="#af38f9" fill-rule="evenodd"/><path clip-rule="evenodd" d="m13.8825 7.65918h8.174l5.8446 18.85332h-8.5365l-1.3951-4.4024-1.3951 4.4024h-8.53644zm4.6495 12.32522 1.6953 5.3498h6.0748l-5.1139-16.49669h-6.0746zm-4.2184-9.7365 3.0388 9.909-1.6406 5.1773h-6.0749z" fill="#af38f9" fill-rule="evenodd"/><g fill="#37404a"><path d="m43.6526 23.5664h1.3362l1.3692-3.0519h6.2853l1.3527 3.0519h1.4022l-5.2624-11.6301h-1.2208zm3.2168-4.2231 2.6395-5.8893 2.623 5.8893z"/><path d="m61.7996 23.5664h1.3032v-3.1013l2.458-2.491 4.4376 5.5923h1.6332l-5.1635-6.4997 4.949-5.0479h-1.6826l-6.6317 6.8956v-6.8956h-1.3032z"/><path d="m77.8962 23.5664h1.3032v-11.5476h-1.3032z"/><path d="m86.7057 23.5664h1.3032v-5.0315h6.2522v-1.1877h-6.2522v-4.1242h6.9946v-1.2042h-8.2978z"/><path d="m101.656 23.5664h7.803v-1.2042h-6.5v-10.3434h-1.303z"/><path d="m120.695 23.7644c3.513 0 5.905-2.788 5.905-5.9718v-.033c0-3.1839-2.359-5.9388-5.872-5.9388-3.514 0-5.906 2.7879-5.906 5.9718v.033c0 3.1838 2.359 5.9388 5.873 5.9388zm.033-1.2043c-2.64 0-4.553-2.1445-4.553-4.7675v-.033c0-2.623 1.88-4.7345 4.52-4.7345 2.639 0 4.553 2.1445 4.553 4.7675v.033c0 2.623-1.881 4.7345-4.52 4.7345z"/><path d="m136.11 23.6489h1.089l3.184-9.3701 3.167 9.3701h1.106l4.124-11.6301h-1.369l-3.3 9.6175-3.167-9.6505h-1.072l-3.168 9.6505-3.299-9.6175h-1.419z"/></g></svg>