<svg viewBox="0 0 512 512" xmlns="http://www.w3.org/2000/svg"><path d="m174.234375 79.097656c4.949219-12.992187 11.753906-24.953125 21.855469-34.640625 40.414062-39.386719 107.222656-29.488281 134.648437 20 20.621094 37.527344 42.476563 74.230469 63.714844 111.34375l106.398437 185.164063c29.484376 51.757812-2.472656 117.121094-61.035156 125.988281-35.878906 5.359375-69.488281-11.136719-88.046875-43.300781l-93.613281-162.484375c-.617188-1.238281-1.445312-2.269531-2.269531-3.300781-3.296875-2.679688-4.742188-6.597657-6.804688-10.101563l-68.871093-119.386719c-8.039063-14.023437-11.75-29.28125-11.339844-45.363281.621094-8.25 1.652344-16.496094 5.363281-23.917969" fill="#3c8bd9"/><path d="m174.234375 79.097656c-1.855469 7.421875-3.507813 14.84375-3.917969 22.679688-.621094 17.320312 3.710938 33.402344 12.371094 48.457031l67.839844 117.324219c2.0625 3.507812 3.710937 7.011718 5.773437 10.308594l-37.324219 64.128906-52.167968 89.902344c-.824219 0-1.03125-.414063-1.234375-1.03125-.207031-1.648438.410156-3.09375.824219-4.742188 8.453124-30.929688 1.441406-58.355469-19.796876-81.859375-12.988281-14.230469-29.484374-22.269531-48.457031-24.949219-24.742187-3.507812-46.597656 2.886719-66.1875 18.347656-3.507812 2.683594-5.773437 6.601563-9.898437 8.664063-.824219 0-1.238282-.414063-1.441406-1.03125l29.484374-51.34375 122.6875-212.589844c.414063-.824219 1.03125-1.441406 1.445313-2.265625" fill="#fabc04"/><path d="m21.441406 345.914062 11.753906-10.515624c50.105469-39.589844 125.367188-10.929688 136.296876 51.753906 2.679687 15.054687 1.234374 29.488281-3.300782 43.921875-.207031 1.234375-.414062 2.265625-.824218 3.503906-1.855469 3.300781-3.507813 6.804687-5.566407 10.105469-18.351562 30.308594-45.363281 45.359375-80.832031 43.09375-40.621094-2.886719-72.582031-33.40625-78.148438-73.820313-2.679687-19.585937 1.238282-37.9375 11.339844-54.847656 2.0625-3.710937 4.539063-7.007813 6.804688-10.722656 1.03125-.824219.621094-2.472657 2.476562-2.472657" fill="#34a852"/><path d="m21.441406 345.914062c-.824218.824219-.824218 2.269532-2.269531 2.472657-.207031-1.441407.617187-2.265625 1.445313-3.296875zm0 0" fill="#fabc04"/><path d="m165.367188 434.578125c-.824219-1.445313 0-2.472656.824218-3.503906l.824219.824219zm0 0" fill="#e1c025"/></svg>