<svg fill="none" height="64" viewBox="0 0 64 64" width="64" xmlns="http://www.w3.org/2000/svg"><path d="m43.6425 10.6918v41.9803c0 4.6973 3.244 7.3147 6.6788 7.3147 3.1803 0 6.6787-2.2262 6.6787-7.3147v-41.6623c0-4.30614-3.1804-6.99669-6.6787-6.99669-3.4984 0-6.6788 2.96724-6.6788 6.67869z" fill="#f9ab00"/><g fill="#e37400"><path d="m25.0376 32v20.6721c0 4.6973 3.2439 7.3147 6.6787 7.3147 3.1804 0 6.6787-2.2262 6.6787-7.3147v-20.3541c0-4.3062-3.1803-6.9967-6.6787-6.9967s-6.6787 2.9672-6.6787 6.6787z"/><path d="m14.2244 59.9868c3.6886 0 6.6787-2.9901 6.6787-6.6786 0-3.6886-2.9901-6.6787-6.6787-6.6787-3.6885 0-6.67872 2.9901-6.67872 6.6787 0 3.6885 2.99022 6.6786 6.67872 6.6786z"/></g></svg>