<svg width="16" height="16" viewBox="0 0 16 16" fill="none" xmlns="http://www.w3.org/2000/svg">
<path d="M11.4284 4.57153H4.57129V11.4287H11.4284V4.57153Z" fill="white"/>
<path d="M5.89991 9.50151C5.6723 9.35924 5.51473 9.15147 5.42871 8.87679L5.957 8.67536C6.00496 8.84439 6.0887 8.97539 6.20821 9.06836C6.32696 9.16133 6.47159 9.20711 6.64059 9.20711C6.81339 9.20711 6.96182 9.15851 7.0859 9.06132C7.20998 8.96412 7.27241 8.84017 7.27241 8.69015C7.27241 8.53661 7.20694 8.41124 7.07601 8.31405C6.94508 8.21685 6.78065 8.16826 6.58425 8.16826H6.279V7.6844H6.55304C6.72204 7.6844 6.86439 7.64214 6.98009 7.55762C7.0958 7.47311 7.15365 7.3576 7.15365 7.2104C7.15365 7.0794 7.10189 6.97516 6.99836 6.89698C6.89484 6.81881 6.76391 6.77936 6.60481 6.77936C6.44952 6.77936 6.3262 6.8174 6.23485 6.89417C6.14356 6.97114 6.07493 7.06833 6.03541 7.17659L5.51245 6.97516C5.58172 6.79345 5.70884 6.63287 5.89534 6.49412C6.08185 6.35537 6.32011 6.28564 6.60938 6.28564C6.82328 6.28564 7.01587 6.32368 7.18639 6.40045C7.3569 6.47722 7.49088 6.58357 7.58755 6.71879C7.68423 6.85473 7.73219 7.00685 7.73219 7.17589C7.73219 7.34844 7.68727 7.49424 7.59745 7.61397C7.50762 7.7337 7.39725 7.82526 7.26631 7.88935V7.91823C7.43538 7.98272 7.58224 8.08864 7.69108 8.2246C7.80146 8.36194 7.85703 8.52604 7.85703 8.71762C7.85703 8.90919 7.8045 9.08034 7.69945 9.23035C7.5944 9.38037 7.44901 9.49869 7.26479 9.58462C7.07981 9.67054 6.872 9.71421 6.64135 9.71421C6.37416 9.71492 6.12752 9.64378 5.89991 9.50151ZM9.14503 7.07588L8.56497 7.46395L8.27494 7.05686L9.31554 6.36241H9.71443V9.63815H9.14503V7.07588Z" fill="#4285F4"/>
<path d="M11.4284 11.4285H4.57129V13.9999H11.4284V11.4285Z" fill="#34A853"/>
<path d="M11.4286 2H2.97537C2.43648 2 2 2.43648 2 2.97537V11.4286H4.57143V4.57143H11.4286V2Z" fill="#4285F4"/>
<path d="M2 11.4285V13.1428C2 13.6163 2.38357 13.9999 2.85714 13.9999H4.57143V11.4285H2Z" fill="#188038"/>
<path d="M14.0001 4.57153H11.4287V11.4287H14.0001V4.57153Z" fill="#FBBC04"/>
<path d="M14.0001 4.57143V2.85714C14.0001 2.38357 13.6166 2 13.143 2H11.4287V4.57143H14.0001Z" fill="#1967D2"/>
<path d="M11.4287 13.9999L14.0001 11.4285H11.4287V13.9999Z" fill="#EA4335"/>
</svg>
