<svg width="16" height="16" viewBox="0 0 16 16" fill="none" xmlns="http://www.w3.org/2000/svg">
<path fill-rule="evenodd" clip-rule="evenodd" d="M7.986 10.2255C7.40871 10.2245 6.85535 9.99475 6.44719 9.5865C6.03904 9.17825 5.80939 8.62484 5.80859 8.04755C5.80926 7.47009 6.03892 6.91647 6.4472 6.5081C6.85547 6.09973 7.40904 5.86994 7.9865 5.86914C8.56405 5.86981 9.11775 6.09953 9.52613 6.50792C9.93452 6.91631 10.1642 7.47001 10.1649 8.04755C10.1641 8.62501 9.93433 9.17858 9.52596 9.58686C9.11758 9.99514 8.56396 10.2248 7.9865 10.2255H7.986Z" fill="#4285F4"/>
<path fill-rule="evenodd" clip-rule="evenodd" d="M8.90396 10.6128C8.44965 10.7776 7.96021 10.8212 7.48392 10.7393C7.00762 10.6573 6.56092 10.4526 6.18788 10.1453C5.78571 9.81358 5.48512 9.37529 5.32056 8.88064L5.31955 8.87761L2.919 4.7207C2.05813 6.03796 1.74885 7.64055 2.05773 9.18355C2.20942 9.96304 2.51418 10.7047 2.9544 11.3656C3.39461 12.0266 3.96153 12.5936 4.62235 13.034C5.31619 13.5004 6.09977 13.8168 6.92294 13.9629L8.90396 10.6133V10.6128Z" fill="#4AAE48"/>
<path fill-rule="evenodd" clip-rule="evenodd" d="M13.432 5.32487C12.9779 4.41133 12.3019 3.62631 11.4659 3.04167C10.6298 2.45704 9.66047 2.09148 8.64657 1.97846C7.63268 1.86544 6.60663 2.00858 5.66237 2.39476C4.71811 2.78095 3.88582 3.39785 3.2417 4.18897L5.26916 7.70068C5.35261 7.05048 5.66784 6.45221 6.15696 6.01577C6.64608 5.57932 7.27625 5.334 7.93172 5.32487H13.432Z" fill="#EA3939"/>
<path fill-rule="evenodd" clip-rule="evenodd" d="M7.96253 14.0552C9.48212 14.0552 10.9366 13.4853 12.0568 12.4508C13.1814 11.4152 13.8701 9.99066 13.9833 8.46607C14.0485 7.58341 13.9203 6.69715 13.6077 5.86914H9.64165C9.97206 6.13051 10.2387 6.46357 10.4215 6.84315C10.6043 7.22272 10.6984 7.63888 10.6968 8.06017C10.6928 8.67959 10.4828 9.28007 10.1 9.76706L7.57178 14.0431C7.70203 14.0512 7.83329 14.0552 7.96253 14.0552V14.0552Z" fill="#FED14B"/>
</svg>
