<svg enable-background="new 0 0 500 500" viewBox="0 0 500 500" xmlns="http://www.w3.org/2000/svg"><circle cx="250" cy="250" fill="#1a73e8" r="250"/><path d="m332.4 375h-161.9c-19.6 0-36.9-11.8-36.9-31.2v14.2c0 19.4 17.3 34.1 36.9 34.1h161.9c19.6 0 36.9-14.7 36.9-34.1v-14.2c0 19.4-17.3 31.2-36.9 31.2z" fill="#185abc"/><path d="m250 227.3c-29.3-.1-52.4-20.4-54-48.3v11.4c0 28.9 24.2 54 54 54s54-25.1 54-54v-11.4c-2.3 28.1-24.7 48.4-54 48.3z" fill="#185abc"/><g fill="#fff"><path d="m250 261.4c-57 0-116.5 27.8-116.5 65.3v17c0 19.4 15.9 34.1 35.5 34.1h164.7c19.6 0 35.5-14.7 35.5-34.1v-17c.1-37.6-62.2-65.3-119.2-65.3z"/><circle cx="250" cy="176.1" r="54"/></g></svg>