<svg width="19" height="20" viewBox="0 0 19 20" fill="none" xmlns="http://www.w3.org/2000/svg">
<path d="M13.9316 19.4733C15.3661 18.9787 16.5108 18.254 17.3658 17.2991C18.2279 16.3374 18.7496 15.2108 18.9307 13.9193C19.1191 12.621 18.9235 11.2162 18.3438 9.70493L17.5396 7.59258C17.1049 6.47973 16.5036 5.70348 15.7356 5.26384C14.9676 4.81733 14.1091 4.75207 13.16 5.06806C12.9064 4.75207 12.5913 4.54598 12.2145 4.44981C11.8378 4.34677 11.4393 4.36738 11.0191 4.51164C10.722 4.61468 10.4395 4.76581 10.1714 4.96502C9.8961 4.62155 9.55195 4.39486 9.13899 4.28495C8.73326 4.16816 8.30942 4.18534 7.86748 4.33647C7.62114 4.42577 7.39292 4.54255 7.18282 4.68681L5.94391 1.47191C5.71207 0.853661 5.3317 0.427755 4.80281 0.194194C4.27392 -0.0462365 3.70518 -0.0634103 3.0966 0.142673C2.48801 0.355626 2.06055 0.716271 1.81422 1.22461C1.57513 1.72608 1.57151 2.2825 1.80335 2.89388L4.90062 10.9723C4.92236 11.0342 4.90787 11.072 4.85715 11.0857C4.82092 11.0994 4.7847 11.0891 4.74847 11.0548L3.47696 9.73585C3.15818 9.41985 2.81766 9.21377 2.45541 9.1176C2.09316 9.01456 1.72728 9.02486 1.35778 9.14851C0.865117 9.32025 0.484751 9.61563 0.216684 10.0347C-0.0441389 10.4537 -0.0694971 10.9277 0.14061 11.4566C0.191325 11.6078 0.267399 11.7692 0.36883 11.9409C0.470261 12.1058 0.582559 12.2638 0.705726 12.4149L4.34637 16.5881C5.72294 18.1681 7.2118 19.1985 8.81296 19.6794C10.4214 20.1671 12.1276 20.0984 13.9316 19.4733ZM13.4643 18.1234C12.037 18.618 10.6568 18.7039 9.32373 18.381C7.99064 18.0582 6.69377 17.1755 5.43313 15.7329L1.79249 11.5803C1.67656 11.4498 1.59325 11.3124 1.54253 11.1681C1.47732 11.0033 1.48095 10.8384 1.5534 10.6735C1.62585 10.5087 1.76713 10.3884 1.97723 10.3129C2.28877 10.2098 2.58944 10.306 2.87925 10.6014L5.40053 13.0641C5.60339 13.2702 5.79901 13.3938 5.98738 13.435C6.17575 13.4694 6.3605 13.4556 6.54163 13.3938C6.75898 13.3183 6.9075 13.1877 6.9872 13.0023C7.0669 12.8099 7.06327 12.6004 6.97633 12.3737L3.1292 2.33746C3.04951 2.13138 3.04951 1.94247 3.1292 1.77073C3.21614 1.59213 3.36467 1.46504 3.57477 1.38948C3.79212 1.32078 3.98774 1.33109 4.16162 1.42039C4.34275 1.50282 4.47316 1.64708 4.55286 1.85316L7.30236 9.01456C7.36757 9.18629 7.48711 9.30651 7.66099 9.3752C7.83487 9.4439 8.01238 9.44733 8.1935 9.3855C8.36739 9.32368 8.49417 9.21377 8.57387 9.05577C8.65357 8.89778 8.66443 8.73634 8.60647 8.57148L7.60665 5.98513C7.76604 5.834 7.95442 5.72066 8.17177 5.64509C8.42535 5.55579 8.65357 5.56266 8.85643 5.6657C9.05929 5.76187 9.20781 5.93704 9.302 6.19121L10.1714 8.44783C10.2366 8.61956 10.3562 8.73978 10.53 8.80847C10.7039 8.8703 10.8778 8.8703 11.0517 8.80847C11.2183 8.75352 11.3451 8.65048 11.432 8.49935C11.519 8.34135 11.5299 8.17305 11.4647 7.99444L10.7583 6.1603C10.9176 6.00917 11.106 5.89583 11.3234 5.82027C11.5769 5.73096 11.8052 5.73783 12.008 5.84087C12.2109 5.93705 12.3594 6.11222 12.4536 6.36639L13.0296 7.87079C13.102 8.0494 13.2252 8.17305 13.3991 8.24174C13.573 8.30357 13.7468 8.30357 13.9207 8.24174C14.0874 8.18679 14.2142 8.08375 14.3011 7.93262C14.388 7.77462 14.3989 7.60632 14.3337 7.42771L13.899 6.31487C14.3554 6.15687 14.7901 6.24961 15.2031 6.59308C15.6161 6.92968 15.9675 7.48267 16.2573 8.25205L16.9419 10.0141C17.4346 11.3124 17.623 12.4974 17.507 13.569C17.3911 14.6406 16.989 15.5646 16.3007 16.3408C15.6125 17.1171 14.667 17.7113 13.4643 18.1234Z" fill="#37404A"/>
<path d="M13.4643 18.1234C12.037 18.618 10.6568 18.7039 9.32373 18.381C7.99064 18.0582 6.69377 17.1755 5.43313 15.7329L1.79249 11.5803C1.67656 11.4498 1.59325 11.3124 1.54253 11.1681C1.47732 11.0033 1.48095 10.8384 1.5534 10.6735C1.62585 10.5087 1.76713 10.3884 1.97723 10.3129C2.28877 10.2098 2.58944 10.306 2.87925 10.6014L5.40053 13.0641C5.60339 13.2702 5.79901 13.3938 5.98738 13.435C6.17575 13.4694 6.3605 13.4556 6.54163 13.3938C6.75898 13.3183 6.9075 13.1877 6.9872 13.0023C7.0669 12.8099 7.06327 12.6004 6.97633 12.3737L3.1292 2.33746C3.04951 2.13138 3.04951 1.94247 3.1292 1.77073C3.21614 1.59213 3.36467 1.46504 3.57477 1.38948C3.79212 1.32078 3.98774 1.33109 4.16162 1.42039C4.34275 1.50282 4.47316 1.64708 4.55286 1.85316L7.30236 9.01456C7.36757 9.18629 7.48711 9.30651 7.66099 9.3752C7.83487 9.4439 8.01238 9.44733 8.1935 9.3855C8.36739 9.32368 8.49417 9.21377 8.57387 9.05577C8.65357 8.89778 8.66443 8.73634 8.60647 8.57148L7.60665 5.98513C7.76604 5.834 7.95442 5.72066 8.17177 5.64509C8.42535 5.55579 8.65357 5.56266 8.85643 5.6657C9.05929 5.76187 9.20781 5.93704 9.302 6.19121L10.1714 8.44783C10.2366 8.61956 10.3562 8.73978 10.53 8.80847C10.7039 8.8703 10.8778 8.8703 11.0517 8.80847C11.2183 8.75352 11.3451 8.65048 11.432 8.49935C11.519 8.34135 11.5299 8.17305 11.4647 7.99444L10.7583 6.1603C10.9176 6.00917 11.106 5.89583 11.3234 5.82027C11.5769 5.73096 11.8052 5.73783 12.008 5.84087C12.2109 5.93705 12.3594 6.11222 12.4536 6.36639L13.0296 7.87079C13.102 8.0494 13.2252 8.17305 13.3991 8.24174C13.573 8.30357 13.7468 8.30357 13.9207 8.24174C14.0874 8.18679 14.2142 8.08375 14.3011 7.93262C14.388 7.77462 14.3989 7.60632 14.3337 7.42771L13.899 6.31487C14.3554 6.15687 14.7901 6.24961 15.2031 6.59308C15.6161 6.92968 15.9675 7.48267 16.2573 8.25205L16.9419 10.0141C17.4346 11.3124 17.623 12.4974 17.507 13.569C17.3911 14.6406 16.989 15.5646 16.3007 16.3408C15.6125 17.1171 14.667 17.7113 13.4643 18.1234Z" fill="white"/>
</svg>
