<svg fill="none" height="18" viewBox="0 0 18 18" width="18" xmlns="http://www.w3.org/2000/svg"><g clip-rule="evenodd" fill-rule="evenodd"><path d="m17.64 9.20443c0-.63818-.0573-1.25181-.1636-1.8409h-8.4764v3.48137h4.8436c-.2086 1.125-.8427 2.0782-1.7959 2.7164v2.2581h2.9087c1.7018-1.5668 2.6836-3.8741 2.6836-6.61497z" fill="#4285f4"/><path d="m9 18c2.43 0 4.4673-.8059 5.9564-2.1805l-2.9087-2.2582c-.8059.54-1.8368.8591-3.0477.8591-2.34409 0-4.32818-1.5832-5.03591-3.7104h-3.006815v2.3318c1.480905 2.9413 4.524545 4.9582 8.042725 4.9582z" fill="#34a853"/><path d="m3.96409 10.7101c-.18-.54-.28227-1.11685-.28227-1.71003s.10227-1.17.28227-1.71v-2.33182h-3.006817c-.609546 1.215-.957273 2.58955-.957273 4.04182 0 1.45223.347727 2.82683.957273 4.04183z" fill="#fbbc05"/><path d="m9 3.57955c1.3214 0 2.5077.45409 3.4405 1.3459l2.5813-2.58136c-1.5586-1.452272-3.5959-2.34409-6.0218-2.34409-3.51818 0-6.56182 2.01682-8.042725 4.95818l3.006815 2.33182c.70773-2.12727 2.69182-3.71045 5.03591-3.71045z" fill="#ea4335"/></g></svg>