<svg viewBox="0 0 92.3 132.3" xmlns="http://www.w3.org/2000/svg"><path d="m60.2 2.2c-4.4-1.4-9.2-2.2-14.1-2.2-14.1 0-26.8 6.4-35.3 16.5l21.8 18.3z" fill="#1a73e8"/><path d="m10.8 16.5c-6.7 8-10.8 18.4-10.8 29.6 0 8.7 1.7 15.7 4.6 22l28-33.3z" fill="#ea4335"/><path d="m46.2 28.5c9.8 0 17.7 7.9 17.7 17.7 0 4.3-1.6 8.3-4.2 11.4 0 0 13.9-16.6 27.5-32.7-5.6-10.8-15.3-19-27-22.7l-27.6 32.6c3.3-3.8 8.1-6.3 13.6-6.3" fill="#4285f4"/><path d="m46.2 63.8c-9.8 0-17.7-7.9-17.7-17.7 0-4.3 1.5-8.3 4.1-11.3l-28 33.3c4.8 10.6 12.8 19.2 21 29.9l34.1-40.5c-3.3 3.9-8.1 6.3-13.5 6.3" fill="#fbbc04"/><path d="m59.1 109.2c15.4-24.1 33.3-35 33.3-63 0-7.7-1.9-14.9-5.2-21.3l-61.6 73.1c2.6 3.4 5.3 7.3 7.9 11.3 9.4 14.5 6.8 23.1 12.8 23.1s3.4-8.7 12.8-23.2" fill="#34a853"/></svg>