<svg width="16" height="16" viewBox="0 0 16 16" fill="none" xmlns="http://www.w3.org/2000/svg">
<path d="M9.07129 8.14276L10.2899 9.53562L11.9284 10.5828L12.2141 8.15205L11.9284 5.7749L10.2584 6.6949L9.07129 8.14276Z" fill="#00832D"/>
<path d="M2 10.357V12.4285C2 12.902 2.38357 13.2856 2.85714 13.2856H4.92857L5.35714 11.7199L4.92857 10.357L3.50714 9.92847L2 10.357Z" fill="#0066DA"/>
<path d="M4.92857 3L2 5.92857L3.50714 6.35714L4.92857 5.92857L5.35 4.58357L4.92857 3Z" fill="#E94235"/>
<path d="M4.92857 5.92847H2V10.357H4.92857V5.92847Z" fill="#2684FC"/>
<path d="M13.7994 4.24009L11.9287 5.77509V10.5829L13.8073 12.1237C14.0887 12.3437 14.5001 12.1429 14.5001 11.7858V4.57152C14.5001 4.20938 14.0794 4.0108 13.7994 4.24009ZM9.07157 8.14295V10.3572H4.92871V13.2858H11.0716C11.5451 13.2858 11.9287 12.9022 11.9287 12.4287V10.5829L9.07157 8.14295Z" fill="#00AC47"/>
<path d="M11.0716 3H4.92871V5.92857H9.07157V8.14286L11.9287 5.775V3.85714C11.9287 3.38357 11.5451 3 11.0716 3Z" fill="#FFBA00"/>
</svg>
