<svg fill="none" height="144" viewBox="0 0 175 144" width="175" xmlns="http://www.w3.org/2000/svg"><g transform="matrix(2 0 0 2 -9 -24)"><path d="m54 48 8.53 9.75 11.47 7.33 2-17.015-2-16.64-11.69 6.44z" fill="#00832d"/><path d="m4.5 63.5v14.5c0 3.315 2.685 6 6 6h14.5l3-10.96-3-9.54-9.95-3z" fill="#0066da"/><path d="m25 12-20.5 20.5 10.55 3 9.95-3 2.95-9.415z" fill="#e94235"/><path d="m25 32.5h-20.5v31h20.5z" fill="#2684fc"/><path d="m87.095 20.68-13.095 10.745v33.655l13.15 10.785c1.97 1.54 4.85.135 4.85-2.365v-50.5c0-2.535-2.945-3.925-4.905-2.32z" fill="#00ac47"/><path d="m54 48v15.5h-29v20.5h43c3.315 0 6-2.685 6-6v-12.92z" fill="#00ac47"/><path d="m68 12h-43v20.5h29v15.5l20-16.575v-13.425c0-3.315-2.685-6-6-6z" fill="#ffba00"/></g></svg>