<svg enable-background="new 0 0 512 512" viewBox="0 0 512 512" xmlns="http://www.w3.org/2000/svg"><path d="m385.829 128v128l-38.4 35.072-40.229-35.072-34.743-14.629 34.133-75.861z" fill="#d32e2a"/><path d="m384 385.219h-128l-.61-1.828-29.257-27.1 29.257-48.25 15.239-36.193 85.333 30.195z" fill="#3a5bbc"/><path d="m256.61 128.61 31.695 36.291-31.695 39.058-15.239 36.193-79.847-39.899-33.524-73.472h128z" fill="#fbbb00"/><path d="m239.543 270.629-35.048 76.214-78.324 37.157v-128l37.791-23.442 40.838 23.442z" fill="#28b446"/><path d="m512 256-128 129.219-113.371-113.371 36.571-15.848h78.629z" fill="#518ef8"/><path d="m255.39 383.391v128.609l-129.219-128 113.372-113.371 15.847 36.571v.841z" fill="#91c646"/><path d="m241.371 240.152-36.571 15.848h-78.629-126.171l128-129.219z" fill="#ffd837"/><path d="m385.829 128-113.372 113.371-15.847-36.571v-.841-75.349-128.61z" fill="#f14336"/></svg>