<svg enable-background="new 0 0 512 512" viewBox="0 0 512 512" xmlns="http://www.w3.org/2000/svg"><path d="m441.412 140.235v338.781c0 18.219-14.778 32.983-32.983 32.983h-304.857c-18.219 0-32.983-14.764-32.983-32.983v-446.033c-.001-18.219 14.763-32.983 32.983-32.983h197.605z" fill="#fbbb00"/><path d="m320.31 137.188 121.102 49.891v-46.844l-68.661-20.273z" fill="#e2a203"/><path d="m441.412 140.235h-107.252c-18.22 0-32.983-14.764-32.983-32.983v-107.252z" fill="#f4d37d"/><g style="fill:none;stroke:#fff;stroke-width:15;stroke-linecap:round;stroke-linejoin:round;stroke-miterlimit:10"><path d="m323.239 233.469h-134.487c-12.466 0-22.571 10.106-22.571 22.571v134.487c0 12.466 10.106 22.571 22.571 22.571h134.487c12.466 0 22.571-10.106 22.571-22.571v-134.486c.001-12.466-10.105-22.572-22.571-22.572z"/><path d="m199.895 282.451h112.201v81.658h-112.201z"/></g></svg>