<svg width="105" height="96" viewBox="0 0 105 96" fill="none" xmlns="http://www.w3.org/2000/svg">
<path d="M1.64307 69.8158C4.94978 65.6864 16.7988 56.9523 22.31 53.1015C24.3362 51.1351 28.7289 46.3666 30.0905 43.0237C31.7925 38.8452 34.9533 33.9292 36.8985 30.2422C38.8436 26.5553 37.5911 9.4718 37.6279 5.41665C37.6646 1.36149 42.3665 0.633287 44.5965 3.04865C48.0004 6.73564 53.4874 17.3856 51.73 24.0973C49.5418 32.4545 50.9626 34.5525 53.1889 33.9292M53.1889 33.9292C55.4151 33.306 80.2033 27.1816 84.0936 32.5892C87.9838 37.9967 84.2131 44.0577 81.2257 44.7744M53.1889 33.9292C50.9626 34.5525 46.4113 36.4395 44.6607 35.4563M81.2257 44.7744C79.0785 45.2896 76.207 46.0183 74.0561 46.208M81.2257 44.7744C84.0936 46.208 85.5773 52.7034 82.6596 56.2429C81.7424 57.3556 78.3579 59.11 78.3579 59.11M75.49 59.8268L78.3579 59.11M78.3579 59.11C83.5542 60.9859 83.2924 69.8732 77.5607 70.975C75.5425 71.363 80.5575 72.9729 80.5575 72.9729L99.8916 79.2195C99.8916 79.2195 104.168 79.8967 103.452 83.4806C102.735 87.0644 99.1497 86.3477 99.1497 86.3477C99.1497 86.3477 74.7731 81.3302 72.397 81.6539C70.0209 81.9776 60.4339 84.7066 54.6982 85.6087C50.9302 86.2013 35.4396 84.7066 35.4396 84.7066M35.4396 84.7066C33.1893 84.1973 31.0385 83.4806 31.0385 83.4806M35.4396 84.7066C30.6578 87.0556 20.8998 92.3927 20.1218 94.949" stroke="#445B6A" stroke-width="1.99783" stroke-linecap="round"/>
</svg>
