<svg width="133" height="141" viewBox="0 0 133 141" fill="none" xmlns="http://www.w3.org/2000/svg">
<path d="M27.4108 7.15711C22.9531 8.90018 19.16 12.0279 16.5416 16.1197C13.9232 20.2115 12.605 25.0712 12.7642 30.0454" stroke="#AF38F9" stroke-width="2.99675" stroke-linecap="round"/>
<path d="M27.8536 16.34C25.7037 17.1807 23.8507 18.6284 22.5436 20.4886C21.2365 22.3487 20.538 24.5321 20.5421 26.7451" stroke="#AF38F9" stroke-width="2.99675" stroke-linecap="round"/>
<path d="M109.645 135.313C113.748 132.848 116.963 129.129 118.86 124.657C120.756 120.184 121.241 115.172 120.251 110.295" stroke="#AF38F9" stroke-width="2.99675" stroke-linecap="round"/>
<path d="M107.67 126.333C109.649 125.144 111.234 123.407 112.211 121.354C113.188 119.301 113.511 117.032 113.136 114.851" stroke="#AF38F9" stroke-width="2.99675" stroke-linecap="round"/>
<path d="M1.64307 97.8158C4.94978 93.6864 16.7988 84.9523 22.31 81.1015C24.3362 79.1351 28.7289 74.3666 30.0905 71.0237C31.7925 66.8452 34.9533 61.9292 36.8985 58.2422C38.8436 54.5553 37.5911 37.4718 37.6279 33.4166C37.6646 29.3615 42.3665 28.6333 44.5965 31.0486C48.0004 34.7356 53.4874 45.3856 51.73 52.0973C49.5418 60.4545 50.9626 62.5525 53.1889 61.9292M53.1889 61.9292C55.4151 61.306 80.2033 55.1816 84.0936 60.5892C87.9838 65.9967 84.2131 72.0577 81.2257 72.7744M53.1889 61.9292C50.9626 62.5525 46.4113 64.4395 44.6607 63.4563M81.2257 72.7744C79.0785 73.2896 76.207 74.0183 74.0561 74.208M81.2257 72.7744C84.0936 74.208 85.5773 80.7034 82.6596 84.2429C81.7424 85.3556 78.3579 87.11 78.3579 87.11M75.49 87.8268L78.3579 87.11M78.3579 87.11C83.5542 88.9859 83.2924 97.8732 77.5607 98.975C75.5425 99.363 80.5575 100.973 80.5575 100.973L99.8916 107.22C99.8916 107.22 104.168 107.897 103.452 111.481C102.735 115.064 99.1497 114.348 99.1497 114.348C99.1497 114.348 74.7731 109.33 72.397 109.654C70.0209 109.978 60.4339 112.707 54.6982 113.609C50.9302 114.201 35.4396 112.707 35.4396 112.707M35.4396 112.707C33.1893 112.197 31.0385 111.481 31.0385 111.481M35.4396 112.707C30.6578 115.056 20.8998 120.393 20.1218 122.949" stroke="#445B6A" stroke-width="1.99783" stroke-linecap="round"/>
</svg>
