<svg width="64" height="44" viewBox="0 0 64 44" fill="none" xmlns="http://www.w3.org/2000/svg">
<path d="M23.7227 22.866C23.5145 21.7812 22.6046 20.8838 21.5 20.8838H1V36.8838C1 40.1975 3.68629 42.8838 7 42.8838H57C60.3137 42.8838 63 40.1975 63 36.8838V20.8838H43C41.8954 20.8838 40.9855 21.7812 40.7773 22.866C40.243 25.6505 38.4263 30.3838 32.25 30.3838C26.0737 30.3838 24.257 25.6505 23.7227 22.866Z" fill="#F7EBFE"/>
<path d="M1 20.8838H21.5C22.6046 20.8838 23.5145 21.7812 23.7227 22.866C24.257 25.6505 26.0737 30.3838 32.25 30.3838C38.4263 30.3838 40.243 25.6505 40.7773 22.866C40.9855 21.7812 41.8954 20.8838 43 20.8838H63M1 20.8838V36.8838C1 40.1975 3.68629 42.8838 7 42.8838H57C60.3137 42.8838 63 40.1975 63 36.8838V20.8838M1 20.8838L14.2 3.28379C15.3331 1.77295 17.1115 0.883789 19 0.883789H44.5591C46.4142 0.883789 48.1651 1.74199 49.3015 3.20836L63 20.8838" stroke="#B971EF"/>
</svg>
