<svg width="82" height="100" viewBox="0 0 82 100" fill="none" xmlns="http://www.w3.org/2000/svg">
<path d="M74.9504 54.9276L63.8282 51.6145M74.9504 38.3637L63.8282 42.8191M67.4267 69.0084L60.425 61.5539M67.3622 25.1071L60.425 33.7195" stroke="#AF38F9" stroke-width="2.48485" stroke-linecap="round"/>
<path d="M26.7252 60.7739C26.2782 60.677 25.8372 60.9608 25.7403 61.4079C25.6433 61.855 25.9272 62.2959 26.3742 62.3929L26.7252 60.7739ZM48.9549 47.1248L48.826 47.943L48.9549 47.1248ZM50.0132 53.1293L50.7144 53.5702L50.0132 53.1293ZM43.753 65.5097L42.9871 65.1942L42.9729 65.2288L42.9618 65.2646L43.753 65.5097ZM29.3797 80.5658L29.6308 81.3551L29.6539 81.3477L29.6766 81.339L29.3797 80.5658ZM28.1061 80.9543L27.8733 80.1594L28.1061 80.9543ZM25.3381 80.8525C24.895 80.9663 24.628 81.4177 24.7417 81.8607C24.8555 82.3038 25.3068 82.5708 25.7499 82.4571L25.3381 80.8525ZM25.7214 90.4648C25.7214 90.9223 26.0923 91.2931 26.5497 91.2931C27.0072 91.2931 27.378 90.9223 27.378 90.4648H25.7214ZM10.3548 47.7518L9.55792 47.526L10.3548 47.7518ZM3.57029 90.0459C3.30733 90.4202 3.3976 90.9368 3.77192 91.1998C4.14623 91.4627 4.66284 91.3724 4.9258 90.9981L3.57029 90.0459ZM26.5307 2.06577L25.9685 2.67409V2.67409L26.5307 2.06577ZM15.5123 32.5698L16.299 32.829L15.5123 32.5698ZM13.7491 9.54348L14.5567 9.35964L13.7491 9.54348ZM23.0561 4.76629L22.2403 4.62307V4.62307L23.0561 4.76629ZM16.4236 5.07128L16.1851 5.86448L16.4236 5.07128ZM12.3628 41.8422L13.1452 42.1138L12.3628 41.8422ZM9.42964 21.1194L9.3179 21.9402L9.33162 21.9418L9.42964 21.1194ZM8.79998 25.0833L8.04791 25.4303L8.79998 25.0833ZM16.8892 42.7836C16.5683 43.1095 16.5723 43.6339 16.8982 43.9549C17.2242 44.2759 17.7486 44.2719 18.0696 43.9459L16.8892 42.7836ZM45.8282 47.5766C45.9922 48.0036 46.4713 48.217 46.8983 48.0531C47.3254 47.8891 47.5387 47.4101 47.3748 46.983L45.8282 47.5766ZM37.5791 43.8585H38.4074C38.4074 43.5146 38.1949 43.2065 37.8734 43.0843C37.5519 42.9621 37.1884 43.0513 36.9599 43.3084L37.5791 43.8585ZM28.6908 42.7475L29.0469 41.9996C28.7206 41.8443 28.3312 41.9184 28.0849 42.1828C27.8385 42.4472 27.792 42.8408 27.9699 43.1554L28.6908 42.7475ZM22.1499 51.8473L21.888 51.0615C21.6682 51.1347 21.4892 51.2966 21.3943 51.508C21.2994 51.7193 21.2974 51.9606 21.3886 52.1735L22.1499 51.8473ZM40.8887 37.5695L40.2663 38.1161L40.8887 37.5695ZM15.6523 29.347L16.4803 29.3669L15.6523 29.347ZM35.1599 58.5513C33.3413 60.1663 31.2397 60.7271 29.5626 60.8779C28.7257 60.9532 28.005 60.9252 27.4965 60.8788C27.2427 60.8556 27.0433 60.828 26.9103 60.8068C26.8439 60.7962 26.7942 60.7873 26.7629 60.7813C26.7472 60.7783 26.736 60.7761 26.7297 60.7748C26.7265 60.7742 26.7246 60.7738 26.7238 60.7736C26.7234 60.7735 26.7234 60.7735 26.7236 60.7736C26.7237 60.7736 26.7239 60.7737 26.7242 60.7737C26.7243 60.7737 26.7246 60.7738 26.7247 60.7738C26.7249 60.7739 26.7252 60.7739 26.5497 61.5834C26.3742 62.3929 26.3746 62.393 26.3749 62.393C26.3751 62.3931 26.3754 62.3931 26.3757 62.3932C26.3763 62.3933 26.377 62.3935 26.3777 62.3936C26.3792 62.394 26.381 62.3943 26.3832 62.3948C26.3874 62.3957 26.3929 62.3968 26.3997 62.3982C26.4132 62.4009 26.4317 62.4046 26.4549 62.409C26.5013 62.4178 26.5668 62.4295 26.6497 62.4427C26.8156 62.4691 27.0518 62.5016 27.3458 62.5285C27.9327 62.5821 28.7556 62.6138 29.711 62.5278C31.6186 62.3562 34.0971 61.7106 36.2599 59.79L35.1599 58.5513ZM36.2599 59.79C38.3444 57.9387 39.4399 56.2182 40.2672 54.6807C41.1133 53.1085 41.5938 51.9304 42.5289 50.8655L41.2841 49.7725C40.1836 51.0257 39.5565 52.5056 38.8085 53.8957C38.0417 55.3206 37.0567 56.8669 35.1599 58.5513L36.2599 59.79ZM49.3121 52.6884C47.6047 55.4037 46.0233 58.533 44.8728 60.9719C44.2964 62.1938 43.8258 63.2474 43.499 63.9962C43.3356 64.3706 43.2081 64.669 43.1212 64.8744C43.0778 64.977 43.0445 65.0564 43.0219 65.1104C43.0107 65.1375 43.0021 65.1581 42.9963 65.1722C42.9933 65.1792 42.9911 65.1846 42.9896 65.1883C42.9888 65.1901 42.9883 65.1915 42.9878 65.1925C42.9876 65.193 42.9875 65.1934 42.9874 65.1937C42.9873 65.1938 42.9872 65.194 42.9872 65.194C42.9872 65.1941 42.9871 65.1942 43.753 65.5097C44.5188 65.8253 44.5188 65.8253 44.5188 65.8253C44.5188 65.8253 44.5188 65.8252 44.5188 65.8252C44.5189 65.825 44.519 65.8248 44.5191 65.8244C44.5194 65.8237 44.5199 65.8226 44.5206 65.821C44.5218 65.8179 44.5238 65.8131 44.5265 65.8067C44.5318 65.7938 44.5399 65.7743 44.5507 65.7485C44.5722 65.6969 44.6045 65.62 44.6468 65.52C44.7315 65.3198 44.8566 65.0271 45.0173 64.6588C45.3389 63.9219 45.8027 62.8833 46.371 61.6787C47.5098 59.2646 49.0586 56.2037 50.7144 53.5702L49.3121 52.6884ZM43.753 65.5097C42.9618 65.2646 42.9619 65.2643 42.962 65.2641C42.962 65.2641 42.962 65.2639 42.962 65.2638C42.9621 65.2637 42.962 65.2638 42.962 65.264C42.9618 65.2645 42.9615 65.2656 42.9609 65.2673C42.9598 65.2708 42.9579 65.2769 42.9551 65.2854C42.9496 65.3026 42.9407 65.3296 42.9283 65.3661C42.9035 65.4392 42.8648 65.5499 42.8111 65.6942C42.7037 65.9827 42.5365 66.4049 42.3015 66.9271C41.831 67.9721 41.0904 69.4129 40.0152 70.9826C37.8635 74.1239 34.3916 77.7536 29.0827 79.7926L29.6766 81.339C35.3871 79.1458 39.1018 75.2474 41.3819 71.9187C42.5226 70.2534 43.3093 68.7238 43.812 67.6071C44.0635 67.0484 44.2445 66.5919 44.3636 66.272C44.4231 66.112 44.4672 65.9861 44.4969 65.8985C44.5118 65.8547 44.5231 65.8205 44.5309 65.7964C44.5348 65.7843 44.5379 65.7748 44.5401 65.7679C44.5412 65.7644 44.542 65.7616 44.5427 65.7594C44.5431 65.7583 44.5434 65.7574 44.5436 65.7567C44.5437 65.7563 44.5438 65.7559 44.5439 65.7557C44.544 65.7553 44.5441 65.7549 43.753 65.5097ZM29.1285 79.7765C28.7267 79.9044 28.3086 80.0319 27.8733 80.1594L28.3389 81.7492C28.7855 81.6183 29.2159 81.4871 29.6308 81.3551L29.1285 79.7765ZM27.8733 80.1594C27.086 80.3899 26.2428 80.6203 25.3381 80.8525L25.7499 82.4571C26.67 82.2209 27.5313 81.9856 28.3389 81.7492L27.8733 80.1594ZM27.2965 80.7791C27.0354 81.986 26.6441 83.9109 26.3176 85.7699C25.996 87.6008 25.7214 89.4523 25.7214 90.4648H27.378C27.378 89.6229 27.6222 87.9179 27.9492 86.0564C28.2711 84.2232 28.658 82.32 28.9156 81.1294L27.2965 80.7791ZM48.826 47.943C49.492 48.0479 49.9366 48.5693 50.0555 49.545C50.1753 50.5278 49.904 51.7469 49.3121 52.6884L50.7144 53.5702C51.4982 52.3237 51.8681 50.7249 51.6999 49.3446C51.5309 47.9571 50.7585 46.5703 49.0837 46.3066L48.826 47.943ZM9.55792 47.526C9.40723 48.0578 9.28894 48.9431 9.18767 50.0214C9.08429 51.1221 8.99329 52.4902 8.91203 54.0279C8.74946 57.1041 8.62446 60.8871 8.51888 64.6219C8.41299 68.3674 8.32716 72.043 8.24186 74.9515C8.19932 76.4022 8.15721 77.6507 8.11332 78.6064C8.06823 79.5883 8.02333 80.1996 7.98418 80.4225L9.61577 80.7091C9.67736 80.3584 9.7248 79.6263 9.76814 78.6824C9.81269 77.7124 9.85512 76.4526 9.89771 75.0001C9.9827 72.102 10.0696 68.391 10.1748 64.6687C10.2803 60.9357 10.4049 57.1699 10.5663 54.1153C10.647 52.5875 10.7366 51.2447 10.837 50.1763C10.9394 49.0856 11.048 48.3438 11.1517 47.9777L9.55792 47.526ZM7.98418 80.4225C7.80414 81.4477 7.05251 83.3618 6.13166 85.3287C5.21917 87.2777 4.20634 89.1405 3.57029 90.0459L4.9258 90.9981C5.64682 89.9718 6.70847 88.0036 7.63195 86.0311C8.54706 84.0764 9.39287 81.9783 9.61577 80.7091L7.98418 80.4225ZM25.9685 2.67409C26.7526 3.39864 27.2983 4.85846 27.4924 7.13856C27.6829 9.37686 27.5209 12.2261 27.0755 15.5135C26.1856 22.0825 24.1851 30.2568 21.7734 38.4959L23.3633 38.9613C25.7838 30.6921 27.8108 22.4259 28.7171 15.7359C29.1698 12.394 29.3482 9.40914 29.1429 6.99805C28.9413 4.62874 28.355 2.6238 27.0928 1.45744L25.9685 2.67409ZM16.299 32.829C18.1632 27.1711 20.3702 22.1687 21.9914 15.7568L20.3854 15.3507C18.7783 21.7069 16.6562 26.4515 14.7256 32.3106L16.299 32.829ZM21.9914 15.7568C22.7867 12.6112 23.3902 7.65357 23.8719 4.90951L22.2403 4.62307C21.7288 7.53648 21.1631 12.2746 20.3854 15.3507L21.9914 15.7568ZM16.1851 5.86448C16.3349 5.90953 16.6391 6.10476 17.0529 6.62247C17.4473 7.1158 17.8724 7.81537 18.292 8.70094C19.1296 10.4691 19.9057 12.8961 20.3714 15.6899L22.0054 15.4176C21.5181 12.4937 20.701 9.91671 19.789 7.99174C19.3338 7.03073 18.8451 6.21141 18.3469 5.58818C17.8683 4.98932 17.3014 4.47031 16.6621 4.27808L16.1851 5.86448ZM11.1517 47.9777C11.382 47.165 12.1124 45.0886 13.1452 42.1138L11.5803 41.5705C10.5632 44.4999 9.80556 46.6521 9.55792 47.526L11.1517 47.9777ZM13.1452 42.1138C14.0333 39.5563 15.1333 36.3668 16.299 32.829L14.7256 32.3106C13.5641 35.8358 12.4675 39.0154 11.5803 41.5705L13.1452 42.1138ZM13.1808 41.7119C12.751 39.0127 12.105 36.6997 12.105 33.3099H10.4484C10.4484 36.8744 11.1431 39.4492 11.5448 41.9724L13.1808 41.7119ZM12.105 33.3099C12.105 30.6479 10.8375 27.5218 9.55205 24.7362L8.04791 25.4303C9.34881 28.2494 10.4484 31.0617 10.4484 33.3099H12.105ZM22.0447 38.0869C20.6903 39.1922 19.4022 40.3659 18.4552 41.2606C17.9809 41.7086 17.5906 42.0882 17.3185 42.3562C17.1823 42.4902 17.0757 42.5964 17.0027 42.6694C16.9663 42.7059 16.9382 42.7341 16.9191 42.7534C16.9096 42.763 16.9023 42.7704 16.8973 42.7754C16.8948 42.778 16.8928 42.7799 16.8915 42.7813C16.8908 42.782 16.8903 42.7825 16.8899 42.7829C16.8897 42.7831 16.8896 42.7832 16.8895 42.7833C16.8894 42.7834 16.8893 42.7835 16.8893 42.7835C16.8893 42.7835 16.8892 42.7836 17.4794 43.3647C18.0696 43.9459 18.0695 43.9459 18.0695 43.946C18.0695 43.9459 18.0695 43.9459 18.0695 43.9459C18.0696 43.9459 18.0696 43.9458 18.0698 43.9457C18.07 43.9455 18.0703 43.9451 18.0708 43.9446C18.0718 43.9436 18.0734 43.942 18.0756 43.9398C18.0799 43.9354 18.0865 43.9287 18.0954 43.9198C18.1131 43.902 18.1397 43.8752 18.1747 43.8402C18.2446 43.7702 18.348 43.6672 18.4807 43.5366C18.7461 43.2753 19.1281 42.9038 19.5928 42.4648C20.5236 41.5855 21.78 40.4411 23.0921 39.3703L22.0447 38.0869ZM23.0921 39.3703C24.219 38.4506 25.7174 37.542 27.0666 36.8623C27.7389 36.5237 28.3601 36.249 28.8649 36.0613C29.4082 35.8592 29.7126 35.7985 29.8019 35.7985V34.1419C29.3823 34.1419 28.8249 34.3088 28.2875 34.5086C27.7117 34.7227 27.0334 35.0242 26.3214 35.3828C24.9021 36.0978 23.2926 37.0684 22.0447 38.0869L23.0921 39.3703ZM9.54137 20.2987C8.9121 20.213 8.28802 20.3111 7.82225 20.7455C7.3749 21.1627 7.2396 21.7388 7.22122 22.235C7.18497 23.2139 7.58033 24.4171 8.04791 25.4303L9.55205 24.7362C9.11284 23.7845 8.85526 22.8739 8.87665 22.2963C8.88158 22.1632 8.9009 22.0738 8.92061 22.0187C8.93006 21.9923 8.9387 21.9763 8.94411 21.9677C8.94682 21.9634 8.94886 21.9607 8.95007 21.9592C8.95126 21.9578 8.95194 21.9571 8.95212 21.957C8.95229 21.9568 8.95247 21.9566 8.9529 21.9563C8.95332 21.956 8.95461 21.9552 8.95713 21.9539C8.96185 21.9514 8.97449 21.9455 8.99887 21.9398C9.04963 21.9279 9.14961 21.9172 9.31792 21.9401L9.54137 20.2987ZM14.5567 9.35964C14.3233 8.33442 14.4629 7.26646 14.8328 6.56703C15.0147 6.22318 15.228 6.01167 15.4323 5.90506C15.6191 5.80757 15.8565 5.76568 16.1851 5.86448L16.6621 4.27808C15.9472 4.06313 15.2609 4.12598 14.6659 4.43642C14.0885 4.73775 13.662 5.23737 13.3684 5.79259C12.7874 6.8913 12.6332 8.37319 12.9414 9.72733L14.5567 9.35964ZM27.0928 1.45744C26.5893 0.992182 25.9933 0.764731 25.3662 0.8186C24.7665 0.870108 24.2476 1.16914 23.8384 1.53907C23.0296 2.27021 22.4454 3.45506 22.2403 4.62307L23.8719 4.90951C24.0267 4.02782 24.4671 3.20387 24.9493 2.76791C25.1856 2.55429 25.3787 2.48018 25.5079 2.46909C25.6097 2.46035 25.7594 2.48082 25.9685 2.67409L27.0928 1.45744ZM41.9065 50.319C42.4114 50.9756 42.4113 50.9757 42.4112 50.9757C42.4112 50.9757 42.4112 50.9758 42.4112 50.9758C42.4112 50.9757 42.4113 50.9757 42.4114 50.9756C42.4118 50.9753 42.4123 50.9749 42.4132 50.9742C42.4149 50.9729 42.4177 50.9708 42.4216 50.9678C42.4294 50.9619 42.4414 50.9527 42.4576 50.9406C42.4899 50.9162 42.5385 50.8799 42.6018 50.8333C42.7283 50.7402 42.9131 50.6065 43.1429 50.4467C43.6034 50.1265 44.2393 49.7051 44.9446 49.297C45.6534 48.8868 46.413 48.5014 47.1236 48.2426C47.8557 47.9759 48.4354 47.8815 48.826 47.943L49.0837 46.3066C48.2731 46.179 47.3712 46.3893 46.5566 46.6861C45.7204 46.9907 44.868 47.4274 44.115 47.8631C43.3586 48.3008 42.6828 48.749 42.1971 49.0867C41.9537 49.256 41.7568 49.3984 41.6199 49.4991C41.5514 49.5495 41.4978 49.5896 41.4609 49.6174C41.4425 49.6313 41.4281 49.6422 41.4182 49.6497C41.4132 49.6535 41.4093 49.6565 41.4065 49.6586C41.4052 49.6597 41.4041 49.6605 41.4032 49.6612C41.4028 49.6615 41.4025 49.6617 41.4022 49.6619C41.4021 49.662 41.4019 49.6622 41.4019 49.6622C41.4017 49.6623 41.4016 49.6624 41.9065 50.319ZM41.9065 50.319C42.5248 49.7679 42.5249 49.768 42.5249 49.768C42.5249 49.768 42.5249 49.768 42.5248 49.7679C42.5248 49.7678 42.5246 49.7677 42.5244 49.7674C42.524 49.767 42.5233 49.7662 42.5224 49.7652C42.5206 49.7631 42.5177 49.7599 42.5139 49.7556C42.5062 49.7469 42.4946 49.7338 42.4792 49.7164C42.4486 49.6816 42.4032 49.6299 42.3452 49.5634C42.2292 49.4301 42.0629 49.2373 41.8631 49.0008C41.4628 48.5269 40.931 47.8807 40.4007 47.1874C39.868 46.4908 39.3489 45.7623 38.9668 45.121C38.7756 44.8001 38.6281 44.5165 38.5306 44.2806C38.4268 44.0295 38.4074 43.8974 38.4074 43.8585H36.7508C36.7508 44.2209 36.8666 44.5915 36.9996 44.9132C37.1387 45.25 37.3293 45.609 37.5437 45.969C37.973 46.6895 38.5358 47.4758 39.0849 48.1937C39.6365 48.915 40.1865 49.583 40.5976 50.0697C40.8034 50.3134 40.9752 50.5125 41.0959 50.6511C41.1562 50.7204 41.2038 50.7746 41.2365 50.8118C41.2529 50.8304 41.2656 50.8447 41.2743 50.8545C41.2786 50.8594 41.282 50.8631 41.2843 50.8658C41.2854 50.8671 41.2863 50.8681 41.287 50.8688C41.2873 50.8692 41.2876 50.8695 41.2878 50.8697C41.2879 50.8698 41.2879 50.8699 41.288 50.8699C41.2881 50.87 41.2881 50.8701 41.9065 50.319ZM36.9599 43.3084C37.051 43.2058 37.1338 43.1841 37.1076 43.1935C37.0928 43.1987 37.0445 43.2126 36.9493 43.2257C36.7595 43.2519 36.4809 43.2623 36.1187 43.2517C35.4005 43.2307 34.4652 43.1307 33.4896 42.9861C32.5179 42.8421 31.5281 42.6571 30.7075 42.472C29.8556 42.2799 29.2696 42.1057 29.0469 41.9996L28.3348 43.4953C28.7488 43.6925 29.5108 43.9003 30.3431 44.088C31.2065 44.2827 32.237 44.4751 33.2467 44.6248C34.2525 44.7738 35.2597 44.8838 36.0702 44.9076C36.4723 44.9193 36.8546 44.911 37.1753 44.8668C37.3354 44.8447 37.5048 44.8106 37.6642 44.7537C37.8122 44.7009 38.0257 44.6029 38.1983 44.4087L36.9599 43.3084ZM27.9699 43.1554C27.9152 43.0586 27.9213 42.9971 27.9225 43.0349C27.9235 43.0639 27.9204 43.129 27.9001 43.238C27.8595 43.456 27.767 43.7614 27.615 44.1419C27.3132 44.8976 26.8166 45.8513 26.1931 46.82C25.5701 47.788 24.8366 48.7457 24.0713 49.5197C23.294 50.3058 22.5415 50.8437 21.888 51.0615L22.4118 52.633C23.4249 52.2953 24.3963 51.5471 25.2493 50.6844C26.1143 49.8095 26.9174 48.7555 27.5861 47.7166C28.2542 46.6784 28.8044 45.6301 29.1534 44.7563C29.3269 44.322 29.4608 43.9058 29.5287 43.5413C29.5626 43.3591 29.5843 43.1677 29.5782 42.9807C29.5724 42.8025 29.5396 42.5656 29.4117 42.3396L27.9699 43.1554ZM21.3886 52.1735C24.0735 58.4383 30.1813 59.9989 35.7099 59.9989V58.3423C30.399 58.3423 25.196 56.8521 22.9112 51.521L21.3886 52.1735ZM29.8019 35.7985C29.9826 35.7985 30.6692 35.8729 31.6916 36.024C32.6829 36.1704 33.923 36.3786 35.1638 36.6242C36.4078 36.8706 37.636 37.1515 38.6104 37.4418C39.0988 37.5873 39.5057 37.73 39.8119 37.865C39.9647 37.9323 40.0805 37.9926 40.1635 38.0438C40.2518 38.0983 40.2743 38.1252 40.2663 38.1161L41.5111 37.023C41.2487 36.7242 40.8439 36.5095 40.4802 36.3492C40.0851 36.175 39.6052 36.0096 39.0834 35.8542C38.0375 35.5426 36.7519 35.25 35.4855 34.9992C34.2159 34.7478 32.9491 34.5352 31.9338 34.3852C30.9497 34.2398 30.1301 34.1419 29.8019 34.1419V35.7985ZM40.2663 38.1161C40.4723 38.3507 40.8826 38.9408 41.4205 39.7809C41.9454 40.6007 42.5605 41.6082 43.166 42.6359C44.3947 44.721 45.5284 46.7954 45.8282 47.5766L47.3748 46.983C47.0156 46.0471 45.8018 43.8459 44.5933 41.7949C43.9802 40.7545 43.3542 39.7289 42.8156 38.8876C42.2899 38.0666 41.8139 37.3679 41.5111 37.023L40.2663 38.1161ZM16.339 32.6219C16.4086 31.5162 16.4548 30.4304 16.4803 29.3669L14.8242 29.3272C14.7992 30.3698 14.7539 31.4341 14.6857 32.5177L16.339 32.6219ZM16.4803 29.3669C16.6836 20.8894 15.5726 13.8223 14.5567 9.35964L12.9414 9.72733C13.933 14.083 15.0236 21.0114 14.8242 29.3272L16.4803 29.3669ZM9.33162 21.9418C9.30991 21.9392 9.39282 21.9514 9.60612 22.0818C9.79876 22.1995 10.0388 22.3769 10.3152 22.6133C10.8666 23.085 11.5132 23.7487 12.148 24.5219C13.4397 26.0953 14.5663 27.9797 14.8369 29.4928L16.4676 29.2012C16.1211 27.264 14.7746 25.1107 13.4283 23.4708C12.7441 22.6374 12.0305 21.9007 11.392 21.3545C11.0734 21.082 10.761 20.8461 10.4701 20.6684C10.2 20.5032 9.86843 20.3375 9.52767 20.2969L9.33162 21.9418Z" fill="#445B6A"/>
</svg>
