<svg fill="none" height="56" viewBox="0 0 46 56" width="46" xmlns="http://www.w3.org/2000/svg"><path d="m43.4944 33.3594-6.714-2m6.714-7.999-6.714 2.6896m2.1723 15.8094-4.2267-4.5m4.1877-22.0014-4.1877 5.1989" stroke="#af38f9" stroke-linecap="round" stroke-width="1.5"/><path d="m14.3832 36.8887c-.2699-.0585-.5361.1128-.5946.3827-.0585.2698.1128.536.3827.5946zm13.4191-8.2395-.0778.494zm.6389 3.6247.4233.2662zm-3.7791 7.4736-.4623-.1905-.0086.0209-.0067.0216zm-8.6765 9.0887.1516.4765.0139-.0045.0137-.0052zm-.7688.2345-.1406-.4798zm-1.671-.0614c-.2675.0687-.4286.3411-.36.6086.0687.2675.3412.4287.6086.36zm.2314 5.8025c0 .2762.2239.5.5.5.2762 0 .5-.2238.5-.5zm-9.27616-25.784-.48106-.1364zm-4.095545 25.5312c-.158737.2259-.104244.5378.121714.6965s.537811.1042.696551-.1217zm13.860205-53.11007-.3393.36722zm-6.65129 18.41407.47488.1565zm-1.0644-13.90007.48753-.11099zm5.61829-2.8838-.4925-.08646zm-4.00378.18411-.14398.47882zm-2.45135 22.19706.47234.164zm-1.77062-12.5095-.06746.4955.00828.001zm-.38011 2.3929-.45399.2095zm4.88316 10.6849c-.19376.1968-.19133.5134.00543.7071.19675.1938.51332.1913.70708-.0054zm17.4693 2.8934c.099.2578.3882.3865.646.2876.2578-.099.3866-.3882.2876-.646zm-4.9797-2.2445h.5c0-.2076-.1282-.3936-.3223-.4674-.1941-.0737-.4135-.0199-.5514.1353zm-5.3655-.6707.215-.4514c-.197-.0938-.432-.049-.5808.1106-.1487.1596-.1768.3972-.0693.587zm-3.9484 5.4932-.1582-.4743c-.1326.0442-.2407.1419-.298.2695-.0572.1275-.0585.2732-.0034.4018zm11.3118-8.6189-.3757.3299zm-15.23421-4.9636.49985.012zm11.77601 17.6295c-1.0978.9749-2.3665 1.3134-3.3789 1.4045-.5052.0454-.9403.0285-1.2472.0005-.1532-.014-.2736-.0307-.3539-.0435-.0401-.0064-.07-.0118-.089-.0154-.0095-.0018-.0162-.0031-.02-.0039-.0019-.0004-.0031-.0006-.0036-.0007-.0002-.0001-.0002-.0001-.0001 0h.0004s.0002.0001.0002.0001c.0002 0 .0004.0001-.1056.4887-.1059.4887-.1057.4887-.1055.4888.0001 0 .0003 0 .0005.0001.0004 0 .0008.0001.0012.0002.0009.0002.002.0004.0033.0007.0026.0006.0059.0012.01.0021.0081.0016.0193.0038.0333.0065.028.0053.0675.0124.1176.0203.1001.016.2427.0356.4202.0518.3543.0324.851.0515 1.4278-.0004 1.1515-.1036 2.6477-.4933 3.9533-1.6527zm.664.7477c1.2583-1.1175 1.9196-2.1561 2.419-3.0843.5108-.9491.8008-1.6602 1.3653-2.303l-.7514-.6599c-.6643.7565-1.0429 1.6499-1.4945 2.4891-.4628.8601-1.0574 1.7935-2.2024 2.8104zm7.879-4.2869c-1.0306 1.6391-1.9852 3.5281-2.6798 5.0004-.3479.7376-.632 1.3736-.8292 1.8256-.0987.2261-.1757.4062-.2281.5301-.0262.062-.0463.1099-.0599.1425-.0069.0164-.012.0288-.0156.0373-.0017.0042-.0031.0075-.004.0097-.0004.0011-.0008.002-.001.0026-.0002.0003-.0003.0005-.0003.0007-.0001.0001-.0001.0002-.0001.0002 0 .0001-.0001.0001.4622.1906s.4623.1905.4623.1905.0001-.0001.0001-.0001c0-.0001.0001-.0002.0002-.0005.0001-.0004.0004-.0011.0008-.002.0008-.0019.002-.0048.0036-.0087.0032-.0078.0081-.0195.0146-.0351.013-.0311.0325-.0776.058-.138.0511-.1208.1267-.2975.2237-.5198.1941-.4448.4741-1.0718.8172-1.799.6874-1.4572 1.6223-3.305 2.6219-4.8947zm-3.3558 7.7397c-.4776-.148-.4775-.1482-.4775-.1483 0 0 .0001-.0001.0001-.0002v.0002c-.0001.0002-.0003.0009-.0007.002-.0007.0021-.0018.0057-.0035.0109-.0033.0103-.0087.0267-.0162.0487-.015.0441-.0383.1109-.0707.198-.0649.1742-.1658.4291-.3077.7443-.284.6308-.731 1.5006-1.3801 2.4481-1.2989 1.8963-3.3948 4.0874-6.5995 5.3183l.3585.9335c3.4472-1.324 5.6896-3.6773 7.066-5.6867.6886-1.0052 1.1635-1.9286 1.467-2.6027.1518-.3373.2611-.6129.3329-.806.036-.0965.0626-.1726.0806-.2254.0089-.0265.0157-.0471.0205-.0617.0023-.0073.0042-.013.0055-.0172.0006-.0021.0012-.0038.0016-.0051.0002-.0006.0004-.0012.0005-.0017.0001-.0002.0002-.0005.0002-.0006.0001-.0002.0001-.0004-.4775-.1484zm-8.8281 8.6123c-.2426.0771-.495.1541-.7578.2311l.2811.9597c.2696-.079.5294-.1582.7799-.2379zm-.7578.2311c-.4752.1391-.9842.2782-1.5304.4184l.2486.9686c.5554-.1426 1.0754-.2846 1.5629-.4273zm-.3481.3741c-.1577.7285-.3939 1.8905-.591 3.0127-.1941 1.1052-.3599 2.2229-.3599 2.8341h1c0-.5082.1475-1.5374.3448-2.6611.1944-1.1067.4279-2.2555.5834-2.9742zm12.9964-19.8218c.402.0633.6705.378.7422.967.0723.5933-.0914 1.3292-.4488 1.8976l.8466.5323c.4731-.7525.6964-1.7176.5949-2.5508-.1021-.8376-.5683-1.6748-1.5793-1.834zm-23.70452-.2518c-.09096.321-.16237.8555-.2235 1.5064-.06241.6645-.11734 1.4903-.16639 2.4185-.09814 1.857-.1736 4.1407-.23733 6.3952-.06392 2.261-.11574 4.4798-.16723 6.2356-.02568.8757-.0511 1.6294-.07759 2.2063-.02722.5928-.05433.9618-.07796 1.0963l.98493.173c.03718-.2117.06581-.6536.09198-1.2234.02689-.5856.0525-1.346.07821-2.2229.05131-1.7494.10373-3.9896.16726-6.2366.0637-2.2535.13889-4.5267.23633-6.3707.04874-.9222.10283-1.7328.16341-2.3778.06184-.6584.12736-1.1062.19-1.3272zm-.95 19.8583c-.10868.6189-.56241 1.7743-1.11829 2.9617-.55083 1.1765-1.16224 2.301-1.546195 2.8476l.818265.5748c.43525-.6196 1.07613-1.8077 1.63359-2.9984.55242-1.18 1.063-2.4465 1.19756-3.2127zm10.85642-46.93355c.4733.43738.8027 1.31862.9199 2.69502.115 1.35117.0172 3.07113-.2517 5.05564-.5372 3.96539-1.7448 8.89989-3.2006 13.87349l.9597.2809c1.4612-4.9917 2.6848-9.9817 3.2319-14.02014.2733-2.01742.381-3.81923.2571-5.27471-.1218-1.43025-.4757-2.64056-1.2376-3.34464zm-5.83711 18.20335c1.12538-3.4155 2.45761-6.4352 3.43631-10.30585l-.9695-.24513c-.97017 3.83698-2.25117 6.70108-3.41658 10.23798zm3.43631-10.30585c.4801-1.89888.8444-4.89159 1.1352-6.54806l-.985-.17292c-.3087 1.75871-.6502 4.61893-1.1197 6.47585zm-3.50506-5.97159c.09046.0272.27409.14505.52388.45757.23804.2978.4947.7201.74795 1.25469.50566 1.06739.97413 2.53244 1.25523 4.21897l.9864-.1644c-.2942-1.76503-.7874-3.32067-1.3379-4.48269-.27483-.58012-.56983-1.07471-.87054-1.45093-.28895-.36151-.63114-.67481-1.01707-.79086zm-3.03844 25.42204c.13903-.4906.57991-1.7441 1.20341-3.5398l-.94468-.328c-.61401 1.7684-1.07135 3.0676-1.22085 3.5951zm1.20341-3.5398c.53607-1.5439 1.2001-3.4692 1.90378-5.6048l-.94977-.313c-.70117 2.128-1.36315 4.0474-1.89869 5.5898zm.02144-.2426c-.25941-1.6294-.64941-3.0257-.64941-5.0719h-1c0 2.1517.41936 3.706.66185 5.2291zm-.64941-5.0719c0-1.607-.76514-3.4941-1.5411-5.1756l-.90799.419c.7853 1.7018 1.44909 3.3994 1.44909 4.7566zm6.00016 2.8836c-.8175.6672-1.59511 1.3758-2.16681 1.9159-.28628.2704-.52188.4995-.68618.6613-.08217.0809-.14656.145-.1906.1891-.02201.022-.03895.0391-.05047.0507-.00577.0058-.01018.0103-.0132.0133-.00151.0015-.00267.0027-.00348.0035-.0004.0004-.00072.0008-.00095.001-.00011.0001-.0002.0002-.00027.0003-.00004 0-.00007 0-.00009.0001-.00003 0-.00005 0 .3562.3508.35626.3509.35625.3509.35624.3509h.00001c.00002 0 .00007-.0001.00013-.0001.00013-.0002.00035-.0004.00065-.0007.00061-.0006.00157-.0016.00287-.0029.00262-.0027.00661-.0067.01195-.0121.01068-.0108.02674-.0269.04785-.048.04223-.0423.10467-.1045.18475-.1833.16019-.1577.39079-.382.6713-.647.5619-.5308 1.3203-1.2216 2.1124-1.8681zm.6323.7747c.6803-.5552 1.5848-1.1036 2.3993-1.5139.4058-.2044.7808-.3702 1.0855-.4836.328-.1219.5117-.1586.5656-.1586v-1c-.2533 0-.5898.1007-.9141.2213-.3476.1293-.7571.3113-1.1869.5278-.8568.4316-1.8284 1.0175-2.5817 1.6323zm-8.18001-11.5127c-.37986-.0517-.75659.0075-1.03776.2697-.27004.2519-.35172.5996-.36282.8992-.02188.5909.21678 1.3172.49904 1.9289l.90799-.419c-.26514-.5746-.42062-1.1242-.40771-1.4729.00297-.0804.01464-.1344.02653-.1676.00571-.016.01093-.0256.01419-.0308.00163-.0026.00287-.0042.0036-.0051.00072-.0009.00113-.0013.00124-.0014.0001-.0001.00021-.0002.00046-.0003.00026-.0002.00104-.0007.00256-.0015.00285-.0015.01048-.0051.0252-.0085.03064-.0072.091-.0137.19259.0001zm3.02755-6.60346c-.14089-.61887-.0566-1.26356.16668-1.68578.10978-.20757.23855-.33525.36188-.3996.11278-.05886.25608-.08414.45444-.0245l.28795-.95765c-.43154-.12975-.84587-.09181-1.20501.09559-.34858.1819-.606.4835-.78325.81866-.35076.66325-.44383 1.5578-.25775 2.37525zm7.56756-4.77023c-.304-.280858-.6637-.418161-1.0423-.385642-.362.031093-.6753.211604-.9223.434912-.4882.44136-.8409 1.15661-.9647 1.86169l.985.17292c.0934-.53225.3592-1.02963.6503-1.2928.1427-.12896.2593-.17369.3373-.18039.0614-.00527.1517.00708.278.12375zm8.9424 29.49579c.3048.3963.3047.3964.3047.3964s0 0 .0001-.0001c.0002-.0001.0006-.0004.0011-.0008.001-.0008.0027-.0021.005-.0039.0047-.0036.012-.0091.0218-.0164.0195-.0147.0488-.0367.087-.0648.0764-.0562.188-.1369.3267-.2333.278-.1934.6618-.4477 1.0876-.6941.4279-.2476.8864-.4803 1.3153-.6365.442-.161.7919-.218 1.0277-.1808l.1556-.9879c-.4893-.077-1.0338.0499-1.5255.2291-.5048.1839-1.0194.4475-1.4739.7105-.4566.2643-.8646.5348-1.1578.7387-.1469.1021-.2658.1881-.3484.2489-.0414.0305-.0737.0546-.096.0714-.0111.0084-.0198.015-.0258.0195-.003.0023-.0053.0041-.007.0054-.0008.0006-.0015.0012-.002.0015-.0002.0002-.0005.0004-.0006.0005s-.0002.0001-.0002.0002c-.0001 0-.0002.0001.3046.3965zm0 0c.3733-.3327.3733-.3327.3733-.3327-.0001-.0001-.0002-.0002-.0003-.0003-.0002-.0003-.0006-.0007-.0012-.0013-.0011-.0013-.0028-.0032-.0051-.0059-.0047-.0052-.0117-.0131-.021-.0236-.0185-.021-.0458-.0522-.0808-.0924-.0701-.0804-.1705-.1968-.2911-.3396-.2416-.2861-.5627-.6762-.8828-1.0947-.3215-.4204-.6349-.8603-.8656-1.2474-.1154-.1937-.2045-.3649-.2633-.5073-.0626-.1515-.0744-.2313-.0744-.2548h-1c0 .2187.0699.4425.1502.6367.084.2033.199.42.3285.6373.2591.435.5988.9096.9303 1.343.333.4354.665.8386.9132 1.1325.1242.1471.2279.2673.3008.3509.0364.0419.0651.0746.0849.097.0099.0112.0175.0199.0228.0258.0026.003.0046.0052.006.0068.0007.0008.0012.0014.0016.0018.0002.0003.0004.0004.0005.0006.0001 0 .0001.0001.0001.0001.0001.0001.0001.0001.3734-.3325zm-2.986-4.2321c.055-.0619.1049-.075.0891-.0694-.009.0032-.0381.0116-.0956.0195-.1145.0158-.2827.0221-.5013.0157-.4336-.0127-.9982-.073-1.5871-.1603-.5866-.0869-1.1841-.1986-1.6795-.3103-.5142-.116-.868-.2212-1.0024-.2852l-.4299.9029c.25.119.7099.2445 1.2123.3578.5213.1175 1.1433.2336 1.7529.324.6071.09 1.2151.1563 1.7044.1707.2427.0071.4735.002.6671-.0246.0966-.0133.1989-.034.2951-.0683.0894-.0319.2182-.091.3224-.2083zm-5.4269-.0924c-.0331-.0584-.0294-.0955-.0287-.0727.0006.0175-.0012.0568-.0135.1226-.0245.1316-.0803.316-.1721.5457-.1822.4562-.482 1.0319-.8583 1.6167-.3761.5843-.8189 1.1624-1.2809 1.6296-.4692.4746-.9235.7993-1.318.9308l.3163.9486c.6115-.2038 1.1979-.6555 1.7128-1.1763.5222-.5281 1.007-1.1644 1.4106-1.7915.4034-.6267.7355-1.2595.9462-1.787.1047-.2622.1855-.5134.2265-.7335.0205-.11.0336-.2255.0299-.3384-.0035-.1076-.0233-.2506-.1005-.387zm-3.9729 5.444c1.6208 3.7818 5.3078 4.7238 8.6452 4.7238v-1c-3.206 0-6.3468-.8996-7.7261-4.1178zm5.0787-9.885c.1091 0 .5236.0449 1.1408.1361.5984.0884 1.347.2141 2.096.3624.751.1487 1.4924.3183 2.0806.4935.2948.0878.5404.174.7253.2555.0922.0406.1621.077.2122.1079.0534.0329.0669.0491.0621.0436l.7514-.6598c-.1584-.1804-.4028-.31-.6223-.4068-.2385-.1051-.5282-.2049-.8432-.2988-.6314-.1881-1.4074-.3647-2.1719-.5161-.7664-.1517-1.5311-.2801-2.144-.3707-.5941-.0877-1.0888-.1468-1.287-.1468zm6.317 1.399c.1244.1417.372.4979.6967 1.005.3169.4949.6882 1.1031 1.0537 1.7235.7417 1.2587 1.4261 2.5109 1.6071 2.9825l.9336-.3584c-.2168-.5649-.9495-1.8937-1.6791-3.1318-.3701-.628-.748-1.2472-1.0731-1.755-.3174-.4956-.6047-.9174-.7875-1.1256zm-14.44398-3.3166c.04205-.6675.06993-1.3229.08532-1.9649l-.99971-.024c-.01509.6294-.04242 1.2719-.08363 1.926zm.08532-1.9649c.1227-5.1175-.54796-9.38363-1.1612-12.07756l-.97506.22197c.59854 2.62932 1.25691 6.81179 1.13655 11.83159zm-4.31537-4.4822c-.0131-.0016.03695.0058.16571.0845.11629.0711.26117.1781.42803.3209.33286.2847.72318.6854 1.10638 1.1521.77974.9498 1.45985 2.0873 1.62321 3.0007l.98438-.176c-.20914-1.1694-1.022-2.4693-1.8347-3.4592-.41302-.5031-.84379-.9478-1.22927-1.2776-.1923-.1644-.3809-.3068-.55646-.4141-.16307-.0997-.36322-.1998-.56893-.2243z" fill="#445b6a"/></svg>