<svg fill="none" height="71" viewBox="0 0 74 71" width="74" xmlns="http://www.w3.org/2000/svg"><path d="m20.6087 35.904s.7089.0969 1.1871.2967m7.6036 5.6388c-.1705-.2169-.304-.4979-.6098-.8219m-6.9938-4.8169c.9459-2.4247 2.5321-5.8293 2.9678-9.2m-2.9678 9.2c1.4405.602 2.7648 1.3102 3.8581 2.0807m-11.5743 2.371c2.9111-4.3667 6.4141-13.8301 7.638-19.7019.2471-1.1855 1.51-1.9514 2.186-.9467 1.0368 1.5413 1.2254 4.1694.86 6.9969m-10.684 13.6517c2.3742 2.0764 6.2323 5.342 5.9356 8.3097m-5.9356-8.3097c-1.3573-1.1871-2.1647-3.2646-2.3742-5.0452-.1539-1.3085-1.1463-3.4555-3.39653-3.9246-1.1758-.2451-1.89808 1.0725-1.70203 2.2575.54203 3.2761.35014 7.3058.35014 7.3058s-.89033 5.6388 4.10102 10.3872m13.7056-24.6324c.2892-1.9515.5602-5.2186.7255-7.4378.0919-1.2332 1.2792-1.9969 2.1437-1.1126.7117.728 1.4234 1.86 1.7666 3.6007m-3.7455 16.2304c3.8-8.1067 4.3563-13.1324 3.7455-16.2304m-3.7455 16.2304c1.2481.8797 2.3759 1.9311 3.1357 2.7362m.6098-18.9666c1.8977.2755 4.2509 2.3424 3.3772 7.9876m-3.987 10.979c2.3742-4.6428 3.5621-8.2339 3.987-10.979m0 0c1.8795.867 4.2142 5.0344-1.4839 14.7687-.7914 2.9677-4.0362 9.5562-10.684 13.3549l-10.3872 10.0904m2.671-15.1356c-.6875-.5312-1.296-1.023-1.8345-1.4839m0 0-10.33333 6.5291" stroke="#445b6a" stroke-linecap="round"/><path d="m62.2945 43.324c-.3017-.679-.5987-1.3699-.8903-2.0686m-6.5291-5.3508c-.9712-2.5252-1.6881-4.6831-2.1877-6.5291m0 0c-1.164-4.3007-1.1488-6.9092-.4219-8.5269.5357-1.1921 2.0465-.6322 2.4025.6252 1.1453 4.0454 3.6351 12.3502 6.7362 19.7816m-8.7168-11.8799c-.6783-2.2542-1.8394-6.4145-2.4518-8.6233-.2406-.8675-1.088-1.4727-1.81-.9349-.7675.5716-1.5633 1.7572-1.5633 4.2162m0 0c-1.1871-.8903-3.5614-.5936-2.9679 5.9355m2.9679-5.9355c.6924 3.4624 1.7806 8.9033 4.1548 14.542m-7.1227-8.6065c.6925 2.671 2.1369 8.6065 3.5614 10.9808m-3.5614-10.9808c-1.3849-.0989-3.5019 1.3058-2.0774 7.7162l3.2646 10.0904c.3956 2.2753 2.9799 10.0222 6.8258 10.0904m0 0c.1516.0027 9.3979 9.2001 11.2775 12.1679m-11.2775-12.1679c1.0724.019 3.621-.3466 3.621-.3466m5.8758-16.264c-.0569-.1368.4361-7.4792 4.099-7.9901 1.0441-.1456 1.5884 1.0456 1.325 2.0663-.6038 2.3396-1.2832 5.8023-.9723 8.2891.4147 3.3175-1.1503 6.5383-2.671 8.853m-2.0048 2.2199s1.3488-1.2214 2.0048-2.2199m0 0c2.671 2.391 8.4285 7.3511 10.0904 8.0633" stroke="#445b6a" stroke-linecap="round"/><g fill="#445b6a"><circle cx="49.2593" cy="43.5818" r=".593553"/><circle cx="52.501" cy="40.949" r=".593553"/><circle cx="56.5257" cy="38.7381" r=".593553"/></g><path d="m38.2678 1v6.95049m-6.8627-3.47525 2.6688 5.40594m11.0567-5.40594-3.0502 5.40594" stroke="#af38f9" stroke-linecap="round" stroke-width="1.5"/></svg>