<svg fill="none" height="48" viewBox="0 0 92 48" width="92" xmlns="http://www.w3.org/2000/svg"><g stroke-linecap="round"><path d="m12.8929 26.1492s1.1759 1.2671 1.6138 1.6028m0 0s-4.2414 7.171-5.40068 14.3879m5.40068-14.3879c1.3192 1.0115 2.4289 1.5371 3.7187 2.1372m-5.7588-10.1892s-1.8371 5.3428-3.36058 9.6171c-1.5235 4.2743-4.26791 11.7543 0 12.8228m3.36058-22.4399c-1.8134-.6219-3.81573-.2128-5.5655.5447-1.28581.5567-3.78853.7854-5.41561-1.0463-.850207-.9572-.02153-2.3296 1.17298-2.7812 3.30249-1.2488 6.90854-3.5794 6.90854-3.5794s4.71549-3.83666 11.73649-1.7546m-8.8369 8.6168c2.9456.5343 6.7332 1.0685 7.7957-.5016m-11.15628 22.9415c-.25748 1.6029-.21045 3.9426 1.06248 4.2701 1.5936.4101 2.2981-1.0644 2.2981-1.0644m5.7588-15.4564c-4.25 6.4114-5.3125 12.2507-5.7588 15.4564m5.7588-15.4564c1.4725.685 2.4684.6326 3.6129.9056m-9.3717 14.5508c.2676 1.9159 2.483 2.6715 4.0769-.5342m5.2948-14.0166c.4605.1099 1.0802.1252 1.0802.1252m-1.0802-.1252c-3.0107 4.6777-5.2948 11.3451-5.2948 14.0166m0 0s0 1.0685 1.5938 1.0685c1.5937 0 3.7716-6.8336 6.9062-13.3571 2.0861-4.3414 7.9688-9.6171 7.3415-16.0897m0 0 2.7523-10.09025m-2.7523 10.09025c-.4352-2.076-3.6227-4.1296-5.7477-2.6103m-5.3338-2.7396c.7102.2521 2.1463.8497 2.1463 1.7546m-2.1463-1.7546 2.1463-10.0832" stroke="#445b6a"/><path d="m46 47v-6.9505m6.8627 3.4753-2.6688-5.406m-11.0566 5.406 3.0501-5.406" stroke="#af38f9" stroke-width="1.5"/><path d="m79.1071 26.1492s-1.1759 1.2671-1.6138 1.6028m0 0s4.2414 7.171 5.4007 14.3879m-5.4007-14.3879c-1.3192 1.0115-2.4289 1.5371-3.7187 2.1372m5.7588-10.1892s1.8371 5.3428 3.3606 9.6171 4.2679 11.7543 0 12.8228m-3.3606-22.4399c1.8134-.6219 3.8157-.2128 5.5655.5447 1.2858.5567 3.7885.7854 5.4156-1.0463.8502-.9572.0215-2.3296-1.173-2.7812-3.3025-1.2488-6.9085-3.5794-6.9085-3.5794s-4.7155-3.83666-11.7365-1.7546m8.8369 8.6168c-2.9456.5343-6.7332 1.0685-7.7957-.5016m11.1563 22.9415c.2575 1.6029.2104 3.9426-1.0625 4.2701-1.5936.4101-2.2981-1.0644-2.2981-1.0644m-5.7588-15.4564c4.25 6.4114 5.3125 12.2507 5.7588 15.4564m-5.7588-15.4564c-1.4725.685-2.4684.6326-3.6129.9056m9.3717 14.5508c-.2676 1.9159-2.483 2.6715-4.0769-.5342m-5.2948-14.0166c-.4605.1099-1.0802.1252-1.0802.1252m1.0802-.1252c3.0107 4.6777 5.2948 11.3451 5.2948 14.0166m0 0s0 1.0685-1.5938 1.0685c-1.5937 0-3.7716-6.8336-6.9062-13.3571-2.0861-4.3414-7.9688-9.6171-7.3415-16.0897m0 0-2.7523-10.09025m2.7523 10.09025c.4352-2.076 3.6227-4.1296 5.7477-2.6103m5.3338-2.7396c-.7102.2521-2.1463.8497-2.1463 1.7546m2.1463-1.7546-2.1463-10.0832" stroke="#445b6a"/></g></svg>