<svg width="110" height="117" viewBox="0 0 110 117" fill="none" xmlns="http://www.w3.org/2000/svg">
<path d="M51.0603 64.9447C50.0725 65.5574 49.2388 66.6146 48.5563 67.9771C47.8738 69.3396 49.1419 71.5341 49.6883 72.5231M51.0603 64.9447C52.2701 64.1944 53.7097 64.1101 55.3791 64.9447C56.9826 65.7465 60.5271 67.6737 63.718 69.7252M51.0603 64.9447L48.5562 60.3937L49.6883 59.5446M63.718 69.7252L58.4114 61.6285M63.718 69.7252C65.8936 71.1239 67.9049 72.5805 69.0247 73.7776M58.4114 61.6285L54.621 55.8451L52.8787 57.1518M58.4114 61.6285C59.9276 60.7115 63.5664 59.0291 65.9923 59.6356C69.0247 60.3937 75.8475 64.9422 78.8798 64.9422C81.9122 64.9422 84.9445 64.9422 88.735 70.2488C92.5254 75.5555 103.897 96.782 108.445 95.2658M69.0247 73.7776C69.3684 74.145 69.6281 74.488 69.7828 74.7974C70.467 76.1659 73.3129 78.3064 76.439 80.104M69.0247 73.7776C68.4182 72.3552 69.2774 69.318 69.7828 67.9771M76.439 80.104C80.2397 82.2896 84.4547 83.9683 85.7026 83.1363M76.439 80.104C75.0927 78.891 75.7364 76.3135 76.6056 74.7974M49.6883 72.5231C48.5529 74.7974 46.4336 79.6491 47.0401 80.8621C47.7982 82.3783 50.342 84.6552 55.8929 80.4843M49.6883 72.5231C51.0865 75.054 53.441 78.0543 55.8929 80.4843M55.8929 80.4843C56.2259 80.8144 56.5608 81.1339 56.8952 81.4403M56.8952 81.4403C58.4986 82.9093 60.0939 84.0765 61.4438 84.6551C63.4222 85.5029 65.1898 87.2991 66.9038 89.6899M56.8952 81.4403C56.6425 85.5434 56.2887 93.9012 56.8952 94.5077C57.2615 94.874 59.5748 96.1253 61.9536 97.4064M75.8475 105.123C74.2176 102.329 72.7307 99.535 71.2989 96.9385M75.8475 105.123C76.0165 105.293 76.1396 105.5 76.2138 105.727M75.8475 105.123C75.967 105.328 76.0892 105.53 76.2138 105.727M71.2989 96.9385C71.2989 100.886 68.2666 101.33 67.5085 100.572C67.1294 100.193 64.6657 98.8668 62.202 97.5401L61.9536 97.4064M71.2989 96.9385C69.8071 94.2331 68.3752 91.7424 66.9038 89.6899M66.9038 89.6899C66.0661 89.3475 64.1716 88.8681 63.2962 89.6899M61.9536 97.4064C61.8859 99.7252 62.7813 104.666 66.9038 105.879C68.5825 106.373 69.893 106.867 70.9436 107.282M76.2138 105.727C76.4726 106.52 76.1381 107.564 75.0894 108.153C74.1794 108.664 73.118 108.142 70.9436 107.282M76.2138 105.727C76.8003 106.658 77.4422 107.512 78.1217 108.293M70.9436 107.282C71.3148 108.583 74.3313 111.186 75.8475 111.186C78.8798 111.186 78.6271 109.257 78.1217 108.293M91.0093 115.737C88.2516 115.312 82.4309 113.25 78.1217 108.293M49.6883 59.5446L52.8787 57.1518M49.6883 59.5446L46.282 54.0827M52.8787 57.1518L49.1419 51.9153M49.1419 51.9153C55.2816 46.6323 59.1695 38.8052 59.1695 30.0701C59.1695 14.1602 46.272 1.2627 30.3621 1.2627C14.4522 1.2627 1.55469 14.1602 1.55469 30.0701C1.55469 45.98 14.4522 58.8775 30.3621 58.8775C36.2478 58.8775 41.7212 57.1124 46.282 54.0827M49.1419 51.9153C48.2359 52.6949 47.2808 53.4191 46.282 54.0827M54.6209 30.0701C54.6209 43.4679 43.7599 54.329 30.3621 54.329C16.9643 54.329 6.10322 43.4679 6.10322 30.0701C6.10322 16.6723 16.9643 5.81123 30.3621 5.81123C43.7599 5.81123 54.6209 16.6723 54.6209 30.0701Z" stroke="#445B6A" stroke-width="1.4396" stroke-linecap="round"/>
<path d="M56.8952 68.7334C57.6533 71.7658 56.1371 73.2819 53.1047 73.2819" stroke="#445B6A" stroke-width="1.4396" stroke-linecap="round"/>
<path d="M48.5559 30.0686C48.5559 26.4362 47.3936 22.8908 45.2252 19.9092C43.0568 16.9277 39.9863 14.6528 36.4265 13.3906" stroke="#AF38F9" stroke-width="2.15941" stroke-linecap="round"/>
<path d="M12.1679 30.0701C12.1679 33.7025 13.3303 37.2479 15.4987 40.2294C17.6671 43.211 20.7376 45.4858 24.2974 46.748" stroke="#AF38F9" stroke-width="2.15941" stroke-linecap="round"/>
</svg>
