<svg width="86" height="75" viewBox="0 0 86 75" fill="none" xmlns="http://www.w3.org/2000/svg">
<path d="M1.35944 57.0915C5.53726 52.4446 13.8929 40.8299 17.8508 36.2907C20.0497 34.556 25.1071 30.4383 27.086 29.1374C29.0497 27.8465 31.7036 25.8806 33.6826 25.8828C35.9157 26.744 40.4376 29.2475 40.6604 32.3715M22.4684 36.9271C25.3269 34.1084 32.0994 27.9506 33.6826 28.471C35.2237 28.9776 37.9651 30.2827 40.6604 32.3715M38.9598 38.228C39.0825 40.4003 40.3927 41.4653 41.6098 41.899C42.3018 42.1456 42.9546 41.5553 42.9546 40.8297V34.8768C42.9546 34.5317 42.7799 34.2028 42.5269 33.9645C41.9179 33.3908 41.2904 32.8598 40.6604 32.3715M38.9598 38.228C38.9117 37.3754 38.9598 36.9249 38.9598 35.624M38.9598 38.228C37.7476 37.9678 34.8883 37.3173 33.6826 36.2766M33.6826 36.2766C33.6826 35.6261 33.4715 34.7155 33.6826 33.6747M33.6826 36.2766C28.6332 38.8626 23.5239 43.6933 25.1071 49.9364C26.4364 55.1786 31.044 56.4411 38.3002 59.0429C41.5985 60.3438 42.5216 62.5385 42.9546 64.2466C43.0608 64.6654 42.99 66.8041 42.9546 68.2106C42.937 68.9114 42.346 69.4826 41.6526 69.3282C38.5381 68.6346 36.9809 65.5635 36.9809 65.5635C34.5621 65.3467 30.3843 63.6121 30.3843 63.6121C28.1854 63.6121 23.6558 63.7422 23.1281 64.2626C22.4684 64.913 16.5315 66.214 14.5525 65.5635L5.97702 74.0036" stroke="#445B6A" stroke-width="1.30093" stroke-linecap="round"/>
<path d="M84.6406 57.0915C80.4627 52.4446 72.1071 40.8299 68.1492 36.2907C65.9503 34.556 60.8929 30.4383 58.914 29.1374C56.9503 27.8465 54.2964 25.8806 52.3174 25.8828C50.0843 26.744 45.5624 29.2475 45.3396 32.3715M63.5316 36.9271C60.6731 34.1084 53.9006 27.9506 52.3174 28.471C50.7763 28.9776 48.0349 30.2827 45.3396 32.3715M47.0402 38.228C46.9175 40.4003 45.6073 41.4653 44.3902 41.899C43.6982 42.1456 43.0454 41.5553 43.0454 40.8297V34.8768C43.0454 34.5317 43.2201 34.2028 43.4731 33.9645C44.0821 33.3908 44.7096 32.8598 45.3396 32.3715M47.0402 38.228C47.0883 37.3754 47.0402 36.9249 47.0402 35.624M47.0402 38.228C48.2524 37.9678 51.1117 37.3173 52.3174 36.2766M52.3174 36.2766C52.3174 35.6261 52.5285 34.7155 52.3174 33.6747M52.3174 36.2766C57.3668 38.8626 62.4761 43.6933 60.8929 49.9364C59.5636 55.1786 54.956 56.4411 47.6998 59.0429C44.4015 60.3438 43.4784 62.5385 43.0454 64.2466C42.9392 64.6654 43.01 66.8041 43.0454 68.2106C43.063 68.9114 43.654 69.4826 44.3474 69.3282C47.4619 68.6346 49.0191 65.5635 49.0191 65.5635C51.4379 65.3467 55.6157 63.6121 55.6157 63.6121C57.8146 63.6121 62.3442 63.7422 62.8719 64.2626C63.5316 64.913 69.4685 66.214 71.4475 65.5635L80.023 74.0036" stroke="#445B6A" stroke-width="1.30093" stroke-linecap="round"/>
<path d="M42.9892 4.92873L42.0135 4.92877C42.0136 5.46762 42.4504 5.90443 42.9892 5.90443C43.5281 5.90443 43.9649 5.46762 43.9649 4.92877L42.9892 4.92873ZM33.1849 4.93149L32.3027 4.51486L33.1849 4.93149ZM42.9892 20.514L42.2879 21.1923L42.9892 21.9174L43.6905 21.1923L42.9892 20.514ZM52.7935 4.93149L53.6758 4.51486L52.7935 4.93149ZM43.9649 4.9287C43.9648 2.24782 41.7607 0.374549 39.3104 0.069825C36.7695 -0.246165 33.9358 1.05643 32.3027 4.51486L34.0672 5.34812C35.3753 2.57802 37.4437 1.80411 39.0696 2.00631C40.7861 2.21977 42.0135 3.45939 42.0135 4.92877L43.9649 4.9287ZM32.3027 4.51486C30.5682 8.18794 32.3223 11.4323 34.6827 14.0814C35.8747 15.4191 37.2868 16.683 38.6316 17.8599C39.9961 19.054 41.2754 20.1455 42.2879 21.1923L43.6906 19.8356C42.6059 18.7143 41.2434 17.5524 39.9167 16.3914C38.5705 15.2133 37.2421 14.0204 36.1397 12.7832C33.9112 10.2822 32.8605 7.90356 34.0672 5.34812L32.3027 4.51486ZM43.9649 4.92877C43.965 3.45939 45.1924 2.21977 46.9089 2.00631C48.5348 1.80411 50.6032 2.57802 51.9113 5.34812L53.6758 4.51486C52.0427 1.05643 49.209 -0.246165 46.6681 0.069825C44.2178 0.374549 42.0136 2.24782 42.0135 4.9287L43.9649 4.92877ZM51.9113 5.34812C53.118 7.90357 52.0673 10.2822 49.8388 12.7832C48.7364 14.0204 47.4081 15.2133 46.0618 16.3914C44.7351 17.5524 43.3726 18.7143 42.2879 19.8356L43.6905 21.1923C44.7031 20.1455 45.9824 19.054 47.3469 17.8599C48.6917 16.683 50.1038 15.4191 51.2958 14.0814C53.6562 11.4323 55.4103 8.18794 53.6758 4.51486L51.9113 5.34812Z" fill="#AF38F9"/>
</svg>
