<svg width="82" height="69" viewBox="0 0 82 69" fill="none" xmlns="http://www.w3.org/2000/svg">
<path d="M35.7949 24.8829L35.3516 24.4177L35.7949 24.8829ZM43.1935 16.699L42.6908 16.2988L42.6823 16.3096L42.6742 16.3207L43.1935 16.699ZM51.9082 6.85909L51.5244 6.34383L51.9082 6.85909ZM55.2719 10.2146L55.866 10.4595L55.2719 10.2146ZM41.2569 28.8928L40.7507 28.4971V28.4971L41.2569 28.8928ZM41.0769 48.8444L40.6053 48.408L41.0769 48.8444ZM24.5104 58.1829C24.2034 58.005 23.8102 58.1096 23.6323 58.4166C23.4543 58.7237 23.559 59.1168 23.866 59.2948L24.5104 58.1829ZM19.5201 67.2273C19.2935 67.5004 19.3311 67.9055 19.6042 68.1321C19.8773 68.3588 20.2824 68.3211 20.509 68.048L19.5201 67.2273ZM33.8476 23.699L33.2287 23.5262H33.2287L33.8476 23.699ZM39.6717 4.63883L40.2934 4.80118L39.6717 4.63883ZM34.8061 3.74001L35.3718 4.0447L34.8061 3.74001ZM26.1322 23.5141L26.7045 23.8062L26.1322 23.5141ZM25.1067 24.7691L25.5164 25.2641L25.1067 24.7691ZM11.5469 46.2116L12.1833 46.1231L12.1752 46.0648L12.1567 46.009L11.5469 46.2116ZM20.6179 31.1496C20.3465 31.3783 20.312 31.7837 20.5406 32.055C20.7693 32.3264 21.1747 32.361 21.446 32.1323L20.6179 31.1496ZM30.6881 33.2706L30.2125 33.7026L30.6881 33.2706ZM28.6706 39.6853L29.0522 39.1683L28.7114 38.9167L28.3458 39.1309L28.6706 39.6853ZM19.2577 39.1562C18.9253 39.032 18.5551 39.2007 18.4309 39.5331C18.3067 39.8655 18.4755 40.2357 18.8079 40.3599L19.2577 39.1562ZM32.6707 41.8397L32.4722 42.4508L32.5156 42.4649L32.5606 42.4728L32.6707 41.8397ZM29.7045 40.4485L29.3701 40.9972H29.3701L29.7045 40.4485ZM36.7143 41.7718L36.8926 42.3891L36.7143 41.7718ZM46.4499 42.4282L45.9529 42.0208L45.9482 42.0267L46.4499 42.4282ZM38.4195 37.2984L38.618 36.6873L38.4195 37.2984ZM39.0084 40.1292L38.4524 39.8072L39.0084 40.1292ZM34.0377 35.6609L34.3015 35.075H34.3015L34.0377 35.6609ZM24.714 43.186C24.4995 42.9033 24.0964 42.848 23.8137 43.0625C23.531 43.277 23.4757 43.68 23.6902 43.9627L24.714 43.186ZM21.6441 50.3057C21.3815 50.5443 21.362 50.9507 21.6006 51.2133C21.8392 51.476 22.2456 51.4955 22.5082 51.2569L21.6441 50.3057ZM42.3114 30.1415L42.6542 30.685L42.3114 30.1415ZM59.2207 19.1315L59.1317 18.4951L59.2207 19.1315ZM11.8367 47.5488L12.4587 47.3878L11.8367 47.5488ZM12.2432 50.6347C12.4043 50.9509 12.7912 51.0766 13.1074 50.9155C13.4236 50.7544 13.5493 50.3675 13.3882 50.0513L12.2432 50.6347ZM0.925555 62.2137C0.723864 62.5056 0.797054 62.9058 1.08903 63.1075C1.38101 63.3092 1.7812 63.236 1.98289 62.944L0.925555 62.2137ZM60.624 22.6053L60.1114 22.218L60.1011 22.2316L60.0915 22.2457L60.624 22.6053ZM45.329 35.6657L45.7205 36.1752L45.329 35.6657ZM45.8462 36.7597L46.0235 37.3773L45.8462 36.7597ZM58.4071 33.0095L58.4961 33.6459L58.4071 33.0095ZM36.2382 25.348C38.6062 23.0913 40.4712 21.0283 41.7455 19.5281C42.3828 18.7778 42.8727 18.1678 43.2041 17.7441C43.3699 17.5323 43.4961 17.367 43.5813 17.2539C43.6239 17.1974 43.6563 17.154 43.6783 17.1243C43.6893 17.1095 43.6977 17.0981 43.7034 17.0903C43.7063 17.0864 43.7085 17.0833 43.7101 17.0812C43.7109 17.0801 43.7115 17.0793 43.712 17.0786C43.7122 17.0783 43.7124 17.0781 43.7125 17.0779C43.7126 17.0778 43.7127 17.0777 43.7127 17.0776C43.7128 17.0775 43.7128 17.0774 43.1935 16.699C42.6742 16.3207 42.6743 16.3206 42.6743 16.3206C42.6743 16.3206 42.6743 16.3206 42.6743 16.3206C42.6743 16.3206 42.6742 16.3207 42.6741 16.3208C42.6739 16.3211 42.6735 16.3216 42.673 16.3223C42.6719 16.3238 42.6702 16.3261 42.6678 16.3294C42.6631 16.3358 42.6557 16.3458 42.6458 16.3592C42.6259 16.386 42.5957 16.4266 42.5553 16.4802C42.4744 16.5874 42.3529 16.7467 42.192 16.9523C41.8702 17.3636 41.3913 17.9601 40.7661 18.6962C39.5154 20.1686 37.6812 22.1976 35.3516 24.4177L36.2382 25.348ZM43.1935 16.699C43.6962 17.0993 43.6962 17.0993 43.6962 17.0992C43.6963 17.0991 43.6964 17.0991 43.6964 17.099C43.6966 17.0987 43.6969 17.0984 43.6973 17.0979C43.698 17.0969 43.6992 17.0955 43.7007 17.0936C43.7038 17.0897 43.7085 17.0839 43.7146 17.0761C43.727 17.0607 43.7453 17.0377 43.7694 17.0076C43.8176 16.9473 43.8887 16.8585 43.9801 16.7449C44.1627 16.5176 44.4263 16.1909 44.7494 15.7937C45.3957 14.9992 46.2795 13.9236 47.2303 12.7983C48.1817 11.6722 49.1968 10.5003 50.1065 9.51176C51.0284 8.50993 51.806 7.73653 52.2921 7.37435L51.5244 6.34383C50.9286 6.78768 50.0759 7.64729 49.1609 8.64158C48.2337 9.64915 47.2054 10.8365 46.2487 11.9689C45.2912 13.1021 44.4021 14.1842 43.7525 14.9828C43.4276 15.3822 43.1624 15.7108 42.9784 15.9398C42.8864 16.0543 42.8146 16.1439 42.7658 16.2049C42.7414 16.2355 42.7227 16.2588 42.7101 16.2746C42.7038 16.2825 42.699 16.2885 42.6958 16.2926C42.6942 16.2946 42.693 16.2962 42.6921 16.2972C42.6917 16.2977 42.6914 16.2981 42.6912 16.2984C42.6911 16.2985 42.691 16.2986 42.691 16.2987C42.6909 16.2988 42.6908 16.2988 43.1935 16.699ZM52.2921 7.37435C52.6814 7.08433 53.4319 7.13267 54.0986 7.70037C54.7168 8.22684 55.0556 9.05329 54.6778 9.96974L55.866 10.4595C56.4978 8.92656 55.8834 7.53237 54.9318 6.72198C54.0285 5.95282 52.5925 5.54809 51.5244 6.34383L52.2921 7.37435ZM54.6778 9.96974C54.6171 10.1172 54.4499 10.4117 54.1558 10.8631C53.8708 11.3006 53.491 11.8491 53.033 12.4885C52.1174 13.7667 50.9019 15.3904 49.5347 17.1835C46.8007 20.7691 43.4729 25.015 40.7507 28.4971L41.7631 29.2886C44.483 25.8095 47.8167 21.556 50.5566 17.9627C51.9263 16.1663 53.1509 14.5307 54.0777 13.2369C54.5408 12.5903 54.9328 12.0247 55.2325 11.5646C55.5231 11.1185 55.7537 10.7319 55.866 10.4595L54.6778 9.96974ZM40.6053 48.408C36.6383 52.6954 32.787 56.748 27.0767 58.3048L27.4147 59.5446C33.5303 57.8773 37.6124 53.5349 41.5486 49.2807L40.6053 48.408ZM27.0767 58.3048C25.9881 58.6015 25.1402 58.548 24.5104 58.1829L23.866 59.2948C24.9076 59.8985 26.1492 59.8896 27.4147 59.5446L27.0767 58.3048ZM26.7512 58.5144L19.5201 67.2273L20.509 68.048L27.7401 59.335L26.7512 58.5144ZM34.4665 23.8717C35.5336 20.0489 36.8381 15.8623 37.952 12.3411C39.0605 8.83691 39.9905 5.961 40.2934 4.80118L39.05 4.47648C38.7581 5.59419 37.8464 8.41416 36.7267 11.9535C35.6124 15.476 34.3022 19.6806 33.2287 23.5262L34.4665 23.8717ZM40.2934 4.80118C40.7877 2.90827 40.0503 1.25065 38.5536 0.816771C37.0797 0.389502 35.3876 1.3053 34.2404 3.43532L35.3718 4.0447C36.379 2.17458 37.5569 1.86584 38.1958 2.05104C38.8118 2.22962 39.43 3.02148 39.05 4.47648L40.2934 4.80118ZM34.2404 3.43532C33.3854 5.02266 32.1398 8.171 30.6628 11.7757C29.1741 15.4088 27.4314 19.5563 25.5599 23.2219L26.7045 23.8062C28.6026 20.0884 30.3629 15.897 31.8519 12.263C33.3525 8.60062 34.559 5.55367 35.3718 4.0447L34.2404 3.43532ZM24.697 24.2742C21.4732 26.9426 17.6407 31.1374 14.8116 35.2815C13.3969 37.3538 12.2175 39.4358 11.4935 41.3261C10.7791 43.1909 10.4623 44.9855 10.9372 46.4143L12.1567 46.009C11.8263 45.015 12.0083 43.5747 12.6935 41.7858C13.369 40.0224 14.49 38.0319 15.873 36.0061C18.6393 31.954 22.3919 27.8503 25.5164 25.2641L24.697 24.2742ZM21.446 32.1323C22.8582 30.9421 24.8223 31.0885 26.6791 31.7453C27.5878 32.0667 28.4204 32.4944 29.0623 32.8829C29.7265 33.2848 30.1267 33.6082 30.2125 33.7026L31.1637 32.8385C30.944 32.5967 30.4051 32.1934 29.7276 31.7834C29.0277 31.3599 28.1157 30.8903 27.1076 30.5338C25.1308 29.8345 22.5723 29.5024 20.6179 31.1496L21.446 32.1323ZM28.3458 39.1309C27.1174 39.8505 23.4722 40.7312 19.2577 39.1562L18.8079 40.3599C23.357 42.06 27.409 41.1691 28.9954 40.2397L28.3458 39.1309ZM32.8693 41.2287C32.4049 41.0777 31.1692 40.5886 30.0388 39.8998L29.3701 40.9972C30.6004 41.7468 31.9303 42.2748 32.4722 42.4508L32.8693 41.2287ZM30.0388 39.8998C29.7376 39.7163 29.3827 39.4123 29.0522 39.1683L28.289 40.2022C28.5017 40.3592 29.0097 40.7776 29.3701 40.9972L30.0388 39.8998ZM36.536 41.1545C35.6433 41.4122 34.416 41.4913 32.7809 41.2067L32.5606 42.4728C34.3362 42.7818 35.7679 42.7139 36.8926 42.3891L36.536 41.1545ZM46.4499 42.4282C45.9482 42.0267 45.9482 42.0267 45.9482 42.0267C45.9482 42.0268 45.9482 42.0268 45.9481 42.0269C45.948 42.027 45.9478 42.0272 45.9476 42.0275C45.9472 42.028 45.9466 42.0288 45.9457 42.0299C45.944 42.032 45.9414 42.0352 45.938 42.0395C45.9312 42.048 45.921 42.0607 45.9076 42.0774C45.8808 42.1107 45.8413 42.16 45.7903 42.2234C45.6883 42.3503 45.5405 42.5337 45.3577 42.7598C44.992 43.2121 44.4861 43.8348 43.9257 44.5164C42.8008 45.8846 41.4689 47.4747 40.6053 48.408L41.5486 49.2807C42.4413 48.3159 43.7958 46.6979 44.9183 45.3326C45.4816 44.6475 45.9897 44.022 46.3569 43.5679C46.5406 43.3407 46.6891 43.1564 46.7918 43.0287C46.8431 42.9649 46.8829 42.9153 46.91 42.8815C46.9235 42.8646 46.9339 42.8518 46.9408 42.8431C46.9443 42.8387 46.947 42.8354 46.9487 42.8332C46.9496 42.8321 46.9503 42.8312 46.9508 42.8307C46.951 42.8304 46.9512 42.8302 46.9513 42.83C46.9513 42.8299 46.9514 42.8299 46.9514 42.8299C46.9515 42.8298 46.9515 42.8298 46.4499 42.4282ZM38.2209 37.9095C38.4201 37.9742 38.6124 38.1676 38.6919 38.5243C38.7708 38.8785 38.7191 39.3467 38.4524 39.8072L39.5645 40.4513C39.9814 39.7314 40.1001 38.9353 39.9462 38.2447C39.7928 37.5567 39.3488 36.9248 38.618 36.6873L38.2209 37.9095ZM38.4524 39.8072C38.1504 40.3287 37.5589 40.8591 36.536 41.1545L36.8926 42.3891C38.1957 42.0128 39.0773 41.2925 39.5645 40.4513L38.4524 39.8072ZM30.2125 33.7026C31.3249 34.9272 32.2847 35.576 33.7738 36.2467L34.3015 35.075C32.9512 34.4668 32.1423 33.9158 31.1637 32.8385L30.2125 33.7026ZM33.7738 36.2467C35.3809 36.9705 37.5031 37.6762 38.2209 37.9095L38.618 36.6873C37.9 36.454 35.838 35.767 34.3015 35.075L33.7738 36.2467ZM23.6902 43.9627C24.0607 44.451 24.1889 45.4531 23.8419 46.7276C23.5057 47.9625 22.76 49.292 21.6441 50.3057L22.5082 51.2569C23.8174 50.0676 24.6858 48.5199 25.0818 47.0652C25.4671 45.6502 25.4457 44.1503 24.714 43.186L23.6902 43.9627ZM42.6542 30.685C45.5118 28.8826 49.4045 26.1674 52.734 23.8954C54.4042 22.7557 55.932 21.7279 57.1279 20.9736C57.7265 20.5961 58.2333 20.2926 58.6286 20.0794C58.8265 19.9726 58.9884 19.8928 59.1148 19.8386C59.1777 19.8116 59.2269 19.7931 59.2636 19.7811C59.3024 19.7685 59.3158 19.767 59.3097 19.7678L59.1317 18.4951C58.9564 18.5196 58.7717 18.5874 58.6081 18.6576C58.4334 18.7326 58.2347 18.8317 58.0185 18.9484C57.5855 19.1819 57.0504 19.5032 56.4423 19.8867C55.2248 20.6546 53.6799 21.6942 52.0097 22.8339C48.6586 25.1206 44.8001 27.8121 41.9686 29.5981L42.6542 30.685ZM10.9105 46.3002C10.9515 46.595 11.0612 47.1173 11.2146 47.7099L12.4587 47.3878C12.3102 46.8143 12.2144 46.3466 12.1833 46.1231L10.9105 46.3002ZM11.2146 47.7099C11.4513 48.6242 11.8143 49.7929 12.2432 50.6347L13.3882 50.0513C13.0246 49.3376 12.6893 48.2786 12.4587 47.3878L11.2146 47.7099ZM11.308 47.1837L0.925555 62.2137L1.98289 62.944L12.3653 47.914L11.308 47.1837ZM59.3097 19.7678C59.6108 19.7257 59.8273 19.7923 59.9866 19.901C60.154 20.0153 60.2986 20.2046 60.3908 20.4627C60.5799 20.9919 60.5065 21.695 60.1114 22.218L61.1367 22.9927C61.8043 22.1091 61.9292 20.9493 61.6009 20.0303C61.4345 19.5644 61.1414 19.1332 60.7109 18.8395C60.2723 18.5402 59.7306 18.4114 59.1317 18.4951L59.3097 19.7678ZM60.0915 22.2457C59.7312 22.7793 58.9019 23.6385 57.7321 24.7152C56.5788 25.7766 55.1421 27.007 53.6125 28.2728C50.5542 30.8037 47.1456 33.459 44.9374 35.1563L45.7205 36.1752C47.9331 34.4746 51.3559 31.8083 54.4318 29.2628C55.9693 27.9904 57.4254 26.7439 58.6023 25.6608C59.7626 24.5929 60.7006 23.64 61.1565 22.9649L60.0915 22.2457ZM59.2261 35.1333C59.1286 35.2327 58.8743 35.4174 58.4322 35.6825C58.0093 35.9361 57.4656 36.2337 56.8379 36.5608C55.5834 37.2146 54.0219 37.9717 52.4779 38.7092C50.9393 39.4442 49.4136 40.1619 48.2499 40.7281C47.6679 41.0113 47.1678 41.2608 46.7962 41.4589C46.6112 41.5576 46.45 41.6477 46.3235 41.7257C46.2605 41.7646 46.1989 41.8048 46.1442 41.845C46.0992 41.8782 46.0203 41.9387 45.953 42.0208L46.9467 42.8356C46.9084 42.8824 46.88 42.8991 46.9057 42.8801C46.9217 42.8684 46.951 42.8485 46.9978 42.8196C47.091 42.7622 47.2252 42.6866 47.4008 42.5929C47.7505 42.4065 48.233 42.1655 48.8122 41.8836C49.9709 41.3198 51.4818 40.6093 53.0319 39.8688C54.5765 39.1309 56.1557 38.3654 57.4318 37.7004C58.0695 37.3681 58.6386 37.0572 59.0931 36.7846C59.5285 36.5236 59.9165 36.2645 60.1431 36.0336L59.2261 35.1333ZM46.0235 37.3773C48.1769 36.7592 51.1588 35.8426 53.677 35.0715C54.938 34.6854 56.0825 34.3358 56.9527 34.0771C57.388 33.9476 57.7517 33.8418 58.0256 33.7658C58.1627 33.7278 58.2743 33.6981 58.3594 33.6769C58.402 33.6663 58.4356 33.6584 58.4611 33.6529C58.4886 33.647 58.4983 33.6456 58.4961 33.6459L58.3181 32.3732C58.1843 32.3919 57.9471 32.454 57.6821 32.5275C57.3967 32.6067 57.0242 32.7151 56.5864 32.8453C55.7103 33.1058 54.5607 33.4569 53.3008 33.8428C50.777 34.6156 47.8087 35.5279 45.6689 36.1421L46.0235 37.3773ZM58.4961 33.6459C58.5498 33.6384 58.6888 33.6509 58.8803 33.7471C59.0625 33.8386 59.2352 33.9784 59.3547 34.1385C59.4729 34.2968 59.5213 34.4487 59.5164 34.5833C59.5119 34.7088 59.4586 34.8966 59.2261 35.1333L60.1431 36.0336C60.5589 35.6101 60.7825 35.1302 60.8006 34.6297C60.8184 34.1382 60.6352 33.7055 60.3844 33.3697C60.135 33.0356 59.8014 32.7717 59.4571 32.5988C59.1222 32.4305 58.7144 32.3178 58.3181 32.3732L58.4961 33.6459ZM25.5599 23.2219C25.3567 23.6199 25.0601 23.9736 24.697 24.2742L25.5164 25.2641C25.9949 24.868 26.4109 24.3813 26.7045 23.8062L25.5599 23.2219ZM40.7507 28.4971C40.2573 29.1282 40.1115 29.9589 40.605 30.5494C41.1167 31.1618 41.9694 31.1169 42.6542 30.685L41.9686 29.5981C41.7876 29.7122 41.6685 29.7269 41.6184 29.7248C41.5744 29.723 41.5788 29.7107 41.591 29.7253C41.6011 29.7373 41.581 29.7255 41.5873 29.6572C41.5938 29.5869 41.6309 29.4576 41.7631 29.2886L40.7507 28.4971ZM44.9374 35.1563C44.662 35.3679 44.4381 35.6137 44.3042 35.8871C44.1707 36.1598 44.1055 36.5153 44.2651 36.8578C44.4276 37.2063 44.749 37.3833 45.0553 37.4458C45.3568 37.5073 45.6898 37.4731 46.0235 37.3773L45.6689 36.1421C45.5688 36.1709 45.4881 36.1846 45.4265 36.1894C45.3643 36.1943 45.3276 36.1898 45.3121 36.1866C45.2966 36.1834 45.3103 36.1834 45.3379 36.2025C45.3519 36.2123 45.3688 36.2265 45.3856 36.2461C45.4026 36.2658 45.4178 36.2889 45.4299 36.3148C45.4419 36.3405 45.4493 36.3659 45.4532 36.389C45.457 36.4119 45.4571 36.4306 45.4561 36.4438C45.4542 36.4692 45.4484 36.4725 45.4584 36.4521C45.4683 36.432 45.4902 36.3956 45.5336 36.3461C45.5767 36.297 45.6375 36.2389 45.7205 36.1752L44.9374 35.1563ZM35.3516 24.4177C34.9344 24.8154 34.3005 24.4662 34.4665 23.8717L33.2287 23.5262C32.7227 25.3387 34.8463 26.6745 36.2382 25.348L35.3516 24.4177Z" fill="#445B6A"/>
<path d="M80.5458 10.1785L71.6138 10.1785M76.0798 18.9977L69.1327 15.0781M76.0798 1.35937L69.1328 4.78905" stroke="#AF38F9" stroke-width="1.92762" stroke-linecap="round"/>
</svg>
