<svg width="194" height="75" viewBox="0 0 194 75" fill="none" xmlns="http://www.w3.org/2000/svg">
<path d="M1.77197 37.5007L12.8309 37.5007M7.30142 48.4199L15.9028 44.1735M7.30142 26.5814L15.9028 31.4344" stroke="#AF38F9" stroke-width="2.38664" stroke-linecap="round"/>
<path d="M52.6072 40.92C52.6072 40.92 54.4781 42.9361 55.1748 43.4703M55.1748 43.4703C55.1748 43.4703 48.4264 54.88 46.5819 66.3628M55.1748 43.4703C57.2738 45.0796 59.0394 45.9159 61.0917 46.8707M51.9289 30.6587C51.9289 30.6587 49.0059 39.1597 46.5819 45.9605C44.1578 52.7612 39.7912 64.6626 46.5819 66.3628M51.9289 30.6587C49.0436 29.6693 45.8577 30.3201 43.0736 31.5254C41.0278 32.4111 37.0457 32.775 34.4569 29.8606C33.1041 28.3377 34.4226 26.1541 36.3232 25.4354C41.5778 23.4485 47.3154 19.7403 47.3154 19.7403C47.3154 19.7403 54.8182 13.6358 65.9892 16.9485M51.9289 30.6587C56.6157 31.5088 62.642 32.3589 64.3325 29.8606M46.5819 66.3628C46.1722 68.9131 46.247 72.6358 48.2724 73.157C50.808 73.8094 51.9289 71.4634 51.9289 71.4634M61.0917 46.8707C54.3296 57.0719 52.639 66.3628 51.9289 71.4634M61.0917 46.8707C63.4345 47.9606 65.0192 47.8773 66.8401 48.3116M51.9289 71.4634C52.3546 74.5118 55.8796 75.7139 58.4156 70.6133M66.8401 48.3116C67.5729 48.4865 68.5589 48.5108 68.5589 48.5108M66.8401 48.3116C62.0498 55.7543 58.4156 66.3628 58.4156 70.6133M58.4156 70.6133C58.4156 70.6133 58.4156 72.3135 60.9514 72.3135C63.4872 72.3135 66.9525 61.4405 71.9399 51.061C75.2591 44.1535 84.619 35.7593 83.621 25.4608M83.621 25.4608L88 9.40625M83.621 25.4608C82.9284 22.1577 77.8568 18.8902 74.4757 21.3076M65.9892 16.9485C67.1192 17.3497 69.4041 18.3006 69.4041 19.7403M65.9892 16.9485L69.4041 0.905273" stroke="#445B6A" stroke-width="1.59109" stroke-linecap="round"/>
<path d="M141.393 40.92C141.393 40.92 139.522 42.9361 138.825 43.4703M138.825 43.4703C138.825 43.4703 145.574 54.88 147.418 66.3628M138.825 43.4703C136.726 45.0796 134.961 45.9159 132.908 46.8707M142.071 30.6587C142.071 30.6587 144.994 39.1597 147.418 45.9605C149.842 52.7612 154.209 64.6626 147.418 66.3628M142.071 30.6587C144.956 29.6693 148.142 30.3201 150.926 31.5254C152.972 32.4111 156.954 32.775 159.543 29.8606C160.896 28.3377 159.577 26.1541 157.677 25.4354C152.422 23.4485 146.685 19.7403 146.685 19.7403C146.685 19.7403 139.182 13.6358 128.011 16.9485M142.071 30.6587C137.384 31.5088 131.358 32.3589 129.667 29.8606M147.418 66.3628C147.828 68.9131 147.753 72.6358 145.728 73.157C143.192 73.8094 142.071 71.4634 142.071 71.4634M132.908 46.8707C139.67 57.0719 141.361 66.3628 142.071 71.4634M132.908 46.8707C130.566 47.9606 128.981 47.8773 127.16 48.3116M142.071 71.4634C141.645 74.5118 138.12 75.7139 135.584 70.6133M127.16 48.3116C126.427 48.4865 125.441 48.5108 125.441 48.5108M127.16 48.3116C131.95 55.7543 135.584 66.3628 135.584 70.6133M135.584 70.6133C135.584 70.6133 135.584 72.3135 133.049 72.3135C130.513 72.3135 127.048 61.4405 122.06 51.061C118.741 44.1535 109.381 35.7593 110.379 25.4608M110.379 25.4608L106 9.40625M110.379 25.4608C111.072 22.1577 116.143 18.8902 119.524 21.3076M128.011 16.9485C126.881 17.3497 124.596 18.3006 124.596 19.7403M128.011 16.9485L124.596 0.905273" stroke="#445B6A" stroke-width="1.59109" stroke-linecap="round"/>
<path d="M192.228 37.5003L181.169 37.5003M186.699 26.5811L178.097 30.8274M186.699 48.4196L178.097 43.5666" stroke="#AF38F9" stroke-width="2.38664" stroke-linecap="round"/>
</svg>
