<svg height="256" width="256" xmlns="http://www.w3.org/2000/svg"><g fill="#00a9e8" transform="matrix(3.9546962 0 0 3.9546962 9.35911 -702.4862)"><path d="m57.8 214.9c.3-1.6.4-3.2.4-4.9 0-15.6-12.6-28.2-28.2-28.2-1.7 0-3.3.1-4.9.4-2.5-1.4-5.3-2.2-8.3-2.2-9.3 0-16.8 7.5-16.8 16.8 0 3 .8 5.9 2.2 8.3-.3 1.6-.4 3.2-.4 4.9 0 15.6 12.6 28.2 28.2 28.2 1.7 0 3.3-.1 4.9-.4 2.5 1.4 5.3 2.2 8.3 2.2 9.3 0 16.8-7.5 16.8-16.8 0-3-.8-5.8-2.2-8.3zm-14.6 20.8c-2.2 0-4.3-.6-6.2-1.6l-1.3-.8-1.5.3c-1.3.2-2.7.4-4.2.4-13.2 0-23.9-10.7-23.9-23.9 0-1.4.1-2.8.4-4.2l.3-1.5-.9-1.4c-1.1-1.9-1.6-4-1.6-6.2 0-6.9 5.6-12.5 12.5-12.5 2.2 0 4.3.6 6.2 1.6l1.3.8 1.5-.3c1.4-.2 2.8-.4 4.2-.4 13.2 0 23.9 10.7 23.9 23.9 0 1.4-.1 2.8-.4 4.2l-.3 1.5.8 1.3c1.1 1.9 1.6 4 1.6 6.2.1 7-5.5 12.6-12.4 12.6z"/><path d="m35.1 207.3-6.3-1.4c-2.4-.6-5.1-1.3-5.1-3.6s1.9-3.9 5.4-3.9c7.1 0 6.5 4.9 10 4.9 1.8 0 3.4-1 3.4-2.9 0-4.4-7-7.7-13-7.7-6.4 0-13.2 2.6-13.2 10 0 3.5 1.2 7.3 8.1 9.1l8.6 2.2c2.6.6 3.4 2.1 3.4 3.4 0 2.2-2.3 4.6-6.2 4.6-7.7 0-6.6-6.1-10.7-6.1-1.8 0-3.3 1.3-3.3 3.1 0 3.6 4.4 8.5 14 8.5 9.2 0 13.8-4.6 13.8-10.6-.1-4-1.9-8-8.9-9.6z"/></g></svg>