<svg enable-background="new 0 0 512 512" viewBox="0 0 512 512" xmlns="http://www.w3.org/2000/svg"><path d="m448 0h-384c-35.3.1-63.9 28.7-64 64v384c0 35.2 28.8 64 64 64h384c35.2 0 64-28.8 64-64v-384c0-35.2-28.8-64-64-64" fill="#e44332"/><g fill="#fff"><path d="m108.3 241.6c8.9-5.2 200.7-116.7 205.1-119.2 4.4-2.6 4.6-10.4-.3-13.2s-14.2-8.2-17.7-10.2c-4.9-2.7-10.9-2.6-15.8.2-2.5 1.4-166.3 96.6-171.8 99.7-6.6 3.8-14.7 3.8-21.2 0l-86.6-50.9v43.2c21 12.4 73.4 43.2 86.1 50.5 7.6 4.3 14.8 4.2 22.2-.1"/><path d="m108.3 323.2c8.9-5.2 200.7-116.6 205-119.2 4.4-2.6 4.6-10.4-.3-13.2s-14.2-8.2-17.7-10.2c-4.9-2.7-10.9-2.6-15.8.2-2.5 1.4-166.3 96.6-171.8 99.7-6.6 3.8-14.7 3.8-21.2 0l-86.5-50.9v43.2c21 12.4 73.4 43.2 86.1 50.5 7.6 4.3 14.8 4.2 22.2-.1"/><path d="m108.3 409.9c8.9-5.2 200.7-116.7 205.1-119.2 4.4-2.6 4.6-10.4-.3-13.2s-14.2-8.2-17.7-10.2c-4.9-2.7-10.9-2.6-15.8.2-2.5 1.4-166.3 96.6-171.8 99.7-6.6 3.8-14.7 3.8-21.2 0l-86.6-50.8v43.2c21 12.4 73.4 43.2 86.1 50.4 7.6 4.3 14.8 4.2 22.2-.1"/></g></svg>