<svg fill="none" height="24" viewBox="0 0 64 64" width="24" xmlns="http://www.w3.org/2000/svg"><g fill="#5e6ad2"><path d="m.403013 37.3991 26.197887 26.1979c-13.3784-2.2614-23.93648-12.8195-26.197887-26.1979z"/><path d="m0 30.2868 33.7132 33.7132c2.005-.1071 3.961-.3987 5.8513-.858l-38.70651-38.7065c-.459311 1.8904-.75086 3.8463-.85799 5.8513z"/><path d="m2.53593 19.4042 42.05987 42.0599c1.5319-.6575 3.0022-1.431 4.3998-2.3095l-44.15017-44.1502c-.87852 1.3976-1.65204 2.8679-2.3095 4.3998z"/><path d="m7.69501 11.1447c5.87269-6.82377 14.57269-11.1447 24.28189-11.1447 17.6859 0 32.0231 14.3372 32.0231 32.0231 0 9.7092-4.3209 18.4092-11.1447 24.2819z"/></g></svg>