<svg height="480" viewBox="0 0 48 48" width="480" xmlns="http://www.w3.org/2000/svg"><path d="m21.25 40.454 6.13-6.142c.694-.696.694-1.823 0-2.519l-16.215-16.246c-.694-.696-1.82-.696-2.514 0l-6.13 6.142c-.694.696-.694 1.823 0 2.519l16.215 16.246c.694.696 1.819.696 2.514 0z" fill="#0d47a1"/><path d="m18.788 40.498-6.223-6.235c-.669-.67-.669-1.756 0-2.426l23.289-23.335c.669-.67 1.753-.67 2.421 0l6.223 6.235c.669.67.669 1.756 0 2.426l-23.289 23.335c-.668.669-1.752.669-2.421 0z" fill="#29b6f6"/></svg>