<svg fill="none" height="16" viewBox="0 0 16 16" width="16" xmlns="http://www.w3.org/2000/svg"><path d="m10.5293 15.2969h-5.06543c-1.11426 0-1.85938-.711-1.85938-1.7774v-10.91696c0-1.06641.74512-1.777345 1.85938-1.777345h5.06543c1.1143 0 1.8594.710935 1.8594 1.777345v10.91696c0 1.0664-.7451 1.7774-1.8594 1.7774z" fill="#e4edf3"/><g fill="#445b6a"><path d="m5.46387 15.2969h5.06543c1.1143 0 1.8594-.711 1.8594-1.7774v-10.91696c0-1.06641-.7451-1.777345-1.8594-1.777345h-5.06543c-1.11426 0-1.85938.710935-1.85938 1.777345v10.91696c0 1.0664.74512 1.7774 1.85938 1.7774zm.14355-1.1006c-.58105 0-.90234-.3076-.90234-.8545v-10.56153c0-.54687.32129-.85449.90234-.85449.10938 0 .16406.05469.16406.15723v.15722c0 .28711.18457.47852.47168.47852h3.52051c.28023 0 .46483-.19141.46483-.47852v-.15722c0-.10254.0547-.15723.1641-.15723.5742 0 .8955.30762.8955.85449v10.56153c0 .5469-.3213.8545-.8955.8545z"/><path d="m9.45605 13.6973h-2.90527c-.18457 0-.32129-.1299-.32129-.3213s.13672-.3145.32129-.3145h2.90527c.18457 0 .31446.1231.31446.3145s-.12989.3213-.31446.3213z"/></g></svg>