<svg fill="none" height="13" viewBox="0 0 12 13" width="12" xmlns="http://www.w3.org/2000/svg"><path d="m0 4.5c0-1.06087.421427-2.07828 1.17157-2.82843.75015-.750143 1.76756-1.17157 2.82843-1.17157h4c1.06087 0 2.0783.421427 2.8284 1.17157.7502.75015 1.1716 1.76756 1.1716 2.82843v4c0 1.06087-.4214 2.0783-1.1716 2.8284-.7501.7502-1.76753 1.1716-2.8284 1.1716h-4c-1.06087 0-2.07828-.4214-2.82843-1.1716-.750143-.7501-1.17157-1.76753-1.17157-2.8284z" fill="#3984fd"/><g fill="#fff"><path d="m2.50006 5c0-.13261.05268-.25979.14645-.35355.09377-.09377.22094-.14645.35355-.14645h3c.39783 0 .77936.15804 1.06066.43934.28131.2813.43934.66284.43934 1.06066v2c0 .13261-.05268.25978-.14645.35355-.09376.09377-.22094.14645-.35355.14645h-3c-.39782 0-.77935-.15804-1.06066-.43934-.2813-.2813-.43934-.66284-.43934-1.06066z"/><path d="m7.75006 6.37652c-.0001-.2424.08786-.47659.2475-.659l.845-.966c.2285-.26.6575-.099.6575.247v3.004c0 .3465-.429.5075-.657.247l-.8455-.966c-.15953-.18228-.24748-.41627-.2475-.6585v-.249z"/></g></svg>