<svg width="437" height="220" viewBox="0 0 437 220" fill="none" xmlns="http://www.w3.org/2000/svg">
<g filter="url(#filter0_di)">
<g clip-path="url(#clip0)">
<rect x="4" y="0.5" width="429" height="211" rx="3.08079" fill="#FAFBFD"/>
<path d="M4.3851 3.58079C4.3851 2.092 5.592 0.885099 7.08079 0.885099H493.846C495.334 0.885099 496.541 2.092 496.541 3.58079V37.0844H4.3851V3.58079Z" fill="#FAFBFD"/>
<path d="M8.36703 19.2944C8.36703 19.4166 8.41103 19.5242 8.50392 19.6171L12.3809 23.406C12.464 23.494 12.5715 23.538 12.6986 23.538C12.9529 23.538 13.1484 23.3473 13.1484 23.0931C13.1484 22.966 13.0946 22.8584 13.0164 22.7753L9.45726 19.2944L13.0164 15.8135C13.0946 15.7304 13.1484 15.6179 13.1484 15.4957C13.1484 15.2415 12.9529 15.0508 12.6986 15.0508C12.5715 15.0508 12.464 15.0948 12.3809 15.1779L8.50392 18.9717C8.41103 19.0597 8.36703 19.1722 8.36703 19.2944Z" fill="#B3C0C7"/>
<rect width="12.3232" height="12.3232" transform="translate(17.8635 12.8242)" fill="#FAFBFD"/>
<path fill-rule="evenodd" clip-rule="evenodd" d="M21.9451 14.2695H26.1051L29.0795 23.8645H24.7351L24.0251 21.624L23.3151 23.8645H18.9707L21.9451 14.2695ZM24.3114 20.5422L25.1742 23.2648H28.2658L25.6632 14.8692H22.5717L24.3114 20.5422ZM22.1646 15.587L23.7111 20.6299L22.8761 23.2648H19.7844L22.1646 15.587Z" fill="#AF38F9"/>
<g style="mix-blend-mode:multiply">
<rect width="6.93178" height="12.3232" transform="translate(30.1868 12.8242)" fill="white"/>
</g>
<path d="M37.1184 14.3653C37.1184 13.0892 38.1529 12.0547 39.429 12.0547H75.0502C76.3263 12.0547 77.3608 13.0892 77.3608 14.3653V23.6076C77.3608 24.8838 76.3263 25.9182 75.0502 25.9182H39.429C38.1529 25.9182 37.1184 24.8838 37.1184 23.6076V14.3653Z" fill="#E4EDF3"/>
<path d="M46.4251 20.7883C46.4251 21.6634 45.8727 22.2012 44.978 22.2012C43.9122 22.2012 43.3598 21.4874 43.3598 20.1136V18.8082C43.3598 17.4393 43.9122 16.7206 44.9682 16.7206C45.8043 16.7206 46.3909 17.3024 46.43 18.1776H47.4567C47.4225 16.6962 46.4838 15.7869 44.9878 15.7869C43.306 15.7869 42.3331 16.8967 42.3331 18.8082V20.1136C42.3331 22.0252 43.306 23.1349 44.9878 23.1349C46.4545 23.1349 47.4567 22.2109 47.4567 20.8469V19.3558H44.8949V20.1771H46.4251V20.7883ZM51.0501 23.0909C52.4874 23.0909 53.4017 22.1718 53.4017 20.7296V19.9229C53.4017 18.4758 52.4874 17.5615 51.0501 17.5615C49.6127 17.5615 48.6985 18.4758 48.6985 19.9229V20.7296C48.6985 22.1718 49.6127 23.0909 51.0501 23.0909ZM51.0501 18.3927C51.9008 18.3927 52.4337 19.0038 52.4337 19.9914V20.6611C52.4337 21.6487 51.9008 22.2598 51.0501 22.2598C50.1994 22.2598 49.6665 21.6487 49.6665 20.6611V19.9914C49.6665 19.0038 50.1994 18.3927 51.0501 18.3927ZM62.4609 16.2024V17.6887H61.0529V18.4953H62.4609V21.3749C62.4609 22.5189 63.0573 23.0078 64.4214 23.0078C64.6267 23.0078 65.3992 22.9883 65.5067 22.9687V22.1669C65.3894 22.1816 64.7391 22.1914 64.4898 22.1914C63.8102 22.1914 63.4436 21.9029 63.4436 21.3749V18.4953H65.536V17.6887H63.4289V16.2024H62.4609ZM69.6183 23.0909C71.0557 23.0909 71.9699 22.1718 71.9699 20.7296V19.9229C71.9699 18.4758 71.0557 17.5615 69.6183 17.5615C68.181 17.5615 67.2667 18.4758 67.2667 19.9229V20.7296C67.2667 22.1718 68.181 23.0909 69.6183 23.0909ZM69.6183 18.3927C70.469 18.3927 71.0019 19.0038 71.0019 19.9914V20.6611C71.0019 21.6487 70.469 22.2598 69.6183 22.2598C68.7676 22.2598 68.2347 21.6487 68.2347 20.6611V19.9914C68.2347 19.0038 68.7676 18.3927 69.6183 18.3927Z" fill="#445B6A"/>
<g style="mix-blend-mode:multiply">
<rect width="406.664" height="12.3232" transform="translate(77.3608 12.8242)" fill="white"/>
</g>
<path d="M4.3851 3.58079C4.3851 2.092 5.592 0.885099 7.08079 0.885099H493.846C495.334 0.885099 496.541 2.092 496.541 3.58079V37.0844H4.3851V3.58079Z" stroke="#E4EDF3" stroke-width="0.770197"/>
<path d="M10.1616 72.0808C10.1616 70.3793 11.5409 69 13.2424 69H425.298C427 69 428.379 70.3793 428.379 72.0808V90.9192C428.379 92.6207 427 94 425.298 94H13.2424C11.5409 94 10.1616 92.6207 10.1616 90.9192V72.0808Z" fill="#F1F6F9" fill-opacity="0.75"/>
<path d="M18.2559 85.9901H26.7138C27.7404 85.9901 28.2489 85.4816 28.2489 84.4745V81.5802C28.2489 81.1402 28.1902 80.9202 27.9702 80.6513L26.2835 78.5638C25.7115 77.8598 25.4573 77.6446 24.5871 77.6446H20.3826C19.5123 77.6446 19.263 77.8598 18.691 78.5638L16.9994 80.6513C16.7843 80.9202 16.7208 81.1402 16.7208 81.5802V84.4745C16.7208 85.4865 17.2341 85.9901 18.2559 85.9901ZM22.4848 82.866C21.7955 82.866 21.3506 82.2647 21.3506 81.6976V81.6829C21.3506 81.4776 21.2284 81.2869 20.9741 81.2869H17.7523C17.591 81.2869 17.5568 81.1451 17.6399 81.0425L19.4537 78.7544C19.6932 78.4513 19.967 78.3291 20.3239 78.3291H24.6457C25.0026 78.3291 25.2764 78.4513 25.516 78.7544L27.3347 81.0425C27.4129 81.1451 27.3835 81.2869 27.2222 81.2869H23.9955C23.7413 81.2869 23.6239 81.4776 23.6239 81.6829V81.6976C23.6239 82.2647 23.1791 82.866 22.4848 82.866ZM18.2657 85.203C17.7768 85.203 17.5079 84.9438 17.5079 84.4354V82.0007H20.6075C20.7248 82.9149 21.4924 83.5896 22.4848 83.5896C23.4773 83.5896 24.2448 82.91 24.3622 82.0007H27.4618V84.4354C27.4618 84.9438 27.188 85.203 26.704 85.203H18.2657Z" fill="#445B6A"/>
<path d="M41.9225 85H43.1018V77.4026H41.9225V85ZM44.8761 85H46.0186V81.6462C46.0186 80.7248 46.5399 80.1509 47.377 80.1509C48.2142 80.1509 48.609 80.6195 48.609 81.5672V85H49.7463V81.2987C49.7463 79.935 49.0408 79.1716 47.7614 79.1716C46.9295 79.1716 46.3819 79.5402 46.1029 80.1509H46.0186V79.2822H44.8761V85ZM54.3795 85.0948C55.8221 85.0948 56.7488 83.9417 56.7488 82.1464V82.1358C56.7488 80.3247 55.8326 79.1822 54.3795 79.1822C53.595 79.1822 52.9263 79.5718 52.621 80.1878H52.5367V77.0393H51.3942V85H52.5367V84.0997H52.621C52.9527 84.7262 53.5792 85.0948 54.3795 85.0948ZM54.0583 84.1207C53.1054 84.1207 52.5157 83.3678 52.5157 82.1464V82.1358C52.5157 80.9143 53.1054 80.1614 54.0583 80.1614C55.0113 80.1614 55.5852 80.9091 55.5852 82.1358V82.1464C55.5852 83.3731 55.0113 84.1207 54.0583 84.1207ZM60.5343 85.1106C62.2086 85.1106 63.2353 83.9891 63.2353 82.1464V82.1358C63.2353 80.2931 62.2033 79.1716 60.5343 79.1716C58.86 79.1716 57.8281 80.2983 57.8281 82.1358V82.1464C57.8281 83.9891 58.8548 85.1106 60.5343 85.1106ZM60.5343 84.1576C59.5497 84.1576 58.9969 83.4152 58.9969 82.1464V82.1358C58.9969 80.867 59.5497 80.1246 60.5343 80.1246C61.5136 80.1246 62.0717 80.867 62.0717 82.1358V82.1464C62.0717 83.41 61.5136 84.1576 60.5343 84.1576ZM63.8723 85H65.1149L66.3679 82.9361H66.4522L67.7053 85H69.0057L67.0945 82.1042L68.9847 79.2822H67.7211L66.4996 81.325H66.4101L65.1781 79.2822H63.8565L65.773 82.1516L63.8723 85Z" fill="#445B6A"/>
<path d="M10.1616 97.0808C10.1616 95.3793 11.5409 94 13.2424 94H487.684C489.386 94 490.765 95.3793 490.765 97.0808V115.919C490.765 117.621 489.386 119 487.684 119H13.2424C11.5409 119 10.1616 117.621 10.1616 115.919V97.0808Z" fill="#FAFBFD"/>
<path d="M19.2942 111.461H25.6702C26.8074 111.461 27.3971 110.872 27.3971 109.75V103.343C27.3971 102.216 26.8074 101.631 25.6702 101.631H19.2942C18.157 101.631 17.5673 102.216 17.5673 103.343V109.75C17.5673 110.877 18.157 111.461 19.2942 111.461ZM19.3574 110.429C18.8678 110.429 18.5992 110.171 18.5992 109.661V103.427C18.5992 102.916 18.8678 102.663 19.3574 102.663H25.607C26.0914 102.663 26.3651 102.916 26.3651 103.427V109.661C26.3651 110.171 26.0914 110.429 25.607 110.429H19.3574ZM20.8105 108.755C21.6951 108.755 22.2848 107.944 22.2848 106.538C22.2848 105.133 21.6951 104.322 20.8105 104.322C19.926 104.322 19.3363 105.133 19.3363 106.538C19.3363 107.944 19.926 108.755 20.8105 108.755ZM23.2482 108.645H25.2963C25.4911 108.645 25.628 108.508 25.628 108.297C25.628 108.081 25.4911 107.96 25.2963 107.96H23.9274V107.923L24.8541 106.844C25.2437 106.391 25.5175 106.017 25.5122 105.512C25.5122 104.791 24.991 104.322 24.1854 104.322C23.5642 104.322 23.0219 104.706 22.885 105.238C22.8692 105.306 22.8534 105.37 22.8534 105.438C22.8534 105.643 22.9797 105.78 23.1745 105.78C23.343 105.78 23.4325 105.68 23.501 105.517C23.6168 105.164 23.859 104.985 24.196 104.985C24.575 104.985 24.8278 105.228 24.8278 105.575C24.8278 105.891 24.5698 106.159 24.3276 106.454L23.0429 107.96C22.9429 108.071 22.9008 108.176 22.9008 108.297C22.9008 108.508 23.0429 108.645 23.2482 108.645ZM20.8105 108.05C20.3683 108.05 20.0945 107.502 20.0945 106.538C20.0945 105.575 20.3683 105.027 20.8105 105.027C21.2581 105.027 21.5319 105.575 21.5319 106.538C21.5319 107.502 21.2581 108.05 20.8105 108.05Z" fill="#445B6A"/>
<path d="M43.8494 110H45.0288V103.419H47.4139V102.403H41.4591V103.419H43.8494V110ZM50.1201 110.111C51.7944 110.111 52.821 108.989 52.821 107.146V107.136C52.821 105.293 51.7891 104.172 50.1201 104.172C48.4458 104.172 47.4139 105.298 47.4139 107.136V107.146C47.4139 108.989 48.4405 110.111 50.1201 110.111ZM50.1201 109.158C49.1355 109.158 48.5827 108.415 48.5827 107.146V107.136C48.5827 105.867 49.1355 105.125 50.1201 105.125C51.0994 105.125 51.6575 105.867 51.6575 107.136V107.146C51.6575 108.41 51.0994 109.158 50.1201 109.158ZM56.2696 110.095C57.0699 110.095 57.6965 109.726 58.0282 109.1H58.1177V110H59.2549V102.039H58.1177V105.188H58.0282C57.7228 104.572 57.0541 104.182 56.2696 104.182C54.8165 104.182 53.9004 105.325 53.9004 107.136V107.146C53.9004 108.942 54.8323 110.095 56.2696 110.095ZM56.5961 109.121C55.6378 109.121 55.0639 108.373 55.0639 107.146V107.136C55.0639 105.909 55.6378 105.161 56.5961 105.161C57.5438 105.161 58.1335 105.914 58.1335 107.136V107.146C58.1335 108.368 57.549 109.121 56.5961 109.121ZM62.5245 110.095C63.2826 110.095 63.8829 109.768 64.2198 109.189H64.3093V110H65.4413V106.088C65.4413 104.888 64.6305 104.172 63.1931 104.172C61.8927 104.172 60.9924 104.798 60.8555 105.735L60.8502 105.772H61.9506L61.9559 105.751C62.0927 105.346 62.5087 105.114 63.1405 105.114C63.9144 105.114 64.3093 105.462 64.3093 106.088V106.594L62.7614 106.683C61.3978 106.767 60.6291 107.362 60.6291 108.384V108.394C60.6291 109.431 61.4346 110.095 62.5245 110.095ZM61.7663 108.347V108.336C61.7663 107.82 62.1243 107.536 62.9141 107.489L64.3093 107.399V107.889C64.3093 108.626 63.6828 109.184 62.8299 109.184C62.2138 109.184 61.7663 108.873 61.7663 108.347ZM67.421 112.011C68.5793 112.011 69.1584 111.585 69.6428 110.221L71.7699 104.282H70.5694L69.1426 108.852H69.0426L67.6105 104.282H66.3785L68.4529 110.005L68.3687 110.3C68.2002 110.879 67.879 111.106 67.3472 111.106C67.2156 111.106 67.0735 111.1 66.9629 111.085V111.985C67.1103 112.001 67.2788 112.011 67.421 112.011Z" fill="#445B6A"/>
<path d="M10.1616 122.081C10.1616 120.379 11.5409 119 13.2424 119H487.684C489.386 119 490.765 120.379 490.765 122.081V140.919C490.765 142.621 489.386 144 487.684 144H13.2424C11.5409 144 10.1616 142.621 10.1616 140.919V122.081Z" fill="#FAFBFD"/>
<path d="M19.5996 136.461H25.3753C26.4546 136.461 27.0496 135.882 27.0496 134.803V129.696C27.5445 129.564 27.8236 129.153 27.8236 128.569V127.8C27.8236 127.09 27.4129 126.631 26.7021 126.631H18.2728C17.5884 126.631 17.1461 127.09 17.1461 127.8V128.569C17.1461 129.153 17.4251 129.564 17.9253 129.69V134.803C17.9253 135.887 18.515 136.461 19.5996 136.461ZM18.4781 128.785C18.2307 128.785 18.1306 128.674 18.1306 128.432V127.932C18.1306 127.69 18.2307 127.579 18.4781 127.579H26.502C26.7442 127.579 26.8443 127.69 26.8443 127.932V128.432C26.8443 128.674 26.7442 128.785 26.502 128.785H18.4781ZM19.6417 135.471C19.1994 135.471 18.9573 135.235 18.9573 134.787V129.733H26.0177V134.787C26.0177 135.235 25.7702 135.471 25.3279 135.471H19.6417ZM20.7895 131.881H24.1907C24.4381 131.881 24.6172 131.707 24.6172 131.449V131.281C24.6172 131.023 24.4381 130.849 24.1907 130.849H20.7895C20.542 130.849 20.363 131.023 20.363 131.281V131.449C20.363 131.707 20.542 131.881 20.7895 131.881Z" fill="#445B6A"/>
<path d="M44.4918 135.184C46.2608 135.184 47.3928 134.279 47.3928 132.826V132.82C47.3928 131.694 46.7399 131.051 45.1446 130.709L44.318 130.525C43.3335 130.314 42.9333 129.946 42.9333 129.382V129.377C42.9333 128.661 43.5915 128.245 44.4813 128.245C45.4026 128.24 45.9976 128.693 46.0976 129.314L46.1081 129.382H47.2507L47.2454 129.309C47.1611 128.129 46.1081 127.218 44.497 127.218C42.886 127.218 41.7487 128.124 41.7434 129.435V129.44C41.7434 130.562 42.4068 131.278 43.9495 131.604L44.7814 131.783C45.787 131.999 46.1976 132.378 46.1976 132.962V132.968C46.1976 133.673 45.5079 134.158 44.5392 134.158C43.523 134.158 42.7912 133.715 42.728 133.026L42.7227 132.968H41.5644L41.5697 133.036C41.675 134.316 42.7754 135.184 44.4918 135.184ZM51.2363 135.111C52.9106 135.111 53.9372 133.989 53.9372 132.146V132.136C53.9372 130.293 52.9053 129.172 51.2363 129.172C49.562 129.172 48.5301 130.298 48.5301 132.136V132.146C48.5301 133.989 49.5567 135.111 51.2363 135.111ZM51.2363 134.158C50.2517 134.158 49.6989 133.415 49.6989 132.146V132.136C49.6989 130.867 50.2517 130.125 51.2363 130.125C52.2156 130.125 52.7737 130.867 52.7737 132.136V132.146C52.7737 133.41 52.2156 134.158 51.2363 134.158ZM55.3009 135H56.4434V131.488C56.4434 130.741 56.9541 130.151 57.6438 130.151C58.3177 130.151 58.7442 130.562 58.7442 131.214V135H59.8814V131.383C59.8814 130.693 60.3606 130.151 61.0871 130.151C61.8348 130.151 62.1928 130.541 62.1928 131.33V135H63.33V131.056C63.33 129.867 62.6561 129.172 61.5031 129.172C60.708 129.172 60.0499 129.577 59.7603 130.193H59.6708C59.4181 129.577 58.8653 129.172 58.0861 129.172C57.3384 129.172 56.7803 129.535 56.5276 130.161H56.4434V129.282H55.3009V135ZM67.3262 135.111C68.7899 135.111 69.5796 134.268 69.7692 133.515L69.7797 133.468L68.6793 133.473L68.6582 133.515C68.5213 133.81 68.0843 134.173 67.3525 134.173C66.4101 134.173 65.8099 133.536 65.7888 132.441H69.8429V132.041C69.8429 130.325 68.8636 129.172 67.2683 129.172C65.673 129.172 64.641 130.367 64.641 132.152V132.157C64.641 133.968 65.6519 135.111 67.3262 135.111ZM67.2735 130.109C68.0475 130.109 68.6214 130.604 68.7109 131.625H65.8046C65.9046 130.641 66.4943 130.109 67.2735 130.109ZM73.2862 135.095C74.0865 135.095 74.713 134.726 75.0447 134.1H75.1342V135H76.2715V127.039H75.1342V130.188H75.0447C74.7393 129.572 74.0707 129.182 73.2862 129.182C71.833 129.182 70.9169 130.325 70.9169 132.136V132.146C70.9169 133.942 71.8488 135.095 73.2862 135.095ZM73.6126 134.121C72.6544 134.121 72.0805 133.373 72.0805 132.146V132.136C72.0805 130.909 72.6544 130.161 73.6126 130.161C74.5603 130.161 75.15 130.914 75.15 132.136V132.146C75.15 133.368 74.5656 134.121 73.6126 134.121ZM79.541 135.095C80.2992 135.095 80.8994 134.768 81.2364 134.189H81.3259V135H82.4579V131.088C82.4579 129.888 81.647 129.172 80.2097 129.172C78.9092 129.172 78.0089 129.798 77.872 130.735L77.8668 130.772H78.9671L78.9724 130.751C79.1093 130.346 79.5252 130.114 80.157 130.114C80.931 130.114 81.3259 130.462 81.3259 131.088V131.594L79.778 131.683C78.4143 131.767 77.6456 132.362 77.6456 133.384V133.394C77.6456 134.431 78.4512 135.095 79.541 135.095ZM78.7829 133.347V133.336C78.7829 132.82 79.1409 132.536 79.9306 132.489L81.3259 132.399V132.889C81.3259 133.626 80.6993 134.184 79.8464 134.184C79.2304 134.184 78.7829 133.873 78.7829 133.347ZM84.4375 137.011C85.5958 137.011 86.175 136.585 86.6593 135.221L88.7864 129.282H87.586L86.1592 133.852H86.0591L84.627 129.282H83.395L85.4694 135.005L85.3852 135.3C85.2167 135.879 84.8956 136.106 84.3638 136.106C84.2322 136.106 84.09 136.1 83.9794 136.085V136.985C84.1269 137.001 84.2953 137.011 84.4375 137.011Z" fill="#445B6A"/>
<path d="M10.1616 147.081C10.1616 145.379 11.5409 144 13.2424 144H487.684C489.386 144 490.765 145.379 490.765 147.081V165.919C490.765 167.621 489.386 169 487.684 169H13.2424C11.5409 169 10.1616 167.621 10.1616 165.919V147.081Z" fill="#FAFBFD"/>
<path d="M19.1457 161.318H25.824C26.8458 161.318 27.3542 160.809 27.3542 159.802V153.833C27.3542 152.826 26.8458 152.317 25.824 152.317H19.1457C18.1239 152.317 17.6105 152.821 17.6105 153.833V159.802C17.6105 160.814 18.1239 161.318 19.1457 161.318ZM19.0723 160.531C18.6372 160.531 18.3977 160.301 18.3977 159.846V155.236C18.3977 154.786 18.6372 154.551 19.0723 154.551H25.8875C26.3226 154.551 26.5671 154.786 26.5671 155.236V159.846C26.5671 160.301 26.3226 160.531 25.8875 160.531H19.0723ZM21.5315 156.306H21.8199C21.991 156.306 22.0448 156.258 22.0448 156.086V155.798C22.0448 155.627 21.991 155.573 21.8199 155.573H21.5315C21.3604 155.573 21.3017 155.627 21.3017 155.798V156.086C21.3017 156.258 21.3604 156.306 21.5315 156.306ZM23.1546 156.306H23.4431C23.6142 156.306 23.6728 156.258 23.6728 156.086V155.798C23.6728 155.627 23.6142 155.573 23.4431 155.573H23.1546C22.9835 155.573 22.9248 155.627 22.9248 155.798V156.086C22.9248 156.258 22.9835 156.306 23.1546 156.306ZM24.7777 156.306H25.0662C25.2373 156.306 25.296 156.258 25.296 156.086V155.798C25.296 155.627 25.2373 155.573 25.0662 155.573H24.7777C24.6066 155.573 24.5528 155.627 24.5528 155.798V156.086C24.5528 156.258 24.6066 156.306 24.7777 156.306ZM19.9083 157.905H20.1919C20.3679 157.905 20.4217 157.856 20.4217 157.685V157.397C20.4217 157.226 20.3679 157.177 20.1919 157.177H19.9083C19.7323 157.177 19.6786 157.226 19.6786 157.397V157.685C19.6786 157.856 19.7323 157.905 19.9083 157.905ZM21.5315 157.905H21.8199C21.991 157.905 22.0448 157.856 22.0448 157.685V157.397C22.0448 157.226 21.991 157.177 21.8199 157.177H21.5315C21.3604 157.177 21.3017 157.226 21.3017 157.397V157.685C21.3017 157.856 21.3604 157.905 21.5315 157.905ZM23.1546 157.905H23.4431C23.6142 157.905 23.6728 157.856 23.6728 157.685V157.397C23.6728 157.226 23.6142 157.177 23.4431 157.177H23.1546C22.9835 157.177 22.9248 157.226 22.9248 157.397V157.685C22.9248 157.856 22.9835 157.905 23.1546 157.905ZM24.7777 157.905H25.0662C25.2373 157.905 25.296 157.856 25.296 157.685V157.397C25.296 157.226 25.2373 157.177 25.0662 157.177H24.7777C24.6066 157.177 24.5528 157.226 24.5528 157.397V157.685C24.5528 157.856 24.6066 157.905 24.7777 157.905ZM19.9083 159.509H20.1919C20.3679 159.509 20.4217 159.455 20.4217 159.284V158.995C20.4217 158.824 20.3679 158.775 20.1919 158.775H19.9083C19.7323 158.775 19.6786 158.824 19.6786 158.995V159.284C19.6786 159.455 19.7323 159.509 19.9083 159.509ZM21.5315 159.509H21.8199C21.991 159.509 22.0448 159.455 22.0448 159.284V158.995C22.0448 158.824 21.991 158.775 21.8199 158.775H21.5315C21.3604 158.775 21.3017 158.824 21.3017 158.995V159.284C21.3017 159.455 21.3604 159.509 21.5315 159.509ZM23.1546 159.509H23.4431C23.6142 159.509 23.6728 159.455 23.6728 159.284V158.995C23.6728 158.824 23.6142 158.775 23.4431 158.775H23.1546C22.9835 158.775 22.9248 158.824 22.9248 158.995V159.284C22.9248 159.455 22.9835 159.509 23.1546 159.509Z" fill="#445B6A"/>
<path d="M41.9225 160H43.1018V157.404H44.8814C46.3714 157.404 47.4033 156.388 47.4033 154.903V154.893C47.4033 153.403 46.3714 152.403 44.8814 152.403H41.9225V160ZM44.5866 153.398C45.608 153.398 46.2029 153.95 46.2029 154.898V154.909C46.2029 155.862 45.608 156.415 44.5866 156.415H43.1018V153.398H44.5866ZM48.846 160H49.9885V152.039H48.846V160ZM53.258 160.095C54.0162 160.095 54.6164 159.768 54.9534 159.189H55.0429V160H56.1749V156.088C56.1749 154.888 55.3641 154.172 53.9267 154.172C52.6262 154.172 51.7259 154.798 51.589 155.735L51.5838 155.772H52.6842L52.6894 155.751C52.8263 155.346 53.2422 155.114 53.8741 155.114C54.648 155.114 55.0429 155.462 55.0429 156.088V156.594L53.495 156.683C52.1313 156.767 51.3626 157.362 51.3626 158.384V158.394C51.3626 159.431 52.1682 160.095 53.258 160.095ZM52.4999 158.347V158.336C52.4999 157.82 52.8579 157.536 53.6477 157.489L55.0429 157.399V157.889C55.0429 158.626 54.4163 159.184 53.5634 159.184C52.9474 159.184 52.4999 158.873 52.4999 158.347ZM57.786 160H58.9285V156.646C58.9285 155.725 59.4497 155.151 60.2868 155.151C61.124 155.151 61.5189 155.62 61.5189 156.567V160H62.6561V156.299C62.6561 154.935 61.9506 154.172 60.6712 154.172C59.8393 154.172 59.2918 154.54 59.0127 155.151H58.9285V154.282H57.786V160ZM64.2514 160H65.3939V156.646C65.3939 155.725 65.9152 155.151 66.7523 155.151C67.5894 155.151 67.9843 155.62 67.9843 156.567V160H69.1216V156.299C69.1216 154.935 68.416 154.172 67.1366 154.172C66.3048 154.172 65.7572 154.54 65.4782 155.151H65.3939V154.282H64.2514V160ZM73.1177 160.111C74.5814 160.111 75.3711 159.268 75.5607 158.515L75.5712 158.468L74.4708 158.473L74.4498 158.515C74.3129 158.81 73.8759 159.173 73.144 159.173C72.2016 159.173 71.6014 158.536 71.5803 157.441H75.6344V157.041C75.6344 155.325 74.6551 154.172 73.0598 154.172C71.4645 154.172 70.4325 155.367 70.4325 157.152V157.157C70.4325 158.968 71.4434 160.111 73.1177 160.111ZM73.0651 155.109C73.839 155.109 74.4129 155.604 74.5024 156.625H71.5961C71.6961 155.641 72.2858 155.109 73.0651 155.109ZM79.0777 160.095C79.878 160.095 80.5045 159.726 80.8362 159.1H80.9257V160H82.063V152.039H80.9257V155.188H80.8362C80.5309 154.572 79.8622 154.182 79.0777 154.182C77.6246 154.182 76.7084 155.325 76.7084 157.136V157.146C76.7084 158.942 77.6404 160.095 79.0777 160.095ZM79.4041 159.121C78.4459 159.121 77.872 158.373 77.872 157.146V157.136C77.872 155.909 78.4459 155.161 79.4041 155.161C80.3518 155.161 80.9415 155.914 80.9415 157.136V157.146C80.9415 158.368 80.3571 159.121 79.4041 159.121Z" fill="#445B6A"/>
<path d="M10.1616 172.081C10.1616 170.379 11.5409 169 13.2424 169H487.684C489.386 169 490.765 170.379 490.765 172.081V190.919C490.765 192.621 489.386 194 487.684 194H13.2424C11.5409 194 10.1616 192.621 10.1616 190.919V172.081Z" fill="#FAFBFD"/>
<path d="M22.4848 186.797C25.2129 186.797 27.4715 184.533 27.4715 181.81C27.4715 179.082 25.208 176.823 22.4799 176.823C19.7568 176.823 17.4981 179.082 17.4981 181.81C17.4981 184.533 19.7617 186.797 22.4848 186.797ZM22.4848 185.966C20.1772 185.966 18.3341 184.118 18.3341 181.81C18.3341 179.502 20.1723 177.654 22.4799 177.654C24.7875 177.654 26.6355 179.502 26.6404 181.81C26.6453 184.118 24.7924 185.966 22.4848 185.966ZM21.947 184.132C22.1084 184.132 22.2453 184.054 22.343 183.902L24.5773 180.387C24.6311 180.29 24.6946 180.182 24.6946 180.074C24.6946 179.854 24.4991 179.713 24.2937 179.713C24.1715 179.713 24.0493 179.791 23.9564 179.933L21.9275 183.189L20.9644 181.942C20.847 181.786 20.7395 181.746 20.6026 181.746C20.3924 181.746 20.2261 181.918 20.2261 182.133C20.2261 182.24 20.2701 182.343 20.3386 182.436L21.5315 183.902C21.6537 184.064 21.7857 184.132 21.947 184.132Z" fill="#445B6A"/>
<path d="M41.9225 185H44.6655C46.9295 185 48.2405 183.6 48.2405 181.188V181.178C48.2405 178.793 46.919 177.403 44.6655 177.403H41.9225V185ZM43.1018 183.984V178.419H44.5339C46.1081 178.419 47.0401 179.445 47.0401 181.193V181.204C47.0401 182.968 46.1239 183.984 44.5339 183.984H43.1018ZM52.1313 185.111C53.8056 185.111 54.8323 183.989 54.8323 182.146V182.136C54.8323 180.293 53.8003 179.172 52.1313 179.172C50.4571 179.172 49.4251 180.298 49.4251 182.136V182.146C49.4251 183.989 50.4518 185.111 52.1313 185.111ZM52.1313 184.158C51.1468 184.158 50.5939 183.415 50.5939 182.146V182.136C50.5939 180.867 51.1468 180.125 52.1313 180.125C53.1106 180.125 53.6687 180.867 53.6687 182.136V182.146C53.6687 183.41 53.1106 184.158 52.1313 184.158ZM56.1959 185H57.3384V181.646C57.3384 180.725 57.8597 180.151 58.6968 180.151C59.5339 180.151 59.9288 180.62 59.9288 181.567V185H61.0661V181.299C61.0661 179.935 60.3606 179.172 59.0812 179.172C58.2493 179.172 57.7017 179.54 57.4227 180.151H57.3384V179.282H56.1959V185ZM65.0622 185.111C66.5259 185.111 67.3157 184.268 67.5052 183.515L67.5157 183.468L66.4153 183.473L66.3943 183.515C66.2574 183.81 65.8204 184.173 65.0885 184.173C64.1461 184.173 63.5459 183.536 63.5248 182.441H67.5789V182.041C67.5789 180.325 66.5996 179.172 65.0043 179.172C63.409 179.172 62.3771 180.367 62.3771 182.152V182.157C62.3771 183.968 63.3879 185.111 65.0622 185.111ZM65.0096 180.109C65.7835 180.109 66.3574 180.604 66.4469 181.625H63.5406C63.6407 180.641 64.2303 180.109 65.0096 180.109Z" fill="#445B6A"/>
<path d="M10.1616 197.081C10.1616 195.379 11.5409 194 13.2424 194H487.684C489.386 194 490.765 195.379 490.765 197.081V215.919C490.765 217.621 489.386 219 487.684 219H13.2424C11.5409 219 10.1616 217.621 10.1616 215.919V197.081Z" fill="#FAFBFD"/>
<path d="M22.4848 211.797C25.2129 211.797 27.4715 209.533 27.4715 206.81C27.4715 204.082 25.208 201.823 22.4799 201.823C19.7568 201.823 17.4981 204.082 17.4981 206.81C17.4981 209.533 19.7617 211.797 22.4848 211.797ZM22.4848 210.966C20.1772 210.966 18.3341 209.118 18.3341 206.81C18.3341 204.502 20.1723 202.654 22.4799 202.654C24.7875 202.654 26.6355 204.502 26.6404 206.81C26.6453 209.118 24.7924 210.966 22.4848 210.966ZM19.9279 207.338H22.4799C22.6706 207.338 22.8222 207.191 22.8222 206.996V203.701C22.8222 203.51 22.6706 203.363 22.4799 203.363C22.2893 203.363 22.1426 203.51 22.1426 203.701V206.658H19.9279C19.7323 206.658 19.5857 206.805 19.5857 206.996C19.5857 207.191 19.7323 207.338 19.9279 207.338Z" fill="#445B6A"/>
<path d="M44.4918 210.184C46.2608 210.184 47.3928 209.279 47.3928 207.826V207.82C47.3928 206.694 46.7399 206.051 45.1446 205.709L44.318 205.525C43.3335 205.314 42.9333 204.946 42.9333 204.382V204.377C42.9333 203.661 43.5915 203.245 44.4813 203.245C45.4026 203.24 45.9976 203.693 46.0976 204.314L46.1081 204.382H47.2507L47.2454 204.309C47.1611 203.129 46.1081 202.218 44.497 202.218C42.886 202.218 41.7487 203.124 41.7434 204.435V204.44C41.7434 205.562 42.4068 206.278 43.9495 206.604L44.7814 206.783C45.787 206.999 46.1976 207.378 46.1976 207.962V207.968C46.1976 208.673 45.5079 209.158 44.5392 209.158C43.523 209.158 42.7912 208.715 42.728 208.026L42.7227 207.968H41.5644L41.5697 208.036C41.675 209.316 42.7754 210.184 44.4918 210.184ZM48.8144 210H49.9569V206.646C49.9569 205.725 50.4781 205.151 51.3153 205.151C52.1524 205.151 52.5473 205.62 52.5473 206.567V210H53.6845V206.299C53.6845 204.935 52.979 204.172 51.6996 204.172C50.8677 204.172 50.3202 204.54 50.0411 205.151H49.9569V204.282H48.8144V210ZM57.7017 210.111C59.376 210.111 60.4027 208.989 60.4027 207.146V207.136C60.4027 205.293 59.3707 204.172 57.7017 204.172C56.0274 204.172 54.9955 205.298 54.9955 207.136V207.146C54.9955 208.989 56.0222 210.111 57.7017 210.111ZM57.7017 209.158C56.7172 209.158 56.1643 208.415 56.1643 207.146V207.136C56.1643 205.867 56.7172 205.125 57.7017 205.125C58.681 205.125 59.2391 205.867 59.2391 207.136V207.146C59.2391 208.41 58.681 209.158 57.7017 209.158ZM64.1882 210.111C65.8625 210.111 66.8892 208.989 66.8892 207.146V207.136C66.8892 205.293 65.8572 204.172 64.1882 204.172C62.514 204.172 61.482 205.298 61.482 207.136V207.146C61.482 208.989 62.5087 210.111 64.1882 210.111ZM64.1882 209.158C63.2037 209.158 62.6508 208.415 62.6508 207.146V207.136C62.6508 205.867 63.2037 205.125 64.1882 205.125C65.1675 205.125 65.7256 205.867 65.7256 207.136V207.146C65.7256 208.41 65.1675 209.158 64.1882 209.158ZM67.9738 210H72.5122V209.1H69.3901V209.01L72.4806 205.067V204.282H67.9948V205.183H71.1328V205.272L67.9738 209.258V210ZM76.2767 210.111C77.7404 210.111 78.5301 209.268 78.7197 208.515L78.7302 208.468L77.6298 208.473L77.6088 208.515C77.4719 208.81 77.0349 209.173 76.303 209.173C75.3606 209.173 74.7604 208.536 74.7393 207.441H78.7934V207.041C78.7934 205.325 77.8141 204.172 76.2188 204.172C74.6235 204.172 73.5916 205.367 73.5916 207.152V207.157C73.5916 208.968 74.6024 210.111 76.2767 210.111ZM76.2241 205.109C76.998 205.109 77.5719 205.604 77.6614 206.625H74.7551C74.8552 205.641 75.4448 205.109 76.2241 205.109ZM82.2367 210.095C83.037 210.095 83.6635 209.726 83.9952 209.1H84.0847V210H85.222V202.039H84.0847V205.188H83.9952C83.6899 204.572 83.0212 204.182 82.2367 204.182C80.7836 204.182 79.8675 205.325 79.8675 207.136V207.146C79.8675 208.942 80.7994 210.095 82.2367 210.095ZM82.5632 209.121C81.6049 209.121 81.031 208.373 81.031 207.146V207.136C81.031 205.909 81.6049 205.161 82.5632 205.161C83.5109 205.161 84.1005 205.914 84.1005 207.136V207.146C84.1005 208.368 83.5161 209.121 82.5632 209.121Z" fill="#445B6A"/>
<path d="M20.0971 55.6974C21.9925 55.6974 23.2054 54.7272 23.2054 53.1702V53.1646C23.2054 51.9574 22.5059 51.2692 20.7966 50.9025L19.911 50.7051C18.8561 50.4794 18.4274 50.0845 18.4274 49.481V49.4753C18.4274 48.7081 19.1325 48.2625 20.0859 48.2625C21.073 48.2568 21.7105 48.742 21.8177 49.4076L21.829 49.481H23.0531L23.0474 49.402C22.9572 48.1384 21.829 47.1625 20.1028 47.1625C18.3766 47.1625 17.1581 48.1327 17.1525 49.5374V49.543C17.1525 50.7446 17.8633 51.5117 19.5161 51.8615L20.4074 52.0533C21.4848 52.2846 21.9248 52.6907 21.9248 53.3169V53.3225C21.9248 54.0784 21.1859 54.5974 20.1479 54.5974C19.0592 54.5974 18.2751 54.1236 18.2074 53.3846L18.2017 53.3225H16.9607L16.9663 53.3959C17.0791 54.7667 18.2581 55.6974 20.0971 55.6974ZM27.3008 55.6185C28.869 55.6185 29.7152 54.7159 29.9183 53.9092L29.9296 53.8584L28.7506 53.8641L28.728 53.9092C28.5813 54.2251 28.1131 54.6143 27.329 54.6143C26.3193 54.6143 25.6762 53.9318 25.6536 52.7584H29.9973V52.3297C29.9973 50.4907 28.948 49.2553 27.2388 49.2553C25.5295 49.2553 24.4239 50.5358 24.4239 52.4482V52.4538C24.4239 54.3943 25.5069 55.6185 27.3008 55.6185ZM27.2444 50.2594C28.0736 50.2594 28.6885 50.7897 28.7844 51.8841H25.6705C25.7777 50.8292 26.4095 50.2594 27.2444 50.2594ZM31.5091 55.5H32.7332V46.9707H31.5091V55.5ZM37.1276 55.6185C38.6958 55.6185 39.542 54.7159 39.7451 53.9092L39.7563 53.8584L38.5774 53.8641L38.5548 53.9092C38.4081 54.2251 37.9399 54.6143 37.1558 54.6143C36.146 54.6143 35.503 53.9318 35.4804 52.7584H39.824V52.3297C39.824 50.4907 38.7748 49.2553 37.0655 49.2553C35.3563 49.2553 34.2506 50.5358 34.2506 52.4482V52.4538C34.2506 54.3943 35.3337 55.6185 37.1276 55.6185ZM37.0712 50.2594C37.9004 50.2594 38.5153 50.7897 38.6112 51.8841H35.4973C35.6045 50.8292 36.2363 50.2594 37.0712 50.2594ZM43.8574 55.6185C45.3749 55.6185 46.2492 54.8005 46.4693 53.6102L46.4805 53.5595H45.3072L45.2959 53.5877C45.0985 54.2477 44.6246 54.5974 43.8574 54.5974C42.8477 54.5974 42.2215 53.7738 42.2215 52.42V52.4087C42.2215 51.0887 42.8364 50.2763 43.8574 50.2763C44.6697 50.2763 45.1662 50.7276 45.3015 51.3312L45.3072 51.3482L46.4805 51.3425V51.3143C46.3113 50.124 45.3918 49.2553 43.8518 49.2553C42.0636 49.2553 40.9748 50.4681 40.9748 52.4087V52.42C40.9748 54.4 42.0692 55.6185 43.8574 55.6185ZM50.2713 55.5395C50.5083 55.5395 50.7339 55.5113 50.9314 55.4774V54.5015C50.7621 54.5184 50.6549 54.5241 50.4688 54.5241C49.8652 54.5241 49.617 54.2533 49.617 53.5933V50.3384H50.9314V49.3738H49.617V47.8281H48.3703V49.3738H47.4113V50.3384H48.3703V53.8866C48.3703 55.0656 48.9231 55.5395 50.2713 55.5395ZM57.1986 55.6015C58.0109 55.6015 58.654 55.2518 59.015 54.6313H59.1109V55.5H60.3238V51.3087C60.3238 50.0225 59.455 49.2553 57.915 49.2553C56.5217 49.2553 55.5571 49.9266 55.4104 50.9307L55.4047 50.9702H56.5837L56.5894 50.9476C56.736 50.5133 57.1817 50.2651 57.8586 50.2651C58.6879 50.2651 59.1109 50.6374 59.1109 51.3087V51.8502L57.4525 51.9461C55.9914 52.0364 55.1678 52.6738 55.1678 53.7682V53.7795C55.1678 54.8908 56.0309 55.6015 57.1986 55.6015ZM56.3863 53.7287V53.7174C56.3863 53.1646 56.7699 52.86 57.6161 52.8092L59.1109 52.7133V53.2379C59.1109 54.0277 58.4397 54.6256 57.5258 54.6256C56.8658 54.6256 56.3863 54.2928 56.3863 53.7287ZM65.2654 55.5H66.4895V46.9707H65.2654V55.5ZM69.9926 55.6015C70.8049 55.6015 71.448 55.2518 71.809 54.6313H71.9049V55.5H73.1178V51.3087C73.1178 50.0225 72.2491 49.2553 70.709 49.2553C69.3157 49.2553 68.3511 49.9266 68.2044 50.9307L68.1987 50.9702H69.3777L69.3834 50.9476C69.53 50.5133 69.9757 50.2651 70.6526 50.2651C71.4819 50.2651 71.9049 50.6374 71.9049 51.3087V51.8502L70.2465 51.9461C68.7854 52.0364 67.9618 52.6738 67.9618 53.7682V53.7795C67.9618 54.8908 68.8249 55.6015 69.9926 55.6015ZM69.1803 53.7287V53.7174C69.1803 53.1646 69.5639 52.86 70.4101 52.8092L71.9049 52.7133V53.2379C71.9049 54.0277 71.2337 54.6256 70.3198 54.6256C69.6598 54.6256 69.1803 54.2928 69.1803 53.7287ZM78.0989 55.6015C79.6445 55.6015 80.6374 54.3661 80.6374 52.4425V52.4312C80.6374 50.4907 79.6558 49.2666 78.0989 49.2666C77.2583 49.2666 76.5419 49.684 76.2147 50.344H76.1245V46.9707H74.9004V55.5H76.1245V54.5354H76.2147C76.5701 55.2067 77.2414 55.6015 78.0989 55.6015ZM77.7548 54.5579C76.7337 54.5579 76.1019 53.7513 76.1019 52.4425V52.4312C76.1019 51.1225 76.7337 50.3158 77.7548 50.3158C78.7758 50.3158 79.3907 51.1169 79.3907 52.4312V52.4425C79.3907 53.7569 78.7758 54.5579 77.7548 54.5579ZM84.6707 55.6185C86.239 55.6185 87.0851 54.7159 87.2882 53.9092L87.2995 53.8584L86.1205 53.8641L86.0979 53.9092C85.9513 54.2251 85.4831 54.6143 84.6989 54.6143C83.6892 54.6143 83.0461 53.9318 83.0235 52.7584H87.3672V52.3297C87.3672 50.4907 86.3179 49.2553 84.6087 49.2553C82.8994 49.2553 81.7938 50.5358 81.7938 52.4482V52.4538C81.7938 54.3943 82.8769 55.6185 84.6707 55.6185ZM84.6143 50.2594C85.4436 50.2594 86.0585 50.7897 86.1543 51.8841H83.0405C83.1476 50.8292 83.7794 50.2594 84.6143 50.2594ZM88.879 55.5H90.1031V46.9707H88.879V55.5ZM91.7108 57.6154H92.5739L93.5103 54.3041H92.2072L91.7108 57.6154ZM100.962 55.6015C101.82 55.6015 102.491 55.2067 102.846 54.5354H102.942V55.5H104.161V46.9707H102.942V50.344H102.846C102.519 49.684 101.803 49.2666 100.962 49.2666C99.4053 49.2666 98.4237 50.4907 98.4237 52.4312V52.4425C98.4237 54.3661 99.4222 55.6015 100.962 55.6015ZM101.312 54.5579C100.285 54.5579 99.6704 53.7569 99.6704 52.4425V52.4312C99.6704 51.1169 100.285 50.3158 101.312 50.3158C102.327 50.3158 102.959 51.1225 102.959 52.4312V52.4425C102.959 53.7513 102.333 54.5579 101.312 54.5579ZM107.664 55.6015C108.476 55.6015 109.119 55.2518 109.48 54.6313H109.576V55.5H110.789V51.3087C110.789 50.0225 109.92 49.2553 108.38 49.2553C106.987 49.2553 106.022 49.9266 105.876 50.9307L105.87 50.9702H107.049L107.055 50.9476C107.201 50.5133 107.647 50.2651 108.324 50.2651C109.153 50.2651 109.576 50.6374 109.576 51.3087V51.8502L107.918 51.9461C106.457 52.0364 105.633 52.6738 105.633 53.7682V53.7795C105.633 54.8908 106.496 55.6015 107.664 55.6015ZM106.852 53.7287V53.7174C106.852 53.1646 107.235 52.86 108.081 52.8092L109.576 52.7133V53.2379C109.576 54.0277 108.905 54.6256 107.991 54.6256C107.331 54.6256 106.852 54.2928 106.852 53.7287ZM114.828 55.5395C115.065 55.5395 115.291 55.5113 115.488 55.4774V54.5015C115.319 54.5184 115.212 54.5241 115.025 54.5241C114.422 54.5241 114.174 54.2533 114.174 53.5933V50.3384H115.488V49.3738H114.174V47.8281H112.927V49.3738H111.968V50.3384H112.927V53.8866C112.927 55.0656 113.48 55.5395 114.828 55.5395ZM119.42 55.6185C120.988 55.6185 121.834 54.7159 122.037 53.9092L122.049 53.8584L120.87 53.8641L120.847 53.9092C120.7 54.2251 120.232 54.6143 119.448 54.6143C118.438 54.6143 117.795 53.9318 117.773 52.7584H122.116V52.3297C122.116 50.4907 121.067 49.2553 119.358 49.2553C117.649 49.2553 116.543 50.5358 116.543 52.4482V52.4538C116.543 54.3943 117.626 55.6185 119.42 55.6185ZM119.363 50.2594C120.193 50.2594 120.808 50.7897 120.903 51.8841H117.79C117.897 50.8292 118.529 50.2594 119.363 50.2594ZM129.326 55.6185C131.12 55.6185 132.22 54.4169 132.22 52.4425V52.4312C132.22 50.4569 131.114 49.2553 129.326 49.2553C127.532 49.2553 126.426 50.4625 126.426 52.4312V52.4425C126.426 54.4169 127.526 55.6185 129.326 55.6185ZM129.326 54.5974C128.271 54.5974 127.678 53.802 127.678 52.4425V52.4312C127.678 51.0717 128.271 50.2763 129.326 50.2763C130.375 50.2763 130.973 51.0717 130.973 52.4312V52.4425C130.973 53.7964 130.375 54.5974 129.326 54.5974ZM133.681 55.5H134.905V51.8389C134.905 50.9533 135.542 50.3779 136.479 50.3779C136.71 50.3779 136.919 50.4061 137.139 50.4512V49.323C137.014 49.2948 136.8 49.2666 136.603 49.2666C135.785 49.2666 135.215 49.6502 134.995 50.2989H134.905V49.3738H133.681V55.5ZM141.465 57.5421H142.689V54.5297H142.78C143.107 55.1897 143.823 55.6015 144.664 55.6015C146.221 55.6015 147.202 54.3831 147.202 52.4425V52.4312C147.202 50.502 146.209 49.2666 144.664 49.2666C143.806 49.2666 143.135 49.6671 142.78 50.3384H142.689V49.3738H141.465V57.5421ZM144.32 54.5579C143.299 54.5579 142.667 53.7513 142.667 52.4425V52.4312C142.667 51.1225 143.299 50.3158 144.32 50.3158C145.341 50.3158 145.956 51.1112 145.956 52.4312V52.4425C145.956 53.7569 145.341 54.5579 144.32 54.5579ZM150.356 55.6015C151.168 55.6015 151.811 55.2518 152.172 54.6313H152.268V55.5H153.481V51.3087C153.481 50.0225 152.612 49.2553 151.072 49.2553C149.679 49.2553 148.714 49.9266 148.567 50.9307L148.562 50.9702H149.741L149.746 50.9476C149.893 50.5133 150.339 50.2651 151.016 50.2651C151.845 50.2651 152.268 50.6374 152.268 51.3087V51.8502L150.609 51.9461C149.148 52.0364 148.325 52.6738 148.325 53.7682V53.7795C148.325 54.8908 149.188 55.6015 150.356 55.6015ZM149.543 53.7287V53.7174C149.543 53.1646 149.927 52.86 150.773 52.8092L152.268 52.7133V53.2379C152.268 54.0277 151.597 54.6256 150.683 54.6256C150.023 54.6256 149.543 54.2928 149.543 53.7287ZM157.796 57.6605C159.534 57.6605 160.634 56.7692 160.634 55.3759V49.3738H159.415V50.3779H159.342C158.987 49.6897 158.321 49.2666 157.463 49.2666C155.873 49.2666 154.897 50.502 154.897 52.2507V52.262C154.897 53.9882 155.867 55.201 157.441 55.201C158.281 55.201 158.958 54.8287 159.331 54.1631H159.421V55.3703C159.421 56.2051 158.823 56.679 157.813 56.679C156.984 56.679 156.488 56.38 156.386 55.9569L156.38 55.9456H155.145L155.134 55.9569C155.28 56.978 156.239 57.6605 157.796 57.6605ZM157.779 54.1913C156.736 54.1913 156.149 53.3959 156.149 52.2564V52.2451C156.149 51.1056 156.736 50.3046 157.779 50.3046C158.812 50.3046 159.443 51.1056 159.443 52.2451V52.2564C159.443 53.4015 158.817 54.1913 157.779 54.1913ZM164.966 55.6185C166.534 55.6185 167.38 54.7159 167.584 53.9092L167.595 53.8584L166.416 53.8641L166.393 53.9092C166.247 54.2251 165.778 54.6143 164.994 54.6143C163.985 54.6143 163.341 53.9318 163.319 52.7584H167.663V52.3297C167.663 50.4907 166.613 49.2553 164.904 49.2553C163.195 49.2553 162.089 50.5358 162.089 52.4482V52.4538C162.089 54.3943 163.172 55.6185 164.966 55.6185ZM164.91 50.2594C165.739 50.2594 166.354 50.7897 166.45 51.8841H163.336C163.443 50.8292 164.075 50.2594 164.91 50.2594Z" fill="#B3C0C7"/>
<g style="mix-blend-mode:multiply">
<rect width="316.354" height="12.3232" transform="translate(168.323 45.3398)" fill="white"/>
</g>
</g>
<rect x="4.3851" y="0.885099" width="428.23" height="210.23" rx="2.69569" stroke="#E4EDF3" stroke-width="0.770197"/>
</g>
<defs>
<filter id="filter0_di" x="0" y="-5.5" width="437" height="225" filterUnits="userSpaceOnUse" color-interpolation-filters="sRGB">
<feFlood flood-opacity="0" result="BackgroundImageFix"/>
<feColorMatrix in="SourceAlpha" type="matrix" values="0 0 0 0 0 0 0 0 0 0 0 0 0 0 0 0 0 0 127 0" result="hardAlpha"/>
<feOffset dy="4"/>
<feGaussianBlur stdDeviation="2"/>
<feComposite in2="hardAlpha" operator="out"/>
<feColorMatrix type="matrix" values="0 0 0 0 0 0 0 0 0 0 0 0 0 0 0 0 0 0 0.25 0"/>
<feBlend mode="normal" in2="BackgroundImageFix" result="effect1_dropShadow"/>
<feBlend mode="normal" in="SourceGraphic" in2="effect1_dropShadow" result="shape"/>
<feColorMatrix in="SourceAlpha" type="matrix" values="0 0 0 0 0 0 0 0 0 0 0 0 0 0 0 0 0 0 127 0" result="hardAlpha"/>
<feOffset dy="-13"/>
<feGaussianBlur stdDeviation="3"/>
<feComposite in2="hardAlpha" operator="arithmetic" k2="-1" k3="1"/>
<feColorMatrix type="matrix" values="0 0 0 0 0.980392 0 0 0 0 0.984314 0 0 0 0 0.992157 0 0 0 0.7 0"/>
<feBlend mode="normal" in2="shape" result="effect2_innerShadow"/>
</filter>
<clipPath id="clip0">
<rect x="4" y="0.5" width="429" height="211" rx="3.08079" fill="white"/>
</clipPath>
</defs>
</svg>
