<svg width="553" height="194" viewBox="0 0 553 194" fill="none" xmlns="http://www.w3.org/2000/svg">
<g filter="url(#filter0_d)">
<g clip-path="url(#clip0)">
<rect x="16.5" y="29.0273" width="516" height="144" rx="10" fill="#FAFBFD"/>
<path d="M16.5 33.0273C16.5 30.8182 18.2909 29.0273 20.5 29.0273H528.5C530.709 29.0273 532.5 30.8182 532.5 33.0273V77.0273H16.5V33.0273Z" fill="#FAFBFD"/>
<path fill-rule="evenodd" clip-rule="evenodd" d="M39.5618 41.5273H49.4382L56.5 64.5273H46.1856L44.5 59.1566L42.8144 64.5273H32.5L39.5618 41.5273ZM45.1796 56.5634L47.228 63.0898H54.5681L48.389 42.9648H41.0493L45.1796 56.5634ZM40.0827 44.6855L43.7543 56.7738L41.772 63.0898H34.4319L40.0827 44.6855Z" fill="#AF38F9"/>
<g style="mix-blend-mode:multiply">
<rect width="12" height="16" transform="translate(56.5 45.0273)" fill="white"/>
</g>
<path d="M74.1616 58.2837C76.52 58.2837 78.2412 56.936 78.5488 54.9072V54.8633H76.9229L76.9082 54.8926C76.6079 56.0864 75.5605 56.8335 74.1616 56.8335C72.2573 56.8335 71.0708 55.2588 71.0708 52.7539V52.7393C71.0708 50.2271 72.2573 48.6523 74.1543 48.6523C75.5459 48.6523 76.6079 49.4946 76.9155 50.791V50.813H78.5415L78.5488 50.7764C78.2705 48.6743 76.4834 47.2021 74.1543 47.2021C71.2173 47.2021 69.3936 49.3262 69.3936 52.7393V52.7539C69.3936 56.1597 71.2246 58.2837 74.1616 58.2837ZM82.709 58.1592C83.7637 58.1592 84.5986 57.7051 85.0674 56.8994H85.1919V58.0273H86.7666V52.5854C86.7666 50.9155 85.6387 49.9194 83.6392 49.9194C81.8301 49.9194 80.5776 50.791 80.3872 52.0947L80.3799 52.146H81.9106L81.918 52.1167C82.1084 51.5527 82.687 51.2305 83.5659 51.2305C84.6426 51.2305 85.1919 51.7139 85.1919 52.5854V53.2886L83.0386 53.4131C81.1416 53.5303 80.0723 54.3579 80.0723 55.7788V55.7935C80.0723 57.2363 81.1929 58.1592 82.709 58.1592ZM81.6543 55.7275V55.7129C81.6543 54.9951 82.1523 54.5996 83.251 54.5337L85.1919 54.4092V55.0903C85.1919 56.1157 84.3203 56.8921 83.1338 56.8921C82.2769 56.8921 81.6543 56.46 81.6543 55.7275ZM89.0811 58.0273H90.6704V46.9531H89.0811V58.0273ZM93.1094 58.0273H94.6987V46.9531H93.1094V58.0273ZM104.513 58.1812C106.483 58.1812 107.619 57.1191 107.904 55.5737L107.919 55.5078H106.396L106.381 55.5444C106.125 56.4014 105.509 56.8555 104.513 56.8555C103.202 56.8555 102.389 55.7861 102.389 54.0283V54.0137C102.389 52.2998 103.188 51.2451 104.513 51.2451C105.568 51.2451 106.212 51.8311 106.388 52.6147L106.396 52.6367L107.919 52.6294V52.5928C107.699 51.0474 106.505 49.9194 104.506 49.9194C102.184 49.9194 100.771 51.4941 100.771 54.0137V54.0283C100.771 56.5991 102.191 58.1812 104.513 58.1812ZM109.794 58.0273H111.383V46.9531H109.794V58.0273ZM114.577 48.6523C115.119 48.6523 115.573 48.2056 115.573 47.6636C115.573 47.1143 115.119 46.6675 114.577 46.6675C114.027 46.6675 113.581 47.1143 113.581 47.6636C113.581 48.2056 114.027 48.6523 114.577 48.6523ZM113.778 58.0273H115.36V50.0732H113.778V58.0273ZM121.015 58.1812C123.051 58.1812 124.149 57.0093 124.413 55.9619L124.428 55.896L122.897 55.9033L122.868 55.9619C122.677 56.3721 122.069 56.8774 121.051 56.8774C119.74 56.8774 118.905 55.9912 118.876 54.4678H124.516V53.9111C124.516 51.5234 123.153 49.9194 120.934 49.9194C118.715 49.9194 117.279 51.582 117.279 54.0649V54.0723C117.279 56.5918 118.686 58.1812 121.015 58.1812ZM120.941 51.2231C122.018 51.2231 122.816 51.9116 122.941 53.3325H118.898C119.037 51.9629 119.857 51.2231 120.941 51.2231ZM126.405 58.0273H127.995V53.3618C127.995 52.0801 128.72 51.2817 129.884 51.2817C131.049 51.2817 131.598 51.9336 131.598 53.252V58.0273H133.18V52.8784C133.18 50.9814 132.199 49.9194 130.419 49.9194C129.262 49.9194 128.5 50.4321 128.112 51.2817H127.995V50.0732H126.405V58.0273ZM138.402 58.0786C138.71 58.0786 139.003 58.042 139.259 57.998V56.731C139.04 56.7529 138.9 56.7603 138.659 56.7603C137.875 56.7603 137.553 56.4087 137.553 55.5518V51.3257H139.259V50.0732H137.553V48.0664H135.934V50.0732H134.689V51.3257H135.934V55.9326C135.934 57.4634 136.652 58.0786 138.402 58.0786ZM148.217 58.0786C148.524 58.0786 148.817 58.042 149.074 57.998V56.731C148.854 56.7529 148.715 56.7603 148.473 56.7603C147.689 56.7603 147.367 56.4087 147.367 55.5518V51.3257H149.074V50.0732H147.367V48.0664H145.749V50.0732H144.503V51.3257H145.749V55.9326C145.749 57.4634 146.466 58.0786 148.217 58.0786ZM154.208 58.1812C156.537 58.1812 157.965 56.6211 157.965 54.0576V54.043C157.965 51.4795 156.53 49.9194 154.208 49.9194C151.879 49.9194 150.443 51.4868 150.443 54.043V54.0576C150.443 56.6211 151.872 58.1812 154.208 58.1812ZM154.208 56.8555C152.838 56.8555 152.069 55.8228 152.069 54.0576V54.043C152.069 52.2778 152.838 51.2451 154.208 51.2451C155.57 51.2451 156.347 52.2778 156.347 54.043V54.0576C156.347 55.8154 155.57 56.8555 154.208 56.8555ZM159.862 58.0273H161.452V53.1421C161.452 52.1021 162.162 51.2817 163.122 51.2817C164.059 51.2817 164.652 51.853 164.652 52.7612V58.0273H166.234V52.9956C166.234 52.0361 166.901 51.2817 167.912 51.2817C168.952 51.2817 169.45 51.8237 169.45 52.9224V58.0273H171.032V52.5415C171.032 50.8862 170.094 49.9194 168.49 49.9194C167.384 49.9194 166.469 50.4834 166.066 51.3403H165.941C165.59 50.4834 164.821 49.9194 163.737 49.9194C162.697 49.9194 161.92 50.4248 161.569 51.2964H161.452V50.0732H159.862V58.0273ZM176.62 58.1812C178.949 58.1812 180.377 56.6211 180.377 54.0576V54.043C180.377 51.4795 178.942 49.9194 176.62 49.9194C174.291 49.9194 172.855 51.4868 172.855 54.043V54.0576C172.855 56.6211 174.284 58.1812 176.62 58.1812ZM176.62 56.8555C175.25 56.8555 174.481 55.8228 174.481 54.0576V54.043C174.481 52.2778 175.25 51.2451 176.62 51.2451C177.982 51.2451 178.759 52.2778 178.759 54.043V54.0576C178.759 55.8154 177.982 56.8555 176.62 56.8555ZM182.274 58.0273H183.864V53.2739C183.864 52.124 184.691 51.377 185.907 51.377C186.208 51.377 186.479 51.4136 186.764 51.4722V50.0073C186.603 49.9707 186.325 49.9341 186.068 49.9341C185.006 49.9341 184.267 50.4321 183.981 51.2744H183.864V50.0732H182.274V58.0273ZM188.397 58.0273H189.987V53.2739C189.987 52.124 190.814 51.377 192.03 51.377C192.331 51.377 192.602 51.4136 192.887 51.4722V50.0073C192.726 49.9707 192.448 49.9341 192.191 49.9341C191.129 49.9341 190.39 50.4321 190.104 51.2744H189.987V50.0732H188.397V58.0273ZM197.567 58.1812C199.896 58.1812 201.325 56.6211 201.325 54.0576V54.043C201.325 51.4795 199.889 49.9194 197.567 49.9194C195.238 49.9194 193.803 51.4868 193.803 54.043V54.0576C193.803 56.6211 195.231 58.1812 197.567 58.1812ZM197.567 56.8555C196.198 56.8555 195.429 55.8228 195.429 54.0576V54.043C195.429 52.2778 196.198 51.2451 197.567 51.2451C198.93 51.2451 199.706 52.2778 199.706 54.043V54.0576C199.706 55.8154 198.93 56.8555 197.567 56.8555ZM204.445 58.0273H206.063L207.704 52.0947H207.829L209.477 58.0273H211.11L213.3 50.0732H211.725L210.304 56.2109H210.18L208.539 50.0732H207.03L205.39 56.2109H205.272L203.844 50.0732H202.248L204.445 58.0273ZM222.748 58.2251C224.989 58.2251 226.579 56.9214 226.579 55.105V55.0903C226.579 53.6108 225.539 52.6733 223.986 52.5342V52.4976C225.275 52.2266 226.212 51.3477 226.212 50.0366V50.022C226.212 48.3887 224.835 47.2607 222.733 47.2607C220.668 47.2607 219.262 48.4399 219.101 50.2197L219.093 50.3003H220.631L220.639 50.2271C220.741 49.231 221.562 48.6084 222.733 48.6084C223.927 48.6084 224.616 49.209 224.616 50.2344V50.249C224.616 51.2305 223.795 51.9409 222.587 51.9409H221.349V53.2153H222.638C224.044 53.2153 224.909 53.8818 224.909 55.0757V55.0903C224.909 56.1304 224.037 56.8555 222.748 56.8555C221.437 56.8555 220.551 56.1816 220.448 55.2222L220.441 55.1489H218.874L218.881 55.2368C219.02 56.9873 220.492 58.2251 222.748 58.2251ZM228.666 60.6787H230.255V56.7676H230.373C230.797 57.6245 231.728 58.1592 232.819 58.1592C234.84 58.1592 236.115 56.5771 236.115 54.0576V54.043C236.115 51.5381 234.826 49.9341 232.819 49.9341C231.706 49.9341 230.834 50.4541 230.373 51.3257H230.255V50.0732H228.666V60.6787ZM232.372 56.8042C231.046 56.8042 230.226 55.7568 230.226 54.0576V54.043C230.226 52.3438 231.046 51.2964 232.372 51.2964C233.698 51.2964 234.496 52.3291 234.496 54.043V54.0576C234.496 55.7642 233.698 56.8042 232.372 56.8042ZM238.026 58.0273H239.616V53.1421C239.616 52.1021 240.326 51.2817 241.286 51.2817C242.223 51.2817 242.816 51.853 242.816 52.7612V58.0273H244.398V52.9956C244.398 52.0361 245.065 51.2817 246.076 51.2817C247.116 51.2817 247.614 51.8237 247.614 52.9224V58.0273H249.196V52.5415C249.196 50.8862 248.258 49.9194 246.654 49.9194C245.548 49.9194 244.633 50.4834 244.23 51.3403H244.105C243.754 50.4834 242.985 49.9194 241.901 49.9194C240.861 49.9194 240.084 50.4248 239.733 51.2964H239.616V50.0732H238.026V58.0273ZM256.974 58.0273L257.56 55.1489H259.772L259.186 58.0273H260.438L261.024 55.1489H262.899L263.134 53.9111H261.273L261.771 51.4575H263.581L263.815 50.2271H262.028L262.592 47.4585H261.332L260.768 50.2271H258.556L259.12 47.4585H257.868L257.311 50.2271H255.524L255.275 51.4575H257.055L256.564 53.9111H254.85L254.608 55.1489H256.308L255.722 58.0273H256.974ZM257.765 53.9478L258.278 51.4282H260.563L260.05 53.9478H257.765ZM266.73 58.0273H268.349L269.989 52.0947H270.114L271.762 58.0273H273.395L275.585 50.0732H274.01L272.589 56.2109H272.465L270.824 50.0732H269.315L267.675 56.2109H267.558L266.129 50.0732H264.533L266.73 58.0273ZM280.272 58.1812C282.602 58.1812 284.03 56.6211 284.03 54.0576V54.043C284.03 51.4795 282.594 49.9194 280.272 49.9194C277.943 49.9194 276.508 51.4868 276.508 54.043V54.0576C276.508 56.6211 277.936 58.1812 280.272 58.1812ZM280.272 56.8555C278.903 56.8555 278.134 55.8228 278.134 54.0576V54.043C278.134 52.2778 278.903 51.2451 280.272 51.2451C281.635 51.2451 282.411 52.2778 282.411 54.043V54.0576C282.411 55.8154 281.635 56.8555 280.272 56.8555ZM285.927 58.0273H287.516V53.2739C287.516 52.124 288.344 51.377 289.56 51.377C289.86 51.377 290.131 51.4136 290.417 51.4722V50.0073C290.255 49.9707 289.977 49.9341 289.721 49.9341C288.659 49.9341 287.919 50.4321 287.633 51.2744H287.516V50.0732H285.927V58.0273ZM292.006 58.0273H293.595V55.1343L294.276 54.4531L297.016 58.0273H298.949L295.412 53.4277L298.729 50.0732H296.869L293.712 53.4277H293.595V46.9531H292.006V58.0273Z" fill="#37404A"/>
<line x1="299.75" y1="42.0273" x2="299.75" y2="64.0273" stroke="#AF38F9" stroke-width="0.5"/>
<g style="mix-blend-mode:multiply">
<rect width="201" height="16" transform="translate(299.5 45.0273)" fill="white"/>
</g>
<path d="M508.5 59.9189C512.042 59.9189 514.975 56.98 514.975 53.4443C514.975 49.9023 512.036 46.9697 508.494 46.9697C504.958 46.9697 502.025 49.9023 502.025 53.4443C502.025 56.98 504.964 59.9189 508.5 59.9189ZM508.5 58.8398C505.504 58.8398 503.111 56.4404 503.111 53.4443C503.111 50.4482 505.498 48.0488 508.494 48.0488C511.49 48.0488 513.889 50.4482 513.896 53.4443C513.902 56.4404 511.496 58.8398 508.5 58.8398ZM508.367 54.7583C508.684 54.7583 508.881 54.5552 508.881 54.3076V54.2314C508.881 53.876 509.084 53.6475 509.528 53.3555C510.144 52.9492 510.582 52.5811 510.582 51.8193C510.582 50.7656 509.643 50.1943 508.563 50.1943C507.472 50.1943 506.754 50.7148 506.583 51.2988C506.551 51.4004 506.532 51.502 506.532 51.6099C506.532 51.8955 506.754 52.0479 506.964 52.0479C507.18 52.0479 507.319 51.9463 507.434 51.7939L507.548 51.6416C507.77 51.2734 508.1 51.0576 508.525 51.0576C509.103 51.0576 509.478 51.3877 509.478 51.8701C509.478 52.3018 509.211 52.5112 508.659 52.8984C508.202 53.2158 507.859 53.5522 507.859 54.1743V54.2568C507.859 54.5869 508.043 54.7583 508.367 54.7583ZM508.354 56.6499C508.722 56.6499 509.04 56.3579 509.04 55.9897C509.04 55.6216 508.729 55.3296 508.354 55.3296C507.979 55.3296 507.668 55.6279 507.668 55.9897C507.668 56.3516 507.986 56.6499 508.354 56.6499Z" fill="#B3C0C7"/>
<path d="M532.5 77.0273V78.0273H533.5V77.0273H532.5ZM16.5 77.0273H15.5V78.0273H16.5V77.0273ZM20.5 30.0273H528.5V28.0273H20.5V30.0273ZM531.5 33.0273V77.0273H533.5V33.0273H531.5ZM532.5 76.0273H16.5V78.0273H532.5V76.0273ZM17.5 77.0273V33.0273H15.5V77.0273H17.5ZM528.5 30.0273C530.157 30.0273 531.5 31.3705 531.5 33.0273H533.5C533.5 30.2659 531.261 28.0273 528.5 28.0273V30.0273ZM20.5 28.0273C17.7386 28.0273 15.5 30.2659 15.5 33.0273H17.5C17.5 31.3705 18.8431 30.0273 20.5 30.0273V28.0273Z" fill="#E4EDF3"/>
<rect x="24.5" y="85.0273" width="500" height="40" rx="4" fill="#F1F6F9"/>
<path d="M40.5 111.919C44.042 111.919 46.9746 108.98 46.9746 105.444C46.9746 101.902 44.0356 98.9697 40.4937 98.9697C36.958 98.9697 34.0254 101.902 34.0254 105.444C34.0254 108.98 36.9644 111.919 40.5 111.919ZM40.5 110.84C37.5039 110.84 35.1108 108.44 35.1108 105.444C35.1108 102.448 37.4976 100.049 40.4937 100.049C43.4897 100.049 45.8892 102.448 45.8955 105.444C45.9019 108.44 43.4961 110.84 40.5 110.84ZM40.4873 109.875C42.9565 109.875 44.9243 107.901 44.918 105.438C44.9116 102.981 42.9438 101.007 40.481 101.007C38.0181 101.007 36.063 102.975 36.063 105.438C36.063 107.907 38.0244 109.875 40.4873 109.875Z" fill="#445B6A"/>
<path d="M64.5 99.0273C64.5 97.3705 65.8431 96.0273 67.5 96.0273H162.5C164.157 96.0273 165.5 97.3705 165.5 99.0273V111.027C165.5 112.684 164.157 114.027 162.5 114.027H67.5C65.8431 114.027 64.5 112.684 64.5 111.027V99.0273Z" fill="#E4EDF3"/>
<path d="M75.0225 109.005C73.645 109.005 72.9277 108.072 72.9277 106.295V104.6C72.9277 102.823 73.645 101.89 75.0161 101.89C76.1143 101.89 76.876 102.689 76.9141 103.889H78.2471C78.2217 101.877 77.0093 100.677 75.0288 100.677C72.8452 100.677 71.5693 102.118 71.5693 104.6V106.295C71.5693 108.777 72.8452 110.218 75.0288 110.218C76.9585 110.218 78.2471 108.993 78.2471 107.139H76.9141C76.8887 108.294 76.165 109.005 75.0225 109.005ZM82.627 106.942C82.627 105.248 83.4966 104.276 85.0581 104.276C85.439 104.276 85.8896 104.359 86.2007 104.473V103.077C85.9722 102.981 85.5977 102.931 85.2041 102.931C83.8774 102.931 83.0713 103.572 82.7983 104.873H82.6206V103.108H79.8848V104.086H81.3892V109.05H80.0181V110.027H84.728V109.05H82.627V106.942ZM92.6499 108.199C92.4785 108.764 91.8628 109.113 91.0439 109.113C89.9521 109.113 89.2476 108.364 89.2476 107.196V106.885H93.8877V106.136C93.8877 104.168 92.7896 102.975 90.9805 102.975C89.1841 102.975 87.9971 104.175 87.9971 105.997V107.05C87.9971 109.018 89.1079 110.161 91.0503 110.161C92.542 110.161 93.6846 109.361 93.8687 108.199H92.6499ZM90.9678 104.016C92.0151 104.016 92.6372 104.759 92.6372 105.99H89.2476C89.2476 104.752 89.895 104.016 90.9678 104.016ZM98.1597 110.142C99.1372 110.142 99.8799 109.735 100.21 109.024H100.331V110.034H101.543V105.305C101.543 103.851 100.591 103.013 98.9214 103.013C97.436 103.013 96.3506 103.788 96.2236 104.93H97.4678C97.6328 104.384 98.1597 104.067 98.896 104.067C99.7847 104.067 100.28 104.511 100.28 105.305V105.914L98.4644 106.009C96.8521 106.104 95.9634 106.828 95.9634 108.06C95.9634 109.31 96.8394 110.142 98.1597 110.142ZM98.5532 109.082C97.7407 109.082 97.2329 108.669 97.2329 108.002C97.2329 107.33 97.7153 106.949 98.6357 106.898L100.28 106.815V107.545C100.28 108.428 99.5435 109.082 98.5532 109.082ZM105.707 101.217V103.146H103.879V104.194H105.707V107.933C105.707 109.418 106.481 110.053 108.252 110.053C108.519 110.053 109.522 110.027 109.662 110.002V108.961C109.509 108.98 108.665 108.993 108.341 108.993C107.459 108.993 106.983 108.618 106.983 107.933V104.194H109.7V103.146H106.964V101.217H105.707ZM116.758 108.199C116.587 108.764 115.971 109.113 115.152 109.113C114.061 109.113 113.356 108.364 113.356 107.196V106.885H117.996V106.136C117.996 104.168 116.898 102.975 115.089 102.975C113.292 102.975 112.105 104.175 112.105 105.997V107.05C112.105 109.018 113.216 110.161 115.159 110.161C116.65 110.161 117.793 109.361 117.977 108.199H116.758ZM115.076 104.016C116.124 104.016 116.746 104.759 116.746 105.99H113.356C113.356 104.752 114.003 104.016 115.076 104.016ZM131.732 110.027V102.042H134.456V100.868H127.689V102.042H130.412V110.027H131.732ZM138.34 110.142C139.318 110.142 140.061 109.735 140.391 109.024H140.511V110.034H141.724V105.305C141.724 103.851 140.771 103.013 139.102 103.013C137.617 103.013 136.531 103.788 136.404 104.93H137.648C137.813 104.384 138.34 104.067 139.077 104.067C139.965 104.067 140.46 104.511 140.46 105.305V105.914L138.645 106.009C137.033 106.104 136.144 106.828 136.144 108.06C136.144 109.31 137.02 110.142 138.34 110.142ZM138.734 109.082C137.921 109.082 137.414 108.669 137.414 108.002C137.414 107.33 137.896 106.949 138.816 106.898L140.46 106.815V107.545C140.46 108.428 139.724 109.082 138.734 109.082ZM144.542 105.019C144.542 106.028 145.17 106.663 146.434 106.949L147.468 107.184C148.306 107.374 148.617 107.634 148.617 108.142C148.617 108.745 148.059 109.132 147.189 109.132C146.351 109.132 145.78 108.796 145.64 108.206H144.358C144.472 109.424 145.526 110.154 147.157 110.154C148.846 110.154 149.931 109.316 149.931 108.002C149.931 106.987 149.315 106.403 147.951 106.098L146.948 105.876C146.142 105.698 145.805 105.425 145.805 104.93C145.805 104.359 146.332 103.978 147.145 103.978C147.906 103.978 148.446 104.327 148.56 104.892H149.779C149.665 103.692 148.674 102.969 147.164 102.969C145.577 102.969 144.542 103.781 144.542 105.019ZM154.108 106.124H154.013V100.411H152.743V110.027H154.013V107.571L154.882 106.72L157.136 110.027H158.634L155.803 105.889L158.45 103.108H156.939L154.108 106.124Z" fill="#445B6A"/>
<path d="M185.982 109.727C187.781 109.727 189.117 108.725 189.398 107.178V107.166H188.332L188.32 107.178C188.057 108.15 187.16 108.754 185.982 108.754C184.354 108.754 183.334 107.424 183.334 105.309V105.297C183.334 103.182 184.354 101.846 185.977 101.846C187.143 101.846 188.045 102.531 188.326 103.615L188.332 103.627H189.393L189.398 103.615C189.146 101.992 187.758 100.873 185.977 100.873C183.68 100.873 182.25 102.572 182.25 105.297V105.309C182.25 108.027 183.686 109.727 185.982 109.727ZM192.773 109.639C193.623 109.639 194.285 109.27 194.684 108.596H194.777V109.527H195.797V105.203C195.797 103.891 194.936 103.1 193.395 103.1C192.047 103.1 191.086 103.768 190.922 104.758L190.916 104.793H191.936L191.941 104.775C192.105 104.283 192.604 104.002 193.359 104.002C194.303 104.002 194.777 104.424 194.777 105.203V105.777L192.967 105.889C191.496 105.977 190.664 106.627 190.664 107.752V107.764C190.664 108.912 191.572 109.639 192.773 109.639ZM191.707 107.74V107.729C191.707 107.102 192.129 106.762 193.09 106.703L194.777 106.598V107.172C194.777 108.074 194.021 108.754 192.984 108.754C192.252 108.754 191.707 108.379 191.707 107.74ZM197.719 109.527H198.738V100.703H197.719V109.527ZM200.754 109.527H201.773V100.703H200.754V109.527ZM210.639 109.727C212.438 109.727 213.773 108.725 214.055 107.178V107.166H212.988L212.977 107.178C212.713 108.15 211.816 108.754 210.639 108.754C209.01 108.754 207.99 107.424 207.99 105.309V105.297C207.99 103.182 209.01 101.846 210.633 101.846C211.799 101.846 212.701 102.531 212.982 103.615L212.988 103.627H214.049L214.055 103.615C213.803 101.992 212.414 100.873 210.633 100.873C208.336 100.873 206.906 102.572 206.906 105.297V105.309C206.906 108.027 208.342 109.727 210.639 109.727ZM215.754 109.527H216.773V100.703H215.754V109.527ZM219.27 101.992C219.656 101.992 219.973 101.676 219.973 101.289C219.973 100.902 219.656 100.586 219.27 100.586C218.883 100.586 218.566 100.902 218.566 101.289C218.566 101.676 218.883 101.992 219.27 101.992ZM218.754 109.527H219.773V103.211H218.754V109.527ZM224.273 109.639C225.762 109.639 226.664 108.795 226.881 107.939L226.893 107.893H225.873L225.85 107.945C225.68 108.326 225.152 108.73 224.297 108.73C223.172 108.73 222.451 107.969 222.422 106.662H226.969V106.264C226.969 104.377 225.926 103.1 224.209 103.1C222.492 103.1 221.379 104.436 221.379 106.387V106.393C221.379 108.373 222.469 109.639 224.273 109.639ZM224.203 104.008C225.135 104.008 225.826 104.6 225.932 105.848H222.439C222.551 104.646 223.266 104.008 224.203 104.008ZM228.551 109.527H229.57V105.789C229.57 104.682 230.209 104.002 231.217 104.002C232.225 104.002 232.693 104.547 232.693 105.684V109.527H233.713V105.438C233.713 103.938 232.922 103.1 231.504 103.1C230.572 103.1 229.98 103.492 229.664 104.16H229.57V103.211H228.551V109.527ZM237.803 109.574C238.002 109.574 238.195 109.551 238.395 109.516V108.648C238.207 108.666 238.107 108.672 237.926 108.672C237.27 108.672 237.012 108.373 237.012 107.629V104.055H238.395V103.211H237.012V101.576H235.957V103.211H234.961V104.055H235.957V107.887C235.957 109.094 236.502 109.574 237.803 109.574ZM334.359 109.639C335.209 109.639 335.871 109.27 336.27 108.596H336.363V109.527H337.383V105.203C337.383 103.891 336.521 103.1 334.98 103.1C333.633 103.1 332.672 103.768 332.508 104.758L332.502 104.793H333.521L333.527 104.775C333.691 104.283 334.189 104.002 334.945 104.002C335.889 104.002 336.363 104.424 336.363 105.203V105.777L334.553 105.889C333.082 105.977 332.25 106.627 332.25 107.752V107.764C332.25 108.912 333.158 109.639 334.359 109.639ZM333.293 107.74V107.729C333.293 107.102 333.715 106.762 334.676 106.703L336.363 106.598V107.172C336.363 108.074 335.607 108.754 334.57 108.754C333.838 108.754 333.293 108.379 333.293 107.74ZM341.49 109.574C341.689 109.574 341.883 109.551 342.082 109.516V108.648C341.895 108.666 341.795 108.672 341.613 108.672C340.957 108.672 340.699 108.373 340.699 107.629V104.055H342.082V103.211H340.699V101.576H339.645V103.211H338.648V104.055H339.645V107.887C339.645 109.094 340.189 109.574 341.49 109.574Z" fill="#A0AEB8"/>
<path d="M252.51 110.775H260.572C261.838 110.775 262.494 110.119 262.494 108.871V101.74C262.494 100.486 261.838 99.8359 260.572 99.8359H252.51C251.244 99.8359 250.588 100.486 250.588 101.74V108.871C250.588 110.125 251.244 110.775 252.51 110.775ZM252.492 109.627C252.006 109.627 251.736 109.369 251.736 108.859V103.445C251.736 102.93 252.006 102.678 252.492 102.678H260.578C261.07 102.678 261.346 102.93 261.346 103.445V108.859C261.346 109.369 261.07 109.627 260.578 109.627H252.492ZM255.41 104.711H255.756C255.967 104.711 256.037 104.646 256.037 104.436V104.096C256.037 103.885 255.967 103.82 255.756 103.82H255.41C255.205 103.82 255.135 103.885 255.135 104.096V104.436C255.135 104.646 255.205 104.711 255.41 104.711ZM257.332 104.711H257.672C257.883 104.711 257.953 104.646 257.953 104.436V104.096C257.953 103.885 257.883 103.82 257.672 103.82H257.332C257.121 103.82 257.051 103.885 257.051 104.096V104.436C257.051 104.646 257.121 104.711 257.332 104.711ZM259.248 104.711H259.588C259.799 104.711 259.869 104.646 259.869 104.436V104.096C259.869 103.885 259.799 103.82 259.588 103.82H259.248C259.037 103.82 258.967 103.885 258.967 104.096V104.436C258.967 104.646 259.037 104.711 259.248 104.711ZM253.494 106.598H253.84C254.051 106.598 254.121 106.533 254.121 106.322V105.982C254.121 105.771 254.051 105.707 253.84 105.707H253.494C253.289 105.707 253.219 105.771 253.219 105.982V106.322C253.219 106.533 253.289 106.598 253.494 106.598ZM255.41 106.598H255.756C255.967 106.598 256.037 106.533 256.037 106.322V105.982C256.037 105.771 255.967 105.707 255.756 105.707H255.41C255.205 105.707 255.135 105.771 255.135 105.982V106.322C255.135 106.533 255.205 106.598 255.41 106.598ZM257.332 106.598H257.672C257.883 106.598 257.953 106.533 257.953 106.322V105.982C257.953 105.771 257.883 105.707 257.672 105.707H257.332C257.121 105.707 257.051 105.771 257.051 105.982V106.322C257.051 106.533 257.121 106.598 257.332 106.598ZM259.248 106.598H259.588C259.799 106.598 259.869 106.533 259.869 106.322V105.982C259.869 105.771 259.799 105.707 259.588 105.707H259.248C259.037 105.707 258.967 105.771 258.967 105.982V106.322C258.967 106.533 259.037 106.598 259.248 106.598ZM253.494 108.484H253.84C254.051 108.484 254.121 108.42 254.121 108.209V107.869C254.121 107.658 254.051 107.594 253.84 107.594H253.494C253.289 107.594 253.219 107.658 253.219 107.869V108.209C253.219 108.42 253.289 108.484 253.494 108.484ZM255.41 108.484H255.756C255.967 108.484 256.037 108.42 256.037 108.209V107.869C256.037 107.658 255.967 107.594 255.756 107.594H255.41C255.205 107.594 255.135 107.658 255.135 107.869V108.209C255.135 108.42 255.205 108.484 255.41 108.484ZM257.332 108.484H257.672C257.883 108.484 257.953 108.42 257.953 108.209V107.869C257.953 107.658 257.883 107.594 257.672 107.594H257.332C257.121 107.594 257.051 107.658 257.051 107.869V108.209C257.051 108.42 257.121 108.484 257.332 108.484ZM270.475 109.527H271.787V102.203H274.441V101.072H267.814V102.203H270.475V109.527ZM277.453 109.65C279.316 109.65 280.459 108.402 280.459 106.352V106.34C280.459 104.289 279.311 103.041 277.453 103.041C275.59 103.041 274.441 104.295 274.441 106.34V106.352C274.441 108.402 275.584 109.65 277.453 109.65ZM277.453 108.59C276.357 108.59 275.742 107.764 275.742 106.352V106.34C275.742 104.928 276.357 104.102 277.453 104.102C278.543 104.102 279.164 104.928 279.164 106.34V106.352C279.164 107.758 278.543 108.59 277.453 108.59ZM281.977 109.527H283.248V105.619C283.248 104.787 283.816 104.131 284.584 104.131C285.334 104.131 285.809 104.588 285.809 105.314V109.527H287.074V105.502C287.074 104.734 287.607 104.131 288.416 104.131C289.248 104.131 289.646 104.564 289.646 105.443V109.527H290.912V105.139C290.912 103.814 290.162 103.041 288.879 103.041C287.994 103.041 287.262 103.492 286.939 104.178H286.84C286.559 103.492 285.943 103.041 285.076 103.041C284.244 103.041 283.623 103.445 283.342 104.143H283.248V103.164H281.977V109.527ZM295.383 109.65C297.246 109.65 298.389 108.402 298.389 106.352V106.34C298.389 104.289 297.24 103.041 295.383 103.041C293.52 103.041 292.371 104.295 292.371 106.34V106.352C292.371 108.402 293.514 109.65 295.383 109.65ZM295.383 108.59C294.287 108.59 293.672 107.764 293.672 106.352V106.34C293.672 104.928 294.287 104.102 295.383 104.102C296.473 104.102 297.094 104.928 297.094 106.34V106.352C297.094 107.758 296.473 108.59 295.383 108.59ZM299.906 109.527H301.178V105.725C301.178 104.805 301.84 104.207 302.812 104.207C303.053 104.207 303.27 104.236 303.498 104.283V103.111C303.369 103.082 303.146 103.053 302.941 103.053C302.092 103.053 301.5 103.451 301.271 104.125H301.178V103.164H299.906V109.527ZM304.805 109.527H306.076V105.725C306.076 104.805 306.738 104.207 307.711 104.207C307.951 104.207 308.168 104.236 308.396 104.283V103.111C308.268 103.082 308.045 103.053 307.84 103.053C306.99 103.053 306.398 103.451 306.17 104.125H306.076V103.164H304.805V109.527ZM312.141 109.65C314.004 109.65 315.146 108.402 315.146 106.352V106.34C315.146 104.289 313.998 103.041 312.141 103.041C310.277 103.041 309.129 104.295 309.129 106.34V106.352C309.129 108.402 310.271 109.65 312.141 109.65ZM312.141 108.59C311.045 108.59 310.43 107.764 310.43 106.352V106.34C310.43 104.928 311.045 104.102 312.141 104.102C313.23 104.102 313.852 104.928 313.852 106.34V106.352C313.852 107.758 313.23 108.59 312.141 108.59ZM317.643 109.527H318.938L320.25 104.781H320.35L321.668 109.527H322.975L324.727 103.164H323.467L322.33 108.074H322.23L320.918 103.164H319.711L318.398 108.074H318.305L317.162 103.164H315.885L317.643 109.527ZM348.92 109.527H350.232V101.072H348.92L346.693 102.654V103.943L348.82 102.426H348.92V109.527ZM355.559 109.732C357.34 109.732 358.594 108.537 358.594 106.803V106.791C358.594 105.168 357.457 103.984 355.869 103.984C355.09 103.984 354.428 104.312 354.07 104.881H353.971L354.229 102.186H358.113V101.072H353.197L352.775 105.982H353.906C354.006 105.789 354.141 105.625 354.293 105.49C354.627 105.186 355.066 105.033 355.582 105.033C356.602 105.033 357.34 105.771 357.34 106.814V106.826C357.34 107.887 356.613 108.631 355.57 108.631C354.645 108.631 353.971 108.039 353.859 107.295L353.854 107.248H352.623L352.629 107.324C352.746 108.695 353.895 109.732 355.559 109.732ZM361.225 103.938C361.711 103.938 362.08 103.557 362.08 103.082C362.08 102.602 361.711 102.227 361.225 102.227C360.738 102.227 360.363 102.602 360.363 103.082C360.363 103.557 360.738 103.938 361.225 103.938ZM361.225 108.367C361.711 108.367 362.08 107.986 362.08 107.512C362.08 107.031 361.711 106.656 361.225 106.656C360.738 106.656 360.363 107.031 360.363 107.512C360.363 107.986 360.738 108.367 361.225 108.367ZM366.979 109.732C368.924 109.732 370.102 108.027 370.102 105.303V105.291C370.102 102.566 368.924 100.867 366.979 100.867C365.027 100.867 363.855 102.566 363.855 105.291V105.303C363.855 108.027 365.027 109.732 366.979 109.732ZM366.979 108.643C365.842 108.643 365.18 107.371 365.18 105.303V105.291C365.18 103.223 365.842 101.963 366.979 101.963C368.109 101.963 368.777 103.223 368.777 105.291V105.303C368.777 107.371 368.109 108.643 366.979 108.643ZM374.771 109.732C376.717 109.732 377.895 108.027 377.895 105.303V105.291C377.895 102.566 376.717 100.867 374.771 100.867C372.82 100.867 371.648 102.566 371.648 105.291V105.303C371.648 108.027 372.82 109.732 374.771 109.732ZM374.771 108.643C373.635 108.643 372.973 107.371 372.973 105.303V105.291C372.973 103.223 373.635 101.963 374.771 101.963C375.902 101.963 376.57 103.223 376.57 105.291V105.303C376.57 107.371 375.902 108.643 374.771 108.643Z" fill="#445B6A"/>
<rect x="387.5" y="97.0273" width="48" height="16" rx="2" fill="white"/>
<rect x="387.5" y="97.0273" width="48" height="16" rx="2" fill="#FB8822" fill-opacity="0.2"/>
<path d="M393.408 110.027L393.955 107.341H396.02L395.473 110.027H396.642L397.188 107.341H398.938L399.157 106.186H397.421L397.886 103.896H399.574L399.793 102.747H398.125L398.651 100.163H397.476L396.949 102.747H394.885L395.411 100.163H394.242L393.723 102.747H392.055L391.822 103.896H393.483L393.025 106.186H391.426L391.2 107.341H392.786L392.239 110.027H393.408ZM394.146 106.22L394.625 103.868H396.758L396.279 106.22H394.146Z" fill="#FB8822"/>
<path d="M405.668 109.527H406.688L408.094 104.641H408.188L409.6 109.527H410.625L412.395 103.211H411.381L410.139 108.262H410.045L408.633 103.211H407.666L406.254 108.262H406.16L404.918 103.211H403.898L405.668 109.527ZM416.104 109.639C417.902 109.639 419.016 108.396 419.016 106.375V106.363C419.016 104.336 417.902 103.1 416.104 103.1C414.305 103.1 413.191 104.336 413.191 106.363V106.375C413.191 108.396 414.305 109.639 416.104 109.639ZM416.104 108.736C414.908 108.736 414.234 107.863 414.234 106.375V106.363C414.234 104.869 414.908 104.002 416.104 104.002C417.299 104.002 417.973 104.869 417.973 106.363V106.375C417.973 107.863 417.299 108.736 416.104 108.736ZM420.598 109.527H421.617V105.613C421.617 104.688 422.309 104.072 423.281 104.072C423.504 104.072 423.697 104.096 423.908 104.131V103.141C423.809 103.123 423.592 103.1 423.398 103.1C422.543 103.1 421.951 103.486 421.711 104.148H421.617V103.211H420.598V109.527ZM425.227 109.527H426.246V107.131L426.838 106.557L429.205 109.527H430.488L427.553 105.865L430.307 103.211H429.07L426.34 105.971H426.246V100.703H425.227V109.527Z" fill="#445B6A"/>
<g style="mix-blend-mode:multiply">
<rect width="33" height="16" transform="translate(451.5 97.0273)" fill="white"/>
</g>
<path d="M500.5 100.027C500.5 98.3705 501.843 97.0273 503.5 97.0273H513.5C515.157 97.0273 516.5 98.3705 516.5 100.027V110.027C516.5 111.684 515.157 113.027 513.5 113.027H503.5C501.843 113.027 500.5 111.684 500.5 110.027V100.027Z" fill="#445B6A"/>
<path d="M506.314 109.895C506.631 109.895 506.836 109.684 506.836 109.379C506.836 109.227 506.783 109.115 506.695 109.021L505.002 107.375L503.895 106.426L505.266 106.484H512.748C514.113 106.484 514.682 105.857 514.682 104.533V101.07C514.682 99.7051 514.113 99.1367 512.748 99.1367H509.467C509.145 99.1367 508.934 99.3711 508.934 99.6582C508.934 99.9453 509.145 100.18 509.467 100.18H512.748C513.369 100.18 513.633 100.449 513.633 101.07V104.533C513.633 105.172 513.369 105.441 512.748 105.441H505.266L503.895 105.5L505.002 104.551L506.695 102.904C506.783 102.811 506.836 102.693 506.836 102.541C506.836 102.242 506.631 102.025 506.314 102.025C506.191 102.025 506.039 102.09 505.939 102.189L502.494 105.57C502.377 105.682 502.318 105.816 502.318 105.963C502.318 106.104 502.377 106.244 502.494 106.355L505.939 109.736C506.039 109.836 506.191 109.895 506.314 109.895Z" fill="white"/>
<path d="M24.5 129.027C24.5 126.818 26.2909 125.027 28.5 125.027H520.5C522.709 125.027 524.5 126.818 524.5 129.027V161.027C524.5 163.236 522.709 165.027 520.5 165.027H28.5C26.2909 165.027 24.5 163.236 24.5 161.027V129.027Z" fill="#FAFBFD"/>
<path d="M36.1646 151.297H44.8354C46.1621 151.297 46.8223 150.637 46.8223 149.329V141.579C46.8223 140.271 46.1621 139.611 44.8354 139.611H36.1646C34.8379 139.611 34.1714 140.265 34.1714 141.579V149.329C34.1714 150.643 34.8379 151.297 36.1646 151.297ZM36.0693 150.275C35.5044 150.275 35.1934 149.977 35.1934 149.386V143.4C35.1934 142.816 35.5044 142.512 36.0693 142.512H44.918C45.4829 142.512 45.8003 142.816 45.8003 143.4V149.386C45.8003 149.977 45.4829 150.275 44.918 150.275H36.0693ZM39.2622 144.791H39.6367C39.8589 144.791 39.9287 144.727 39.9287 144.505V144.13C39.9287 143.908 39.8589 143.838 39.6367 143.838H39.2622C39.04 143.838 38.9639 143.908 38.9639 144.13V144.505C38.9639 144.727 39.04 144.791 39.2622 144.791ZM41.3696 144.791H41.7441C41.9663 144.791 42.0425 144.727 42.0425 144.505V144.13C42.0425 143.908 41.9663 143.838 41.7441 143.838H41.3696C41.1475 143.838 41.0713 143.908 41.0713 144.13V144.505C41.0713 144.727 41.1475 144.791 41.3696 144.791ZM43.4771 144.791H43.8516C44.0737 144.791 44.1499 144.727 44.1499 144.505V144.13C44.1499 143.908 44.0737 143.838 43.8516 143.838H43.4771C43.2549 143.838 43.1851 143.908 43.1851 144.13V144.505C43.1851 144.727 43.2549 144.791 43.4771 144.791ZM37.1548 146.866H37.5229C37.7515 146.866 37.8213 146.803 37.8213 146.581V146.206C37.8213 145.984 37.7515 145.92 37.5229 145.92H37.1548C36.9263 145.92 36.8564 145.984 36.8564 146.206V146.581C36.8564 146.803 36.9263 146.866 37.1548 146.866ZM39.2622 146.866H39.6367C39.8589 146.866 39.9287 146.803 39.9287 146.581V146.206C39.9287 145.984 39.8589 145.92 39.6367 145.92H39.2622C39.04 145.92 38.9639 145.984 38.9639 146.206V146.581C38.9639 146.803 39.04 146.866 39.2622 146.866ZM41.3696 146.866H41.7441C41.9663 146.866 42.0425 146.803 42.0425 146.581V146.206C42.0425 145.984 41.9663 145.92 41.7441 145.92H41.3696C41.1475 145.92 41.0713 145.984 41.0713 146.206V146.581C41.0713 146.803 41.1475 146.866 41.3696 146.866ZM43.4771 146.866H43.8516C44.0737 146.866 44.1499 146.803 44.1499 146.581V146.206C44.1499 145.984 44.0737 145.92 43.8516 145.92H43.4771C43.2549 145.92 43.1851 145.984 43.1851 146.206V146.581C43.1851 146.803 43.2549 146.866 43.4771 146.866ZM37.1548 148.948H37.5229C37.7515 148.948 37.8213 148.878 37.8213 148.656V148.282C37.8213 148.06 37.7515 147.996 37.5229 147.996H37.1548C36.9263 147.996 36.8564 148.06 36.8564 148.282V148.656C36.8564 148.878 36.9263 148.948 37.1548 148.948ZM39.2622 148.948H39.6367C39.8589 148.948 39.9287 148.878 39.9287 148.656V148.282C39.9287 148.06 39.8589 147.996 39.6367 147.996H39.2622C39.04 147.996 38.9639 148.06 38.9639 148.282V148.656C38.9639 148.878 39.04 148.948 39.2622 148.948ZM41.3696 148.948H41.7441C41.9663 148.948 42.0425 148.878 42.0425 148.656V148.282C42.0425 148.06 41.9663 147.996 41.7441 147.996H41.3696C41.1475 147.996 41.0713 148.06 41.0713 148.282V148.656C41.0713 148.878 41.1475 148.948 41.3696 148.948Z" fill="#445B6A"/>
<path d="M64.5 139.027C64.5 137.37 65.8431 136.027 67.5 136.027H170.5C172.157 136.027 173.5 137.37 173.5 139.027V151.027C173.5 152.684 172.157 154.027 170.5 154.027H67.5C65.8431 154.027 64.5 152.684 64.5 151.027V139.027Z" fill="#E4EDF3"/>
<path d="M75.0044 149.005C73.627 149.005 72.9097 148.072 72.9097 146.295V144.6C72.9097 142.823 73.627 141.89 74.998 141.89C76.0962 141.89 76.8579 142.689 76.896 143.889H78.229C78.2036 141.877 76.9912 140.677 75.0107 140.677C72.8271 140.677 71.5513 142.118 71.5513 144.6V146.295C71.5513 148.777 72.8271 150.218 75.0107 150.218C76.9404 150.218 78.229 148.993 78.229 147.139H76.896C76.8706 148.294 76.147 149.005 75.0044 149.005ZM82.6089 146.942C82.6089 145.248 83.4785 144.276 85.04 144.276C85.4209 144.276 85.8716 144.359 86.1826 144.473V143.077C85.9541 142.981 85.5796 142.931 85.186 142.931C83.8594 142.931 83.0532 143.572 82.7803 144.873H82.6025V143.108H79.8667V144.086H81.3711V149.05H80V150.027H84.71V149.05H82.6089V146.942ZM92.6318 148.199C92.4604 148.764 91.8447 149.113 91.0259 149.113C89.9341 149.113 89.2295 148.364 89.2295 147.196V146.885H93.8696V146.136C93.8696 144.168 92.7715 142.975 90.9624 142.975C89.166 142.975 87.979 144.175 87.979 145.997V147.05C87.979 149.018 89.0898 150.161 91.0322 150.161C92.5239 150.161 93.6665 149.361 93.8506 148.199H92.6318ZM90.9497 144.016C91.9971 144.016 92.6191 144.759 92.6191 145.99H89.2295C89.2295 144.752 89.877 144.016 90.9497 144.016ZM98.1416 150.142C99.1191 150.142 99.8618 149.735 100.192 149.024H100.312V150.034H101.525V145.305C101.525 143.851 100.573 143.013 98.9033 143.013C97.418 143.013 96.3325 143.788 96.2056 144.93H97.4497C97.6147 144.384 98.1416 144.067 98.8779 144.067C99.7666 144.067 100.262 144.511 100.262 145.305V145.914L98.4463 146.009C96.834 146.104 95.9453 146.828 95.9453 148.06C95.9453 149.31 96.8213 150.142 98.1416 150.142ZM98.5352 149.082C97.7227 149.082 97.2148 148.669 97.2148 148.002C97.2148 147.33 97.6973 146.949 98.6177 146.898L100.262 146.815V147.545C100.262 148.428 99.5254 149.082 98.5352 149.082ZM105.689 141.217V143.146H103.861V144.194H105.689V147.933C105.689 149.418 106.463 150.053 108.234 150.053C108.501 150.053 109.504 150.027 109.644 150.002V148.961C109.491 148.98 108.647 148.993 108.323 148.993C107.441 148.993 106.965 148.618 106.965 147.933V144.194H109.682V143.146H106.946V141.217H105.689ZM116.74 148.199C116.569 148.764 115.953 149.113 115.134 149.113C114.042 149.113 113.338 148.364 113.338 147.196V146.885H117.978V146.136C117.978 144.168 116.88 142.975 115.071 142.975C113.274 142.975 112.087 144.175 112.087 145.997V147.05C112.087 149.018 113.198 150.161 115.141 150.161C116.632 150.161 117.775 149.361 117.959 148.199H116.74ZM115.058 144.016C116.105 144.016 116.728 144.759 116.728 145.99H113.338C113.338 144.752 113.985 144.016 115.058 144.016ZM133.949 148.853H129.766V145.92H133.714V144.816H129.766V142.042H133.949V140.868H128.439V150.027H133.949V148.853ZM135.885 143.108L138.386 150.027H139.801L142.296 143.108H140.944L139.147 148.726H139.059L137.25 143.108H135.885ZM148.885 148.199C148.713 148.764 148.098 149.113 147.279 149.113C146.187 149.113 145.482 148.364 145.482 147.196V146.885H150.123V146.136C150.123 144.168 149.024 142.975 147.215 142.975C145.419 142.975 144.232 144.175 144.232 145.997V147.05C144.232 149.018 145.343 150.161 147.285 150.161C148.777 150.161 149.919 149.361 150.104 148.199H148.885ZM147.203 144.016C148.25 144.016 148.872 144.759 148.872 145.99H145.482C145.482 144.752 146.13 144.016 147.203 144.016ZM152.255 150.027H153.525V145.971C153.525 144.854 154.236 144.111 155.296 144.111C156.318 144.111 156.794 144.67 156.794 145.857V150.027H158.07V145.54C158.07 143.876 157.257 142.975 155.753 142.975C154.718 142.975 153.938 143.458 153.576 144.314H153.487V143.108H152.255V150.027ZM161.942 141.217V143.146H160.114V144.194H161.942V147.933C161.942 149.418 162.716 150.053 164.487 150.053C164.754 150.053 165.757 150.027 165.896 150.002V148.961C165.744 148.98 164.9 148.993 164.576 148.993C163.694 148.993 163.218 148.618 163.218 147.933V144.194H165.935V143.146H163.199V141.217H161.942Z" fill="#445B6A"/>
<path d="M193.982 149.727C195.781 149.727 197.117 148.725 197.398 147.178V147.166H196.332L196.32 147.178C196.057 148.15 195.16 148.754 193.982 148.754C192.354 148.754 191.334 147.424 191.334 145.309V145.297C191.334 143.182 192.354 141.846 193.977 141.846C195.143 141.846 196.045 142.531 196.326 143.615L196.332 143.627H197.393L197.398 143.615C197.146 141.992 195.758 140.873 193.977 140.873C191.68 140.873 190.25 142.572 190.25 145.297V145.309C190.25 148.027 191.686 149.727 193.982 149.727ZM200.773 149.639C201.623 149.639 202.285 149.27 202.684 148.596H202.777V149.527H203.797V145.203C203.797 143.891 202.936 143.1 201.395 143.1C200.047 143.1 199.086 143.768 198.922 144.758L198.916 144.793H199.936L199.941 144.775C200.105 144.283 200.604 144.002 201.359 144.002C202.303 144.002 202.777 144.424 202.777 145.203V145.777L200.967 145.889C199.496 145.977 198.664 146.627 198.664 147.752V147.764C198.664 148.912 199.572 149.639 200.773 149.639ZM199.707 147.74V147.729C199.707 147.102 200.129 146.762 201.09 146.703L202.777 146.598V147.172C202.777 148.074 202.021 148.754 200.984 148.754C200.252 148.754 199.707 148.379 199.707 147.74ZM205.719 149.527H206.738V140.703H205.719V149.527ZM208.754 149.527H209.773V140.703H208.754V149.527ZM218.639 149.727C220.438 149.727 221.773 148.725 222.055 147.178V147.166H220.988L220.977 147.178C220.713 148.15 219.816 148.754 218.639 148.754C217.01 148.754 215.99 147.424 215.99 145.309V145.297C215.99 143.182 217.01 141.846 218.633 141.846C219.799 141.846 220.701 142.531 220.982 143.615L220.988 143.627H222.049L222.055 143.615C221.803 141.992 220.414 140.873 218.633 140.873C216.336 140.873 214.906 142.572 214.906 145.297V145.309C214.906 148.027 216.342 149.727 218.639 149.727ZM223.754 149.527H224.773V140.703H223.754V149.527ZM227.27 141.992C227.656 141.992 227.973 141.676 227.973 141.289C227.973 140.902 227.656 140.586 227.27 140.586C226.883 140.586 226.566 140.902 226.566 141.289C226.566 141.676 226.883 141.992 227.27 141.992ZM226.754 149.527H227.773V143.211H226.754V149.527ZM232.273 149.639C233.762 149.639 234.664 148.795 234.881 147.939L234.893 147.893H233.873L233.85 147.945C233.68 148.326 233.152 148.73 232.297 148.73C231.172 148.73 230.451 147.969 230.422 146.662H234.969V146.264C234.969 144.377 233.926 143.1 232.209 143.1C230.492 143.1 229.379 144.436 229.379 146.387V146.393C229.379 148.373 230.469 149.639 232.273 149.639ZM232.203 144.008C233.135 144.008 233.826 144.6 233.932 145.848H230.439C230.551 144.646 231.266 144.008 232.203 144.008ZM236.551 149.527H237.57V145.789C237.57 144.682 238.209 144.002 239.217 144.002C240.225 144.002 240.693 144.547 240.693 145.684V149.527H241.713V145.438C241.713 143.938 240.922 143.1 239.504 143.1C238.572 143.1 237.98 143.492 237.664 144.16H237.57V143.211H236.551V149.527ZM245.803 149.574C246.002 149.574 246.195 149.551 246.395 149.516V148.648C246.207 148.666 246.107 148.672 245.926 148.672C245.27 148.672 245.012 148.373 245.012 147.629V144.055H246.395V143.211H245.012V141.576H243.957V143.211H242.961V144.055H243.957V147.887C243.957 149.094 244.502 149.574 245.803 149.574ZM342.359 149.639C343.209 149.639 343.871 149.27 344.27 148.596H344.363V149.527H345.383V145.203C345.383 143.891 344.521 143.1 342.98 143.1C341.633 143.1 340.672 143.768 340.508 144.758L340.502 144.793H341.521L341.527 144.775C341.691 144.283 342.189 144.002 342.945 144.002C343.889 144.002 344.363 144.424 344.363 145.203V145.777L342.553 145.889C341.082 145.977 340.25 146.627 340.25 147.752V147.764C340.25 148.912 341.158 149.639 342.359 149.639ZM341.293 147.74V147.729C341.293 147.102 341.715 146.762 342.676 146.703L344.363 146.598V147.172C344.363 148.074 343.607 148.754 342.57 148.754C341.838 148.754 341.293 148.379 341.293 147.74ZM349.49 149.574C349.689 149.574 349.883 149.551 350.082 149.516V148.648C349.895 148.666 349.795 148.672 349.613 148.672C348.957 148.672 348.699 148.373 348.699 147.629V144.055H350.082V143.211H348.699V141.576H347.645V143.211H346.648V144.055H347.645V147.887C347.645 149.094 348.189 149.574 349.49 149.574Z" fill="#A0AEB8"/>
<path d="M260.51 150.775H268.572C269.838 150.775 270.494 150.119 270.494 148.871V141.74C270.494 140.486 269.838 139.836 268.572 139.836H260.51C259.244 139.836 258.588 140.486 258.588 141.74V148.871C258.588 150.125 259.244 150.775 260.51 150.775ZM260.492 149.627C260.006 149.627 259.736 149.369 259.736 148.859V143.445C259.736 142.93 260.006 142.678 260.492 142.678H268.578C269.07 142.678 269.346 142.93 269.346 143.445V148.859C269.346 149.369 269.07 149.627 268.578 149.627H260.492ZM263.41 144.711H263.756C263.967 144.711 264.037 144.646 264.037 144.436V144.096C264.037 143.885 263.967 143.82 263.756 143.82H263.41C263.205 143.82 263.135 143.885 263.135 144.096V144.436C263.135 144.646 263.205 144.711 263.41 144.711ZM265.332 144.711H265.672C265.883 144.711 265.953 144.646 265.953 144.436V144.096C265.953 143.885 265.883 143.82 265.672 143.82H265.332C265.121 143.82 265.051 143.885 265.051 144.096V144.436C265.051 144.646 265.121 144.711 265.332 144.711ZM267.248 144.711H267.588C267.799 144.711 267.869 144.646 267.869 144.436V144.096C267.869 143.885 267.799 143.82 267.588 143.82H267.248C267.037 143.82 266.967 143.885 266.967 144.096V144.436C266.967 144.646 267.037 144.711 267.248 144.711ZM261.494 146.598H261.84C262.051 146.598 262.121 146.533 262.121 146.322V145.982C262.121 145.771 262.051 145.707 261.84 145.707H261.494C261.289 145.707 261.219 145.771 261.219 145.982V146.322C261.219 146.533 261.289 146.598 261.494 146.598ZM263.41 146.598H263.756C263.967 146.598 264.037 146.533 264.037 146.322V145.982C264.037 145.771 263.967 145.707 263.756 145.707H263.41C263.205 145.707 263.135 145.771 263.135 145.982V146.322C263.135 146.533 263.205 146.598 263.41 146.598ZM265.332 146.598H265.672C265.883 146.598 265.953 146.533 265.953 146.322V145.982C265.953 145.771 265.883 145.707 265.672 145.707H265.332C265.121 145.707 265.051 145.771 265.051 145.982V146.322C265.051 146.533 265.121 146.598 265.332 146.598ZM267.248 146.598H267.588C267.799 146.598 267.869 146.533 267.869 146.322V145.982C267.869 145.771 267.799 145.707 267.588 145.707H267.248C267.037 145.707 266.967 145.771 266.967 145.982V146.322C266.967 146.533 267.037 146.598 267.248 146.598ZM261.494 148.484H261.84C262.051 148.484 262.121 148.42 262.121 148.209V147.869C262.121 147.658 262.051 147.594 261.84 147.594H261.494C261.289 147.594 261.219 147.658 261.219 147.869V148.209C261.219 148.42 261.289 148.484 261.494 148.484ZM263.41 148.484H263.756C263.967 148.484 264.037 148.42 264.037 148.209V147.869C264.037 147.658 263.967 147.594 263.756 147.594H263.41C263.205 147.594 263.135 147.658 263.135 147.869V148.209C263.135 148.42 263.205 148.484 263.41 148.484ZM265.332 148.484H265.672C265.883 148.484 265.953 148.42 265.953 148.209V147.869C265.953 147.658 265.883 147.594 265.672 147.594H265.332C265.121 147.594 265.051 147.658 265.051 147.869V148.209C265.051 148.42 265.121 148.484 265.332 148.484ZM278.475 149.527H279.787V142.203H282.441V141.072H275.814V142.203H278.475V149.527ZM285.453 149.65C287.316 149.65 288.459 148.402 288.459 146.352V146.34C288.459 144.289 287.311 143.041 285.453 143.041C283.59 143.041 282.441 144.295 282.441 146.34V146.352C282.441 148.402 283.584 149.65 285.453 149.65ZM285.453 148.59C284.357 148.59 283.742 147.764 283.742 146.352V146.34C283.742 144.928 284.357 144.102 285.453 144.102C286.543 144.102 287.164 144.928 287.164 146.34V146.352C287.164 147.758 286.543 148.59 285.453 148.59ZM289.977 149.527H291.248V145.619C291.248 144.787 291.816 144.131 292.584 144.131C293.334 144.131 293.809 144.588 293.809 145.314V149.527H295.074V145.502C295.074 144.734 295.607 144.131 296.416 144.131C297.248 144.131 297.646 144.564 297.646 145.443V149.527H298.912V145.139C298.912 143.814 298.162 143.041 296.879 143.041C295.994 143.041 295.262 143.492 294.939 144.178H294.84C294.559 143.492 293.943 143.041 293.076 143.041C292.244 143.041 291.623 143.445 291.342 144.143H291.248V143.164H289.977V149.527ZM303.383 149.65C305.246 149.65 306.389 148.402 306.389 146.352V146.34C306.389 144.289 305.24 143.041 303.383 143.041C301.52 143.041 300.371 144.295 300.371 146.34V146.352C300.371 148.402 301.514 149.65 303.383 149.65ZM303.383 148.59C302.287 148.59 301.672 147.764 301.672 146.352V146.34C301.672 144.928 302.287 144.102 303.383 144.102C304.473 144.102 305.094 144.928 305.094 146.34V146.352C305.094 147.758 304.473 148.59 303.383 148.59ZM307.906 149.527H309.178V145.725C309.178 144.805 309.84 144.207 310.812 144.207C311.053 144.207 311.27 144.236 311.498 144.283V143.111C311.369 143.082 311.146 143.053 310.941 143.053C310.092 143.053 309.5 143.451 309.271 144.125H309.178V143.164H307.906V149.527ZM312.805 149.527H314.076V145.725C314.076 144.805 314.738 144.207 315.711 144.207C315.951 144.207 316.168 144.236 316.396 144.283V143.111C316.268 143.082 316.045 143.053 315.84 143.053C314.99 143.053 314.398 143.451 314.17 144.125H314.076V143.164H312.805V149.527ZM320.141 149.65C322.004 149.65 323.146 148.402 323.146 146.352V146.34C323.146 144.289 321.998 143.041 320.141 143.041C318.277 143.041 317.129 144.295 317.129 146.34V146.352C317.129 148.402 318.271 149.65 320.141 149.65ZM320.141 148.59C319.045 148.59 318.43 147.764 318.43 146.352V146.34C318.43 144.928 319.045 144.102 320.141 144.102C321.23 144.102 321.852 144.928 321.852 146.34V146.352C321.852 147.758 321.23 148.59 320.141 148.59ZM325.643 149.527H326.938L328.25 144.781H328.35L329.668 149.527H330.975L332.727 143.164H331.467L330.33 148.074H330.23L328.918 143.164H327.711L326.398 148.074H326.305L325.162 143.164H323.885L325.643 149.527ZM356.92 149.527H358.232V141.072H356.92L354.693 142.654V143.943L356.82 142.426H356.92V149.527ZM363.559 149.732C365.34 149.732 366.594 148.537 366.594 146.803V146.791C366.594 145.168 365.457 143.984 363.869 143.984C363.09 143.984 362.428 144.312 362.07 144.881H361.971L362.229 142.186H366.113V141.072H361.197L360.775 145.982H361.906C362.006 145.789 362.141 145.625 362.293 145.49C362.627 145.186 363.066 145.033 363.582 145.033C364.602 145.033 365.34 145.771 365.34 146.814V146.826C365.34 147.887 364.613 148.631 363.57 148.631C362.645 148.631 361.971 148.039 361.859 147.295L361.854 147.248H360.623L360.629 147.324C360.746 148.695 361.895 149.732 363.559 149.732ZM369.225 143.938C369.711 143.938 370.08 143.557 370.08 143.082C370.08 142.602 369.711 142.227 369.225 142.227C368.738 142.227 368.363 142.602 368.363 143.082C368.363 143.557 368.738 143.938 369.225 143.938ZM369.225 148.367C369.711 148.367 370.08 147.986 370.08 147.512C370.08 147.031 369.711 146.656 369.225 146.656C368.738 146.656 368.363 147.031 368.363 147.512C368.363 147.986 368.738 148.367 369.225 148.367ZM374.979 149.732C376.924 149.732 378.102 148.027 378.102 145.303V145.291C378.102 142.566 376.924 140.867 374.979 140.867C373.027 140.867 371.855 142.566 371.855 145.291V145.303C371.855 148.027 373.027 149.732 374.979 149.732ZM374.979 148.643C373.842 148.643 373.18 147.371 373.18 145.303V145.291C373.18 143.223 373.842 141.963 374.979 141.963C376.109 141.963 376.777 143.223 376.777 145.291V145.303C376.777 147.371 376.109 148.643 374.979 148.643ZM382.771 149.732C384.717 149.732 385.895 148.027 385.895 145.303V145.291C385.895 142.566 384.717 140.867 382.771 140.867C380.82 140.867 379.648 142.566 379.648 145.291V145.303C379.648 148.027 380.82 149.732 382.771 149.732ZM382.771 148.643C381.635 148.643 380.973 147.371 380.973 145.303V145.291C380.973 143.223 381.635 141.963 382.771 141.963C383.902 141.963 384.57 143.223 384.57 145.291V145.303C384.57 147.371 383.902 148.643 382.771 148.643Z" fill="#445B6A"/>
<g style="mix-blend-mode:multiply">
<rect width="113" height="16" transform="translate(403.5 137.027)" fill="white"/>
</g>
</g>
<rect x="17" y="29.5273" width="515" height="143" rx="9.5" stroke="#E4EDF3"/>
</g>
<circle opacity="0.1" cx="508" cy="53" r="16" fill="#AF38F9"/>
<path d="M525.517 52.6347C525.33 52.8384 525.344 53.1547 525.548 53.3412L528.867 56.3802C529.07 56.5667 529.387 56.5527 529.573 56.3491C529.76 56.1454 529.746 55.8291 529.542 55.6427L526.592 52.9413L529.293 49.9913C529.48 49.7876 529.466 49.4713 529.262 49.2848C529.059 49.0984 528.742 49.1123 528.556 49.3159L525.517 52.6347ZM534.58 50.2763L534.836 50.7059L534.58 50.2763ZM541.925 43.4242L542.33 43.7171L541.925 43.4242ZM547.808 22.6509L548.307 22.62L547.808 22.6509ZM525.908 53.4719C528.962 53.3375 532.005 52.391 534.836 50.7059L534.324 49.8466C531.624 51.4546 528.739 52.3463 525.864 52.4729L525.908 53.4719ZM534.836 50.7059C537.666 49.0212 540.219 46.6364 542.33 43.7171L541.519 43.1312C539.481 45.9511 537.026 48.2384 534.324 49.8466L534.836 50.7059ZM542.33 43.7171C544.44 40.7978 546.063 37.407 547.093 33.7715L546.131 33.4989C545.131 37.0278 543.558 40.3114 541.519 43.1312L542.33 43.7171ZM547.093 33.7715C548.123 30.1359 548.537 26.3347 548.307 22.62L547.309 22.6817C547.532 26.2819 547.13 29.9702 546.131 33.4989L547.093 33.7715ZM548.307 22.62C548.078 18.9055 547.209 15.3581 545.755 12.2154L544.847 12.6354C546.246 15.6567 547.087 19.0814 547.309 22.6817L548.307 22.62ZM545.755 12.2154C544.3 9.07251 542.291 6.40298 539.854 4.39227L539.218 5.16357C541.528 7.06943 543.449 9.61417 544.847 12.6354L545.755 12.2154ZM539.854 4.39227C537.417 2.38086 534.61 1.07734 531.622 0.575962L531.457 1.56218C534.263 2.03311 536.909 3.2584 539.218 5.16357L539.854 4.39227Z" fill="#AF38F9"/>
<defs>
<filter id="filter0_d" x="0.5" y="17.0273" width="548" height="176" filterUnits="userSpaceOnUse" color-interpolation-filters="sRGB">
<feFlood flood-opacity="0" result="BackgroundImageFix"/>
<feColorMatrix in="SourceAlpha" type="matrix" values="0 0 0 0 0 0 0 0 0 0 0 0 0 0 0 0 0 0 127 0" result="hardAlpha"/>
<feOffset dy="4"/>
<feGaussianBlur stdDeviation="8"/>
<feColorMatrix type="matrix" values="0 0 0 0 0.215686 0 0 0 0 0.25098 0 0 0 0 0.290196 0 0 0 0.25 0"/>
<feBlend mode="normal" in2="BackgroundImageFix" result="effect1_dropShadow"/>
<feBlend mode="normal" in="SourceGraphic" in2="effect1_dropShadow" result="shape"/>
</filter>
<clipPath id="clip0">
<rect x="16.5" y="29.0273" width="516" height="144" rx="10" fill="white"/>
</clipPath>
</defs>
</svg>
