<svg width="16" height="16" viewBox="0 0 16 16" fill="none" xmlns="http://www.w3.org/2000/svg">
<path d="M4.07095 3.27879C4.45793 3.60661 4.60452 3.58346 5.33509 3.53268L12.2226 3.1033C12.3692 3.1033 12.2472 2.95096 12.198 2.92537L11.0538 2.0662C10.8361 1.88827 10.5429 1.68759 9.9828 1.73593L3.31535 2.24372C3.07104 2.26687 3.02218 2.39402 3.11991 2.49558L4.07095 3.27879ZM4.48412 4.94838V12.4782C4.48412 12.8824 4.67761 13.0348 5.11541 13.0092L12.685 12.5542C13.1228 12.5286 13.1737 12.2515 13.1737 11.9217V4.44263C13.1737 4.11237 13.0513 3.93688 12.7828 3.96247L4.87345 4.44263C4.58028 4.46822 4.48451 4.61812 4.48451 4.94635L4.48412 4.94838ZM11.956 5.35014C12.0049 5.57885 11.956 5.80512 11.736 5.83274L11.3716 5.90911V11.4671C11.0538 11.645 10.763 11.7466 10.5207 11.7466C10.1298 11.7466 10.0321 11.6195 9.74084 11.2409L7.35483 7.34797V11.1141L8.11004 11.292C8.11004 11.292 8.11004 11.747 7.50142 11.747L5.82175 11.8486C5.77289 11.747 5.82175 11.4931 5.99296 11.4444L6.43076 11.3172V6.3389L5.82214 6.28812C5.77328 6.05942 5.89563 5.73159 6.23532 5.7064L8.03694 5.57925L10.5207 9.52291V6.03382L9.88742 5.95745C9.83856 5.68041 10.0321 5.47729 10.2764 5.45373L11.956 5.35014ZM2.75559 1.56085L9.69198 1.02991C10.5429 0.953539 10.763 1.00432 11.2982 1.40851L13.5133 3.02693C13.8777 3.30397 14 3.38034 14 3.68298V12.5546C14 13.1111 13.8046 13.439 13.1244 13.4897L5.06616 13.9955C4.55722 14.0211 4.31291 13.9447 4.04398 13.5913L2.41317 11.3907C2.12196 10.9866 2 10.6839 2 10.3309V2.44561C2 1.99064 2.19584 1.61163 2.75559 1.56085Z" fill="black"/>
</svg>
