<svg fill="none" height="24" viewBox="0 0 24 24" width="24" xmlns="http://www.w3.org/2000/svg"><path d="m0 2.62052c0-1.44129 1.2-2.62052 2.66667-2.62052h18.66663c1.4667 0 2.6667 1.17923 2.6667 2.62052v18.34358c0 1.4413-1.2 2.6205-2.6667 2.6205h-18.66663c-1.46667 0-2.66667-1.1792-2.66667-2.6205z" fill="#1e88e5"/><path d="m2.66666 4.06174c0-.78616.66666-1.44129 1.46666-1.44129h5.06667c.8 0 1.46671.65513 1.46671 1.44129v14.15076c0 .7862-.66671 1.4413-1.46671 1.4413h-5.06667c-.8 0-1.46666-.6551-1.46666-1.4413zm10.66664 6.94436c0 .7862.6667 1.4413 1.4667 1.4413h5.0667c.8 0 1.4666-.6551 1.4666-1.4413v-6.94436c0-.78616-.6666-1.44129-1.4666-1.44129h-5.0667c-.8 0-1.4667.65513-1.4667 1.44129z" fill="#fff"/></svg>