<svg fill="none" height="36" viewBox="0 0 38 36" width="38" xmlns="http://www.w3.org/2000/svg" xmlns:xlink="http://www.w3.org/1999/xlink"><linearGradient id="a" gradientUnits="userSpaceOnUse" x1="19" x2="19" y1="3" y2="33"><stop offset="0" stop-color="#0079bf"/><stop offset="1" stop-color="#0079bf"/></linearGradient><path d="m30.25 3h-22.5c-2.07107 0-3.75 1.67893-3.75 3.75v22.5c0 2.0711 1.67893 3.75 3.75 3.75h22.5c2.0711 0 3.75-1.6789 3.75-3.75v-22.5c0-2.07107-1.6789-3.75-3.75-3.75z" fill="url(#a)"/><g fill="#fff"><path d="m28.3 6.9h-5.55c-.9941 0-1.8.80589-1.8 1.8v9.525c0 .9941.8059 1.8 1.8 1.8h5.55c.9941 0 1.8-.8059 1.8-1.8v-9.525c0-.99411-.8059-1.8-1.8-1.8z"/><path d="m15.25 6.9h-5.54998c-.99411 0-1.8.80589-1.8 1.8v17.025c0 .9941.80589 1.8 1.8 1.8h5.54998c.9941 0 1.8-.8059 1.8-1.8v-17.025c0-.99411-.8059-1.8-1.8-1.8z"/></g></svg>