<svg width="16" height="16" viewBox="0 0 16 16" fill="none" xmlns="http://www.w3.org/2000/svg">
<path fill-rule="evenodd" clip-rule="evenodd" d="M7.9997 1C4.03566 1 0.822754 4.21291 0.822754 8.17694C0.822754 11.3466 2.87949 14.0365 5.7306 14.9882C6.08847 15.055 6.22217 14.8309 6.22217 14.6421C6.22217 14.4691 6.21431 13.9067 6.21431 13.305C4.21656 13.7376 3.79578 12.4595 3.79578 12.4595C3.46937 11.6297 2.99747 11.4095 2.99747 11.4095C2.34466 10.9651 3.04466 10.973 3.04466 10.973C3.76432 11.0241 4.14578 11.7123 4.14578 11.7123C4.78679 12.8095 5.82498 12.491 6.23397 12.3101C6.29689 11.846 6.48566 11.5314 6.69015 11.3505C5.09746 11.1696 3.41825 10.5522 3.41825 7.80335C3.41825 7.02077 3.69746 6.37976 4.15757 5.87639C4.08286 5.69549 3.83904 4.96403 4.22836 3.97696C4.22836 3.97696 4.83004 3.78426 6.20251 4.71235C6.77667 4.55504 7.39015 4.47246 7.9997 4.47246C8.60924 4.47639 9.22272 4.55504 9.79688 4.71235C11.1654 3.78426 11.7671 3.97696 11.7671 3.97696C12.1564 4.96403 11.9126 5.69549 11.8379 5.87639C12.298 6.37976 12.5772 7.02077 12.5772 7.80335C12.5772 10.5601 10.898 11.1657 9.30138 11.3427C9.55699 11.5668 9.78901 12.0033 9.78901 12.6719C9.78901 13.6314 9.78115 14.4061 9.78115 14.6421C9.78115 14.8348 9.91092 15.055 10.2727 14.9882C13.1238 14.0365 15.1766 11.3505 15.1766 8.17694C15.1766 4.21291 11.9637 1 7.9997 1Z" fill="#181616"/>
<path d="M3.53987 11.3033C3.52414 11.3387 3.46908 11.3505 3.41796 11.3269C3.36684 11.3033 3.33538 11.2561 3.35504 11.2207C3.37077 11.1853 3.42583 11.1735 3.47695 11.1971C3.52807 11.2207 3.55953 11.2679 3.53987 11.3033Z" fill="#181616"/>
<path d="M3.83121 11.6296C3.79581 11.6611 3.72896 11.6454 3.6857 11.5982C3.63851 11.5471 3.63065 11.4802 3.66604 11.4487C3.70143 11.4173 3.76435 11.433 3.81154 11.4802C3.85873 11.5313 3.8666 11.5982 3.83121 11.6296Z" fill="#181616"/>
<path d="M4.11409 12.0427C4.07083 12.0742 4.00004 12.0467 3.95285 11.9798C3.9096 11.9169 3.9096 11.8382 3.95285 11.8068C3.99611 11.7753 4.0669 11.8028 4.11409 11.8658C4.16128 11.9326 4.16128 12.0113 4.11409 12.0427Z" fill="#181616"/>
<path d="M4.5039 12.4398C4.46457 12.483 4.38199 12.4712 4.31907 12.4122C4.25615 12.3532 4.24042 12.2707 4.27974 12.2274C4.31907 12.1841 4.40558 12.1959 4.46457 12.2549C4.52749 12.3179 4.54322 12.4004 4.5039 12.4398Z" fill="#181616"/>
<path d="M5.03853 12.6718C5.0228 12.7269 4.94021 12.7544 4.85763 12.7308C4.77505 12.7072 4.72392 12.6404 4.73965 12.5853C4.75538 12.5302 4.83797 12.5027 4.92055 12.5263C4.9992 12.5499 5.05426 12.6168 5.03853 12.6718Z" fill="#181616"/>
<path d="M5.62415 12.7151C5.62808 12.7741 5.5573 12.8252 5.47078 12.8252C5.38426 12.8291 5.31741 12.778 5.31348 12.719C5.31348 12.66 5.38033 12.6089 5.46685 12.6089C5.55336 12.6089 5.62415 12.6561 5.62415 12.7151Z" fill="#181616"/>
<path d="M6.17093 12.6246C6.18273 12.6836 6.12374 12.7426 6.03723 12.7583C5.95464 12.7741 5.87599 12.7387 5.86812 12.6797C5.85633 12.6207 5.91925 12.5617 6.00183 12.546C6.08442 12.5302 6.15913 12.5656 6.17093 12.6246Z" fill="#181616"/>
</svg>
