<svg width="24" height="24" viewBox="0 0 24 24" fill="none" xmlns="http://www.w3.org/2000/svg">
<path d="M4.0731 22.0062H19.9273C22.3531 22.0062 23.5716 20.8441 23.5716 18.5423V5.17818C23.5716 2.87634 22.3531 1.71423 19.9273 1.71423H4.0731C1.65899 1.71423 0.428711 2.86513 0.428711 5.17818V18.5423C0.428711 20.8553 1.65899 22.0062 4.0731 22.0062ZM3.91062 20.441C2.87763 20.441 1.9864 19.682 1.9864 18.6428V8.38515C1.9864 7.35712 2.87763 6.42852 3.91062 6.42852H20.0782C21.1111 6.42852 22.0139 7.35712 22.0139 8.38515V18.6428C22.0139 19.682 21.1212 20.441 20.0883 20.441H3.91062Z" fill="#445B6A"/>
<path d="M8.14802 18.1157C7.07659 18.1157 6.25802 17.7214 5.69231 16.9328C5.12659 16.1357 4.84373 14.9785 4.84373 13.4614C4.84373 11.9528 5.12659 10.8042 5.69231 10.0157C6.25802 9.21852 7.07659 8.81995 8.14802 8.81995C9.21945 8.81995 10.038 9.21852 10.6037 10.0157C11.1694 10.8042 11.4523 11.9528 11.4523 13.4614C11.4523 14.9699 11.1694 16.1228 10.6037 16.9199C10.038 17.7171 9.21945 18.1157 8.14802 18.1157ZM8.14802 16.8171C8.73088 16.8171 9.15516 16.5514 9.42088 16.0199C9.68659 15.4799 9.81945 14.6271 9.81945 13.4614C9.81945 12.2871 9.68659 11.4385 9.42088 10.9157C9.15516 10.3842 8.73088 10.1185 8.14802 10.1185C7.56516 10.1185 7.14088 10.3842 6.87516 10.9157C6.60945 11.4471 6.47659 12.2957 6.47659 13.4614C6.47659 14.6271 6.60945 15.4799 6.87516 16.0199C7.14088 16.5514 7.56516 16.8171 8.14802 16.8171Z" fill="#445B6A"/>
<path d="M15.8573 18.1157C14.7859 18.1157 13.9673 17.7214 13.4016 16.9328C12.8359 16.1357 12.553 14.9785 12.553 13.4614C12.553 11.9528 12.8359 10.8042 13.4016 10.0157C13.9673 9.21852 14.7859 8.81995 15.8573 8.81995C16.9287 8.81995 17.7473 9.21852 18.313 10.0157C18.8787 10.8042 19.1616 11.9528 19.1616 13.4614C19.1616 14.9699 18.8787 16.1228 18.313 16.9199C17.7473 17.7171 16.9287 18.1157 15.8573 18.1157ZM15.8573 16.8171C16.4401 16.8171 16.8644 16.5514 17.1301 16.0199C17.3959 15.4799 17.5287 14.6271 17.5287 13.4614C17.5287 12.2871 17.3959 11.4385 17.1301 10.9157C16.8644 10.3842 16.4401 10.1185 15.8573 10.1185C15.2744 10.1185 14.8501 10.3842 14.5844 10.9157C14.3187 11.4471 14.1859 12.2957 14.1859 13.4614C14.1859 14.6271 14.3187 15.4799 14.5844 16.0199C14.8501 16.5514 15.2744 16.8171 15.8573 16.8171Z" fill="#445B6A"/>
</svg>
