<svg width="24" height="24" viewBox="0 0 24 24" fill="none" xmlns="http://www.w3.org/2000/svg">
<path d="M4.0731 22.0062H19.9273C22.3531 22.0062 23.5716 20.8441 23.5716 18.5423V5.17818C23.5716 2.87634 22.3531 1.71423 19.9273 1.71423H4.0731C1.65899 1.71423 0.428711 2.86513 0.428711 5.17818V18.5423C0.428711 20.8553 1.65899 22.0062 4.0731 22.0062ZM3.91062 20.441C2.87763 20.441 1.9864 19.682 1.9864 18.6428V8.38515C1.9864 7.35712 2.87763 6.42852 3.91062 6.42852H20.0782C21.1111 6.42852 22.0139 7.35712 22.0139 8.38515V18.6428C22.0139 19.682 21.1212 20.441 20.0883 20.441H3.91062Z" fill="#445B6A"/>
<path d="M8.14802 18.1157C7.07659 18.1157 6.25802 17.7214 5.69231 16.9328C5.12659 16.1357 4.84373 14.9785 4.84373 13.4614C4.84373 11.9528 5.12659 10.8042 5.69231 10.0157C6.25802 9.21852 7.07659 8.81995 8.14802 8.81995C9.21945 8.81995 10.038 9.21852 10.6037 10.0157C11.1694 10.8042 11.4523 11.9528 11.4523 13.4614C11.4523 14.9699 11.1694 16.1228 10.6037 16.9199C10.038 17.7171 9.21945 18.1157 8.14802 18.1157ZM8.14802 16.8171C8.73088 16.8171 9.15516 16.5514 9.42088 16.0199C9.68659 15.4799 9.81945 14.6271 9.81945 13.4614C9.81945 12.2871 9.68659 11.4385 9.42088 10.9157C9.15516 10.3842 8.73088 10.1185 8.14802 10.1185C7.56516 10.1185 7.14088 10.3842 6.87516 10.9157C6.60945 11.4471 6.47659 12.2957 6.47659 13.4614C6.47659 14.6271 6.60945 15.4799 6.87516 16.0199C7.14088 16.5514 7.56516 16.8171 8.14802 16.8171Z" fill="#445B6A"/>
<path d="M18.4416 16.6628C18.9559 16.6628 19.213 16.8814 19.213 17.3185C19.213 17.7728 18.9559 17.9999 18.4416 17.9999H14.0959C13.573 17.9999 13.3116 17.7728 13.3116 17.3185C13.3116 16.8814 13.573 16.6628 14.0959 16.6628H15.433V10.7999L14.1987 11.5585C14.0787 11.6271 13.9716 11.6614 13.8773 11.6614C13.6973 11.6614 13.543 11.5842 13.4144 11.4299C13.2944 11.2757 13.2344 11.1042 13.2344 10.9157C13.2344 10.6671 13.3459 10.4742 13.5687 10.3371L15.5616 9.1028C15.8187 8.94852 16.063 8.87138 16.2944 8.87138C16.5344 8.87138 16.7273 8.94423 16.873 9.08995C17.0187 9.23566 17.0916 9.43709 17.0916 9.69423V16.6628H18.4416Z" fill="#445B6A"/>
</svg>
