<svg width="24" height="24" viewBox="0 0 24 24" fill="none" xmlns="http://www.w3.org/2000/svg">
<path d="M4.0731 22.0062H19.9273C22.3531 22.0062 23.5716 20.8441 23.5716 18.5423V5.17818C23.5716 2.87634 22.3531 1.71423 19.9273 1.71423H4.0731C1.65899 1.71423 0.428711 2.86513 0.428711 5.17818V18.5423C0.428711 20.8553 1.65899 22.0062 4.0731 22.0062ZM3.91062 20.441C2.87763 20.441 1.9864 19.682 1.9864 18.6428V8.38515C1.9864 7.35712 2.87763 6.42852 3.91062 6.42852H20.0782C21.1111 6.42852 22.0139 7.35712 22.0139 8.38515V18.6428C22.0139 19.682 21.1212 20.441 20.0883 20.441H3.91062Z" fill="#445B6A"/>
<path d="M8.14174 18.1157C7.07031 18.1157 6.25174 17.7214 5.68603 16.9328C5.12031 16.1357 4.83746 14.9785 4.83746 13.4614C4.83746 11.9528 5.12031 10.8042 5.68603 10.0157C6.25174 9.21852 7.07031 8.81995 8.14174 8.81995C9.21317 8.81995 10.0317 9.21852 10.5975 10.0157C11.1632 10.8042 11.446 11.9528 11.446 13.4614C11.446 14.9699 11.1632 16.1228 10.5975 16.9199C10.0317 17.7171 9.21317 18.1157 8.14174 18.1157ZM8.14174 16.8171C8.7246 16.8171 9.14888 16.5514 9.4146 16.0199C9.68031 15.4799 9.81317 14.6271 9.81317 13.4614C9.81317 12.2871 9.68031 11.4385 9.4146 10.9157C9.14888 10.3842 8.7246 10.1185 8.14174 10.1185C7.55888 10.1185 7.1346 10.3842 6.86888 10.9157C6.60317 11.4471 6.47031 12.2957 6.47031 13.4614C6.47031 14.6271 6.60317 15.4799 6.86888 16.0199C7.1346 16.5514 7.55888 16.8171 8.14174 16.8171Z" fill="#445B6A"/>
<path d="M18.3967 16.6628C18.911 16.6628 19.1681 16.8814 19.1681 17.3185C19.1681 17.7728 18.911 17.9999 18.3967 17.9999H13.511C13.2881 17.9999 13.1124 17.9357 12.9839 17.8071C12.8553 17.6699 12.791 17.5028 12.791 17.3057C12.791 17.0485 12.8896 16.8171 13.0867 16.6114L16.0181 13.4614C16.3781 13.0671 16.6396 12.7071 16.8024 12.3814C16.9739 12.0471 17.0596 11.7171 17.0596 11.3914C17.0596 10.9885 16.9439 10.6799 16.7124 10.4657C16.481 10.2514 16.151 10.1442 15.7224 10.1442C15.371 10.1442 15.0281 10.2128 14.6939 10.3499C14.3681 10.4785 14.0381 10.6585 13.7039 10.8899C13.6181 10.9499 13.5324 11.0014 13.4467 11.0442C13.361 11.0785 13.2753 11.0957 13.1896 11.0957C13.0439 11.0957 12.9153 11.0271 12.8039 10.8899C12.701 10.7528 12.6496 10.5899 12.6496 10.4014C12.6496 10.2728 12.671 10.1614 12.7139 10.0671C12.7653 9.9728 12.8424 9.8828 12.9453 9.79709C13.3224 9.49709 13.7639 9.26138 14.2696 9.08995C14.7753 8.90995 15.281 8.81995 15.7867 8.81995C16.6696 8.81995 17.3724 9.0428 17.8953 9.48852C18.4267 9.93423 18.6924 10.5342 18.6924 11.2885C18.6924 11.8114 18.581 12.3042 18.3581 12.7671C18.1353 13.2214 17.7581 13.7314 17.2267 14.2971L15.0024 16.6628H18.3967Z" fill="#445B6A"/>
</svg>
