<svg width="24" height="24" viewBox="0 0 24 24" fill="none" xmlns="http://www.w3.org/2000/svg">
<path d="M4.0731 22.0062H19.9273C22.3531 22.0062 23.5716 20.8441 23.5716 18.5423V5.17818C23.5716 2.87634 22.3531 1.71423 19.9273 1.71423H4.0731C1.65899 1.71423 0.428711 2.86513 0.428711 5.17818V18.5423C0.428711 20.8553 1.65899 22.0062 4.0731 22.0062ZM3.91062 20.441C2.87763 20.441 1.9864 19.682 1.9864 18.6428V8.38515C1.9864 7.35712 2.87763 6.42852 3.91062 6.42852H20.0782C21.1111 6.42852 22.0139 7.35712 22.0139 8.38515V18.6428C22.0139 19.682 21.1212 20.441 20.0883 20.441H3.91062Z" fill="#445B6A"/>
<path d="M8.14802 18.1157C7.07659 18.1157 6.25802 17.7214 5.69231 16.9328C5.12659 16.1357 4.84373 14.9785 4.84373 13.4614C4.84373 11.9528 5.12659 10.8042 5.69231 10.0157C6.25802 9.21852 7.07659 8.81995 8.14802 8.81995C9.21945 8.81995 10.038 9.21852 10.6037 10.0157C11.1694 10.8042 11.4523 11.9528 11.4523 13.4614C11.4523 14.9699 11.1694 16.1228 10.6037 16.9199C10.038 17.7171 9.21945 18.1157 8.14802 18.1157ZM8.14802 16.8171C8.73088 16.8171 9.15516 16.5514 9.42088 16.0199C9.68659 15.4799 9.81945 14.6271 9.81945 13.4614C9.81945 12.2871 9.68659 11.4385 9.42088 10.9157C9.15516 10.3842 8.73088 10.1185 8.14802 10.1185C7.56516 10.1185 7.14088 10.3842 6.87516 10.9157C6.60945 11.4471 6.47659 12.2957 6.47659 13.4614C6.47659 14.6271 6.60945 15.4799 6.87516 16.0199C7.14088 16.5514 7.56516 16.8171 8.14802 16.8171Z" fill="#445B6A"/>
<path d="M17.2459 13.3457C17.7859 13.4828 18.1973 13.7442 18.4801 14.1299C18.7716 14.5071 18.9173 14.9785 18.9173 15.5442C18.9173 16.3242 18.6301 16.9457 18.0559 17.4085C17.4816 17.8714 16.7059 18.1028 15.7287 18.1028C15.1716 18.1028 14.6359 18.0171 14.1216 17.8457C13.6073 17.6742 13.1701 17.4342 12.8101 17.1257C12.613 16.9542 12.5144 16.7528 12.5144 16.5214C12.5144 16.3328 12.5659 16.1742 12.6687 16.0457C12.7801 15.9085 12.9087 15.8399 13.0544 15.8399C13.1401 15.8399 13.2173 15.8571 13.2859 15.8914C13.3544 15.9171 13.4487 15.9642 13.5687 16.0328C13.9287 16.2728 14.2716 16.4571 14.5973 16.5857C14.923 16.7142 15.2787 16.7785 15.6644 16.7785C16.2301 16.7785 16.6501 16.6671 16.9244 16.4442C17.1987 16.2128 17.3359 15.8657 17.3359 15.4028C17.3359 14.9485 17.1901 14.6142 16.8987 14.3999C16.6159 14.1771 16.1744 14.0657 15.5744 14.0657H14.8416C14.6444 14.0657 14.4901 14.0014 14.3787 13.8728C14.2759 13.7357 14.2244 13.5814 14.2244 13.4099C14.2244 13.2299 14.2759 13.0757 14.3787 12.9471C14.4901 12.8185 14.6444 12.7542 14.8416 12.7542H15.3559C16.5301 12.7542 17.1173 12.3128 17.1173 11.4299C17.1173 11.0185 16.993 10.7014 16.7444 10.4785C16.4959 10.2557 16.153 10.1442 15.7159 10.1442C15.0901 10.1442 14.4216 10.3928 13.7101 10.8899C13.5901 10.9585 13.4959 11.0099 13.4273 11.0442C13.3587 11.0699 13.2816 11.0828 13.1959 11.0828C13.0501 11.0828 12.9216 11.0185 12.8101 10.8899C12.7073 10.7528 12.6559 10.5899 12.6559 10.4014C12.6559 10.2728 12.6773 10.1657 12.7201 10.0799C12.7716 9.98566 12.8487 9.89138 12.9516 9.79709C13.3116 9.49709 13.7401 9.26138 14.2373 9.08995C14.743 8.90995 15.2573 8.81995 15.7801 8.81995C16.6716 8.81995 17.3787 9.03852 17.9016 9.47566C18.433 9.9128 18.6987 10.4957 18.6987 11.2242C18.6901 11.7214 18.5573 12.1585 18.3001 12.5357C18.0516 12.9042 17.7001 13.1742 17.2459 13.3457Z" fill="#445B6A"/>
</svg>
