<svg width="24" height="24" viewBox="0 0 24 24" fill="none" xmlns="http://www.w3.org/2000/svg">
<path d="M4.0731 22.0062H19.9273C22.3531 22.0062 23.5716 20.8441 23.5716 18.5423V5.17818C23.5716 2.87634 22.3531 1.71423 19.9273 1.71423H4.0731C1.65899 1.71423 0.428711 2.86513 0.428711 5.17818V18.5423C0.428711 20.8553 1.65899 22.0062 4.0731 22.0062ZM3.91062 20.441C2.87763 20.441 1.9864 19.682 1.9864 18.6428V8.38515C1.9864 7.35712 2.87763 6.42852 3.91062 6.42852H20.0782C21.1111 6.42852 22.0139 7.35712 22.0139 8.38515V18.6428C22.0139 19.682 21.1212 20.441 20.0883 20.441H3.91062Z" fill="#445B6A"/>
<path d="M8.14802 18.1157C7.07659 18.1157 6.25802 17.7214 5.69231 16.9328C5.12659 16.1357 4.84373 14.9785 4.84373 13.4614C4.84373 11.9528 5.12659 10.8042 5.69231 10.0157C6.25802 9.21852 7.07659 8.81995 8.14802 8.81995C9.21945 8.81995 10.038 9.21852 10.6037 10.0157C11.1694 10.8042 11.4523 11.9528 11.4523 13.4614C11.4523 14.9699 11.1694 16.1228 10.6037 16.9199C10.038 17.7171 9.21945 18.1157 8.14802 18.1157ZM8.14802 16.8171C8.73088 16.8171 9.15516 16.5514 9.42088 16.0199C9.68659 15.4799 9.81945 14.6271 9.81945 13.4614C9.81945 12.2871 9.68659 11.4385 9.42088 10.9157C9.15516 10.3842 8.73088 10.1185 8.14802 10.1185C7.56516 10.1185 7.14088 10.3842 6.87516 10.9157C6.60945 11.4471 6.47659 12.2957 6.47659 13.4614C6.47659 14.6271 6.60945 15.4799 6.87516 16.0199C7.14088 16.5514 7.56516 16.8171 8.14802 16.8171Z" fill="#445B6A"/>
<path d="M18.7501 14.9399C19.0073 14.9399 19.2001 14.9957 19.3287 15.1071C19.4573 15.2185 19.5216 15.3771 19.5216 15.5828C19.5216 16.0114 19.2644 16.2257 18.7501 16.2257H18.0944V17.2414C18.0944 17.5071 18.0173 17.7128 17.863 17.8585C17.7173 18.0042 17.5244 18.0771 17.2844 18.0771C17.0444 18.0771 16.8473 18.0042 16.693 17.8585C16.5473 17.7128 16.4744 17.5071 16.4744 17.2414V16.2257H13.1059C12.8744 16.2257 12.6944 16.1614 12.5659 16.0328C12.4373 15.8957 12.373 15.7285 12.373 15.5314C12.373 15.3257 12.4416 15.1285 12.5787 14.9399L16.5516 9.23138C16.6373 9.11138 16.7444 9.02138 16.873 8.96138C17.0016 8.8928 17.1344 8.85852 17.2716 8.85852C17.4944 8.85852 17.6873 8.93138 17.8501 9.07709C18.013 9.2228 18.0944 9.42852 18.0944 9.69423V14.9399H18.7501ZM14.083 14.9399H16.4744V11.4814L14.083 14.9399Z" fill="#445B6A"/>
</svg>
