<svg width="24" height="24" viewBox="0 0 24 24" fill="none" xmlns="http://www.w3.org/2000/svg">
<path d="M4.0731 22.0062H19.9273C22.3531 22.0062 23.5716 20.8441 23.5716 18.5423V5.17818C23.5716 2.87634 22.3531 1.71423 19.9273 1.71423H4.0731C1.65899 1.71423 0.428711 2.86513 0.428711 5.17818V18.5423C0.428711 20.8553 1.65899 22.0062 4.0731 22.0062ZM3.91062 20.441C2.87763 20.441 1.9864 19.682 1.9864 18.6428V8.38515C1.9864 7.35712 2.87763 6.42852 3.91062 6.42852H20.0782C21.1111 6.42852 22.0139 7.35712 22.0139 8.38515V18.6428C22.0139 19.682 21.1212 20.441 20.0883 20.441H3.91062Z" fill="#445B6A"/>
<path d="M8.14802 18.1157C7.07659 18.1157 6.25802 17.7214 5.69231 16.9328C5.12659 16.1357 4.84373 14.9785 4.84373 13.4614C4.84373 11.9528 5.12659 10.8042 5.69231 10.0157C6.25802 9.21852 7.07659 8.81995 8.14802 8.81995C9.21945 8.81995 10.038 9.21852 10.6037 10.0157C11.1694 10.8042 11.4523 11.9528 11.4523 13.4614C11.4523 14.9699 11.1694 16.1228 10.6037 16.9199C10.038 17.7171 9.21945 18.1157 8.14802 18.1157ZM8.14802 16.8171C8.73088 16.8171 9.15516 16.5514 9.42088 16.0199C9.68659 15.4799 9.81945 14.6271 9.81945 13.4614C9.81945 12.2871 9.68659 11.4385 9.42088 10.9157C9.15516 10.3842 8.73088 10.1185 8.14802 10.1185C7.56516 10.1185 7.14088 10.3842 6.87516 10.9157C6.60945 11.4471 6.47659 12.2957 6.47659 13.4614C6.47659 14.6271 6.60945 15.4799 6.87516 16.0199C7.14088 16.5514 7.56516 16.8171 8.14802 16.8171Z" fill="#445B6A"/>
<path d="M16.333 12.2014C16.8987 12.2014 17.3959 12.3257 17.8244 12.5742C18.2616 12.8142 18.6001 13.1528 18.8401 13.5899C19.0801 14.0271 19.2001 14.5285 19.2001 15.0942C19.2001 15.6857 19.063 16.2085 18.7887 16.6628C18.523 17.1171 18.1416 17.4728 17.6444 17.7299C17.1559 17.9785 16.5901 18.1028 15.9473 18.1028C15.4159 18.1028 14.893 18.0171 14.3787 17.8457C13.873 17.6657 13.4401 17.4257 13.0801 17.1257C12.883 16.9542 12.7844 16.7528 12.7844 16.5214C12.7844 16.3328 12.8359 16.1742 12.9387 16.0457C13.0501 15.9085 13.1787 15.8399 13.3244 15.8399C13.4101 15.8399 13.4916 15.8571 13.5687 15.8914C13.6459 15.9171 13.7359 15.9642 13.8387 16.0328C14.1816 16.2728 14.5159 16.4571 14.8416 16.5857C15.1673 16.7142 15.5144 16.7785 15.883 16.7785C16.4487 16.7785 16.8816 16.6371 17.1816 16.3542C17.4816 16.0714 17.6316 15.6685 17.6316 15.1457C17.6316 14.6399 17.4773 14.2414 17.1687 13.9499C16.8687 13.6499 16.453 13.4999 15.9216 13.4999C15.5873 13.4999 15.2873 13.5471 15.0216 13.6414C14.7644 13.7357 14.4987 13.8942 14.2244 14.1171C14.0616 14.2285 13.8944 14.2842 13.723 14.2842C13.5516 14.2842 13.4059 14.2328 13.2859 14.1299C13.1659 14.0271 13.1059 13.8899 13.1059 13.7185V9.70709C13.1059 9.46709 13.1744 9.27852 13.3116 9.14138C13.4487 9.00423 13.6416 8.93566 13.8901 8.93566H18.1716C18.6859 8.93566 18.943 9.14995 18.943 9.57852C18.943 10.0071 18.6859 10.2214 18.1716 10.2214H14.7259V12.6642C15.163 12.3557 15.6987 12.2014 16.333 12.2014Z" fill="#445B6A"/>
</svg>
