<svg width="24" height="24" viewBox="0 0 24 24" fill="none" xmlns="http://www.w3.org/2000/svg">
<path d="M4.0731 22.0062H19.9273C22.3531 22.0062 23.5716 20.8441 23.5716 18.5423V5.17818C23.5716 2.87634 22.3531 1.71423 19.9273 1.71423H4.0731C1.65899 1.71423 0.428711 2.86513 0.428711 5.17818V18.5423C0.428711 20.8553 1.65899 22.0062 4.0731 22.0062ZM3.91062 20.441C2.87763 20.441 1.9864 19.682 1.9864 18.6428V8.38515C1.9864 7.35712 2.87763 6.42852 3.91062 6.42852H20.0782C21.1111 6.42852 22.0139 7.35712 22.0139 8.38515V18.6428C22.0139 19.682 21.1212 20.441 20.0883 20.441H3.91062Z" fill="#445B6A"/>
<path d="M8.14802 18.1157C7.07659 18.1157 6.25802 17.7214 5.69231 16.9328C5.12659 16.1357 4.84373 14.9785 4.84373 13.4614C4.84373 11.9528 5.12659 10.8042 5.69231 10.0157C6.25802 9.21852 7.07659 8.81995 8.14802 8.81995C9.21945 8.81995 10.038 9.21852 10.6037 10.0157C11.1694 10.8042 11.4523 11.9528 11.4523 13.4614C11.4523 14.9699 11.1694 16.1228 10.6037 16.9199C10.038 17.7171 9.21945 18.1157 8.14802 18.1157ZM8.14802 16.8171C8.73088 16.8171 9.15516 16.5514 9.42088 16.0199C9.68659 15.4799 9.81945 14.6271 9.81945 13.4614C9.81945 12.2871 9.68659 11.4385 9.42088 10.9157C9.15516 10.3842 8.73088 10.1185 8.14802 10.1185C7.56516 10.1185 7.14088 10.3842 6.87516 10.9157C6.60945 11.4471 6.47659 12.2957 6.47659 13.4614C6.47659 14.6271 6.60945 15.4799 6.87516 16.0199C7.14088 16.5514 7.56516 16.8171 8.14802 16.8171Z" fill="#445B6A"/>
<path d="M16.4101 12.1885C16.9501 12.1885 17.4301 12.3128 17.8501 12.5614C18.2701 12.8014 18.5959 13.1442 18.8273 13.5899C19.0673 14.0271 19.1873 14.5285 19.1873 15.0942C19.1873 15.6771 19.0544 16.1999 18.7887 16.6628C18.5316 17.1171 18.1716 17.4728 17.7087 17.7299C17.2544 17.9871 16.7359 18.1157 16.153 18.1157C15.0044 18.1157 14.1173 17.7299 13.4916 16.9585C12.8744 16.1785 12.5659 15.0685 12.5659 13.6285C12.5659 12.6428 12.7116 11.7899 13.003 11.0699C13.2944 10.3414 13.7101 9.78423 14.2501 9.39852C14.7987 9.0128 15.4416 8.81995 16.1787 8.81995C16.6673 8.81995 17.1559 8.90995 17.6444 9.08995C18.1416 9.26138 18.5616 9.49709 18.9044 9.79709C19.0159 9.89138 19.093 9.98566 19.1359 10.0799C19.1873 10.1657 19.213 10.2728 19.213 10.4014C19.213 10.5899 19.1573 10.7528 19.0459 10.8899C18.943 11.0185 18.8187 11.0828 18.673 11.0828C18.5873 11.0828 18.5059 11.0699 18.4287 11.0442C18.3516 11.0099 18.2573 10.9585 18.1459 10.8899C17.4344 10.3928 16.8001 10.1442 16.243 10.1442C15.6173 10.1442 15.1244 10.4357 14.7644 11.0185C14.4044 11.5928 14.2159 12.4028 14.1987 13.4485C14.3959 13.0628 14.6916 12.7585 15.0859 12.5357C15.4801 12.3042 15.9216 12.1885 16.4101 12.1885ZM16.063 16.8042C16.5344 16.8042 16.9116 16.6542 17.1944 16.3542C17.4773 16.0457 17.6187 15.6428 17.6187 15.1457C17.6187 14.6485 17.4773 14.2499 17.1944 13.9499C16.9116 13.6499 16.5344 13.4999 16.063 13.4999C15.583 13.4999 15.193 13.6542 14.893 13.9628C14.6016 14.2628 14.4559 14.6571 14.4559 15.1457C14.4559 15.6428 14.6016 16.0457 14.893 16.3542C15.193 16.6542 15.583 16.8042 16.063 16.8042Z" fill="#445B6A"/>
</svg>
