<svg width="24" height="24" viewBox="0 0 24 24" fill="none" xmlns="http://www.w3.org/2000/svg">
<path d="M4.0731 22.0062H19.9273C22.3531 22.0062 23.5716 20.8441 23.5716 18.5423V5.17818C23.5716 2.87634 22.3531 1.71423 19.9273 1.71423H4.0731C1.65899 1.71423 0.428711 2.86513 0.428711 5.17818V18.5423C0.428711 20.8553 1.65899 22.0062 4.0731 22.0062ZM3.91062 20.441C2.87763 20.441 1.9864 19.682 1.9864 18.6428V8.38515C1.9864 7.35712 2.87763 6.42852 3.91062 6.42852H20.0782C21.1111 6.42852 22.0139 7.35712 22.0139 8.38515V18.6428C22.0139 19.682 21.1212 20.441 20.0883 20.441H3.91062Z" fill="#445B6A"/>
<path d="M8.14802 18.1157C7.07659 18.1157 6.25802 17.7214 5.69231 16.9328C5.12659 16.1357 4.84373 14.9785 4.84373 13.4614C4.84373 11.9528 5.12659 10.8042 5.69231 10.0157C6.25802 9.21852 7.07659 8.81995 8.14802 8.81995C9.21945 8.81995 10.038 9.21852 10.6037 10.0157C11.1694 10.8042 11.4523 11.9528 11.4523 13.4614C11.4523 14.9699 11.1694 16.1228 10.6037 16.9199C10.038 17.7171 9.21945 18.1157 8.14802 18.1157ZM8.14802 16.8171C8.73088 16.8171 9.15516 16.5514 9.42088 16.0199C9.68659 15.4799 9.81945 14.6271 9.81945 13.4614C9.81945 12.2871 9.68659 11.4385 9.42088 10.9157C9.15516 10.3842 8.73088 10.1185 8.14802 10.1185C7.56516 10.1185 7.14088 10.3842 6.87516 10.9157C6.60945 11.4471 6.47659 12.2957 6.47659 13.4614C6.47659 14.6271 6.60945 15.4799 6.87516 16.0199C7.14088 16.5514 7.56516 16.8171 8.14802 16.8171Z" fill="#445B6A"/>
<path d="M18.4673 8.93566C18.6901 8.93566 18.8616 8.99995 18.9816 9.12852C19.1016 9.24852 19.1616 9.40709 19.1616 9.60423C19.1616 9.80137 19.1016 10.0071 18.9816 10.2214L14.8801 17.6657C14.7087 17.9571 14.473 18.1028 14.173 18.1028C13.9673 18.1028 13.783 18.0342 13.6201 17.8971C13.4659 17.7514 13.3887 17.5757 13.3887 17.3699C13.3887 17.2242 13.4316 17.0785 13.5173 16.9328L17.2073 10.2728H13.3244C12.8101 10.2728 12.553 10.0542 12.553 9.61709C12.553 9.1628 12.8101 8.93566 13.3244 8.93566H18.4673Z" fill="#445B6A"/>
</svg>
