<svg width="24" height="24" viewBox="0 0 24 24" fill="none" xmlns="http://www.w3.org/2000/svg">
<path d="M4.0731 22.0062H19.9273C22.3531 22.0062 23.5716 20.8441 23.5716 18.5423V5.17818C23.5716 2.87634 22.3531 1.71423 19.9273 1.71423H4.0731C1.65899 1.71423 0.428711 2.86513 0.428711 5.17818V18.5423C0.428711 20.8553 1.65899 22.0062 4.0731 22.0062ZM3.91062 20.441C2.87763 20.441 1.9864 19.682 1.9864 18.6428V8.38515C1.9864 7.35712 2.87763 6.42852 3.91062 6.42852H20.0782C21.1111 6.42852 22.0139 7.35712 22.0139 8.38515V18.6428C22.0139 19.682 21.1212 20.441 20.0883 20.441H3.91062Z" fill="#445B6A"/>
<path d="M8.14802 18.1157C7.07659 18.1157 6.25802 17.7214 5.69231 16.9328C5.12659 16.1357 4.84373 14.9785 4.84373 13.4614C4.84373 11.9528 5.12659 10.8042 5.69231 10.0157C6.25802 9.21852 7.07659 8.81995 8.14802 8.81995C9.21945 8.81995 10.038 9.21852 10.6037 10.0157C11.1694 10.8042 11.4523 11.9528 11.4523 13.4614C11.4523 14.9699 11.1694 16.1228 10.6037 16.9199C10.038 17.7171 9.21945 18.1157 8.14802 18.1157ZM8.14802 16.8171C8.73088 16.8171 9.15516 16.5514 9.42088 16.0199C9.68659 15.4799 9.81945 14.6271 9.81945 13.4614C9.81945 12.2871 9.68659 11.4385 9.42088 10.9157C9.15516 10.3842 8.73088 10.1185 8.14802 10.1185C7.56516 10.1185 7.14088 10.3842 6.87516 10.9157C6.60945 11.4471 6.47659 12.2957 6.47659 13.4614C6.47659 14.6271 6.60945 15.4799 6.87516 16.0199C7.14088 16.5514 7.56516 16.8171 8.14802 16.8171Z" fill="#445B6A"/>
<path d="M17.593 13.3457C18.1244 13.4914 18.5316 13.7571 18.8144 14.1428C19.1059 14.5285 19.2516 14.9999 19.2516 15.5571C19.2516 16.3542 18.9516 16.9799 18.3516 17.4342C17.7516 17.8799 16.9201 18.1028 15.8573 18.1028C14.7944 18.1028 13.963 17.8799 13.363 17.4342C12.763 16.9799 12.463 16.3542 12.463 15.5571C12.463 14.9999 12.6087 14.5285 12.9001 14.1428C13.1916 13.7485 13.603 13.4828 14.1344 13.3457C13.6801 13.1742 13.3244 12.9085 13.0673 12.5485C12.8101 12.1799 12.6816 11.7514 12.6816 11.2628C12.6816 10.5085 12.9644 9.9128 13.5301 9.47566C14.0959 9.03852 14.8716 8.81995 15.8573 8.81995C16.843 8.81995 17.6187 9.03852 18.1844 9.47566C18.7501 9.9128 19.033 10.5085 19.033 11.2628C19.033 11.7599 18.9044 12.1928 18.6473 12.5614C18.3901 12.9299 18.0387 13.1914 17.593 13.3457ZM15.8573 10.1185C14.7859 10.1185 14.2501 10.5557 14.2501 11.4299C14.2501 11.8671 14.383 12.2014 14.6487 12.4328C14.923 12.6557 15.3259 12.7671 15.8573 12.7671C16.3887 12.7671 16.7873 12.6557 17.053 12.4328C17.3273 12.2014 17.4644 11.8671 17.4644 11.4299C17.4644 10.5557 16.9287 10.1185 15.8573 10.1185ZM15.8573 16.8042C17.083 16.8042 17.6959 16.3457 17.6959 15.4285C17.6959 14.5114 17.083 14.0528 15.8573 14.0528C14.6316 14.0528 14.0187 14.5114 14.0187 15.4285C14.0187 16.3457 14.6316 16.8042 15.8573 16.8042Z" fill="#445B6A"/>
</svg>
