<svg width="24" height="24" viewBox="0 0 24 24" fill="none" xmlns="http://www.w3.org/2000/svg">
<path d="M4.0731 22.0062H19.9273C22.3531 22.0062 23.5716 20.8441 23.5716 18.5423V5.17818C23.5716 2.87634 22.3531 1.71423 19.9273 1.71423H4.0731C1.65899 1.71423 0.428711 2.86513 0.428711 5.17818V18.5423C0.428711 20.8553 1.65899 22.0062 4.0731 22.0062ZM3.91062 20.441C2.87763 20.441 1.9864 19.682 1.9864 18.6428V8.38515C1.9864 7.35712 2.87763 6.42852 3.91062 6.42852H20.0782C21.1111 6.42852 22.0139 7.35712 22.0139 8.38515V18.6428C22.0139 19.682 21.1212 20.441 20.0883 20.441H3.91062Z" fill="#445B6A"/>
<path d="M8.14802 18.1157C7.07659 18.1157 6.25802 17.7214 5.69231 16.9328C5.12659 16.1357 4.84373 14.9785 4.84373 13.4614C4.84373 11.9528 5.12659 10.8042 5.69231 10.0157C6.25802 9.21852 7.07659 8.81995 8.14802 8.81995C9.21945 8.81995 10.038 9.21852 10.6037 10.0157C11.1694 10.8042 11.4523 11.9528 11.4523 13.4614C11.4523 14.9699 11.1694 16.1228 10.6037 16.9199C10.038 17.7171 9.21945 18.1157 8.14802 18.1157ZM8.14802 16.8171C8.73088 16.8171 9.15516 16.5514 9.42088 16.0199C9.68659 15.4799 9.81945 14.6271 9.81945 13.4614C9.81945 12.2871 9.68659 11.4385 9.42088 10.9157C9.15516 10.3842 8.73088 10.1185 8.14802 10.1185C7.56516 10.1185 7.14088 10.3842 6.87516 10.9157C6.60945 11.4471 6.47659 12.2957 6.47659 13.4614C6.47659 14.6271 6.60945 15.4799 6.87516 16.0199C7.14088 16.5514 7.56516 16.8171 8.14802 16.8171Z" fill="#445B6A"/>
<path d="M15.5616 8.81995C16.7101 8.81995 17.593 9.20995 18.2101 9.98995C18.8359 10.7614 19.1487 11.8671 19.1487 13.3071C19.1487 14.2928 19.003 15.1499 18.7116 15.8785C18.4201 16.5985 18.0001 17.1514 17.4516 17.5371C16.9116 17.9228 16.273 18.1157 15.5359 18.1157C15.0473 18.1157 14.5544 18.0299 14.0573 17.8585C13.5687 17.6785 13.153 17.4385 12.8101 17.1385C12.6987 17.0442 12.6173 16.9542 12.5659 16.8685C12.523 16.7742 12.5016 16.6628 12.5016 16.5342C12.5016 16.3457 12.553 16.1871 12.6559 16.0585C12.7673 15.9214 12.8959 15.8528 13.0416 15.8528C13.1273 15.8528 13.2087 15.8699 13.2859 15.9042C13.363 15.9299 13.4573 15.9771 13.5687 16.0457C14.2801 16.5428 14.9144 16.7914 15.4716 16.7914C16.0973 16.7914 16.5901 16.5042 16.9501 15.9299C17.3101 15.3471 17.4987 14.5328 17.5159 13.4871C17.3187 13.8728 17.023 14.1814 16.6287 14.4128C16.2344 14.6357 15.793 14.7471 15.3044 14.7471C14.7644 14.7471 14.2844 14.6271 13.8644 14.3871C13.4444 14.1385 13.1144 13.7957 12.8744 13.3585C12.643 12.9128 12.5273 12.4071 12.5273 11.8414C12.5273 11.2585 12.6559 10.7399 12.913 10.2857C13.1787 9.8228 13.5387 9.4628 13.993 9.20566C14.4559 8.94852 14.9787 8.81995 15.5616 8.81995ZM15.6516 13.4357C16.1316 13.4357 16.5173 13.2857 16.8087 12.9857C17.1087 12.6771 17.2587 12.2785 17.2587 11.7899C17.2587 11.2928 17.1087 10.8942 16.8087 10.5942C16.5173 10.2857 16.1316 10.1314 15.6516 10.1314C15.1801 10.1314 14.803 10.2857 14.5201 10.5942C14.2373 10.8942 14.0959 11.2928 14.0959 11.7899C14.0959 12.2871 14.2373 12.6857 14.5201 12.9857C14.803 13.2857 15.1801 13.4357 15.6516 13.4357Z" fill="#445B6A"/>
</svg>
