<svg width="24" height="24" viewBox="0 0 24 24" fill="none" xmlns="http://www.w3.org/2000/svg">
<path d="M4.0731 22.0063H19.9273C22.3531 22.0063 23.5716 20.8442 23.5716 18.5424V5.1783C23.5716 2.87646 22.3531 1.71436 19.9273 1.71436H4.0731C1.65899 1.71436 0.428711 2.86525 0.428711 5.1783V18.5424C0.428711 20.8554 1.65899 22.0063 4.0731 22.0063ZM3.91062 20.4411C2.87763 20.4411 1.9864 19.6821 1.9864 18.6429V8.38527C1.9864 7.35724 2.87763 6.42864 3.91062 6.42864H20.0782C21.1111 6.42864 22.0139 7.35724 22.0139 8.38527V18.6429C22.0139 19.6821 21.1212 20.4411 20.0883 20.4411H3.91062Z" fill="#445B6A"/>
<path d="M10.726 16.6629C11.2403 16.6629 11.4975 16.8815 11.4975 17.3186C11.4975 17.7729 11.2403 18.0001 10.726 18.0001H6.38031C5.85746 18.0001 5.59603 17.7729 5.59603 17.3186C5.59603 16.8815 5.85746 16.6629 6.38031 16.6629H7.71746V10.8001L6.48317 11.5586C6.36317 11.6272 6.25603 11.6615 6.16174 11.6615C5.98174 11.6615 5.82746 11.5844 5.69888 11.4301C5.57888 11.2758 5.51888 11.1044 5.51888 10.9158C5.51888 10.6672 5.63031 10.4744 5.85317 10.3372L7.84603 9.10293C8.10317 8.94864 8.34746 8.8715 8.57888 8.8715C8.81888 8.8715 9.01174 8.94435 9.15746 9.09007C9.30317 9.23578 9.37603 9.43721 9.37603 9.69435V16.6629H10.726Z" fill="#445B6A"/>
<path d="M18.3967 16.6629C18.911 16.6629 19.1681 16.8815 19.1681 17.3186C19.1681 17.7729 18.911 18.0001 18.3967 18.0001H13.511C13.2881 18.0001 13.1124 17.9358 12.9839 17.8072C12.8553 17.6701 12.791 17.5029 12.791 17.3058C12.791 17.0486 12.8896 16.8172 13.0867 16.6115L16.0181 13.4615C16.3781 13.0672 16.6396 12.7072 16.8024 12.3815C16.9739 12.0472 17.0596 11.7172 17.0596 11.3915C17.0596 10.9886 16.9439 10.6801 16.7124 10.4658C16.481 10.2515 16.151 10.1444 15.7224 10.1444C15.371 10.1444 15.0281 10.2129 14.6939 10.3501C14.3681 10.4786 14.0381 10.6586 13.7039 10.8901C13.6181 10.9501 13.5324 11.0015 13.4467 11.0444C13.361 11.0786 13.2753 11.0958 13.1896 11.0958C13.0439 11.0958 12.9153 11.0272 12.8039 10.8901C12.701 10.7529 12.6496 10.5901 12.6496 10.4015C12.6496 10.2729 12.671 10.1615 12.7139 10.0672C12.7653 9.97293 12.8424 9.88293 12.9453 9.79721C13.3224 9.49721 13.7639 9.2615 14.2696 9.09007C14.7753 8.91007 15.281 8.82007 15.7867 8.82007C16.6696 8.82007 17.3724 9.04293 17.8953 9.48864C18.4267 9.93435 18.6924 10.5344 18.6924 11.2886C18.6924 11.8115 18.581 12.3044 18.3581 12.7672C18.1353 13.2215 17.7581 13.7315 17.2267 14.2972L15.0024 16.6629H18.3967Z" fill="#445B6A"/>
</svg>
