<svg width="24" height="24" viewBox="0 0 24 24" fill="none" xmlns="http://www.w3.org/2000/svg">
<path d="M4.0731 22.0063H19.9273C22.3531 22.0063 23.5716 20.8442 23.5716 18.5424V5.1783C23.5716 2.87646 22.3531 1.71436 19.9273 1.71436H4.0731C1.65899 1.71436 0.428711 2.86525 0.428711 5.1783V18.5424C0.428711 20.8554 1.65899 22.0063 4.0731 22.0063ZM3.91062 20.4411C2.87763 20.4411 1.9864 19.6821 1.9864 18.6429V8.38527C1.9864 7.35724 2.87763 6.42864 3.91062 6.42864H20.0782C21.1111 6.42864 22.0139 7.35724 22.0139 8.38527V18.6429C22.0139 19.6821 21.1212 20.4411 20.0883 20.4411H3.91062Z" fill="#445B6A"/>
<path d="M10.7323 16.6629C11.2466 16.6629 11.5037 16.8815 11.5037 17.3186C11.5037 17.7729 11.2466 18.0001 10.7323 18.0001H6.38659C5.86373 18.0001 5.6023 17.7729 5.6023 17.3186C5.6023 16.8815 5.86373 16.6629 6.38659 16.6629H7.72373V10.8001L6.48945 11.5586C6.36945 11.6272 6.2623 11.6615 6.16802 11.6615C5.98802 11.6615 5.83373 11.5844 5.70516 11.4301C5.58516 11.2758 5.52516 11.1044 5.52516 10.9158C5.52516 10.6672 5.63659 10.4744 5.85945 10.3372L7.8523 9.10293C8.10945 8.94864 8.35373 8.8715 8.58516 8.8715C8.82516 8.8715 9.01802 8.94435 9.16373 9.09007C9.30945 9.23578 9.38231 9.43721 9.38231 9.69435V16.6629H10.7323Z" fill="#445B6A"/>
<path d="M17.2459 13.3458C17.7859 13.4829 18.1973 13.7444 18.4801 14.1301C18.7716 14.5072 18.9173 14.9786 18.9173 15.5444C18.9173 16.3244 18.6301 16.9458 18.0559 17.4086C17.4816 17.8715 16.7059 18.1029 15.7287 18.1029C15.1716 18.1029 14.6359 18.0172 14.1216 17.8458C13.6073 17.6744 13.1701 17.4344 12.8101 17.1258C12.613 16.9544 12.5144 16.7529 12.5144 16.5215C12.5144 16.3329 12.5659 16.1744 12.6687 16.0458C12.7801 15.9086 12.9087 15.8401 13.0544 15.8401C13.1401 15.8401 13.2173 15.8572 13.2859 15.8915C13.3544 15.9172 13.4487 15.9644 13.5687 16.0329C13.9287 16.2729 14.2716 16.4572 14.5973 16.5858C14.923 16.7144 15.2787 16.7786 15.6644 16.7786C16.2301 16.7786 16.6501 16.6672 16.9244 16.4444C17.1987 16.2129 17.3359 15.8658 17.3359 15.4029C17.3359 14.9486 17.1901 14.6144 16.8987 14.4001C16.6159 14.1772 16.1744 14.0658 15.5744 14.0658H14.8416C14.6444 14.0658 14.4901 14.0015 14.3787 13.8729C14.2759 13.7358 14.2244 13.5815 14.2244 13.4101C14.2244 13.2301 14.2759 13.0758 14.3787 12.9472C14.4901 12.8186 14.6444 12.7544 14.8416 12.7544H15.3559C16.5301 12.7544 17.1173 12.3129 17.1173 11.4301C17.1173 11.0186 16.993 10.7015 16.7444 10.4786C16.4959 10.2558 16.153 10.1444 15.7159 10.1444C15.0901 10.1444 14.4216 10.3929 13.7101 10.8901C13.5901 10.9586 13.4959 11.0101 13.4273 11.0444C13.3587 11.0701 13.2816 11.0829 13.1959 11.0829C13.0501 11.0829 12.9216 11.0186 12.8101 10.8901C12.7073 10.7529 12.6559 10.5901 12.6559 10.4015C12.6559 10.2729 12.6773 10.1658 12.7201 10.0801C12.7716 9.98578 12.8487 9.8915 12.9516 9.79721C13.3116 9.49721 13.7401 9.2615 14.2373 9.09007C14.743 8.91007 15.2573 8.82007 15.7801 8.82007C16.6716 8.82007 17.3787 9.03864 17.9016 9.47578C18.433 9.91293 18.6987 10.4958 18.6987 11.2244C18.6901 11.7215 18.5573 12.1586 18.3001 12.5358C18.0516 12.9044 17.7001 13.1744 17.2459 13.3458Z" fill="#445B6A"/>
</svg>
