<svg width="24" height="24" viewBox="0 0 24 24" fill="none" xmlns="http://www.w3.org/2000/svg">
<path d="M4.0731 22.0063H19.9273C22.3531 22.0063 23.5716 20.8442 23.5716 18.5424V5.1783C23.5716 2.87646 22.3531 1.71436 19.9273 1.71436H4.0731C1.65899 1.71436 0.428711 2.86525 0.428711 5.1783V18.5424C0.428711 20.8554 1.65899 22.0063 4.0731 22.0063ZM3.91062 20.4411C2.87763 20.4411 1.9864 19.6821 1.9864 18.6429V8.38527C1.9864 7.35724 2.87763 6.42864 3.91062 6.42864H20.0782C21.1111 6.42864 22.0139 7.35724 22.0139 8.38527V18.6429C22.0139 19.6821 21.1212 20.4411 20.0883 20.4411H3.91062Z" fill="#445B6A"/>
<path d="M10.7323 16.6629C11.2466 16.6629 11.5037 16.8815 11.5037 17.3186C11.5037 17.7729 11.2466 18.0001 10.7323 18.0001H6.38659C5.86373 18.0001 5.6023 17.7729 5.6023 17.3186C5.6023 16.8815 5.86373 16.6629 6.38659 16.6629H7.72373V10.8001L6.48945 11.5586C6.36945 11.6272 6.2623 11.6615 6.16802 11.6615C5.98802 11.6615 5.83373 11.5844 5.70516 11.4301C5.58516 11.2758 5.52516 11.1044 5.52516 10.9158C5.52516 10.6672 5.63659 10.4744 5.85945 10.3372L7.8523 9.10293C8.10945 8.94864 8.35373 8.8715 8.58516 8.8715C8.82516 8.8715 9.01802 8.94435 9.16373 9.09007C9.30945 9.23578 9.38231 9.43721 9.38231 9.69435V16.6629H10.7323Z" fill="#445B6A"/>
<path d="M18.7501 14.9401C19.0073 14.9401 19.2001 14.9958 19.3287 15.1072C19.4573 15.2186 19.5216 15.3772 19.5216 15.5829C19.5216 16.0115 19.2644 16.2258 18.7501 16.2258H18.0944V17.2415C18.0944 17.5072 18.0173 17.7129 17.863 17.8586C17.7173 18.0044 17.5244 18.0772 17.2844 18.0772C17.0444 18.0772 16.8473 18.0044 16.693 17.8586C16.5473 17.7129 16.4744 17.5072 16.4744 17.2415V16.2258H13.1059C12.8744 16.2258 12.6944 16.1615 12.5659 16.0329C12.4373 15.8958 12.373 15.7286 12.373 15.5315C12.373 15.3258 12.4416 15.1286 12.5787 14.9401L16.5516 9.2315C16.6373 9.1115 16.7444 9.0215 16.873 8.9615C17.0016 8.89293 17.1344 8.85864 17.2716 8.85864C17.4944 8.85864 17.6873 8.9315 17.8501 9.07721C18.013 9.22293 18.0944 9.42864 18.0944 9.69435V14.9401H18.7501ZM14.083 14.9401H16.4744V11.4815L14.083 14.9401Z" fill="#445B6A"/>
</svg>
