<svg width="24" height="24" viewBox="0 0 24 24" fill="none" xmlns="http://www.w3.org/2000/svg">
<path d="M4.0731 22.0063H19.9273C22.3531 22.0063 23.5716 20.8442 23.5716 18.5424V5.1783C23.5716 2.87646 22.3531 1.71436 19.9273 1.71436H4.0731C1.65899 1.71436 0.428711 2.86525 0.428711 5.1783V18.5424C0.428711 20.8554 1.65899 22.0063 4.0731 22.0063ZM3.91062 20.4411C2.87763 20.4411 1.9864 19.6821 1.9864 18.6429V8.38527C1.9864 7.35724 2.87763 6.42864 3.91062 6.42864H20.0782C21.1111 6.42864 22.0139 7.35724 22.0139 8.38527V18.6429C22.0139 19.6821 21.1212 20.4411 20.0883 20.4411H3.91062Z" fill="#445B6A"/>
<path d="M10.7323 16.6629C11.2466 16.6629 11.5037 16.8815 11.5037 17.3186C11.5037 17.7729 11.2466 18.0001 10.7323 18.0001H6.38659C5.86373 18.0001 5.6023 17.7729 5.6023 17.3186C5.6023 16.8815 5.86373 16.6629 6.38659 16.6629H7.72373V10.8001L6.48945 11.5586C6.36945 11.6272 6.2623 11.6615 6.16802 11.6615C5.98802 11.6615 5.83373 11.5844 5.70516 11.4301C5.58516 11.2758 5.52516 11.1044 5.52516 10.9158C5.52516 10.6672 5.63659 10.4744 5.85945 10.3372L7.8523 9.10293C8.10945 8.94864 8.35373 8.8715 8.58516 8.8715C8.82516 8.8715 9.01802 8.94435 9.16373 9.09007C9.30945 9.23578 9.38231 9.43721 9.38231 9.69435V16.6629H10.7323Z" fill="#445B6A"/>
<path d="M16.333 12.2015C16.8987 12.2015 17.3959 12.3258 17.8244 12.5744C18.2616 12.8144 18.6001 13.1529 18.8401 13.5901C19.0801 14.0272 19.2001 14.5286 19.2001 15.0944C19.2001 15.6858 19.063 16.2086 18.7887 16.6629C18.523 17.1172 18.1416 17.4729 17.6444 17.7301C17.1559 17.9786 16.5901 18.1029 15.9473 18.1029C15.4159 18.1029 14.893 18.0172 14.3787 17.8458C13.873 17.6658 13.4401 17.4258 13.0801 17.1258C12.883 16.9544 12.7844 16.7529 12.7844 16.5215C12.7844 16.3329 12.8359 16.1744 12.9387 16.0458C13.0501 15.9086 13.1787 15.8401 13.3244 15.8401C13.4101 15.8401 13.4916 15.8572 13.5687 15.8915C13.6459 15.9172 13.7359 15.9644 13.8387 16.0329C14.1816 16.2729 14.5159 16.4572 14.8416 16.5858C15.1673 16.7144 15.5144 16.7786 15.883 16.7786C16.4487 16.7786 16.8816 16.6372 17.1816 16.3544C17.4816 16.0715 17.6316 15.6686 17.6316 15.1458C17.6316 14.6401 17.4773 14.2415 17.1687 13.9501C16.8687 13.6501 16.453 13.5001 15.9216 13.5001C15.5873 13.5001 15.2873 13.5472 15.0216 13.6415C14.7644 13.7358 14.4987 13.8944 14.2244 14.1172C14.0616 14.2286 13.8944 14.2844 13.723 14.2844C13.5516 14.2844 13.4059 14.2329 13.2859 14.1301C13.1659 14.0272 13.1059 13.8901 13.1059 13.7186V9.70721C13.1059 9.46721 13.1744 9.27864 13.3116 9.1415C13.4487 9.00435 13.6416 8.93578 13.8901 8.93578H18.1716C18.6859 8.93578 18.943 9.15007 18.943 9.57864C18.943 10.0072 18.6859 10.2215 18.1716 10.2215H14.7259V12.6644C15.163 12.3558 15.6987 12.2015 16.333 12.2015Z" fill="#445B6A"/>
</svg>
