<svg width="24" height="24" viewBox="0 0 24 24" fill="none" xmlns="http://www.w3.org/2000/svg">
<path d="M4.0731 22.0063H19.9273C22.3531 22.0063 23.5716 20.8442 23.5716 18.5424V5.1783C23.5716 2.87646 22.3531 1.71436 19.9273 1.71436H4.0731C1.65899 1.71436 0.428711 2.86525 0.428711 5.1783V18.5424C0.428711 20.8554 1.65899 22.0063 4.0731 22.0063ZM3.91062 20.4411C2.87763 20.4411 1.9864 19.6821 1.9864 18.6429V8.38527C1.9864 7.35724 2.87763 6.42864 3.91062 6.42864H20.0782C21.1111 6.42864 22.0139 7.35724 22.0139 8.38527V18.6429C22.0139 19.6821 21.1212 20.4411 20.0883 20.4411H3.91062Z" fill="#445B6A"/>
<path d="M10.7323 16.6629C11.2466 16.6629 11.5037 16.8815 11.5037 17.3186C11.5037 17.7729 11.2466 18.0001 10.7323 18.0001H6.38659C5.86373 18.0001 5.6023 17.7729 5.6023 17.3186C5.6023 16.8815 5.86373 16.6629 6.38659 16.6629H7.72373V10.8001L6.48945 11.5586C6.36945 11.6272 6.2623 11.6615 6.16802 11.6615C5.98802 11.6615 5.83373 11.5844 5.70516 11.4301C5.58516 11.2758 5.52516 11.1044 5.52516 10.9158C5.52516 10.6672 5.63659 10.4744 5.85945 10.3372L7.8523 9.10293C8.10945 8.94864 8.35373 8.8715 8.58516 8.8715C8.82516 8.8715 9.01802 8.94435 9.16373 9.09007C9.30945 9.23578 9.38231 9.43721 9.38231 9.69435V16.6629H10.7323Z" fill="#445B6A"/>
<path d="M16.4101 12.1886C16.9501 12.1886 17.4301 12.3129 17.8501 12.5615C18.2701 12.8015 18.5959 13.1444 18.8273 13.5901C19.0673 14.0272 19.1873 14.5286 19.1873 15.0944C19.1873 15.6772 19.0544 16.2001 18.7887 16.6629C18.5316 17.1172 18.1716 17.4729 17.7087 17.7301C17.2544 17.9872 16.7359 18.1158 16.153 18.1158C15.0044 18.1158 14.1173 17.7301 13.4916 16.9586C12.8744 16.1786 12.5659 15.0686 12.5659 13.6286C12.5659 12.6429 12.7116 11.7901 13.003 11.0701C13.2944 10.3415 13.7101 9.78435 14.2501 9.39864C14.7987 9.01293 15.4416 8.82007 16.1787 8.82007C16.6673 8.82007 17.1559 8.91007 17.6444 9.09007C18.1416 9.2615 18.5616 9.49721 18.9044 9.79721C19.0159 9.8915 19.093 9.98578 19.1359 10.0801C19.1873 10.1658 19.213 10.2729 19.213 10.4015C19.213 10.5901 19.1573 10.7529 19.0459 10.8901C18.943 11.0186 18.8187 11.0829 18.673 11.0829C18.5873 11.0829 18.5059 11.0701 18.4287 11.0444C18.3516 11.0101 18.2573 10.9586 18.1459 10.8901C17.4344 10.3929 16.8001 10.1444 16.243 10.1444C15.6173 10.1444 15.1244 10.4358 14.7644 11.0186C14.4044 11.5929 14.2159 12.4029 14.1987 13.4486C14.3959 13.0629 14.6916 12.7586 15.0859 12.5358C15.4801 12.3044 15.9216 12.1886 16.4101 12.1886ZM16.063 16.8044C16.5344 16.8044 16.9116 16.6544 17.1944 16.3544C17.4773 16.0458 17.6187 15.6429 17.6187 15.1458C17.6187 14.6486 17.4773 14.2501 17.1944 13.9501C16.9116 13.6501 16.5344 13.5001 16.063 13.5001C15.583 13.5001 15.193 13.6544 14.893 13.9629C14.6016 14.2629 14.4559 14.6572 14.4559 15.1458C14.4559 15.6429 14.6016 16.0458 14.893 16.3544C15.193 16.6544 15.583 16.8044 16.063 16.8044Z" fill="#445B6A"/>
</svg>
