<svg width="24" height="24" viewBox="0 0 24 24" fill="none" xmlns="http://www.w3.org/2000/svg">
<path d="M4.0731 22.0063H19.9273C22.3531 22.0063 23.5716 20.8442 23.5716 18.5424V5.1783C23.5716 2.87646 22.3531 1.71436 19.9273 1.71436H4.0731C1.65899 1.71436 0.428711 2.86525 0.428711 5.1783V18.5424C0.428711 20.8554 1.65899 22.0063 4.0731 22.0063ZM3.91062 20.4411C2.87763 20.4411 1.9864 19.6821 1.9864 18.6429V8.38527C1.9864 7.35724 2.87763 6.42864 3.91062 6.42864H20.0782C21.1111 6.42864 22.0139 7.35724 22.0139 8.38527V18.6429C22.0139 19.6821 21.1212 20.4411 20.0883 20.4411H3.91062Z" fill="#445B6A"/>
<path d="M10.7323 16.6629C11.2466 16.6629 11.5037 16.8815 11.5037 17.3186C11.5037 17.7729 11.2466 18.0001 10.7323 18.0001H6.38659C5.86373 18.0001 5.6023 17.7729 5.6023 17.3186C5.6023 16.8815 5.86373 16.6629 6.38659 16.6629H7.72373V10.8001L6.48945 11.5586C6.36945 11.6272 6.2623 11.6615 6.16802 11.6615C5.98802 11.6615 5.83373 11.5844 5.70516 11.4301C5.58516 11.2758 5.52516 11.1044 5.52516 10.9158C5.52516 10.6672 5.63659 10.4744 5.85945 10.3372L7.8523 9.10293C8.10945 8.94864 8.35373 8.8715 8.58516 8.8715C8.82516 8.8715 9.01802 8.94435 9.16373 9.09007C9.30945 9.23578 9.38231 9.43721 9.38231 9.69435V16.6629H10.7323Z" fill="#445B6A"/>
<path d="M18.4673 8.93578C18.6901 8.93578 18.8616 9.00007 18.9816 9.12864C19.1016 9.24864 19.1616 9.40721 19.1616 9.60435C19.1616 9.8015 19.1016 10.0072 18.9816 10.2215L14.8801 17.6658C14.7087 17.9572 14.473 18.1029 14.173 18.1029C13.9673 18.1029 13.783 18.0344 13.6201 17.8972C13.4659 17.7515 13.3887 17.5758 13.3887 17.3701C13.3887 17.2244 13.4316 17.0786 13.5173 16.9329L17.2073 10.2729H13.3244C12.8101 10.2729 12.553 10.0544 12.553 9.61721C12.553 9.16293 12.8101 8.93578 13.3244 8.93578H18.4673Z" fill="#445B6A"/>
</svg>
