<svg width="24" height="24" viewBox="0 0 24 24" fill="none" xmlns="http://www.w3.org/2000/svg">
<path d="M4.0731 22.0063H19.9273C22.3531 22.0063 23.5716 20.8442 23.5716 18.5424V5.1783C23.5716 2.87646 22.3531 1.71436 19.9273 1.71436H4.0731C1.65899 1.71436 0.428711 2.86525 0.428711 5.1783V18.5424C0.428711 20.8554 1.65899 22.0063 4.0731 22.0063ZM3.91062 20.4411C2.87763 20.4411 1.9864 19.6821 1.9864 18.6429V8.38527C1.9864 7.35724 2.87763 6.42864 3.91062 6.42864H20.0782C21.1111 6.42864 22.0139 7.35724 22.0139 8.38527V18.6429C22.0139 19.6821 21.1212 20.4411 20.0883 20.4411H3.91062Z" fill="#445B6A"/>
<path d="M10.7323 16.6629C11.2466 16.6629 11.5037 16.8815 11.5037 17.3186C11.5037 17.7729 11.2466 18.0001 10.7323 18.0001H6.38659C5.86373 18.0001 5.6023 17.7729 5.6023 17.3186C5.6023 16.8815 5.86373 16.6629 6.38659 16.6629H7.72373V10.8001L6.48945 11.5586C6.36945 11.6272 6.2623 11.6615 6.16802 11.6615C5.98802 11.6615 5.83373 11.5844 5.70516 11.4301C5.58516 11.2758 5.52516 11.1044 5.52516 10.9158C5.52516 10.6672 5.63659 10.4744 5.85945 10.3372L7.8523 9.10293C8.10945 8.94864 8.35373 8.8715 8.58516 8.8715C8.82516 8.8715 9.01802 8.94435 9.16373 9.09007C9.30945 9.23578 9.38231 9.43721 9.38231 9.69435V16.6629H10.7323Z" fill="#445B6A"/>
<path d="M17.593 13.3458C18.1244 13.4915 18.5316 13.7572 18.8144 14.1429C19.1059 14.5286 19.2516 15.0001 19.2516 15.5572C19.2516 16.3544 18.9516 16.9801 18.3516 17.4344C17.7516 17.8801 16.9201 18.1029 15.8573 18.1029C14.7944 18.1029 13.963 17.8801 13.363 17.4344C12.763 16.9801 12.463 16.3544 12.463 15.5572C12.463 15.0001 12.6087 14.5286 12.9001 14.1429C13.1916 13.7486 13.603 13.4829 14.1344 13.3458C13.6801 13.1744 13.3244 12.9086 13.0673 12.5486C12.8101 12.1801 12.6816 11.7515 12.6816 11.2629C12.6816 10.5086 12.9644 9.91293 13.5301 9.47578C14.0959 9.03864 14.8716 8.82007 15.8573 8.82007C16.843 8.82007 17.6187 9.03864 18.1844 9.47578C18.7501 9.91293 19.033 10.5086 19.033 11.2629C19.033 11.7601 18.9044 12.1929 18.6473 12.5615C18.3901 12.9301 18.0387 13.1915 17.593 13.3458ZM15.8573 10.1186C14.7859 10.1186 14.2501 10.5558 14.2501 11.4301C14.2501 11.8672 14.383 12.2015 14.6487 12.4329C14.923 12.6558 15.3259 12.7672 15.8573 12.7672C16.3887 12.7672 16.7873 12.6558 17.053 12.4329C17.3273 12.2015 17.4644 11.8672 17.4644 11.4301C17.4644 10.5558 16.9287 10.1186 15.8573 10.1186ZM15.8573 16.8044C17.083 16.8044 17.6959 16.3458 17.6959 15.4286C17.6959 14.5115 17.083 14.0529 15.8573 14.0529C14.6316 14.0529 14.0187 14.5115 14.0187 15.4286C14.0187 16.3458 14.6316 16.8044 15.8573 16.8044Z" fill="#445B6A"/>
</svg>
