<svg width="24" height="24" viewBox="0 0 24 24" fill="none" xmlns="http://www.w3.org/2000/svg">
<path d="M4.0731 22.0063H19.9273C22.3531 22.0063 23.5716 20.8442 23.5716 18.5424V5.1783C23.5716 2.87646 22.3531 1.71436 19.9273 1.71436H4.0731C1.65899 1.71436 0.428711 2.86525 0.428711 5.1783V18.5424C0.428711 20.8554 1.65899 22.0063 4.0731 22.0063ZM3.91062 20.4411C2.87763 20.4411 1.9864 19.6821 1.9864 18.6429V8.38527C1.9864 7.35724 2.87763 6.42864 3.91062 6.42864H20.0782C21.1111 6.42864 22.0139 7.35724 22.0139 8.38527V18.6429C22.0139 19.6821 21.1212 20.4411 20.0883 20.4411H3.91062Z" fill="#445B6A"/>
<path d="M10.7323 16.6629C11.2466 16.6629 11.5037 16.8815 11.5037 17.3186C11.5037 17.7729 11.2466 18.0001 10.7323 18.0001H6.38659C5.86373 18.0001 5.6023 17.7729 5.6023 17.3186C5.6023 16.8815 5.86373 16.6629 6.38659 16.6629H7.72373V10.8001L6.48945 11.5586C6.36945 11.6272 6.2623 11.6615 6.16802 11.6615C5.98802 11.6615 5.83373 11.5844 5.70516 11.4301C5.58516 11.2758 5.52516 11.1044 5.52516 10.9158C5.52516 10.6672 5.63659 10.4744 5.85945 10.3372L7.8523 9.10293C8.10945 8.94864 8.35373 8.8715 8.58516 8.8715C8.82516 8.8715 9.01802 8.94435 9.16373 9.09007C9.30945 9.23578 9.38231 9.43721 9.38231 9.69435V16.6629H10.7323Z" fill="#445B6A"/>
<path d="M15.5616 8.82007C16.7101 8.82007 17.593 9.21007 18.2101 9.99007C18.8359 10.7615 19.1487 11.8672 19.1487 13.3072C19.1487 14.2929 19.003 15.1501 18.7116 15.8786C18.4201 16.5986 18.0001 17.1515 17.4516 17.5372C16.9116 17.9229 16.273 18.1158 15.5359 18.1158C15.0473 18.1158 14.5544 18.0301 14.0573 17.8586C13.5687 17.6786 13.153 17.4386 12.8101 17.1386C12.6987 17.0444 12.6173 16.9544 12.5659 16.8686C12.523 16.7744 12.5016 16.6629 12.5016 16.5344C12.5016 16.3458 12.553 16.1872 12.6559 16.0586C12.7673 15.9215 12.8959 15.8529 13.0416 15.8529C13.1273 15.8529 13.2087 15.8701 13.2859 15.9044C13.363 15.9301 13.4573 15.9772 13.5687 16.0458C14.2801 16.5429 14.9144 16.7915 15.4716 16.7915C16.0973 16.7915 16.5901 16.5044 16.9501 15.9301C17.3101 15.3472 17.4987 14.5329 17.5159 13.4872C17.3187 13.8729 17.023 14.1815 16.6287 14.4129C16.2344 14.6358 15.793 14.7472 15.3044 14.7472C14.7644 14.7472 14.2844 14.6272 13.8644 14.3872C13.4444 14.1386 13.1144 13.7958 12.8744 13.3586C12.643 12.9129 12.5273 12.4072 12.5273 11.8415C12.5273 11.2586 12.6559 10.7401 12.913 10.2858C13.1787 9.82293 13.5387 9.46293 13.993 9.20578C14.4559 8.94864 14.9787 8.82007 15.5616 8.82007ZM15.6516 13.4358C16.1316 13.4358 16.5173 13.2858 16.8087 12.9858C17.1087 12.6772 17.2587 12.2786 17.2587 11.7901C17.2587 11.2929 17.1087 10.8944 16.8087 10.5944C16.5173 10.2858 16.1316 10.1315 15.6516 10.1315C15.1801 10.1315 14.803 10.2858 14.5201 10.5944C14.2373 10.8944 14.0959 11.2929 14.0959 11.7901C14.0959 12.2872 14.2373 12.6858 14.5201 12.9858C14.803 13.2858 15.1801 13.4358 15.6516 13.4358Z" fill="#445B6A"/>
</svg>
