<svg width="24" height="24" viewBox="0 0 24 24" fill="none" xmlns="http://www.w3.org/2000/svg">
<path d="M4.0731 22.0063H19.9273C22.3531 22.0063 23.5716 20.8442 23.5716 18.5424V5.1783C23.5716 2.87646 22.3531 1.71436 19.9273 1.71436H4.0731C1.65899 1.71436 0.428711 2.86525 0.428711 5.1783V18.5424C0.428711 20.8554 1.65899 22.0063 4.0731 22.0063ZM3.91062 20.4411C2.87763 20.4411 1.9864 19.6821 1.9864 18.6429V8.38527C1.9864 7.35724 2.87763 6.42864 3.91062 6.42864H20.0782C21.1111 6.42864 22.0139 7.35724 22.0139 8.38527V18.6429C22.0139 19.6821 21.1212 20.4411 20.0883 20.4411H3.91062Z" fill="#445B6A"/>
<path d="M10.6875 16.6629C11.2017 16.6629 11.4589 16.8815 11.4589 17.3186C11.4589 17.7729 11.2017 18.0001 10.6875 18.0001H5.80174C5.57888 18.0001 5.40317 17.9358 5.2746 17.8072C5.14603 17.6701 5.08174 17.5029 5.08174 17.3058C5.08174 17.0486 5.18031 16.8172 5.37746 16.6115L8.30888 13.4615C8.66888 13.0672 8.93031 12.7072 9.09317 12.3815C9.2646 12.0472 9.35031 11.7172 9.35031 11.3915C9.35031 10.9886 9.2346 10.6801 9.00317 10.4658C8.77174 10.2515 8.44174 10.1444 8.01317 10.1444C7.66174 10.1444 7.31888 10.2129 6.9846 10.3501C6.65888 10.4786 6.32888 10.6586 5.9946 10.8901C5.90888 10.9501 5.82317 11.0015 5.73746 11.0444C5.65174 11.0786 5.56603 11.0958 5.48031 11.0958C5.3346 11.0958 5.20603 11.0272 5.0946 10.8901C4.99174 10.7529 4.94031 10.5901 4.94031 10.4015C4.94031 10.2729 4.96174 10.1615 5.0046 10.0672C5.05603 9.97293 5.13317 9.88293 5.23603 9.79721C5.61317 9.49721 6.0546 9.2615 6.56031 9.09007C7.06603 8.91007 7.57174 8.82007 8.07746 8.82007C8.96031 8.82007 9.66317 9.04293 10.186 9.48864C10.7175 9.93435 10.9832 10.5344 10.9832 11.2886C10.9832 11.8115 10.8717 12.3044 10.6489 12.7672C10.426 13.2215 10.0489 13.7315 9.51746 14.2972L7.29317 16.6629H10.6875Z" fill="#445B6A"/>
<path d="M15.8636 18.1158C14.7921 18.1158 13.9736 17.7215 13.4078 16.9329C12.8421 16.1358 12.5593 14.9786 12.5593 13.4615C12.5593 11.9529 12.8421 10.8044 13.4078 10.0158C13.9736 9.21864 14.7921 8.82007 15.8636 8.82007C16.935 8.82007 17.7536 9.21864 18.3193 10.0158C18.885 10.8044 19.1678 11.9529 19.1678 13.4615C19.1678 14.9701 18.885 16.1229 18.3193 16.9201C17.7536 17.7172 16.935 18.1158 15.8636 18.1158ZM15.8636 16.8172C16.4464 16.8172 16.8707 16.5515 17.1364 16.0201C17.4021 15.4801 17.535 14.6272 17.535 13.4615C17.535 12.2872 17.4021 11.4386 17.1364 10.9158C16.8707 10.3844 16.4464 10.1186 15.8636 10.1186C15.2807 10.1186 14.8564 10.3844 14.5907 10.9158C14.325 11.4472 14.1921 12.2958 14.1921 13.4615C14.1921 14.6272 14.325 15.4801 14.5907 16.0201C14.8564 16.5515 15.2807 16.8172 15.8636 16.8172Z" fill="#445B6A"/>
</svg>
