<svg width="24" height="24" viewBox="0 0 24 24" fill="none" xmlns="http://www.w3.org/2000/svg">
<path d="M4.0731 22.0063H19.9273C22.3531 22.0063 23.5716 20.8442 23.5716 18.5424V5.1783C23.5716 2.87646 22.3531 1.71436 19.9273 1.71436H4.0731C1.65899 1.71436 0.428711 2.86525 0.428711 5.1783V18.5424C0.428711 20.8554 1.65899 22.0063 4.0731 22.0063ZM3.91062 20.4411C2.87763 20.4411 1.9864 19.6821 1.9864 18.6429V8.38527C1.9864 7.35724 2.87763 6.42864 3.91062 6.42864H20.0782C21.1111 6.42864 22.0139 7.35724 22.0139 8.38527V18.6429C22.0139 19.6821 21.1212 20.4411 20.0883 20.4411H3.91062Z" fill="#445B6A"/>
<path d="M10.6875 16.6629C11.2017 16.6629 11.4589 16.8815 11.4589 17.3186C11.4589 17.7729 11.2017 18.0001 10.6875 18.0001H5.80174C5.57888 18.0001 5.40317 17.9358 5.2746 17.8072C5.14603 17.6701 5.08174 17.5029 5.08174 17.3058C5.08174 17.0486 5.18031 16.8172 5.37746 16.6115L8.30888 13.4615C8.66888 13.0672 8.93031 12.7072 9.09317 12.3815C9.2646 12.0472 9.35031 11.7172 9.35031 11.3915C9.35031 10.9886 9.2346 10.6801 9.00317 10.4658C8.77174 10.2515 8.44174 10.1444 8.01317 10.1444C7.66174 10.1444 7.31888 10.2129 6.9846 10.3501C6.65888 10.4786 6.32888 10.6586 5.9946 10.8901C5.90888 10.9501 5.82317 11.0015 5.73746 11.0444C5.65174 11.0786 5.56603 11.0958 5.48031 11.0958C5.3346 11.0958 5.20603 11.0272 5.0946 10.8901C4.99174 10.7529 4.94031 10.5901 4.94031 10.4015C4.94031 10.2729 4.96174 10.1615 5.0046 10.0672C5.05603 9.97293 5.13317 9.88293 5.23603 9.79721C5.61317 9.49721 6.0546 9.2615 6.56031 9.09007C7.06603 8.91007 7.57174 8.82007 8.07746 8.82007C8.96031 8.82007 9.66317 9.04293 10.186 9.48864C10.7175 9.93435 10.9832 10.5344 10.9832 11.2886C10.9832 11.8115 10.8717 12.3044 10.6489 12.7672C10.426 13.2215 10.0489 13.7315 9.51746 14.2972L7.29317 16.6629H10.6875Z" fill="#445B6A"/>
<path d="M18.4478 16.6629C18.9621 16.6629 19.2193 16.8815 19.2193 17.3186C19.2193 17.7729 18.9621 18.0001 18.4478 18.0001H14.1021C13.5793 18.0001 13.3178 17.7729 13.3178 17.3186C13.3178 16.8815 13.5793 16.6629 14.1021 16.6629H15.4393V10.8001L14.205 11.5586C14.085 11.6272 13.9778 11.6615 13.8836 11.6615C13.7036 11.6615 13.5493 11.5844 13.4207 11.4301C13.3007 11.2758 13.2407 11.1044 13.2407 10.9158C13.2407 10.6672 13.3521 10.4744 13.575 10.3372L15.5678 9.10293C15.825 8.94864 16.0693 8.8715 16.3007 8.8715C16.5407 8.8715 16.7336 8.94435 16.8793 9.09007C17.025 9.23578 17.0978 9.43721 17.0978 9.69435V16.6629H18.4478Z" fill="#445B6A"/>
</svg>
