<svg width="24" height="24" viewBox="0 0 24 24" fill="none" xmlns="http://www.w3.org/2000/svg">
<path d="M4.0731 22.0063H19.9273C22.3531 22.0063 23.5716 20.8442 23.5716 18.5424V5.1783C23.5716 2.87646 22.3531 1.71436 19.9273 1.71436H4.0731C1.65899 1.71436 0.428711 2.86525 0.428711 5.1783V18.5424C0.428711 20.8554 1.65899 22.0063 4.0731 22.0063ZM3.91062 20.4411C2.87763 20.4411 1.9864 19.6821 1.9864 18.6429V8.38527C1.9864 7.35724 2.87763 6.42864 3.91062 6.42864H20.0782C21.1111 6.42864 22.0139 7.35724 22.0139 8.38527V18.6429C22.0139 19.6821 21.1212 20.4411 20.0883 20.4411H3.91062Z" fill="#445B6A"/>
<path d="M10.6812 16.6629C11.1955 16.6629 11.4526 16.8815 11.4526 17.3186C11.4526 17.7729 11.1955 18.0001 10.6812 18.0001H5.79546C5.57261 18.0001 5.39689 17.9358 5.26832 17.8072C5.13975 17.6701 5.07546 17.5029 5.07546 17.3058C5.07546 17.0486 5.17403 16.8172 5.37118 16.6115L8.30261 13.4615C8.66261 13.0672 8.92404 12.7072 9.08689 12.3815C9.25832 12.0472 9.34404 11.7172 9.34404 11.3915C9.34404 10.9886 9.22832 10.6801 8.99689 10.4658C8.76546 10.2515 8.43546 10.1444 8.00689 10.1444C7.65546 10.1444 7.31261 10.2129 6.97832 10.3501C6.65261 10.4786 6.32261 10.6586 5.98832 10.8901C5.90261 10.9501 5.81689 11.0015 5.73118 11.0444C5.64546 11.0786 5.55975 11.0958 5.47403 11.0958C5.32832 11.0958 5.19975 11.0272 5.08832 10.8901C4.98546 10.7529 4.93403 10.5901 4.93403 10.4015C4.93403 10.2729 4.95546 10.1615 4.99832 10.0672C5.04975 9.97293 5.12689 9.88293 5.22975 9.79721C5.60689 9.49721 6.04832 9.2615 6.55403 9.09007C7.05975 8.91007 7.56546 8.82007 8.07118 8.82007C8.95403 8.82007 9.65689 9.04293 10.1797 9.48864C10.7112 9.93435 10.9769 10.5344 10.9769 11.2886C10.9769 11.8115 10.8655 12.3044 10.6426 12.7672C10.4197 13.2215 10.0426 13.7315 9.51118 14.2972L7.28689 16.6629H10.6812Z" fill="#445B6A"/>
<path d="M18.403 16.6629C18.9173 16.6629 19.1744 16.8815 19.1744 17.3186C19.1744 17.7729 18.9173 18.0001 18.403 18.0001H13.5173C13.2944 18.0001 13.1187 17.9358 12.9901 17.8072C12.8616 17.6701 12.7973 17.5029 12.7973 17.3058C12.7973 17.0486 12.8959 16.8172 13.093 16.6115L16.0244 13.4615C16.3844 13.0672 16.6459 12.7072 16.8087 12.3815C16.9801 12.0472 17.0659 11.7172 17.0659 11.3915C17.0659 10.9886 16.9501 10.6801 16.7187 10.4658C16.4873 10.2515 16.1573 10.1444 15.7287 10.1444C15.3773 10.1444 15.0344 10.2129 14.7001 10.3501C14.3744 10.4786 14.0444 10.6586 13.7101 10.8901C13.6244 10.9501 13.5387 11.0015 13.453 11.0444C13.3673 11.0786 13.2816 11.0958 13.1959 11.0958C13.0501 11.0958 12.9216 11.0272 12.8101 10.8901C12.7073 10.7529 12.6559 10.5901 12.6559 10.4015C12.6559 10.2729 12.6773 10.1615 12.7201 10.0672C12.7716 9.97293 12.8487 9.88293 12.9516 9.79721C13.3287 9.49721 13.7701 9.2615 14.2759 9.09007C14.7816 8.91007 15.2873 8.82007 15.793 8.82007C16.6759 8.82007 17.3787 9.04293 17.9016 9.48864C18.433 9.93435 18.6987 10.5344 18.6987 11.2886C18.6987 11.8115 18.5873 12.3044 18.3644 12.7672C18.1416 13.2215 17.7644 13.7315 17.233 14.2972L15.0087 16.6629H18.403Z" fill="#445B6A"/>
</svg>
