<svg width="24" height="24" viewBox="0 0 24 24" fill="none" xmlns="http://www.w3.org/2000/svg">
<path d="M4.0731 22.0063H19.9273C22.3531 22.0063 23.5716 20.8442 23.5716 18.5424V5.1783C23.5716 2.87646 22.3531 1.71436 19.9273 1.71436H4.0731C1.65899 1.71436 0.428711 2.86525 0.428711 5.1783V18.5424C0.428711 20.8554 1.65899 22.0063 4.0731 22.0063ZM3.91062 20.4411C2.87763 20.4411 1.9864 19.6821 1.9864 18.6429V8.38527C1.9864 7.35724 2.87763 6.42864 3.91062 6.42864H20.0782C21.1111 6.42864 22.0139 7.35724 22.0139 8.38527V18.6429C22.0139 19.6821 21.1212 20.4411 20.0883 20.4411H3.91062Z" fill="#445B6A"/>
<path d="M10.6875 16.6629C11.2017 16.6629 11.4589 16.8815 11.4589 17.3186C11.4589 17.7729 11.2017 18.0001 10.6875 18.0001H5.80174C5.57888 18.0001 5.40317 17.9358 5.2746 17.8072C5.14603 17.6701 5.08174 17.5029 5.08174 17.3058C5.08174 17.0486 5.18031 16.8172 5.37746 16.6115L8.30888 13.4615C8.66888 13.0672 8.93031 12.7072 9.09317 12.3815C9.2646 12.0472 9.35031 11.7172 9.35031 11.3915C9.35031 10.9886 9.2346 10.6801 9.00317 10.4658C8.77174 10.2515 8.44174 10.1444 8.01317 10.1444C7.66174 10.1444 7.31888 10.2129 6.9846 10.3501C6.65888 10.4786 6.32888 10.6586 5.9946 10.8901C5.90888 10.9501 5.82317 11.0015 5.73746 11.0444C5.65174 11.0786 5.56603 11.0958 5.48031 11.0958C5.3346 11.0958 5.20603 11.0272 5.0946 10.8901C4.99174 10.7529 4.94031 10.5901 4.94031 10.4015C4.94031 10.2729 4.96174 10.1615 5.0046 10.0672C5.05603 9.97293 5.13317 9.88293 5.23603 9.79721C5.61317 9.49721 6.0546 9.2615 6.56031 9.09007C7.06603 8.91007 7.57174 8.82007 8.07746 8.82007C8.96031 8.82007 9.66317 9.04293 10.186 9.48864C10.7175 9.93435 10.9832 10.5344 10.9832 11.2886C10.9832 11.8115 10.8717 12.3044 10.6489 12.7672C10.426 13.2215 10.0489 13.7315 9.51746 14.2972L7.29317 16.6629H10.6875Z" fill="#445B6A"/>
<path d="M17.2521 13.3458C17.7921 13.4829 18.2036 13.7444 18.4864 14.1301C18.7778 14.5072 18.9236 14.9786 18.9236 15.5444C18.9236 16.3244 18.6364 16.9458 18.0621 17.4086C17.4878 17.8715 16.7121 18.1029 15.735 18.1029C15.1778 18.1029 14.6421 18.0172 14.1278 17.8458C13.6136 17.6744 13.1764 17.4344 12.8164 17.1258C12.6193 16.9544 12.5207 16.7529 12.5207 16.5215C12.5207 16.3329 12.5721 16.1744 12.675 16.0458C12.7864 15.9086 12.915 15.8401 13.0607 15.8401C13.1464 15.8401 13.2236 15.8572 13.2921 15.8915C13.3607 15.9172 13.455 15.9644 13.575 16.0329C13.935 16.2729 14.2778 16.4572 14.6036 16.5858C14.9293 16.7144 15.285 16.7786 15.6707 16.7786C16.2364 16.7786 16.6564 16.6672 16.9307 16.4444C17.205 16.2129 17.3421 15.8658 17.3421 15.4029C17.3421 14.9486 17.1964 14.6144 16.905 14.4001C16.6221 14.1772 16.1807 14.0658 15.5807 14.0658H14.8478C14.6507 14.0658 14.4964 14.0015 14.385 13.8729C14.2821 13.7358 14.2307 13.5815 14.2307 13.4101C14.2307 13.2301 14.2821 13.0758 14.385 12.9472C14.4964 12.8186 14.6507 12.7544 14.8478 12.7544H15.3621C16.5364 12.7544 17.1236 12.3129 17.1236 11.4301C17.1236 11.0186 16.9993 10.7015 16.7507 10.4786C16.5021 10.2558 16.1593 10.1444 15.7221 10.1444C15.0964 10.1444 14.4278 10.3929 13.7164 10.8901C13.5964 10.9586 13.5021 11.0101 13.4336 11.0444C13.365 11.0701 13.2878 11.0829 13.2021 11.0829C13.0564 11.0829 12.9278 11.0186 12.8164 10.8901C12.7136 10.7529 12.6621 10.5901 12.6621 10.4015C12.6621 10.2729 12.6836 10.1658 12.7264 10.0801C12.7778 9.98578 12.855 9.8915 12.9578 9.79721C13.3178 9.49721 13.7464 9.2615 14.2436 9.09007C14.7493 8.91007 15.2636 8.82007 15.7864 8.82007C16.6778 8.82007 17.385 9.03864 17.9078 9.47578C18.4393 9.91293 18.705 10.4958 18.705 11.2244C18.6964 11.7215 18.5636 12.1586 18.3064 12.5358C18.0578 12.9044 17.7064 13.1744 17.2521 13.3458Z" fill="#445B6A"/>
</svg>
