<svg width="24" height="24" viewBox="0 0 24 24" fill="none" xmlns="http://www.w3.org/2000/svg">
<path d="M4.0731 22.0063H19.9273C22.3531 22.0063 23.5716 20.8442 23.5716 18.5424V5.1783C23.5716 2.87646 22.3531 1.71436 19.9273 1.71436H4.0731C1.65899 1.71436 0.428711 2.86525 0.428711 5.1783V18.5424C0.428711 20.8554 1.65899 22.0063 4.0731 22.0063ZM3.91062 20.4411C2.87763 20.4411 1.9864 19.6821 1.9864 18.6429V8.38527C1.9864 7.35724 2.87763 6.42864 3.91062 6.42864H20.0782C21.1111 6.42864 22.0139 7.35724 22.0139 8.38527V18.6429C22.0139 19.6821 21.1212 20.4411 20.0883 20.4411H3.91062Z" fill="#445B6A"/>
<path d="M10.6875 16.6629C11.2017 16.6629 11.4589 16.8815 11.4589 17.3186C11.4589 17.7729 11.2017 18.0001 10.6875 18.0001H5.80174C5.57888 18.0001 5.40317 17.9358 5.2746 17.8072C5.14603 17.6701 5.08174 17.5029 5.08174 17.3058C5.08174 17.0486 5.18031 16.8172 5.37746 16.6115L8.30888 13.4615C8.66888 13.0672 8.93031 12.7072 9.09317 12.3815C9.2646 12.0472 9.35031 11.7172 9.35031 11.3915C9.35031 10.9886 9.2346 10.6801 9.00317 10.4658C8.77174 10.2515 8.44174 10.1444 8.01317 10.1444C7.66174 10.1444 7.31888 10.2129 6.9846 10.3501C6.65888 10.4786 6.32888 10.6586 5.9946 10.8901C5.90888 10.9501 5.82317 11.0015 5.73746 11.0444C5.65174 11.0786 5.56603 11.0958 5.48031 11.0958C5.3346 11.0958 5.20603 11.0272 5.0946 10.8901C4.99174 10.7529 4.94031 10.5901 4.94031 10.4015C4.94031 10.2729 4.96174 10.1615 5.0046 10.0672C5.05603 9.97293 5.13317 9.88293 5.23603 9.79721C5.61317 9.49721 6.0546 9.2615 6.56031 9.09007C7.06603 8.91007 7.57174 8.82007 8.07746 8.82007C8.96031 8.82007 9.66317 9.04293 10.186 9.48864C10.7175 9.93435 10.9832 10.5344 10.9832 11.2886C10.9832 11.8115 10.8717 12.3044 10.6489 12.7672C10.426 13.2215 10.0489 13.7315 9.51746 14.2972L7.29317 16.6629H10.6875Z" fill="#445B6A"/>
<path d="M18.7564 14.9401C19.0136 14.9401 19.2064 14.9958 19.335 15.1072C19.4636 15.2186 19.5278 15.3772 19.5278 15.5829C19.5278 16.0115 19.2707 16.2258 18.7564 16.2258H18.1007V17.2415C18.1007 17.5072 18.0236 17.7129 17.8693 17.8586C17.7236 18.0044 17.5307 18.0772 17.2907 18.0772C17.0507 18.0772 16.8536 18.0044 16.6993 17.8586C16.5536 17.7129 16.4807 17.5072 16.4807 17.2415V16.2258H13.1121C12.8807 16.2258 12.7007 16.1615 12.5721 16.0329C12.4436 15.8958 12.3793 15.7286 12.3793 15.5315C12.3793 15.3258 12.4478 15.1286 12.585 14.9401L16.5578 9.2315C16.6436 9.1115 16.7507 9.0215 16.8793 8.9615C17.0078 8.89293 17.1407 8.85864 17.2778 8.85864C17.5007 8.85864 17.6936 8.9315 17.8564 9.07721C18.0193 9.22293 18.1007 9.42864 18.1007 9.69435V14.9401H18.7564ZM14.0893 14.9401H16.4807V11.4815L14.0893 14.9401Z" fill="#445B6A"/>
</svg>
