<svg width="24" height="24" viewBox="0 0 24 24" fill="none" xmlns="http://www.w3.org/2000/svg">
<path d="M4.0731 22.0063H19.9273C22.3531 22.0063 23.5716 20.8442 23.5716 18.5424V5.1783C23.5716 2.87646 22.3531 1.71436 19.9273 1.71436H4.0731C1.65899 1.71436 0.428711 2.86525 0.428711 5.1783V18.5424C0.428711 20.8554 1.65899 22.0063 4.0731 22.0063ZM3.91062 20.4411C2.87763 20.4411 1.9864 19.6821 1.9864 18.6429V8.38527C1.9864 7.35724 2.87763 6.42864 3.91062 6.42864H20.0782C21.1111 6.42864 22.0139 7.35724 22.0139 8.38527V18.6429C22.0139 19.6821 21.1212 20.4411 20.0883 20.4411H3.91062Z" fill="#445B6A"/>
<path d="M10.6875 16.6629C11.2017 16.6629 11.4589 16.8815 11.4589 17.3186C11.4589 17.7729 11.2017 18.0001 10.6875 18.0001H5.80174C5.57888 18.0001 5.40317 17.9358 5.2746 17.8072C5.14603 17.6701 5.08174 17.5029 5.08174 17.3058C5.08174 17.0486 5.18031 16.8172 5.37746 16.6115L8.30888 13.4615C8.66888 13.0672 8.93031 12.7072 9.09317 12.3815C9.2646 12.0472 9.35031 11.7172 9.35031 11.3915C9.35031 10.9886 9.2346 10.6801 9.00317 10.4658C8.77174 10.2515 8.44174 10.1444 8.01317 10.1444C7.66174 10.1444 7.31888 10.2129 6.9846 10.3501C6.65888 10.4786 6.32888 10.6586 5.9946 10.8901C5.90888 10.9501 5.82317 11.0015 5.73746 11.0444C5.65174 11.0786 5.56603 11.0958 5.48031 11.0958C5.3346 11.0958 5.20603 11.0272 5.0946 10.8901C4.99174 10.7529 4.94031 10.5901 4.94031 10.4015C4.94031 10.2729 4.96174 10.1615 5.0046 10.0672C5.05603 9.97293 5.13317 9.88293 5.23603 9.79721C5.61317 9.49721 6.0546 9.2615 6.56031 9.09007C7.06603 8.91007 7.57174 8.82007 8.07746 8.82007C8.96031 8.82007 9.66317 9.04293 10.186 9.48864C10.7175 9.93435 10.9832 10.5344 10.9832 11.2886C10.9832 11.8115 10.8717 12.3044 10.6489 12.7672C10.426 13.2215 10.0489 13.7315 9.51746 14.2972L7.29317 16.6629H10.6875Z" fill="#445B6A"/>
<path d="M16.3393 12.2015C16.905 12.2015 17.4021 12.3258 17.8307 12.5744C18.2678 12.8144 18.6064 13.1529 18.8464 13.5901C19.0864 14.0272 19.2064 14.5286 19.2064 15.0944C19.2064 15.6858 19.0693 16.2086 18.795 16.6629C18.5293 17.1172 18.1478 17.4729 17.6507 17.7301C17.1621 17.9786 16.5964 18.1029 15.9536 18.1029C15.4221 18.1029 14.8993 18.0172 14.385 17.8458C13.8793 17.6658 13.4464 17.4258 13.0864 17.1258C12.8893 16.9544 12.7907 16.7529 12.7907 16.5215C12.7907 16.3329 12.8421 16.1744 12.945 16.0458C13.0564 15.9086 13.185 15.8401 13.3307 15.8401C13.4164 15.8401 13.4978 15.8572 13.575 15.8915C13.6521 15.9172 13.7421 15.9644 13.845 16.0329C14.1878 16.2729 14.5221 16.4572 14.8478 16.5858C15.1736 16.7144 15.5207 16.7786 15.8893 16.7786C16.455 16.7786 16.8878 16.6372 17.1878 16.3544C17.4878 16.0715 17.6378 15.6686 17.6378 15.1458C17.6378 14.6401 17.4836 14.2415 17.175 13.9501C16.875 13.6501 16.4593 13.5001 15.9278 13.5001C15.5936 13.5001 15.2936 13.5472 15.0278 13.6415C14.7707 13.7358 14.505 13.8944 14.2307 14.1172C14.0678 14.2286 13.9007 14.2844 13.7293 14.2844C13.5578 14.2844 13.4121 14.2329 13.2921 14.1301C13.1721 14.0272 13.1121 13.8901 13.1121 13.7186V9.70721C13.1121 9.46721 13.1807 9.27864 13.3178 9.1415C13.455 9.00435 13.6478 8.93578 13.8964 8.93578H18.1778C18.6921 8.93578 18.9493 9.15007 18.9493 9.57864C18.9493 10.0072 18.6921 10.2215 18.1778 10.2215H14.7321V12.6644C15.1693 12.3558 15.705 12.2015 16.3393 12.2015Z" fill="#445B6A"/>
</svg>
