<svg width="24" height="24" viewBox="0 0 24 24" fill="none" xmlns="http://www.w3.org/2000/svg">
<path d="M4.0731 22.0063H19.9273C22.3531 22.0063 23.5716 20.8442 23.5716 18.5424V5.1783C23.5716 2.87646 22.3531 1.71436 19.9273 1.71436H4.0731C1.65899 1.71436 0.428711 2.86525 0.428711 5.1783V18.5424C0.428711 20.8554 1.65899 22.0063 4.0731 22.0063ZM3.91062 20.4411C2.87763 20.4411 1.9864 19.6821 1.9864 18.6429V8.38527C1.9864 7.35724 2.87763 6.42864 3.91062 6.42864H20.0782C21.1111 6.42864 22.0139 7.35724 22.0139 8.38527V18.6429C22.0139 19.6821 21.1212 20.4411 20.0883 20.4411H3.91062Z" fill="#445B6A"/>
<path d="M10.6875 16.6629C11.2017 16.6629 11.4589 16.8815 11.4589 17.3186C11.4589 17.7729 11.2017 18.0001 10.6875 18.0001H5.80174C5.57888 18.0001 5.40317 17.9358 5.2746 17.8072C5.14603 17.6701 5.08174 17.5029 5.08174 17.3058C5.08174 17.0486 5.18031 16.8172 5.37746 16.6115L8.30888 13.4615C8.66888 13.0672 8.93031 12.7072 9.09317 12.3815C9.2646 12.0472 9.35031 11.7172 9.35031 11.3915C9.35031 10.9886 9.2346 10.6801 9.00317 10.4658C8.77174 10.2515 8.44174 10.1444 8.01317 10.1444C7.66174 10.1444 7.31888 10.2129 6.9846 10.3501C6.65888 10.4786 6.32888 10.6586 5.9946 10.8901C5.90888 10.9501 5.82317 11.0015 5.73746 11.0444C5.65174 11.0786 5.56603 11.0958 5.48031 11.0958C5.3346 11.0958 5.20603 11.0272 5.0946 10.8901C4.99174 10.7529 4.94031 10.5901 4.94031 10.4015C4.94031 10.2729 4.96174 10.1615 5.0046 10.0672C5.05603 9.97293 5.13317 9.88293 5.23603 9.79721C5.61317 9.49721 6.0546 9.2615 6.56031 9.09007C7.06603 8.91007 7.57174 8.82007 8.07746 8.82007C8.96031 8.82007 9.66317 9.04293 10.186 9.48864C10.7175 9.93435 10.9832 10.5344 10.9832 11.2886C10.9832 11.8115 10.8717 12.3044 10.6489 12.7672C10.426 13.2215 10.0489 13.7315 9.51746 14.2972L7.29317 16.6629H10.6875Z" fill="#445B6A"/>
<path d="M16.4164 12.1886C16.9564 12.1886 17.4364 12.3129 17.8564 12.5615C18.2764 12.8015 18.6021 13.1444 18.8336 13.5901C19.0736 14.0272 19.1936 14.5286 19.1936 15.0944C19.1936 15.6772 19.0607 16.2001 18.795 16.6629C18.5378 17.1172 18.1778 17.4729 17.715 17.7301C17.2607 17.9872 16.7421 18.1158 16.1593 18.1158C15.0107 18.1158 14.1236 17.7301 13.4978 16.9586C12.8807 16.1786 12.5721 15.0686 12.5721 13.6286C12.5721 12.6429 12.7178 11.7901 13.0093 11.0701C13.3007 10.3415 13.7164 9.78435 14.2564 9.39864C14.805 9.01293 15.4478 8.82007 16.185 8.82007C16.6736 8.82007 17.1621 8.91007 17.6507 9.09007C18.1478 9.2615 18.5678 9.49721 18.9107 9.79721C19.0221 9.8915 19.0993 9.98578 19.1421 10.0801C19.1936 10.1658 19.2193 10.2729 19.2193 10.4015C19.2193 10.5901 19.1636 10.7529 19.0521 10.8901C18.9493 11.0186 18.825 11.0829 18.6793 11.0829C18.5936 11.0829 18.5121 11.0701 18.435 11.0444C18.3578 11.0101 18.2636 10.9586 18.1521 10.8901C17.4407 10.3929 16.8064 10.1444 16.2493 10.1444C15.6236 10.1444 15.1307 10.4358 14.7707 11.0186C14.4107 11.5929 14.2221 12.4029 14.205 13.4486C14.4021 13.0629 14.6978 12.7586 15.0921 12.5358C15.4864 12.3044 15.9278 12.1886 16.4164 12.1886ZM16.0693 16.8044C16.5407 16.8044 16.9178 16.6544 17.2007 16.3544C17.4836 16.0458 17.625 15.6429 17.625 15.1458C17.625 14.6486 17.4836 14.2501 17.2007 13.9501C16.9178 13.6501 16.5407 13.5001 16.0693 13.5001C15.5893 13.5001 15.1993 13.6544 14.8993 13.9629C14.6078 14.2629 14.4621 14.6572 14.4621 15.1458C14.4621 15.6429 14.6078 16.0458 14.8993 16.3544C15.1993 16.6544 15.5893 16.8044 16.0693 16.8044Z" fill="#445B6A"/>
</svg>
