<svg width="24" height="24" viewBox="0 0 24 24" fill="none" xmlns="http://www.w3.org/2000/svg">
<path d="M4.0731 22.0063H19.9273C22.3531 22.0063 23.5716 20.8442 23.5716 18.5424V5.1783C23.5716 2.87646 22.3531 1.71436 19.9273 1.71436H4.0731C1.65899 1.71436 0.428711 2.86525 0.428711 5.1783V18.5424C0.428711 20.8554 1.65899 22.0063 4.0731 22.0063ZM3.91062 20.4411C2.87763 20.4411 1.9864 19.6821 1.9864 18.6429V8.38527C1.9864 7.35724 2.87763 6.42864 3.91062 6.42864H20.0782C21.1111 6.42864 22.0139 7.35724 22.0139 8.38527V18.6429C22.0139 19.6821 21.1212 20.4411 20.0883 20.4411H3.91062Z" fill="#445B6A"/>
<path d="M10.6875 16.6629C11.2017 16.6629 11.4589 16.8815 11.4589 17.3186C11.4589 17.7729 11.2017 18.0001 10.6875 18.0001H5.80174C5.57888 18.0001 5.40317 17.9358 5.2746 17.8072C5.14603 17.6701 5.08174 17.5029 5.08174 17.3058C5.08174 17.0486 5.18031 16.8172 5.37746 16.6115L8.30888 13.4615C8.66888 13.0672 8.93031 12.7072 9.09317 12.3815C9.2646 12.0472 9.35031 11.7172 9.35031 11.3915C9.35031 10.9886 9.2346 10.6801 9.00317 10.4658C8.77174 10.2515 8.44174 10.1444 8.01317 10.1444C7.66174 10.1444 7.31888 10.2129 6.9846 10.3501C6.65888 10.4786 6.32888 10.6586 5.9946 10.8901C5.90888 10.9501 5.82317 11.0015 5.73746 11.0444C5.65174 11.0786 5.56603 11.0958 5.48031 11.0958C5.3346 11.0958 5.20603 11.0272 5.0946 10.8901C4.99174 10.7529 4.94031 10.5901 4.94031 10.4015C4.94031 10.2729 4.96174 10.1615 5.0046 10.0672C5.05603 9.97293 5.13317 9.88293 5.23603 9.79721C5.61317 9.49721 6.0546 9.2615 6.56031 9.09007C7.06603 8.91007 7.57174 8.82007 8.07746 8.82007C8.96031 8.82007 9.66317 9.04293 10.186 9.48864C10.7175 9.93435 10.9832 10.5344 10.9832 11.2886C10.9832 11.8115 10.8717 12.3044 10.6489 12.7672C10.426 13.2215 10.0489 13.7315 9.51746 14.2972L7.29317 16.6629H10.6875Z" fill="#445B6A"/>
<path d="M17.5993 13.3458C18.1307 13.4915 18.5378 13.7572 18.8207 14.1429C19.1121 14.5286 19.2578 15.0001 19.2578 15.5572C19.2578 16.3544 18.9578 16.9801 18.3578 17.4344C17.7578 17.8801 16.9264 18.1029 15.8636 18.1029C14.8007 18.1029 13.9693 17.8801 13.3693 17.4344C12.7693 16.9801 12.4693 16.3544 12.4693 15.5572C12.4693 15.0001 12.615 14.5286 12.9064 14.1429C13.1978 13.7486 13.6093 13.4829 14.1407 13.3458C13.6864 13.1744 13.3307 12.9086 13.0736 12.5486C12.8164 12.1801 12.6878 11.7515 12.6878 11.2629C12.6878 10.5086 12.9707 9.91293 13.5364 9.47578C14.1021 9.03864 14.8778 8.82007 15.8636 8.82007C16.8493 8.82007 17.625 9.03864 18.1907 9.47578C18.7564 9.91293 19.0393 10.5086 19.0393 11.2629C19.0393 11.7601 18.9107 12.1929 18.6536 12.5615C18.3964 12.9301 18.045 13.1915 17.5993 13.3458ZM15.8636 10.1186C14.7921 10.1186 14.2564 10.5558 14.2564 11.4301C14.2564 11.8672 14.3893 12.2015 14.655 12.4329C14.9293 12.6558 15.3321 12.7672 15.8636 12.7672C16.395 12.7672 16.7936 12.6558 17.0593 12.4329C17.3336 12.2015 17.4707 11.8672 17.4707 11.4301C17.4707 10.5558 16.935 10.1186 15.8636 10.1186ZM15.8636 16.8044C17.0893 16.8044 17.7021 16.3458 17.7021 15.4286C17.7021 14.5115 17.0893 14.0529 15.8636 14.0529C14.6378 14.0529 14.025 14.5115 14.025 15.4286C14.025 16.3458 14.6378 16.8044 15.8636 16.8044Z" fill="#445B6A"/>
</svg>
