<svg width="24" height="24" viewBox="0 0 24 24" fill="none" xmlns="http://www.w3.org/2000/svg">
<path d="M4.0731 22.0063H19.9273C22.3531 22.0063 23.5716 20.8442 23.5716 18.5424V5.1783C23.5716 2.87646 22.3531 1.71436 19.9273 1.71436H4.0731C1.65899 1.71436 0.428711 2.86525 0.428711 5.1783V18.5424C0.428711 20.8554 1.65899 22.0063 4.0731 22.0063ZM3.91062 20.4411C2.87763 20.4411 1.9864 19.6821 1.9864 18.6429V8.38527C1.9864 7.35724 2.87763 6.42864 3.91062 6.42864H20.0782C21.1111 6.42864 22.0139 7.35724 22.0139 8.38527V18.6429C22.0139 19.6821 21.1212 20.4411 20.0883 20.4411H3.91062Z" fill="#445B6A"/>
<path d="M10.6875 16.6629C11.2017 16.6629 11.4589 16.8815 11.4589 17.3186C11.4589 17.7729 11.2017 18.0001 10.6875 18.0001H5.80174C5.57888 18.0001 5.40317 17.9358 5.2746 17.8072C5.14603 17.6701 5.08174 17.5029 5.08174 17.3058C5.08174 17.0486 5.18031 16.8172 5.37746 16.6115L8.30888 13.4615C8.66888 13.0672 8.93031 12.7072 9.09317 12.3815C9.2646 12.0472 9.35031 11.7172 9.35031 11.3915C9.35031 10.9886 9.2346 10.6801 9.00317 10.4658C8.77174 10.2515 8.44174 10.1444 8.01317 10.1444C7.66174 10.1444 7.31888 10.2129 6.9846 10.3501C6.65888 10.4786 6.32888 10.6586 5.9946 10.8901C5.90888 10.9501 5.82317 11.0015 5.73746 11.0444C5.65174 11.0786 5.56603 11.0958 5.48031 11.0958C5.3346 11.0958 5.20603 11.0272 5.0946 10.8901C4.99174 10.7529 4.94031 10.5901 4.94031 10.4015C4.94031 10.2729 4.96174 10.1615 5.0046 10.0672C5.05603 9.97293 5.13317 9.88293 5.23603 9.79721C5.61317 9.49721 6.0546 9.2615 6.56031 9.09007C7.06603 8.91007 7.57174 8.82007 8.07746 8.82007C8.96031 8.82007 9.66317 9.04293 10.186 9.48864C10.7175 9.93435 10.9832 10.5344 10.9832 11.2886C10.9832 11.8115 10.8717 12.3044 10.6489 12.7672C10.426 13.2215 10.0489 13.7315 9.51746 14.2972L7.29317 16.6629H10.6875Z" fill="#445B6A"/>
<path d="M15.5678 8.82007C16.7164 8.82007 17.5993 9.21007 18.2164 9.99007C18.8421 10.7615 19.155 11.8672 19.155 13.3072C19.155 14.2929 19.0093 15.1501 18.7178 15.8786C18.4264 16.5986 18.0064 17.1515 17.4578 17.5372C16.9178 17.9229 16.2793 18.1158 15.5421 18.1158C15.0536 18.1158 14.5607 18.0301 14.0636 17.8586C13.575 17.6786 13.1593 17.4386 12.8164 17.1386C12.705 17.0444 12.6236 16.9544 12.5721 16.8686C12.5293 16.7744 12.5078 16.6629 12.5078 16.5344C12.5078 16.3458 12.5593 16.1872 12.6621 16.0586C12.7736 15.9215 12.9021 15.8529 13.0478 15.8529C13.1336 15.8529 13.215 15.8701 13.2921 15.9044C13.3693 15.9301 13.4636 15.9772 13.575 16.0458C14.2864 16.5429 14.9207 16.7915 15.4778 16.7915C16.1036 16.7915 16.5964 16.5044 16.9564 15.9301C17.3164 15.3472 17.505 14.5329 17.5221 13.4872C17.325 13.8729 17.0293 14.1815 16.635 14.4129C16.2407 14.6358 15.7993 14.7472 15.3107 14.7472C14.7707 14.7472 14.2907 14.6272 13.8707 14.3872C13.4507 14.1386 13.1207 13.7958 12.8807 13.3586C12.6493 12.9129 12.5336 12.4072 12.5336 11.8415C12.5336 11.2586 12.6621 10.7401 12.9193 10.2858C13.185 9.82293 13.545 9.46293 13.9993 9.20578C14.4621 8.94864 14.985 8.82007 15.5678 8.82007ZM15.6578 13.4358C16.1378 13.4358 16.5236 13.2858 16.815 12.9858C17.115 12.6772 17.265 12.2786 17.265 11.7901C17.265 11.2929 17.115 10.8944 16.815 10.5944C16.5236 10.2858 16.1378 10.1315 15.6578 10.1315C15.1864 10.1315 14.8093 10.2858 14.5264 10.5944C14.2436 10.8944 14.1021 11.2929 14.1021 11.7901C14.1021 12.2872 14.2436 12.6858 14.5264 12.9858C14.8093 13.2858 15.1864 13.4358 15.6578 13.4358Z" fill="#445B6A"/>
</svg>
