<svg width="24" height="24" viewBox="0 0 24 24" fill="none" xmlns="http://www.w3.org/2000/svg">
<path d="M4.0731 22.0063H19.9273C22.3531 22.0063 23.5716 20.8442 23.5716 18.5424V5.1783C23.5716 2.87646 22.3531 1.71436 19.9273 1.71436H4.0731C1.65899 1.71436 0.428711 2.86525 0.428711 5.1783V18.5424C0.428711 20.8554 1.65899 22.0063 4.0731 22.0063ZM3.91062 20.4411C2.87763 20.4411 1.9864 19.6821 1.9864 18.6429V8.38527C1.9864 7.35724 2.87763 6.42864 3.91062 6.42864H20.0782C21.1111 6.42864 22.0139 7.35724 22.0139 8.38527V18.6429C22.0139 19.6821 21.1212 20.4411 20.0883 20.4411H3.91062Z" fill="#445B6A"/>
<path d="M9.53659 13.3458C10.0766 13.4829 10.488 13.7444 10.7709 14.1301C11.0623 14.5072 11.208 14.9786 11.208 15.5444C11.208 16.3244 10.9209 16.9458 10.3466 17.4086C9.77231 17.8715 8.99659 18.1029 8.01945 18.1029C7.4623 18.1029 6.92659 18.0172 6.4123 17.8458C5.89802 17.6744 5.46088 17.4344 5.10088 17.1258C4.90373 16.9544 4.80516 16.7529 4.80516 16.5215C4.80516 16.3329 4.85659 16.1744 4.95945 16.0458C5.07088 15.9086 5.19945 15.8401 5.34516 15.8401C5.43088 15.8401 5.50802 15.8572 5.57659 15.8915C5.64516 15.9172 5.73945 15.9644 5.85945 16.0329C6.21945 16.2729 6.5623 16.4572 6.88802 16.5858C7.21373 16.7144 7.56945 16.7786 7.95516 16.7786C8.52088 16.7786 8.94088 16.6672 9.21516 16.4444C9.48945 16.2129 9.62659 15.8658 9.62659 15.4029C9.62659 14.9486 9.48088 14.6144 9.18945 14.4001C8.90659 14.1772 8.46516 14.0658 7.86516 14.0658H7.1323C6.93516 14.0658 6.78088 14.0015 6.66945 13.8729C6.56659 13.7358 6.51516 13.5815 6.51516 13.4101C6.51516 13.2301 6.56659 13.0758 6.66945 12.9472C6.78088 12.8186 6.93516 12.7544 7.1323 12.7544H7.64659C8.82088 12.7544 9.40802 12.3129 9.40802 11.4301C9.40802 11.0186 9.28373 10.7015 9.03516 10.4786C8.78659 10.2558 8.44373 10.1444 8.00659 10.1444C7.38088 10.1444 6.7123 10.3929 6.00088 10.8901C5.88088 10.9586 5.78659 11.0101 5.71802 11.0444C5.64945 11.0701 5.5723 11.0829 5.48659 11.0829C5.34088 11.0829 5.2123 11.0186 5.10088 10.8901C4.99802 10.7529 4.94659 10.5901 4.94659 10.4015C4.94659 10.2729 4.96802 10.1658 5.01088 10.0801C5.0623 9.98578 5.13945 9.8915 5.2423 9.79721C5.6023 9.49721 6.03088 9.2615 6.52802 9.09007C7.03373 8.91007 7.54802 8.82007 8.07088 8.82007C8.9623 8.82007 9.66945 9.03864 10.1923 9.47578C10.7237 9.91293 10.9894 10.4958 10.9894 11.2244C10.9809 11.7215 10.848 12.1586 10.5909 12.5358C10.3423 12.9044 9.99088 13.1744 9.53659 13.3458Z" fill="#445B6A"/>
<path d="M18.4416 16.6629C18.9559 16.6629 19.213 16.8815 19.213 17.3186C19.213 17.7729 18.9559 18.0001 18.4416 18.0001H14.0959C13.573 18.0001 13.3116 17.7729 13.3116 17.3186C13.3116 16.8815 13.573 16.6629 14.0959 16.6629H15.433V10.8001L14.1987 11.5586C14.0787 11.6272 13.9716 11.6615 13.8773 11.6615C13.6973 11.6615 13.543 11.5844 13.4144 11.4301C13.2944 11.2758 13.2344 11.1044 13.2344 10.9158C13.2344 10.6672 13.3459 10.4744 13.5687 10.3372L15.5616 9.10293C15.8187 8.94864 16.063 8.8715 16.2944 8.8715C16.5344 8.8715 16.7273 8.94435 16.873 9.09007C17.0187 9.23578 17.0916 9.43721 17.0916 9.69435V16.6629H18.4416Z" fill="#445B6A"/>
</svg>
