<svg fill="none" height="20" viewBox="0 0 20 20" width="20" xmlns="http://www.w3.org/2000/svg"><path d="m10.3672 13.9844c-.8672 0-1.56251.7031-1.56251 1.5859 0 .8594.69531 1.5625 1.56251 1.5625s1.5625-.7031 1.5625-1.5625c0-.8828-.6953-1.5859-1.5625-1.5859zm0-5.78128c-.8672 0-1.56251.69532-1.56251 1.5625 0 .85938.69531 1.55468 1.56251 1.55468s1.5625-.6953 1.5625-1.55468c0-.86718-.6953-1.5625-1.5625-1.5625zm0-5.80468c-.8672 0-1.56251.69531-1.56251 1.5625 0 .88281.69531 1.57812 1.56251 1.57812s1.5625-.69531 1.5625-1.57812c0-.86719-.6953-1.5625-1.5625-1.5625z" fill="#37404a"/></svg>