<svg fill="none" height="17" viewBox="0 0 17 17" width="17" xmlns="http://www.w3.org/2000/svg"><path d="m8.36719 16.3281c4.35941 0 7.96871-3.6093 7.96871-7.96872 0-4.35157-3.6171-7.968755-7.97652-7.968755-4.35157 0-7.960942 3.617185-7.960942 7.968755 0 4.35942 3.617182 7.96872 7.968752 7.96872zm0-5.3047c-2.35157 0-4.15625.836-4.95313 1.7735-1.04687-1.1719-1.67968-2.7266-1.67968-4.43752 0-3.67969 2.9375-6.64063 6.625-6.64063 3.68752 0 6.64062 2.96094 6.64842 6.64063.0078 1.71872-.6328 3.27342-1.6875 4.44532-.7891-.9375-2.6015-1.7813-4.95311-1.7813zm0-1.32809c1.5.01563 2.67971-1.26562 2.67971-2.94531 0-1.57812-1.17971-2.89062-2.67971-2.89062s-2.6875 1.3125-2.67969 2.89062c.00781 1.67969 1.17969 2.92969 2.67969 2.94531z" fill="#37404a"/></svg>