<svg width="22" height="20" viewBox="0 0 22 20" fill="none" xmlns="http://www.w3.org/2000/svg">
<path fill-rule="evenodd" clip-rule="evenodd" d="M0 18.9611C0 18.4734 0.380558 18.078 0.85 18.078H21.15C21.6194 18.078 22 18.4734 22 18.9611C22 19.4489 21.6194 19.8442 21.15 19.8442H0.85C0.380558 19.8442 0 19.4489 0 18.9611Z" fill="#445B6A"/>
<path d="M2.34149 15.078H19.6584C21.2161 15.078 22 14.3341 22 12.8066V7.01774C22 5.50022 21.2161 4.76624 19.6584 4.76624H2.34149C0.783899 4.76624 0 5.50022 0 7.01774V12.8066C0 14.3341 0.783899 15.078 2.34149 15.078ZM2.46368 13.5803C1.86304 13.5803 1.53726 13.2728 1.53726 12.6579V7.18634C1.53726 6.56149 1.86304 6.26395 2.46368 6.26395H19.5362C20.1369 6.26395 20.4627 6.56149 20.4627 7.18634V12.6579C20.4627 13.2728 20.1369 13.5803 19.5362 13.5803H2.46368Z" fill="#445B6A"/>
<path fill-rule="evenodd" clip-rule="evenodd" d="M0 0.88312C0 0.395386 0.380558 0 0.85 0H21.15C21.6194 0 22 0.395386 22 0.88312C22 1.37085 21.6194 1.76624 21.15 1.76624H0.85C0.380558 1.76624 0 1.37085 0 0.88312Z" fill="#445B6A"/>
</svg>
