<svg width="24" height="24" viewBox="0 0 24 24" fill="none" xmlns="http://www.w3.org/2000/svg">
<path fill-rule="evenodd" clip-rule="evenodd" d="M1 20.9611C1 20.4734 1.38056 20.078 1.85 20.078H22.15C22.6194 20.078 23 20.4734 23 20.9611C23 21.4489 22.6194 21.8442 22.15 21.8442H1.85C1.38056 21.8442 1 21.4489 1 20.9611Z" fill="#445B6A"/>
<path d="M3.34149 17.078H20.6584C22.2161 17.078 23 16.3341 23 14.8066V9.01774C23 7.50022 22.2161 6.76624 20.6584 6.76624H3.34149C1.7839 6.76624 1 7.50022 1 9.01774V14.8066C1 16.3341 1.7839 17.078 3.34149 17.078ZM3.46368 15.5803C2.86304 15.5803 2.53726 15.2728 2.53726 14.6579V9.18634C2.53726 8.56149 2.86304 8.26395 3.46368 8.26395H20.5362C21.1369 8.26395 21.4627 8.56149 21.4627 9.18634V14.6579C21.4627 15.2728 21.1369 15.5803 20.5362 15.5803H3.46368Z" fill="#445B6A"/>
<path fill-rule="evenodd" clip-rule="evenodd" d="M1 2.88312C1 2.39539 1.38056 2 1.85 2H22.15C22.6194 2 23 2.39539 23 2.88312C23 3.37085 22.6194 3.76624 22.15 3.76624H1.85C1.38056 3.76624 1 3.37085 1 2.88312Z" fill="#445B6A"/>
</svg>
