<svg width="24" height="24" viewBox="0 0 24 24" fill="none" xmlns="http://www.w3.org/2000/svg">
<path d="M6.49058 21.2461H17.5196C19.4883 21.2461 20.543 20.2215 20.543 18.2528V8.24832C21.5175 8.08761 22.0398 7.35436 22.0398 6.27955V4.75276C22.0398 3.52735 21.3667 2.75391 20.1311 2.75391H3.86892C2.69369 2.75391 1.96045 3.52735 1.96045 4.75276V6.27955C1.96045 7.35436 2.49282 8.08761 3.45711 8.24832V18.2528C3.45711 20.2316 4.52185 21.2461 6.49058 21.2461ZM4.28078 6.76174C3.77853 6.76174 3.57766 6.55079 3.57766 6.04855V4.98381C3.57766 4.48161 3.77853 4.27066 4.28078 4.27066H19.7294C20.2416 4.27066 20.4224 4.48161 20.4224 4.98381V6.04855C20.4224 6.55079 20.2416 6.76174 19.7294 6.76174H4.28078ZM6.48055 19.7294C5.57652 19.7294 5.07428 19.2372 5.07428 18.3332V8.27845H18.9259V18.3332C18.9259 19.2372 18.4236 19.7294 17.5297 19.7294H6.48055ZM8.69035 12.3264H15.3299C15.7417 12.3264 16.043 12.0351 16.043 11.5932V11.2718C16.043 10.8298 15.7417 10.5485 15.3299 10.5485H8.69035C8.26846 10.5485 7.97721 10.8298 7.97721 11.2718V11.5932C7.97721 12.0351 8.26846 12.3264 8.69035 12.3264Z" fill="#445B6A"/>
</svg>
