<svg width="24" height="24" viewBox="0 0 24 24" fill="none" xmlns="http://www.w3.org/2000/svg">
<path d="M23.1209 11.2728H21.7979C21.2666 6.35694 17.0365 2.4455 11.995 2.4455C9.05907 2.4455 6.39349 3.77827 4.5778 5.87407C4.21077 6.28935 4.26872 6.8012 4.64539 7.07162C5.0317 7.34205 5.4856 7.25514 5.80433 6.8978C7.30129 5.17871 9.52262 4.08735 11.995 4.08735C16.2059 4.08735 19.6344 7.20684 20.1366 11.2728H18.6976C18.0119 11.2728 17.8285 11.7364 18.2051 12.2676L20.3587 15.3485C20.6679 15.7928 21.1315 15.8024 21.4502 15.3485L23.6134 12.2772C23.9999 11.7364 23.8164 11.2728 23.1209 11.2728ZM0.878802 13.33H2.20193C2.7331 18.2459 6.96332 22.1477 11.995 22.1477C14.9504 22.1477 17.616 20.8052 19.4317 18.7191C19.7794 18.3038 19.7311 17.7823 19.364 17.5118C18.9778 17.2414 18.5238 17.338 18.2051 17.6954C16.7178 19.4241 14.4964 20.5058 11.995 20.5058C7.79389 20.5058 4.36532 17.396 3.86307 13.33H5.30213C5.98784 13.33 6.17132 12.8567 5.79469 12.3352L3.6313 9.2543C3.32226 8.81004 2.86832 8.8004 2.54963 9.2543L0.386245 12.3255C-6.94197e-05 12.8567 0.183445 13.33 0.878802 13.33Z" fill="#445B6A"/>
</svg>
