<svg width="22" height="20" viewBox="0 0 22 20" fill="none" xmlns="http://www.w3.org/2000/svg">
<path d="M12.0045 19.2161C12.4966 19.2161 12.8783 18.9951 13.3906 18.5632L21.3157 11.0799C21.6875 10.7083 21.8282 10.3366 21.8282 10.0052C21.8282 9.66362 21.6875 9.29201 21.3157 8.92035L13.3906 1.50739C12.8181 1.03528 12.5167 0.78418 12.0245 0.78418C11.3315 0.78418 10.8292 1.34668 10.8292 2.01967V5.81655H10.5379C3.31583 5.81655 0.171875 10.4471 0.171875 17.8701C0.171875 18.7339 0.664046 19.2161 1.19642 19.2161C1.62833 19.2161 2.09042 19.1156 2.43195 18.4728C4.18973 15.1882 6.65068 14.2038 10.5379 14.2038H10.8292V18.0409C10.8292 18.7139 11.3315 19.2161 12.0045 19.2161ZM12.587 17.0565C12.4966 17.0565 12.4464 16.9962 12.4464 16.9058V13.0185C12.4464 12.7875 12.346 12.6871 12.115 12.6871H10.7589C5.99775 12.6871 2.91405 14.3243 1.76899 16.8656C1.73882 16.936 1.70869 16.9661 1.66853 16.9661C1.62833 16.9661 1.5982 16.9259 1.5982 16.8556C1.79912 12.1145 3.8683 7.33327 10.7589 7.33327H12.115C12.346 7.33327 12.4464 7.23281 12.4464 7.00181V3.01408C12.4464 2.93372 12.5067 2.87347 12.587 2.87347C12.6574 2.87347 12.7076 2.91362 12.7578 2.95382L19.9097 9.81431C19.9899 9.88464 20.0202 9.94489 20.0202 10.0052C20.0202 10.0655 19.9899 10.1156 19.9097 10.196L12.7578 16.9661C12.6976 17.0263 12.6473 17.0565 12.587 17.0565Z" fill="#A0AEB8"/>
</svg>
