<svg fill="none" height="12" viewBox="0 0 15 12" width="15" xmlns="http://www.w3.org/2000/svg"><path d="m.53125 5.71191c0-.1831.073242-.35156.219727-.49072l4.855953-4.841307c.16114-.161133.31495-.219727.49073-.219727.35888 0 .6372.263672.6372.629883 0 .175781-.05859.344241-.17578.461421l-1.64062 1.66993-2.46094 2.24853 1.76514-.10986h9.26514c.3809 0 .6445.27099.6445.65185s-.2636.65186-.6445.65186h-9.26514l-1.77246-.10986 2.46826 2.24853 1.64062 1.66996c.11719.1098.17578.2856.17578.4614 0 .3662-.27832.6299-.6372.6299-.17578 0-.32959-.0659-.47608-.2051l-4.870603-4.85596c-.146485-.13916-.219727-.30762-.219727-.49073z" fill="#37404a"/></svg>