<svg width="24" height="24" viewBox="0 0 24 24" fill="none" xmlns="http://www.w3.org/2000/svg">
<path d="M23.1209 11.2726H21.7979C21.2666 6.35676 17.0365 2.44531 11.995 2.44531C9.05907 2.44531 6.39349 3.77808 4.5778 5.87388C4.21077 6.28917 4.26872 6.80101 4.64539 7.07144C5.0317 7.34187 5.4856 7.25496 5.80433 6.89761C7.30129 5.17853 9.52262 4.08717 11.995 4.08717C16.2059 4.08717 19.6344 7.20666 20.1366 11.2726H18.6976C18.0119 11.2726 17.8285 11.7362 18.2051 12.2674L20.3587 15.3483C20.6679 15.7926 21.1315 15.8022 21.4502 15.3483L23.6134 12.277C23.9999 11.7362 23.8164 11.2726 23.1209 11.2726ZM0.878802 13.3298H2.20193C2.7331 18.2457 6.96332 22.1475 11.995 22.1475C14.9504 22.1475 17.616 20.805 19.4317 18.7189C19.7794 18.3036 19.7311 17.7821 19.364 17.5117C18.9778 17.2412 18.5238 17.3378 18.2051 17.6952C16.7178 19.4239 14.4964 20.5056 11.995 20.5056C7.79389 20.5056 4.36532 17.3958 3.86307 13.3298H5.30213C5.98784 13.3298 6.17132 12.8566 5.79469 12.335L3.6313 9.25411C3.32226 8.80986 2.86832 8.80021 2.54963 9.25411L0.386245 12.3253C-6.94245e-05 12.8566 0.183445 13.3298 0.878802 13.3298Z" fill="#AF38F9"/>
</svg>
