<svg width="24" height="24" viewBox="0 0 24 24" fill="none" xmlns="http://www.w3.org/2000/svg">
<path d="M2.67334 12C2.67334 12.2511 2.78383 12.4821 2.9847 12.673L9.65434 19.3326C9.86528 19.5234 10.0762 19.6138 10.3073 19.6138C10.8095 19.6138 11.1912 19.2522 11.1912 18.75C11.1912 18.5089 11.1008 18.2679 10.9401 18.1172L8.70013 15.827L5.30503 12.7433L7.74587 12.894H20.4423C20.9646 12.894 21.3262 12.5223 21.3262 12C21.3262 11.4777 20.9646 11.106 20.4423 11.106H7.74587L5.3151 11.2567L8.70013 8.17298L10.9401 5.88283C11.1108 5.72207 11.1912 5.49107 11.1912 5.25C11.1912 4.74776 10.8095 4.38617 10.3073 4.38617C10.0762 4.38617 9.85525 4.46653 9.63428 4.6875L2.9847 11.327C2.78383 11.5179 2.67334 11.7489 2.67334 12Z" fill="#445B6A"/>
</svg>
