<svg width="24" height="24" viewBox="0 0 24 24" fill="none" xmlns="http://www.w3.org/2000/svg">
<path d="M5.90793 21.2461H18.1021C20.2014 21.2461 21.2462 20.2014 21.2462 18.1323V5.86773C21.2462 3.79855 20.2014 2.75391 18.1021 2.75391H5.90793C3.81865 2.75391 2.75391 3.78848 2.75391 5.86773V18.1323C2.75391 20.2115 3.81865 21.2461 5.90793 21.2461ZM5.93806 19.6289C4.93362 19.6289 4.37112 19.0965 4.37112 18.0519V5.94809C4.37112 4.90345 4.93362 4.37108 5.93806 4.37108H18.072C19.0664 4.37108 19.6289 4.90345 19.6289 5.94809V18.0519C19.6289 19.0965 19.0664 19.6289 18.072 19.6289H5.93806ZM15.159 14.476C15.601 14.476 15.9023 14.1445 15.9023 13.6724V8.94141C15.9023 8.33875 15.5709 8.10771 15.0586 8.10771H10.2974C9.82534 8.10771 9.52401 8.39901 9.52401 8.84095C9.52401 9.28294 9.83541 9.58426 10.3175 9.58426H12.1457L13.6322 9.42355L12.0653 10.88L8.35885 14.5765C8.21819 14.717 8.11773 14.918 8.11773 15.1189C8.11773 15.5709 8.41906 15.8622 8.86105 15.8622C9.10212 15.8622 9.29296 15.7718 9.43362 15.6311L13.13 11.9347L14.5765 10.3878L14.4258 11.9548V13.6925C14.4258 14.1747 14.7171 14.476 15.159 14.476Z" fill="#445B6A"/>
</svg>
