<svg fill="none" height="12" viewBox="0 0 15 12" width="15" xmlns="http://www.w3.org/2000/svg"><path d="m14.4688 5.71191c0-.1831-.0733-.35156-.2198-.49072l-4.85593-4.841307c-.16114-.161133-.31495-.219727-.49073-.219727-.35888 0-.6372.263672-.6372.629883 0 .175781.05859.344241.17578.461421l1.64058 1.66993 2.461 2.24853-1.7652-.10986h-9.26509c-.38086 0-.644534.27099-.644534.65185s.263674.65186.644534.65186h9.26509l1.7725-.10986-2.4683 2.24853-1.64058 1.66996c-.11719.1098-.17578.2856-.17578.4614 0 .3662.27832.6299.6372.6299.17578 0 .32959-.0659.47608-.2051l4.87058-4.85596c.1465-.13916.2198-.30762.2198-.49073z" fill="#AF38F9"/></svg>