<svg width="24" height="24" viewBox="0 0 24 24" fill="none" xmlns="http://www.w3.org/2000/svg">
<path d="M11.9949 21.4871C12.5173 21.4871 12.8989 21.1255 12.8989 20.6032V7.37445L12.8186 5.23493L15.8219 8.52957L18.1121 10.7796C18.2728 10.9402 18.5139 11.0206 18.7449 11.0206C19.2472 11.0206 19.6188 10.6389 19.6188 10.1467C19.6188 9.90567 19.5284 9.69473 19.3376 9.49386L12.6679 2.81415C12.4771 2.61323 12.246 2.51282 11.9949 2.51282C11.7539 2.51282 11.5228 2.61323 11.332 2.81415L4.66233 9.49386C4.47149 9.69473 4.3811 9.90567 4.3811 10.1467C4.3811 10.6389 4.75272 11.0206 5.24493 11.0206C5.486 11.0206 5.72708 10.9402 5.88779 10.7796L8.16792 8.52957L11.1813 5.22486L11.101 7.37445V20.6032C11.101 21.1255 11.4726 21.4871 11.9949 21.4871Z" fill="white"/>
</svg>
