<svg width="22" height="20" viewBox="0 0 22 20" fill="none" xmlns="http://www.w3.org/2000/svg">
<path d="M9.9955 19.2161C10.6685 19.2161 11.1707 18.7139 11.1707 18.0409V14.2038H11.462C15.3493 14.2038 17.8102 15.1882 19.558 18.4728C19.9096 19.1156 20.3716 19.2161 20.7935 19.2161C21.336 19.2161 21.828 18.7339 21.828 17.8701C21.828 10.4471 18.6841 5.81655 11.462 5.81655H11.1707V2.01967C11.1707 1.34668 10.6685 0.78418 9.97545 0.78418C9.4732 0.78418 9.17183 1.03528 8.60938 1.50739L0.684147 8.92035C0.312489 9.29201 0.171875 9.66362 0.171875 10.0052C0.171875 10.3366 0.312489 10.7083 0.684147 11.0799L8.60938 18.5632C9.11162 18.9951 9.49326 19.2161 9.9955 19.2161ZM9.41295 17.0565C9.35265 17.0565 9.30246 17.0263 9.24216 16.9661L2.09038 10.196C1.99999 10.1156 1.97989 10.0655 1.97989 10.0052C1.97989 9.94489 2.01002 9.88464 2.09038 9.81431L9.24216 2.95382C9.28236 2.91362 9.34262 2.87347 9.41295 2.87347C9.49326 2.87347 9.55356 2.93372 9.55356 3.01408V7.00181C9.55356 7.23281 9.65402 7.33327 9.88502 7.33327H11.2411C18.1317 7.33327 20.2008 12.1145 20.4018 16.8556C20.4018 16.9259 20.3716 16.9661 20.3314 16.9661C20.2813 16.9661 20.2611 16.936 20.2311 16.8656C19.0858 14.3243 16.0022 12.6871 11.2411 12.6871H9.88502C9.65402 12.6871 9.55356 12.7875 9.55356 13.0185V16.9058C9.55356 16.9962 9.49326 17.0565 9.41295 17.0565Z" fill="#A0AEB8"/>
</svg>
