<svg fill="none" height="17" viewBox="0 0 14 17" width="14" xmlns="http://www.w3.org/2000/svg"><path d="m7 .427734c-.35156 0-.59766.246094-.59766.580076v12.20799l.06153 1.8897-2.36426-2.5489-2.66309-2.63668c-.09668-.10547-.26367-.1582-.42187-.1582-.325197 0-.571291.24608-.571291.58008 0 .1582.061524.2988.184571.4307l5.92383 5.915c.13183.1318.28125.2021.44824.2021.1582 0 .30762-.0703.43945-.2021l5.92385-5.915c.1318-.1319.1846-.2725.1846-.4307 0-.334-.2461-.58008-.5713-.58008-.1582 0-.3164.05273-.4219.1582l-2.65431 2.63668-2.36426 2.5401.05274-1.8809v-12.20799c0-.333982-.2461-.580076-.58887-.580076z" fill="#37404a" opacity=".7"/></svg>