<svg width="22" height="22" viewBox="0 0 22 22" fill="none" xmlns="http://www.w3.org/2000/svg">
<path d="M5.41561 19.4756H16.5936C18.518 19.4756 19.4756 18.518 19.4756 16.6212V5.37876C19.4756 3.482 18.518 2.52441 16.5936 2.52441H5.41561C3.50043 2.52441 2.52441 3.47277 2.52441 5.37876V16.6212C2.52441 18.5272 3.50043 19.4756 5.41561 19.4756ZM5.44322 17.9932C4.52249 17.9932 4.00686 17.5052 4.00686 16.5476V5.45242C4.00686 4.49483 4.52249 4.00682 5.44322 4.00682H16.566C17.4775 4.00682 17.9932 4.49483 17.9932 5.45242V16.5476C17.9932 17.5052 17.4775 17.9932 16.566 17.9932H5.44322ZM13.8958 13.2697C14.3009 13.2697 14.5772 12.9658 14.5772 12.533V8.19629C14.5772 7.64385 14.2733 7.43206 13.8037 7.43206H9.43933C9.00656 7.43206 8.73034 7.69909 8.73034 8.1042C8.73034 8.50936 9.01579 8.78558 9.45775 8.78558H11.1335L12.4962 8.63825L11.0599 9.97334L7.66228 13.3618C7.53334 13.4906 7.44126 13.6748 7.44126 13.859C7.44126 14.2733 7.71747 14.5403 8.12263 14.5403C8.34361 14.5403 8.51855 14.4575 8.64749 14.3286L12.0358 10.9402L13.3618 9.52218L13.2236 10.9585V12.5515C13.2236 12.9934 13.4907 13.2697 13.8958 13.2697Z" fill="#A0AEB8"/>
</svg>
