<svg width="24" height="24" viewBox="0 0 24 24" fill="none" xmlns="http://www.w3.org/2000/svg">
<path d="M3.51743 4.09485C2.99513 4.09485 2.74399 4.43633 2.66363 4.83816C2.59334 5.14952 2.57324 5.64173 2.57324 6.23436C2.57324 11.0959 4.52191 13.1852 9.28309 13.1852H16.3042L18.7652 13.0446L15.3902 16.1283L13.1603 18.3984C12.9996 18.5692 12.9092 18.8002 12.9092 19.0413C12.9092 19.5435 13.3009 19.9051 13.7931 19.9051C14.0241 19.9051 14.2451 19.8147 14.4661 19.6038L21.1157 12.9643C21.3265 12.7633 21.4271 12.5323 21.4271 12.2812C21.4271 12.0401 21.3265 11.7991 21.1157 11.6082L14.446 4.93858C14.2451 4.74773 14.0241 4.66738 13.7931 4.66738C13.3009 4.66738 12.9092 5.02901 12.9092 5.53121C12.9092 5.77232 12.9996 6.00332 13.1603 6.16403L15.3902 8.43413L18.7753 11.5379L16.3042 11.3872H9.37347C5.68707 11.3872 4.39133 9.87049 4.39133 6.14393C4.39133 5.66183 4.42146 5.34041 4.42146 4.97878C4.42146 4.45643 4.0498 4.09485 3.51743 4.09485Z" fill="#445B6A"/>
</svg>
