<svg width="24" height="24" viewBox="0 0 24 24" fill="none" xmlns="http://www.w3.org/2000/svg">
<path d="M21.3262 12C21.3262 11.7489 21.2259 11.5179 21.0249 11.327L14.3753 4.6875C14.1543 4.46653 13.9334 4.38617 13.6923 4.38617C13.2001 4.38617 12.8184 4.74776 12.8184 5.25C12.8184 5.49107 12.8988 5.72207 13.0595 5.88283L15.3095 8.17298L18.6945 11.2567L16.2637 11.106H3.55727C3.045 11.106 2.67334 11.4777 2.67334 12C2.67334 12.5223 3.045 12.894 3.55727 12.894H16.2637L18.7046 12.7433L15.3095 15.827L13.0595 18.1172C12.8988 18.2679 12.8184 18.5089 12.8184 18.75C12.8184 19.2522 13.2001 19.6138 13.6923 19.6138C13.9334 19.6138 14.1443 19.5234 14.3452 19.3326L21.0249 12.673C21.2259 12.4821 21.3262 12.2511 21.3262 12Z" fill="#445B6A"/>
</svg>
