<svg width="22" height="22" viewBox="0 0 22 22" fill="none" xmlns="http://www.w3.org/2000/svg">
<path d="M15.7005 19.6966C15.9307 19.6966 16.1424 19.6137 16.3174 19.4296L21.6301 14.0155C21.7868 13.859 21.8881 13.6196 21.8881 13.417C21.8881 12.929 21.5473 12.5975 21.0685 12.5975C20.8383 12.5975 20.6542 12.6804 20.5068 12.8278L17.9196 15.4795L16.4279 17.2197L16.52 15.0652V3.12293C16.52 2.64415 16.1793 2.30347 15.7005 2.30347C15.2217 2.30347 14.881 2.64415 14.881 3.12293V15.0652L14.9731 17.2197L13.4815 15.4795L10.8941 12.8278C10.7468 12.6804 10.5626 12.5975 10.3325 12.5975C9.85366 12.5975 9.51301 12.929 9.51301 13.417C9.51301 13.6196 9.61429 13.859 9.77081 14.0155L15.0836 19.4296C15.2585 19.6137 15.4703 19.6966 15.7005 19.6966ZM6.29956 19.6966C6.77834 19.6966 7.11902 19.3559 7.11902 18.8771V6.9349L7.02693 4.78031L8.51857 6.52051L11.1059 9.1723C11.2532 9.31966 11.4374 9.40251 11.6676 9.40251C12.1464 9.40251 12.4778 9.07102 12.4778 8.58301C12.4778 8.38046 12.3858 8.14109 12.2292 7.98453L6.91646 2.57049C6.74152 2.38632 6.52054 2.30347 6.29956 2.30347C6.06939 2.30347 5.8576 2.38632 5.68266 2.57049L0.369853 7.98453C0.213339 8.14109 0.112061 8.38046 0.112061 8.58301C0.112061 9.07102 0.452746 9.40251 0.922328 9.40251C1.16174 9.40251 1.34587 9.31966 1.49319 9.1723L4.08051 6.52051L5.57215 4.78031L5.4801 6.9349V18.8771C5.4801 19.3559 5.82075 19.6966 6.29956 19.6966Z" fill="#445B6A"/>
</svg>
