<svg width="16" height="18" viewBox="0 0 16 18" fill="none" xmlns="http://www.w3.org/2000/svg">
<path d="M10.5873 17.7519C10.8727 18.065 11.3699 18.1018 11.7198 17.7335C13.9113 15.4408 15.1727 12.3655 15.1727 9.00471C15.1727 5.64394 13.9297 2.541 11.7198 0.266707C11.3699 -0.101596 10.8727 -0.0647464 10.5873 0.248321C10.3019 0.570543 10.3663 1.02174 10.6978 1.37162C12.6222 3.35126 13.6719 6.04909 13.6719 9.00471C13.6719 11.9603 12.6038 14.6305 10.6978 16.6286C10.3663 16.9785 10.3019 17.4389 10.5873 17.7519ZM7.92632 15.3027C8.22096 15.6434 8.73658 15.6434 9.08646 15.2567C10.6149 13.5993 11.4805 11.3895 11.4805 9.00471C11.4805 6.61995 10.6333 4.4009 9.08646 2.75275C8.73658 2.35682 8.22096 2.35683 7.92632 2.70674C7.63167 3.0382 7.72376 3.47097 8.05521 3.84846C9.29825 5.21121 9.97962 7.01587 9.97962 9.00471C9.97962 10.9844 9.28902 12.789 8.05521 14.161C7.72376 14.5385 7.63167 14.962 7.92632 15.3027ZM5.34819 12.6786C5.65203 13.0192 6.2045 13.0284 6.52676 12.6141C7.32784 11.6197 7.78819 10.3582 7.78819 9.00471C7.78819 7.6512 7.32784 6.38055 6.52676 5.39534C6.2045 4.9718 5.65203 4.98099 5.34819 5.33091C5.05355 5.66236 5.18245 6.06748 5.4679 6.47263C6.01114 7.1632 6.28736 8.04712 6.28736 9.00471C6.28736 9.9623 6.02033 10.8462 5.4679 11.5368C5.17325 11.9328 5.05355 12.3471 5.34819 12.6786ZM2.18078 10.3122C2.9082 10.3122 3.5251 9.69528 3.5251 8.9679C3.5251 8.22206 2.92658 7.62359 2.18078 7.62359C1.44417 7.62359 0.827271 8.25891 0.827271 8.98633C0.827271 9.68608 1.4626 10.3122 2.18078 10.3122Z" fill="#475569"/>
</svg>
