<svg width="20" height="26" viewBox="0 0 20 26" fill="none" xmlns="http://www.w3.org/2000/svg">
<path d="M13.5281 24.9345C13.9174 25.3614 14.5954 25.4116 15.0725 24.9094C18.0608 21.783 19.7809 17.5893 19.7809 13.0065C19.7809 8.4236 18.0859 4.19231 15.0725 1.09101C14.5954 0.588776 13.9174 0.639027 13.5281 1.06594C13.1389 1.50533 13.2268 2.1206 13.6788 2.59771C16.303 5.29722 17.7343 8.97608 17.7343 13.0065C17.7343 17.0369 16.2778 20.6781 13.6788 23.4027C13.2268 23.8798 13.1389 24.5076 13.5281 24.9345ZM9.89951 21.5947C10.3013 22.0592 11.0044 22.0592 11.4815 21.5319C13.5658 19.2718 14.7461 16.2584 14.7461 13.0065C14.7461 9.75453 13.5909 6.72854 11.4815 4.48106C11.0044 3.94117 10.3013 3.94117 9.89951 4.41833C9.49773 4.87031 9.6233 5.46045 10.0753 5.97522C11.7703 7.83351 12.6995 10.2944 12.6995 13.0065C12.6995 15.706 11.7577 18.1669 10.0753 20.0377C9.6233 20.5525 9.49773 21.1301 9.89951 21.5947ZM6.38389 18.0163C6.79821 18.4808 7.55158 18.4934 7.99103 17.9283C9.0834 16.5723 9.71115 14.8522 9.71115 13.0065C9.71115 11.1608 9.0834 9.42806 7.99103 8.0846C7.55158 7.50704 6.79821 7.51958 6.38389 7.99674C5.9821 8.44872 6.15787 9.00115 6.54712 9.55363C7.28791 10.4953 7.66457 11.7007 7.66457 13.0065C7.66457 14.3123 7.30044 15.5176 6.54712 16.4593C6.14533 16.9993 5.9821 17.5642 6.38389 18.0163ZM2.06469 14.7894C3.05662 14.7894 3.89785 13.9482 3.89785 12.9563C3.89785 11.9392 3.08169 11.1231 2.06469 11.1231C1.06023 11.1231 0.218994 11.9895 0.218994 12.9814C0.218994 13.9356 1.08535 14.7894 2.06469 14.7894Z" fill="#AF38F9"/>
</svg>
