<svg width="24" height="24" viewBox="0 0 24 24" fill="none" xmlns="http://www.w3.org/2000/svg">
<path d="M4.03966 18.75H14.1546C14.0843 20.106 13.2104 20.9699 12.0051 20.9699C10.7897 20.9699 9.92584 20.106 9.84548 18.75H8.27854C8.35889 20.6786 9.87561 22.3761 12.0051 22.3761C14.1245 22.3761 15.6412 20.6786 15.7216 18.75H19.9604C20.9146 18.75 21.4772 18.2578 21.4772 17.5346C21.4772 16.5301 20.4626 15.6261 19.5888 14.7321C18.9258 14.0391 18.745 12.6127 18.6747 11.4576C18.5944 7.5 17.5799 4.9386 14.8979 3.97432C14.5664 2.66854 13.4816 1.6239 12.0051 1.6239C10.5185 1.6239 9.44369 2.66854 9.10216 3.97432C6.43032 4.9386 5.40573 7.5 5.33545 11.4576C5.25509 12.6127 5.08431 14.0391 4.41132 14.7321C3.54749 15.6261 2.52295 16.5301 2.52295 17.5346C2.52295 18.2578 3.09548 18.75 4.03966 18.75ZM4.48165 17.2332V17.1127C4.66246 16.8114 5.25509 16.2288 5.78746 15.6362C6.50061 14.8326 6.84213 13.5469 6.93252 11.5781C7.01288 7.19867 8.31869 5.7924 10.0463 5.33036C10.2975 5.2701 10.4281 5.13952 10.4381 4.88837C10.4783 3.8337 11.0709 3.10046 12.0051 3.10046C12.9292 3.10046 13.5319 3.8337 13.562 4.88837C13.572 5.13952 13.7126 5.2701 13.9638 5.33036C15.6814 5.7924 16.9872 7.19867 17.0776 11.5781C17.158 13.5469 17.4995 14.8326 18.2227 15.6362C18.745 16.2288 19.3477 16.8114 19.5285 17.1127V17.2332H4.48165Z" fill="#445B6A"/>
</svg>
