<svg width="24" height="24" viewBox="0 0 24 24" fill="none" xmlns="http://www.w3.org/2000/svg">
<path d="M17.1177 14.481L20.7138 18.1574C20.8745 17.9565 20.9648 17.7154 20.9648 17.4342C20.9648 16.6306 20.1311 15.8772 19.4079 15.154C18.5843 14.2299 18.2829 13.2355 18.2327 11.7991C18.1825 7.53013 17.1177 4.94867 14.4258 3.97432C14.0541 2.56809 12.9191 1.6239 11.5329 1.6239C10.1367 1.6239 9.01168 2.56809 8.63 3.97432C8.0876 4.15513 7.62555 4.40627 7.22377 4.7277L8.3789 5.90289C8.74052 5.65179 9.14227 5.44084 9.57422 5.33036C9.82532 5.26003 9.95591 5.13952 9.96594 4.88837C10.0061 3.8337 10.5988 3.10046 11.5329 3.10046C12.447 3.10046 13.0597 3.8337 13.0898 4.88837C13.0999 5.13952 13.2405 5.2701 13.4916 5.33036C15.2494 5.7723 16.5653 7.25893 16.6356 11.8393C16.6858 13.0647 16.7863 13.808 17.1177 14.481ZM20.553 21.9442C20.8543 22.2455 21.3466 22.2455 21.6479 21.9442C21.9491 21.6529 21.9491 21.1507 21.6479 20.8493L3.97931 3.20087C3.67798 2.89954 3.17578 2.89954 2.87441 3.20087C2.58311 3.49217 2.58311 3.99442 2.87441 4.29574L20.553 21.9442ZM3.5675 18.75H13.6825C13.6121 20.106 12.7383 20.9699 11.5329 20.9699C10.3175 20.9699 9.45367 20.106 9.37331 18.75H7.80637C7.88672 20.6786 9.40344 22.3761 11.5329 22.3761C13.582 22.3761 15.0686 20.7891 15.2293 18.9308L15.0485 18.75H15.7014L14.1847 17.2332H4.00948V17.1127C4.19025 16.8114 4.78292 16.2288 5.3153 15.6362C6.02844 14.8326 6.36997 13.5469 6.46035 11.5781C6.48045 10.865 6.53068 10.2321 6.61104 9.65962L5.20481 8.25334C4.99387 9.1875 4.88338 10.2522 4.86328 11.4576C4.78292 12.6127 4.60211 14.0391 3.93915 14.7321C3.07532 15.6261 2.05078 16.5301 2.05078 17.5346C2.05078 18.2679 2.61328 18.75 3.5675 18.75Z" fill="#445B6A"/>
</svg>
