<svg fill="none" height="24" viewBox="0 0 25 24" width="25" xmlns="http://www.w3.org/2000/svg"><circle cx="13.201" cy="6.155" r="5.655" stroke="#37404a"/><path d="m13.2018 3.25879v3.6208h2.5345" stroke="#37404a" stroke-linecap="round" stroke-linejoin="round"/><path clip-rule="evenodd" d="m24.5384 12.8297c.0739-.2216.1292-.4953.1131-.769-.0161-.2734-.1091-.6049-.3948-.842-.287-.2382-.6681-.2979-1.0785-.2446-.4091.0531-.9064.2242-1.5102.5261l-.0342.0171-.0312.0221-3.3841 2.3971c-.2892-.2866-.6478-.495-.989-.6446-.5014-.2199-1.0325-.3424-1.4312-.3923l-.0724-.009-.0719.012-4.2241.7043c-3.10167-.9915-5.37243-.0647-6.48521.8412l-.11438-.5071c-.12151-.5388-.65676-.877-1.19551-.7555l-2.854596.6438c-.538752.1215-.8769935.6568-.7554839 1.1955l1.6635499 7.3759c.12151.5388.65675.877 1.19551.7555l2.85459-.6438c.53876-.1215.877-.6568.75549-1.1955l-.03517-.156c.10658-.1413.25776-.3155.42747-.4635.23834-.2079.42178-.2842.52226-.2842.55747 0 4.29698.2393 6.12208.361l.0166.0011h.0167c.5328 0 1.3827-.0981 2.2571-.3874.8619-.2852 1.7947-.772 2.4553-1.5823l6.1306-5.7699.0918-.0864zm-18.34679 7.147c.01233-.0111.02476-.0221.03729-.033.28064-.2447.70067-.5305 1.17952-.5305.59927 0 4.36888.2419 6.17138.362.4349-.002 1.1694-.086 1.927-.3367.7695-.2546 1.5147-.665 2.0115-1.286l.0221-.0275.0257-.0242 6.056-5.6999c.0247-.1019.0359-.2003.0311-.2815-.0031-.0534-.0125-.0881-.0208-.108-.0072-.0173-.0127-.0218-.0142-.0231h-.0001l-.0001-.0001c-.0015-.0013-.0158-.0132-.0597-.0224-.0471-.0099-.1271-.0161-.2513 0-.248.0322-.6213.1466-1.158.4121l-3.4121 2.4169c.0738.2666.0868.5586.0242.8715l-.0694.3469-.3502.05-5.0691.7242-.1414-.99 4.6581-.6654c-.0171-.0967-.0514-.1829-.0978-.2619-.1499-.2556-.4554-.4834-.8634-.6624-.3703-.1624-.772-.2611-1.0838-.3063l-4.2706.7121-.1225.0204-.1178-.0393c-3.28-1.0933-5.38569.2443-5.97971.9373l-.07979-.0684zm-5.19139-5.1719 2.85459-.6438 1.66355 7.3759-2.8546.6438z" fill="#37404a" fill-rule="evenodd"/></svg>