<svg fill="none" height="17" viewBox="0 0 17 17" width="17" xmlns="http://www.w3.org/2000/svg"><path d="m8.36719 16.3281c4.35941 0 7.96871-3.6093 7.96871-7.96872 0-4.35157-3.6171-7.968755-7.97652-7.968755-4.35157 0-7.960942 3.617185-7.960942 7.968755 0 4.35942 3.617182 7.96872 7.968752 7.96872zm0-1.3281c-3.6875 0-6.63281-2.9531-6.63281-6.64062 0-3.67969 2.9375-6.64063 6.625-6.64063 3.68752 0 6.64062 2.96094 6.64842 6.64063.0078 3.68752-2.9531 6.64062-6.64061 6.64062zm-.00781-2.1719c.21093 0 .375-.1562.375-.375v-.5469c1.20312-.1171 2.14842-.8203 2.14842-1.99995 0-1.0625-.6875-1.70313-2.04686-1.94531l-.10156-.02344v-2.17188c.55468.09376.94531.42969 1.10156.96094.07812.23438.22656.38282.47656.38282.2656 0 .4609-.19532.4609-.46094 0-.08594-.0234-.15625-.039-.24219-.2032-.85156-1.00002-1.42969-2.00002-1.53906v-.53907c0-.21874-.16407-.375-.375-.375-.21094 0-.36719.14844-.36719.375v.53907c-1.1875.13281-2.02344.86719-2.02344 1.92969 0 .99218.66406 1.58593 1.96875 1.89062l.05469.01562v2.31248c-.70313-.1015-1.11719-.4844-1.24219-1.0078-.08594-.26561-.25-.39061-.48438-.39061-.26562 0-.45312.1875-.45312.46091 0 .086.01562.1563.03906.2422.21875.8985 1.09375 1.4688 2.14063 1.5781v.5547c0 .2266.15625.375.36719.375zm-.36719-5.0781-.05469-.01562c-.70312-.21094-1.00781-.51563-1.00781-.98438 0-.47656.39843-.875 1.0625-.98438zm.74219 1.14844.16406.03906c.75781.21094 1.02344.53125 1.02344 1.02344 0 .55466-.39063.96876-1.1875 1.05466z" fill="#37404a"/></svg>