<svg width="22" height="18" viewBox="0 0 22 18" fill="none" xmlns="http://www.w3.org/2000/svg">
<path d="M3.59702 17.8714H18.4029C20.3088 17.8714 21.2571 16.9507 21.2571 15.0631V6.10413C21.2571 4.22576 20.3088 3.29583 18.4029 3.29583H16.4508V2.71574C16.4508 0.92026 15.5577 0.128418 13.8543 0.128418H8.14556C6.53426 0.128418 5.53981 0.92026 5.53981 2.71574V3.29583H3.59702C1.69107 3.29583 0.742676 4.22576 0.742676 6.10413V15.0631C0.742676 16.9507 1.69107 17.8714 3.59702 17.8714ZM6.96699 2.61446C6.96699 1.85023 7.36291 1.4635 8.12713 1.4635H13.8727C14.6369 1.4635 15.0236 1.85023 15.0236 2.61446V3.29583H6.96699V2.61446ZM2.22508 6.17779C2.22508 5.23863 2.7039 4.76904 3.61544 4.76904H18.3844C19.2868 4.76904 19.7748 5.23863 19.7748 6.17779V8.60859H2.22508V6.17779ZM3.61544 16.3982C2.7039 16.3982 2.22508 15.9379 2.22508 14.9895V9.98972H7.36291V10.5606C7.36291 11.3156 7.79568 11.7484 8.55991 11.7484H13.4399C14.195 11.7484 14.6369 11.3156 14.6369 10.5606V9.98972H19.7748V14.9895C19.7748 15.9379 19.2868 16.3982 18.3844 16.3982H3.61544Z" fill="#445B6A"/>
</svg>
