<svg width="24" height="24" viewBox="0 0 24 24" fill="none" xmlns="http://www.w3.org/2000/svg">
<path d="M3.92389 21.678H20.0758C22.1549 21.678 23.1895 20.6736 23.1895 18.6144V8.84096C23.1895 6.79183 22.1549 5.77736 20.0758 5.77736H17.9462V5.14453C17.9462 3.18583 16.9719 2.32201 15.1136 2.32201H8.88593C7.12814 2.32201 6.0433 3.18583 6.0433 5.14453V5.77736H3.92389C1.84467 5.77736 0.810059 6.79183 0.810059 8.84096V18.6144C0.810059 20.6736 1.84467 21.678 3.92389 21.678ZM7.60022 5.03405C7.60022 4.20035 8.03213 3.77846 8.86583 3.77846H15.1337C15.9674 3.77846 16.3893 4.20035 16.3893 5.03405V5.77736H7.60022V5.03405ZM2.42723 8.92132C2.42723 7.89678 2.94957 7.38451 3.94399 7.38451H20.0556C21.04 7.38451 21.5723 7.89678 21.5723 8.92132V11.5731H2.42723V8.92132ZM3.94399 20.0709C2.94957 20.0709 2.42723 19.5687 2.42723 18.534V13.0798H8.03213V13.7026C8.03213 14.5262 8.50424 14.9983 9.33794 14.9983H14.6616C15.4853 14.9983 15.9674 14.5262 15.9674 13.7026V13.0798H21.5723V18.534C21.5723 19.5687 21.04 20.0709 20.0556 20.0709H3.94399Z" fill="#445B6A"/>
</svg>
