<svg fill="none" height="24" viewBox="0 0 24 24" width="24" xmlns="http://www.w3.org/2000/svg"><g fill="#37404a"><path d="m20.4706 24h-16.94119c-1.94823 0-3.52941-1.5812-3.52941-3.5294v-16.94119c0-1.94823 1.58118-3.52941 3.52941-3.52941h16.94119c1.9482 0 3.5294 1.58118 3.5294 3.52941v16.94119c0 1.9482-1.5812 3.5294-3.5294 3.5294zm-16.94119-22.58824c-1.16706 0-2.11765.95059-2.11765 2.11765v16.94119c0 1.167.95059 2.1176 2.11765 2.1176h16.94119c1.167 0 2.1176-.9506 2.1176-2.1176v-16.94119c0-1.16706-.9506-2.11765-2.1176-2.11765z"/><path d="m23.294 11.293h-22.588189v1.4117h22.588189z"/><path d="m12.706.707031h-1.4118v22.588269h1.4118z"/><path d="m6.2118 8.51715c-.26353 0-.47059-.20706-.47059-.47059v-3.84941c0-.26353.20706-.47059.47059-.47059s.47059.20706.47059.47059v3.84941c0 .25412-.21647.47059-.47059.47059z"/><path d="m3.81177 6.11903c0-.26353.20706-.47059.47059-.47059h3.84941c.26353 0 .47059.20706.47059.47059s-.20706.47058-.47059.47058h-3.84941c-.25412 0-.47059-.20705-.47059-.47058z"/><path d="m4.51764 19.0685c-.18823-.1883-.18823-.48 0-.6683l2.72-2.72c.18824-.1882.48-.1882.66824 0 .18823.1883.18823.48 0 .6683l-2.72 2.72c-.18824.1882-.48942.1882-.66824 0z"/><path d="m4.51764 15.6802c.18824-.1882.48-.1882.66824 0l2.72 2.72c.18823.1883.18823.48 0 .6683-.18824.1882-.48.1882-.66824 0l-2.72-2.72c-.18823-.1883-.18823-.48 0-.6683z"/><path d="m15.407 6.11903c0-.26353.207-.47059.4706-.47059h3.8494c.2635 0 .4706.20706.4706.47059s-.2071.47058-.4706.47058h-3.8494c-.2541 0-.4706-.20705-.4706-.47058z"/><path d="m15.407 16.4042c0-.2635.207-.4706.4706-.4706h3.8494c.2635 0 .4706.2071.4706.4706s-.2071.4706-.4706.4706h-3.8494c-.2541 0-.4706-.2165-.4706-.4706z"/><path d="m15.407 18.5018c0-.2635.207-.4706.4706-.4706h3.8494c.2635 0 .4706.2071.4706.4706 0 .2636-.2071.4706-.4706.4706h-3.8494c-.2541 0-.4706-.207-.4706-.4706z"/></g></svg>