<svg fill="none" height="12" viewBox="0 0 13 12" width="13" xmlns="http://www.w3.org/2000/svg"><path d="m2.33398 11.1719h8.00392c1.2246 0 1.834-.6094 1.834-1.81643v-7.1543c0-1.207029-.6094-1.816404-1.834-1.816404h-8.00392c-1.2246 0-1.839839.603515-1.839839 1.816404v7.1543c0 1.21293.615239 1.81643 1.839839 1.81643zm-.08789-.9434c-.52148 0-.80859-.27538-.80859-.8203v-5.52539c0-.53906.28711-.82031.80859-.82031h8.16801c.5214 0 .8144.28125.8144.82031v5.52539c0 .54492-.293.8203-.8144.8203zm2.94141-5.06248h.3457c.20508 0 .27539-.0586.27539-.26368v-.3457c0-.20508-.07031-.26953-.27539-.26953h-.3457c-.20508 0-.27539.06445-.27539.26953v.3457c0 .20508.07031.26368.27539.26368zm1.95117 0h.33985c.20507 0 .27539-.0586.27539-.26368v-.3457c0-.20508-.07032-.26953-.27539-.26953h-.33985c-.21094 0-.27539.06445-.27539.26953v.3457c0 .20508.06445.26368.27539.26368zm1.94531 0h.34571c.20508 0 .26953-.0586.26953-.26368v-.3457c0-.20508-.06445-.26953-.26953-.26953h-.34571c-.20507 0-.27539.06445-.27539.26953v.3457c0 .20508.07032.26368.27539.26368zm-5.84179 1.91601h.3457c.20508 0 .26953-.05859.26953-.26367v-.3457c0-.20508-.06445-.26368-.26953-.26368h-.3457c-.20508 0-.27539.0586-.27539.26368v.3457c0 .20508.07031.26367.27539.26367zm1.94531 0h.3457c.20508 0 .27539-.05859.27539-.26367v-.3457c0-.20508-.07031-.26368-.27539-.26368h-.3457c-.20508 0-.27539.0586-.27539.26368v.3457c0 .20508.07031.26367.27539.26367zm1.95117 0h.33985c.20507 0 .27539-.05859.27539-.26367v-.3457c0-.20508-.07032-.26368-.27539-.26368h-.33985c-.21094 0-.27539.0586-.27539.26368v.3457c0 .20508.06445.26367.27539.26367zm1.94531 0h.34571c.20508 0 .26953-.05859.26953-.26367v-.3457c0-.20508-.06445-.26368-.26953-.26368h-.34571c-.20507 0-.27539.0586-.27539.26368v.3457c0 .20508.07032.26367.27539.26367zm-5.84179 1.92188h.3457c.20508 0 .26953-.06446.26953-.26953v-.34571c0-.20508-.06445-.26367-.26953-.26367h-.3457c-.20508 0-.27539.05859-.27539.26367v.34571c0 .20507.07031.26953.27539.26953zm1.94531 0h.3457c.20508 0 .27539-.06446.27539-.26953v-.34571c0-.20508-.07031-.26367-.27539-.26367h-.3457c-.20508 0-.27539.05859-.27539.26367v.34571c0 .20507.07031.26953.27539.26953zm1.95117 0h.33985c.20507 0 .27539-.06446.27539-.26953v-.34571c0-.20508-.07032-.26367-.27539-.26367h-.33985c-.21094 0-.27539.05859-.27539.26367v.34571c0 .20507.06445.26953.27539.26953z" fill="#b3c0c7"/></svg>