<svg fill="none" height="32" viewBox="0 0 32 32" width="32" xmlns="http://www.w3.org/2000/svg"><path d="m5.46351 29.9343h20.90939c3.0783 0 4.6271-1.5559 4.6271-4.6284v-18.8878c0-3.07243-1.5488-4.64808-4.6271-4.64808h-20.90939c-3.05895 0-4.607797 1.55592-4.607797 4.64808v18.8878c0 3.0725 1.548847 4.6284 4.607797 4.6284zm-.17423-2.1862c-1.47142 0-2.28457-.7878-2.28457-2.3437v-14.3185c0-1.55592.81315-2.34372 2.28457-2.34372h21.25782c1.452 0 2.2845.7878 2.2845 2.34372v14.3185c0 1.5559-.8325 2.3437-2.2845 2.3437zm7.64742-13.5109h.8906c.5033 0 .6582-.1379.6582-.65v-.906c0-.4923-.1549-.6499-.6582-.6499h-.8906c-.5034 0-.6583.1576-.6583.6499v.906c0 .5121.1549.65.6583.65zm5.0918 0h.8906c.5033 0 .6582-.1379.6582-.65v-.906c0-.4923-.1549-.6499-.6582-.6499h-.8906c-.5034 0-.6583.1576-.6583.6499v.906c0 .5121.1549.65.6583.65zm5.0918 0h.8906c.5033 0 .6582-.1379.6582-.65v-.906c0-.4923-.1549-.6499-.6582-.6499h-.8906c-.5034 0-.6583.1576-.6583.6499v.906c0 .5121.1549.65.6583.65zm-15.27544 5.101h.89059c.50336 0 .65823-.1378.65823-.6499v-.906c0-.4924-.15487-.6499-.65823-.6499h-.89059c-.5034 0-.65827.1575-.65827.6499v.906c0 .5121.15487.6499.65827.6499zm5.09184 0h.8906c.5033 0 .6582-.1378.6582-.6499v-.906c0-.4924-.1549-.6499-.6582-.6499h-.8906c-.5034 0-.6583.1575-.6583.6499v.906c0 .5121.1549.6499.6583.6499zm5.0918 0h.8906c.5033 0 .6582-.1378.6582-.6499v-.906c0-.4924-.1549-.6499-.6582-.6499h-.8906c-.5034 0-.6583.1575-.6583.6499v.906c0 .5121.1549.6499.6583.6499zm5.0918 0h.8906c.5033 0 .6582-.1378.6582-.6499v-.906c0-.4924-.1549-.6499-.6582-.6499h-.8906c-.5034 0-.6583.1575-.6583.6499v.906c0 .5121.1549.6499.6583.6499zm-15.27544 5.1011h.89059c.50336 0 .65823-.1378.65823-.6499v-.906c0-.4924-.15487-.6302-.65823-.6302h-.89059c-.5034 0-.65827.1378-.65827.6302v.906c0 .5121.15487.6499.65827.6499zm5.09184 0h.8906c.5033 0 .6582-.1378.6582-.6499v-.906c0-.4924-.1549-.6302-.6582-.6302h-.8906c-.5034 0-.6583.1378-.6583.6302v.906c0 .5121.1549.6499.6583.6499zm5.0918 0h.8906c.5033 0 .6582-.1378.6582-.6499v-.906c0-.4924-.1549-.6302-.6582-.6302h-.8906c-.5034 0-.6583.1378-.6583.6302v.906c0 .5121.1549.6499.6583.6499z" fill="#37404a"/></svg>