<svg fill="none" height="10" viewBox="0 0 10 10" width="10" xmlns="http://www.w3.org/2000/svg"><path d="m.199139 8.79668c-.2603441.26034-.2727414.72524.006198.99798.272741.27274.737641.26654.997983.0062l3.79358-3.79978 3.79978 3.79978c.26654.26654.72524.26654.99798-.0062.26654-.27894.27274-.73144 0-.99798l-3.79358-3.79978 3.79358-3.79358c.27274-.266541.27274-.725242 0-.997983-.27894-.2665421-.73144-.2727407-.99798-.006198l-3.79978 3.799781-3.79358-3.799781c-.260342-.2603441-.73144-.2727414-.997983.006198-.2727407.272741-.2665421.737641-.006198.997983l3.799781 3.79358z" fill="#a3a3a3"/></svg>