<svg fill="none" height="34" viewBox="0 0 34 34" width="34" xmlns="http://www.w3.org/2000/svg"><path d="m14.1309 23.8345h5.7382c.9395 0 1.4917-.4888 1.5362-1.4346l.4062-9.0391h.9141c.3618 0 .6348-.2729.6348-.6347 0-.3555-.273-.6284-.6348-.6284h-2.7549v-.7872c0-1.0283-.7236-1.69478-1.8789-1.69478h-2.1836c-1.1616 0-1.8789.66648-1.8789 1.69478v.7872h-2.7549c-.3618 0-.6411.2729-.6411.6284 0 .3618.2793.6347.6411.6347h.9141l.4126 9.0391c.0444.9458.5903 1.4346 1.5298 1.4346zm1.2251-11.7368v-.7364c.0063-.3427.2602-.584.6284-.584h2.0312c.3745 0 .6221.2413.6284.584l.0064.7364zm-1.0284 9.4135-.2475-6.7983c-.0064-.292.1968-.5078.4507-.5078s.4633.2285.4697.5078l.2349 6.792c.0063.2856-.1905.5205-.4571.5205-.2539 0-.4443-.2158-.4507-.5142zm2.209 0-.0063-6.7983c0-.2793.2221-.5078.4697-.5078s.4697.2285.4697.5078v6.7983c0 .2793-.2221.5142-.4697.5142s-.4634-.2349-.4634-.5142zm2.2344-.0063.2285-6.792c.0127-.2793.2222-.5078.4697-.5078.2603 0 .4634.2221.4571.5078l-.2539 6.7983c-.0064.2984-.1968.5142-.4507.5142-.2666 0-.4634-.2349-.4507-.5205z" fill="#37404a"/><circle cx="17" cy="17" r="15" stroke="#ffb900" stroke-width="3"/></svg>