<svg fill="none" height="16" viewBox="0 0 16 16" width="16" xmlns="http://www.w3.org/2000/svg"><path d="m.744141 14.2188c-.332032.332-.341797.8984 0 1.2304.341799.332.908199.332 1.240239 0l6.25-6.24998 6.25002 6.24998c.332.332.9082.3418 1.2402 0s.332-.8984 0-1.2304l-6.24999-6.25982 6.24999-6.25c.332-.33203.3418-.898433 0-1.230464-.3418-.341797-.9082-.341797-1.2402 0l-6.25002 6.250004-6.25-6.250004c-.33204-.341797-.90821-.351563-1.240239 0-.332032.341796-.332032.898434 0 1.230464l6.249999 6.25z" fill="#37404a"/></svg>