<svg fill="none" height="18" viewBox="0 0 19 18" width="19" xmlns="http://www.w3.org/2000/svg"><path d="m16.4675.00000023c-.5481-.00023473-1.0815.17694577-1.5199.50490877-.4385.327964-.7584.788991-.9116 1.313791-.1533.5248-.1315 1.08501.0619 1.59643.1934.51143.5481.94643 1.0106 1.23963l-1.6525 5.76764c-.0513-.0032-.1026-.0049-.154-.0051-.5448-.0006-1.0751.1749-1.5113.5003l-3.05301-2.53707c.14454-.42764.17152-.88609.07815-1.32766-.09337-.44156-.30369-.85011-.60907-1.18314s-.69468-.57838-1.12738-.71052c-.4327-.13213-.89301-.14623-1.33303-.04083-.44002.10541-.84368.32646-1.16898.64017-.32531.31372-.56037.70862-.68075 1.14364-.12037.43502-.12165.89426-.00371 1.32994.11795.43567.35081.83188.67435 1.14739l-1.79219 3.57458c-.07849-.0075-.15728-.0112-.23611-.0114-.6067-.0008-1.19357.2154-1.654079.6093-.460514.3939-.764148.9393-.8557903 1.5374-.091642.5981.0347833 1.2091.3563273 1.7221.321545.5131.816892.8941 1.396142 1.0741.57924.1799 1.20398.1468 1.76082-.0934.55683-.2402 1.00886-.6715 1.27402-1.2157.26517-.5441.3259-1.1651.17116-1.7501-.15473-.585-.51467-1.0952-1.01448-1.4382l1.69359-3.3773c.4114.1132.84484.1206 1.25988.0215.41505-.09902.79816-.30132 1.1136-.58797l2.95584 2.45647c-.2007.4411-.27.9304-.1996 1.4097.0705.4793.2776.9282.5968 1.2934.3192.3651.737.631 1.2035.7659s.9621.1332 1.4277-.0049c.4656-.1382.8815-.4069 1.1981-.7743.3167-.3673.5207-.8177.5878-1.2974.0671-.4798-.0055-.9686-.2093-1.4083s-.5301-.8117-.94-1.0716l1.6524-5.76771c.0511.00307.1023.00513.1541.00513.6717 0 1.3158-.26607 1.7908-.73968.4749-.4736.7417-1.11595.7417-1.78573s-.2668-1.31213-.7417-1.785735c-.475-.473606-1.1191-.73967477-1.7908-.73967477zm-13.92853 16.73079977c-.25044 0-.49525-.074-.70349-.2128-.20823-.1387-.37052-.3359-.46636-.5667-.09584-.2307-.12091-.4846-.07206-.7295.04886-.245.16946-.47.34654-.6465.17709-.1766.40271-.2969.64834-.3456.24562-.0487.50022-.0237.73159.0718.23138.0956.42914.2575.56827.4651.13914.2077.2134.4518.2134.7015-.00038.3348-.1339.6558-.37129.8925-.23738.2367-.55923.3698-.89494.3702zm3.7987-7.89187c-.25044 0-.49525-.07406-.70349-.21281-.20823-.13874-.37052-.33595-.46636-.56668s-.12091-.48462-.07206-.72956c.04886-.24494.16946-.46993.34654-.64652.17709-.1766.40271-.29686.64834-.34558.24562-.04872.50022-.02371.73159.07186.23138.09557.42914.25741.56827.46506.13914.20765.2134.45178.2134.70152-.00038.33478-.1339.65573-.37129.89245-.23738.23673-.55923.36988-.89494.37026zm6.96433 5.36647c-.2505 0-.4953-.074-.7035-.2128-.2083-.1387-.3706-.3359-.4664-.5667-.0958-.2307-.1209-.4846-.0721-.7295.0489-.245.1695-.47.3466-.6466.1771-.1765.4027-.2968.6483-.3455s.5002-.0237.7316.0718c.2314.0956.4291.2574.5683.4651.1391.2076.2134.4518.2134.7015-.0004.3348-.1339.6557-.3713.8925-.2374.2367-.5592.3698-.8949.3702zm3.1655-10.41729c-.2504 0-.4952-.07405-.7034-.2128-.2083-.13875-.3706-.33596-.4664-.56669-.0959-.23073-.1209-.48461-.0721-.72955.0489-.24494.1695-.46994.3466-.64653s.4027-.29685.6483-.34557c.2456-.04873.5002-.02372.7316.07185s.4291.25742.5683.46507c.1391.20765.2134.45178.2134.70152-.0004.33477-.1339.65573-.3713.89245s-.5593.36988-.895.37025z" fill="#e37400"/></svg>