<svg width="22" height="22" viewBox="0 0 22 22" fill="none" xmlns="http://www.w3.org/2000/svg">
<path d="M11 1.52637C16.6043 1.52637 21.1475 5.33889 21.1475 10.0409C21.1475 14.7438 16.6043 18.5563 11 18.5563C10.4784 18.5563 9.9668 18.5232 9.46675 18.4598L9.2143 18.4247C8.75739 18.3158 8.38829 18.4126 7.98353 18.6192L7.85439 18.6881L7.72201 18.7635L7.58553 18.8449L6.98137 19.2169L6.81145 19.3181L6.63224 19.4212L6.44289 19.5257L6.24253 19.6307C5.6928 19.911 5.01643 20.1907 4.1397 20.4125C3.60154 20.5491 3.46041 20.4572 3.71882 20.1165L3.78554 20.0334L3.86645 19.9415L3.91224 19.8922C3.95009 19.8521 3.98788 19.811 4.02548 19.7689L4.13758 19.6399L4.24774 19.5058C4.26589 19.483 4.28394 19.4601 4.30185 19.437L4.40761 19.2965C4.45958 19.2254 4.51008 19.153 4.55867 19.0797L4.65315 18.9321C5.15727 18.1147 5.39348 17.221 4.76776 16.7604L4.46359 16.5517L4.26616 16.4115C2.17233 14.8515 0.852539 12.5744 0.852539 10.0409C0.852539 5.33889 5.39498 1.52637 11 1.52637ZM11 2.97073C6.1038 2.97073 2.24671 6.20742 2.24671 10.0325C2.24671 12.0073 3.27009 13.877 5.06471 15.2141L5.46275 15.493L5.51654 15.5255L5.58655 15.5771C6.30232 16.104 6.64394 16.81 6.692 17.5799L6.88211 17.4755L7.06593 17.3773L7.23964 17.2882C7.26754 17.2742 7.29486 17.2607 7.32152 17.2478L7.47296 17.177C7.54409 17.1453 7.60787 17.1194 7.66215 17.1007C8.25101 16.8989 8.85121 16.8548 9.47382 16.9878C9.97522 17.059 10.4846 17.0951 11 17.0951C15.8959 17.0951 19.7534 13.858 19.7534 10.0325C19.7534 6.2077 15.8957 2.97073 11 2.97073ZM12.4764 12.5712C12.7986 12.5712 13.0472 12.829 13.0472 13.1513C13.0472 13.4459 12.827 13.6753 12.5324 13.7013L12.4764 13.7037H6.46376C6.1323 13.7037 5.8929 13.4643 5.8929 13.1513C5.8929 12.848 6.10497 12.6018 6.40625 12.5739L6.46376 12.5712H12.4764ZM15.7542 9.49896C16.0765 9.49896 16.3251 9.75675 16.3251 10.079C16.3251 10.3737 16.1049 10.6031 15.8103 10.629L15.7542 10.6315H6.46376C6.1323 10.6315 5.8929 10.3921 5.8929 10.079C5.8929 9.77571 6.10497 9.52951 6.40625 9.50159L6.46376 9.49896H15.7542ZM15.7542 6.2855C16.0765 6.2855 16.3251 6.5341 16.3251 6.84717C16.3251 7.15048 16.1049 7.38853 15.8103 7.41549L15.7542 7.41803H6.46376C6.1323 7.41803 5.8929 7.16943 5.8929 6.84717C5.8929 6.55252 6.10497 6.31497 6.40625 6.28805L6.46376 6.2855H15.7542Z" fill="#445B6A"/>
</svg>
