<svg fill="none" height="30" viewBox="0 0 32 30" width="32" xmlns="http://www.w3.org/2000/svg"><path d="m12.6653 30c1.1864 0 2.1804-.5596 2.8858-1.6166l15.6473-23.65801c.4489-.65285.8016-1.39897.8016-2.11399 0-1.58549-1.4429-2.6114-2.9499-2.6114-.994 0-1.8597.528497-2.5331 1.58549l-13.9479 21.57511-7.21439-8.829c-.73748-.9326-1.53908-1.3057-2.501-1.3057-1.60321 0-2.85371 1.2435-2.85371 2.7979 0 .7461.288577 1.4612.833667 2.114l8.849703 10.4767c.89783 1.057 1.82763 1.5855 2.98193 1.5855z" fill="#af38f9"/></svg>