<svg width="22" height="22" viewBox="0 0 22 22" fill="none"
    xmlns="http://www.w3.org/2000/svg">
    <defs>
        <linearGradient id="paint0_linear_1725_21368" x1="2.1153" y1="4.68065" x2="21.3515" y2="5.00377" gradientUnits="userSpaceOnUse">
            <stop stop-color="#AF38F9"/>
            <stop offset="0.463542" stop-color="#FB8822"/>
            <stop offset="1" stop-color="#FFA4A7"/>
        </linearGradient>
    </defs>
    <path fill-rule="evenodd" clip-rule="evenodd" d="M0.166626 7.70298C0.166626 3.54083 3.54071 0.166748 7.70286 0.166748H14.2971C18.4592 0.166748 21.8333 3.54083 21.8333 7.70298V14.2972C21.8333 18.4593 18.4592 21.8334 14.2971 21.8334H7.70286C3.54071 21.8334 0.166626 18.4593 0.166626 14.2972V7.70298ZM10.5133 16.5555C10.2876 16.894 9.96318 17.0562 9.54705 17.0562C9.15209 17.0562 8.85586 16.9081 8.58785 16.5766L4.93442 12.0768C4.72989 11.83 4.64525 11.5972 4.64525 11.3504C4.64525 10.7861 5.06137 10.3771 5.63972 10.3771C5.98531 10.3771 6.22511 10.504 6.45786 10.7932L9.51884 14.6723L15.4927 5.20726C15.7325 4.8264 15.9723 4.68534 16.3673 4.68534C16.9385 4.68534 17.3476 5.08736 17.3476 5.64454C17.3476 5.86318 17.2841 6.08888 17.1149 6.34278L10.5133 16.5555Z" fill="url(#paint0_linear_1725_21368)"/>
</svg>
