<svg width="26" height="26" viewBox="0 0 26 26" fill="none" xmlns="http://www.w3.org/2000/svg">
<defs>
<linearGradient id="paint0_linear_2811_33540" x1="4.1153" y1="6.68065" x2="23.3515" y2="7.00377" gradientUnits="userSpaceOnUse">
<stop stop-color="#AF38F9"/>
<stop offset="0.463542" stop-color="#FB8822"/>
<stop offset="1" stop-color="#FFA4A7"/>
</linearGradient>
</defs>
<path fill-rule="evenodd" clip-rule="evenodd" d="M2.16663 9.70298C2.16663 5.54083 5.54071 2.16675 9.70286 2.16675H16.2971C20.4592 2.16675 23.8333 5.54083 23.8333 9.70298V16.2972C23.8333 20.4593 20.4592 23.8334 16.2971 23.8334H9.70286C5.54071 23.8334 2.16663 20.4593 2.16663 16.2972V9.70298ZM12.5133 18.5555C12.2876 18.894 11.9632 19.0562 11.5471 19.0562C11.1521 19.0562 10.8559 18.9081 10.5879 18.5766L6.93442 14.0768C6.72989 13.83 6.64525 13.5972 6.64525 13.3504C6.64525 12.7861 7.06137 12.3771 7.63972 12.3771C7.98531 12.3771 8.22511 12.504 8.45786 12.7932L11.5188 16.6723L17.4927 7.20726C17.7325 6.8264 17.9723 6.68534 18.3673 6.68534C18.9385 6.68534 19.3476 7.08736 19.3476 7.64454C19.3476 7.86318 19.2841 8.08888 19.1149 8.34278L12.5133 18.5555Z" fill="url(#paint0_linear_2811_33540)"/>
</svg>
