<svg width="26" height="26" viewBox="0 0 26 26" fill="none" xmlns="http://www.w3.org/2000/svg">
<path fill-rule="evenodd" clip-rule="evenodd" d="M16.2971 4.05075H9.70292C6.58131 4.05075 4.05075 6.58131 4.05075 9.70292V16.2971C4.05075 19.4187 6.58131 21.9493 9.70292 21.9493H16.2971C19.4187 21.9493 21.9493 19.4187 21.9493 16.2971V9.70292C21.9493 6.58131 19.4187 4.05075 16.2971 4.05075ZM9.70292 2.16669C5.54077 2.16669 2.16669 5.54077 2.16669 9.70292V16.2971C2.16669 20.4593 5.54077 23.8334 9.70292 23.8334H16.2971C20.4593 23.8334 23.8334 20.4593 23.8334 16.2971V9.70292C23.8334 5.54077 20.4593 2.16669 16.2971 2.16669H9.70292Z" fill="#A0AEB8"/>
</svg>
