<svg width="24" height="24" viewBox="0 0 24 24" fill="none" xmlns="http://www.w3.org/2000/svg">
<path fill-rule="evenodd" clip-rule="evenodd" d="M15.0002 3.85711H9.00021C6.15989 3.85711 3.85735 6.15964 3.85735 8.99997V15C3.85735 17.8403 6.15989 20.1428 9.00021 20.1428H15.0002C17.8405 20.1428 20.1431 17.8403 20.1431 15V8.99997C20.1431 6.15964 17.8405 3.85711 15.0002 3.85711ZM9.00021 2.14282C5.21311 2.14282 2.14307 5.21287 2.14307 8.99997V15C2.14307 18.7871 5.21311 21.8571 9.00021 21.8571H15.0002C18.7873 21.8571 21.8574 18.7871 21.8574 15V8.99997C21.8574 5.21287 18.7873 2.14282 15.0002 2.14282H9.00021Z" fill="#445B6A"/>
<path d="M10.7932 17.0312C11.1389 17.0312 11.4084 16.8965 11.5959 16.6152L17.0803 8.13083C17.2209 7.91989 17.2736 7.73239 17.2736 7.55075C17.2736 7.08786 16.9338 6.75387 16.4592 6.75387C16.1311 6.75387 15.9319 6.87106 15.7326 7.18747L10.7697 15.0507L8.22677 11.8281C8.03341 11.5879 7.83419 11.4824 7.54708 11.4824C7.06662 11.4824 6.72091 11.8222 6.72091 12.291C6.72091 12.4961 6.79122 12.6894 6.96115 12.8945L9.9963 16.6328C10.219 16.9082 10.4651 17.0312 10.7932 17.0312Z" fill="#445B6A"/>
</svg>
