<svg width="20" height="20" viewBox="0 0 20 20" fill="none" xmlns="http://www.w3.org/2000/svg">
<path d="M3.90793 19.2461H16.1021C18.2014 19.2461 19.2462 18.2014 19.2462 16.1323V3.86774C19.2462 1.79856 18.2014 0.753914 16.1021 0.753914H3.90793C1.81865 0.753914 0.753906 1.78849 0.753906 3.86774V16.1323C0.753906 18.2115 1.81865 19.2461 3.90793 19.2461ZM8.63893 15.1378C8.28742 15.1378 8.02621 14.9872 7.74498 14.6456L4.84209 11.0698C4.69141 10.8789 4.60102 10.6378 4.60102 10.4169C4.60102 9.94476 4.97268 9.58317 5.41462 9.58317C5.70592 9.58317 5.95702 9.69366 6.18806 10.0051L8.58875 13.1088L13.2595 5.62557C13.4503 5.31417 13.7115 5.16353 13.9727 5.16353C14.4146 5.16353 14.8465 5.45479 14.8465 5.93697C14.8465 6.15794 14.716 6.39901 14.5854 6.59989L9.48271 14.6456C9.26173 14.9771 8.98046 15.1378 8.63893 15.1378Z" fill="#445B6A"/>
</svg>
