<svg width="22" height="22" viewBox="0 0 22 22" fill="none" xmlns="http://www.w3.org/2000/svg">
<path fill-rule="evenodd" clip-rule="evenodd" d="M11.0001 21.2857C5.31943 21.2857 0.714355 16.6806 0.714355 11C0.714355 5.31936 5.31943 0.714287 11.0001 0.714287C16.6807 0.714287 21.2858 5.31936 21.2858 11C21.2858 16.6806 16.6807 21.2857 11.0001 21.2857ZM15.6234 7.54172C15.3365 7.2548 14.8713 7.2548 14.5844 7.54172L9.89803 12.2281C9.61111 12.515 9.14593 12.515 8.85901 12.2281L7.47876 10.8478C7.19184 10.5609 6.72666 10.5609 6.43975 10.8478C6.15283 11.1348 6.15283 11.5999 6.43975 11.8869L8.85901 14.3061C9.14593 14.593 9.61111 14.593 9.89803 14.3061L15.6234 8.58073C15.9103 8.29382 15.9103 7.82863 15.6234 7.54172Z" fill="#445B6A"/>
</svg>
