<svg width="56" height="56" viewBox="0 0 56 56" fill="none" xmlns="http://www.w3.org/2000/svg">
<path fill-rule="evenodd" clip-rule="evenodd" d="M7 21.6087C7 13.5405 13.5405 7 21.6087 7H34.3913C42.4595 7 49 13.5405 49 21.6087V34.3913C49 42.4595 42.4595 49 34.3913 49H21.6087C13.5405 49 7 42.4595 7 34.3913V21.6087ZM27.0566 38.7689C26.6191 39.4251 25.9902 39.7396 25.1836 39.7396C24.418 39.7396 23.8438 39.4525 23.3242 38.8099L16.2422 30.0872C15.8457 29.6087 15.6816 29.1576 15.6816 28.679C15.6816 27.5853 16.4883 26.7923 17.6094 26.7923C18.2793 26.7923 18.7441 27.0384 19.1953 27.599L25.1289 35.1185L36.709 16.7708C37.1738 16.0326 37.6387 15.7591 38.4043 15.7591C39.5117 15.7591 40.3047 16.5384 40.3047 17.6185C40.3047 18.0423 40.1816 18.4798 39.8535 18.972L27.0566 38.7689Z" fill="black"/>
</svg>
