<svg width="24" height="24" viewBox="0 0 24 24" fill="none" xmlns="http://www.w3.org/2000/svg">
<path d="M9.89064 20.5831C10.3226 20.5831 10.6641 20.3923 10.9052 20.0206L20.3973 5.0742C20.5781 4.78294 20.6585 4.56193 20.6585 4.33088C20.6585 3.77846 20.2868 3.41687 19.7344 3.41687C19.3427 3.41687 19.1116 3.54741 18.8706 3.92914L9.85048 18.303L5.16967 12.1758C4.91857 11.8242 4.67745 11.6836 4.30584 11.6836C3.74334 11.6836 3.34155 12.0753 3.34155 12.6278C3.34155 12.8588 3.44201 13.12 3.63285 13.3611L8.846 20.0006C9.1574 20.3923 9.45873 20.5831 9.89064 20.5831Z" fill="#AF38F9"/>
</svg>
