<svg width="26" height="26" viewBox="0 0 26 26" fill="none" xmlns="http://www.w3.org/2000/svg">
<path fill-rule="evenodd" clip-rule="evenodd" d="M2.16669 9.7029C2.16669 5.54075 5.54077 2.16666 9.70292 2.16666H16.2971C20.4593 2.16666 23.8334 5.54075 23.8334 9.7029V16.2971C23.8334 20.4592 20.4593 23.8333 16.2971 23.8333H9.70292C5.54077 23.8333 2.16669 20.4592 2.16669 16.2971V9.7029ZM12.5134 18.5554C12.2877 18.8939 11.9632 19.0561 11.5471 19.0561C11.1521 19.0561 10.8559 18.908 10.5879 18.5765L6.93448 14.0768C6.72995 13.8299 6.64531 13.5971 6.64531 13.3503C6.64531 12.7861 7.06144 12.377 7.63978 12.377C7.98537 12.377 8.22517 12.5039 8.45792 12.7931L11.5189 16.6722L17.4928 7.20717C17.7326 6.82631 17.9724 6.68526 18.3673 6.68526C18.9386 6.68526 19.3477 7.08727 19.3477 7.64446C19.3477 7.8631 19.2842 8.08879 19.1149 8.3427L12.5134 18.5554Z" fill="#6FCF97"/>
</svg>
