<svg width="26" height="26" viewBox="0 0 26 26" fill="none" xmlns="http://www.w3.org/2000/svg">
<path d="M13.405 2.82633C13.7184 3.02216 13.7184 3.47849 13.405 3.67432L10.5151 5.48053C10.1821 5.68867 9.75008 5.44925 9.75008 5.05653V4.05105H9.70298C6.58137 4.05105 4.05081 6.58161 4.05081 9.70322V16.2974C4.05081 19.0999 6.12841 21.4261 8.81199 21.8723C9.32521 21.9577 9.75008 22.3714 9.75008 22.8916C9.75008 23.4119 9.32625 23.8398 8.80994 23.7757C5.08497 23.3133 2.16675 20.1415 2.16675 16.2974V9.70322C2.16675 5.54108 5.54083 2.16699 9.70298 2.16699H9.75008V1.44412C9.75008 1.0514 10.1821 0.811977 10.5151 1.02012L13.405 2.82633Z" fill="#A0AEB8"/>
<path d="M11.5118 23.1743C11.1985 22.9785 11.1985 22.5222 11.5118 22.3263L14.4017 20.5201C14.7348 20.312 15.1667 20.5514 15.1667 20.9441V21.9496H16.2972C19.4188 21.9496 21.9494 19.419 21.9494 16.2974V9.70323C21.9494 6.58162 19.4188 4.05105 16.2972 4.05105H16.1088C15.5885 4.05105 15.1667 3.62929 15.1667 3.10902C15.1667 2.58875 15.5885 2.16699 16.1088 2.16699H16.2972C20.4593 2.16699 23.8334 5.54108 23.8334 9.70323V16.2974C23.8334 20.4596 20.4593 23.8337 16.2972 23.8337H15.1667V24.5565C15.1667 24.9493 14.7348 25.1887 14.4017 24.9805L11.5118 23.1743Z" fill="#A0AEB8"/>
</svg>
