<svg width="24" height="24" viewBox="0 0 24 24" fill="none" xmlns="http://www.w3.org/2000/svg">
<path d="M13 3L9 5.5L9 3.73913H8.95652C6.07504 3.73913 3.73913 6.07504 3.73913 8.95652V15.0435C3.73913 17.6304 5.65692 19.7776 8.13407 20.1896C8.60781 20.2683 9 20.6502 9 21.1304C9 21.6107 8.60877 22.0056 8.13218 21.9465C4.69374 21.5197 2 18.5918 2 15.0435V8.95652C2 5.11454 5.11454 2 8.95652 2H9L9 0.5L13 3Z" fill="#445B6A"/>
<path d="M10 21L14 18.5V20.2609H15.0435C17.925 20.2609 20.2609 17.925 20.2609 15.0435V8.95652C20.2609 6.07504 17.925 3.73913 15.0435 3.73913H14.8696C14.3893 3.73913 14 3.34981 14 2.86957C14 2.38932 14.3893 2 14.8696 2H15.0435C18.8855 2 22 5.11454 22 8.95652V15.0435C22 18.8855 18.8855 22 15.0435 22H14V23.5L10 21Z" fill="#445B6A"/>
</svg>
