<svg width="24" height="24" viewBox="0 0 24 24" fill="none" xmlns="http://www.w3.org/2000/svg">
<path fill-rule="evenodd" clip-rule="evenodd" d="M12.0001 22.2857C6.31943 22.2857 1.71436 17.6806 1.71436 12C1.71436 6.31936 6.31943 1.71429 12.0001 1.71429C17.6807 1.71429 22.2858 6.31936 22.2858 12C22.2858 17.6806 17.6807 22.2857 12.0001 22.2857ZM16.6234 8.54172C16.3365 8.2548 15.8713 8.2548 15.5844 8.54172L10.898 13.2281C10.6111 13.515 10.1459 13.515 9.85901 13.2281L8.47876 11.8478C8.19184 11.5609 7.72666 11.5609 7.43975 11.8478C7.15283 12.1348 7.15283 12.5999 7.43975 12.8869L9.85901 15.3061C10.1459 15.593 10.6111 15.593 10.898 15.3061L16.6234 9.58073C16.9103 9.29382 16.9103 8.82863 16.6234 8.54172Z" fill="#445B6A"/>
</svg>
