<svg width="26" height="26" viewBox="0 0 26 26" fill="none" xmlns="http://www.w3.org/2000/svg">
<defs>
<linearGradient id="paint0_linear_1372_10916" x1="4.1153" y1="6.68065" x2="23.3515" y2="7.00377" gradientUnits="userSpaceOnUse">
<stop stop-color="#AF38F9"/>
<stop offset="0.463542" stop-color="#FB8822"/>
<stop offset="1" stop-color="#FFA4A7"/>
</linearGradient>
</defs>
<path fill-rule="evenodd" clip-rule="evenodd" d="M16.2971 4.05081H9.70286C6.58125 4.05081 4.05068 6.58137 4.05068 9.70298V16.2972C4.05068 19.4188 6.58125 21.9494 9.70286 21.9494H16.2971C19.4187 21.9494 21.9492 19.4188 21.9492 16.2972V9.70298C21.9492 6.58137 19.4187 4.05081 16.2971 4.05081ZM9.70286 2.16675C5.54071 2.16675 2.16663 5.54083 2.16663 9.70298V16.2972C2.16663 20.4593 5.54071 23.8334 9.70286 23.8334H16.2971C20.4592 23.8334 23.8333 20.4593 23.8333 16.2972V9.70298C23.8333 5.54083 20.4592 2.16675 16.2971 2.16675H9.70286Z" fill="url(#paint0_linear_1372_10916)"/>
</svg>
