<svg width="24" height="24" viewBox="0 0 24 24" fill="none" xmlns="http://www.w3.org/2000/svg">
<path d="M8.01246 20.7288C8.26361 20.7288 8.48458 20.6283 8.66535 20.4576L16.6207 12.673C16.8116 12.4821 16.912 12.2511 16.912 12C16.912 11.7388 16.8116 11.4978 16.6207 11.327L8.66535 3.55243C8.49461 3.37166 8.26361 3.2712 8.01246 3.2712C7.49016 3.2712 7.08838 3.67299 7.08838 4.19529C7.08838 4.43636 7.19886 4.67747 7.35954 4.84821L14.662 12L7.35954 19.1518C7.19886 19.3225 7.08838 19.5536 7.08838 19.8047C7.08838 20.327 7.49016 20.7288 8.01246 20.7288Z" fill="#445B6A"/>
</svg>
