<svg width="24" height="24" viewBox="0 0 24 24" fill="none" xmlns="http://www.w3.org/2000/svg">
<path d="M11.9998 16.9118C12.2509 16.9118 12.502 16.8114 12.6728 16.6206L20.4574 8.65513C20.6281 8.48439 20.7286 8.26341 20.7286 8.01227C20.7286 7.48997 20.3268 7.08819 19.8045 7.08819C19.5634 7.08819 19.3223 7.18864 19.1516 7.34931L11.9998 14.6618L4.84801 7.34931C4.67722 7.18864 4.44622 7.08819 4.19512 7.08819C3.67278 7.08819 3.271 7.48997 3.271 8.01227C3.271 8.26341 3.37145 8.48439 3.5422 8.66516L11.3268 16.6206C11.5177 16.8114 11.7386 16.9118 11.9998 16.9118Z" fill="#445B6A"/>
</svg>
