<svg width="20" height="20" viewBox="0 0 20 20" fill="none" xmlns="http://www.w3.org/2000/svg">
<path d="M2.95195 12.7873C2.80967 12.9212 2.72595 13.1137 2.72595 13.3314C2.72595 13.7667 3.06077 14.0931 3.49606 14.0931C3.70531 14.0931 3.9062 14.0178 4.04013 13.8755L9.99995 7.78174L15.9598 13.8755C16.0937 14.0178 16.303 14.0931 16.5038 14.0931C16.9391 14.0931 17.274 13.7667 17.274 13.3314C17.274 13.1137 17.1902 12.9212 17.048 12.7873L10.5608 6.15785C10.4185 5.99881 10.2092 5.90674 9.99995 5.90674C9.78231 5.90674 9.58977 5.99881 9.43913 6.15785L2.95195 12.7873Z" fill="#A0AEB8"/>
</svg>
