<svg fill="none" height="16" viewBox="0 0 15 16" width="15" xmlns="http://www.w3.org/2000/svg"><path d="m12.1279 8.48145-5.02438 5.02445c-1.30567 1.3125-3.0625 1.1826-4.1836.0478-1.12793-1.1211-1.25781-2.8642.04785-4.17675l6.85645-6.84961c.78618-.78613 1.94138-.8955 2.69338-.15039.7451.75879.6357 1.90723-.1436 2.69336l-6.6992 6.69919c-.33496.3487-.74511.2461-.97753.0137-.23243-.2393-.32813-.6357.00683-.9844l4.68262-4.66892c.20508-.21191.21875-.51269.02051-.71093-.19825-.19141-.49903-.17774-.70411.02734l-4.69628 4.69631c-.69727.6972-.66993 1.7636-.05469 2.3789.66992.6699 1.68164.6562 2.38574-.0479l6.72661-6.72653c1.2783-1.27832 1.2236-2.95996.1093-4.07422-1.0869-1.086912-2.7959-1.168944-4.07419.10938l-6.89063 6.89746c-1.688472 1.68851-1.558589 4.10151-.03418 5.62601 1.52442 1.5175 3.9375 1.6474 5.62598-.0342l5.05862-5.05861c.1982-.19824.1982-.56055-.0069-.74512-.1982-.21191-.5195-.18457-.7246.01368z" fill="#37404a"/></svg>