<svg width="24" height="24" viewBox="0 0 24 24" fill="none" xmlns="http://www.w3.org/2000/svg">
<path d="M13.7145 21.2782C12.3715 21.2782 11.0764 21 9.89645 20.482C10.261 20.0599 10.5488 19.5898 10.779 19.091C11.6808 19.4459 12.6784 19.6474 13.7145 19.6474C18.2424 19.6474 21.859 16.0212 21.859 11.4933C21.859 6.96537 18.252 3.33919 13.7241 3.33919C9.58947 3.33919 6.20312 6.38978 5.65632 10.3709C5.18626 10.3037 4.48597 10.3421 3.99672 10.4476C4.53393 5.57437 8.73569 1.70837 13.7241 1.70837C19.077 1.70837 23.4994 6.14036 23.4994 11.4933C23.4994 16.8366 19.0674 21.2782 13.7145 21.2782ZM18.7412 12.5293H13.7241C13.3499 12.5293 13.0526 12.2415 13.0526 11.8578V5.39211C13.0526 5.01798 13.3499 4.73019 13.7241 4.73019C14.0982 4.73019 14.386 5.01798 14.386 5.39211V11.1959H18.7412C19.1154 11.1959 19.4032 11.4837 19.4032 11.8578C19.4032 12.2415 19.1154 12.5293 18.7412 12.5293ZM5.18626 21.3837C2.53858 21.3837 0.312988 19.1773 0.312988 16.5105C0.312988 13.834 2.5098 11.6372 5.18626 11.6372C7.85313 11.6372 10.0595 13.8436 10.0595 16.5105C10.0595 19.1965 7.85313 21.3837 5.18626 21.3837ZM5.18626 17.3355C5.52202 17.3355 5.75225 17.1052 5.76184 16.7791L5.83859 14.0354C5.84818 13.6421 5.58917 13.3735 5.18626 13.3735C4.78335 13.3735 4.51475 13.6421 4.52434 14.0354L4.60108 16.7791C4.61068 17.1052 4.8505 17.3355 5.18626 17.3355ZM5.18626 19.6186C5.62754 19.6186 5.99208 19.2637 5.99208 18.8128C5.99208 18.3715 5.62754 17.9974 5.18626 17.9974C4.73539 17.9974 4.37085 18.3715 4.37085 18.8128C4.38044 19.2637 4.73539 19.6186 5.18626 19.6186Z" fill="#445B6A"/>
</svg>
