<svg fill="none" height="13" viewBox="0 0 13 13" width="13" xmlns="http://www.w3.org/2000/svg"><path d="m6.02539 12.7461c3.26953 0 5.97661-2.707 5.97661-5.97657 0-3.26367-2.71294-5.976561-5.98247-5.976561-3.26367 0-5.9707019 2.712891-5.9707019 5.976561 0 3.26957 2.7128919 5.97657 5.9765619 5.97657zm0-.9961c-2.76562 0-4.97461-2.21484-4.97461-4.98047 0-2.75976 2.20313-4.98047 4.96875-4.98047 2.76563 0 4.98047 2.22071 4.98637 4.98047.0058 2.76563-2.21488 4.98047-4.98051 4.98047zm-3.06445-4.34766h3.05859c.22852 0 .41016-.17578.41016-.41015v-3.94922c0-.22852-.18164-.4043-.41016-.4043-.22851 0-.4043.17578-.4043.4043v3.54492h-2.65429c-.23438 0-.41016.17578-.41016.4043 0 .23437.17578.41015.41016.41015z" fill="#b3c0c7"/></svg>