<svg width="24" height="24" viewBox="0 0 24 24" fill="none" xmlns="http://www.w3.org/2000/svg">
<path d="M11.9999 22.2456C17.5948 22.2456 22.2455 17.6049 22.2455 12C22.2455 6.40513 17.5848 1.75444 11.9899 1.75444C6.38494 1.75444 1.75439 6.40513 1.75439 12C1.75439 17.6049 6.39501 22.2456 11.9999 22.2456ZM11.9999 20.538C7.25884 20.538 3.47198 16.7411 3.47198 12C3.47198 7.26896 7.24881 3.46204 11.9899 3.46204C16.7209 3.46204 20.5278 7.26896 20.5379 12C20.548 16.7411 16.731 20.538 11.9999 20.538ZM6.73654 13.0848H11.9899C12.3816 13.0848 12.693 12.7835 12.693 12.3817V5.61159C12.693 5.21987 12.3816 4.91854 11.9899 4.91854C11.5981 4.91854 11.2968 5.21987 11.2968 5.61159V11.6886H6.73654C6.34478 11.6886 6.04341 11.99 6.04341 12.3817C6.04341 12.7835 6.34478 13.0848 6.73654 13.0848Z" fill="#445B6A"/>
</svg>
