<svg fill="none" height="25" viewBox="0 0 23 25" width="23" xmlns="http://www.w3.org/2000/svg"><path d="m3.2166 16.4445-.14928-.0845v.1715.9477c0 .1098.0448.2217.11881.3298.07446.1088.18271.2201.32079.3308.27622.2216.68179.449 1.20725.6548l.13648.0535v-.1466-1.4891-.074l-.07074-.0216c-.54404-.1665-1.06826-.3919-1.56331-.6723zm9.5507 1.1518v-.1196l-.1178.0212c-.7801.1409-1.569.2274-2.3612.259l-.096.0038v.0961 1.5833.1044l.1043-.0045c.9021-.0382 1.6991-.1425 2.3909-.2854l.0798-.0164v-.0815zm-4.06214 1.9445.10383.004v-.1039-1.5825-.0959l-.09583-.004c-.80934-.0339-1.60672-.1229-2.36132-.2598l-.11785-.0214v.1198 1.5604.0818l.0802.0162c.78804.1592 1.58761.2546 2.39097.2853zm5.44554-.8393v.1465l.1364-.0534c.5259-.2058.9315-.4332 1.2076-.6548.138-.1107.2462-.222.3206-.3308.074-.1082.1187-.2201.1187-.3298v-.9477-.1716l-.1493.0847c-.4949.2806-1.0191.506-1.5632.6721l-.0708.0216v.0741zm-12.46672-4.389c0-1.1034.94019-1.9701 2.42019-2.5654 1.47206-.5922 3.43768-.8971 5.39648-.8971 1.95885 0 3.92445.3049 5.39645.8971 1.48.5953 2.4202 1.462 2.4202 2.5654v3.1667c0 1.1033-.9402 1.9701-2.4202 2.5654-1.472.5922-3.4376.8971-5.39645.8971-1.9588 0-3.92442-.3049-5.39648-.8971-1.48-.5953-2.42019-1.4621-2.42019-2.5654zm1.38334 0c0 .1114.04587.225.12175.3348.07635.1106.18743.2237.32933.3363.28388.2253.70113.4561 1.24285.6639 1.08433.4159 2.68011.7442 4.7394.7442 2.05925 0 3.65505-.3283 4.73945-.7442.5417-.2078.9589-.4386 1.2428-.6639.1419-.1126.253-.2257.3293-.3363.0759-.1098.1218-.2234.1218-.3348s-.0459-.225-.1218-.3348c-.0763-.1106-.1874-.2237-.3293-.3363-.2839-.2253-.7011-.4561-1.2428-.6639-1.0844-.4159-2.6802-.7442-4.73945-.7442-2.05929 0-3.65507.3283-4.7394.7442-.54172.2078-.95897.4386-1.24285.6639-.1419.1126-.25298.2257-.32933.3363-.07588.1098-.12175.2234-.12175.3348z" fill="#e37400" stroke="#fff" stroke-width=".2"/><path d="m6.5918 11.6587v-3.88632c.28788-.43181 2.07272-1.38181 6.9091-1.72727 4.8364-.34545 6.6212 1.29546 6.9091 2.15909v3.8864c0 .4318-3.0227 1.2954-4.3182 1.7272-1.2955.4319-5.6136 0-6.47728 0-.6909 0-2.30303-1.4394-3.02272-2.1591z" fill="#fff"/><path d="m7.2166 10.4445-.14928-.0845v.1715.9477c0 .1098.0448.2217.11881.3298.07446.1088.18271.2201.32079.3308.27622.2216.68179.449 1.20725.6548l.13648.0535v-.1466-1.4891-.074l-.07074-.0216c-.54404-.1665-1.06826-.3919-1.56331-.6723zm9.5507 1.1518v-.1196l-.1178.0212c-.7801.1409-1.569.2274-2.3612.259l-.096.0038v.0961 1.5833.1044l.1043-.0045c.9021-.0382 1.6991-.1425 2.3909-.2854l.0798-.0164v-.0815zm-4.0621 1.9445.1038.004v-.1039-1.5825-.0959l-.0958-.004c-.8094-.0339-1.6068-.1229-2.3614-.2598l-.1178-.0214v.1198 1.5604.0818l.0802.0162c.788.1592 1.5876.2546 2.391.2853zm5.4455-.8393v.1465l.1364-.0534c.5259-.2058.9315-.4332 1.2076-.6548.138-.1107.2462-.222.3206-.3308.074-.1082.1187-.2201.1187-.3298v-.9477-.1716l-.1493.0847c-.4949.2806-1.0191.506-1.5632.6721l-.0708.0216v.0741zm-12.46672-4.389c0-1.10337.94019-1.9701 2.42019-2.56544 1.47206-.59216 3.43773-.89706 5.39653-.89706 1.9587 0 3.9244.3049 5.3964.89706 1.48.59534 2.4202 1.46207 2.4202 2.56544v3.1667c0 1.1033-.9402 1.9701-2.4202 2.5654-1.472.5922-3.4377.8971-5.3964.8971-1.9588 0-3.92447-.3049-5.39653-.8971-1.48-.5953-2.42019-1.4621-2.42019-2.5654zm1.38334 0c0 .11135.04587.22499.12175.33485.07635.11054.18743.2237.32933.33628.28388.22524.70113.4561 1.24285.66387 1.08433.4159 2.68015.7442 4.73945.7442 2.0592 0 3.655-.3283 4.7394-.7442.5417-.20777.9589-.43863 1.2428-.66387.1419-.11258.253-.22574.3293-.33628.0759-.10986.1218-.2235.1218-.33485s-.0459-.22499-.1218-.33485c-.0763-.11054-.1874-.2237-.3293-.33628-.2839-.22524-.7011-.4561-1.2428-.66387-1.0844-.41588-2.6802-.74417-4.7394-.74417-2.0593 0-3.65512.32829-4.73945.74417-.54172.20777-.95897.43863-1.24285.66387-.1419.11258-.25298.22574-.32933.33628-.07588.10986-.12175.2235-.12175.33485z" fill="#e37400" stroke="#fff" stroke-width=".2"/></svg>