<svg fill="none" height="22" viewBox="0 0 22 22" width="22" xmlns="http://www.w3.org/2000/svg"><path d="m3.71562 12.1074-.14928-.0845v.1715 1.0973c0 .1228.05018.2493.13481.373.08508.1243.20921.252.36829.3796.31823.2553.7863.5178 1.39376.7558l.13647.0535v-.1466-1.7242-.074l-.07074-.0217c-.63104-.193-1.23909-.4545-1.81331-.7797zm11.05068 1.3199v-.1196l-.1177.0212c-.9041.1633-1.8183.2635-2.7362.3001l-.0961.0038v.0961 1.8334.1043l.1043-.0044c1.0438-.0443 1.9658-.165 2.766-.3302l.0797-.0165v-.0814zm-4.6871 2.2358.1038.004v-.1039-1.8324-.096l-.0958-.004c-.93785-.0392-1.86186-.1423-2.73634-.3009l-.11785-.0214v.1198 1.8067.0818l.0802.0162c.91164.1841 1.83662.2945 2.76599.3301zm6.3205-.9561v.1465l.1364-.0534c.608-.238 1.076-.5005 1.3942-.7558.159-.1276.283-.2553.368-.3796.0846-.1237.1347-.2502.1347-.373v-1.0973-.1717l-.1493.0847c-.574.3256-1.1821.587-1.8132.7797l-.0708.0216v.0741zm-14.46669-5.082c0-1.288 1.09738-2.29535 2.81221-2.98516 1.70691-.68662 3.98503-1.03984 6.25448-1.03984 2.2694 0 4.5475.35322 6.2544 1.03984 1.7149.68981 2.8122 1.69716 2.8122 2.98516v3.6667c0 1.288-1.0973 2.2953-2.8122 2.9851-1.7069.6867-3.985 1.0399-6.2544 1.0399-2.26945 0-4.54757-.3532-6.25448-1.0399-1.71483-.6898-2.81221-1.6971-2.81221-2.9851zm1.63333 0c0 .12462.05139.25309.13818.3787.08726.1264.21466.2563.37815.386.32707.2595.80865.5261 1.43493.7663 1.25344.4808 3.09922.8607 5.4821.8607 2.3828 0 4.2286-.3799 5.482-.8607.6263-.2402 1.1079-.5068 1.435-.7663.1635-.1297.2909-.2596.3781-.386.0868-.12561.1382-.25408.1382-.3787s-.0514-.25309-.1382-.37874c-.0872-.12634-.2146-.25627-.3781-.38599-.3271-.25952-.8087-.52611-1.435-.76632-1.2534-.48073-3.0992-.86062-5.482-.86062-2.38288 0-4.22866.37989-5.4821.86062-.62628.24021-1.10786.5068-1.43493.76632-.16349.12972-.29089.25965-.37815.38599-.08679.12565-.13818.25412-.13818.37874z" fill="#e37400" stroke="#fff" stroke-width=".2"/></svg>