<svg viewBox="0 0 22 22" xmlns="http://www.w3.org/2000/svg"><path d="m11 3a8 8 0 0 0 -8 8 8 8 0 0 0 8 8 8 8 0 0 0 8-8 8 8 0 0 0 -8-8m-.006 3.5c.764 0 1.385.219 1.863.658.479.431.719.984.719 1.658 0 .293-.081.59-.24.891-.16.303-.306.516-.428.647-.117.121-.285.281-.504.476l-.062.061c-.512.447-.77.894-.77 1.341v.487h-1.183v-.573c0-.365.08-.679.24-.939.159-.268.441-.582.844-.939.226-.208.386-.354.478-.452.099-.105.197-.247.289-.425.101-.187.153-.381.153-.575 0-.374-.127-.674-.383-.902-.24-.228-.579-.342-1.016-.342-.722 0-1.218.392-1.486 1.172l-1.084-.439c.176-.464.48-.879.908-1.245.437-.373.99-.56 1.662-.56m-.014 7.342c.244 0 .446.081.606.248.168.159.252.352.252.58s-.084.42-.252.586c-.16.162-.362.244-.606.244-.243 0-.449-.082-.617-.244-.159-.166-.238-.358-.238-.586s.079-.421.238-.58c.168-.167.374-.248.617-.248" fill="#4d4d4d" fill-rule="evenodd" transform="translate(0 -.002)"/></svg>