<svg fill="none" height="34" viewBox="0 0 34 34" width="34" xmlns="http://www.w3.org/2000/svg"><path d="m16.1924 23.1235c.3808 0 .6792-.1523.8887-.4633l5.9414-9.1661c.1523-.2285.2158-.4379.2158-.6347 0-.5205-.3809-.895-.9141-.895-.3681 0-.5903.1269-.8125.4824l-5.3447 8.4551-2.7295-3.4405c-.2158-.2602-.438-.3808-.7554-.3808-.5395 0-.9267.3808-.9267.9077 0 .2285.0761.4443.2729.6728l3.2818 4.0308c.2475.2983.5205.4316.8823.4316z" fill="#37404a"/><circle cx="17" cy="17" r="15" stroke="#59dd5f" stroke-width="3"/></svg>