<svg fill="none" height="14" viewBox="0 0 12 14" width="12" xmlns="http://www.w3.org/2000/svg"><g stroke="#af38f9" stroke-linecap="round" stroke-linejoin="round"><path d="m10.1099 5.2002h-4.62827c-.56803 0-1.02851.53722-1.02851 1.19992v5.39968c0 .6627.46048 1.1999 1.02851 1.1999h4.62827c.5681 0 1.0285-.5372 1.0285-1.1999v-5.39968c0-.6627-.4604-1.19992-1.0285-1.19992z"/><path d="m2.39823 8.79953h-.51425c-.27278 0-.53439-.12642-.72727-.35145-.192881-.22503-.301241-.53024-.301241-.84848v-5.39967c0-.31824.10836-.62345.301241-.84848.19288-.22503.45449-.35145.72727-.35145h4.62829c.27278 0 .53438.12642.72727.35145.19288.22503.30124.53024.30124.84848v.59996"/></g></svg>