<svg width="18" height="13" viewBox="0 0 18 13" fill="none" xmlns="http://www.w3.org/2000/svg">
<path fill-rule="evenodd" clip-rule="evenodd" d="M3.77044 1.05882C3.18567 1.05882 2.71162 1.53288 2.71162 2.11765V3.56231C3.65756 3.77417 4.36442 4.61892 4.36442 5.62877V6.31221H8.26399V1.05882H3.77044ZM9.32281 1.05882V6.31221H13.6356V5.62877C13.6356 4.61892 14.3424 3.77417 15.2884 3.56231V2.11765C15.2884 1.53288 14.8143 1.05882 14.2296 1.05882H9.32281ZM16.3472 3.56231V2.11765C16.3472 0.948102 15.3991 0 14.2296 0H3.77044C2.6009 0 1.6528 0.948104 1.6528 2.11765V3.56231C0.706863 3.77417 0 4.61892 0 5.62877V8.09857C0 9.26811 0.948102 10.2162 2.11765 10.2162H3.3056V11.5542C3.3056 11.8466 3.54262 12.0836 3.83501 12.0836C4.12739 12.0836 4.36442 11.8466 4.36442 11.5542V10.2162H13.6356V11.5542C13.6356 11.8466 13.8726 12.0836 14.165 12.0836C14.4574 12.0836 14.6944 11.8466 14.6944 11.5542V10.2162H15.8824C17.0519 10.2162 18 9.26811 18 8.09857V5.62877C18 4.61893 17.2931 3.77417 16.3472 3.56231ZM2.11765 4.56995C1.53288 4.56995 1.05882 5.044 1.05882 5.62877V8.09857C1.05882 8.68334 1.53288 9.15739 2.11765 9.15739H15.8824C16.4671 9.15739 16.9412 8.68334 16.9412 8.09857V5.62877C16.9412 5.044 16.4671 4.56995 15.8824 4.56995H15.7532C15.1685 4.56995 14.6944 5.044 14.6944 5.62877V7.37104H3.3056V5.62877C3.3056 5.044 2.83154 4.56995 2.24677 4.56995H2.11765Z" fill="#B3C0C7"/>
</svg>
