<svg width="24" height="24" viewBox="0 0 24 24" fill="none" xmlns="http://www.w3.org/2000/svg">
<path d="M2.42339 12.0629H2.47018L4.28538 19.7076C4.64094 21.2326 5.41754 22 6.9614 22H17.0386C18.5918 22 19.3591 21.2326 19.724 19.7076L21.5298 12.0629C21.5485 12.0629 21.5579 12.0629 21.5766 12.0629C22.9053 12.0629 24 10.9361 24 9.53732C24 8.15798 22.9146 7.03119 21.5766 7.03119C20.248 7.03119 19.1626 8.16769 19.1626 9.53732C19.1626 9.84816 19.2094 10.1493 19.3123 10.4213L17.0012 11.8978C16.6643 12.1212 16.4772 12.0532 16.2901 11.7909L13.3146 7.62372C13.9789 7.17689 14.4187 6.39008 14.4187 5.50613C14.4187 4.1365 13.3333 3 12.0047 3C10.6573 3 9.58129 4.12679 9.58129 5.50613C9.58129 6.3998 10.0304 7.17689 10.7041 7.62372L7.68187 11.8298C7.51345 12.0823 7.33567 12.1309 7.01754 11.9269L4.68772 10.4407C4.78129 10.159 4.83743 9.85787 4.83743 9.53732C4.83743 8.16769 3.75205 7.03119 2.42339 7.03119C1.08538 7.03119 0 8.15798 0 9.53732C0 10.9361 1.09474 12.0629 2.42339 12.0629ZM12.0047 6.50665C11.4807 6.50665 11.0409 6.0501 11.0409 5.50613C11.0409 4.95245 11.4807 4.51534 12.0047 4.51534C12.5193 4.51534 12.9591 4.97188 12.9591 5.50613C12.9591 6.0501 12.538 6.50665 12.0047 6.50665ZM6.50292 13.316C7.10175 13.6948 8.09357 13.7142 8.71111 12.8497L12.0047 8.25511L15.3076 12.8594C15.9064 13.6948 16.8889 13.6948 17.4316 13.3451L20.1731 11.5966H20.1825L18.8912 17.0752H5.10877L3.8269 11.6161L6.50292 13.316ZM2.42339 10.5475C1.89942 10.5475 1.45965 10.091 1.45965 9.53732C1.45965 8.98364 1.89942 8.54652 2.42339 8.54652C2.93801 8.54652 3.37778 9.00307 3.37778 9.53732C3.37778 10.091 2.95673 10.5475 2.42339 10.5475ZM21.5766 10.5475C21.0433 10.5475 20.6222 10.091 20.6222 9.53732C20.6222 9.00307 21.062 8.54652 21.5766 8.54652C22.1006 8.54652 22.5403 8.98364 22.5403 9.53732C22.5403 10.091 22.1006 10.5475 21.5766 10.5475ZM6.95205 20.5332C6.25029 20.5332 5.84795 20.2127 5.68889 19.523L5.45497 18.5419H18.545L18.3205 19.523C18.1614 20.2127 17.7591 20.5332 17.0573 20.5332H6.95205Z" fill="#445B6A"/>
</svg>
