<svg fill="none" height="24" viewBox="0 0 24 24" width="24" xmlns="http://www.w3.org/2000/svg"><path d="m2.48181 18.8048 8.76379 4.9253c.6069.3528 1.1714.3669 1.8064 0l8.7639-4.9253c.9737-.5645 1.4818-1.129 1.4818-2.5967v-8.94725c0-1.08667-.4375-1.72171-1.256-2.18741l-8.0441-4.544225c-1.2419-.70562-2.4697-.70562-3.6975 0l-8.0441 4.544225c-.81851.4657-1.256 1.10074-1.256 2.18741v8.94725c0 1.4677.50804 2.0322 1.48181 2.5967zm9.66699-7.6489-8.70734-4.8688 7.57834-4.3043c.7621-.43749 1.4677-.4516 2.258 0l7.5784 4.3043zm-8.72145 6.3082c-.64917-.3669-.83264-.7056-.83264-1.3124v-8.4816l8.73559 4.9394v9.286zm17.44295 0-7.9029 4.4314v-9.286l8.7356-4.9394v8.4816c0 .6068-.1835.9455-.8327 1.3124z" fill="#37404a"/></svg>