<svg fill="none" height="18" viewBox="0 0 16 18" width="16" xmlns="http://www.w3.org/2000/svg"><g stroke="#e37400" stroke-linecap="round" stroke-linejoin="round" stroke-width="1.5"><path d="m15.2085 12.212v-6.40781c-.0003-.28092-.0744-.55683-.215-.80004s-.3427-.44518-.586-.58564l-5.60676-3.20389c-.24353-.1406-.51978-.21462-.80098-.21462s-.55744.07402-.80097.21462l-5.6068 3.20389c-.24329.14046-.44536.34243-.58594.58564-.14059.24321-.214746.51912-.215034.80004v6.40781c.000288.2809.074444.5568.215034.8.14058.2432.34265.4452.58594.5856l5.6068 3.2039c.24353.1406.51977.2147.80097.2147s.55745-.0741.80098-.2147l5.60676-3.2039c.2433-.1404.4454-.3424.586-.5856s.2147-.5191.215-.8z"/><path d="m1.00781 4.97168 6.99249 4.04491 6.9925-4.04491"/><path d="m8 17.0816v-8.07379"/></g></svg>