<svg width="22" height="22" viewBox="0 0 22 22" fill="none" xmlns="http://www.w3.org/2000/svg">
<path d="M1.83337 10.9857C1.83337 11.2721 1.91542 11.5098 2.07953 11.6986C2.25019 11.8809 2.50291 12.0013 2.83767 12.0599C3.44813 12.1511 3.88463 12.3724 4.14719 12.724C4.40976 13.0756 4.54104 13.6453 4.54104 14.4331L4.54104 17.1773C4.54104 18.5055 4.85611 19.4886 5.48626 20.1266C6.1164 20.7646 7.09444 21.0837 8.42038 21.0837C8.57791 21.0837 8.72561 21.0609 8.86345 21.0153C9.01442 20.9502 9.12929 20.859 9.20806 20.7419C9.29339 20.6247 9.33606 20.4847 9.33606 20.3219C9.33606 19.9638 9.1654 19.7425 8.82407 19.6578C8.77155 19.6448 8.71904 19.6318 8.66653 19.6188C8.62058 19.6123 8.56807 19.609 8.50899 19.609C7.68192 19.5504 7.09773 19.3225 6.7564 18.9254C6.42163 18.5347 6.25425 17.8869 6.25425 16.982L6.25425 13.7397C6.25425 12.9128 6.0442 12.2715 5.6241 11.8158C5.204 11.36 4.60996 11.0964 3.84197 11.0247C3.82884 11.0247 3.82228 11.0182 3.82228 11.0052C3.82228 10.9922 3.82884 10.9857 3.84197 10.9857C4.60996 10.9141 5.204 10.6504 5.6241 10.1946C6.0442 9.73889 6.25425 9.0976 6.25425 8.27075V5.01869C6.25425 4.11371 6.42163 3.4659 6.7564 3.07527C7.09773 2.68463 7.68192 2.46001 8.50899 2.40142C8.58776 2.3949 8.65997 2.38839 8.72561 2.38188C8.79125 2.36886 8.85032 2.35259 8.90283 2.33305C9.19165 2.23539 9.33606 2.01729 9.33606 1.67874C9.33606 1.50295 9.29011 1.35971 9.19822 1.24903C9.11288 1.13184 8.98817 1.04395 8.82407 0.985354C8.68622 0.939779 8.51884 0.916992 8.32192 0.916992C7.03537 0.916992 6.08358 1.23927 5.46656 1.88382C4.84955 2.52837 4.54104 3.50822 4.54104 4.82337L4.54104 7.57736C4.54104 8.35864 4.40976 8.92506 4.14719 9.27664C3.88463 9.62821 3.44813 9.84957 2.83767 9.94072C2.50291 9.99281 2.25019 10.1133 2.07953 10.3021C1.91542 10.4844 1.83337 10.7122 1.83337 10.9857ZM20.1667 10.9857C20.1667 10.7122 20.0814 10.4844 19.9107 10.3021C19.7466 10.1133 19.4939 9.99281 19.1526 9.94072C18.5421 9.84306 18.1056 9.6217 17.843 9.27664C17.5805 8.92506 17.4492 8.35864 17.4492 7.57736V4.82337C17.4492 3.50822 17.1407 2.52837 16.5237 1.88382C15.9067 1.23927 14.9549 0.916992 13.6683 0.916992C13.478 0.916992 13.3139 0.939779 13.176 0.985354C12.9988 1.04395 12.8675 1.13184 12.7822 1.24903C12.6968 1.35971 12.6542 1.50295 12.6542 1.67874C12.6542 2.00427 12.8019 2.22237 13.0972 2.33305C13.1432 2.35259 13.199 2.36886 13.2646 2.38188C13.3303 2.38839 13.4025 2.3949 13.4812 2.40142C14.3083 2.44048 14.8925 2.66184 15.2338 3.0655C15.5752 3.46265 15.7458 4.11371 15.7458 5.01869L15.7458 8.27075C15.7458 9.0976 15.9559 9.75842 16.376 10.2532C16.7961 10.7415 17.3868 10.9857 18.1483 10.9857C18.1614 10.9857 18.168 10.9922 18.168 11.0052C18.168 11.0182 18.1614 11.0247 18.1483 11.0247C17.3868 11.0247 16.7961 11.2689 16.376 11.7572C15.9559 12.2455 15.7458 12.9063 15.7458 13.7397V16.982C15.7458 17.8869 15.5752 18.5347 15.2338 18.9254C14.8925 19.3225 14.3083 19.5504 13.4812 19.609C13.4222 19.609 13.3664 19.6123 13.3139 19.6188C13.2679 19.6318 13.222 19.6448 13.176 19.6578C12.9988 19.6904 12.8675 19.762 12.7822 19.8727C12.6968 19.9834 12.6542 20.1331 12.6542 20.3219C12.6542 20.4912 12.6968 20.6344 12.7822 20.7516C12.8675 20.8753 12.9857 20.9632 13.1366 21.0153C13.2745 21.0609 13.4189 21.0837 13.5699 21.0837C14.9024 21.0837 15.8804 20.7646 16.504 20.1266C17.1341 19.4886 17.4492 18.5055 17.4492 17.1773V14.4331C17.4492 13.6453 17.5805 13.0756 17.843 12.724C18.1056 12.3724 18.5421 12.1511 19.1526 12.0599C19.4939 12.0013 19.7466 11.8809 19.9107 11.6986C20.0814 11.5098 20.1667 11.2721 20.1667 10.9857Z" fill="#445B6A"/>
</svg>
