<svg fill="none" height="24" viewBox="0 0 24 24" width="24" xmlns="http://www.w3.org/2000/svg" xmlns:xlink="http://www.w3.org/1999/xlink"><clipPath id="a"><path d="m0 5h24v14.5846h-24z"/></clipPath><g clip-path="url(#a)"><path d="m23.1854 5.81641h-19.54746v10.24069h19.54746z" stroke="#37404a" stroke-linejoin="round" stroke-miterlimit="10" stroke-width="1.5"/><g fill="#37404a"><path d="m19.6887 16.0563c0-1.9222 1.5638-3.486 3.486-3.486v3.486z"/><path d="m3.63794 12.5586c1.92217 0 3.48597 1.5638 3.48597 3.486h-3.48597z"/><path d="m19.6887 5.81641c0 1.92217 1.5638 3.48597 3.486 3.48597v-3.48597z"/><path d="m3.63794 9.30238c1.92217 0 3.48597-1.5638 3.48597-3.48597h-3.48597z"/><path d="m13.4118 13.6986c1.5294 0 2.7692-1.2398 2.7692-2.7692 0-1.52942-1.2398-2.76924-2.7692-2.76924s-2.7692 1.23982-2.7692 2.76924c0 1.5294 1.2398 2.7692 2.7692 2.7692z"/></g><path d="m.814453 9.58203v9.18737h18.461547" stroke="#37404a" stroke-linejoin="round" stroke-miterlimit="10" stroke-width="1.5"/></g></svg>