<svg width="24" height="24" viewBox="0 0 24 24" fill="none" xmlns="http://www.w3.org/2000/svg">
<path d="M5.13938 21.2461L18.8603 21.2461C20.9598 21.2461 22.0143 20.2014 22.0143 18.1323L22.0143 5.86773C22.0143 3.79855 20.9598 2.75391 18.8603 2.75391L5.13938 2.75391C3.05009 2.75391 1.98535 3.78848 1.98535 5.86773L1.98535 18.1323C1.98535 20.2115 3.05009 21.2461 5.13938 21.2461ZM4.99877 19.6289C4.10477 19.6289 3.60257 19.1568 3.60257 18.2226L3.60257 8.75056C3.60257 7.82644 4.10477 7.34429 4.99877 7.34429L18.9909 7.34429C19.8849 7.34429 20.3972 7.82644 20.3972 8.75056L20.3972 18.2226C20.3972 19.1568 19.8849 19.6289 18.9909 19.6289L4.99877 19.6289Z" fill="#445B6A"/>
<path d="M7.27889 10.9503H6.68627C6.33467 10.9503 6.22418 10.8499 6.22418 10.4983V9.90569C6.22418 9.55414 6.33467 9.44365 6.68627 9.44365H7.27889C7.63045 9.44365 7.75097 9.55414 7.75097 9.90569V10.4983C7.75097 10.8499 7.63045 10.9503 7.27889 10.9503Z" fill="#445B6A"/>
</svg>
