<svg width="22" height="20" viewBox="0 0 22 20" fill="none" xmlns="http://www.w3.org/2000/svg">
<path d="M4.13938 19.2461L17.8603 19.2461C19.9598 19.2461 21.0143 18.2014 21.0143 16.1323L21.0143 3.86773C21.0143 1.79855 19.9598 0.753906 17.8603 0.753906L4.13938 0.753906C2.05009 0.753906 0.985352 1.78848 0.985352 3.86773L0.985352 16.1323C0.985352 18.2115 2.05009 19.2461 4.13938 19.2461ZM3.99877 17.6289C3.10477 17.6289 2.60257 17.1568 2.60257 16.2226L2.60257 6.75056C2.60257 5.82644 3.10477 5.34429 3.99877 5.34429L17.9909 5.34429C18.8849 5.34429 19.3972 5.82644 19.3972 6.75056L19.3972 16.2226C19.3972 17.1568 18.8849 17.6289 17.9909 17.6289L3.99877 17.6289Z" fill="#445B6A"/>
<path d="M6.27889 8.95033H5.68627C5.33467 8.95033 5.22418 8.84988 5.22418 8.49832V7.90569C5.22418 7.55414 5.33467 7.44365 5.68627 7.44365H6.27889C6.63045 7.44365 6.75097 7.55414 6.75097 7.90569V8.49832C6.75097 8.84988 6.63045 8.95033 6.27889 8.95033Z" fill="#445B6A"/>
</svg>
