<svg fill="none" height="31" viewBox="0 0 33 31" width="33" xmlns="http://www.w3.org/2000/svg"><path d="m11.9844 30.9219h9.4844c1.9843 0 2.9218-.6407 3.9531-1.75l5.75-6.375c1.0312-1.1407 1.2969-1.8907 1.2969-3.4375v-7.1406c0-1.5626-.2657-2.29692-1.2969-3.43755l-5.75-6.375c-1.0313-1.10937-1.9688-1.765625-3.9531-1.765625h-9.4844c-1.9844 0-2.93752.656255-3.95315 1.765625l-5.75 6.375c-1.03125 1.14063-1.296875 1.87495-1.296875 3.43755v7.1406c0 1.5468.265625 2.2968 1.296875 3.4375l5.75 6.375c1.01563 1.1093 1.96875 1.75 3.95315 1.75zm.8437-2.5c-1.5625 0-2.0156-.3438-2.87498-1.2813l-5.32812-5.8594c-.60938-.6874-.75-1.0781-.75-2.2187v-6.5469c0-1.1406.14062-1.5312.75-2.2187l5.32812-5.8594c.85938-.95312 1.31248-1.28125 2.87498-1.28125h7.7969c1.5625 0 2 .32813 2.875 1.28125l5.3125 5.8594c.625.6875.7656 1.0781.7656 2.2187v6.5469c0 1.1406-.1406 1.5313-.7656 2.2187l-5.3125 5.8594c-.875.9375-1.3125 1.2813-2.875 1.2813zm-1.4531-6.0313c.3594 0 .6719-.1406.9062-.3906l4.4219-4.4375 4.4531 4.4375c.2344.2344.5313.3906.8907.3906.7031 0 1.25-.5781 1.25-1.2656 0-.3594-.125-.6406-.375-.8906l-4.4375-4.4375 4.4531-4.4688c.2656-.2656.375-.5312.375-.875 0-.7031-.5469-1.24998-1.25-1.24998-.3281 0-.5937.125-.8594.39063l-4.5 4.45315-4.4531-4.43752c-.2344-.25-.5156-.375-.875-.375-.6875 0-1.25.53124-1.25 1.23442 0 .3437.1406.6406.375.875l4.4375 4.4531-4.4375 4.4531c-.2344.2344-.375.5312-.375.875 0 .6875.5625 1.2656 1.25 1.2656z" fill="#af38f9"/></svg>