<svg fill="none" height="22" viewBox="0 0 22 22" width="22" xmlns="http://www.w3.org/2000/svg"><path d="m19.2493 13.2917h-16.49995v-9.62499h16.49995zm0-11.45833h-16.49995c-1.0175 0-1.833334.81584-1.833334 1.83334v10.99999c0 .4862.193154.9526.536974 1.2964.34381.3438.81013.5369 1.29636.5369h6.41667v1.8334h-1.83334v1.8333h7.33332v-1.8333h-1.8333v-1.8334h6.4166c.4863 0 .9526-.1931 1.2964-.5369s.537-.8102.537-1.2964v-10.99999c0-.48623-.1932-.95255-.537-1.29637-.3438-.34381-.8101-.53697-1.2964-.53697z" fill="#3885f9"/></svg>