<svg fill="none" height="14" viewBox="0 0 14 14" width="14" xmlns="http://www.w3.org/2000/svg"><path d="m6.41667 8.51067v-6.76083c0-.15471.06145-.30309.17085-.41248.1094-.1094.25777-.17086.41248-.17086s.30308.06146.41248.17086c.10939.10939.17085.25777.17085.41248v6.76083l1.925-1.925c.11226-.09483.25618-.14379.40298-.1371.14679.00669.28569.06854.38889.17318.1031.10465.163.24438.1676.39126s-.0464.29009-.1428.40099l-2.91667 2.9167c-.10904.1069-.25564.1667-.40833.1667s-.29929-.0598-.40833-.1667l-2.91667-2.9167c-.09641-.1109-.14741-.25411-.14281-.40099.00461-.14688.06448-.28661.16766-.39126.10317-.10464.24204-.16649.38884-.17318s.29071.04227.40298.1371zm-4.66667 1.40583c0-.1547.06146-.30308.17085-.41247.1094-.1094.25777-.17086.41248-.17086s.30309.06146.41248.17086c.1094.10939.17086.25777.17086.41247v1.75h8.16663v-1.75c0-.1547.0615-.30308.1709-.41247.1094-.1094.2578-.17086.4125-.17086s.303.06146.4124.17086c.1094.10939.1709.25777.1709.41247v1.75c0 .3094-.1229.6062-.3417.825s-.5155.3417-.825.3417h-8.16663c-.30942 0-.60617-.1229-.82496-.3417s-.34171-.5156-.34171-.825z" fill="#37404a"/></svg>