<svg width="24" height="24" viewBox="0 0 24 24" fill="none" xmlns="http://www.w3.org/2000/svg">
<path d="M6.56575 12C6.56575 10.885 5.67179 9.99106 4.53676 9.99106C3.42179 9.99106 2.52783 10.885 2.52783 12C2.52783 13.115 3.42179 14.0089 4.53676 14.0089C5.67179 14.0089 6.56575 13.115 6.56575 12ZM13.9988 12C13.9988 10.885 13.1149 9.99106 11.9999 9.99106C10.8849 9.99106 10.001 10.885 10.001 12C10.001 13.115 10.8849 14.0089 11.9999 14.0089C13.1149 14.0089 13.9988 13.115 13.9988 12ZM21.472 12C21.472 10.885 20.568 9.99106 19.4631 9.99106C18.3281 9.99106 17.4341 10.885 17.4341 12C17.4341 13.115 18.3281 14.0089 19.4631 14.0089C20.568 14.0089 21.472 13.115 21.472 12Z" fill="#445B6A"/>
</svg>
