<svg fill="none" height="24" viewBox="0 0 24 24" width="24" xmlns="http://www.w3.org/2000/svg"><path d="m9.48789 23.5097 9.78351-12.6096c.8344-1.06314.4711-1.91096-.6055-1.91096h-5.0197l1.4265-7.77843c.2153-1.1573333-1.0497-1.655249-1.7898-.726696l-9.82397 12.649986c-.83436 1.0632-.47101 1.9245.60558 1.9245h5.01964l-1.43995 7.7649c-.2153 1.1573 1.11696 1.6014 1.84369.6863zm-.30954-1.884 1.54755-7.1997c.1077-.4576-.0269-.7806-.5382-.7806h-5.35611v-.0538l8.59931-11.19662h.1346l-1.5476 7.2132c-.1077.47102.0269.79402.5517.79402h5.3292v.0538l-8.59932 11.1697z" fill="#37404a"/></svg>