<svg width="22" height="22" viewBox="0 0 22 22" fill="none" xmlns="http://www.w3.org/2000/svg">
<path d="M3.72603 18.9321H18.5501C20.2077 18.9321 21.1653 17.9745 21.1653 16.0777V5.91253C21.1653 4.02497 20.1985 3.06738 18.2741 3.06738H3.44981C1.80162 3.06738 0.834839 4.01578 0.834839 5.91253V16.0777C0.834839 17.9837 1.81085 18.9321 3.72603 18.9321ZM9.90434 11.4647L2.95257 4.60506C3.15517 4.52217 3.39454 4.47613 3.67999 4.47613H18.3294C18.6146 4.47613 18.8634 4.52217 19.0752 4.62349L12.1325 11.4647C11.7366 11.8606 11.3867 12.0356 11.0184 12.0356C10.6501 12.0356 10.3003 11.8606 9.90434 11.4647ZM2.24362 16.0777V5.91253C2.24362 5.84806 2.24362 5.87568 2.24362 5.82045L7.53796 11.0135L2.25282 16.2342C2.24362 16.1882 2.24362 16.1329 2.24362 16.0777ZM19.7565 5.92173V16.0869C19.7565 16.1238 19.7565 16.1698 19.7565 16.2066L14.4989 11.0135L19.7565 5.84806C19.7565 5.92173 19.7565 5.92173 19.7565 5.92173ZM3.67999 17.5233C3.41296 17.5233 3.19198 17.4865 2.99862 17.4036L8.50479 11.9619L9.10326 12.5512C9.74779 13.1865 10.3647 13.4535 11.0184 13.4535C11.663 13.4535 12.2891 13.1865 12.9336 12.5512L13.5321 11.9619L19.0291 17.3944C18.8357 17.4865 18.5963 17.5233 18.3294 17.5233H3.67999Z" fill="#445B6A"/>
</svg>
