<svg width="22" height="22" viewBox="0 0 22 22" fill="none" xmlns="http://www.w3.org/2000/svg">
<path d="M8.64991 14.6785C9.13792 14.6785 9.47861 14.3563 9.4878 13.859L9.57069 3.13222C9.57069 2.60736 9.13792 2.24829 8.64072 2.24829C8.15271 2.24829 7.71994 2.60736 7.71994 3.13222L7.82126 13.859C7.83045 14.3563 8.1711 14.6785 8.64991 14.6785ZM8.64072 19.7519C9.37733 19.7519 9.95738 19.1626 9.95738 18.4444C9.95738 17.717 9.37733 17.1369 8.64072 17.1369C7.92254 17.1369 7.33325 17.717 7.33325 18.4444C7.33325 19.1626 7.92254 19.7519 8.64072 19.7519Z" fill="#F1BA11"/>
<path d="M14.0868 14.6785C14.5748 14.6785 14.9155 14.3563 14.9247 13.859L15.0076 3.13222C15.0076 2.60736 14.5748 2.24829 14.0776 2.24829C13.5896 2.24829 13.1568 2.60736 13.1568 3.13222L13.2581 13.859C13.2673 14.3563 13.608 14.6785 14.0868 14.6785ZM14.0776 19.7519C14.8142 19.7519 15.3943 19.1626 15.3943 18.4444C15.3943 17.717 14.8142 17.1369 14.0776 17.1369C13.3594 17.1369 12.7701 17.717 12.7701 18.4444C12.7701 19.1626 13.3594 19.7519 14.0776 19.7519Z" fill="#F1BA11"/>
</svg>
