<svg width="22" height="22" viewBox="0 0 22 22" fill="none" xmlns="http://www.w3.org/2000/svg">
<path d="M5.89991 14.6785C6.38792 14.6785 6.72861 14.3563 6.7378 13.859L6.82069 3.13222C6.82069 2.60736 6.38792 2.24829 5.89072 2.24829C5.40271 2.24829 4.96994 2.60736 4.96994 3.13222L5.07126 13.859C5.08045 14.3563 5.4211 14.6785 5.89991 14.6785ZM5.89072 19.7519C6.62733 19.7519 7.20738 19.1626 7.20738 18.4444C7.20738 17.717 6.62733 17.1369 5.89072 17.1369C5.17254 17.1369 4.58325 17.717 4.58325 18.4444C4.58325 19.1626 5.17254 19.7519 5.89072 19.7519Z" fill="#EB5757"/>
<path d="M11.2741 14.6785C11.7621 14.6785 12.1028 14.3563 12.112 13.859L12.1949 3.13222C12.1949 2.60736 11.7621 2.24829 11.2649 2.24829C10.7769 2.24829 10.3442 2.60736 10.3442 3.13222L10.4455 13.859C10.4547 14.3563 10.7953 14.6785 11.2741 14.6785ZM11.2649 19.7519C12.0016 19.7519 12.5816 19.1626 12.5816 18.4444C12.5816 17.717 12.0016 17.1369 11.2649 17.1369C10.5468 17.1369 9.95748 17.717 9.95748 18.4444C9.95748 19.1626 10.5468 19.7519 11.2649 19.7519Z" fill="#EB5757"/>
<path d="M16.6484 14.6785C17.1364 14.6785 17.4771 14.3563 17.4863 13.859L17.5691 3.13222C17.5691 2.60736 17.1364 2.24829 16.6392 2.24829C16.1512 2.24829 15.7184 2.60736 15.7184 3.13222L15.8197 13.859C15.8289 14.3563 16.1696 14.6785 16.6484 14.6785ZM16.6392 19.7519C17.3758 19.7519 17.9558 19.1626 17.9558 18.4444C17.9558 17.717 17.3758 17.1369 16.6392 17.1369C15.921 17.1369 15.3317 17.717 15.3317 18.4444C15.3317 19.1626 15.921 19.7519 16.6392 19.7519Z" fill="#EB5757"/>
</svg>
