<svg width="24" height="24" viewBox="0 0 24 24" fill="none" xmlns="http://www.w3.org/2000/svg">
<path d="M4.11009 21.5173H19.8902C21.3969 21.5173 22.3411 20.4325 22.3411 19.0664C22.3411 18.6546 22.2407 18.2428 22.0197 17.8611L14.1145 3.71821C13.6625 2.90457 12.8389 2.48273 12.0052 2.48273C11.1815 2.48273 10.3378 2.90457 9.88574 3.71821L1.99068 17.8711C1.76967 18.2528 1.65918 18.6546 1.65918 19.0664C1.65918 20.4325 2.61344 21.5173 4.11009 21.5173ZM12.0052 14.6367C11.4728 14.6367 11.1815 14.3354 11.1614 13.793L11.0208 8.83094C11.0007 8.28854 11.4226 7.88676 11.9951 7.88676C12.5576 7.88676 12.9996 8.29857 12.9795 8.84097L12.8288 13.793C12.8088 14.3454 12.5174 14.6367 12.0052 14.6367ZM12.0052 18.3432C11.4226 18.3432 10.8802 17.8812 10.8802 17.2584C10.8802 16.6356 11.4125 16.1736 12.0052 16.1736C12.5978 16.1736 13.1302 16.6256 13.1302 17.2584C13.1302 17.8912 12.5878 18.3432 12.0052 18.3432Z" fill="#445B6A"/>
</svg>
