<svg width="20" height="20" viewBox="0 0 20 20" fill="none" xmlns="http://www.w3.org/2000/svg"><rect width="20" height="20" fill="transparent"/><path d="M15.3115 15.9912C15.5166 16.2031 15.8447 16.2168 16.0566 15.9912C16.2754 15.7656 16.2617 15.458 16.0566 15.2461L4.62695 3.82324C4.42188 3.61816 4.08008 3.61816 3.875 3.82324C3.67676 4.02148 3.67676 4.37012 3.875 4.56836L15.3115 15.9912ZM10 4.21289C8.81055 4.21289 7.73047 4.41797 6.72559 4.75293L7.62793 5.64844C8.37988 5.42285 9.15234 5.29297 10 5.29297C14.498 5.29297 18.1416 9.25781 18.1416 10.0713C18.1416 10.625 16.9453 12.1152 15.0518 13.2773L15.8926 14.1182C18.0527 12.7168 19.3379 10.8779 19.3379 10.0713C19.3379 8.66992 15.5234 4.21289 10 4.21289ZM10 15.9297C11.2715 15.9297 12.4336 15.7041 13.4932 15.3418L12.5977 14.4463C11.7842 14.6992 10.9229 14.8496 10 14.8496C5.49512 14.8496 1.85156 11.0352 1.85156 10.0713C1.85156 9.59277 3.11621 8 5.13281 6.79004L4.28516 5.94238C2.00879 7.35059 0.655273 9.24414 0.655273 10.0713C0.655273 11.4658 4.54492 15.9297 10 15.9297ZM13.5068 11.5684C13.7188 11.1104 13.835 10.5977 13.835 10.0713C13.835 7.93164 12.126 6.24316 10 6.24316C9.45996 6.24316 8.9541 6.35937 8.49609 6.55762L13.5068 11.5684ZM10 13.8994C10.6016 13.8994 11.1689 13.749 11.6748 13.5029L6.54785 8.37598C6.29492 8.88184 6.15137 9.45605 6.15137 10.0713C6.1582 12.1562 7.86035 13.8994 10 13.8994Z" fill="#37404A"/></svg>