<svg width="20" height="20" viewBox="0 0 20 20" fill="none" xmlns="http://www.w3.org/2000/svg"><rect width="20" height="20" fill="transparent"/><path d="M10 15.9297C15.5234 15.9297 19.3379 11.4658 19.3379 10.0713C19.3379 8.66992 15.5166 4.21289 10 4.21289C4.55176 4.21289 0.655273 8.66992 0.655273 10.0713C0.655273 11.4658 4.54492 15.9297 10 15.9297ZM10 14.8496C5.49512 14.8496 1.85156 11.0352 1.85156 10.0713C1.85156 9.25781 5.49512 5.29297 10 5.29297C14.4844 5.29297 18.1416 9.25781 18.1416 10.0713C18.1416 11.0352 14.4844 14.8496 10 14.8496ZM10 13.8994C12.126 13.8994 13.835 12.1562 13.835 10.0713C13.835 7.93164 12.126 6.24316 10 6.24316C7.86035 6.24316 6.14453 7.93164 6.15137 10.0713C6.16504 12.1562 7.86035 13.8994 10 13.8994ZM10 11.3428C9.28906 11.3428 8.71484 10.7686 8.71484 10.0713C8.71484 9.36719 9.28906 8.7998 10 8.7998C10.7041 8.7998 11.2783 9.36719 11.2783 10.0713C11.2783 10.7686 10.7041 11.3428 10 11.3428Z" fill="#37404A"/></svg>