<svg width="24" height="24" viewBox="0 0 24 24" fill="none" xmlns="http://www.w3.org/2000/svg">
<path d="M18.8354 20.2812C18.9662 20.412 19.1495 20.4818 19.3151 20.4818C19.6642 20.4818 19.9869 20.1677 19.9869 19.81C19.9869 19.6356 19.9172 19.4611 19.7862 19.3302L5.19086 4.74352C5.05997 4.61268 4.8855 4.55161 4.71103 4.55161C4.36204 4.55161 4.03929 4.86566 4.03929 5.21461C4.03929 5.39782 4.10036 5.57229 4.2312 5.69443L18.8354 20.2812ZM19.6555 17.8122C22.3948 16.0412 24 13.7381 24 12.7173C24 10.9464 19.1582 5.30186 12.0044 5.30186C10.5213 5.30186 9.13414 5.55485 7.86043 5.9736L10.1374 8.2419C10.7045 7.99762 11.3326 7.85803 12.0044 7.85803C14.7089 7.85803 16.8811 9.9954 16.8811 12.7173C16.8811 13.3804 16.7415 14.0172 16.471 14.5756L19.6555 17.8122ZM12.0044 20.1328C13.6183 20.1328 15.1189 19.845 16.4625 19.3738L14.1505 17.0619C13.5136 17.3935 12.7808 17.5767 12.0044 17.5767C9.28247 17.5767 7.12757 15.3695 7.11887 12.7173C7.11887 11.9322 7.30209 11.1906 7.63359 10.5363L4.59763 7.48286C1.71866 9.25389 0 11.6704 0 12.7173C0 14.4796 4.92913 20.1328 12.0044 20.1328ZM14.7786 12.5341C14.7786 11.0074 13.5486 9.7686 12.0044 9.7686C11.891 9.7686 11.7775 9.7773 11.6729 9.78605L14.7612 12.8744C14.7699 12.7697 14.7786 12.6476 14.7786 12.5341ZM9.2214 12.5167C9.2214 14.0521 10.4864 15.291 12.0131 15.291C12.1353 15.291 12.2487 15.2823 12.3708 15.2735L9.23884 12.1416C9.2301 12.2637 9.2214 12.3945 9.2214 12.5167Z" fill="#475569"/>
</svg>
