<svg width="24" height="24" viewBox="0 0 24 24" fill="none" xmlns="http://www.w3.org/2000/svg">
<path d="M12.0044 19.9095C19.0999 19.9095 24 14.1752 24 12.3838C24 10.5835 19.0911 4.85791 12.0044 4.85791C5.0055 4.85791 0 10.5835 0 12.3838C0 14.1752 4.99671 19.9095 12.0044 19.9095ZM12.0044 18.5221C6.22616 18.5221 1.53677 13.6219 1.53677 12.3838C1.53677 11.3387 6.22616 6.24541 12.0044 6.24541C17.7651 6.24541 22.4632 11.3387 22.4632 12.3838C22.4632 13.6219 17.7651 18.5221 12.0044 18.5221ZM12.0044 17.3014C14.7355 17.3014 16.9309 15.0621 16.9309 12.3838C16.9309 9.63511 14.7355 7.46607 12.0044 7.46607C9.25577 7.46607 7.05159 9.63511 7.06916 12.3838C7.07794 15.0621 9.25577 17.3014 12.0044 17.3014ZM12.0044 14.0171C11.0911 14.0171 10.3535 13.2795 10.3535 12.3838C10.3535 11.4793 11.0911 10.7504 12.0044 10.7504C12.9089 10.7504 13.6466 11.4793 13.6466 12.3838C13.6466 13.2795 12.9089 14.0171 12.0044 14.0171Z" fill="#475569"/>
</svg>
