<svg width="24" height="24" viewBox="0 0 24 24" fill="none" xmlns="http://www.w3.org/2000/svg">
<path d="M18.7379 20.2292C18.8676 20.359 19.0495 20.4282 19.2138 20.4282C19.56 20.4282 19.8803 20.1166 19.8803 19.7618C19.8803 19.5887 19.8112 19.4156 19.6812 19.2857L5.20157 4.81473C5.07176 4.68492 4.8987 4.62436 4.7256 4.62436C4.3794 4.62436 4.05913 4.93593 4.05913 5.28213C4.05913 5.46384 4.11973 5.63699 4.24954 5.75814L18.7379 20.2292ZM12.0043 5.30806C10.4984 5.30806 9.13959 5.56773 7.86733 5.9918L9.00111 7.12559C9.9618 6.83999 10.9311 6.67554 12.0043 6.67554C17.8724 6.67554 22.4854 11.6954 22.4854 12.7253C22.4854 13.4264 20.9708 15.3131 18.5734 16.7845L19.638 17.849C22.373 16.0748 24 13.7466 24 12.7253C24 10.9511 19.1706 5.30806 12.0043 5.30806ZM12.0043 20.1426C13.6142 20.1426 15.0855 19.857 16.4271 19.3983L15.2932 18.2645C14.2633 18.5847 13.1727 18.7751 12.0043 18.7751C6.13633 18.7751 1.51461 13.9457 1.51461 12.7253C1.51461 12.1195 3.12441 10.1029 5.66897 8.57099L4.59574 7.49776C1.71369 9.28066 0 11.6781 0 12.7253C0 14.4909 4.92463 20.1426 12.0043 20.1426ZM16.4442 14.6207C16.7126 14.0409 16.8597 13.3918 16.8597 12.7253C16.8597 10.0163 14.696 7.87859 12.0043 7.87859C11.3206 7.87859 10.6801 8.02572 10.1003 8.27673L16.4442 14.6207ZM12.0043 17.5721C12.766 17.5721 13.4844 17.3817 14.1248 17.0701L7.64229 10.5789C7.3134 11.2194 7.1403 11.9464 7.1403 12.7253C7.1403 15.3651 9.29537 17.5721 12.0043 17.5721Z" fill="#475569"/>
</svg>
