<svg fill="none" height="105" viewBox="0 0 104 105" width="104" xmlns="http://www.w3.org/2000/svg" xmlns:xlink="http://www.w3.org/1999/xlink"><clipPath id="a"><path d="m65 34h19v19h-19z"/></clipPath><clipPath id="b"><path d="m20 34h19v19h-19z"/></clipPath><path d="m69.9209 65.1406s-3.7846 13.2573-18.0008 13.2573c-14.2089 0-17.8411-13.1556-17.8411-13.1556" stroke="#37404a" stroke-linecap="round" stroke-miterlimit="10" stroke-width="4"/><path d="m2 52.3691c0-27.6115 22.3885-49.99996 50-49.99996s50 22.38846 50 49.99996-22.3885 49.9999-50 49.9999-50-22.3884-50-49.9999z" stroke="#37404a" stroke-miterlimit="10" stroke-width="4"/><g clip-path="url(#a)"><path d="m83.9503 41.2879c-.1251-.3847-.4663-.6571-.8685-.6935l-5.4847-.4979-2.1676-5.0748c-.16-.3729-.5242-.6135-.9295-.6135s-.7696.2406-.9286.6135l-2.1676 5.0748-5.4856.4979c-.4021.0371-.7427.3095-.8685.6935-.1251.3847-.0095.8067.2946 1.0734l4.146 3.6355-1.2225 5.3842c-.0894.3958.0643.8052.3927 1.0427.1766.1282.3841.1923.5922.1923.1789 0 .3579-.0475.5178-.1432l4.7295-2.8279 4.7286 2.8279c.3469.2073.7831.1883 1.1109-.0491.3284-.2375.4821-.6469.3927-1.0427l-1.2225-5.3842 4.146-3.6355c.304-.2667.4197-.6878.2946-1.0734z" fill="#37404a"/></g><g clip-path="url(#b)"><path d="m38.9503 41.2879c-.1251-.3847-.4663-.6571-.8685-.6935l-5.4847-.4979-2.1676-5.0748c-.16-.3729-.5242-.6135-.9295-.6135s-.7696.2406-.9286.6135l-2.1676 5.0748-5.4856.4979c-.4021.0371-.7427.3095-.8685.6935-.1251.3847-.0095.8067.2946 1.0734l4.146 3.6355-1.2224 5.3842c-.0895.3958.0642.8052.3927 1.0427.1765.1282.384.1923.5921.1923.1789 0 .3579-.0475.5178-.1432l4.7295-2.8279 4.7286 2.8279c.3469.2073.7831.1883 1.1109-.0491.3285-.2375.4821-.6469.3927-1.0427l-1.2225-5.3842 4.146-3.6355c.304-.2667.4197-.6878.2946-1.0734z" fill="#37404a"/></g></svg>