<svg fill="none" height="34" viewBox="0 0 34 34" width="34" xmlns="http://www.w3.org/2000/svg"><path d="m17.0063 19.8608c.5333 0 .8443-.3237.857-.8759l.0952-6.462c.0063-.0571.0063-.1206.0063-.165 0-.584-.3872-.9458-.9585-.9458-.5712 0-.9648.3618-.9648.9458v.165l.1079 6.462c.0127.5522.3174.8759.8569.8759zm-.0063 3.669c.6475 0 1.168-.5078 1.168-1.1362 0-.6285-.5205-1.1299-1.168-1.1299-.6411 0-1.168.5014-1.168 1.1299 0 .6284.5269 1.1362 1.168 1.1362z" fill="#37404a"/><circle cx="17" cy="17" r="15" stroke="#ffb900" stroke-width="3"/></svg>