<svg fill="none" height="24" viewBox="0 0 24 24" width="24" xmlns="http://www.w3.org/2000/svg"><path d="m6.38151 24h11.96419c2.2352 0 3.3672-1.1606 3.3672-3.4245v-10.3594c0-1.31821-.1577-1.90565-.9744-2.75104l-6.4048-6.476414c-.7737-.802396-1.4185-.988646-2.5934-.988646h-5.35879c-2.23523 0-3.38151 1.14625-3.38151 3.41015v17.16535c0 2.2782 1.13193 3.4245 3.38151 3.4245zm.07163-1.6048c-1.21792 0-1.8627-.6447-1.8627-1.8483v-17.10811c0-1.17492.64478-1.84835 1.87702-1.84835h5.11524v6.63403c0 1.34688.6877 2.00603 1.9916 2.00603h6.5481v10.3164c0 1.2036-.6305 1.8483-1.8627 1.8483zm7.30746-13.66923c-.4872 0-.6734-.18628-.6734-.67343v-6.14688l6.72 6.82031zm2.837 4.82863h-8.66864c-.37253 0-.64479.2723-.64479.6161 0 .3439.27226.6305.64479.6305h8.66864c.3582 0 .6161-.2866.6161-.6305 0-.3438-.2579-.6161-.6161-.6161zm0 3.926h-8.66864c-.37253 0-.64479.2722-.64479.6304 0 .3439.27226.6162.64479.6162h8.66864c.3582 0 .6161-.2723.6161-.6162 0-.3582-.2579-.6304-.6161-.6304z" fill="#37404a"/></svg>