<svg fill="none" height="10" viewBox="0 0 8 10" width="8" xmlns="http://www.w3.org/2000/svg"><path d="m7.66022 4.52553c-.22061-.48837-.54131-.9267-.94205-1.28758l-.33068-.29843c-.01122-.00985-.02474-.01684-.03936-.02036-.01461-.00352-.02988-.00346-.04447.00018-.01458.00365-.02804.01075-.03918.0207s-.01963.02244-.02471.03637l-.14773.4169c-.09205.26154-.26136.52867-.50114.79133-.01591.01676-.03409.02123-.04659.02235s-.03182-.00112-.04886-.01677c-.01591-.01341-.02387-.03353-.02273-.05365.04205-.67285-.1625-1.43176-.61022-2.25774-.37046-.68626-.88523-1.221639-1.52841-1.594949l-.46932-.2715996c-.06136-.0357662-.13977.0111769-.13636.0815916l.025.536493c.01704.366604-.02614.690734-.12841.960104-.125.32972-.30455.63596-.53409.91092-.15975.19108-.34081.36392-.53978.51525-.47919.36232-.868843.82658-1.139767 1.358-.270256.53606-.41103327 1.12626-.411363 1.72461 0 .52755.105682 1.03833.314772 1.52006.201894.46381.493248.88474.857958 1.23952.36818.35767.79545.63932 1.27159.83492.49318.20342 1.0159.30625 1.55568.30625.53977 0 1.0625-.10283 1.55568-.30513.47496-.19445.90687-.47804 1.27159-.83492.36818-.35766.65681-.77568.85795-1.23952.20877-.48041.31588-.99761.31477-1.52007 0-.54543-.11363-1.07522-.33977-1.57483z" fill="#fff"/></svg>