<svg width="24" height="24" viewBox="0 0 24 24" fill="none" xmlns="http://www.w3.org/2000/svg">
<path d="M3.84394 21.8588C4.26582 21.8588 4.60735 21.5273 4.60735 21.0954V15.5207C4.8585 15.4101 5.80268 15.0485 7.27924 15.0485C10.9957 15.0485 13.3261 16.8666 16.8618 16.8666C18.4288 16.8666 19.0114 16.6958 19.7748 16.3544C20.4678 16.043 20.9199 15.5207 20.9199 14.5965V4.39117C20.9199 3.8588 20.4578 3.53737 19.8752 3.53737C19.383 3.53737 18.4589 3.96929 16.7313 3.96929C13.1955 3.96929 10.8752 2.14117 7.14865 2.14117C5.58167 2.14117 4.98904 2.31192 4.22567 2.65345C3.53258 2.96485 3.08057 3.49722 3.08057 4.41123V21.0954C3.08057 21.5072 3.43212 21.8588 3.84394 21.8588ZM16.8618 15.3398C13.517 15.3398 11.1464 13.5318 7.27924 13.5318C6.1743 13.5318 5.17988 13.6624 4.60735 13.8934V4.45143C4.74797 4.13 5.58167 3.66796 7.14865 3.66796C10.6844 3.66796 13.0449 5.48605 16.7313 5.48605C17.8261 5.48605 18.7301 5.35546 19.4031 5.15455V14.5564C19.2625 14.8778 18.4288 15.3398 16.8618 15.3398Z" fill="#445B6A"/>
</svg>
