<svg width="24" height="24" viewBox="0 0 24 24" fill="none" xmlns="http://www.w3.org/2000/svg">
<g clip-path="url(#clip0_767_17170)">
<path d="M15.6958 18.6701L8.60325 5.0005C8.30272 4.42071 7.86862 4.24231 7.36773 4.29435C6.95367 4.35381 6.41272 4.58424 5.89848 4.91873C4.26226 5.97424 3.60777 7.63183 2.03834 8.63531C1.35714 9.07387 0.749397 9.24483 0.448867 9.43809C0.04816 9.69825 -0.132158 10.1517 0.108266 10.6125L2.793 15.786C3.09353 16.3658 3.52763 16.5368 4.02851 16.4847C4.44258 16.4401 4.98353 16.1948 5.49777 15.8603C7.13399 14.8048 7.78848 13.1547 9.35123 12.1438C9.83208 11.839 10.2729 11.668 10.56 11.5417L14.6205 19.3614C14.7875 19.6958 15.1682 19.8148 15.4687 19.6215C15.7625 19.4283 15.8694 18.9971 15.6958 18.6701ZM12.4901 10.6051L13.2114 11.9951L13.4384 11.5417C13.7323 11.668 14.1664 11.839 14.6472 12.1438C16.21 13.1547 16.8645 14.8048 18.5074 15.8603C19.0149 16.1948 19.5559 16.4401 19.97 16.4847C20.4708 16.5368 20.9116 16.3658 21.2121 15.786L23.8902 10.6125C24.1306 10.1517 23.957 9.69825 23.5563 9.43809C23.2491 9.24483 22.6413 9.07387 21.9601 8.63531C20.3974 7.63183 19.7429 5.97424 18.1 4.91873C17.5924 4.58424 17.0515 4.35381 16.6307 4.29435C16.1299 4.24231 15.7024 4.42071 15.3952 5.0005L12.4901 10.6051ZM9.91222 10.3003C9.53155 10.4341 9.07074 10.724 8.73014 10.9396C6.98038 12.062 6.39268 13.6899 4.86332 14.6636C4.70971 14.7677 4.27561 15.0353 3.86155 15.065L1.48403 10.4787C1.87138 10.3524 2.32551 10.0625 2.66611 9.84691C4.41586 8.72451 5.00357 7.10408 6.52625 6.1229C6.68653 6.01884 7.12063 5.74381 7.5347 5.71408L9.91222 10.3003ZM11.515 15.2583L10.7938 13.8683L8.30272 18.6701C8.13576 18.9971 8.23593 19.4283 8.53646 19.6215C8.83699 19.8148 9.21099 19.6958 9.38462 19.3614L11.515 15.2583Z" fill="#445B6A"/>
</g>
<defs>
<clipPath id="clip0_767_17170">
<rect width="24" height="24" fill="white"/>
</clipPath>
</defs>
</svg>
