<svg width="24" height="24" viewBox="0 0 24 24" fill="none" xmlns="http://www.w3.org/2000/svg">
<path d="M3.62278 21.3214H20.6886C22.4865 21.3214 23.5314 20.2768 23.5314 18.2076V7.63057C23.5314 5.56139 22.4767 4.52677 20.3872 4.52677H10.6139C9.93084 4.52677 9.51898 4.35603 9.01674 3.93414L8.40405 3.42187C7.74109 2.8694 7.22882 2.67856 6.23441 2.67856H3.24109C1.48326 2.67856 0.46875 3.683 0.46875 5.71203V18.2076C0.46875 20.2868 1.53349 21.3214 3.62278 21.3214ZM2.08596 5.79239C2.08596 4.79797 2.61834 4.29577 3.57255 4.29577H5.82255C6.48551 4.29577 6.88729 4.45644 7.39956 4.89843L8.01229 5.40063C8.66518 5.94307 9.19755 6.14394 10.192 6.14394H20.3572C21.3516 6.14394 21.914 6.67632 21.914 7.72096V8.32366H2.08596V5.79239ZM3.65291 19.7042C2.64846 19.7042 2.08596 19.1719 2.08596 18.1272V9.84042H21.914V18.1373C21.914 19.1719 21.3516 19.7042 20.3572 19.7042H3.65291Z" fill="#475569"/>
</svg>
