<svg fill="none" height="24" viewBox="0 0 24 24" width="24" xmlns="http://www.w3.org/2000/svg"><path d="m3.19641 21.3397h17.86229c1.8669 0 2.9413-1.061 2.9413-3.1562v-11.0934c0-2.08171-1.0744-3.15612-3.1964-3.15612h-10.2742c-.76554 0-1.18189-.16118-1.7191-.63122l-.63122-.52378c-.68496-.60438-1.19532-.77898-2.24286-.77898h-3.12928c-1.79967 0-2.80694.99385-2.80694 3.02184v13.16166c0 2.0952 1.07443 3.1562 3.19641 3.1562zm-1.70566-16.23729c0-1.07442.56408-1.62507 1.61165-1.62507h2.45776c.73866 0 1.15501.16118 1.70564.64467l.61779.5372c.67152.56408 1.22217.76553 2.26971.76553h10.6234c1.1013 0 1.7325.59093 1.7325 1.74596v.75207h-21.01845zm1.73254 14.74649c-1.11474 0-1.73254-.5909-1.73254-1.7459v-8.77003h21.01845v8.78343c0 1.1416-.6312 1.7325-1.7325 1.7325z" fill="#37404a"/></svg>