<svg width="16" height="13" viewBox="0 0 16 13" fill="none" xmlns="http://www.w3.org/2000/svg">
<path d="M2.38086 12.7783H13.8174C15.041 12.7783 15.7588 12.0674 15.7588 10.6592V3.63867C15.7588 2.23047 15.0342 1.51953 13.6123 1.51953H7.0498C6.58496 1.51953 6.30469 1.41016 5.96289 1.11621L5.5459 0.774414C5.09473 0.391602 4.74609 0.268555 4.06934 0.268555H2.12109C0.924805 0.268555 0.234375 0.952148 0.234375 2.32617V10.6592C0.234375 12.0742 0.952148 12.7783 2.38086 12.7783ZM1.33496 2.3877C1.33496 1.71094 1.69043 1.3623 2.34668 1.3623H3.78906C4.24023 1.3623 4.51367 1.47852 4.8623 1.77246L5.2793 2.12109C5.72363 2.49023 6.08594 2.62012 6.7627 2.62012H13.5918C14.2686 2.62012 14.6582 2.98926 14.6582 3.7002V4.08984H1.33496V2.3877ZM2.39453 11.6777C1.71094 11.6777 1.33496 11.3154 1.33496 10.6045V5.12207H14.6582V10.6113C14.6582 11.3154 14.2686 11.6777 13.5918 11.6777H2.39453Z" fill="#A0AEB8"/>
</svg>
