<svg fill="none" height="23" viewBox="0 0 24 23" width="24" xmlns="http://www.w3.org/2000/svg"><path d="m11.9199 21.6465c.2344 0 .459-.0195.7031-.0391l.5469 1.0352c.1172.2636.3809.3906.6836.3515.2832-.0488.4785-.2636.5176-.5566l.166-1.1621c.459-.1172.9082-.293 1.3379-.4785l.8594.7715c.2051.205.4883.2343.7715.0878.2441-.1464.3418-.4101.2929-.7031l-.2441-1.1328c.3808-.2734.7519-.5762 1.1035-.9082l1.0547.4395c.2832.1172.5469.0488.7617-.1954.1758-.205.2051-.498.0488-.7519l-.6152-.9863c.2637-.3809.4883-.8008.6934-1.2403l1.1718.0586c.2832.0196.5371-.1465.6348-.4199s0-.5566-.2246-.7324l-.9082-.7227c.1172-.4492.2051-.9179.2441-1.4062l1.1035-.3516c.2832-.0976.459-.3223.459-.6152 0-.293-.1758-.5176-.459-.6153l-1.1035-.3515c-.039-.4883-.1367-.9473-.2441-1.40627l.9082-.72265c.2246-.16602.3125-.43946.2246-.71289-.0977-.28321-.3516-.44922-.6348-.42969l-1.1718.03906c-.2051-.42968-.4297-.83984-.6934-1.23047l.6152-.99609c.1465-.23438.127-.52734-.0488-.73242-.2148-.24414-.4785-.3125-.7617-.19531l-1.0645.42968c-.3418-.32226-.7129-.63476-1.0937-.89843l.2441-1.13282c.0489-.30273-.0488-.5664-.3027-.70312-.2734-.14649-.5566-.12696-.7617.08789l-.8594.76172c-.4297-.19531-.8789-.35157-1.3379-.47852l-.166-1.14258c-.0391-.29297-.2344-.50781-.5176-.566402-.3027-.039063-.5566.087892-.6836.332032l-.5469 1.04492c-.2441-.01953-.4687-.0293-.7031-.0293-.2539 0-.4785.00977-.7226.0293l-.5469-1.04492c-.1172-.24414-.3809-.371095-.6836-.32227-.28321.04883-.47852.26367-.51758.55664l-.16602 1.14258c-.44922.12695-.89843.28321-1.33789.47852l-.84961-.76172c-.21484-.20508-.49804-.23438-.77148-.08789-.24414.13672-.35156.40039-.30274.70312l.24414 1.13282c-.38085.26367-.75195.57617-1.09374.89843l-1.06446-.42968c-.27344-.11719-.54687-.04883-.75195.19531-.18555.20508-.20508.49804-.05859.73242l.625.99609c-.26368.39063-.48829.80079-.70313 1.23047l-1.16211-.03906c-.29297-.01953-.54687.14648-.63476.42969-.09766.27343-.01954.54687.21484.71289l.91797.72265c-.11719.45897-.21485.91797-.24414 1.40627l-1.10352.3515c-.292968.0977-.458983.3125-.458983.6153 0 .2929.166015.5176.458983.6152l1.10352.3516c.02929.4883.12695.957.24414 1.4062l-.90821.7227c-.23437.166-.3125.4492-.2246.7226.08789.2832.34179.4493.63476.4297l1.16211-.0586c.20508.4395.43945.8594.70313 1.2403l-.625.9961c-.15626.2441-.12696.5371.05859.7421.20508.2442.47851.3126.75195.1954l1.06446-.4395c.34179.332.71289.6348 1.09374.9082l-.24414 1.1328c-.04882.293.04883.5567.30274.7031.27344.1465.55664.1172.77148-.0878l.84961-.7715c.43946.1855.87891.3613 1.33789.4883l.16602 1.1523c.03906.293.23437.5078.52734.5566.29294.0391.55664-.0879.67384-.3418l.5469-1.0449c.2441.0196.4687.0391.7226.0391zm2.5489-10.4297c-.4786-1.25977-1.4551-1.94336-2.6075-1.94336-.166 0-.3418.01953-.6445.08789l-2.63672-4.53125c1.00586-.46875 2.12892-.73242 3.33012-.73242 4.1308 0 7.373 3.10546 7.7441 7.11914zm-10.33208.7812c0-2.61714 1.20117-4.91206 3.10547-6.34761l2.65625 4.54101c-.51758.5664-.76172 1.1914-.76172 1.8359 0 .6153.22461 1.2012.76172 1.7969l-2.73438 4.4629c-1.85547-1.4355-3.02734-3.7109-3.02734-6.2891zm6.55278.0196c0-.6641.5566-1.1719 1.1816-1.1719.6543 0 1.1914.5078 1.1914 1.1719 0 .6445-.5371 1.1816-1.1914 1.1816-.625 0-1.1816-.5371-1.1816-1.1816zm1.2207 7.8711c-1.2305 0-2.38286-.2735-3.40825-.7715l2.70505-4.4336c.293.0586.4883.0781.6543.0781 1.1621 0 2.1289-.7031 2.6075-1.9922h5.1855c-.3711 4.0137-3.6133 7.1192-7.7441 7.1192z" fill="#37404a"/></svg>