<svg width="24" height="24" viewBox="0 0 24 24" fill="none" xmlns="http://www.w3.org/2000/svg">
<path d="M9.55352 2.00699L10.4215 2.96839C11.3725 4.02177 12.9169 4.01899 13.8654 2.96839L14.6794 2.06679C15.6787 2.3357 16.6179 2.7514 17.4723 3.28936L17.4137 4.43815C17.3413 5.85546 18.4353 6.94554 19.8489 6.87334L20.8881 6.82026C21.416 7.72411 21.8099 8.71573 22.0427 9.76792L21.3186 10.4216C20.2652 11.3726 20.268 12.917 21.3186 13.8655L21.9873 14.4692C21.723 15.5416 21.2906 16.5479 20.7194 17.4583L19.8489 17.4138C18.4316 17.3414 17.3415 18.4355 17.4137 19.849L17.4581 20.7196C16.5477 21.2907 15.5415 21.7232 14.469 21.9874L13.8654 21.3188C12.9144 20.2654 11.37 20.2682 10.4215 21.3188L9.76777 22.0429C8.71558 21.8101 7.72396 21.4161 6.82011 20.8882L6.87319 19.849C6.94558 18.4317 5.85156 17.3416 4.43799 17.4138L3.2892 17.4725C2.75125 16.618 2.33555 15.6789 2.06664 14.6795L2.96824 13.8655C4.02162 12.9145 4.01884 11.3701 2.96824 10.4216L2.00684 9.55367C2.24547 8.57551 2.62398 7.65216 3.11997 6.80602L4.43799 6.87334C5.85531 6.94573 6.94539 5.85171 6.87319 4.43815L6.80587 3.12012C7.65201 2.62413 8.57536 2.24562 9.55352 2.00699ZM8.88228 3.62144C8.72903 3.67847 8.57746 3.73971 8.42771 3.80508L8.43893 4.02479C8.56825 6.55674 6.55873 8.56852 4.02464 8.43908L3.80493 8.42786C3.73956 8.57761 3.67832 8.72918 3.62129 8.88243L3.7812 9.0268C5.663 10.7257 5.66459 13.5692 3.7812 15.2696L3.70722 15.3363C3.7788 15.514 3.85609 15.6891 3.93896 15.8616L4.02464 15.8573C6.53211 15.7292 8.52942 17.6988 8.44209 20.1982C8.6537 20.2901 8.86894 20.3738 9.08737 20.4491C10.7469 18.6822 13.4398 18.6541 15.1317 20.3691C15.3761 20.2776 15.6161 20.1754 15.8513 20.0628C15.8396 17.6991 17.6972 15.8397 20.0627 15.8514C20.1753 15.6163 20.2775 15.3763 20.369 15.1319C18.6553 13.4413 18.6806 10.7483 20.4489 9.08752C20.3737 8.86909 20.29 8.65385 20.1981 8.44224C17.7404 8.52809 15.7917 6.59717 15.8526 4.14389L15.8615 3.93911C15.689 3.85624 15.5138 3.77895 15.3362 3.70737L15.2694 3.78135C13.5705 5.66316 10.727 5.66474 9.02665 3.78135L8.88228 3.62144ZM11.9999 8.14287C14.1301 8.14287 15.857 9.86977 15.857 12C15.857 14.1303 14.1301 15.8572 11.9999 15.8572C9.86962 15.8572 8.14272 14.1303 8.14272 12C8.14272 9.86977 9.86962 8.14287 11.9999 8.14287ZM11.9999 9.42858C10.5797 9.42858 9.42843 10.5799 9.42843 12C9.42843 13.4202 10.5797 14.5714 11.9999 14.5714C13.42 14.5714 14.5713 13.4202 14.5713 12C14.5713 10.5799 13.42 9.42858 11.9999 9.42858Z" fill="#445B6A"/>
</svg>
