<svg fill="none" height="16" viewBox="0 0 16 16" width="16" xmlns="http://www.w3.org/2000/svg"><path d="m1.40122 4.10611c-.864592 0-1.40122.57248-1.40122 1.46083v1.81615c0 .80939.407451 1.35226 1.15278 1.45097v5.03394c0 1.3818.77514 2.132 2.16641 2.132h8.49671c1.3913 0 2.1665-.7502 2.1665-2.132v-5.03394c.7453-.09871 1.1527-.64158 1.1527-1.45097v-1.81615c0-.88835-.4968-1.46083-1.4012-1.46083h-1.908c.4969-.42443.795-.99691.795-1.64837 0-1.44108-1.1429-2.45774-2.6037-2.45774-1.14284 0-2.05709.631708-2.44466 1.7668-.39752-1.135092-1.31179-1.7668-2.45462-1.7668-1.46084 0-2.59374 1.01666-2.59374 2.45774 0 .65146.27826 1.22394.77515 1.64837zm4.42227 0c-1.36145 0-2.0571-.79951-2.0571-1.61876 0-.79951.61613-1.29303 1.42109-1.29303 1.01365 0 1.77884.79951 1.77884 2.12216v.78963zm3.48815 0h-1.14285v-.78963c0-1.32265.76521-2.12216 1.77886-2.12216.80495 0 1.42105.49352 1.42105 1.29303 0 .81925-.7354 1.61876-2.05706 1.61876zm-7.64209 1.0364h5.23716v2.67489h-5.23716c-.39753 0-.56647-.18753-.56647-.57248v-1.52993c0-.39481.16894-.57248.56647-.57248zm11.80595 0c.3975 0 .5565.17767.5565.57248v1.52993c0 .38495-.159.57248-.5565.57248h-5.24708v-2.67489zm-10.15631 9.83099c-.68569 0-1.06333-.3751-1.06333-1.0562v-5.07338h4.65085v6.12958zm9.56011-1.0562c0 .6811-.3777 1.0562-1.0534 1.0562h-3.59748v-6.12958h4.65088z" fill="#37404a"/></svg>