<svg width="24" height="24" viewBox="0 0 24 24" fill="none" xmlns="http://www.w3.org/2000/svg">
<path d="M4.13992 6.89729C2.96469 6.89729 2.23145 7.67073 2.23145 8.89619V11.4275C2.23145 12.4821 2.74372 13.2053 3.67787 13.3862V19.6339C3.67787 21.5324 4.71245 22.5268 6.61089 22.5268H17.3888C19.2873 22.5268 20.3219 21.5324 20.3219 19.6339V13.3862C21.2659 13.2053 21.7683 12.4821 21.7683 11.4275V8.89619C21.7683 7.67073 21.0952 6.89729 19.8598 6.89729H17.7303C18.2928 6.34486 18.6243 5.62165 18.6243 4.80805C18.6243 2.85938 17.0875 1.47321 15.1388 1.47321C13.7024 1.47321 12.5272 2.26675 12.0049 3.68301C11.4825 2.26675 10.2973 1.47321 8.86089 1.47321C6.92229 1.47321 5.3754 2.85938 5.3754 4.80805C5.3754 5.62165 5.69683 6.34486 6.25933 6.89729H4.13992ZM9.61423 6.89729C7.9569 6.89729 7.083 5.92298 7.083 4.87833C7.083 3.79353 7.88657 3.15068 8.96135 3.15068C10.1968 3.15068 11.1712 4.10489 11.1712 5.70201V6.89729H9.61423ZM14.3855 6.89729H12.8285V5.70201C12.8285 4.10489 13.8029 3.15068 15.0384 3.15068C16.1131 3.15068 16.9267 3.79353 16.9267 4.87833C16.9267 5.92298 16.0227 6.89729 14.3855 6.89729ZM4.55177 8.41405H11.1109V11.9096H4.55177C4.04953 11.9096 3.84862 11.6987 3.84862 11.1964V9.11716C3.84862 8.61496 4.04953 8.41405 4.55177 8.41405ZM19.458 8.41405C19.9602 8.41405 20.1511 8.61496 20.1511 9.11716V11.1964C20.1511 11.6987 19.9602 11.9096 19.458 11.9096H12.8888V8.41405H19.458ZM6.60086 21.0201C5.75709 21.0201 5.29509 20.548 5.29509 19.7143V13.4263H11.1109V21.0201H6.60086ZM18.7047 19.7143C18.7047 20.548 18.2426 21.0201 17.4089 21.0201H12.8888V13.4263H18.7047V19.7143Z" fill="#445B6A"/>
</svg>
