<svg width="24" height="24" viewBox="0 0 24 24" fill="none" xmlns="http://www.w3.org/2000/svg">
<path d="M6.92033 22H19.239C19.6575 22 20 21.6734 20 21.2534C20 20.9267 19.7717 20.6374 19.4673 20.5348C18.2687 20.0681 18.0214 18.5469 19.201 17.3803C19.5624 17.0257 20 16.5684 20 15.6351V4.93047C20 2.98927 19.0202 2 17.0511 2H6.94887C4.97979 2 4 2.97993 4 4.93047V19.1162C4 21.0387 4.9893 22 6.92033 22ZM16.975 3.50257C17.9643 3.50257 18.4685 4.0252 18.4685 4.95847V15.4298C18.4685 15.9337 18.1736 16.2231 17.6409 16.2231H7.90012V3.50257H16.975ZM5.53151 16.6057V4.95847C5.53151 4.14652 5.91201 3.65189 6.65398 3.53056V16.2417C6.21641 16.2884 5.85493 16.4097 5.53151 16.6057ZM9.60285 7.98227H16.7372C17.0797 7.98227 17.3555 7.70229 17.3555 7.36631C17.3555 7.03033 17.0797 6.75968 16.7372 6.75968H9.60285C9.2604 6.75968 8.98454 7.03033 8.98454 7.36631C8.98454 7.70229 9.2604 7.98227 9.60285 7.98227ZM9.60285 10.5488H15.0155C15.3579 10.5488 15.6338 10.2688 15.6338 9.9328C15.6338 9.59683 15.3579 9.32618 15.0155 9.32618H9.60285C9.2604 9.32618 8.98454 9.59683 8.98454 9.9328C8.98454 10.2688 9.2604 10.5488 9.60285 10.5488ZM7.00595 20.4974C6.04518 20.4974 5.53151 19.9935 5.53151 19.1069C5.53151 18.2669 6.14031 17.7256 7.09156 17.7256H16.8514C16.975 17.7256 17.0892 17.7163 17.1843 17.6976C16.7372 18.6682 16.8133 19.6948 17.3175 20.4974H7.00595Z" fill="#445B6A"/>
</svg>
