<svg width="20" height="20" viewBox="0 0 20 20" fill="none" xmlns="http://www.w3.org/2000/svg">
<path d="M0.78397 13.1766C1.07697 13.1682 1.28622 12.9422 1.29461 12.6409C1.38668 8.9997 3.26168 6.30438 6.10765 5.2497L8.058 10.6068C8.07472 10.6487 8.06636 10.6822 8.0245 10.6989C7.991 10.7157 7.9659 10.6989 7.94079 10.6738L6.95308 9.60238C6.30854 8.90763 5.48822 8.85741 4.85208 9.39313C4.13222 10.0042 4.12383 10.9166 4.82697 11.7787L7.63108 15.1688C9.74883 17.7302 12.2349 18.5254 15.0139 17.5126C18.337 16.3072 19.7516 13.2603 18.4123 9.57727L17.7845 7.86131C17.1317 6.04491 15.8844 5.29992 14.4196 5.81052C14.0262 5.29992 13.4235 5.12416 12.7706 5.35852C12.5446 5.44224 12.327 5.56781 12.1177 5.72684C11.6908 5.17438 11.0295 4.97349 10.3431 5.21624C10.159 5.2832 9.98318 5.38363 9.81579 5.50081L8.86158 2.88924C8.50161 1.89313 7.59761 1.47459 6.66847 1.80941C5.73097 2.15263 5.31243 3.04827 5.6724 4.04434L5.73936 4.22849C2.49993 5.44224 0.248291 8.56445 0.248291 12.6242C0.248291 12.9255 0.499398 13.185 0.78397 13.1766ZM14.654 16.416C12.4609 17.2196 10.4018 16.8094 8.46815 14.4741L5.664 11.1007C5.36268 10.7492 5.36268 10.406 5.63054 10.1716C5.88165 9.94559 6.22483 10.0209 6.50104 10.3055L8.43465 12.3061C8.76111 12.6409 9.04572 12.6744 9.32193 12.5739C9.6484 12.4567 9.79068 12.1052 9.65675 11.7452L6.69358 3.59234C6.56804 3.25752 6.71872 2.93945 7.03675 2.82224C7.36322 2.70506 7.66458 2.86409 7.79015 3.19891L9.90786 9.01645C10.0083 9.29266 10.318 9.41824 10.5943 9.31781C10.8621 9.21734 11.0044 8.92438 10.904 8.65652L10.1423 6.55552C10.2594 6.4467 10.4185 6.33788 10.5775 6.27927C10.9709 6.13699 11.2974 6.31277 11.448 6.72291L12.1177 8.55606C12.2181 8.84066 12.5279 8.94949 12.7957 8.84906C13.0552 8.75695 13.2226 8.48074 13.1138 8.18777L12.5697 6.7062C12.6869 6.58899 12.8459 6.48016 13.005 6.42159C13.3984 6.27927 13.7248 6.45506 13.8755 6.86524L14.3191 8.08731C14.428 8.38027 14.7377 8.48909 15.0055 8.38866C15.265 8.29659 15.424 8.01199 15.3236 7.72738L14.9888 6.82338C15.6919 6.57224 16.3533 7.14145 16.8051 8.39702L17.3325 9.82838C18.4793 12.9925 17.4329 15.4032 14.654 16.416Z" fill="#AF38F9"/>
</svg>
