<svg fill="none" height="18" viewBox="0 0 18 18" width="18" xmlns="http://www.w3.org/2000/svg"><path d="m8.99999 18c4.92621 0 8.99991-4.0738 8.99991-9 0-4.92621-4.0826-9-9.00887-9-4.92622 0-8.99103 4.07379-8.99103 9 0 4.9262 4.06481 9 8.99999 9zm0-1.1575c-4.34297 0-7.83349-3.4995-7.83349-7.8425 0-4.34297 3.48156-7.83349 7.82453-7.83349s7.84247 3.49052 7.84247 7.83349c.009 4.343-3.4995 7.8425-7.83351 7.8425zm-.17048-6.012c.34099 0 .54736-.2243.54736-.5114v-.1795c0-.52943.27817-.86143.94213-1.30111.8974-.6012 1.4178-1.1306 1.4178-2.10868 0-1.34596-1.2024-2.14456-2.66501-2.14456-1.48057 0-2.44965.76271-2.64706 1.6331-.03589.13459-.06281.26918-.06281.40379 0 .31406.25125.49351.49351.49351.38584 0 .46661-.21535.66401-.48454.21536-.63709.73579-1.08574 1.49851-1.08574.93319 0 1.52545.51146 1.52545 1.24725 0 .61017-.3589.94219-1.1755 1.51646-.68195.47556-1.09471.95114-1.09471 1.76772v.1974c0 .3589.1974.5563.55632.5563zm-.01793 2.5573c.44865 0 .8255-.3589.8255-.8075 0-.4487-.36788-.8076-.8255-.8076-.45764 0-.83452.3589-.83452.8076 0 .4396.37688.8075.83452.8075z" fill="#af38f9"/></svg>