<svg width="24" height="24" viewBox="0 0 24 24" fill="none" xmlns="http://www.w3.org/2000/svg">
<path d="M7.07791 21.2461H16.8313C17.8558 21.2461 18.4685 20.6836 18.4685 19.5988V19.3376C18.4786 16.5653 15.5255 14.3153 14.2297 13.0898C13.8681 12.7483 13.6772 12.437 13.6772 11.9849C13.6772 11.5329 13.8681 11.2316 14.2297 10.88C15.5154 9.63449 18.4685 7.52511 18.4685 4.64228V4.40125C18.4685 3.31641 17.8558 2.75391 16.8313 2.75391H7.07791C6.07342 2.75391 5.521 3.31641 5.521 4.31082V4.64228C5.521 7.52511 8.47411 9.63449 9.7699 10.88C10.1315 11.2316 10.3223 11.5329 10.3223 11.9849C10.3223 12.437 10.1315 12.7483 9.7699 13.0898C8.47411 14.3153 5.521 16.5653 5.521 19.3376V19.6892C5.521 20.6836 6.07342 21.2461 7.07791 21.2461ZM8.12255 19.87C7.64041 19.87 7.48977 19.3376 7.96184 18.9861L11.3971 16.4246C11.5076 16.3343 11.5679 16.274 11.5679 16.1233V11.2919C11.5679 10.7494 11.4574 10.4782 11.0757 10.1568C10.5031 9.67465 9.41834 8.91128 8.92612 8.21819C8.72521 7.93696 8.74531 7.70592 8.99645 7.70592H14.9931C15.2442 7.70592 15.2643 7.93696 15.0634 8.21819C14.5712 8.91128 13.4965 9.67465 12.9139 10.1568C12.5322 10.4782 12.4217 10.7494 12.4217 11.2919V16.1233C12.4217 16.274 12.4819 16.3343 12.5924 16.4246L16.0377 18.9861C16.5098 19.3376 16.3491 19.87 15.877 19.87H8.12255Z" fill="#445B6A"/>
</svg>
