<svg width="24" height="24" viewBox="0 0 24 24" fill="none" xmlns="http://www.w3.org/2000/svg">
<path d="M10.4281 5.67692C10.4281 6.48049 11.0709 7.12334 11.8745 7.12334C12.6882 7.12334 13.3209 6.48049 13.3109 5.67692C13.3109 4.86332 12.6882 4.22046 11.8745 4.22046C11.0709 4.22046 10.4281 4.86332 10.4281 5.67692ZM7.93701 18.9559C7.93701 19.4481 8.28861 19.7796 8.82094 19.7796H15.1792C15.7116 19.7796 16.0632 19.4481 16.0632 18.9559C16.0632 18.4738 15.7116 18.1423 15.1792 18.1423H13.1602V10.4782C13.1602 9.93584 12.8087 9.57426 12.2864 9.57426H9.10221C8.57987 9.57426 8.22831 9.89569 8.22831 10.3778C8.22831 10.88 8.57987 11.2115 9.10221 11.2115H11.302V18.1423H8.82094C8.28861 18.1423 7.93701 18.4738 7.93701 18.9559Z" fill="#445B6A"/>
</svg>
