<svg fill="none" height="17" viewBox="0 0 17 17" width="17" xmlns="http://www.w3.org/2000/svg"><path d="m8.36719 16.3281c4.35941 0 7.96871-3.6093 7.96871-7.96872 0-4.35157-3.6171-7.968755-7.97652-7.968755-4.35157 0-7.960942 3.617185-7.960942 7.968755 0 4.35942 3.617182 7.96872 7.968752 7.96872zm0-1.3281c-3.6875 0-6.63281-2.9531-6.63281-6.64062 0-3.67969 2.9375-6.64063 6.625-6.64063 3.68752 0 6.64062 2.96094 6.64842 6.64063.0078 3.68752-2.9531 6.64062-6.64061 6.64062zm-.07031-9.42188c.57031 0 1.01562-.45312 1.01562-1.01562 0-.57031-.44531-1.02344-1.01562-1.02344-.5625 0-1.01563.45313-1.01563 1.02344 0 .5625.45313 1.01562 1.01563 1.01562zm-1.29688 7.07808h3.1797c.3203 0 .5703-.2265.5703-.5468 0-.3047-.25-.5469-.5703-.5469h-.96876v-3.97656c0-.42188-.21094-.70313-.60938-.70313h-1.46875c-.32031 0-.57031.24219-.57031.54688 0 .32031.25.54687.57031.54687h.83594v3.58594h-.96875c-.32031 0-.57031.2422-.57031.5469 0 .3203.25.5468.57031.5468z" fill="#37404a"/></svg>