<svg fill="none" height="16" viewBox="0 0 16 16" width="16" xmlns="http://www.w3.org/2000/svg"><path d="m8 16c4.3765 0 8-3.6235 8-8 0-4.36863-3.6314-8-8.00784-8-4.36863 0-7.99216 3.63137-7.99216 8 0 4.3765 3.63137 8 8 8zm0-1.3333c-3.70196 0-6.65882-2.9647-6.65882-6.6667 0-3.69412 2.94902-6.66667 6.65098-6.66667 3.70194 0 6.66664 2.97255 6.67454 6.66667.0078 3.702-2.9647 6.6667-6.6667 6.6667zm-.07059-9.45886c.57255 0 1.01961-.4549 1.01961-1.0196 0-.57255-.44706-1.02746-1.01961-1.02746-.5647 0-1.01961.45491-1.01961 1.02746 0 .5647.45491 1.0196 1.01961 1.0196zm-1.30196 7.10586h3.19216c.32159 0 .57259-.2274.57259-.549 0-.3059-.251-.549-.57259-.549h-.97255v-3.99217c0-.42353-.21177-.70588-.61177-.70588h-1.47451c-.32156 0-.57254.24313-.57254.54902 0 .32157.25098.54902.57254.54902h.83922v3.60001h-.97255c-.32157 0-.57255.2431-.57255.549 0 .3216.25098.549.57255.549z" fill="#bf2604"/></svg>