<svg width="24" height="24" viewBox="0 0 24 24" fill="none" xmlns="http://www.w3.org/2000/svg">
<path d="M11.9999 22.2456C17.5948 22.2456 22.2455 17.6049 22.2455 12C22.2455 6.40514 17.5848 1.75446 11.9899 1.75446C6.38494 1.75446 1.75439 6.40514 1.75439 12C1.75439 17.6049 6.39501 22.2456 11.9999 22.2456ZM11.9999 20.538C7.25884 20.538 3.47198 16.7411 3.47198 12C3.47198 7.26897 7.24881 3.46206 11.9899 3.46206C16.7209 3.46206 20.5278 7.26897 20.5379 12C20.548 16.7411 16.731 20.538 11.9999 20.538ZM11.9095 8.42414C12.6428 8.42414 13.2153 7.8415 13.2153 7.11833C13.2153 6.38504 12.6428 5.80244 11.9095 5.80244C11.1762 5.80244 10.6037 6.38504 10.6037 7.11833C10.6037 7.8415 11.1762 8.42414 11.9095 8.42414ZM10.2321 17.5246H14.3303C14.7421 17.5246 15.0635 17.2333 15.0635 16.8214C15.0635 16.4297 14.7421 16.1183 14.3303 16.1183H13.0848V11.0056C13.0848 10.4632 12.8035 10.1016 12.3012 10.1016H10.4028C10.001 10.1016 9.67958 10.4129 9.67958 10.8047C9.67958 11.2165 10.001 11.5078 10.4028 11.5078H11.4876V16.1183H10.2321C9.83027 16.1183 9.50884 16.4297 9.50884 16.8214C9.50884 17.2333 9.83027 17.5246 10.2321 17.5246Z" fill="#445B6A"/>
</svg>
