<svg fill="none" height="12" viewBox="0 0 12 12" width="12" xmlns="http://www.w3.org/2000/svg"><path d="m2.34844 12h4.15701c2.44154 0 3.98145-1.351 3.98145-3.42378 0-1.63636-1.12501-2.81958-2.74472-2.91188v-.06714c1.32449-.193 2.22611-1.24196 2.22611-2.57622 0-1.87133-1.36439-3.02098-3.57455-3.02098h-4.0453c-.85375 0-1.34844.528671-1.34844 1.45175v9.10485c0 .9147.49469 1.4434 1.34844 1.4434zm1.2846-7.01538v-3.01259h1.96281c1.11705 0 1.7793.53706 1.7793 1.46014 0 .97342-.73406 1.55245-1.97877 1.55245zm0 5.07688v-3.33143h2.0027c1.39631 0 2.17825.57063 2.17825 1.64476 0 1.0993-.75002 1.68667-2.12239 1.68667z" fill="#000"/></svg>