<svg fill="none" height="12" viewBox="0 0 12 12" width="12" xmlns="http://www.w3.org/2000/svg"><g fill="#000"><path d="m1.99997 2.00784c0 .55225-.44769.99994-.99994.99994-.552337 0-1.00003-.44769-1.00003-.99994 0-.55233.447693-1.00003 1.00003-1.00003.55225 0 .99994.4477.99994 1.00003z"/><path d="m1.99997 6.00775c0 .55234-.44769 1.00003-.99994 1.00003-.552337 0-1.00003-.44769-1.00003-1.00003 0-.55224.447693-.99994 1.00003-.99994.55225 0 .99994.4477.99994.99994z"/><path d="m1.99997 10.0078c0 .5523-.44769 1.0001-.99994 1.0001-.552337 0-1.00003-.4478-1.00003-1.0001 0-.5522.447693-.99999 1.00003-.99999.55225 0 .99994.44779.99994.99999z"/><path d="m4.00003 2.50784h7.49997c.2765 0 .5-.22348.5-.49997s-.2235-.50006-.5-.50006h-7.49997c-.27649 0-.50006.22357-.50006.50006s.22357.49997.50006.49997z"/><path d="m11.5 5.50781h-7.49997c-.27649 0-.50006.22348-.50006.49997s.22357.50006.50006.50006h7.49997c.2765 0 .5-.22357.5-.50006s-.2235-.49997-.5-.49997z"/><path d="m11.5 9.50781h-7.49997c-.27649 0-.50006.22348-.50006.49999 0 .2765.22357.5.50006.5h7.49997c.2765 0 .5-.2235.5-.5 0-.27651-.2235-.49999-.5-.49999z"/></g></svg>