<svg fill="none" height="12" viewBox="0 0 12 12" width="12" xmlns="http://www.w3.org/2000/svg"><g fill="#000"><path d="m6 11.7143v-7.7143h-.9375v3.33591h-4.125v-3.33591h-.9375v7.7143h.9375v-3.51234h4.125v3.51234z"/><path d="m7.71429 7.50176v.00406h.79079v-.00406c0-.69059.51811-1.14963 1.28617-1.14963.72265 0 1.28165.45092 1.28165 1.03589 0 .47122-.2045.78808-1.0499 1.60866l-2.2678 2.21392v.5038h4.2448v-.6581h-3.07225v-.065l1.57705-1.51527c1.0771-1.03182 1.3861-1.5071 1.3861-2.11645 0-.93026-.8998-1.64522-2.07692-1.64522-1.218 0-2.09969.74746-2.09969 1.7874z"/></g></svg>