<svg fill="none" height="12" viewBox="0 0 12 12" width="12" xmlns="http://www.w3.org/2000/svg"><rect height="11" rx="2.5" stroke="#000" width="11" x=".5" y=".5"/><path d="m6.09814 9.03809c-.13842.21093-.3164.3164-.53393.3164-.22412 0-.38892-.09887-.5669-.30981l-1.8457-2.28076c-.09228-.12525-.15161-.27027-.15161-.41529 0-.29663.23071-.52734.51416-.52734.18457 0 .33618.07251.48779.26367l1.5293 1.98413 2.97949-4.76587c.11865-.19775.28345-.30322.45484-.30322.27685 0 .54712.19116.54712.49438 0 .14502-.07911.29664-.1648.42188z" fill="#000"/></svg>