<svg fill="none" height="12" viewBox="0 0 12 12" width="12" xmlns="http://www.w3.org/2000/svg"><path d="m5.7181 9.93729c2.29985 0 3.72449-1.45129 3.72449-3.56103v-5.758119c0-.37626-.23638-.618141-.60052-.618141-.35776 0-.58135.241881-.58135.618141v5.657339c0 1.49832-.93911 2.51287-2.54262 2.51287-1.59712 0-2.53623-1.01455-2.53623-2.51287v-5.657339c0-.37626-.23637-.618141-.60052-.618141-.35775 0-.58135.241881-.58135.618141v5.758119c0 2.10974 1.41824 3.56103 3.7181 3.56103zm-3.34118 2.06271h6.68236c.21082 0 .38331-.168.38331-.3964 0-.2285-.17249-.4032-.38331-.4032h-6.68236c-.20443 0-.37692.1747-.37692.4032 0 .2284.17249.3964.37692.3964z" fill="#000"/></svg>