<svg fill="none" height="12" viewBox="0 0 12 12" width="12" xmlns="http://www.w3.org/2000/svg" xmlns:xlink="http://www.w3.org/1999/xlink"><clipPath id="a"><path d="m0 0h12v12h-12z"/></clipPath><g clip-path="url(#a)" fill="#000"><path d="m3.65214 2.16021h7.82606c.2885 0 .5218-.23329.5218-.5218s-.2333-.52171-.5218-.52171h-7.82606c-.28851 0-.52171.2332-.52171.52171s.2332.5218.52171.5218z"/><path d="m11.4782 5.29102h-7.82606c-.28851 0-.52171.23319-.52171.5217s.2332.52171.52171.52171h7.82606c.2885 0 .5218-.2332.5218-.52171s-.2333-.5217-.5218-.5217z"/><path d="m11.4782 9.46484h-7.82606c-.28851 0-.52171.2333-.52171.5218 0 .28856.2332.52166.52171.52166h7.82606c.2885 0 .5218-.2331.5218-.52166 0-.2885-.2333-.5218-.5218-.5218z"/><path d="m1.61905.285645v3.047615h-.68009v-2.353335l-.636211.401235-.302749-.473368 1.00039-.622147z"/><path d="m1.01481 4.47607c.21288 0 .39514.03828.54678.11484.15455.07656.2712.17962.34993.30918.08165.12956.12248.27237.12248.42843 0 .15901-.03208.31065-.09623.45494-.06416.14428-.17789.31065-.34119.4991-.1633.18551-.40097.42107-.712993.7067h1.211653l-.06999.53443h-1.924644v-.49468c.358684-.35629.619678-.62425.782981-.80387.163303-.18256.277033-.33421.341183-.45493.06707-.12073.10061-.2444.10061-.37102 0-.12072-.03499-.21495-.10498-.28267-.06707-.07067-.15893-.10601-.275574-.10601-.104981 0-.198297.02503-.279949.07509-.081651.04711-.167677.12514-.258077.23409l-.4068-.32685c.122477-.16195.268284-.28856.437419-.37984.172052-.09129.364516-.13693.577391-.13693z"/><path d="m1.09918 8.57129c.2141 0 .39655.03305.54733.09914.15379.0661.26989.15519.34829.26726.08143.11208.12214.23709.12214.37503 0 .1753-.05278.32186-.15832.43968-.10253.11783-.24879.2026-.43877.2543.20506.0201.37243.0906.5021.2113.12967.1178.1945.2859.1945.5043 0 .1638-.04523.3147-.1357.4526-.09047.1351-.22466.2428-.40258.3233-.1749.0805-.38449.1207-.62875.1207-.446304 0-.796111-.1466-1.04942-.4397l.384486-.3578c.10253.0977.202044.1696.298542.2156.099514.0431.208075.0646.325682.0646.14173 0 .25633-.0373.34378-.112.08745-.0748.13117-.1782.13117-.3104 0-.1494-.04221-.2558-.12665-.319-.08142-.0661-.20506-.0991-.370916-.0991h-.253309l.076898-.4699h.176411c.135706 0 .242756-.03305.321156-.09915.07841-.06609.11761-.15949.11761-.28019 0-.10633-.03619-.18823-.10856-.2457-.07237-.06035-.17189-.09053-.29854-.09053-.214108 0-.413137.08478-.597087.25433l-.3528225-.3664c.2894955-.26151.6332715-.39227 1.0313295-.39227z"/></g></svg>