<svg fill="none" height="13" viewBox="0 0 18 13" width="18" xmlns="http://www.w3.org/2000/svg"><g fill="#565656"><path d="m3.46184 4.15366c.18361 0 .3597-.07294.48953-.20277.12984-.12984.20278-.30593.20278-.48954s-.07294-.3597-.20278-.48953c-.12983-.12984-.30592-.20278-.48953-.20278s-.3597.07294-.48954.20278c-.12983.12983-.20277.30592-.20277.48953s.07294.3597.20277.48954c.12984.12983.30593.20277.48954.20277z"/><path d="m6.92278 8.30762c-.18361 0-.35971.07294-.48954.20277s-.20277.30592-.20277.48953c0 .18362.07294.35971.20277.48954s.30593.20277.48954.20277h4.15382c.1836 0 .3597-.07294.4896-.20277.1298-.12983.2027-.30592.2027-.48954 0-.18361-.0729-.3597-.2027-.48953-.1299-.12983-.306-.20277-.4896-.20277z"/><path d="m4.15415 6.23088c0 .18361-.07294.3597-.20278.48954-.12983.12983-.30592.20277-.48953.20277s-.3597-.07294-.48954-.20277c-.12983-.12984-.20277-.30593-.20277-.48954s.07294-.3597.20277-.48953c.12984-.12984.30593-.20278.48954-.20278s.3597.07294.48953.20278c.12984.12983.20278.30592.20278.48953z"/><path d="m6.23137 4.15366c.18361 0 .3597-.07294.48954-.20277.12983-.12984.20277-.30593.20277-.48954s-.07294-.3597-.20277-.48953c-.12984-.12984-.30593-.20278-.48954-.20278s-.3597.07294-.48954.20278c-.12983.12983-.20277.30592-.20277.48953s.07294.3597.20277.48954c.12984.12983.30593.20277.48954.20277z"/><path d="m6.92368 6.23088c0 .18361-.07294.3597-.20277.48954-.12984.12983-.30593.20277-.48954.20277s-.3597-.07294-.48954-.20277c-.12983-.12984-.20277-.30593-.20277-.48954s.07294-.3597.20277-.48953c.12984-.12984.30593-.20278.48954-.20278s.3597.07294.48954.20278c.12983.12983.20277.30592.20277.48953z"/><path d="m9.0009 4.15366c.18361 0 .3597-.07294.48954-.20277.12983-.12984.20277-.30593.20277-.48954s-.07294-.3597-.20277-.48953c-.12984-.12984-.30593-.20278-.48954-.20278s-.3597.07294-.48953.20278c-.12984.12983-.20278.30592-.20278.48953s.07294.3597.20278.48954c.12983.12983.30592.20277.48953.20277z"/><path d="m11.7685 4.15366c.1836 0 .3597-.07294.4895-.20277.1298-.12984.2028-.30593.2028-.48954s-.073-.3597-.2028-.48953c-.1298-.12984-.3059-.20278-.4895-.20278s-.3597.07294-.4896.20278c-.1298.12983-.2027.30592-.2027.48953s.0729.3597.2027.48954c.1299.12983.306.20277.4896.20277z"/><path d="m14.538 4.15366c.1836 0 .3597-.07294.4895-.20277.1299-.12984.2028-.30593.2028-.48954s-.0729-.3597-.2028-.48953c-.1298-.12984-.3059-.20278-.4895-.20278s-.3597.07294-.4895.20278c-.1299.12983-.2028.30592-.2028.48953s.0729.3597.2028.48954c.1298.12983.3059.20277.4895.20277z"/><path d="m9.69321 6.23088c0 .18361-.07294.3597-.20277.48954-.12984.12983-.30593.20277-.48954.20277s-.3597-.07294-.48953-.20277c-.12984-.12984-.20278-.30593-.20278-.48954s.07294-.3597.20278-.48953c.12983-.12984.30592-.20278.48953-.20278s.3597.07294.48954.20278c.12983.12983.20277.30592.20277.48953z"/><path d="m12.4608 6.23088c0 .18361-.073.3597-.2028.48954-.1298.12983-.3059.20277-.4895.20277s-.3597-.07294-.4896-.20277c-.1298-.12984-.2027-.30593-.2027-.48954s.0729-.3597.2027-.48953c.1299-.12984.306-.20278.4896-.20278s.3597.07294.4895.20278c.1298.12983.2028.30592.2028.48953z"/><path d="m15.2303 6.23088c0 .18361-.0729.3597-.2028.48954-.1298.12983-.3059.20277-.4895.20277s-.3597-.07294-.4895-.20277c-.1299-.12984-.2028-.30593-.2028-.48954s.0729-.3597.2028-.48953c.1298-.12984.3059-.20278.4895-.20278s.3597.07294.4895.20278c.1299.12983.2028.30592.2028.48953z"/></g><rect height="11.461" rx="2.5" stroke="#565656" width="17" x=".5" y=".5"/></svg>