<svg width="24" height="24" viewBox="0 0 24 24" fill="none" xmlns="http://www.w3.org/2000/svg">
<path d="M11.9999 22.2456C17.5948 22.2456 22.2455 17.6049 22.2455 12C22.2455 6.40514 17.5848 1.75446 11.9899 1.75446C6.38494 1.75446 1.75439 6.40514 1.75439 12C1.75439 17.6049 6.39501 22.2456 11.9999 22.2456ZM11.9999 20.538C7.25884 20.538 3.47198 16.7411 3.47198 12C3.47198 7.26897 7.24881 3.46206 11.9899 3.46206C16.7209 3.46206 20.5278 7.26897 20.5379 12C20.548 16.7411 16.731 20.538 11.9999 20.538ZM11.9899 18.519C15.5457 18.519 18.4988 15.5659 18.4988 12.01C18.4988 8.4442 15.5356 5.49108 11.9899 5.49108C8.42404 5.49108 5.48095 8.4442 5.48095 12.01C5.48095 15.5659 8.43407 18.519 11.9899 18.519Z" fill="#445B6A"/>
</svg>
