<svg width="26" height="26" viewBox="0 0 26 26" fill="none" xmlns="http://www.w3.org/2000/svg">
<path d="M12.9999 24.0996C19.0611 24.0996 24.0993 19.0722 24.0993 13.0002C24.0993 6.93912 19.0502 1.90088 12.9891 1.90088C6.91705 1.90088 1.90063 6.93912 1.90063 13.0002C1.90063 19.0722 6.92797 24.0996 12.9999 24.0996ZM12.9999 22.2497C7.86378 22.2497 3.76135 18.1364 3.76135 13.0002C3.76135 7.87494 7.85292 3.75078 12.9891 3.75078C18.1143 3.75078 22.2385 7.87494 22.2494 13.0002C22.2604 18.1364 18.1252 22.2497 12.9999 22.2497Z" fill="#AF38F9"/>
<path d="M16.25 13.0027C16.25 14.7768 14.7754 16.2502 13 16.2502C11.2245 16.2502 9.74999 14.7768 9.74999 13.0027C9.74999 11.2236 11.2195 9.75023 13 9.75023C14.7704 9.75023 16.25 11.2236 16.25 13.0027Z" fill="#AF38F9"/>
</svg>
