<svg width="24" height="24" viewBox="0 0 24 24" fill="none" xmlns="http://www.w3.org/2000/svg">
<path d="M11.9999 23.0996C18.0611 23.0996 23.0993 18.0722 23.0993 12.0002C23.0993 5.93912 18.0502 0.900879 11.9891 0.900879C5.91706 0.900879 0.900635 5.93912 0.900635 12.0002C0.900635 18.0722 5.92797 23.0996 11.9999 23.0996ZM11.9999 21.2497C6.86378 21.2497 2.76135 17.1364 2.76135 12.0002C2.76135 6.87494 6.85292 2.75078 11.9891 2.75078C17.1143 2.75078 21.2385 6.87494 21.2494 12.0002C21.2604 17.1364 17.1252 21.2497 11.9999 21.2497ZM11.9891 19.0624C15.8412 19.0624 19.0404 15.8632 19.0404 12.0111C19.0404 8.1481 15.8303 4.94889 11.9891 4.94889C8.12608 4.94889 4.93774 8.1481 4.93774 12.0111C4.93774 15.8632 8.13694 19.0624 11.9891 19.0624Z" fill="#AF38F9"/>
</svg>
