<svg fill="none" height="16" viewBox="0 0 16 16" width="16" xmlns="http://www.w3.org/2000/svg"><path d="m5.85135 12.4189h5.00005c.2702 0 .4527-.1824.4527-.4527v-1.0338c0-1.6351 2.3986-2.66213 2.3986-5.64862 0-3.16216-2.1554-5.28378-5.35135-5.28378-3.2027 0-5.35135 2.12162-5.35135 5.28378 0 2.98649 2.39865 4.01352 2.39865 5.64862v1.0338c0 .2703.18243.4527.4527.4527zm.72297-1.5067c0-2.05409-2.37837-3.08112-2.37837-5.62842 0-2.45946 1.66216-4.08783 4.1554-4.08783 2.49325 0 4.15545 1.62837 4.15545 4.08783 0 2.5473-2.3852 3.57433-2.3852 5.62842v.331h-3.54728zm-.52702 3.3851h4.6081c.3649 0 .6622-.2973.6622-.6689 0-.3649-.2973-.6689-.6622-.6689h-4.6081c-.36487 0-.66216.304-.66216.6689 0 .3716.29729.6689.66216.6689zm2.30405 1.7027c.98649 0 1.69595-.4595 1.76355-1.1554h-3.53382c.06757.6959.77027 1.1554 1.77027 1.1554z" fill="#37404a"/></svg>