<svg width="24" height="24" viewBox="0 0 24 24" fill="none" xmlns="http://www.w3.org/2000/svg">
<path d="M2.59838 8.37383H21.392C21.8137 8.37383 22.1653 8.04237 22.1653 7.62049C22.1653 7.1986 21.8137 6.85712 21.392 6.85712H2.59838C2.17649 6.85712 1.83496 7.1986 1.83496 7.62049C1.83496 8.04237 2.17649 8.37383 2.59838 8.37383ZM2.59838 12.7533H21.392C21.8137 12.7533 22.1653 12.4218 22.1653 12C22.1653 11.568 21.8137 11.2265 21.392 11.2265H2.59838C2.17649 11.2265 1.83496 11.568 1.83496 12C1.83496 12.4218 2.17649 12.7533 2.59838 12.7533ZM2.59838 17.1428H21.392C21.8137 17.1428 22.1653 16.8013 22.1653 16.3694C22.1653 15.9475 21.8137 15.616 21.392 15.616H2.59838C2.17649 15.616 1.83496 15.9475 1.83496 16.3694C1.83496 16.8013 2.17649 17.1428 2.59838 17.1428Z" fill="#445B6A"/>
</svg>
