<svg width="22" height="22" viewBox="0 0 22 22" fill="none" xmlns="http://www.w3.org/2000/svg">
<path d="M2.42768 6.9995H19.5722C19.9865 6.9995 20.318 6.67724 20.318 6.26289C20.318 5.84854 19.9865 5.51709 19.5722 5.51709H2.42768C2.01338 5.51709 1.68188 5.84854 1.68188 6.26289C1.68188 6.67724 2.01338 6.9995 2.42768 6.9995ZM4.36129 11.7414H17.6847C18.099 11.7414 18.4213 11.4191 18.4213 11.0048C18.4213 10.5904 18.099 10.259 17.6847 10.259H4.36129C3.94694 10.259 3.62468 10.5904 3.62468 11.0048C3.62468 11.4191 3.94694 11.7414 4.36129 11.7414ZM6.24885 16.4833H15.7971C16.2115 16.4833 16.5337 16.161 16.5337 15.7467C16.5337 15.3323 16.2115 15.0009 15.7971 15.0009H6.24885C5.8345 15.0009 5.51224 15.3323 5.51224 15.7467C5.51224 16.161 5.8345 16.4833 6.24885 16.4833Z" fill="#A0AEB8"/>
</svg>
