<svg width="24" height="24" viewBox="0 0 24 24" fill="none" xmlns="http://www.w3.org/2000/svg">
<path d="M11.8747 16.1384L13.2106 14.7823C11.8847 14.6819 11.0209 14.2801 10.368 13.6272C8.61014 11.8694 8.62021 9.37832 10.3579 7.64059L13.6325 4.36605C15.3903 2.61829 17.8613 2.60822 19.609 4.36605C21.3769 6.12384 21.3568 8.60488 19.6191 10.3426L17.6503 12.3113C17.9316 12.9542 17.9919 13.6975 17.8914 14.3504L20.8345 11.4074C23.2453 8.99664 23.2652 5.59146 20.8244 3.15067C18.3836 0.709823 14.9785 0.72988 12.5677 3.14059L9.14251 6.57585C6.73179 8.98656 6.71174 12.4018 9.15258 14.8326C9.78537 15.4654 10.5889 15.9174 11.8747 16.1384ZM12.1258 7.86156L10.7899 9.21761C12.1157 9.32809 12.9796 9.71985 13.6325 10.3727C15.3903 12.1306 15.3802 14.6216 13.6425 16.3594L10.3579 19.6339C8.61014 21.3817 6.12914 21.3917 4.38138 19.6439C2.62355 17.8761 2.63362 15.4051 4.38138 13.6574L6.35011 11.6886C6.06888 11.0557 5.99855 10.3024 6.09901 9.64952L3.15592 12.5926C0.755235 15.0033 0.735135 18.4185 3.16595 20.8493C5.60679 23.2901 9.02199 23.27 11.4227 20.8694L14.8579 17.4241C17.2687 15.0133 17.2887 11.5982 14.8479 9.16738C14.2151 8.53459 13.4115 8.08258 12.1258 7.86156Z" fill="#445B6A"/>
</svg>
