<svg fill="none" height="17" viewBox="0 0 17 17" width="17" xmlns="http://www.w3.org/2000/svg"><g stroke="#3abd40" stroke-linecap="round" stroke-linejoin="round" stroke-width="2"><path d="m7.08325 9.20847c.3042.40668.6923.74317 1.13798.98663.44567.2435.93851.3883 1.44507.4246.5066.0363 1.015-.0368 1.4908-.2143.4759-.1775.9079-.45525 1.267-.81443l2.125-2.125c.6451-.66796 1.0021-1.5626.994-2.49121-.008-.92861-.3805-1.81691-1.0372-2.47356-.6566-.65666-1.5449-1.02913-2.4735-1.0372s-1.8233.34891-2.49123.99406l-1.21833 1.21125"/><path d="m9.91656 7.79138c-.30419-.40668-.69229-.74317-1.13797-.98667-.44568-.24349-.93851-.38829-1.44507-.42457s-1.015.03681-1.49083.21431-.90792.45525-1.26696.81443l-2.125 2.125c-.64514.66792-1.00212 1.56262-.99405 2.49122s.38054 1.8169 1.03719 2.4736c.65666.6566 1.54495 1.0291 2.47356 1.0372.92862.008 1.82325-.349 2.49122-.9941l1.21125-1.2113"/></g></svg>