<svg width="24" height="24" viewBox="0 0 24 24" fill="none" xmlns="http://www.w3.org/2000/svg">
<path d="M11.9951 22.1451C12.1558 22.1451 12.4169 22.0849 12.6781 21.9442C18.3834 18.74 20.3522 17.3839 20.3522 13.7176V6.03349C20.3522 4.97882 19.8901 4.64736 19.0464 4.28573C17.8611 3.79356 14.024 2.41742 12.8388 2.0056C12.5676 1.91518 12.2864 1.85492 11.9951 1.85492C11.7138 1.85492 11.4326 1.93528 11.1614 2.0056C9.97611 2.36719 6.13902 3.80359 4.95376 4.28573C4.11004 4.63729 3.64795 4.97882 3.64795 6.03349V13.7176C3.64795 17.3839 5.62675 18.7299 11.3221 21.9442C11.5832 22.0849 11.8343 22.1451 11.9951 22.1451ZM11.9951 20.317C11.8444 20.317 11.6736 20.2567 11.3723 20.0759C6.73165 17.2634 5.24506 16.4398 5.24506 13.346V6.33486C5.24506 5.99333 5.31535 5.86275 5.58659 5.75226C7.11338 5.14956 10.0564 4.10492 11.6033 3.55249C11.754 3.49219 11.8846 3.46206 11.9951 3.46206C12.1156 3.46206 12.2361 3.49219 12.3968 3.55249C13.9437 4.10492 16.8567 5.21989 18.4136 5.75226C18.6848 5.85268 18.7551 5.99333 18.7551 6.33486V13.346C18.7551 16.4398 17.2584 17.2534 12.6278 20.0759C12.3265 20.2567 12.1558 20.317 11.9951 20.317ZM9.49392 16.4197H14.4962C15.1993 16.4197 15.5308 16.0681 15.5308 15.3148V11.4174C15.5308 10.7545 15.2696 10.4029 14.7372 10.3326V9.13729C14.7372 7.28908 13.6323 6.04356 11.9951 6.04356C10.3678 6.04356 9.25289 7.28908 9.25289 9.13729V10.3426C8.73055 10.413 8.46938 10.7645 8.46938 11.4174V15.3148C8.46938 16.0681 8.80088 16.4197 9.49392 16.4197ZM10.2975 9.0268C10.2975 7.84155 10.9805 7.05803 11.9951 7.05803C13.0196 7.05803 13.6926 7.84155 13.6926 9.0268V10.3125L10.2975 10.3226V9.0268Z" fill="#475569"/>
</svg>
