<svg width="24" height="24" viewBox="0 0 24 24" fill="none" xmlns="http://www.w3.org/2000/svg">
<path d="M17.3288 1.36273C14.4962 1.36273 11.7641 3.3114 11.7641 7.45985V10.4933H3.33661C1.82992 10.4933 1.09668 11.2366 1.09668 12.8538V20.2768C1.09668 21.904 1.82992 22.6373 3.33661 22.6373H13.0799C14.5866 22.6373 15.3199 21.904 15.3199 20.2768V12.8538C15.3199 11.3471 14.6871 10.6038 13.3813 10.5134V7.2489C13.3813 4.3962 15.2295 2.89955 17.3288 2.89955C19.4381 2.89955 21.2865 4.3962 21.2865 7.2489V9.55916C21.2865 10.2723 21.638 10.5737 22.1001 10.5737C22.542 10.5737 22.9036 10.3025 22.9036 9.58929V7.45985C22.9036 3.3114 20.1614 1.36273 17.3288 1.36273ZM13.0096 12.01C13.4817 12.01 13.7027 12.2109 13.7027 12.7634V20.3571C13.7027 20.9196 13.4817 21.1306 13.0096 21.1306H3.40694C2.94489 21.1306 2.71385 20.9196 2.71385 20.3571V12.7634C2.71385 12.2109 2.94489 12.01 3.40694 12.01H13.0096Z" fill="#475569"/>
</svg>
