<svg width="10" height="15" viewBox="0 0 10 15" fill="none" xmlns="http://www.w3.org/2000/svg">
<path d="M4.99985 0.669434C3.13153 0.669434 1.42396 2.00203 1.42396 4.74086V6.26098C0.647161 6.36812 0.258789 6.87035 0.258789 7.82123V12.7431C0.258789 13.8346 0.761018 14.3302 1.76548 14.3302H8.23422C9.23868 14.3302 9.7409 13.8346 9.7409 12.7431V7.82123C9.7409 6.87035 9.35253 6.36812 8.57573 6.26098V4.74086C8.57573 2.00203 6.86813 0.669434 4.99985 0.669434ZM2.50207 4.59355C2.50207 2.72526 3.61367 1.70072 4.99985 1.70072C6.3793 1.70072 7.49762 2.72526 7.49762 4.59355V6.23418H2.50207V4.59355ZM8.20073 7.24535C8.51547 7.24535 8.66279 7.37926 8.66279 7.74758V12.8101C8.66279 13.1851 8.51547 13.3257 8.20073 13.3257H1.79893C1.4909 13.3257 1.3369 13.1851 1.3369 12.8101V7.74758C1.3369 7.37926 1.4909 7.24535 1.79893 7.24535H8.20073Z" fill="#A0AEB8"/>
</svg>
