<svg width="24" height="24" viewBox="0 0 24 24" fill="none" xmlns="http://www.w3.org/2000/svg">
<path d="M11.9998 1.75446C9.1973 1.75446 6.63594 3.75336 6.63594 7.8616V10.1418C5.47074 10.3025 4.88818 11.0558 4.88818 12.4822V19.865C4.88818 21.5023 5.64153 22.2456 7.14821 22.2456H16.8513C18.358 22.2456 19.1114 21.5023 19.1114 19.865V12.4822C19.1114 11.0558 18.5288 10.3025 17.3636 10.1418V7.8616C17.3636 3.75336 14.8022 1.75446 11.9998 1.75446ZM8.25311 7.64063C8.25311 4.8382 9.92051 3.30138 11.9998 3.30138C14.069 3.30138 15.7464 4.8382 15.7464 7.64063V10.1016H8.25311V7.64063ZM16.8011 11.6183C17.2732 11.6183 17.4942 11.8192 17.4942 12.3717V19.9654C17.4942 20.5279 17.2732 20.7388 16.8011 20.7388H7.1984C6.73636 20.7388 6.50536 20.5279 6.50536 19.9654V12.3717C6.50536 11.8192 6.73636 11.6183 7.1984 11.6183H16.8011Z" fill="#475569"/>
</svg>
