<svg width="24" height="24" viewBox="0 0 24 24" fill="none" xmlns="http://www.w3.org/2000/svg">
<path d="M15.3149 22.1099C15.6765 22.1099 16.0281 22.0195 16.3193 21.8488L21.5827 18.8655C22.1753 18.534 22.4467 18.0519 22.4467 17.3789V3.44699C22.4467 2.70368 22.0348 2.29182 21.3115 2.29182C21.0604 2.29182 20.7993 2.37222 20.4778 2.55303L15.1441 5.51618L9.68988 2.1713C9.38855 1.99049 9.03695 1.89008 8.6854 1.89008C8.31378 1.89008 7.95215 1.99049 7.64075 2.1713L2.42761 5.14452C1.82491 5.48605 1.55371 5.96819 1.55371 6.64118V20.553C1.55371 21.2963 1.9756 21.7182 2.68878 21.7182C2.94991 21.7182 3.20105 21.6278 3.53251 21.447L8.63521 18.6947L14.1899 21.8086C14.5615 22.0095 14.9432 22.1099 15.3149 22.1099ZM3.31154 19.6389C3.22111 19.6389 3.17093 19.5787 3.17093 19.4782V7.03293C3.17093 6.79182 3.27134 6.62108 3.50238 6.48046L7.63073 4.06975C7.75124 3.99942 7.86173 3.93916 7.98228 3.86883V17.0976L3.45215 19.5887C3.40193 19.6088 3.3517 19.6389 3.31154 19.6389ZM14.4008 19.9503C14.2602 19.87 14.1095 19.7996 13.9588 19.7193L9.5995 17.2583V4.07978C9.70998 4.14008 9.82047 4.20033 9.92093 4.26059L14.4008 6.99273V19.9503ZM16.018 20.1311V6.89228L20.5481 4.4213C20.6084 4.39118 20.6586 4.37108 20.6989 4.37108C20.7791 4.37108 20.8293 4.43133 20.8293 4.53179V16.9771C20.8293 17.2282 20.739 17.399 20.508 17.5396L16.4801 19.88C16.3193 19.9704 16.1687 20.0608 16.018 20.1311Z" fill="#445B6A"/>
</svg>
