<svg width="20" height="20" viewBox="0 0 20 20" fill="none" xmlns="http://www.w3.org/2000/svg">
<path d="M13.0382 19.2673C13.3697 19.2673 13.692 19.1844 13.959 19.0279L18.7837 16.2932C19.327 15.9894 19.5757 15.5474 19.5757 14.9305V2.15959C19.5757 1.47822 19.1982 1.10069 18.5351 1.10069C18.3049 1.10069 18.0656 1.17439 17.7709 1.34013L12.8817 4.05635L7.88199 0.990215C7.60577 0.824468 7.28347 0.732422 6.96121 0.732422C6.62056 0.732422 6.28907 0.824468 6.00362 0.990215L1.2249 3.71566C0.672428 4.02873 0.423828 4.47069 0.423828 5.0876V17.8401C0.423828 18.5215 0.810557 18.9082 1.46431 18.9082C1.70368 18.9082 1.93389 18.8253 2.23773 18.6596L6.9152 16.1367L12.007 18.991C12.3477 19.1752 12.6975 19.2673 13.0382 19.2673ZM2.03517 17.0022C1.95228 17.0022 1.90627 16.947 1.90627 16.8549V5.44671C1.90627 5.22569 1.99832 5.06917 2.21011 4.94028L5.99442 2.73045C6.1049 2.66599 6.20617 2.61075 6.31669 2.54628V14.6727L2.16407 16.9562C2.11802 16.9746 2.07198 17.0022 2.03517 17.0022ZM12.2003 17.2877C12.0715 17.214 11.9333 17.1495 11.7952 17.0759L7.79913 14.82V2.73965C7.90041 2.79492 8.00169 2.85016 8.09377 2.90539L12.2003 5.40986V17.2877ZM13.6828 17.4534V5.31777L17.8354 3.05271C17.8906 3.0251 17.9366 3.00667 17.9736 3.00667C18.0471 3.00667 18.0931 3.06191 18.0931 3.15399V14.5622C18.0931 14.7924 18.0104 14.9489 17.7986 15.0778L14.1063 17.2232C13.959 17.3061 13.8209 17.3889 13.6828 17.4534Z" fill="#A0AEB8"/>
</svg>
