<svg width="30" height="30" viewBox="0 0 30 30" fill="none" xmlns="http://www.w3.org/2000/svg">
<path d="M2.14288 5.62493C2.14288 4.88526 2.7425 4.28564 3.48217 4.28564H26.5179C27.2575 4.28564 27.8572 4.88526 27.8572 5.62493C27.8572 6.3646 27.2575 6.96422 26.5179 6.96422H3.48217C2.7425 6.96422 2.14288 6.3646 2.14288 5.62493Z" fill="#445B6A"/>
<path d="M2.14288 24.3749C2.14288 23.6353 2.7425 23.0356 3.48217 23.0356H26.5179C27.2575 23.0356 27.8572 23.6353 27.8572 24.3749C27.8572 25.1146 27.2575 25.7142 26.5179 25.7142H3.48217C2.7425 25.7142 2.14288 25.1146 2.14288 24.3749Z" fill="#445B6A"/>
<path d="M2.14288 14.732C2.14288 13.9924 2.7425 13.3928 3.48217 13.3928H26.5179C27.2575 13.3928 27.8572 13.9924 27.8572 14.732C27.8572 15.4717 27.2575 16.0713 26.5179 16.0713H3.48217C2.7425 16.0713 2.14288 15.4717 2.14288 14.732Z" fill="#445B6A"/>
</svg>
