<svg width="16" height="16" viewBox="0 0 16 16" fill="none" xmlns="http://www.w3.org/2000/svg">
<path d="M1 2.71429C1 2.3198 1.3198 2 1.71429 2H14C14.3945 2 14.7143 2.3198 14.7143 2.71429C14.7143 3.10877 14.3945 3.42857 14 3.42857H1.71429C1.3198 3.42857 1 3.10877 1 2.71429Z" fill="#A0AEB8"/>
<path d="M1 12.7143C1 12.3198 1.3198 12 1.71429 12H14C14.3945 12 14.7143 12.3198 14.7143 12.7143C14.7143 13.1088 14.3945 13.4286 14 13.4286H1.71429C1.3198 13.4286 1 13.1088 1 12.7143Z" fill="#A0AEB8"/>
<path d="M1 7.57141C1 7.17692 1.3198 6.85712 1.71429 6.85712H14C14.3945 6.85712 14.7143 7.17692 14.7143 7.57141C14.7143 7.9659 14.3945 8.2857 14 8.2857H1.71429C1.3198 8.2857 1 7.9659 1 7.57141Z" fill="#A0AEB8"/>
</svg>
