<svg fill="none" height="20" viewBox="0 0 12 20" width="12" xmlns="http://www.w3.org/2000/svg"><path d="m10.2 0h-8.4c-.99375 0-1.8.839844-1.8 1.875v16.25c0 1.0352.80625 1.875 1.8 1.875h8.4c.9938 0 1.8-.8398 1.8-1.875v-16.25c0-1.035156-.8062-1.875-1.8-1.875zm-4.2 19.375c-.66375 0-.6.0664-.6-.625s-.06375-.625.6-.625.6-.0664.6.625.06375.625-.6.625zm4.2-2.9688c0 .2579-.2025.4688-.45.4688h-7.5c-.2475 0-.45-.2109-.45-.4688v-14.06245c0-.25781.2025-.46875.45-.46875h7.5c.2475 0 .45.21094.45.46875z" fill="#3885f9"/></svg>