<svg width="16" height="16" viewBox="0 0 16 16" fill="none" xmlns="http://www.w3.org/2000/svg">
<path d="M10.5293 15.2969H5.46387C4.34961 15.2969 3.60449 14.5859 3.60449 13.5195V2.60254C3.60449 1.53613 4.34961 0.825195 5.46387 0.825195H10.5293C11.6436 0.825195 12.3887 1.53613 12.3887 2.60254V13.5195C12.3887 14.5859 11.6436 15.2969 10.5293 15.2969Z" fill="#E4EDF3"/>
<path d="M5.46387 15.2969H10.5293C11.6436 15.2969 12.3887 14.5859 12.3887 13.5195V2.60254C12.3887 1.53613 11.6436 0.825195 10.5293 0.825195H5.46387C4.34961 0.825195 3.60449 1.53613 3.60449 2.60254V13.5195C3.60449 14.5859 4.34961 15.2969 5.46387 15.2969ZM5.60742 14.1963C5.02637 14.1963 4.70508 13.8887 4.70508 13.3418V2.78027C4.70508 2.2334 5.02637 1.92578 5.60742 1.92578C5.7168 1.92578 5.77148 1.98047 5.77148 2.08301V2.24023C5.77148 2.52734 5.95605 2.71875 6.24316 2.71875H9.76367C10.0439 2.71875 10.2285 2.52734 10.2285 2.24023V2.08301C10.2285 1.98047 10.2832 1.92578 10.3926 1.92578C10.9668 1.92578 11.2881 2.2334 11.2881 2.78027V13.3418C11.2881 13.8887 10.9668 14.1963 10.3926 14.1963H5.60742Z" fill="#445B6A"/>
<path d="M9.45605 13.6973H6.55078C6.36621 13.6973 6.22949 13.5674 6.22949 13.376C6.22949 13.1846 6.36621 13.0615 6.55078 13.0615H9.45605C9.64062 13.0615 9.77051 13.1846 9.77051 13.376C9.77051 13.5674 9.64062 13.6973 9.45605 13.6973Z" fill="#445B6A"/>
</svg>
