<svg width="22" height="22" viewBox="0 0 22 22" fill="none" xmlns="http://www.w3.org/2000/svg">
<path d="M11.0001 1.57129C16.2074 1.57129 20.4287 5.7926 20.4287 10.9999C20.4287 16.2071 16.2074 20.4284 11.0001 20.4284C5.79285 20.4284 1.57153 16.2071 1.57153 10.9999C1.57153 5.7926 5.79285 1.57129 11.0001 1.57129ZM11.0001 3.14272C6.66072 3.14272 3.14296 6.66048 3.14296 10.9999C3.14296 15.3392 6.66072 18.857 11.0001 18.857C15.3395 18.857 18.8572 15.3392 18.8572 10.9999C18.8572 6.66048 15.3395 3.14272 11.0001 3.14272ZM11.2254 5.6121V6.66802C12.7874 6.79298 13.9183 7.73018 13.9682 9.14848H12.6687C12.5874 8.36123 12.0251 7.90512 11.2254 7.80516V10.4106L11.5253 10.4855C13.1685 10.8667 14.0682 11.5415 14.0682 12.8723C14.0682 14.4031 12.8186 15.2715 11.2254 15.384V16.4337H10.5193V15.384C8.93234 15.2653 7.67649 14.3718 7.63276 12.8723H8.92609C9.03856 13.6033 9.51341 14.1406 10.5193 14.2469V11.5227L10.2632 11.4602C8.67617 11.0916 7.8202 10.3793 7.8202 9.11099C7.8202 7.71144 8.94484 6.78673 10.5193 6.66802V5.6121H11.2254ZM11.2254 11.6852V14.2531C12.2938 14.1719 12.7436 13.6658 12.7436 12.9972C12.7436 12.3537 12.3937 11.9726 11.2254 11.6852ZM10.5193 7.80516C9.61962 7.91762 9.14477 8.4362 9.14477 9.00477C9.14477 9.57334 9.51966 9.99196 10.5193 10.2419V7.80516Z" fill="#445B6A"/>
</svg>
