<svg width="22" height="20" viewBox="0 0 22 20" fill="none" xmlns="http://www.w3.org/2000/svg">
<path d="M4.13938 19.2461L17.8603 19.2461C19.9598 19.2461 21.0143 18.2014 21.0143 16.1323L21.0143 3.86773C21.0143 1.79855 19.9598 0.753906 17.8603 0.753906L4.13938 0.753906C2.05009 0.753906 0.985352 1.78848 0.985352 3.86773L0.985352 16.1323C0.985352 18.2115 2.05009 19.2461 4.13938 19.2461ZM3.99877 17.6289C3.10477 17.6289 2.60257 17.1568 2.60257 16.2226L2.60257 6.75056C2.60257 5.82644 3.10477 5.34429 3.99877 5.34429L17.9909 5.34429C18.8849 5.34429 19.3972 5.82644 19.3972 6.75056L19.3972 16.2226C19.3972 17.1568 18.8849 17.6289 17.9909 17.6289L3.99877 17.6289ZM9.03114 8.95034H9.62376C9.97532 8.95034 10.0958 8.84988 10.0958 8.49832V7.90569C10.0958 7.55414 9.97532 7.44365 9.62376 7.44365L9.03114 7.44365C8.67954 7.44365 8.56905 7.55414 8.56905 7.90569V8.49832C8.56905 8.84988 8.67954 8.95034 9.03114 8.95034ZM12.376 8.95034H12.9586C13.3202 8.95034 13.4307 8.84988 13.4307 8.49832V7.90569C13.4307 7.55414 13.3202 7.44365 12.9586 7.44365H12.376C12.0244 7.44365 11.9039 7.55414 11.9039 7.90569V8.49832C11.9039 8.84988 12.0244 8.95034 12.376 8.95034ZM15.7108 8.95034H16.3034C16.655 8.95034 16.7756 8.84988 16.7756 8.49832V7.90569C16.7756 7.55414 16.655 7.44365 16.3034 7.44365H15.7108C15.3593 7.44365 15.2387 7.55414 15.2387 7.90569V8.49832C15.2387 8.84988 15.3593 8.95034 15.7108 8.95034ZM5.69629 12.235H6.28892C6.64048 12.235 6.76104 12.1345 6.76104 11.7829V11.1903C6.76104 10.8387 6.64048 10.7383 6.28892 10.7383H5.69629C5.34474 10.7383 5.22418 10.8387 5.22418 11.1903V11.7829C5.22418 12.1345 5.34474 12.235 5.69629 12.235ZM9.03114 12.235H9.62376C9.97532 12.235 10.0958 12.1345 10.0958 11.7829V11.1903C10.0958 10.8387 9.97532 10.7383 9.62376 10.7383H9.03114C8.67954 10.7383 8.56905 10.8387 8.56905 11.1903V11.7829C8.56905 12.1345 8.67954 12.235 9.03114 12.235ZM12.376 12.235H12.9586C13.3202 12.235 13.4307 12.1345 13.4307 11.7829V11.1903C13.4307 10.8387 13.3202 10.7383 12.9586 10.7383H12.376C12.0244 10.7383 11.9039 10.8387 11.9039 11.1903V11.7829C11.9039 12.1345 12.0244 12.235 12.376 12.235ZM15.7108 12.235H16.3034C16.655 12.235 16.7756 12.1345 16.7756 11.7829V11.1903C16.7756 10.8387 16.655 10.7383 16.3034 10.7383H15.7108C15.3593 10.7383 15.2387 10.8387 15.2387 11.1903V11.7829C15.2387 12.1345 15.3593 12.235 15.7108 12.235ZM5.69629 15.5296H6.28892C6.64048 15.5296 6.76104 15.4191 6.76104 15.0675L6.76104 14.4749C6.76104 14.1233 6.64048 14.0229 6.28892 14.0229H5.69629C5.34474 14.0229 5.22418 14.1233 5.22418 14.4749L5.22418 15.0675C5.22418 15.4191 5.34474 15.5296 5.69629 15.5296ZM9.03114 15.5296H9.62376C9.97532 15.5296 10.0958 15.4191 10.0958 15.0675V14.4749C10.0958 14.1233 9.97532 14.0229 9.62376 14.0229H9.03114C8.67954 14.0229 8.56905 14.1233 8.56905 14.4749L8.56905 15.0675C8.56905 15.4191 8.67954 15.5296 9.03114 15.5296ZM12.376 15.5296H12.9586C13.3202 15.5296 13.4307 15.4191 13.4307 15.0675V14.4749C13.4307 14.1233 13.3202 14.0229 12.9586 14.0229H12.376C12.0244 14.0229 11.9039 14.1233 11.9039 14.4749V15.0675C11.9039 15.4191 12.0244 15.5296 12.376 15.5296Z" fill="#445B6A"/>
<path d="M6.27889 8.95033H5.68627C5.33467 8.95033 5.22418 8.84988 5.22418 8.49832V7.90569C5.22418 7.55414 5.33467 7.44365 5.68627 7.44365H6.27889C6.63045 7.44365 6.75097 7.55414 6.75097 7.90569V8.49832C6.75097 8.84988 6.63045 8.95033 6.27889 8.95033Z" fill="#445B6A"/>
</svg>
