<svg width="24" height="24" viewBox="0 0 24 24" fill="none" xmlns="http://www.w3.org/2000/svg">
<path d="M5.13938 21.2461L18.8603 21.2461C20.9598 21.2461 22.0143 20.2014 22.0143 18.1323L22.0143 5.86773C22.0143 3.79855 20.9598 2.75391 18.8603 2.75391L5.13938 2.75391C3.05009 2.75391 1.98535 3.78848 1.98535 5.86773L1.98535 18.1323C1.98535 20.2115 3.05009 21.2461 5.13938 21.2461ZM4.99877 19.6289C4.10477 19.6289 3.60257 19.1568 3.60257 18.2226L3.60257 8.75056C3.60257 7.82644 4.10477 7.34429 4.99877 7.34429L18.9909 7.34429C19.8849 7.34429 20.3972 7.82644 20.3972 8.75056L20.3972 18.2226C20.3972 19.1568 19.8849 19.6289 18.9909 19.6289L4.99877 19.6289ZM10.0311 10.9503H10.6238C10.9753 10.9503 11.0958 10.8499 11.0958 10.4983V9.90569C11.0958 9.55414 10.9753 9.44365 10.6238 9.44365L10.0311 9.44365C9.67954 9.44365 9.56905 9.55414 9.56905 9.90569V10.4983C9.56905 10.8499 9.67954 10.9503 10.0311 10.9503ZM13.376 10.9503H13.9586C14.3202 10.9503 14.4307 10.8499 14.4307 10.4983V9.90569C14.4307 9.55414 14.3202 9.44365 13.9586 9.44365H13.376C13.0244 9.44365 12.9039 9.55414 12.9039 9.90569V10.4983C12.9039 10.8499 13.0244 10.9503 13.376 10.9503ZM16.7108 10.9503H17.3034C17.655 10.9503 17.7756 10.8499 17.7756 10.4983V9.90569C17.7756 9.55414 17.655 9.44365 17.3034 9.44365H16.7108C16.3593 9.44365 16.2387 9.55414 16.2387 9.90569V10.4983C16.2387 10.8499 16.3593 10.9503 16.7108 10.9503ZM6.69629 14.235H7.28892C7.64048 14.235 7.76104 14.1345 7.76104 13.7829V13.1903C7.76104 12.8387 7.64048 12.7383 7.28892 12.7383H6.69629C6.34474 12.7383 6.22418 12.8387 6.22418 13.1903V13.7829C6.22418 14.1345 6.34474 14.235 6.69629 14.235ZM10.0311 14.235H10.6238C10.9753 14.235 11.0958 14.1345 11.0958 13.7829V13.1903C11.0958 12.8387 10.9753 12.7383 10.6238 12.7383H10.0311C9.67954 12.7383 9.56905 12.8387 9.56905 13.1903V13.7829C9.56905 14.1345 9.67954 14.235 10.0311 14.235ZM13.376 14.235H13.9586C14.3202 14.235 14.4307 14.1345 14.4307 13.7829V13.1903C14.4307 12.8387 14.3202 12.7383 13.9586 12.7383H13.376C13.0244 12.7383 12.9039 12.8387 12.9039 13.1903V13.7829C12.9039 14.1345 13.0244 14.235 13.376 14.235ZM16.7108 14.235H17.3034C17.655 14.235 17.7756 14.1345 17.7756 13.7829V13.1903C17.7756 12.8387 17.655 12.7383 17.3034 12.7383H16.7108C16.3593 12.7383 16.2387 12.8387 16.2387 13.1903V13.7829C16.2387 14.1345 16.3593 14.235 16.7108 14.235ZM6.69629 17.5296H7.28892C7.64048 17.5296 7.76104 17.4191 7.76104 17.0675L7.76104 16.4749C7.76104 16.1233 7.64048 16.0229 7.28892 16.0229H6.69629C6.34474 16.0229 6.22418 16.1233 6.22418 16.4749L6.22418 17.0675C6.22418 17.4191 6.34474 17.5296 6.69629 17.5296ZM10.0311 17.5296H10.6238C10.9753 17.5296 11.0958 17.4191 11.0958 17.0675V16.4749C11.0958 16.1233 10.9753 16.0229 10.6238 16.0229H10.0311C9.67954 16.0229 9.56905 16.1233 9.56905 16.4749L9.56905 17.0675C9.56905 17.4191 9.67954 17.5296 10.0311 17.5296ZM13.376 17.5296H13.9586C14.3202 17.5296 14.4307 17.4191 14.4307 17.0675V16.4749C14.4307 16.1233 14.3202 16.0229 13.9586 16.0229H13.376C13.0244 16.0229 12.9039 16.1233 12.9039 16.4749V17.0675C12.9039 17.4191 13.0244 17.5296 13.376 17.5296Z" fill="#445B6A"/>
<path d="M7.27889 10.9503H6.68627C6.33467 10.9503 6.22418 10.8499 6.22418 10.4983V9.90569C6.22418 9.55414 6.33467 9.44365 6.68627 9.44365H7.27889C7.63045 9.44365 7.75097 9.55414 7.75097 9.90569V10.4983C7.75097 10.8499 7.63045 10.9503 7.27889 10.9503Z" fill="#445B6A"/>
</svg>
