<svg fill="none" height="13" viewBox="0 0 15 13" width="15" xmlns="http://www.w3.org/2000/svg"><path d="m4.7561 13c.44869 0 .75241-.3174.75241-.7521 0-.2277-.08973-.3933-.22779-.5313l-1.75334-1.7113-1.20801-1.01432 1.59457.069h8.61486c1.7326 0 2.4712-.77973 2.4712-2.49098v-4.09182c0-1.731957-.7386-2.47718-2.4712-2.47718h-3.83115c-.46249 0-.78693.345011-.78693.772824 0 .420916.32444.765926.78003.765926h3.80345c.6903 0 .9872.29671.9872.98673v3.99522c0 .71072-.2969 1.00053-.9872 1.00053h-8.58026l-1.59457.0759 1.20801-1.02123 1.75334-1.70435c.13806-.138.22779-.31051.22779-.53822 0-.42781-.30372-.74522-.75241-.74522-.19328 0-.40727.0897-.55914.24151l-3.955359 3.89172c-.1587662.1518-.241601.35881-.241601.57271 0 .20701.0828348.41402.241601.56582l3.955359 3.89863c.15187.1518.36586.2415.55914.2415z" fill="#37404a"/></svg>