<svg width="20" height="20" viewBox="0 0 20 20" fill="none" xmlns="http://www.w3.org/2000/svg">
<path d="M9.99988 19.3917C15.1285 19.3917 19.3917 15.1377 19.3917 9.99991C19.3917 4.87128 15.1193 0.608154 9.99068 0.608154C4.85282 0.608154 0.608154 4.87128 0.608154 9.99991C0.608154 15.1377 4.86205 19.3917 9.99988 19.3917ZM9.99988 17.8264C5.65389 17.8264 2.18261 14.3459 2.18261 9.99991C2.18261 5.66313 5.6447 2.17345 9.99068 2.17345C14.3274 2.17345 17.8171 5.66313 17.8264 9.99991C17.8356 14.3459 14.3367 17.8264 9.99988 17.8264ZM6.79561 14.0052C7.05345 14.0052 7.24681 13.8947 7.44937 13.6921L13.6369 7.4126C13.8302 7.21923 13.9499 6.98902 13.9499 6.77723C13.9499 6.35373 13.6001 6.01304 13.1765 6.01304C12.9555 6.01304 12.7437 6.12351 12.5412 6.32607L6.36288 12.5965C6.15109 12.799 6.04981 13.0292 6.04981 13.241C6.04981 13.6553 6.35369 14.0052 6.79561 14.0052Z" fill="#445B6A"/>
</svg>
