<svg width="116" height="124" viewBox="0 0 116 124" fill="none" xmlns="http://www.w3.org/2000/svg">
<path d="M53.8404 68.8036C52.7975 69.4504 51.9175 70.5664 51.197 72.0048C50.4765 73.4432 51.8152 75.7598 52.392 76.8039M53.8404 68.8036C55.1175 68.0115 56.6373 67.9225 58.3995 68.8036C60.0923 69.65 63.8342 71.6844 67.2028 73.8502M53.8404 68.8036L51.1969 63.9991L52.392 63.1028M67.2028 73.8502L61.6007 65.3027M67.2028 73.8502C69.4995 75.3268 71.6228 76.8644 72.8048 78.1282M61.6007 65.3027L57.5993 59.1974L55.76 60.5768M61.6007 65.3027C63.2013 64.3347 67.0427 62.5586 69.6037 63.1988C72.8048 63.9991 80.0075 68.8009 83.2087 68.8009C86.4099 68.8009 89.611 68.8009 93.6125 74.403C97.614 80.005 109.618 102.413 114.42 100.813M72.8048 78.1282C73.1677 78.516 73.4418 78.8781 73.6051 79.2047C74.3275 80.6494 77.3318 82.9091 80.6319 84.8068M72.8048 78.1282C72.1646 76.6267 73.0716 73.4203 73.6051 72.0048M80.6319 84.8068C84.6443 87.1141 89.094 88.8862 90.4113 88.008M80.6319 84.8068C79.2108 83.5263 79.8903 80.8053 80.8078 79.2047M52.392 76.8039C51.1933 79.2047 48.9561 84.3266 49.5963 85.6071C50.3966 87.2077 53.0821 89.6113 58.942 85.2083M52.392 76.8039C53.868 79.4756 56.3536 82.643 58.942 85.2083M58.942 85.2083C59.2936 85.5568 59.647 85.8941 60.0001 86.2175M60.0001 86.2175C61.6928 87.7682 63.3769 89.0005 64.802 89.6113C66.8905 90.5063 68.7565 92.4024 70.5659 94.9264M60.0001 86.2175C59.7333 90.5491 59.3599 99.3722 60.0001 100.012C60.3868 100.399 62.8289 101.72 65.3401 103.072M80.0076 111.219C78.2869 108.269 76.7172 105.32 75.2057 102.579M80.0076 111.219C80.186 111.398 80.3159 111.617 80.3943 111.857M80.0076 111.219C80.1337 111.435 80.2627 111.648 80.3943 111.857M75.2057 102.579C75.2057 106.745 72.0045 107.215 71.2042 106.415C70.8041 106.015 68.2032 104.614 65.6023 103.214L65.3401 103.072M75.2057 102.579C73.6309 99.7226 72.1193 97.0932 70.5659 94.9264M70.5659 94.9264C69.6815 94.5649 67.6817 94.0588 66.7574 94.9264M65.3401 103.072C65.2687 105.52 66.2139 110.736 70.5659 112.017C72.3381 112.538 73.7215 113.06 74.8306 113.498M80.3943 111.857C80.6674 112.694 80.3143 113.796 79.2072 114.418C78.2466 114.957 77.1261 114.405 74.8306 113.498M80.3943 111.857C81.0133 112.839 81.691 113.74 82.4084 114.565M74.8306 113.498C75.2224 114.872 78.4069 117.619 80.0076 117.619C83.2087 117.619 82.9419 115.583 82.4084 114.565M96.0135 122.423C93.1022 121.975 86.9574 119.798 82.4084 114.565M52.392 63.1028L55.76 60.5768M52.392 63.1028L48.796 57.3368M55.76 60.5768L51.8152 55.0487M51.8152 55.0487C58.2967 49.4716 62.401 41.2088 62.401 31.9874C62.401 15.1917 48.7854 1.57617 31.9898 1.57617C15.1942 1.57617 1.57861 15.1917 1.57861 31.9874C1.57861 48.783 15.1942 62.3986 31.9898 62.3986C38.2032 62.3986 43.9814 60.5352 48.796 57.3368M51.8152 55.0487C50.8587 55.8717 49.8505 56.6363 48.796 57.3368M57.5992 31.9874C57.5992 46.1311 46.1335 57.5968 31.9898 57.5968C17.8461 57.5968 6.38038 46.1311 6.38038 31.9874C6.38038 17.8437 17.8461 6.37794 31.9898 6.37794C46.1335 6.37794 57.5992 17.8437 57.5992 31.9874Z" stroke="#445B6A" stroke-width="1.60059" stroke-linecap="round"/>
<path d="M60 72.8027C60.8003 76.0039 59.1997 77.6045 55.9985 77.6045" stroke="#445B6A" stroke-width="1.60059" stroke-linecap="round"/>
<path d="M51.1963 31.9878C51.1963 28.1532 49.9693 24.4104 47.6801 21.2629C45.391 18.1153 42.1495 15.7138 38.3916 14.3813" stroke="#AF38F9" stroke-width="2.40088" stroke-linecap="round"/>
<path d="M12.7822 31.9878C12.7822 35.8224 14.0093 39.5651 16.2984 42.7127C18.5875 45.8603 21.829 48.2617 25.5869 49.5942" stroke="#AF38F9" stroke-width="2.40088" stroke-linecap="round"/>
</svg>
