<svg width="24" height="24" viewBox="0 0 24 24" fill="none" xmlns="http://www.w3.org/2000/svg">
<path d="M3.74846 16.1585H6.81206L5.898 20.6987C5.8779 20.7991 5.86787 20.9197 5.86787 21.0201C5.86787 21.5123 6.2094 21.7835 6.68147 21.7835C7.16362 21.7835 7.51517 21.5223 7.61563 21.0302L8.60002 16.1585H13.3512L12.4371 20.6987C12.4069 20.7991 12.3969 20.9197 12.3969 21.0201C12.3969 21.5123 12.7384 21.7835 13.2205 21.7835C13.7027 21.7835 14.0542 21.5223 14.1547 21.0302L15.129 16.1585H18.715C19.2674 16.1585 19.6491 15.7567 19.6491 15.2143C19.6491 14.7723 19.3478 14.4107 18.8958 14.4107H15.4906L16.5554 9.10717H20.071C20.6235 9.10717 21.0051 8.70538 21.0051 8.16294C21.0051 7.721 20.7038 7.35941 20.2518 7.35941H16.9069L17.7306 3.31138C17.7406 3.25112 17.7607 3.12054 17.7607 2.99C17.7607 2.49778 17.4092 2.21655 16.927 2.21655C16.3645 2.21655 16.1134 2.52791 16.013 3.00002L15.129 7.35941H10.3779L11.2016 3.31138C11.2116 3.25112 11.2317 3.12054 11.2317 2.99C11.2317 2.49778 10.8701 2.21655 10.398 2.21655C9.82547 2.21655 9.5643 2.52791 9.47392 3.00002L8.58995 7.35941H5.29535C4.74287 7.35941 4.36119 7.7813 4.36119 8.33372C4.36119 8.78574 4.66252 9.10717 5.11453 9.10717H8.23843L7.17369 14.4107H3.92927C3.3768 14.4107 2.99512 14.8326 2.99512 15.3851C2.99512 15.8371 3.29645 16.1585 3.74846 16.1585ZM8.95157 14.4107L10.0263 9.10717H14.7775L13.7027 14.4107H8.95157Z" fill="#445B6A"/>
</svg>
