<svg fill="none" height="32" viewBox="0 0 32 32" width="32" xmlns="http://www.w3.org/2000/svg"><path d="m6.11678 31h19.76642c3.4221 0 5.1168-1.6947 5.1168-5.0516v-19.8968c0-3.35687-1.6947-5.0516-5.1168-5.0516h-19.76642c-3.40575 0-5.11678 1.67844-5.11678 5.0516v19.8968c0 3.3732 1.71103 5.0516 5.11678 5.0516zm.0326-2.6236c-1.62955 0-2.52581-.8636-2.52581-2.5584v-19.63603c0-1.69473.89626-2.5584 2.52581-2.5584h19.70122c1.6133 0 2.5258.86367 2.5258 2.5584v19.63603c0 1.6948-.9125 2.5584-2.5258 2.5584zm14.97552-8.3596c.717 0 1.1896-.5377 1.1896-1.3036v-7.6752c0-.9777-.5215-1.3525-1.3525-1.3525h-7.7404c-.7496 0-1.2384.4726-1.2384 1.1896s.5051 1.2058 1.271 1.2058h2.9821l2.3954-.2607-2.5258 2.3629-6.013 5.9967c-.22815.2281-.39111.554-.39111.88 0 .7332.47261 1.2058 1.20591 1.2058.3911 0 .6844-.1466.9125-.3748l6.013-5.9967 2.3466-2.5095-.2444 2.5421v2.8191c0 .7822.4725 1.271 1.1895 1.271z" fill="#37404a"/></svg>