<svg width="24" height="24" viewBox="0 0 24 24" fill="none" xmlns="http://www.w3.org/2000/svg">
<path d="M1.38781 20.6532C1.90271 21.1508 2.71081 21.0748 3.66195 20.667L20.5822 13.3692C21.0399 13.1757 21.4118 12.9683 21.6549 12.7334C22.1198 12.2842 22.1126 11.7244 21.6477 11.2752C21.4046 11.0402 21.0399 10.826 20.5822 10.6325L3.56898 3.30001C2.73943 2.94066 1.90985 2.84389 1.38781 3.34837C0.729865 3.98418 1.00875 4.68218 1.48792 5.54602L4.18399 10.4182C4.4915 10.9918 4.76324 11.2268 5.35683 11.2475L20.5321 11.745C20.7109 11.752 20.8039 11.8695 20.811 12.0008C20.811 12.139 20.7109 12.2496 20.5321 12.2565L5.35683 12.8094C4.79189 12.8301 4.52012 13.0374 4.18402 13.6387L1.53799 18.3795C1.03023 19.2848 0.722727 20.0105 1.38781 20.6532Z" fill="#445B6A"/>
</svg>
