<svg width="24" height="24" viewBox="0 0 24 24" fill="none" xmlns="http://www.w3.org/2000/svg">
<path d="M11.9999 22.2456C17.5948 22.2456 22.2455 17.6049 22.2455 12C22.2455 6.40514 17.5848 1.75446 11.9899 1.75446C6.38494 1.75446 1.75439 6.40514 1.75439 12C1.75439 17.6049 6.39501 22.2456 11.9999 22.2456ZM11.9999 20.538C7.25884 20.538 3.47198 16.7411 3.47198 12C3.47198 7.26897 7.24881 3.46206 11.9899 3.46206C16.7209 3.46206 20.5278 7.26897 20.5379 12C20.548 16.7411 16.731 20.538 11.9999 20.538ZM15.847 9.26787L16.5501 8.55468C16.8615 8.22323 16.8917 7.87167 16.5903 7.58037L16.3794 7.3594C16.0881 7.0681 15.7265 7.09823 15.405 7.40958L14.6919 8.11274L15.847 9.26787ZM8.86598 16.2187L15.2644 9.8404L14.1093 8.6953L7.73095 15.0636L7.17848 16.3594C7.07802 16.6005 7.30907 16.8013 7.52001 16.721L8.86598 16.2187Z" fill="#445B6A"/>
</svg>
