<svg width="24" height="24" viewBox="0 0 24 24" fill="none" xmlns="http://www.w3.org/2000/svg">
<path d="M11.9999 22.2456C17.5948 22.2456 22.2455 17.6049 22.2455 12C22.2455 6.40514 17.5848 1.75446 11.9899 1.75446C6.38494 1.75446 1.75439 6.40514 1.75439 12C1.75439 17.6049 6.39501 22.2456 11.9999 22.2456ZM11.9999 15.4252C8.97647 15.4252 6.64611 16.5 5.63159 17.7054C4.28562 16.1986 3.47198 14.1998 3.47198 12C3.47198 7.26897 7.24881 3.46206 11.9899 3.46206C16.7209 3.46206 20.5278 7.26897 20.5379 12C20.5379 14.2099 19.7243 16.2087 18.3682 17.7154C17.3537 16.51 15.0234 15.4252 11.9999 15.4252ZM11.9999 13.7176C13.9285 13.7377 15.4452 12.0904 15.4452 9.93083C15.4452 7.9018 13.9185 6.2143 11.9999 6.2143C10.0713 6.2143 8.53452 7.9018 8.55462 9.93083C8.56465 12.0904 10.0613 13.6975 11.9999 13.7176Z" fill="#445B6A"/>
</svg>
