<svg width="24" height="24" viewBox="0 0 24 24" fill="none" xmlns="http://www.w3.org/2000/svg">
<path d="M11.9999 22.2456C17.5948 22.2456 22.2455 17.6049 22.2455 12C22.2455 6.40514 17.5848 1.75446 11.9899 1.75446C6.38494 1.75446 1.75439 6.40514 1.75439 12C1.75439 17.6049 6.39501 22.2456 11.9999 22.2456ZM11.9999 20.538C7.25884 20.538 3.47198 16.7411 3.47198 12C3.47198 7.26897 7.24881 3.46206 11.9899 3.46206C16.7209 3.46206 20.5278 7.26897 20.5379 12C20.548 16.7411 16.731 20.538 11.9999 20.538ZM11.9999 11.4375C13.4564 11.4475 14.6216 10.202 14.6216 8.56476C14.6216 7.03797 13.4564 5.76228 11.9999 5.76228C10.5434 5.76228 9.37825 7.03797 9.37825 8.56476C9.37825 10.202 10.5434 11.4275 11.9999 11.4375ZM7.31909 17.1328H16.6707C17.0724 17.1328 17.2734 16.8616 17.2734 16.5C17.2734 15.375 15.5859 12.4721 11.9999 12.4721C8.41397 12.4721 6.72647 15.375 6.72647 16.5C6.72647 16.8616 6.92738 17.1328 7.31909 17.1328Z" fill="#445B6A"/>
</svg>
