<svg width="22" height="22" viewBox="0 0 22 22" fill="none" xmlns="http://www.w3.org/2000/svg">
<path d="M10.9999 20.3919C16.1285 20.3919 20.3917 16.138 20.3917 11.0002C20.3917 5.87153 16.1193 1.6084 10.9907 1.6084C5.85282 1.6084 1.60815 5.87153 1.60815 11.0002C1.60815 16.138 5.86205 20.3919 10.9999 20.3919ZM10.9999 14.1399C8.22839 14.1399 6.09223 15.1252 5.16225 16.2301C3.92845 14.8489 3.18261 13.0166 3.18261 11.0002C3.18261 6.66337 6.6447 3.1737 10.9907 3.1737C15.3274 3.1737 18.8171 6.66337 18.8264 11.0002C18.8264 13.0258 18.0805 14.8581 16.8375 16.2393C15.9075 15.1343 13.7714 14.1399 10.9999 14.1399ZM10.9999 12.5747C12.7677 12.5931 14.1581 11.083 14.1581 9.1034C14.1581 7.24346 12.7585 5.69659 10.9999 5.69659C9.23202 5.69659 7.82327 7.24346 7.8417 9.1034C7.85089 11.083 9.22283 12.5562 10.9999 12.5747Z" fill="#445B6A"/>
</svg>
