<svg fill="none" height="75" viewBox="0 0 50 75" width="50" xmlns="http://www.w3.org/2000/svg"><path d="m32.1429 7.5v18.75c0 4.2 1.3214 8.1 3.5714 11.25h-21.4286c2.3214-3.225 3.5714-7.125 3.5714-11.25v-18.75zm10.7142-7.5h-35.71424c-1.96429 0-3.57143 1.6875-3.57143 3.75s1.60714 3.75 3.57143 3.75h3.57144v18.75c0 6.225-4.78573 11.25-10.7143 11.25v7.5h21.3214v26.25l3.5715 3.75 3.5714-3.75v-26.25h21.5357v-7.5c-5.9286 0-10.7143-5.025-10.7143-11.25v-18.75h3.5714c1.9643 0 3.5715-1.6875 3.5715-3.75s-1.6072-3.75-3.5715-3.75z" fill="#bdbdbd"/></svg>