<svg width="20" height="20" viewBox="0 0 20 20" fill="none" xmlns="http://www.w3.org/2000/svg">
<path d="M10.0001 19.3919C15.1288 19.3919 19.3919 15.138 19.3919 10.0002C19.3919 4.87153 15.1196 0.608398 9.99093 0.608398C4.85306 0.608398 0.608398 4.87153 0.608398 10.0002C0.608398 15.138 4.86229 19.3919 10.0001 19.3919ZM10.0001 17.8266C5.65414 17.8266 2.18285 14.3461 2.18285 10.0002C2.18285 5.66337 5.64494 2.1737 9.99093 2.1737C14.3277 2.1737 17.8173 5.66337 17.8266 10.0002C17.8359 14.3461 14.3369 17.8266 10.0001 17.8266ZM9.9725 14.3738C10.4697 14.3738 10.7643 14.0331 10.7643 13.4991V10.7736H13.6463C14.1619 10.7736 14.521 10.5066 14.521 10.0186C14.521 9.52134 14.1804 9.23593 13.6463 9.23593H10.7643V6.34474C10.7643 5.8015 10.4697 5.47004 9.9725 5.47004C9.48449 5.47004 9.21747 5.81992 9.21747 6.34474V9.23593H6.3447C5.80146 9.23593 5.46077 9.52134 5.46077 10.0186C5.46077 10.5066 5.82908 10.7736 6.3447 10.7736H9.21747V13.4991C9.21747 14.0147 9.48449 14.3738 9.9725 14.3738Z" fill="#A0AEB8"/>
</svg>
