<svg width="24" height="24" viewBox="0 0 24 24" fill="none" xmlns="http://www.w3.org/2000/svg">
<path d="M11.9999 22.2455C17.5948 22.2455 22.2455 17.6049 22.2455 12C22.2455 6.40508 17.5848 1.75439 11.9899 1.75439C6.38494 1.75439 1.75439 6.40508 1.75439 12C1.75439 17.6049 6.39501 22.2455 11.9999 22.2455ZM11.9999 20.5379C7.25884 20.5379 3.47198 16.741 3.47198 12C3.47198 7.26891 7.24881 3.46199 11.9899 3.46199C16.7209 3.46199 20.5278 7.26891 20.5379 12C20.548 16.741 16.731 20.5379 11.9999 20.5379ZM11.9698 16.7712C12.5122 16.7712 12.8336 16.3995 12.8336 15.8169V12.8437H15.9776C16.5401 12.8437 16.9318 12.5524 16.9318 12.0201C16.9318 11.4776 16.5602 11.1663 15.9776 11.1663H12.8336V8.01222C12.8336 7.41959 12.5122 7.05801 11.9698 7.05801C11.4374 7.05801 11.1461 7.43969 11.1461 8.01222V11.1663H8.01218C7.41955 11.1663 7.04789 11.4776 7.04789 12.0201C7.04789 12.5524 7.44968 12.8437 8.01218 12.8437H11.1461V15.8169C11.1461 16.3794 11.4374 16.7712 11.9698 16.7712Z" fill="#445B6A"/>
</svg>
