<svg fill="none" height="16" viewBox="0 0 15 16" width="15" xmlns="http://www.w3.org/2000/svg"><path d="m7.59766 15.1426c.55371 0 1.00195-.4571 1.00195-.9756v-5.50196h5.36129c.5362 0 .9932-.44824.9932-1.00195 0-.54493-.457-1.00196-.9932-1.00196h-5.36129v-5.50195c0-.527344-.44824-.975586-1.00195-.975586-.54493 0-1.00196.448242-1.00196.975586v5.50195h-5.36132c-.51856 0-.993169.45703-.993169 1.00196 0 .55371.474609 1.00195.993169 1.00195h5.36132v5.50196c0 .5185.45703.9756 1.00196.9756z" fill="#af38f9"/></svg>