<svg width="22" height="22" viewBox="0 0 22 22" fill="none" xmlns="http://www.w3.org/2000/svg">
<path d="M5.41561 19.4756H16.5936C18.518 19.4756 19.4756 18.518 19.4756 16.6212V5.37876C19.4756 3.482 18.518 2.52441 16.5936 2.52441H5.41561C3.50043 2.52441 2.52441 3.47277 2.52441 5.37876V16.6212C2.52441 18.5272 3.50043 19.4756 5.41561 19.4756ZM5.44322 17.9932C4.52249 17.9932 4.00686 17.5052 4.00686 16.5476V5.45242C4.00686 4.49483 4.52249 4.00682 5.44322 4.00682H16.566C17.4775 4.00682 17.9932 4.49483 17.9932 5.45242V16.5476C17.9932 17.5052 17.4775 17.9932 16.566 17.9932H5.44322ZM10.9954 15.3506C11.4834 15.3506 11.778 15.0099 11.778 14.4759V11.7596H14.66C15.1756 11.7596 15.5347 11.4834 15.5347 10.9954C15.5347 10.4982 15.1941 10.2127 14.66 10.2127H11.778V7.32155C11.778 6.78754 11.4834 6.44686 10.9954 6.44686C10.5074 6.44686 10.2312 6.80593 10.2312 7.32155V10.2127H7.3584C6.82435 10.2127 6.47447 10.4982 6.47447 10.9954C6.47447 11.4834 6.84278 11.7596 7.3584 11.7596H10.2312V14.4759C10.2312 14.9915 10.5074 15.3506 10.9954 15.3506Z" fill="#445B6A"/>
</svg>
