<svg width="24" height="24" viewBox="0 0 24 24" fill="none" xmlns="http://www.w3.org/2000/svg">
<path d="M11.9948 20.4576C12.487 20.4576 12.8988 20.0658 12.8988 19.5837V12.904H19.3877C19.8698 12.904 20.2917 12.4921 20.2917 12C20.2917 11.5078 19.8698 11.106 19.3877 11.106H12.8988V4.41626C12.8988 3.93412 12.487 3.54236 11.9948 3.54236C11.5026 3.54236 11.1009 3.93412 11.1009 4.41626V11.106H4.61199C4.12985 11.106 3.70801 11.5078 3.70801 12C3.70801 12.4921 4.12985 12.904 4.61199 12.904H11.1009V19.5837C11.1009 20.0658 11.5026 20.4576 11.9948 20.4576Z" fill="#445B6A"/>
</svg>
