<svg fill="none" height="16" viewBox="0 0 16 16" width="16" xmlns="http://www.w3.org/2000/svg"><path d="m8.00002 16c4.37648 0 7.99998-3.6235 7.99998-7.99998 0-4.36864-3.6313-8.00002-8.00782-8.00002-4.36865 0-7.99218 3.63138-7.99218 8.00002 0 4.37648 3.63138 7.99998 8.00002 7.99998zm-.01569-4.0941c-.44706 0-.68235-.3216-.68235-.7764v-2.43929h-2.57255c-.46275 0-.78433-.24314-.78433-.67451 0-.44706.30589-.69804.78433-.69804h2.57255v-2.59608c0-.45491.23529-.77648.68235-.77648.43922 0 .69805.30589.69805.77648v2.59608h2.58042c.4785 0 .7764.25098.7764.69804 0 .43137-.3137.67451-.7764.67451h-2.58042v2.43929c0 .4705-.25883.7764-.69805.7764z" fill="#59dd5f"/></svg>