<svg fill="none" height="24" viewBox="0 0 24 24" width="24" xmlns="http://www.w3.org/2000/svg"><g fill="#37404a"><path d="m7.78125 0c-.38831 0-.70313.314812-.70313.703125v3.609375h-2.10937c-.38831 0-.70313.31481-.70313.70312v2.8125c0 .38832.31482.70313.70313.70313h.70313v3.51565c0 3.2637 2.48367 5.9581 5.66022 6.2929.3348 3.1765 3.0291 5.6602 6.2929 5.6602.3883 0 .7031-.3148.7031-.7031s-.3148-.7031-.7031-.7031c-2.4906 0-4.5547-1.8596-4.8777-4.2631 3.1384-.371 5.5808-3.0473 5.5808-6.2838v-3.51565h.7031c.3884 0 .7032-.31481.7032-.70313v-2.8125c0-.38831-.3148-.70312-.7032-.70312h-2.1093v-3.609375c0-.388313-.3148-.703125-.7031-.703125-.3884 0-.7032.314812-.7032.703125v3.609375h-7.03122v-3.609375c0-.388313-.31482-.703125-.70313-.703125zm10.54685 7.125h-.7031c-.3883 0-.7031.31481-.7031.70312v4.21878c0 2.7139-2.208 4.9219-4.9219 4.9219-2.71392 0-4.92188-2.208-4.92188-4.9219v-4.21878c0-.38831-.31481-.70312-.70312-.70312h-.70312v-1.40625h12.65622z"/><path d="m13.7206 11.4164-1.94-.97.7165-.71646c.6573-.65724-.3361-1.65272-.9944-.99436l-1.4062 1.40622c-.33899.339-.24641.9116.1827 1.1261l1.94.97-.7165.7164c-.6588.6588.3437 1.6452.9944.9944l1.4062-1.4063c.339-.3389.2464-.9114-.1827-1.126z"/></g></svg>