<svg fill="none" height="24" viewBox="0 0 24 24" width="24" xmlns="http://www.w3.org/2000/svg"><g fill="#37404a"><path d="m12.8001 12.1397v-4.16001c0-.44-.36-.8-.8-.8s-.8.36-.8.8v4.16001c-.94.33-1.61001 1.22-1.61001 2.27 0 1.33 1.08001 2.41 2.41001 2.41s2.41-1.08 2.41-2.41c0-1.05-.67-1.94-1.61-2.27zm-.8 3.07c-.44 0-.8-.36-.8-.8s.36-.8.8-.8.8.36.8.8-.36.8-.8.8z"/><path clip-rule="evenodd" d="m1.55005 10.45c0-5.77 4.7-10.45 10.44995-10.45 5.78 0 10.4501 4.7 10.4501 10.45 0 4.34-2.6601 8.07-6.4301 9.64v1.66c0 1.02-.64 1.9-1.55 2.25h-4.93995c-.9-.35-1.55-1.23-1.55-2.25v-1.66c-3.77-1.58-6.43-5.31-6.43-9.64zm12.05995 12.1c.44 0 .8-.36.8-.8v-1.14c-.77.18-1.58.28-2.41.28s-1.64-.1-2.40995-.28v1.14c0 .44.36.8.79995.8zm-10.40995-11.3c.41 4.5 4.2 8.04 8.79995 8.04 4.6 0 8.4-3.54 8.8-8.04h-.7699c-.4401 0-.8001-.36-.8001-.8s.36-.8.8001-.8h.7699c-.17-1.83-.8999-3.51-2.0099-4.85l-.5401.54c-.3099.31-.82.31-1.14 0-.31-.31-.31-.82 0-1.14l.54-.54c-1.34-1.12-3.01-1.85-4.85-2.01v.77c0 .44-.36.8-.8.8s-.8-.36-.8-.8v-.78c-1.82995.17-3.50995.9-4.84995 2.01l.54.55c.31.31.31.82 0 1.14-.31.31-.82.31-1.14 0l-.54-.55c-1.12 1.34-1.85 3.02-2.01 4.85h.77c.44 0 .8.36.8.8s-.36.8-.8.8h-.77z" fill-rule="evenodd"/></g></svg>