<svg width="14" height="18" viewBox="0 0 14 18" fill="none" xmlns="http://www.w3.org/2000/svg">
<path d="M1.89991 12.6785C2.38792 12.6785 2.72861 12.3563 2.7378 11.859L2.82069 1.13222C2.82069 0.607363 2.38792 0.248291 1.89072 0.248291C1.40271 0.248291 0.969942 0.607363 0.969942 1.13222L1.07126 11.859C1.08045 12.3563 1.4211 12.6785 1.89991 12.6785ZM1.89072 17.7519C2.62733 17.7519 3.20738 17.1626 3.20738 16.4444C3.20738 15.717 2.62733 15.1369 1.89072 15.1369C1.17254 15.1369 0.583252 15.717 0.583252 16.4444C0.583252 17.1626 1.17254 17.7519 1.89072 17.7519Z" fill="#EB5757"/>
<path d="M7.27414 12.6785C7.76215 12.6785 8.10283 12.3563 8.11203 11.859L8.19492 1.13222C8.19492 0.607363 7.76215 0.248291 7.26495 0.248291C6.77694 0.248291 6.34417 0.607363 6.34417 1.13222L6.44549 11.859C6.45468 12.3563 6.79532 12.6785 7.27414 12.6785ZM7.26495 17.7519C8.00155 17.7519 8.58161 17.1626 8.58161 16.4444C8.58161 15.717 8.00155 15.1369 7.26495 15.1369C6.54676 15.1369 5.95748 15.717 5.95748 16.4444C5.95748 17.1626 6.54676 17.7519 7.26495 17.7519Z" fill="#EB5757"/>
<path d="M12.6484 12.6785C13.1364 12.6785 13.4771 12.3563 13.4863 11.859L13.5691 1.13222C13.5691 0.607363 13.1364 0.248291 12.6392 0.248291C12.1512 0.248291 11.7184 0.607363 11.7184 1.13222L11.8197 11.859C11.8289 12.3563 12.1696 12.6785 12.6484 12.6785ZM12.6392 17.7519C13.3758 17.7519 13.9558 17.1626 13.9558 16.4444C13.9558 15.717 13.3758 15.1369 12.6392 15.1369C11.921 15.1369 11.3317 15.717 11.3317 16.4444C11.3317 17.1626 11.921 17.7519 12.6392 17.7519Z" fill="#EB5757"/>
</svg>
