<svg width="9" height="18" viewBox="0 0 9 18" fill="none" xmlns="http://www.w3.org/2000/svg">
<path d="M1.64991 12.6785C2.13792 12.6785 2.47861 12.3563 2.4878 11.859L2.57069 1.13222C2.57069 0.607363 2.13792 0.248291 1.64072 0.248291C1.15271 0.248291 0.719942 0.607363 0.719942 1.13222L0.821259 11.859C0.830452 12.3563 1.1711 12.6785 1.64991 12.6785ZM1.64072 17.7519C2.37733 17.7519 2.95738 17.1626 2.95738 16.4444C2.95738 15.717 2.37733 15.1369 1.64072 15.1369C0.922538 15.1369 0.333252 15.717 0.333252 16.4444C0.333252 17.1626 0.922538 17.7519 1.64072 17.7519Z" fill="#F1BA11"/>
<path d="M7.0868 12.6785C7.57481 12.6785 7.9155 12.3563 7.92469 11.859L8.00758 1.13222C8.00758 0.607363 7.57481 0.248291 7.07761 0.248291C6.5896 0.248291 6.15683 0.607363 6.15683 1.13222L6.25815 11.859C6.26734 12.3563 6.60799 12.6785 7.0868 12.6785ZM7.07761 17.7519C7.81422 17.7519 8.39427 17.1626 8.39427 16.4444C8.39427 15.717 7.81422 15.1369 7.07761 15.1369C6.35943 15.1369 5.77014 15.717 5.77014 16.4444C5.77014 17.1626 6.35943 17.7519 7.07761 17.7519Z" fill="#F1BA11"/>
</svg>
