<svg width="24" height="24" viewBox="0 0 24 24" fill="none" xmlns="http://www.w3.org/2000/svg">
<path fill-rule="evenodd" clip-rule="evenodd" d="M3.45036 21.8571H6.73949C7.56178 21.8571 8.08685 21.2962 8.08685 20.5925C8.08685 20.2049 7.92834 19.8071 7.57168 19.4094C7.13577 18.9199 6.86828 18.3487 6.86828 17.7572C6.86828 16.5741 7.69057 15.6052 8.98839 15.6052C10.2862 15.6052 11.1085 16.5741 11.1085 17.7572C11.1085 18.3487 10.8311 18.9199 10.3952 19.4094C10.0484 19.8071 9.88993 20.2049 9.88993 20.5925C9.88993 21.2962 10.415 21.8571 11.2373 21.8571H14.5165C16.5078 21.8571 17.5481 20.8066 17.5481 18.7873V15.1871C17.5481 15.0239 17.6571 14.9423 17.8354 15.0749C18.4694 15.5339 19.1927 15.8602 20.0149 15.8602C21.8874 15.8602 23.5716 14.31 23.5716 12.0357C23.5716 9.77153 21.8874 8.22131 20.0149 8.22131C19.1927 8.22131 18.4694 8.54767 17.8354 9.00662C17.6571 9.1392 17.5481 9.05761 17.5481 8.89443V5.21266C17.5481 3.1933 16.5078 2.14282 14.5165 2.14282H11.2373C10.415 2.14282 9.88993 2.70376 9.88993 3.40747C9.88993 3.79503 10.0484 4.19278 10.3952 4.59053C10.8311 5.09028 11.1085 5.65121 11.1085 6.25294C11.1085 7.4156 10.2664 8.39469 8.98839 8.39469C7.71038 8.39469 6.86828 7.4156 6.86828 6.25294C6.86828 5.65121 7.13577 5.09028 7.57168 4.59053C7.92834 4.19278 8.08685 3.79503 8.08685 3.40747C8.08685 2.70376 7.56178 2.14282 6.73949 2.14282H3.45036C1.46895 2.14282 0.428711 3.1933 0.428711 5.21266V8.89443V15.1871V18.7873C0.428711 20.8066 1.46895 21.8571 3.45036 21.8571ZM2.02374 18.7057C2.02374 19.6848 2.56863 20.2151 3.48008 20.2151H5.7587C6.22433 20.2151 6.07572 19.9703 5.95684 19.7766C5.57046 19.1544 5.28316 18.4711 5.28316 17.6756C5.28316 15.7276 6.75931 14.0142 8.98839 14.0142C11.2175 14.0142 12.6936 15.7276 12.6936 17.6756C12.6936 18.4711 12.4063 19.1544 12.0199 19.7766C11.9011 19.9703 11.7525 20.2151 12.2181 20.2151H14.4967C15.4082 20.2151 15.953 19.6848 15.953 18.7057V14.361C15.953 13.5043 16.4979 12.9638 17.1815 12.9638C17.558 12.9638 17.9444 13.1269 18.3307 13.4941C18.8063 13.9428 19.3611 14.2284 19.9357 14.2284C21.075 14.2284 22.0261 13.3615 22.0261 12.0357C22.0261 10.72 21.075 9.85312 19.9357 9.85312C19.3611 9.85312 18.8063 10.1387 18.3307 10.5874C17.9444 10.9546 17.558 11.1178 17.1815 11.1178C16.4979 11.1178 15.953 10.5772 15.953 9.72053V5.29425C15.953 4.32537 15.4082 3.78483 14.4967 3.78483H12.2181C11.7525 3.78483 11.9011 4.0296 12.0199 4.22338C12.4063 4.8455 12.6936 5.52882 12.6936 6.33453C12.6936 8.2519 11.1977 9.9857 8.98839 9.9857C6.77912 9.9857 5.28316 8.2519 5.28316 6.33453C5.28316 5.52882 5.57046 4.8455 5.95684 4.22338C6.07572 4.0296 6.22433 3.78483 5.7587 3.78483H3.48008C2.56863 3.78483 2.02374 4.32537 2.02374 5.29425L2.0236 9.72053L2.02374 14.361V18.7057Z" fill="#445B6A"/>
</svg>
