<svg width="20" height="20" viewBox="0 0 20 20" fill="none" xmlns="http://www.w3.org/2000/svg">
<path d="M10.0001 19.3919C15.1288 19.3919 19.3919 15.138 19.3919 10.0002C19.3919 4.87153 15.1196 0.608398 9.99093 0.608398C4.85306 0.608398 0.608398 4.87153 0.608398 10.0002C0.608398 15.138 4.86229 19.3919 10.0001 19.3919ZM9.82518 11.9982C9.31875 11.9982 9.05172 11.7404 9.05172 11.2432V11.1143C9.05172 10.1659 9.55816 9.65028 10.258 9.17146C11.1142 8.59141 11.5101 8.25992 11.5101 7.59697C11.5101 6.86956 10.9393 6.37236 10.0554 6.37236C9.42006 6.37236 8.93206 6.69462 8.63742 7.21948C8.32435 7.58778 8.23226 7.87319 7.67979 7.87319C7.36676 7.87319 7.01688 7.64302 7.01688 7.21024C7.01688 7.04454 7.05369 6.88798 7.09973 6.73147C7.34833 5.83835 8.46244 5.06489 10.1198 5.06489C11.768 5.06489 13.1951 5.9212 13.1951 7.52331C13.1951 8.68346 12.523 9.23593 11.5838 9.87126C10.9209 10.3224 10.5894 10.6539 10.5894 11.1972V11.3169C10.5894 11.6944 10.304 11.9982 9.82518 11.9982ZM9.8528 14.7697C9.32798 14.7697 8.82155 14.3461 8.82155 13.7753C8.82155 13.2044 9.31875 12.7808 9.8528 12.7808C10.396 12.7808 10.884 13.1952 10.884 13.7753C10.884 14.3553 10.3868 14.7697 9.8528 14.7697Z" fill="#A0AEB8"/>
</svg>
