<svg width="24" height="24" viewBox="0 0 24 24" fill="none" xmlns="http://www.w3.org/2000/svg">
<path d="M11.9999 22.2455C17.5948 22.2455 22.2455 17.6049 22.2455 12C22.2455 6.40508 17.5848 1.75439 11.9899 1.75439C6.38494 1.75439 1.75439 6.40508 1.75439 12C1.75439 17.6049 6.39501 22.2455 11.9999 22.2455ZM11.8091 14.1796C11.2566 14.1796 10.9653 13.8984 10.9653 13.356V13.2153C10.9653 12.1808 11.5178 11.6183 12.2812 11.0959C13.2153 10.4631 13.6472 10.1015 13.6472 9.37829C13.6472 8.58475 13.0245 8.04235 12.0602 8.04235C11.3671 8.04235 10.8348 8.39391 10.5133 8.96648C10.1718 9.36827 10.0713 9.67962 9.46864 9.67962C9.12715 9.67962 8.74547 9.42852 8.74547 8.95641C8.74547 8.77564 8.78562 8.60485 8.83585 8.43411C9.10705 7.45979 10.3224 6.61602 12.1305 6.61602C13.9285 6.61602 15.4854 7.55018 15.4854 9.29794C15.4854 10.5636 14.7522 11.1663 13.7276 11.8593C13.0044 12.3515 12.6428 12.7131 12.6428 13.3058V13.4364C12.6428 13.8482 12.3314 14.1796 11.8091 14.1796ZM11.8392 17.2031C11.2667 17.2031 10.7142 16.741 10.7142 16.1183C10.7142 15.4955 11.2566 15.0334 11.8392 15.0334C12.4318 15.0334 12.9642 15.4854 12.9642 16.1183C12.9642 16.7511 12.4218 17.2031 11.8392 17.2031Z" fill="#445B6A"/>
</svg>
