<svg width="24" height="24" viewBox="0 0 24 24" fill="none" xmlns="http://www.w3.org/2000/svg">
<path d="M5.90793 21.2461H18.1021C20.2014 21.2461 21.2462 20.2014 21.2462 18.1323V5.86773C21.2462 3.79855 20.2014 2.75391 18.1021 2.75391H5.90793C3.81865 2.75391 2.75391 3.78848 2.75391 5.86773V18.1323C2.75391 20.2115 3.81865 21.2461 5.90793 21.2461ZM11.8242 14.1646C11.2718 14.1646 10.9805 13.8834 10.9805 13.341V13.2003C10.9805 12.1657 11.543 11.6032 12.2963 11.0809C13.2305 10.4481 13.6624 10.0865 13.6624 9.36329C13.6624 8.56975 13.0396 8.02735 12.0854 8.02735C11.3822 8.02735 10.8499 8.37891 10.5284 8.95144C10.187 9.35322 10.0865 9.66462 9.49388 9.66462C9.14232 9.66462 8.77066 9.41352 8.77066 8.94141C8.77066 8.76059 8.80079 8.58985 8.85102 8.41906C9.12222 7.44475 10.3376 6.60098 12.1457 6.60098C13.9436 6.60098 15.5006 7.53514 15.5006 9.28294C15.5006 10.5485 14.7673 11.1512 13.7427 11.8443C13.0195 12.3365 12.668 12.6981 12.668 13.2908V13.4213C12.668 13.8332 12.3465 14.1646 11.8242 14.1646ZM11.8544 17.1881C11.2818 17.1881 10.7294 16.726 10.7294 16.1032C10.7294 15.4805 11.2718 15.0184 11.8544 15.0184C12.447 15.0184 12.9794 15.4704 12.9794 16.1032C12.9794 16.736 12.437 17.1881 11.8544 17.1881Z" fill="#475569"/>
</svg>
