<svg fill="none" height="16" viewBox="0 0 19 16" width="19" xmlns="http://www.w3.org/2000/svg"><g clip-rule="evenodd" fill="#e37400" fill-rule="evenodd"><path d="m18.2829 7.99488-1.8119-1.96966c-.12-.11817-.2816-.1844-.4501-.1844-.1684 0-.33.06623-.45.1844l-1.8143 1.96966c-.0592.05858-.1062.12831-.1382.20517-.0321.07685-.0486.15931-.0486.24259s.0165.16574.0486.24259c.032.07686.079.14659.1382.20517h1.5011c-.2808 1.05484-.8351 2.0169-1.6068 2.7888-.7718.772-1.7337 1.3265-2.7884 1.6076-1.23269.3224-2.5345.2597-3.73044-.1797-1.19595-.4394-2.22866-1.2345-2.95928-2.2784l-1.26555.8712c.91164 1.3025 2.2003 2.2945 3.69263 2.8426s3.11673.626 4.65464.2233c1.3832-.3668 2.6375-1.1102 3.6232-2.1475s1.6641-2.3278 1.9599-3.7279h1.4442c.0591-.05858.1061-.12828.1382-.20508.032-.07681.0486-.1592.0487-.24244s-.0162-.16567-.0481-.24256-.0787-.14671-.1377-.20544z"/><path d="m5.15047 6.9655c.05921-.05858.1062-.12831.13828-.20516.03207-.07686.04859-.15932.04859-.2426s-.01652-.16573-.04859-.24259c-.03208-.07686-.07907-.14659-.13828-.20516h-1.69011c.28754-1.04153.84255-1.98972 1.60992-2.75037.76738-.76066 1.7204-1.30732 2.76442-1.58569 1.23268-.3228 2.5347-.26002 3.7306.17989s2.2282 1.23581 2.9579 2.28046l1.2667-.87232c-.9119-1.30315-2.201-2.29577-3.694-2.844295-1.4929-.5485297-3.11807-.62666-4.65676-.223882-1.3725.365062-2.61805 1.100857-3.60016 2.126757-.98212 1.0259-1.66292 2.30233-1.9678 3.68945h-1.684314c-.059201.05857-.1061998.1283-.1382751.20516-.0320754.07686-.0485909.15931-.0485909.24259s.0165155.16574.0485909.2426c.0320753.07685.0790741.14658.1382751.20516l1.900064 1.89891c.12001.11816.28167.18439.45008.18439.16842 0 .33007-.06623.45008-.18439z"/></g></svg>