<svg width="22" height="22" viewBox="0 0 22 22" fill="none" xmlns="http://www.w3.org/2000/svg">
<path d="M3.16888 10.2404H18.831C20.2398 10.2404 20.9488 9.5498 20.9488 8.13182V4.61453C20.9488 3.20579 20.2398 2.52441 18.831 2.52441H3.16888C1.76014 2.52441 1.05115 3.20579 1.05115 4.61453V8.13182C1.05115 9.5498 1.76014 10.2404 3.16888 10.2404ZM3.27939 8.85004C2.73615 8.85004 2.44151 8.56459 2.44151 7.99373V4.77105C2.44151 4.19099 2.73615 3.91478 3.27939 3.91478H18.7204C19.2637 3.91478 19.5584 4.19099 19.5584 4.77105V7.99373C19.5584 8.56459 19.2637 8.85004 18.7204 8.85004H3.27939ZM3.16888 19.4756H18.831C20.2398 19.4756 20.9488 18.7942 20.9488 17.3763V13.8497C20.9488 12.4502 20.2398 11.7596 18.831 11.7596H3.16888C1.76014 11.7596 1.05115 12.4502 1.05115 13.8497V17.3763C1.05115 18.7942 1.76014 19.4756 3.16888 19.4756ZM3.27939 18.0853C2.73615 18.0853 2.44151 17.7998 2.44151 17.2289V14.0063C2.44151 13.4262 2.73615 13.15 3.27939 13.15H18.7204C19.2637 13.15 19.5584 13.4262 19.5584 14.0063V17.2289C19.5584 17.7998 19.2637 18.0853 18.7204 18.0853H3.27939Z" fill="#A0AEB8"/>
</svg>
