<svg width="20" height="16" viewBox="0 0 20 16" fill="none" xmlns="http://www.w3.org/2000/svg">
<path d="M0.851074 7.38888C0.851074 7.89945 1.26125 8.30963 1.77186 8.30963C2.29082 8.30963 2.70097 7.89945 2.70097 7.38888V6.83641C2.70097 5.50548 3.61336 4.62659 4.98615 4.62659H11.3059V6.37602C11.3059 6.82802 11.5905 7.11263 12.0509 7.11263C12.2518 7.11263 12.461 7.0373 12.62 6.90338L15.7841 4.29177C16.1608 3.99041 16.1608 3.4882 15.7841 3.17009L12.62 0.541769C12.461 0.416198 12.2518 0.33252 12.0509 0.33252C11.5905 0.33252 11.3059 0.625484 11.3059 1.07748V2.81016H5.1619C2.53354 2.81016 0.851074 4.32523 0.851074 6.70248V7.38888ZM8.69425 9.63216C8.69425 9.18016 8.40968 8.89555 7.94929 8.89555C7.7484 8.89555 7.53914 8.97088 7.38011 9.09645L4.21604 11.7081C3.83936 12.0178 3.83936 12.5116 4.21604 12.8297L7.38011 15.4581C7.53914 15.592 7.7484 15.6673 7.94929 15.6673C8.40968 15.6673 8.69425 15.3827 8.69425 14.9307V13.1813H14.8383C17.4666 13.1813 19.149 11.6578 19.149 9.28898V8.60259C19.149 8.08363 18.7389 7.67348 18.22 7.67348C17.7093 7.67348 17.2991 8.08363 17.2991 8.60259V9.15505C17.2991 10.4776 16.3868 11.3649 15.014 11.3649H8.69425V9.63216Z" fill="#AF38F9"/>
</svg>
