<svg width="24" height="24" viewBox="0 0 24 24" fill="none" xmlns="http://www.w3.org/2000/svg">
<path d="M1.02148 11.2667C1.02148 11.8794 1.5137 12.3716 2.12643 12.3716C2.74918 12.3716 3.24136 11.8794 3.24136 11.2667V10.6037C3.24136 9.00663 4.33623 7.95196 5.98357 7.95196H13.5673V10.0513C13.5673 10.5937 13.9088 10.9352 14.4612 10.9352C14.7023 10.9352 14.9534 10.8448 15.1442 10.6841L18.9411 7.55017C19.3932 7.18854 19.3932 6.58589 18.9411 6.20416L15.1442 3.05017C14.9534 2.89949 14.7023 2.79907 14.4612 2.79907C13.9088 2.79907 13.5673 3.15063 13.5673 3.69303V5.77224H6.19447C3.04044 5.77224 1.02148 7.59033 1.02148 10.443V11.2667ZM10.4333 13.9586C10.4333 13.4162 10.0918 13.0747 9.53934 13.0747C9.29827 13.0747 9.04717 13.1651 8.85633 13.3158L5.05944 16.4497C4.60743 16.8214 4.60743 17.414 5.05944 17.7957L8.85633 20.9497C9.04717 21.1104 9.29827 21.2008 9.53934 21.2008C10.0918 21.2008 10.4333 20.8593 10.4333 20.3169V18.2176H17.8061C20.9601 18.2176 22.979 16.3895 22.979 13.5468V12.7232C22.979 12.1004 22.4869 11.6082 21.8642 11.6082C21.2514 11.6082 20.7591 12.1004 20.7591 12.7232V13.3861C20.7591 14.9732 19.6643 16.0379 18.017 16.0379H10.4333V13.9586Z" fill="#445B6A"/>
</svg>
