<svg fill="none" height="24" viewBox="0 0 24 24" width="24" xmlns="http://www.w3.org/2000/svg" xmlns:xlink="http://www.w3.org/1999/xlink"><clipPath id="a"><path d="m3 0h18.71v24h-18.71z"/></clipPath><g clip-path="url(#a)" fill="#37404a"><path d="m6.37983 24h11.95997c2.24 0 3.37-1.16 3.37-3.42v-10.36c0-1.32003-.16-1.91003-.97-2.75003l-6.4-6.47998c-.77-.8-1.42-.98999-2.59-.98999h-5.35996c-2.24 0-3.38001 1.14997-3.38001 3.40997v17.17003c-.01 2.27 1.12 3.42 3.37 3.42zm.06994-1.6c-1.22 0-1.85998-.64-1.85998-1.85v-17.11c0-1.17.64-1.84997 1.88-1.84997h5.12001v6.62994c0 1.35.69 2.01003 1.99 2.01003h6.55v10.32c0 1.2-.63 1.85-1.86 1.85zm7.31003-13.67002c-.49 0-.67-.18998-.67-.66998v-6.15003l6.72 6.82001z"/><path d="m8.51978 20.7184c-.41 0-.75-.34-.75-.75v-4.82c0-.41.34-.75.75-.75s.75.34.75.75v4.82c0 .41-.33.75-.75.75z"/><path d="m12.46 20.7219c-.41 0-.75-.34-.75-.75v-7.8c0-.41.34-.75.75-.75s.75.34.75.75v7.8c0 .41-.34.75-.75.75z"/><path d="m16.1899 20.7203c-.41 0-.75-.34-.75-.75v-3.4c0-.41.34-.75.75-.75s.75.34.75.75v3.4c0 .41-.33.75-.75.75z"/></g></svg>