<svg fill="none" height="38" viewBox="0 0 38 38" width="38" xmlns="http://www.w3.org/2000/svg" xmlns:xlink="http://www.w3.org/1999/xlink"><clipPath id="a"><path d="m0 0h38v38h-38z"/></clipPath><g clip-path="url(#a)"><path d="m21.1286 30.1026.4748-.0963c.6267-.1271.6267-1.0228 0-1.1499l-.4748-.0962c-1.1964-.2426-2.1314-1.1776-2.3739-2.3739l-.0963-.4749c-.127-.6267-1.0228-.6267-1.1498 0l-.0963.4749c-.2425 1.1963-1.1776 2.1313-2.3739 2.3739l-.4748.0962c-.6267.1271-.6267 1.0228 0 1.1499l.4748.0963c1.1963.2425 2.1314 1.1775 2.3739 2.3739l.0963.4748c.127.6267 1.0228.6267 1.1498 0l.0963-.4748c.2425-1.1964 1.1775-2.1314 2.3739-2.3739z" fill="#f9d366"/><g fill="#d83"><path d="m29.48 33.0813c-.3167 0-.5734-.2567-.5734-.5734v-1.5526c0-.3167.2567-.5735.5734-.5735s.5735.2568.5735.5735v1.5526c0 .3167-.2568.5734-.5735.5734z"/><path d="m29.48 37.261c-.3167 0-.5734-.2567-.5734-.5734v-1.5527c0-.3167.2567-.5734.5734-.5734s.5735.2567.5735.5734v1.5527c0 .3168-.2568.5734-.5735.5734z"/><path d="m32.346 34.3949h-1.5527c-.3167 0-.5734-.2567-.5734-.5734s.2567-.5735.5734-.5735h1.5527c.3167 0 .5734.2568.5734.5735s-.2567.5734-.5734.5734z"/><path d="m28.1663 34.3949h-1.5526c-.3167 0-.5734-.2567-.5734-.5734s.2567-.5735.5734-.5735h1.5526c.3167 0 .5734.2568.5734.5735s-.2567.5734-.5734.5734z"/><path d="m3.44002 25.8557c-.31669 0-.57341-.2567-.57341-.5734v-1.5526c0-.3167.25672-.5735.57341-.5735s.57342.2568.57342.5735v1.5526c0 .3167-.25673.5734-.57342.5734z"/><path d="m3.44002 30.0354c-.31669 0-.57341-.2567-.57341-.5734v-1.5526c0-.3167.25672-.5735.57341-.5735s.57342.2568.57342.5735v1.5526c0 .3167-.25673.5734-.57342.5734z"/><path d="m6.30634 27.1693h-1.55266c-.31669 0-.57341-.2567-.57341-.5734s.25672-.5734.57341-.5734h1.55266c.31669 0 .57341.2567.57341.5734s-.25672.5734-.57341.5734z"/><path d="m2.12607 27.1693h-1.552656c-.316691 0-.573414-.2567-.573414-.5734s.256723-.5734.573414-.5734h1.552656c.31669 0 .57341.2567.57341.5734s-.25672.5734-.57341.5734z"/><path d="m29.5541 3.43874c-.3167 0-.5734-.25672-.5734-.57341v-1.55266c0-.316689.2567-.573412.5734-.573412s.5734.256723.5734.573412v1.55266c0 .31662-.2567.57341-.5734.57341z"/><path d="m29.5541 7.61836c-.3167 0-.5734-.25673-.5734-.57342v-1.55258c0-.31669.2567-.57341.5734-.57341s.5734.25672.5734.57341v1.55266c0 .31661-.2567.57334-.5734.57334z"/><path d="m32.4204 4.7523h-1.5527c-.3167 0-.5734-.25673-.5734-.57342s.2567-.57341.5734-.57341h1.5527c.3167 0 .5734.25672.5734.57341s-.2567.57342-.5734.57342z"/><path d="m28.2407 4.7523h-1.5526c-.3167 0-.5734-.25673-.5734-.57342s.2567-.57341.5734-.57341h1.5526c.3167 0 .5734.25672.5734.57341s-.2567.57342-.5734.57342z"/></g><g fill="#f9d366"><path d="m19.4737 11.5975 2.273-.4608c1.0731-.2176 1.0731-1.75122 0-1.96883l-2.273-.46082c-2.2399-.45415-3.9905-2.20474-4.4447-4.44466l-.4608-2.27303c-.2176-1.073053-1.7512-1.073053-1.9688 0l-.4608 2.27303c-.4541 2.23992-2.20475 3.99051-4.44467 4.44466l-2.27302.46082c-1.07305.21761-1.07305 1.75123 0 1.96883l2.27302.4608c2.23992.4541 3.99057 2.2047 4.44467 4.4447l.4608 2.273c.2176 1.073 1.7512 1.073 1.9688 0l.4608-2.273c.4541-2.24 2.2048-3.9905 4.4447-4.4447z"/><path d="m35.6365 19.5068 1.7457-.354c.8241-.1671.8241-1.3449 0-1.512l-1.7457-.3539c-1.7202-.3488-3.0646-1.6932-3.4133-3.4134l-.354-1.7456c-.1671-.8242-1.3449-.8242-1.5119 0l-.354 1.7456c-.3488 1.7202-1.6931 3.0646-3.4134 3.4134l-1.7456.3539c-.8241.1671-.8241 1.3449 0 1.512l1.7456.354c1.7203.3488 3.0647 1.6931 3.4134 3.4134l.354 1.7456c.1671.8241 1.3449.8241 1.5119 0l.354-1.7456c.3488-1.7202 1.6933-3.0647 3.4133-3.4134z"/></g></g></svg>