<svg fill="none" height="38" viewBox="0 0 38 38" width="38" xmlns="http://www.w3.org/2000/svg"><path d="m19.2633 15.7858c-4.907-4.9064-10.28762-7.48115-12.01848-5.7509-.18993.1989-.32968.4402-.40771.704l-.02786-.0279-1.65298 6.774-1.64603 6.7538-1.95117 7.9972-1.235156 5.0647 7.312786-2.7673 9.3013-3.5193 7.4204-2.8077-.0088-.0089c.2484-.0792.4756-.2136.6647-.3931 1.7309-1.7309-.8439-7.1115-5.751-12.0186z" fill="#af38f9"/><path d="m19.2633 15.7837c-4.9069-4.9069-10.28764-7.48173-12.01827-5.7511-1.73064 1.7306.84422 7.1114 5.75107 12.0183 4.9069 4.9068 10.2877 7.4817 12.0183 5.7511 1.7306-1.7307-.8442-7.1114-5.7511-12.0183z" fill="#d1e3ee"/><path d="m23.6848 28.4256c-.886.0155-1.765-.1589-2.5779-.5115l-6.065 2.2949-9.30447 3.5162-4.989349 1.8878-.424167 1.7391 7.312776-2.7672 9.30131-3.5193 6.8101-2.5767z" fill="#902ecc"/><g fill="#ffbf41"><path d="m31.3452 23.4243c-.0759-.0003-.151-.0138-.2223-.0399-3.2139-1.2041-6.688-1.5417-10.0736-.9788l-2.2614.3767c-.3462.0494-.6668-.1912-.7162-.5373-.0477-.3344.1755-.6474.5073-.7111l2.262-.3799c3.6049-.599 7.304-.2398 10.7264 1.0414.329.1183.4999.4809.3816.8099-.0913.2542-.3338.4224-.6038.419z"/><path d="m19.9496 19.6257c-.3496-.0021-.6314-.2872-.6294-.6368.0015-.2414.1399-.4609.3572-.5661l13.2948-6.3309c.3157-.1503.6935-.0163.8439.2995.1504.3157.0163.6935-.2995.8439l-13.2948 6.3309c-.0851.0398-.1781.0601-.2722.0595z"/><path d="m12.5463 18.3596c-.0835.0001-.1662-.0164-.2431-.0488-.3228-.1346-.4752-.5053-.3406-.828v-.0001l.9205-2.2088c1.4163-3.3843 1.7465-7.12485.9452-10.70487-.0822-.33989.1268-.68192.4666-.76406.3399-.08214.6819.12685.7641.46666.0018.00752.0035.01504.0051.02264.8584 3.835.5044 7.84193-1.013 11.46713l-.9211 2.2088c-.0983.2356-.3284.3891-.5837.3894z"/></g><path d="m34.5106 25.9562c.6992 0 1.2661-.5669 1.2661-1.2662s-.5669-1.2662-1.2661-1.2662c-.6993 0-1.2662.5669-1.2662 1.2662s.5669 1.2662 1.2662 1.2662z" fill="#d5557e"/><path d="m19.3165 8.23059c.6993 0 1.2662-.56689 1.2662-1.26617 0-.69929-.5669-1.26618-1.2662-1.26618s-1.2661.56689-1.2661 1.26618c0 .69928.5668 1.26617 1.2661 1.26617z" fill="#dd95c1"/><path d="m13.6187 2.53235c-.6993 0-1.2662-.56685-1.2662-1.26618 0-.69932.5669-1.26617 1.2662-1.26617s1.2662.56685 1.2662 1.26617c0 .69933-.5669 1.26618-1.2662 1.26618z" fill="#7fcccb"/><g fill="#2276bb"><path d="m31.3452 5.0643c-.3497 0-.6331-.28346-.6331-.63309v-.63308c0-.34963.2834-.63309.6331-.63309.3496 0 .633.28346.633.63309v.63308c0 .34963-.2833.63309-.633.63309z"/><path d="m31.3452 1.89926c-.3497 0-.6331-.28346-.6331-.63309v-.633083c0-.349622.2834-.633087.6331-.633087.3496 0 .633.283465.633.633087v.633083c0 .34963-.2833.63309-.633.63309z"/><path d="m33.2444 3.16559h-.633c-.3497 0-.6331-.28347-.6331-.63309s.2834-.63309.6331-.63309h.633c.3497 0 .6331.28347.6331.63309s-.2834.63309-.6331.63309z"/><path d="m30.079 3.16559h-.6331c-.3496 0-.6331-.28347-.6331-.63309s.2835-.63309.6331-.63309h.6331c.3496 0 .6331.28347.6331.63309s-.2834.63309-.6331.63309z"/></g><path d="m5.34934 18.3601c-.07091-.2709-.13421-.5444-.19309-.823l-1.64603 6.7538.12662 1.5441c.27595 3.2919 1.6901 6.3849 3.99921 8.7473l9.30195-3.5161c-.0507-.0159-.1032-.0273-.1538-.0443-5.6405-2.115-9.90374-6.8357-11.43486-12.6618z" fill="#fff"/><path d="m16.938 31.0656c-.0507-.0158-.1032-.0272-.1539-.0443-.6093-.2307-1.2061-.4933-1.7878-.7869l-8.37826 3.1698c.31765.412.6577.8062 1.01864 1.1807z" fill="#f6f6e7"/><path d="m26.9136 7.58398v3.17872h-3.1788v-3.17872z" fill="#c9da53"/><path d="m15.518 18.9927c-.3497-.0001-.633-.2836-.633-.6332.0001-.1794.0762-.3502.2094-.4703l6.3309-5.6977c.2644-.2288.6642-.1999.893.0645.2224.257.2022.6438-.0459.8762l-6.3309 5.6978c-.1162.1047-.2671.1626-.4235.1627z" fill="#ffbf41"/><g fill="#ffdb43"><path d="m33.8775 16.4598c-.3496 0-.6331-.2835-.6331-.6331v-.6331c0-.3496.2835-.6331.6331-.6331s.6331.2835.6331.6331v.6331c0 .3496-.2834.6331-.6331.6331z"/><path d="m36.1161 15.5321c-.168.0005-.3292-.0663-.4476-.1855l-.4476-.4475c-.2428-.2515-.2359-.6524.0155-.8952.2454-.237.6343-.237.8797 0l.4476.4476c.2472.2473.2472.6481-.0001.8953-.1187.1186-.2796.1853-.4475.1853z"/><path d="m37.0429 13.2945h-.6331c-.3496 0-.6331-.2835-.6331-.6331s.2835-.6331.6331-.6331h.6331c.3496 0 .6331.2835.6331.6331s-.2834.6331-.6331.6331z"/><path d="m35.6685 11.5049c-.3496-.0001-.633-.2836-.6329-.6333 0-.1678.0667-.3288.1853-.4474l.4476-.44762c.2515-.24294.6523-.23598.8952.01551.2369.24531.2369.63431 0 .87971l-.4476.4476c-.1187.1187-.2797.1855-.4476.1855z"/><path d="m33.8775 10.7625c-.3496 0-.6331-.2834-.6331-.633v-.63313c0-.34962.2835-.63309.6331-.63309s.6331.28347.6331.63309v.63313c0 .3496-.2834.633-.6331.633z"/><path d="m32.0865 11.5048c-.1679 0-.3289-.0668-.4476-.1855l-.4476-.4476c-.2429-.2515-.236-.6523.0155-.89517.2453-.23694.6343-.23694.8797 0l.4476.44757c.2472.2473.2471.6481-.0002.8954-.1186.1186-.2796.1853-.4474.1853z"/><path d="m3.48935.632812.97812 1.982198 2.18731.31781-1.58272 1.54283.37352 2.17845-1.95623-1.02877-1.95624 1.02877.37352-2.17845-1.582716-1.54283 2.187316-.31781z"/></g><path d="m37.476 34.2912c-.3011-1.0671-.9945-1.9809-1.9411-2.5583l-.2608-.3912c-1.4625-2.1871-3.7623-3.6742-6.3568-4.1107-.3462-.0493-.6668.1912-.7162.5374-.0477.3344.1755.6474.5073.7111 1.8714.3176 3.5768 1.2684 4.831 2.6931-1.0544.1897-1.9767.823-2.5323 1.7391-.6818 1.2212-.2446 2.7638.9765 3.4456 1.2212.6818 2.7638.2446 3.4456-.9765.2604-.5028.4011-1.059.4109-1.6252.6736.9784.7275 2.256.1386 3.2876-.1784.3008-.0792.6892.2215.8675.3007.1784.6891.0792.8675-.2215.0057-.0096.0112-.0194.0164-.0293.5751-1.0255.7162-2.2385.3919-3.3687zm-3.1509.4717c-.3379.6122-1.1081.8346-1.7203.4967-.6123-.3379-.8347-1.1081-.4968-1.7203.0019-.0034.0038-.0069.0057-.0103.3736-.6117 1.0038-1.0218 1.7144-1.1155.1101-.003.2191.0223.3166.0734.5343.2982.5628 1.591.1804 2.276z" fill="#2bb3ce"/></svg>