<svg fill="none" height="38" viewBox="0 0 38 38" width="38" xmlns="http://www.w3.org/2000/svg" xmlns:xlink="http://www.w3.org/1999/xlink"><clipPath id="a"><path d="m0 0h38v38h-38z"/></clipPath><g clip-path="url(#a)"><path d="m13.5679 18.2501-3.4715-2.395c-.13372-.0914-.15145-.2819-.0369-.3964l1.7498-1.7498c.2127-.2126.5078-.3213.8075-.2974l5.2063.3863z" fill="#3c85c9"/><path d="m20.295 24.7364 2.0193 3.3362c.0914.1337.2819.1515.3964.0369l1.7498-1.7498c.2126-.2126.3213-.5077.2974-.8075l-.3913-4.9663z" fill="#3c85c9"/><path d="m13.4685 28.3077-3.6069-3.6069c-.11972-.1197-.13939-.3068-.04721-.4488l2.37911-3.6661 5.3899 5.3899-3.6661 2.3791c-.1421.0923-.3292.0725-.4488-.0472z" fill="#e82a40"/><path d="m15.9613 24.3535-3.9096 2.5372 1.4167 1.4167c.1197.1197.3068.1394.4488.0473l3.6661-2.3792z" fill="#d6243a"/><path d="m33.2707 12.1432-14.7225 14.7224c-.1916.1915-.5022.1915-.6937 0l-6.5509-6.551c-.1916-.1915-.1916-.5021 0-.6937l14.9236-14.92359c2.1429-2.14284 4.8335-3.66678 7.7879-4.360947 1.5932-.3743591 3.0774-.522871 3.6156.015215.4652.465203.439 1.660272.2043 3.028422-.5706 3.32634-2.1821 6.38088-4.5643 8.7632z" fill="#efefef"/><path d="m37.8351 3.37962c.2347-1.36814.2609-2.563214-.2044-3.028417-.2464-.246406-.6915-.34853113-1.2542-.351203.0112.508992-.053 1.11417-.1633 1.75772-.5706 3.32634-2.1821 6.38081-4.5643 8.76318l-14.7225 14.7224c-.1916.1915-.5022.1915-.6937 0l1.6219 1.6219c.1915.1915.5021.1915.6937 0l14.7224-14.7224c2.3823-2.38237 3.9938-5.43684 4.5644-8.76318z" fill="#dcdcdc"/><path d="m33.2707 12.1429-1.0764 1.0764-7.2447-7.24463 1.2776-1.27753c2.1425-2.14255 4.8333-3.66663 7.7875-4.360872 1.5937-.3741367 3.0778-.522797 3.6157.015141.4655.4655.4396 1.660351.2044 3.028721-.5709 3.32604-2.182 6.38073-4.5641 8.76277z" fill="#e82a40"/><path d="m37.835 3.37977c.2352-1.36837.2611-2.563215-.2043-3.028715-.2464-.246332-.6914-.34830891-1.254-.351055.0113.508992-.053 1.11417-.1636 1.7578-.5709 3.32604-2.182 6.38066-4.5642 8.7628l-1.0764 1.0764 1.6219 1.6219 1.0764-1.0764c2.3822-2.38199 3.9933-5.43669 4.5642-8.76273z" fill="#d6243a"/><path d="m21.5311 9.38965 7.2435 7.24355-2.2704 2.2704-7.2435-7.2436z" fill="#3c85c9"/><path d="m24.8793 17.2871 2.2704-2.2704 1.6217 1.6217-2.2704 2.2704z" fill="#3479ba"/><path d="m8.28835 26.7542c-2.949.8792-7.0458 3.4757-8.28637152 11.0448-.02026168.1235.09410942.2271.21508552.1949 1.467306-.391 8.807616-2.6172 10.786836-8.4757.5646-1.6714-1.008-3.2731-2.71555-2.764z" fill="#f27a2a"/><path d="m8.28858 26.7542c-.18696.0558-.37859.1185-.57386.1889.85122.483 1.3539 1.5145.99565 2.575-1.45877 4.318-5.82959 6.6626-8.6150944 7.7537-.0324336.1733-.0638281.3484-.09314453.5272-.02026177.1235.09410933.2271.21508593.1949 1.467303-.391 8.807693-2.6172 10.786883-8.4757.5647-1.6714-1.00797-3.2731-2.71552-2.764z" fill="#f25817"/></g></svg>