<svg fill="none" height="24" viewBox="0 0 24 24" width="24" xmlns="http://www.w3.org/2000/svg" xmlns:xlink="http://www.w3.org/1999/xlink"><clipPath id="a"><path d="m0 0h24v8.57143h-24z" transform="matrix(.70710678 -.70710678 .70710678 .70710678 0 17)"/></clipPath><g clip-path="url(#a)" fill="#37404a"><path d="m22.4254 6.69645-15.75839 15.75835c-.33335.3334-.87884.3334-1.21219 0l-4.848728-4.8487c-.333351-.3334-.333351-.8788 0-1.2122l15.758408-15.758371c.3333-.333351.8788-.33335 1.2122 0l4.8487 4.848731c.3333.33335.3333.87883 0 1.21219zm-16.36448 14.54615 15.15228-15.15225-4.2426-4.24264-15.15233 15.15229z"/><path d="m6.36389 18.5146c-.50306.5031-1.31522.5031-1.81828 0-.50305-.503-.50305-1.3152 0-1.8183.50306-.503 1.31522-.503 1.81828 0 .50305.5031.50305 1.3153 0 1.8183zm-1.21219-1.2122c-.1697.1697-.1697.4364 0 .6061.16971.1697.43639.1697.6061 0 .1697-.1697.1697-.4364 0-.6061-.16971-.1697-.43639-.1697-.6061 0z"/><path d="m6.36397 11.8487-.90914.9091 2.42437 2.4244.90914-.9092z"/><path d="m10.0004 8.21196-.90909.90913 2.42439 2.42441.9091-.9092z"/><path d="m13.6369 4.57524-.9091.90914 2.4243 2.42436.9092-.90914z"/><path d="m8.18209 10.0284-.90914.9091 3.03045 3.0305.9091-.9092z"/><path d="m11.8188 6.39164-.9091.90914 3.0304 3.03042.9092-.9091z"/><path d="m15.4553 2.75492-.9092.90914 3.0305 3.03046.9091-.90914z"/></g></svg>