<svg width="24" height="24" viewBox="0 0 24 24" fill="none" xmlns="http://www.w3.org/2000/svg">
<path d="M10.2673 17.9012C11.9347 17.9012 13.4916 17.3588 14.7573 16.4548L19.5184 21.2159C19.7394 21.4369 20.0307 21.5474 20.332 21.5474C20.9849 21.5474 21.457 21.0452 21.457 20.4023C21.457 20.101 21.3567 19.8197 21.1355 19.5988L16.4046 14.8576C17.399 13.5519 17.9916 11.9347 17.9916 10.1769C17.9916 5.92797 14.5161 2.45251 10.2673 2.45251C6.00836 2.45251 2.54297 5.92797 2.54297 10.1769C2.54297 14.4257 6.00836 17.9012 10.2673 17.9012ZM10.2673 16.2338C6.94251 16.2338 4.21037 13.4916 4.21037 10.1769C4.21037 6.86213 6.94251 4.11996 10.2673 4.11996C13.582 4.11996 16.3242 6.86213 16.3242 10.1769C16.3242 13.4916 13.582 16.2338 10.2673 16.2338Z" fill="#445B6A"/>
</svg>
