<svg fill="none" height="25" viewBox="0 0 24 25" width="24" xmlns="http://www.w3.org/2000/svg"><rect height="23" rx="4.5" stroke="#af38f9" width="23" x=".5" y="1.26233"/><path d="m10.8063 16.3748c1.0437 0 2.0062-.3375 2.7937-.9l2.9625 2.9625c.1375.1375.3188.2063.5125.2063.4062 0 .6938-.3125.6938-.7125 0-.1875-.0625-.3625-.2-.5l-2.9438-2.95c.6188-.8125.9875-1.8188.9875-2.9125 0-2.64377-2.1625-4.80627-4.8062-4.80627-2.6438 0-4.8063 2.1625-4.8063 4.80627 0 2.6437 2.1625 4.8062 4.8063 4.8062zm0-1.0375c-2.06255 0-3.7688-1.7062-3.7688-3.7687 0-2.06252 1.70625-3.76877 3.7688-3.76877 2.0625 0 3.7687 1.70625 3.7687 3.76877 0 2.0625-1.7062 3.7687-3.7687 3.7687z" fill="#af38f9"/></svg>