<svg fill="none" height="16" viewBox="0 0 16 16" width="16" xmlns="http://www.w3.org/2000/svg"><path d="m14.6464 15.3536c.1953.1952.5119.1952.7072 0 .1952-.1953.1952-.5119 0-.7072zm-3.4693-4.8835c-.1953-.1953-.5118-.1953-.7071 0-.1953.1952-.1953.5118 0 .7071zm.7775-3.74291c0 2.88689-2.34037 5.22721-5.22732 5.22721v1c3.43922 0 6.22732-2.788 6.22732-6.22721zm-5.22732 5.22721c-2.88696 0-5.22728-2.34032-5.22728-5.22721h-1c0 3.43921 2.78805 6.22721 6.22728 6.22721zm-5.22728-5.22721c0-2.88689 2.34032-5.22719 5.22728-5.22719v-1c-3.43923 0-6.22728 2.788-6.22728 6.22719zm5.22728-5.22719c2.88695 0 5.22732 2.3403 5.22732 5.22719h1c0-3.43919-2.7881-6.22719-6.22732-6.22719zm8.62632 13.1464-4.1765-4.1763-.7071.7071 4.1764 4.1764z" fill="#37404a"/></svg>