<svg fill="none" height="24" viewBox="0 0 24 24" width="24" xmlns="http://www.w3.org/2000/svg"><path d="m17.8059 9.0962c1.9565 0 3.5481-1.59168 3.5481-3.5481s-1.5916-3.5481-3.5481-3.5481c-1.9564 0-3.5481 1.59168-3.5481 3.5481 0 .27927.0335.55073.0948.81161l-5.64618 3.13672c-.64286-.64531-1.53175-1.04534-2.51245-1.04534-1.95642 0-3.5481 1.59171-3.5481 3.54811s1.59168 3.5481 3.5481 3.5481c.9807 0 1.86959-.4 2.51245-1.0453l5.64618 3.1367c-.0613.2609-.0948.5323-.0948.8116 0 1.9564 1.5917 3.5481 3.5481 3.5481 1.9565 0 3.5481-1.5917 3.5481-3.5481s-1.5916-3.5481-3.5481-3.5481c-.9807 0-1.8696.4-2.5124 1.0453l-5.64619-3.1367c.06128-.2608.09476-.5323.09476-.8116s-.03348-.5507-.09476-.8116l5.64619-3.13673c.6428.6453 1.5317 1.04533 2.5124 1.04533zm0 7.7413c.8893 0 1.6128.7235 1.6128 1.6128s-.7235 1.6128-1.6128 1.6128c-.8892 0-1.6127-.7235-1.6127-1.6128s.7235-1.6128 1.6127-1.6128zm-11.61193-3.2255c-.88928 0-1.61277-.7235-1.61277-1.6128s.72349-1.6128 1.61277-1.6128c.88929 0 1.61278.7235 1.61278 1.6128s-.72349 1.6128-1.61278 1.6128zm11.61193-9.67667c.8893 0 1.6128.72349 1.6128 1.61277s-.7235 1.61277-1.6128 1.61277c-.8892 0-1.6127-.72349-1.6127-1.61277s.7235-1.61277 1.6127-1.61277z" fill="#bdbdbd"/></svg>