<svg fill="none" height="18" viewBox="0 0 16 18" width="16" xmlns="http://www.w3.org/2000/svg"><path d="m7.8478 1-6.64833 2.54152c-1.278305 10.00428 3.89959 13.14078 6.64833 13.45848 7.0763-.9242 7.5329-9.3574 6.8766-13.45848z" stroke="#4caf50"/><path clip-rule="evenodd" d="m8.64652 5.96045h-1.36816c-.27614 0-.49999.22386-.49999.5v1.48311c0 .08517.02129.16537.05885.23556h2.25045c.03756-.07019.05885-.15039.05885-.23556v-1.48311c0-.27614-.22385-.5-.5-.5zm-2.86815 1.98311c0 .08015.00628.15882.01839.23557-.55016.0025-.99537.44925-.99537.99999v2.71298c0 .5523.44772 1 1 1h4.32231c.5523 0 1-.4477 1-1v-2.71298c0-.55082-.4453-.99762-.9956-.99999.0121-.07675.0184-.15542.0184-.23557v-1.48311c0-.82843-.67155-1.5-1.49998-1.5h-1.36816c-.82842 0-1.49999.67157-1.49999 1.5zm2.69411 2.89174c0 .1744-.09142.3275-.22897.4139v.3902c0 .1429-.1158.2587-.25864.2587s-.25864-.1158-.25864-.2587v-.389c-.13859-.0862-.23084-.2399-.23084-.4151 0-.2698.21873-.4886.48855-.4886.26981 0 .48854.2188.48854.4886z" fill="#4caf50" fill-rule="evenodd"/></svg>