<svg width="22" height="22" viewBox="0 0 22 22" fill="none" xmlns="http://www.w3.org/2000/svg">
<path d="M10.9999 20.3918C16.1285 20.3918 20.3917 16.1379 20.3917 11C20.3917 5.8714 16.1193 1.60828 10.9907 1.60828C5.85282 1.60828 1.60815 5.8714 1.60815 11C1.60815 16.1379 5.86205 20.3918 10.9999 20.3918ZM10.9999 18.8265C6.65389 18.8265 3.18261 15.346 3.18261 11C3.18261 6.66325 6.6447 3.17358 10.9907 3.17358C15.3274 3.17358 18.8171 6.66325 18.8264 11C18.8356 15.346 15.3367 18.8265 10.9999 18.8265ZM7.79561 15.0053C8.05345 15.0053 8.24681 14.8949 8.44937 14.6923L14.6369 8.41272C14.8302 8.21935 14.9499 7.98914 14.9499 7.77735C14.9499 7.35385 14.6001 7.01316 14.1765 7.01316C13.9555 7.01316 13.7437 7.12364 13.5412 7.32619L7.36288 13.5966C7.15109 13.7991 7.04981 14.0293 7.04981 14.2411C7.04981 14.6555 7.35369 15.0053 7.79561 15.0053Z" fill="#445B6A"/>
</svg>
