<svg width="24" height="24" viewBox="0 0 24 24" fill="none" xmlns="http://www.w3.org/2000/svg">
<path d="M11.9999 22.2455C17.5948 22.2455 22.2455 17.6049 22.2455 12C22.2455 6.40508 17.5848 1.75439 11.9899 1.75439C6.38494 1.75439 1.75439 6.40508 1.75439 12C1.75439 17.6049 6.39501 22.2455 11.9999 22.2455ZM11.9999 20.5379C7.25884 20.5379 3.47198 16.741 3.47198 12C3.47198 7.26891 7.24881 3.46199 11.9899 3.46199C16.7209 3.46199 20.5278 7.26891 20.5379 12C20.548 16.741 16.731 20.5379 11.9999 20.5379ZM8.50435 16.3694C8.78562 16.3694 8.99657 16.2489 9.21754 16.0278L15.9675 9.17742C16.1785 8.96648 16.3091 8.71534 16.3091 8.48429C16.3091 8.02229 15.9274 7.65064 15.4653 7.65064C15.2243 7.65064 14.9932 7.77115 14.7723 7.99212L8.03228 14.8326C7.80124 15.0535 7.69075 15.3046 7.69075 15.5357C7.69075 15.9877 8.02225 16.3694 8.50435 16.3694Z" fill="#445B6A"/>
</svg>
