<svg fill="none" height="24" viewBox="0 0 24 24" width="24" xmlns="http://www.w3.org/2000/svg"><path d="m11.9924 24c6.5716 0 12.0076-5.436 12.0076-11.9924 0-6.57164-5.4511-12.0076-12.0076-12.0076-6.57158 0-11.9924 5.43596-11.9924 12.0076 0 6.5564 5.43595 11.9924 11.9924 11.9924zm0-1.7716c-5.66306 0-10.20564-4.5577-10.20564-10.2208 0-5.67825 4.52744-10.23599 10.20564-10.23599 5.6631 0 10.2208 4.55774 10.236 10.23599 0 5.6631-4.5577 10.2208-10.236 10.2208zm0-16.15647c.6057 0 1.1205-.51484 1.1205-1.12051 0-.6208-.5148-1.12051-1.1205-1.12051-.6208 0-1.1356.49971-1.1356 1.12051 0 .60567.5148 1.12051 1.1356 1.12051zm-4.96653 2.13502c.63597 0 1.13564-.51483 1.13564-1.12051 0-.62083-.49967-1.13564-1.13564-1.13564-.60567 0-1.12051.51481-1.12051 1.13564 0 .60568.51484 1.12051 1.12051 1.12051zm9.91793 0c.6057 0 1.1206-.51483 1.1206-1.12051 0-.62083-.5149-1.13564-1.1206-1.13564-.6208 0-1.1205.51481-1.1205 1.13564 0 .60568.4997 1.12051 1.1205 1.12051zm-4.9514 5.02715c.6663 0 1.2265-.5603 1.2265-1.2417 0-.0908 0-.1817-.0303-.2725l1.9988-2.4076c.1514-.19682.1968-.45424 0-.6208-.1363-.12116-.3937-.15143-.5754 0l-2.347 2.1047c-.0909-.0303-.1817-.0303-.2726-.0303-.6814 0-1.2416.5451-1.2416 1.2265s.5602 1.2417 1.2416 1.2417zm-7.02583-.106c.62081 0 1.13565-.5149 1.13565-1.1357s-.51484-1.1205-1.13565-1.1205c-.6057 0-1.12051.4997-1.12051 1.1205s.51481 1.1357 1.12051 1.1357zm14.03653 0c.6209 0 1.1206-.5149 1.1206-1.1357s-.4997-1.1205-1.1206-1.1205c-.6208 0-1.1204.4997-1.1204 1.1205s.4996 1.1357 1.1204 1.1357zm-11.94696 4.906c.62083 0 1.12051-.4997 1.12051-1.1205s-.49968-1.1205-1.12051-1.1205c-.62081 0-1.13565.4997-1.13565 1.1205s.51484 1.1205 1.13565 1.1205zm9.87256 0c.6057 0 1.1205-.4997 1.1205-1.1205s-.5148-1.1205-1.1205-1.1205c-.6208 0-1.1356.4997-1.1356 1.1205s.5148 1.1205 1.1356 1.1205z" fill="#37404a"/></svg>