<svg fill="none" height="48" viewBox="0 0 48 48" width="48" xmlns="http://www.w3.org/2000/svg"><path d="m46.0022 21.8715h-.2796l-7.0898.0169-.3436.0049c-1.0879.086-1.9471 1.0006-1.9446 2.114 0 1.1702.9475 2.1164 2.1164 2.1212h7.5932c1.0915-.0957 1.9482-1.0128 1.9458-2.1297-.0024-1.1315-.8821-2.0583-1.9978-2.1273zm-10.2736-6.5939.0049-.0049 5.0968-5.0917.2686-.27378c.7043-.83469.6571-2.09217-.1294-2.87961-.7999-.79713-2.0789-.83105-2.9187-.09086l-.1949.19868-5.0012 5.02747-.2396.2423c-.7079.8323-.6704 2.0825.1174 2.8712.8265.8274 2.1684.8274 2.9961.0012zm-11.7292-15.2776c-1.1326 0-2.0608.883145-2.1309 1.99647l.0012.28105.0205 7.08818v.34284c.0908 1.09156 1.0044 1.94926 2.1152 1.94926 1.1714 0 2.1201-.9486 2.1201-2.11765v-.00969l.0036-7.20085v-.38402c-.0968-1.092731-1.0152-1.94559-2.1297-1.94559zm-8.7283 12.2635-5.0895-5.09173-.27351-.27257c-.83737-.70143-2.09222-.65903-2.87998.12962-.80107.80077-.83132 2.08369-.09317 2.91838l.19724.1987 5.02782 4.9972.2433.2423c.8349.7099 2.0873.6675 2.8727-.1163.8289-.8323.8289-2.1697.0024-2.9971zm-5.56388 13.842c1.09148-.0848 1.94938-.9995 1.94938-2.1128-.0024-1.1739-.9487-2.1176-2.11759-2.1212h-7.59563c-1.090273.0957-1.94579503 1.0128-1.94337488 2.1261 0 1.1351.88093388 2.0594 1.99662488 2.1297h.27952l7.08983-.023h.34124zm2.56168 6.6133-.006.0085-5.09442 5.0929-.26985.2689c-.70184.8384-.65828 2.0946.12948 2.8797.80228.7995 2.07891.8334 2.9187.0957l.19729-.1999 5-5.0275.2408-.2411c.7079-.8335.6692-2.0886-.1174-2.8724-.8313-.8274-2.1697-.8274-2.9986-.0048zm13.8372 5.5739c-.0871-1.0903-1.0031-1.9493-2.114-1.9493-1.1725 0-2.12.9486-2.12 2.1177v.0084l-.0036 7.2021.0012.384c.0968 1.0879 1.0128 1.9444 2.1297 1.9444 1.1326 0 2.0571-.8844 2.1297-1.9965v-.281l-.023-7.0882zm14.7593-.4374-5.0291-4.9972-.2408-.2423c-.8337-.7099-2.0873-.6711-2.8739.1175-.8277.8274-.8289 2.1685-.0012 2.9972l.0073.0084 5.0883 5.093.2735.2665c.8398.7063 2.0934.6626 2.88-.1248.801-.8044.8313-2.0825.0956-2.9196z" fill="#af38f9" fill-opacity=".8" opacity=".8"/></svg>