<svg width="24" height="24" viewBox="0 0 24 24" fill="none" xmlns="http://www.w3.org/2000/svg">
<path d="M4.1301 17.9765H5.99837V19.7042C5.99837 21.7734 7.04306 22.8181 9.15245 22.8181H19.8801C21.9694 22.8181 23.0241 21.7734 23.0241 19.7042V9.02676C23.0241 6.9676 21.9694 5.92296 19.8801 5.92296H18.0118V4.29571C18.0118 2.22653 16.9571 1.18188 14.8578 1.18188H4.1301C2.03075 1.18188 0.976074 2.22653 0.976074 4.29571V14.8727C0.976074 16.9419 2.03075 17.9765 4.1301 17.9765ZM4.16023 16.3594C3.15579 16.3594 2.59329 15.827 2.59329 14.7823V4.38614C2.59329 3.3415 3.15579 2.79906 4.16023 2.79906H14.8377C15.822 2.79906 16.3946 3.3415 16.3946 4.38614V5.92296H9.15245C7.04306 5.92296 5.99837 6.95757 5.99837 9.02676V16.3594H4.16023ZM9.1725 21.2008C8.16806 21.2008 7.61559 20.6584 7.61559 19.6138V9.11714C7.61559 8.0725 8.16806 7.54013 9.1725 7.54013H19.8499C20.8443 7.54013 21.407 8.0725 21.407 9.11714V19.6239C21.407 20.6584 20.8443 21.2008 19.8499 21.2008H9.1725Z" fill="#445B6A"/>
</svg>
