<svg width="24" height="24" viewBox="0 0 24 24" fill="none" xmlns="http://www.w3.org/2000/svg">
<path d="M5.90793 21.2461H18.1021C20.2014 21.2461 21.2462 20.2014 21.2462 18.1323V5.86773C21.2462 3.79855 20.2014 2.75391 18.1021 2.75391H5.90793C3.81865 2.75391 2.75391 3.78848 2.75391 5.86773V18.1323C2.75391 20.2115 3.81865 21.2461 5.90793 21.2461ZM5.93806 19.6289C4.93362 19.6289 4.37112 19.0965 4.37112 18.0519V5.94809C4.37112 4.90345 4.93362 4.37108 5.93806 4.37108H18.072C19.0664 4.37108 19.6289 4.90345 19.6289 5.94809V18.0519C19.6289 19.0965 19.0664 19.6289 18.072 19.6289H5.93806Z" fill="#445B6A"/>
</svg>
