<svg fill="none" height="17" viewBox="0 0 17 17" width="17" xmlns="http://www.w3.org/2000/svg"><path d="m8.36719 16.3281c4.35941 0 7.96871-3.6093 7.96871-7.96872 0-4.35157-3.6171-7.968755-7.97652-7.968755-4.35157 0-7.960942 3.617185-7.960942 7.968755 0 4.35942 3.617182 7.96872 7.968752 7.96872zm0-1.3281c-3.6875 0-6.63281-2.9531-6.63281-6.64062 0-3.67969 2.9375-6.64063 6.625-6.64063 3.68752 0 6.64062 2.96094 6.64842 6.64063.0078 3.68752-2.9531 6.64062-6.64061 6.64062zm-.16407-5.02344c.39844 0 .63282-.24218.63282-.55468v-.09376c0-.4375.25781-.71093.79687-1.07031.75779-.5 1.29689-.96093 1.29689-1.89062 0-1.30469-1.15626-2-2.47658-2-1.34374 0-2.22656.63281-2.44531 1.35156-.03906.13281-.0625.25781-.0625.39063 0 .34374.27344.53906.53125.53906.44532 0 .51563-.24219.76563-.53125.25781-.42969.63281-.6875 1.15625-.6875.71094 0 1.17968.39843 1.17968 1 0 .53125-.33593.78906-1.01562 1.25781-.5625.39062-.97656.80469-.97656 1.57031v.10157c0 .41406.21875.61718.61718.61718zm-.01562 2.33594c.45312 0 .84375-.3594.84375-.8125 0-.4609-.38281-.8125-.84375-.8125s-.84375.3594-.84375.8125c0 .4453.39063.8125.84375.8125z" fill="#37404a"/></svg>