<svg width="20" height="20" viewBox="0 0 20 20" fill="none" xmlns="http://www.w3.org/2000/svg">
<path d="M10.0001 19.3917C15.1288 19.3917 19.3919 15.1377 19.3919 9.99991C19.3919 4.87128 15.1196 0.608154 9.99093 0.608154C4.85306 0.608154 0.608398 4.87128 0.608398 9.99991C0.608398 15.1377 4.86229 19.3917 10.0001 19.3917ZM10.0001 17.8264C5.65414 17.8264 2.18285 14.3459 2.18285 9.99991C2.18285 5.66313 5.64494 2.17345 9.99093 2.17345C14.3277 2.17345 17.8173 5.66313 17.8266 9.99991C17.8359 14.3459 14.3369 17.8264 10.0001 17.8264ZM14.3369 7.06268C14.3369 6.69437 14.0791 6.43658 13.7108 6.43658H8.94125L7.5417 6.50101L8.56371 5.64474L9.09776 5.20274C9.2267 5.11069 9.27271 4.94494 9.27271 4.76081C9.27271 4.42009 9.01491 4.16229 8.67423 4.16229C8.49929 4.16229 8.35196 4.21753 8.24149 4.32804L5.91193 6.53786C5.73699 6.70361 5.66337 6.87855 5.66337 7.06268C5.66337 7.24685 5.74622 7.44941 5.91193 7.60596L8.24149 9.79736C8.35196 9.90783 8.49929 9.9723 8.67423 9.9723C9.01491 9.9723 9.27271 9.70527 9.27271 9.36458C9.27271 9.18045 9.2267 9.00551 9.09776 8.91343L8.56371 8.48989L7.52327 7.62435L8.94125 7.68881H13.7108C14.0791 7.68881 14.3369 7.42179 14.3369 7.06268ZM14.3369 12.6977C14.3369 12.5228 14.2724 12.3386 14.0975 12.1821L11.768 9.9631C11.6575 9.85259 11.5101 9.80655 11.3352 9.80655C10.9853 9.80655 10.7275 10.0644 10.7275 10.405C10.7275 10.5892 10.792 10.7641 10.9117 10.847L11.4457 11.289L12.4678 12.1361L11.059 12.0808H6.28947C5.93035 12.0808 5.66337 12.3386 5.66337 12.6977C5.66337 13.066 5.93035 13.3238 6.28947 13.3238H11.059L12.477 13.2686L11.4457 14.1341L10.9117 14.5577C10.792 14.6405 10.7275 14.8247 10.7275 14.9996C10.7275 15.3403 10.9853 15.6073 11.3352 15.6073C11.5101 15.6073 11.6575 15.5521 11.768 15.4416L14.0975 13.241C14.2632 13.0937 14.3369 12.8911 14.3369 12.6977Z" fill="#56CCF2"/>
</svg>
