<svg width="24" height="24" viewBox="0 0 24 24" fill="none" xmlns="http://www.w3.org/2000/svg">
<path d="M12.0001 22.2857C17.627 22.2857 22.2858 17.6168 22.2858 11.9999C22.2858 6.37306 17.6169 1.71423 11.99 1.71423C6.37318 1.71423 1.71436 6.37306 1.71436 11.9999C1.71436 17.6168 6.38326 22.2857 12.0001 22.2857ZM12.0001 20.5714C7.24041 20.5714 3.43872 16.7596 3.43872 11.9999C3.43872 7.24028 7.23032 3.42852 11.99 3.42852C16.7496 3.42852 20.5614 7.24028 20.5715 11.9999C20.5816 16.7596 16.7597 20.5714 12.0001 20.5714ZM12.0001 18.3932C15.4992 18.3932 18.3933 15.489 18.3933 11.9999C18.3933 8.50079 15.4891 5.59659 12.0001 5.59659C8.50091 5.59659 5.60679 8.50079 5.60679 11.9999C5.60679 15.489 8.51099 18.3932 12.0001 18.3932ZM12.0001 16.7697C9.40847 16.7697 7.23032 14.5915 7.23032 11.9999C7.23032 9.38818 9.39839 7.22012 12.0001 7.22012C14.5917 7.22012 16.7698 9.39827 16.7698 11.9999C16.7698 14.6016 14.6017 16.7697 12.0001 16.7697ZM12.0102 14.6117C13.4421 14.6117 14.6219 13.442 14.6219 11.9899C14.6219 10.5579 13.4421 9.38818 12.0102 9.38818C10.5681 9.38818 9.3883 10.5579 9.3883 11.9899C9.3883 13.442 10.5681 14.6117 12.0102 14.6117Z" fill="#445B6A"/>
</svg>
