<svg width="20" height="20" viewBox="0 0 20 20" fill="none"
    xmlns="http://www.w3.org/2000/svg">
    <defs>
        <linearGradient id="paint0_linear_1710_1165" x1="2.26728" y1="4.50012" x2="19.0091" y2="4.78134" gradientUnits="userSpaceOnUse">
            <stop stop-color="#AF38F9"/>
            <stop offset="0.463542" stop-color="#FB8822"/>
            <stop offset="1" stop-color="#FFA4A7"/>
        </linearGradient>
    </defs>
    <path d="M9.99986 19.4287C15.1578 19.4287 19.4284 15.1488 19.4284 10.0001C19.4284 4.84212 15.1486 0.571533 9.99062 0.571533C4.84188 0.571533 0.571289 4.84212 0.571289 10.0001C0.571289 15.1488 4.85112 19.4287 9.99986 19.4287ZM9.99986 17.8572C5.63683 17.8572 2.15196 14.3631 2.15196 10.0001C2.15196 5.63708 5.62759 2.14296 9.99062 2.14296C14.3536 2.14296 17.8478 5.63708 17.857 10.0001C17.8662 14.3631 14.3629 17.8572 9.99986 17.8572ZM9.99986 15.8606C13.2074 15.8606 15.8604 13.1984 15.8604 10.0001C15.8604 6.79254 13.1982 4.13036 9.99986 4.13036C6.7923 4.13036 4.13936 6.79254 4.13936 10.0001C4.13936 13.1984 6.80154 15.8606 9.99986 15.8606ZM9.99986 14.3724C7.62423 14.3724 5.62759 12.3757 5.62759 10.0001C5.62759 7.60599 7.61499 5.61859 9.99986 5.61859C12.3755 5.61859 14.3721 7.61523 14.3721 10.0001C14.3721 12.385 12.3847 14.3724 9.99986 14.3724ZM10.0091 12.3942C11.3217 12.3942 12.4032 11.322 12.4032 9.99086C12.4032 8.67826 11.3217 7.60599 10.0091 7.60599C8.68725 7.60599 7.60574 8.67826 7.60574 9.99086C7.60574 11.322 8.68725 12.3942 10.0091 12.3942Z" fill="url(#paint0_linear_1710_1165)"/>
</svg>
