<svg fill="none" height="24" viewBox="0 0 24 24" width="24" xmlns="http://www.w3.org/2000/svg"><path d="m10.5714 24c3.083 0 5.5576-2.4885 5.5576-5.5576 0-1.6175-.6636-3.0553-1.9631-4.2028-.2488-.2073-.3041-.3594-.3041-.705l.0138-9.87099c0-2.21198-1.3272-3.66361-3.3042-3.66361-1.99076 0-3.3041 1.45163-3.3041 3.66361l.01381 9.87099c0 .3456-.06914.4977-.31799.705-1.29953 1.1475-1.96312 2.5853-1.96312 4.2028 0 3.0691 2.48848 5.5576 5.5714 5.5576zm0-1.3825c-2.2949 0-4.17508-1.8802-4.17508-4.1751 0-1.3548.63595-2.5852 1.79722-3.3871.34562-.235.48387-.47.48387-.9262v-10.39638c0-1.43778.77421-2.33639 1.89399-2.33639 1.1199 0 1.8802.89861 1.8802 2.33639v10.39638c0 .4562.1383.6912.4839.9262 1.1613.8019 1.7972 2.0323 1.7972 3.3871 0 2.2949-1.8664 4.1751-4.1613 4.1751zm5.2673-18.69123h2.3226c.3456 0 .5806-.26266.5806-.5668 0-.30417-.235-.56684-.5806-.56684h-2.3226c-.3456 0-.5806.26267-.5806.56684 0 .30414.235.5668.5806.5668zm0 3.04148h2.3226c.3456 0 .5806-.26266.5806-.56683 0-.30414-.235-.56681-.5806-.56681h-2.3226c-.3456 0-.5806.26267-.5806.56681 0 .30417.235.56683.5806.56683zm-5.2673 14.18435c1.4931 0 2.7097-1.2028 2.7097-2.7235 0-1.0507-.5945-1.9079-1.4654-2.3779-.3595-.1935-.4701-.3318-.4701-.871v-5.70964c0-.58065-.3456-.94009-.7742-.94009-.4424 0-.77416.35944-.77416.94009v5.70964c0 .5392-.12444.6775-.48388.871-.87098.47-1.4516 1.3272-1.4516 2.3779 0 1.5207 1.20276 2.7235 2.70964 2.7235zm5.2673-11.1429h2.3226c.3456 0 .5806-.26266.5806-.5668 0-.30415-.235-.56681-.5806-.56681h-2.3226c-.3456 0-.5806.26266-.5806.56681 0 .30414.235.5668.5806.5668zm0 3.0415h2.3226c.3456 0 .5806-.2627.5806-.5668 0-.3042-.235-.5668-.5806-.5668h-2.3226c-.3456 0-.5806.2626-.5806.5668 0 .3041.235.5668.5806.5668z" fill="#37404a"/></svg>