<svg width="20" height="16" viewBox="0 0 20 16" fill="none" xmlns="http://www.w3.org/2000/svg">
<path d="M1.4229 1.46263H18.5674C18.9634 1.46263 19.2765 1.15875 19.2765 0.76283C19.2765 0.376101 18.9634 0.0722656 18.5674 0.0722656H1.4229C1.02698 0.0722656 0.723145 0.376101 0.723145 0.76283C0.723145 1.15875 1.02698 1.46263 1.4229 1.46263ZM1.4229 6.28738H18.5674C18.9634 6.28738 19.2765 5.98355 19.2765 5.58763C19.2765 5.2009 18.9634 4.89702 18.5674 4.89702H1.4229C1.02698 4.89702 0.723145 5.2009 0.723145 5.58763C0.723145 5.98355 1.02698 6.28738 1.4229 6.28738ZM1.4229 11.1122H18.5674C18.9634 11.1122 19.2765 10.7991 19.2765 10.4124C19.2765 10.0257 18.9634 9.72182 18.5674 9.72182H1.4229C1.02698 9.72182 0.723145 10.0257 0.723145 10.4124C0.723145 10.7991 1.02698 11.1122 1.4229 11.1122ZM1.4229 15.9277H11.2658C11.6525 15.9277 11.9656 15.6239 11.9656 15.2372C11.9656 14.8505 11.6525 14.5374 11.2658 14.5374H1.4229C1.02698 14.5374 0.723145 14.8505 0.723145 15.2372C0.723145 15.6239 1.02698 15.9277 1.4229 15.9277Z" fill="#A0AEB8"/>
</svg>
