<svg width="24" height="24" viewBox="0 0 24 24" fill="none" xmlns="http://www.w3.org/2000/svg">
<path d="M2.64325 4.86832H21.3464C21.7784 4.86832 22.1199 4.53682 22.1199 4.10491C22.1199 3.68302 21.7784 3.35156 21.3464 3.35156H2.64325C2.21134 3.35156 1.87988 3.68302 1.87988 4.10491C1.87988 4.53682 2.21134 4.86832 2.64325 4.86832ZM2.64325 10.1317H21.3464C21.7784 10.1317 22.1199 9.80023 22.1199 9.36832C22.1199 8.94643 21.7784 8.61493 21.3464 8.61493H2.64325C2.21134 8.61493 1.87988 8.94643 1.87988 9.36832C1.87988 9.80023 2.21134 10.1317 2.64325 10.1317ZM2.64325 15.3951H21.3464C21.7784 15.3951 22.1199 15.0536 22.1199 14.6317C22.1199 14.2098 21.7784 13.8783 21.3464 13.8783H2.64325C2.21134 13.8783 1.87988 14.2098 1.87988 14.6317C1.87988 15.0536 2.21134 15.3951 2.64325 15.3951ZM2.64325 20.6484H13.381C13.8029 20.6484 14.1444 20.317 14.1444 19.8951C14.1444 19.4732 13.8029 19.1317 13.381 19.1317H2.64325C2.21134 19.1317 1.87988 19.4732 1.87988 19.8951C1.87988 20.317 2.21134 20.6484 2.64325 20.6484Z" fill="#445B6A"/>
</svg>
