<svg fill="none" height="19" viewBox="0 0 19 19" width="19" xmlns="http://www.w3.org/2000/svg"><path d="m9.66113 18.751c4.98337 0 9.09667-4.1133 9.09667-9.08791 0-4.9834-4.1221-9.096684-9.10546-9.096684-4.97461 0-9.079098 4.113284-9.079098 9.096684 0 4.97461 4.113278 9.08791 9.087888 9.08791zm0-1.8194c-4.03418 0-7.25976-3.2431-7.25976-7.26851 0-4.03418 3.22558-7.27735 7.25097-7.27735 4.03416 0 7.27736 3.24317 7.28616 7.27735.0088 4.02541-3.2432 7.26851-7.27737 7.26851zm-1.10742-2.83c.3252 0 .59766-.1582.79102-.4571l4.28907-6.68845c.123-.18457.2197-.3955.2197-.59765 0-.44824-.3955-.73828-.8086-.73828-.2724 0-.5097.14941-.6943.44824l-3.82326 6.09964-1.97754-2.49612c-.20214-.26368-.42187-.36915-.68554-.36915-.43946 0-.78223.35157-.78223.79107 0 .2109.0791.413.22852.5976l2.42578 2.9619c.24609.2988.50097.4483.81738.4483z" fill="#e2e2e2"/></svg>