<svg width="24" height="24" viewBox="0 0 24 24" fill="none" xmlns="http://www.w3.org/2000/svg">
<path d="M19.0813 20.8544L19.7744 6.1691H20.7789C21.1907 6.1691 21.5221 5.82757 21.5221 5.41576C21.5221 5.00395 21.1907 4.65239 20.7789 4.65239H16.3894V3.14566C16.3894 1.7093 15.415 0.775146 13.8682 0.775146H10.1115C8.56458 0.775146 7.6003 1.7093 7.6003 3.14566V4.65239H3.23088C2.8291 4.65239 2.47754 5.00395 2.47754 5.41576C2.47754 5.82757 2.8291 6.1691 3.23088 6.1691H4.23537L4.92841 20.8644C4.99874 22.3109 5.953 23.2249 7.39943 23.2249H16.6104C18.0468 23.2249 19.0111 22.3008 19.0813 20.8544ZM9.20744 3.24612C9.20744 2.67359 9.62933 2.2718 10.232 2.2718H13.7577C14.3704 2.2718 14.7923 2.67359 14.7923 3.24612V4.65239H9.20744V3.24612ZM7.55011 21.7182C6.96751 21.7182 6.53555 21.2762 6.50542 20.6937L5.80231 6.1691H18.1673L17.5043 20.6937C17.4742 21.2863 17.0523 21.7182 16.4597 21.7182H7.55011ZM14.9831 19.9504C15.3146 19.9504 15.5657 19.6792 15.5758 19.2974L15.8771 8.6903C15.8872 8.30862 15.626 8.02739 15.2845 8.02739C14.9731 8.02739 14.7119 8.31869 14.7019 8.68027L14.4005 19.2974C14.3905 19.6591 14.6416 19.9504 14.9831 19.9504ZM9.02667 19.9504C9.3682 19.9504 9.6193 19.6591 9.60923 19.2974L9.3079 8.68027C9.29787 8.31869 9.02667 8.02739 8.71527 8.02739C8.37374 8.02739 8.12264 8.30862 8.13267 8.6903L8.44407 19.2974C8.4541 19.6792 8.69517 19.9504 9.02667 19.9504ZM12.6126 19.2974V8.68027C12.6126 8.31869 12.3414 8.02739 12.0099 8.02739C11.6784 8.02739 11.3972 8.31869 11.3972 8.68027V19.2974C11.3972 19.6591 11.6784 19.9504 12.0099 19.9504C12.3313 19.9504 12.6126 19.6591 12.6126 19.2974Z" fill="#445B6A"/>
</svg>
