<svg fill="none" height="18" viewBox="0 0 24 18" width="24" xmlns="http://www.w3.org/2000/svg"><path d="m6.73882 18h10.28718c1.8586 0 2.6935-.9244 2.9718-2.7631l1.5207-10.15794h.5467c1.0933 0 1.6996-.69575 1.6996-1.77913v-1.5207c0-1.083382-.6063-1.77913-1.6996-1.77913h-20.36559c-1.043619 0-1.69961.695748-1.69961 1.77913v1.5207c0 1.08338.616234 1.77913 1.69961 1.77913h.54666l1.52071 10.15794c.2783 1.8586 1.1132 2.7631 2.97184 2.7631zm-4.77085-14.08393c-.5069 0-.7355-.25842-.7355-.76532v-1.22253c0-.50691.2286-.75539.7355-.75539h19.83873c.5069 0 .7355.24848.7355.75539v1.22253c0 .5069-.2286.76532-.7355.76532zm4.80067 12.92103c-1.05357 0-1.61016-.5069-1.77913-1.6201l-1.52071-10.13804h16.8371l-1.5306 10.13804c-.1591 1.1132-.7455 1.6201-1.7792 1.6201zm2.14688-2.4252c.15902 0 .29817-.0695.40751-.1789l2.55437-2.5544 2.5643 2.5544c.1094.0994.2386.1789.4076.1789.3279 0 .5963-.2783.5963-.5963 0-.1789-.0795-.2982-.1888-.4175l-2.5445-2.5544 2.5544-2.5643c.1193-.12921.1789-.24848.1789-.40751 0-.32799-.2584-.58641-.5963-.58641-.1491 0-.2783.05963-.3976.1789l-2.5743 2.56432-2.56431-2.55438c-.11927-.11927-.23855-.1789-.39757-.1789-.328 0-.59636.25842-.59636.57647 0 .16897.06958.29818.17891.40751l2.55443 2.5643-2.55443 2.5644c-.10933.1093-.17891.2385-.17891.4075 0 .328.26836.5963.59636.5963z" fill="#a3a3a3"/></svg>