<svg width="24" height="24" viewBox="0 0 24 24" fill="none" xmlns="http://www.w3.org/2000/svg">
<path d="M3.30637 20.5731H20.6937C22.793 20.5731 23.8477 19.5284 23.8477 17.4593V11.5128C23.8477 10.6088 23.7171 10.1568 23.2752 9.60435L19.7997 5.31525C18.6244 3.86887 18.1021 3.42688 16.3242 3.42688H7.67579C5.8979 3.42688 5.37556 3.86887 4.20033 5.31525L0.724872 9.60435C0.282929 10.1568 0.152344 10.6088 0.152344 11.5128V17.4593C0.152344 19.5385 1.21709 20.5731 3.30637 20.5731ZM11.995 14.1546C10.5787 14.1546 9.66461 12.9191 9.66461 11.7539V11.7238C9.66461 11.3019 9.41352 10.9101 8.90124 10.9101H2.27176C1.9403 10.9101 1.86997 10.6189 2.04076 10.4079L5.76732 5.70701C6.26952 5.08425 6.83202 4.83315 7.5653 4.83315H16.4347C17.168 4.83315 17.7305 5.08425 18.2327 5.70701L21.9593 10.4079C22.13 10.6189 22.0596 10.9101 21.7283 10.9101H15.0988C14.5865 10.9101 14.3354 11.3019 14.3354 11.7238V11.7539C14.3354 12.9191 13.4213 14.1546 11.995 14.1546ZM3.3365 18.9559C2.33202 18.9559 1.76952 18.4235 1.76952 17.3789V12.3767H8.13783C8.38893 14.255 9.95591 15.6412 11.995 15.6412C14.034 15.6412 15.611 14.245 15.8521 12.3767H22.2304V17.3789C22.2304 18.4235 21.6579 18.9559 20.6635 18.9559H3.3365Z" fill="#445B6A"/>
</svg>
