<svg fill="none" height="62" viewBox="0 0 65 62" width="65" xmlns="http://www.w3.org/2000/svg"><path d="m18.2531 31.3349s.6162.0842 1.0318.2579m6.6088 4.9011c-.1481-.1886-.2642-.4328-.53-.7144m-6.0788-4.1867c.8222-2.1075 2.2009-5.0667 2.5795-7.9964m-2.5795 7.9964c1.2521.5233 2.4031 1.1388 3.3534 1.8085m-10.0601 2.0608c2.4829-3.7243 5.4611-11.7142 6.5769-16.8343.2579-1.1832 1.5274-1.9143 2.1186-.8574.7627 1.3634.889 3.5183.5907 5.826m-9.2862 11.8657c2.0636 1.8047 5.417 4.6431 5.159 7.2226m-5.159-7.2226c-1.1798-1.0318-1.8815-2.8375-2.0636-4.3852-.127-1.0801-.91135-2.8174-2.66511-3.3388-1.15128-.3422-1.89696.9941-1.72056 2.1822.41414 2.7891.25849 6.0577.25849 6.0577s-.77385 4.901 3.5645 9.0282m11.91248-21.4098c.2384-1.6079.4624-4.2433.6075-6.1563.0935-1.2332 1.2892-1.9848 2.0957-1.0473.545.6337 1.0616 1.5595 1.3261 2.9014m-3.2554 14.1071c3.3029-7.0462 3.7864-11.4144 3.2554-14.1071m-3.2554 14.1071c1.0848.7645 2.065 1.6784 2.7254 2.3782m.53-16.4853c1.6495.2395 3.6948 2.036 2.9354 6.9427m-3.4654 9.5426c2.0637-4.0354 3.0961-7.1567 3.4654-9.5426m0 0c1.6337.7535 3.6629 4.3757-1.2897 12.8365-.6879 2.5795-3.5082 8.306-9.2863 11.6078l-9.02823 8.7703m2.32153-13.1555c-.5975-.4617-1.1264-.8891-1.59448-1.2898m0 0-8.981461 5.675" stroke="#445b6a" stroke-linecap="round"/><path d="m54.4853 37.7848c-.2623-.5902-.5204-1.1907-.7738-1.798m-5.675-4.6508c-.8441-2.1948-1.4672-4.0704-1.9015-5.6749m0 0c-.9398-3.4724-.9952-5.6757-.4919-7.0983.4359-1.2321 1.9464-.7048 2.3048.552 1.0325 3.6209 3.1479 10.6039 5.7636 16.872m-7.5765-10.3257c-.5703-1.8953-1.5333-5.3409-2.0774-7.3017-.2407-.8675-1.1044-1.4733-1.782-.8807-.6149.5379-1.2036 1.5676-1.2036 3.5393m0 0c-1.0318-.7739-3.0955-.5159-2.5796 5.159m2.5796-5.159c.6018 3.0094 1.5477 7.7385 3.6113 12.6395m-6.1909-7.4805c.6019 2.3215 1.8573 7.4805 3.0955 9.5441m-3.0955-9.5441c-1.2037-.086-3.0438 1.135-1.8056 6.7067l2.8374 8.7703c.3439 1.9776 2.5901 8.7111 5.9329 8.7703m0 0c.1317.0024 8.1684 7.9965 9.8021 10.576m-9.8021-10.576c.9321.0166 3.1473-.3013 3.1473-.3013m5.1071-14.1362c-.0482-.1158.3572-6.1755 3.3217-6.8987 1.0241-.2499 1.5887.9651 1.3321 1.9875-.5082 2.025-1.0444 4.8883-.7846 6.9671.3605 2.8834-.9998 5.6829-2.3215 7.6948m-1.7425 1.9294s1.1723-1.0616 1.7425-1.9294m0 0c2.3215 2.0782 7.3258 6.3893 8.7703 7.0084" stroke="#445b6a" stroke-linecap="round"/><g fill="#445b6a"><circle cx="43.1553" cy="38.0061" r=".515901"/><circle cx="45.9729" cy="35.721" r=".515901"/><circle cx="49.4712" cy="33.7971" r=".515901"/></g><path d="m33.6021 1v6.04118m-5.9649-3.02059 2.3197 4.6987m9.6101-4.6987-2.6511 4.6987" stroke="#af38f9" stroke-linecap="round" stroke-width="1.5"/></svg>