<svg fill="none" height="40" viewBox="0 0 40 40" width="40" xmlns="http://www.w3.org/2000/svg" xmlns:xlink="http://www.w3.org/1999/xlink"><filter id="a" color-interpolation-filters="sRGB" filterUnits="userSpaceOnUse" height="40" width="40" x="0" y="0"><feFlood flood-opacity="0" result="BackgroundImageFix"/><feColorMatrix in="SourceAlpha" type="matrix" values="0 0 0 0 0 0 0 0 0 0 0 0 0 0 0 0 0 0 127 0"/><feOffset dy="1"/><feGaussianBlur stdDeviation="2"/><feColorMatrix type="matrix" values="0 0 0 0 0 0 0 0 0 0 0 0 0 0 0 0 0 0 0.05 0"/><feBlend in2="BackgroundImageFix" mode="normal" result="effect1_dropShadow"/><feBlend in="SourceGraphic" in2="effect1_dropShadow" mode="normal" result="shape"/></filter><g filter="url(#a)"><circle cx="20" cy="19" fill="#59dd5f" r="16"/></g><path d="m27.9912 18.2441h-.957c-.4033-3.4658-3.4112-6.248-7.0342-6.248-2.0029 0-3.8213.875-5.0791 2.2422-.335.3281-.3213.7656-.0479 1.0185.2803.2598.6836.2598 1.0254-.0547 1.0186-1.1005 2.4815-1.791 4.1016-1.791 2.8848 0 5.2158 2.1123 5.6055 4.833h-1.0459c-.5264 0-.67.3897-.3623.8135l1.6338 2.3106c.2529.3418.6357.3486.8818 0l1.6406-2.3037c.3076-.4307.1709-.8204-.3623-.8204zm-15.9824 1.6475h.9639c.4033 3.4658 3.4111 6.248 7.0273 6.248 2.0166 0 3.835-.8818 5.0928-2.249.3281-.3281.3144-.7656.041-1.0185-.2803-.2598-.6768-.2598-1.0254.0615-1.0049 1.1006-2.4678 1.791-4.1084 1.791-2.8779 0-5.209-2.1123-5.5986-4.833h1.039c.5196 0 .67-.3896.3623-.8135l-1.6406-2.3105c-.2461-.3418-.6289-.3487-.875 0l-1.6406 2.3037c-.3145.4307-.1709.8203.3623.8203z" fill="#fff"/></svg>