<svg width="20" height="14" viewBox="0 0 20 14" fill="none" xmlns="http://www.w3.org/2000/svg">
<path d="M11.7679 0.714355C13.2866 0.714355 14.5179 1.94557 14.5179 3.46436V4.74546L17.5035 2.19569C17.7116 2.01799 17.9706 1.91235 18.2419 1.893L18.3328 1.88977C19.0136 1.88977 19.57 2.42266 19.6075 3.0941L19.6095 3.16655V10.8899C19.6095 11.1906 19.5035 11.4815 19.31 11.7116C18.873 12.2314 18.1099 12.3152 17.5721 11.9154L17.5111 11.8672L14.5179 9.35053V10.5358C14.5179 12.0546 13.2866 13.2858 11.7679 13.2858H3.125C1.60622 13.2858 0.375 12.0546 0.375 10.5358V3.46436C0.375 1.94557 1.60622 0.714355 3.125 0.714355H11.7679ZM11.7679 1.89293H3.125C2.28342 1.89293 1.59636 2.55449 1.55549 3.38593L1.55357 3.46436V10.5358C1.55357 11.3774 2.21513 12.0644 3.04657 12.1053L3.125 12.1072H11.7679C12.6094 12.1072 13.2965 11.4457 13.3374 10.6142L13.3393 10.5358V3.46436C13.3393 2.62278 12.6777 1.93572 11.8463 1.89485L11.7679 1.89293ZM18.3328 3.06834C18.3172 3.06834 18.3019 3.07205 18.2882 3.07902L18.269 3.09187L14.6738 6.16259L14.6592 6.17809C14.6507 6.18935 14.6447 6.20232 14.6416 6.2161L14.6393 6.23727V7.86691L14.6417 7.88826C14.6448 7.90216 14.6509 7.91523 14.6595 7.92654L14.6743 7.94208L18.2696 10.9651L18.2918 10.9792C18.331 10.9972 18.3788 10.9877 18.4079 10.9531C18.4179 10.9413 18.4248 10.9275 18.4283 10.9127L18.431 10.8899V3.16655L18.4284 3.14404C18.4182 3.10065 18.3792 3.06834 18.3328 3.06834Z" fill="#A0AEB8"/>
</svg>
