<svg width="24" height="24" viewBox="0 0 24 24" fill="none" xmlns="http://www.w3.org/2000/svg">
<path d="M13.9286 5.14282C15.5854 5.14282 16.9286 6.48597 16.9286 8.14282V9.54039L20.1857 6.75883C20.4126 6.56497 20.6952 6.44973 20.9912 6.42862L21.0903 6.42509C21.833 6.42509 22.44 7.00643 22.4809 7.73891L22.4831 7.81795V16.2435C22.4831 16.5714 22.3674 16.8888 22.1564 17.1399C21.6796 17.7068 20.8472 17.7983 20.2605 17.3622L20.1939 17.3095L16.9286 14.5641V15.8571C16.9286 17.514 15.5854 18.8571 13.9286 18.8571H4.5C2.84315 18.8571 1.5 17.514 1.5 15.8571V8.14282C1.5 6.48597 2.84315 5.14282 4.5 5.14282H13.9286ZM13.9286 6.42854H4.5C3.58192 6.42854 2.83239 7.15024 2.78781 8.05726L2.78571 8.14282V15.8571C2.78571 16.7752 3.50742 17.5247 4.41444 17.5693L4.5 17.5714H13.9286C14.8467 17.5714 15.5962 16.8497 15.6408 15.9427L15.6429 15.8571V8.14282C15.6429 7.22474 14.9212 6.47522 14.0141 6.43063L13.9286 6.42854ZM21.0903 7.71081C21.0733 7.71081 21.0566 7.71485 21.0417 7.72246L21.0207 7.73648L17.0986 11.0863L17.0827 11.1033C17.0734 11.1155 17.0669 11.1297 17.0636 11.1447L17.0611 11.1678V12.9456L17.0636 12.9689C17.067 12.9841 17.0737 12.9983 17.0831 13.0107L17.0993 13.0276L21.0213 16.3255L21.0456 16.3409C21.0883 16.3605 21.1406 16.3501 21.1723 16.3124C21.1831 16.2995 21.1907 16.2844 21.1945 16.2683L21.1974 16.2435V7.81795L21.1946 7.79338C21.1835 7.74605 21.141 7.71081 21.0903 7.71081Z" fill="#445B6A"/>
</svg>
