<svg fill="none" height="25" viewBox="0 0 25 25" width="25" xmlns="http://www.w3.org/2000/svg"><path d="m9.14844 15.4233c0-.7934-.61573-1.4091-1.41553-1.4091-.77441 0-1.40918.6284-1.40918 1.4091 0 .7618.63477 1.4092 1.40918 1.4092.76807 0 1.41553-.6474 1.41553-1.4092zm4.75436 0c0-.7934-.6157-1.4091-1.4091-1.4091-.7745 0-1.4029.6284-1.4029 1.4091 0 .7618.6284 1.4092 1.4029 1.4092.768 0 1.4091-.6474 1.4091-1.4092zm4.7671 0c0-.7934-.6157-1.4091-1.4092-1.4091-.7807 0-1.4155.6284-1.4155 1.4091 0 .7618.6348 1.4092 1.4155 1.4092.7618 0 1.4092-.6474 1.4092-1.4092z" fill="#37404a"/></svg>