<svg fill="none" height="24" viewBox="0 0 24 24" width="24" xmlns="http://www.w3.org/2000/svg"><path d="m12 24c6.5751 0 12-5.4284 12-11.9922 0-6.57942-5.4404-12.0078-12-12.0078-6.55958 0-12 5.42838-12 12.0078 0 6.5638 5.44042 11.9922 12 11.9922zm-3.60623-18.33832c.74613-1.92868 1.81863-3.31299 2.96893-3.6863v3.9974c-1.0725-.03109-2.06735-.13997-2.96893-.3111zm4.22803-3.6863c1.1658.37331 2.2228 1.75762 2.9689 3.6863-.9016.17113-1.8964.28001-2.9689.3111zm-7.52335 2.53533c1.08807-1.01104 2.39378-1.77317 3.83937-2.22427-.6995.77774-1.32125 1.81984-1.80312 3.06418-.76164-.21776-1.44559-.49773-2.03625-.83991zm9.96375-2.22427c1.4456.4511 2.7513 1.21323 3.8238 2.22427-.5907.32664-1.2591.62215-2.0207.83991-.4819-1.24434-1.1036-2.28644-1.8031-3.06418zm2.9223 9.06806c-.0467-1.77318-.3109-3.40634-.7306-4.83732.9637-.27997 1.8186-.65328 2.5181-1.0888 1.3679 1.61765 2.2384 3.67079 2.3782 5.92612zm-16.13476 0c.13988-2.25533 1.01036-4.30847 2.37824-5.92612.69949.43552 1.5544.80883 2.50258 1.0888-.41967 1.43098-.66839 3.06414-.73056 4.83732zm5.45597 0c.0466-1.61763.29533-3.15749.69946-4.51068 1.04146.21776 2.17623.35773 3.35753.38885v4.12183zm5.31609 0v-4.12183c1.1968-.03112 2.3316-.17109 3.373-.38885.3886 1.35319.6373 2.89305.6995 4.51068zm-10.77206 1.2754h4.15026c.04664 1.7888.31089 3.4531.73056 4.8996-.94818.28-1.78755.6533-2.48704 1.0732-1.38342-1.6176-2.2539-3.7018-2.39378-5.9728zm5.45597 0h4.05699v4.1841c-1.1813.0311-2.31607.1711-3.35753.3888-.40413-1.3687-.65286-2.9397-.69946-4.5729zm5.31609 4.1841v-4.1841h4.0725c-.0466 1.6332-.2953 3.2042-.6995 4.5729-1.0414-.2177-2.1762-.3577-3.373-.3888zm4.6321.7155c.4197-1.4465.6839-3.1108.7306-4.8996h4.1657c-.1243 2.2865-1.0103 4.3552-2.3937 5.9884-.6995-.4355-1.5389-.8088-2.5026-1.0888zm-4.6321.5444c1.0725.0311 2.0673.14 2.9689.3111-.7461 1.9287-1.8031 3.313-2.9689 3.6863zm-4.22803.3111c.90158-.1711 1.89643-.28 2.96893-.3111v3.9974c-1.1503-.3733-2.2228-1.7576-2.96893-3.6863zm8.47153.311c.7461.2178 1.4145.4978 2.0052.84-1.0726.9799-2.3472 1.7265-3.7617 2.1775.6839-.7777 1.2746-1.8042 1.7565-3.0175zm-11.73578.8244c.59069-.3266 1.25908-.6066 2.00518-.8244.46633 1.2133 1.07255 2.2398 1.74094 3.002-1.39895-.4511-2.67356-1.1977-3.74612-2.1776z" fill="#37404a"/></svg>