<svg fill="none" height="24" viewBox="0 0 24 24" width="24" xmlns="http://www.w3.org/2000/svg" xmlns:xlink="http://www.w3.org/1999/xlink"><clipPath id="a"><path d="m0 0h24v23.4447h-24z"/></clipPath><g clip-path="url(#a)"><path d="m21.3458 22.7414h-18.69178c-1.21412 0-2.136469-1.0636-1.919998-2.2212l2.672938-14.02355c.16941-.89411.97883-1.54353 1.92-1.54353h13.32704c.9412 0 1.7412.64942 1.92 1.53412l2.6918 14.02356c.2165 1.1576-.6965 2.2306-1.92 2.2306z" stroke="#37404a" stroke-miterlimit="10" stroke-width="1.5"/><path d="m15.1528 4.95174c.0941-.30118.1505-.61177.1505-.94118 0-1.82588-1.4776-3.303529-3.3035-3.303529s-3.30351 1.477649-3.30351 3.303529c0 .32941.06588.64.15059.94118z" stroke="#37404a" stroke-miterlimit="10" stroke-width="1.5"/><path d="m11.8587 17.713c2.1364 0 3.8682-1.7318 3.8682-3.8682s-1.7318-3.86824-3.8682-3.86824c-2.13635 0-3.86822 1.73184-3.86822 3.86824s1.73187 3.8682 3.86822 3.8682z" fill="#37404a"/></g></svg>