<svg fill="none" height="14" viewBox="0 0 14 14" width="14" xmlns="http://www.w3.org/2000/svg"><path d="m5.02181 11.9583c-.10734.8591-.89095 1.1667-1.75 1.1667-.85906 0-1.46845-.6965-1.36111-1.5556l.38889-3.49996c.10733-.85905.89094-1.55555 1.75-1.55555.85905 0 2.51533 0 1.36111 1.55555-1.15423 1.55556-.38889 3.88886-.38889 3.88886z" fill="#be1931"/><path d="m13.9312 5.73611c0 2.68411-.6005 4.86109-1.3417 4.86109-.7408 0-7.95278-2.17698-7.95278-4.86109 0-2.6845 7.21198-4.86111 7.95278-4.86111.7412 0 1.3417 2.17661 1.3417 4.86111z" fill="#ccd6dd"/><path d="m12.5917 10.5972c.7409 0 1.3416-2.17637 1.3416-4.86109s-.6007-4.86111-1.3416-4.86111c-.741 0-1.3417 2.17639-1.3417 4.86111s.6007 4.86109 1.3417 4.86109z" fill="#66757f"/><path d="m6.97309 8.45833-5.44444-.38889c-1.944449 0-1.944449-4.66667 0-4.66667l5.44444-.38888c-1.16667 1.16666-1.16667 4.27777 0 5.44444z" fill="#dd2e44"/><path d="m12.181 7.42702c.3222 0 .5833-.75704.5833-1.69089s-.2611-1.69089-.5833-1.69089-.5833.75704-.5833 1.69089.2611 1.69089.5833 1.69089z" fill="#99aab5"/></svg>