<svg width="24" height="20" viewBox="0 0 24 20" fill="none" xmlns="http://www.w3.org/2000/svg">
<path d="M20.4728 19.4166C20.7742 19.718 21.2662 19.718 21.5676 19.4166C21.8589 19.1052 21.869 18.6231 21.5676 18.3218L3.54751 0.30168C3.24618 0.000351459 2.75401 0.000351459 2.44261 0.30168C2.15131 0.59298 2.15131 1.10525 2.44261 1.39655L20.4728 19.4166ZM21.0352 10.6979C21.2059 10.8687 21.4773 10.8687 21.668 10.6778L22.994 9.34188C23.1547 9.17109 23.1547 8.95012 23.0241 8.78941C20.7038 6.03717 16.485 3.93785 12.0051 3.93785C11.0308 3.93785 10.0665 4.03827 9.13235 4.22915L11.7841 6.87087C15.3299 6.80058 18.5542 8.16665 21.0352 10.6979ZM2.34215 10.6778C2.53304 10.8687 2.81427 10.8586 2.99504 10.6678C4.2004 9.38204 5.61674 8.41775 7.17361 7.77489L5.04417 5.64541C3.41693 6.47915 2.0107 7.57398 0.986112 8.78941C0.845497 8.95012 0.855569 9.17109 1.01628 9.34188L2.34215 10.6778ZM6.36001 14.7157C6.56093 14.9166 6.8221 14.9066 7.01294 14.6856C8.16807 13.41 10.0163 12.516 11.8946 12.4959L9.34326 9.95457C7.46495 10.4568 5.85781 11.4814 4.83323 12.6968C4.68258 12.8675 4.70264 13.0785 4.86335 13.2392L6.36001 14.7157ZM18.6346 13.7314L19.1469 13.2392C19.3075 13.0785 19.3276 12.8675 19.177 12.6968C18.2127 11.5416 16.7161 10.5773 14.9683 10.0651L18.6346 13.7314ZM12.0151 19.9992C12.2261 19.9992 12.4169 19.8887 12.7886 19.5271L15.139 17.2671C15.2897 17.1264 15.3199 16.9055 15.1893 16.7347C14.5564 15.9211 13.3712 15.218 12.0151 15.218C10.629 15.218 9.42361 15.9512 8.80086 16.795C8.71047 16.9356 8.7406 17.1264 8.89128 17.2671L11.2417 19.5271C11.6134 19.8887 11.8042 19.9992 12.0151 19.9992Z" fill="#F1BA11"/>
</svg>
