<svg width="24" height="24" viewBox="0 0 24 24" fill="none" xmlns="http://www.w3.org/2000/svg">
<path d="M5.90793 21.2461H18.1021C20.2014 21.2461 21.2462 20.2014 21.2462 18.1323V5.86773C21.2462 3.79855 20.2014 2.75391 18.1021 2.75391H5.90793C3.81865 2.75391 2.75391 3.78848 2.75391 5.86773V18.1323C2.75391 20.2115 3.81865 21.2461 5.90793 21.2461ZM5.93806 19.6289C4.93362 19.6289 4.37112 19.0965 4.37112 18.0519V5.94809C4.37112 4.90345 4.93362 4.37108 5.93806 4.37108H18.072C19.0664 4.37108 19.6289 4.90345 19.6289 5.94809V18.0519C19.6289 19.0965 19.0664 19.6289 18.072 19.6289H5.93806ZM8.57982 16.2338C8.80079 16.2338 9.00171 16.1434 9.15235 15.9827L12.005 13.13L14.8577 15.9827C15.0084 16.1333 15.2093 16.2338 15.4403 16.2338C15.8822 16.2338 16.2439 15.8722 16.2439 15.4202C16.2439 15.1892 16.1534 15.0084 16.0028 14.8476L13.1501 11.995L16.0128 9.12222C16.1735 8.95144 16.2539 8.78069 16.2539 8.55972C16.2539 8.11774 15.8923 7.75615 15.4503 7.75615C15.2394 7.75615 15.0586 7.83651 14.8878 8.00725L12.005 10.87L9.13225 8.01732C8.98161 7.85656 8.80079 7.77621 8.57982 7.77621C8.12781 7.77621 7.77621 8.12781 7.77621 8.56975C7.77621 8.79076 7.85661 8.98161 8.01732 9.13225L10.87 11.995L8.01732 14.8577C7.85661 15.0084 7.77621 15.1992 7.77621 15.4202C7.77621 15.8722 8.12781 16.2338 8.57982 16.2338Z" fill="#445B6A"/>
</svg>
