<svg width="20" height="20" viewBox="0 0 20 20" fill="none" xmlns="http://www.w3.org/2000/svg">
<path d="M10.0001 19.3919C15.1288 19.3919 19.3919 15.138 19.3919 10.0002C19.3919 4.87153 15.1196 0.608398 9.99093 0.608398C4.85306 0.608398 0.608398 4.87153 0.608398 10.0002C0.608398 15.138 4.86229 19.3919 10.0001 19.3919ZM6.69458 14.0883C6.26185 14.0883 5.91193 13.7384 5.91193 13.3057C5.91193 13.0939 6.00402 12.9098 6.15134 12.7716L8.89521 10.0094L6.15134 7.24709C6.00402 7.1182 5.91193 6.92483 5.91193 6.71304C5.91193 6.2895 6.26185 5.94882 6.69458 5.94882C6.90637 5.94882 7.0905 6.03167 7.22863 6.17899L9.99093 8.93206L12.7716 6.1698C12.9281 6.00406 13.0939 5.93039 13.2964 5.93039C13.7292 5.93039 14.0791 6.28027 14.0791 6.70385C14.0791 6.9156 14.0054 7.09054 13.8489 7.2379L11.0866 10.0094L13.8397 12.7532C13.9778 12.9005 14.0699 13.0847 14.0699 13.3057C14.0699 13.7384 13.72 14.0883 13.2872 14.0883C13.0663 14.0883 12.8821 13.9963 12.744 13.8581L9.99093 11.0958L7.24705 13.8581C7.10893 14.0055 6.90637 14.0883 6.69458 14.0883Z" fill="#EB5757"/>
</svg>
