<svg width="24" height="24" viewBox="0 0 24 24" fill="none" xmlns="http://www.w3.org/2000/svg">
<path d="M4.29555 18.4386C3.95406 18.7801 3.94399 19.3627 4.29555 19.7042C4.64715 20.0457 5.21968 20.0457 5.57123 19.7042L11.9998 13.2757L18.4284 19.7042C18.7699 20.0457 19.3525 20.0558 19.7041 19.7042C20.0455 19.3526 20.0455 18.7801 19.7041 18.4386L13.2654 12L19.7041 5.5714C20.0455 5.22987 20.0556 4.64727 19.7041 4.30579C19.3424 3.95423 18.7699 3.95423 18.4284 4.30579L11.9998 10.7344L5.57123 4.30579C5.21968 3.95423 4.63708 3.94416 4.29555 4.30579C3.95406 4.65735 3.95406 5.22987 4.29555 5.5714L10.7241 12L4.29555 18.4386Z" fill="#445B6A"/>
</svg>
