<svg width="22" height="22" viewBox="0 0 22 22" fill="none" xmlns="http://www.w3.org/2000/svg">
<path d="M10.9999 21.2455C16.5948 21.2455 21.2455 16.6049 21.2455 11C21.2455 5.40508 16.5848 0.754395 10.9899 0.754395C5.38494 0.754395 0.754395 5.40508 0.754395 11C0.754395 16.6049 5.39501 21.2455 10.9999 21.2455ZM10.9999 19.5379C6.25884 19.5379 2.47198 15.741 2.47198 11C2.47198 6.26891 6.24881 2.46199 10.9899 2.46199C15.7209 2.46199 19.5278 6.26891 19.5379 11C19.548 15.741 15.731 19.5379 10.9999 19.5379ZM7.56465 15.2589C7.78562 15.2589 7.98654 15.1685 8.13718 15.0078L10.9899 12.1451L13.8425 15.0078C13.9932 15.1584 14.1941 15.2589 14.4251 15.2589C14.8671 15.2589 15.2287 14.8872 15.2287 14.4452C15.2287 14.2142 15.1383 14.0234 14.9876 13.8727L12.1349 11.0201L14.9977 8.14725C15.1584 7.97651 15.2387 7.80577 15.2387 7.58475C15.2387 7.13278 14.8772 6.78122 14.4352 6.78122C14.2243 6.78122 14.0434 6.85151 13.8727 7.02229L10.9899 9.89505L8.11708 7.03232C7.96644 6.87161 7.78562 6.80128 7.56465 6.80128C7.11264 6.80128 6.76108 7.14281 6.76108 7.59482C6.76108 7.81579 6.84144 8.00664 7.00215 8.15732L9.85481 11.0201L7.00215 13.8828C6.84144 14.0234 6.76108 14.2243 6.76108 14.4452C6.76108 14.8872 7.11264 15.2589 7.56465 15.2589Z" fill="#445B6A"/>
</svg>
