<svg width="24" height="24" viewBox="0 0 24 24" fill="none" xmlns="http://www.w3.org/2000/svg">
<path d="M11.9999 22.2455C17.5948 22.2455 22.2455 17.6049 22.2455 12C22.2455 6.40508 17.5848 1.75439 11.9899 1.75439C6.38494 1.75439 1.75439 6.40508 1.75439 12C1.75439 17.6049 6.39501 22.2455 11.9999 22.2455ZM8.39387 16.4598C7.92179 16.4598 7.54007 16.0781 7.54007 15.606C7.54007 15.375 7.64052 15.1741 7.80124 15.0234L10.7946 12.01L7.80124 8.99661C7.64052 8.85599 7.54007 8.64505 7.54007 8.41401C7.54007 7.95197 7.92179 7.58031 8.39387 7.58031C8.62491 7.58031 8.82578 7.67069 8.97647 7.83141L11.9899 10.8348L15.0234 7.82138C15.1941 7.64057 15.3749 7.56021 15.5959 7.56021C16.068 7.56021 16.4497 7.94189 16.4497 8.40398C16.4497 8.63498 16.3693 8.82582 16.1986 8.98658L13.1852 12.01L16.1885 15.0033C16.3392 15.164 16.4397 15.3649 16.4397 15.606C16.4397 16.0781 16.058 16.4598 15.5859 16.4598C15.3448 16.4598 15.1439 16.3593 14.9932 16.2087L11.9899 13.1952L8.99657 16.2087C8.84588 16.3694 8.62491 16.4598 8.39387 16.4598Z" fill="#445B6A"/>
</svg>
