<svg width="24" height="24" viewBox="0 0 24 24" fill="none" xmlns="http://www.w3.org/2000/svg">
<path d="M5.90793 21.2461H18.1021C20.2014 21.2461 21.2462 20.2014 21.2462 18.1323V5.86773C21.2462 3.79855 20.2014 2.75391 18.1021 2.75391H5.90793C3.81865 2.75391 2.75391 3.78848 2.75391 5.86773V18.1323C2.75391 20.2115 3.81865 21.2461 5.90793 21.2461ZM8.40903 16.4448C7.93696 16.4448 7.56531 16.0631 7.56531 15.5909C7.56531 15.3599 7.65569 15.159 7.81641 15.0084L10.8197 11.995L7.81641 8.98161C7.65569 8.84095 7.56531 8.63001 7.56531 8.39901C7.56531 7.93696 7.93696 7.56526 8.40903 7.56526C8.64008 7.56526 8.84095 7.65569 8.99163 7.81641L12.005 10.8197L15.0385 7.80638C15.2093 7.62556 15.4001 7.54521 15.6211 7.54521C16.0832 7.54521 16.4648 7.92689 16.4648 8.38894C16.4648 8.61998 16.3946 8.81082 16.2137 8.97153L13.2003 11.995L16.2037 14.9883C16.3644 15.149 16.4548 15.3499 16.4548 15.5909C16.4548 16.0631 16.0731 16.4448 15.611 16.4448C15.37 16.4448 15.159 16.3443 15.0084 16.1936L12.005 13.1802L9.01173 16.1936C8.86105 16.3544 8.64008 16.4448 8.40903 16.4448Z" fill="#475569"/>
</svg>
