<svg fill="none" height="64" viewBox="0 0 64 64" width="64" xmlns="http://www.w3.org/2000/svg" xmlns:xlink="http://www.w3.org/1999/xlink"><linearGradient id="a"><stop offset="0" stop-color="#f1562b"/><stop offset=".3" stop-color="#f1542b"/><stop offset=".41" stop-color="#f04d2a"/><stop offset=".49" stop-color="#ef4229"/><stop offset=".5" stop-color="#ef4029"/><stop offset=".56" stop-color="#e83e28"/><stop offset=".67" stop-color="#e13c26"/><stop offset="1" stop-color="#df3c26"/></linearGradient><linearGradient id="b" gradientUnits="userSpaceOnUse" x1="6.011" x2="58.984" xlink:href="#a" y1="32.162" y2="32.162"/><linearGradient id="c" gradientUnits="userSpaceOnUse" x1="5.016" x2="57.989" xlink:href="#a" y1="31.165" y2="31.165"/><g clip-rule="evenodd" fill-rule="evenodd"><path d="m59 21.1604-1.9173-5.2192 1.3326-2.9953c.17-.387.0872-.8389-.2088-1.1402l-3.6249-3.67393c-1.5878-1.61681-3.9637-2.16981-6.0997-1.41971l-.9946.35249-5.5364-6.01478-9.4536-.052578-9.4536.074008-5.5305 6.06249-.9849-.3486c-2.1503-.75896-4.5444-.2004-6.1395 1.43237l-3.71135 3.74404c-.23703.2399-.30262.6012-.16512.9095l1.39283 3.111-1.91053 5.2144 6.85737 26.141c.6488 2.4694 2.1387 4.633 4.2134 6.1151l13.5612 9.2144c1.0976.8793 2.6555.8793 3.7521 0l13.5534-9.2281c2.0728-1.482 3.5812-3.6456 4.2077-6.115l5.5946-21.4437z" fill="url(#b)"/><path d="m34.0455 39.6293c-.3593-.1607-.7284-.2951-1.1072-.4022h-.6663c-.3781.1067-.7479.2411-1.1063.4022l-1.6775.6991-1.894.8734-3.0848 1.6116c-.2283.074-.3885.2804-.405.5209-.0166.2405.1146.4674.3302.5706l2.6779 1.8842 1.6463 1.3107.7537.6504 1.5774 1.3847.7149.6329c.4564.3789 1.117.3789 1.5735 0l3.0828-2.7002 1.6512-1.3106 2.6789-1.9222c.218-.1036.3498-.3311.3315-.5722-.0184-.2412-.183-.4461-.4141-.5154l-3.079-1.558-1.9037-.8735zm18.9937-17.3034.0971-.2794c.0049-.3739-.0194-.7479-.0699-1.1179-.2594-.6621-.5828-1.2912-.9937-1.8793l-1.7425-2.5638-1.2413-1.6905-2.335-2.9212c-.2137-.2853-.4448-.557-.6925-.8121h-.0486l-1.0373.1919-5.1323.9912c-.5197.0244-1.0393-.0516-1.5288-.2239l-2.8187-.9124-2.0174-.559c-.5828-.0632-1.1889-.0632-1.7813 0l-2.0174.5648-2.8187.9173c-.4908.1713-1.0097.2474-1.5288.2239l-5.1265-.9737-1.0374-.1918h-.0485c-.2487.2551-.4798.5258-.6925.8121l-2.3312 2.9212-1.2413 1.6904-1.7425 2.5638-.8236 1.3759c-.1496.5288-.2283 1.075-.2351 1.6262l.0972.2794c.0417.1792.0971.3564.1612.5288l1.3753 1.5862 6.0998 6.4987c.4129.4823.5313 1.1517.3088 1.7469l-1.0257 2.3584c-.2269.6283-.2436 1.3137-.0475 1.9524l.2.5501c.3275.8938.8887 1.6829 1.625 2.2844l.9587.7819c.5051.3661 1.1655.445 1.7425.2094l3.4073-1.6291c.6265-.3135 1.2112-.7011 1.7425-1.1685l2.7274-2.4674c.2197-.1984.3495-.4779.3593-.7742.0104-.2962-.0988-.584-.303-.7984l-6.1561-4.1579c-.4812-.3428-.6405-.9866-.3749-1.5151l2.3875-4.4987c.274-.556.3162-1.1985.1175-1.7858-.2963-.5551-.775-.9904-1.355-1.2318l-7.4847-2.8238c-.5401-.1948-.51-.4382.0611-.4713l4.3961-.4382c.6799-.0438 1.3812.0195 2.0524.183l3.8249 1.0712c.5614.1694.913.7303.8188 1.3106l-1.5026 8.2281c-.1.4557-.1263.9251-.0738 1.3886.0612.1966.575.4381 1.1364.5764l2.3311.4869c.6768.1247 1.3707.1247 2.0475 0l2.0951-.4869c.5633-.1266 1.0713-.3934 1.1364-.5901.05-.464.0238-.9331-.0777-1.3885l-1.5113-8.2281c-.0913-.5805.258-1.1396.8188-1.3107l3.8249-1.074c.6702-.1655 1.3627-.2269 2.0523-.1831l4.3961.411c.575.0525.6022.2668.0651.4712l-7.479 2.8434c-.5817.2386-1.0613.6746-1.3549 1.2317-.198.5874-.1561 1.2294.1165 1.7859l2.3914 4.4986c.2656.5286.1063 1.1724-.375 1.5152l-6.1512 4.1676c-.2036.2145-.3125.5022-.3019.7982.0106.2959.1398.5751.3583.7744l2.7313 2.4674c.5321.4536 1.1173.8407 1.7425 1.1529l3.4073 1.6262c.5788.2337 1.2374.1538 1.7425-.2143l.9586-.7858c.7372-.6022 1.2986-1.3928 1.625-2.2883l.2001-.5501c.196-.6387.1793-1.324-.0476-1.9524l-1.0024-2.372c-.2203-.5954-.1021-1.2637.3089-1.7469l6.0997-6.5075 1.3724-1.5852c.0736-.1678.1362-.3402.1875-.5161z" fill="#fff"/><path d="m58.0054 20.1632-1.9173-5.2192 1.3326-2.9953c.17-.387.0872-.8389-.2089-1.1402l-3.6248-3.67392c-1.5878-1.61681-3.9638-2.16981-6.0997-1.41971l-.9946.35249-5.5364-6.0147781-9.4536-.0525819-9.4536.0740041-5.5305 6.0624959-.9849-.3486c-2.1503-.75896-4.5445-.2004-6.13957 1.43237l-3.71131 3.74403c-.23703.2399-.30262.6012-.16512.9095l1.39283 3.1111-1.91053 5.2143 6.8573 26.141c.6489 2.4694 2.1388 4.633 4.2135 6.1151l13.5612 9.2145c1.0975.8792 2.6555.8792 3.7521 0l13.5534-9.2282c2.0728-1.482 3.5812-3.6456 4.2077-6.115l5.5946-21.4437z" fill="url(#c)"/><path d="m33.051 38.6321c-.3594-.1607-.7285-.2951-1.1073-.4022h-.6663c-.3781.1067-.7479.2411-1.1063.4022l-1.6774.6991-1.8941.8735-3.0848 1.6115c-.2282.074-.3885.2804-.405.5209-.0165.2406.1146.4674.3302.5707l2.6779 1.8841 1.6463 1.3107.7537.6504 1.5774 1.3847.7149.6329c.4564.3789 1.1171.3789 1.5735 0l3.0829-2.7001 1.6512-1.3107 2.6788-1.9222c.218-.1035.3498-.3311.3315-.5722-.0183-.2412-.1829-.4461-.4141-.5154l-3.079-1.558-1.9037-.8734zm18.9936-17.3034.0971-.2794c.0049-.3739-.0194-.7479-.0699-1.1179-.2593-.6621-.5828-1.2912-.9936-1.8793l-1.7425-2.5638-1.2413-1.6904-2.335-2.9213c-.2137-.2853-.4449-.5569-.6926-.8121h-.0485l-1.0374.1919-5.1323.9912c-.5196.0244-1.0393-.0516-1.5288-.2239l-2.8187-.9124-2.0174-.55895c-.5827-.06329-1.1888-.06329-1.7813 0l-2.0174.56475-2.8187.9173c-.4908.1714-1.0096.2474-1.5288.2239l-5.1265-.9737-1.0373-.1918h-.0486c-.2486.2551-.4798.5258-.6925.8121l-2.3311 2.9212-1.2413 1.6904-1.7425 2.5639-.8237 1.3758c-.1496.5288-.2282 1.0751-.235 1.6262l.0971.2794c.0418.1792.0971.3564.1612.5288l1.3754 1.5862 6.0997 6.4987c.413.4823.5313 1.1517.3089 1.7469l-1.0257 2.3584c-.2269.6284-.2436 1.3137-.0476 1.9524l.2001.5501c.3274.8938.8887 1.6829 1.6249 2.2844l.9587.7819c.5051.3661 1.1656.445 1.7425.2094l3.4073-1.6291c.6265-.3135 1.2112-.7011 1.7425-1.1685l2.7274-2.4674c.2198-.1984.3495-.4779.3594-.7741.0104-.2963-.0989-.5841-.3031-.7985l-6.156-4.1579c-.4812-.3428-.6405-.9866-.3749-1.5151l2.3874-4.4987c.274-.556.3163-1.1985.1175-1.7858-.2962-.5551-.775-.9903-1.3549-1.2318l-7.4848-2.8238c-.5401-.1948-.5099-.4382.0612-.4713l4.396-.4382c.68-.0438 1.3812.0195 2.0524.1831l3.8249 1.0711c.5614.1694.9131.7303.8188 1.3106l-1.5025 8.2281c-.1001.4557-.1263.9251-.0739 1.3886.0612.1967.575.4381 1.1364.5764l2.3311.4869c.6769.1247 1.3707.1247 2.0475 0l2.0951-.4869c.5634-.1266 1.0713-.3934 1.1364-.5901.0501-.464.0238-.9331-.0777-1.3885l-1.5113-8.2281c-.0913-.5805.258-1.1396.8188-1.3107l3.8249-1.074c.6702-.1655 1.3628-.2269 2.0524-.1831l4.3961.411c.575.0525.6022.2668.065.4712l-7.4789 2.8434c-.5818.2386-1.0613.6746-1.355 1.2317-.198.5874-.1561 1.2294.1166 1.7859l2.3913 4.4986c.2656.5286.1063 1.1724-.3749 1.5152l-6.1512 4.1676c-.2037.2145-.3125.5022-.3019.7982.0106.2959.1397.5751.3582.7744l2.7313 2.4674c.5322.4536 1.1173.8407 1.7425 1.1529l3.4073 1.6262c.5789.2337 1.2374.1538 1.7425-.2142l.9587-.7859c.7371-.6022 1.2985-1.3928 1.6249-2.2882l.2001-.5502c.196-.6387.1793-1.324-.0476-1.9523l-1.0024-2.3721c-.2203-.5954-.1021-1.2637.3089-1.7469l6.0997-6.5075 1.3725-1.5852c.0735-.1678.1361-.3402.1874-.5161z" fill="#fff"/></g></svg>