<svg fill="none" height="64" viewBox="0 0 64 64" width="64" xmlns="http://www.w3.org/2000/svg" xmlns:xlink="http://www.w3.org/1999/xlink"><clipPath id="a"><path d="m0 0h64v64h-64z"/></clipPath><g clip-path="url(#a)"><path d="m61.6532 20.0017h-29.652c-6.6271-.0065-12.0047 5.3605-12.0113 11.9876-.002 2.0584.5254 4.0827 1.5318 5.8783l-14.826-25.4389c10.7986-13.97625 30.8827-16.55213 44.859-5.75349 4.4884 3.46799 7.9738 8.06739 10.0985 13.32649z" fill="#db4437"/><path d="m63.9997 32.0012c-.0147 17.6662-14.3323 31.9838-31.9985 31.9985-1.338.005-2.6745-.0841-3.9998-.2666l14.3993-25.7322c3.3002-5.7452 1.333-13.0775-4.3998-16.3993-1.815-1.0508-3.8758-1.6029-5.9731-1.5999h29.6253c1.5572 3.8086 2.3544 7.8849 2.3466 11.9995z" fill="#ffcd40"/><path d="m42.4007 38.0009-14.3993 25.7323h-.0267c-17.5227-2.2139-29.93286-18.2137-27.718964-35.7364.716593-5.6717 2.940364-11.0475 6.439964-15.5681l14.826 25.4389.08.1333c3.3062 5.7435 10.6423 7.7193 16.3858 4.4132 1.8347-1.0561 3.3573-2.5786 4.4132-4.4132z" fill="#0f9d58"/><path d="m42.4007 38.0009c-3.3062 5.7435-10.6424 7.7193-16.3859 4.4132-1.8345-1.0561-3.3571-2.5786-4.4131-4.4132l-.08-.1334c-3.24-5.7811-1.1799-13.0941 4.6012-16.3341 1.7957-1.0063 3.82-1.5338 5.8783-1.5318h.0266c2.0973-.003 4.1581.5491 5.9731 1.5999 5.7329 3.3219 7.7 10.6542 4.3998 16.3994z" fill="#f44336"/><path d="m42.4007 38.0009c-3.3062 5.7435-10.6424 7.7193-16.3859 4.4132-1.8345-1.0561-3.3571-2.5786-4.4131-4.4132l-.08-.1334c-3.24-5.7811-1.1799-13.0941 4.6012-16.3341 1.7957-1.0063 3.82-1.5338 5.8783-1.5318h.0266c2.0973-.003 4.1581.5491 5.9731 1.5999 5.7329 3.3219 7.7 10.6542 4.3998 16.3994z" fill="#2196f3"/><path d="m31.9559 45.334c-2.3246-.0002-4.6083-.6128-6.621-1.7759-2.0296-1.1738-3.7151-2.8603-4.8878-4.8904-3.6817-6.377-1.4968-14.5311 4.8801-18.2128 2.0291-1.1715 4.3311-1.7876 6.6741-1.7863 7.3634-.0058 13.3374 5.959 13.343 13.3224.0019 2.3439-.6143 4.6468-1.7863 6.6767-2.4028 4.131-6.823 6.6708-11.6021 6.6663zm.0693-23.9989c-3.8265-.0204-7.3691 2.0161-9.277 5.3331-2.9453 5.1073-1.1928 11.6354 3.9145 14.5807 5.1072 2.9454 11.6353 1.1929 14.5807-3.9144 2.9454-5.1015 1.1974-11.6249-3.9041-14.5703-1.6152-.9325-3.4466-1.4252-5.3115-1.429h-.0026z" fill="#fafafa"/></g></svg>