<svg fill="none" height="64" viewBox="0 0 64 64" width="64" xmlns="http://www.w3.org/2000/svg" xmlns:xlink="http://www.w3.org/1999/xlink"><linearGradient id="a" gradientUnits="userSpaceOnUse" x1="54.532" x2="7.435" y1="11.069" y2="56.515"><stop offset=".048" stop-color="#fff44f"/><stop offset=".111" stop-color="#ffe847"/><stop offset=".225" stop-color="#ffc830"/><stop offset=".368" stop-color="#ff980e"/><stop offset=".401" stop-color="#ff8b16"/><stop offset=".462" stop-color="#ff672a"/><stop offset=".534" stop-color="#ff3647"/><stop offset=".705" stop-color="#e31587"/></linearGradient><radialGradient id="b" cx="0" cy="0" gradientTransform="matrix(59.1523 0 0 59.1436 52.3554 8.49638)" gradientUnits="userSpaceOnUse" r="1"><stop offset=".129" stop-color="#ffbd4f"/><stop offset=".186" stop-color="#ffac31"/><stop offset=".247" stop-color="#ff9d17"/><stop offset=".283" stop-color="#ff980e"/><stop offset=".403" stop-color="#ff563b"/><stop offset=".467" stop-color="#ff3750"/><stop offset=".71" stop-color="#f5156c"/><stop offset=".782" stop-color="#eb0878"/><stop offset=".86" stop-color="#e50080"/></radialGradient><radialGradient id="c" cx="0" cy="0" gradientTransform="matrix(59.1523 0 0 59.1436 30.7406 32.676)" gradientUnits="userSpaceOnUse" r="1"><stop offset=".3" stop-color="#960e18"/><stop offset=".351" stop-color="#b11927" stop-opacity=".74"/><stop offset=".435" stop-color="#db293d" stop-opacity=".343"/><stop offset=".497" stop-color="#f5334b" stop-opacity=".094"/><stop offset=".53" stop-color="#ff3750" stop-opacity="0"/></radialGradient><radialGradient id="d" cx="0" cy="0" gradientTransform="matrix(42.8533 0 0 42.847 37.8719 -4.92548)" gradientUnits="userSpaceOnUse" r="1"><stop offset=".132" stop-color="#fff44f"/><stop offset=".252" stop-color="#ffdc3e"/><stop offset=".506" stop-color="#ff9d12"/><stop offset=".526" stop-color="#ff980e"/></radialGradient><radialGradient id="e" cx="0" cy="0" gradientTransform="matrix(28.165 0 0 28.1609 24.1978 48.1246)" gradientUnits="userSpaceOnUse" r="1"><stop offset=".353" stop-color="#3a8ee6"/><stop offset=".472" stop-color="#5c79f0"/><stop offset=".669" stop-color="#9059ff"/><stop offset="1" stop-color="#c139e6"/></radialGradient><radialGradient id="f" cx="0" cy="0" gradientTransform="matrix(14.51473635 -3.50869557 4.10727065 16.99091569 33.9729 27.829)" gradientUnits="userSpaceOnUse" r="1"><stop offset=".206" stop-color="#9059ff" stop-opacity="0"/><stop offset=".278" stop-color="#8c4ff3" stop-opacity=".064"/><stop offset=".747" stop-color="#7716a8" stop-opacity=".45"/><stop offset=".975" stop-color="#6e008b" stop-opacity=".6"/></radialGradient><radialGradient id="g" cx="0" cy="0" gradientTransform="matrix(20.2619 0 0 20.2589 29.9938 6.07653)" gradientUnits="userSpaceOnUse" r="1"><stop offset="0" stop-color="#ffe226"/><stop offset=".121" stop-color="#ffdb27"/><stop offset=".295" stop-color="#ffc82a"/><stop offset=".502" stop-color="#ffa930"/><stop offset=".732" stop-color="#ff7e37"/><stop offset=".792" stop-color="#ff7139"/></radialGradient><radialGradient id="h" cx="0" cy="0" gradientTransform="matrix(86.4483 0 0 86.4355 45.9201 -6.77341)" gradientUnits="userSpaceOnUse" r="1"><stop offset=".113" stop-color="#fff44f"/><stop offset=".456" stop-color="#ff980e"/><stop offset=".622" stop-color="#ff5634"/><stop offset=".716" stop-color="#ff3647"/><stop offset=".904" stop-color="#e31587"/></radialGradient><radialGradient id="i" cx="0" cy="0" gradientTransform="matrix(6.64934176 63.00087392 -41.35281385 4.36452663 38.6341 -1.96714)" gradientUnits="userSpaceOnUse" r="1"><stop offset="0" stop-color="#fff44f"/><stop offset=".06" stop-color="#ffe847"/><stop offset=".168" stop-color="#ffc830"/><stop offset=".304" stop-color="#ff980e"/><stop offset=".356" stop-color="#ff8b16"/><stop offset=".455" stop-color="#ff672a"/><stop offset=".57" stop-color="#ff3647"/><stop offset=".737" stop-color="#e31587"/></radialGradient><radialGradient id="j" cx="0" cy="0" gradientTransform="matrix(53.9712 0 0 53.9632 29.5166 13.5803)" gradientUnits="userSpaceOnUse" r="1"><stop offset=".137" stop-color="#fff44f"/><stop offset=".48" stop-color="#ff980e"/><stop offset=".592" stop-color="#ff5634"/><stop offset=".655" stop-color="#ff3647"/><stop offset=".904" stop-color="#e31587"/></radialGradient><radialGradient id="k" cx="0" cy="0" gradientTransform="matrix(59.071 0 0 59.0623 43.7634 16.7386)" gradientUnits="userSpaceOnUse" r="1"><stop offset=".094" stop-color="#fff44f"/><stop offset=".231" stop-color="#ffe141"/><stop offset=".509" stop-color="#ffaf1e"/><stop offset=".626" stop-color="#ff980e"/></radialGradient><linearGradient id="l" gradientUnits="userSpaceOnUse" x1="53.966" x2="13.892" y1="10.826" y2="50.905"><stop offset=".167" stop-color="#fff44f" stop-opacity=".8"/><stop offset=".266" stop-color="#fff44f" stop-opacity=".634"/><stop offset=".489" stop-color="#fff44f" stop-opacity=".217"/><stop offset=".6" stop-color="#fff44f" stop-opacity="0"/></linearGradient><clipPath id="m"><path d="m0 2h64v60h-64z"/></clipPath><g clip-path="url(#m)"><path d="m58.2877 21.6374c-1.2329-2.9661-3.7338-6.1686-5.6922-7.181 1.3969 2.7049 2.3662 5.6097 2.8735 8.6113l.0052.0476c-3.2081-7.9972-8.6484-11.2216-13.0916-18.24299-.2248-.35502-.4495-.71077-.6684-1.08629-.1252-.21447-.2255-.40772-.3126-.5856-.1843-.35681-.3263-.7339-.4232-1.12362.0001-.01799-.0064-.03539-.0183-.04889-.0118-.0135-.0283-.02215-.0461-.02431-.0175-.0048-.036-.0048-.0535 0-.0036 0-.0095.00659-.0139.00805s-.0139.00805-.0205.01098l.011-.01903c-7.1271 4.17241-9.5453 11.8965-9.7678 15.76-2.8462.1956-5.5674 1.2443-7.8087 3.0093-.2338-.1981-.4782-.3833-.7321-.5549-.6465-2.2627-.6741-4.6573-.0798-6.9343-2.6173 1.2678-4.943 3.065-6.8299 5.2778h-.0131c-1.1246-1.4252-1.0455-6.1247-.9811-7.1063-.3326.1337-.6502.3023-.9473.5029-.9927.7084-1.9208 1.5033-2.7733 2.3753-.97139.9848-1.85863 2.0492-2.65239 3.1821v.0043-.0051c-1.82424 2.5859-3.11813 5.5074-3.80697 8.5959l-.03807.1874c-.05344.2496-.24599 1.4999-.27893 1.7715 0 .0212-.00439.041-.00659.0622-.24838 1.2907-.40228 2.5979-.4605 3.9111v.1464c.00622 7.1035 2.67735 13.9463 7.48545 19.176 4.8081 5.2296 11.4034 8.4656 18.4824 9.0684 7.079.6029 14.1266-1.4714 19.75-5.8127 5.6234-4.3414 9.4134-10.634 10.6209-17.6342.0476-.366.0864-.7283.1289-1.098.5844-4.8296-.0483-9.7286-1.8405-14.2513zm-32.7034 22.2074c.1325.0637.257.1325.3932.1933l.0197.0124c-.1376-.0659-.2752-.1344-.4129-.2057zm29.8921-20.7229v-.0271l.0051.03z" fill="url(#a)"/><path d="m58.2877 21.6374c-1.2329-2.9661-3.7338-6.1686-5.6922-7.181 1.3969 2.7049 2.3662 5.6097 2.8735 8.6113v.0271l.0052.03c2.187 6.2575 1.8706 13.118-.883 19.1477-3.252 6.9767-11.1236 14.1276-23.445 13.7799-13.3135-.3769-25.0382-10.2546-27.23014-23.192-.399-2.0401 0-3.0744.2006-4.7324-.27364 1.2879-.42634 2.5985-.45611 3.9148v.1464c.00622 7.1035 2.67735 13.9463 7.48545 19.176 4.8081 5.2296 11.4034 8.4656 18.4824 9.0685 7.079.6028 14.1266-1.4715 19.75-5.8128 5.6234-4.3414 9.4134-10.634 10.6209-17.6342.0476-.366.0864-.7283.1289-1.098.5844-4.8296-.0483-9.7286-1.8405-14.2513z" fill="url(#b)"/><path d="m58.2877 21.6374c-1.2329-2.9661-3.7338-6.1686-5.6922-7.181 1.3969 2.7049 2.3662 5.6097 2.8735 8.6113v.0271l.0052.03c2.187 6.2575 1.8706 13.118-.883 19.1477-3.252 6.9767-11.1236 14.1276-23.445 13.7799-13.3135-.3769-25.0382-10.2546-27.23014-23.192-.399-2.0401 0-3.0744.2006-4.7324-.27364 1.2879-.42634 2.5985-.45611 3.9148v.1464c.00622 7.1035 2.67735 13.9463 7.48545 19.176 4.8081 5.2296 11.4034 8.4656 18.4824 9.0685 7.079.6028 14.1266-1.4715 19.75-5.8128 5.6234-4.3414 9.4134-10.634 10.6209-17.6342.0476-.366.0864-.7283.1289-1.098.5844-4.8296-.0483-9.7286-1.8405-14.2513z" fill="url(#c)"/><path d="m44.4991 24.9724c.0615.0432.1186.0864.1764.1296-.7127-1.2637-1.6-2.4206-2.6356-3.4368-8.819-8.8191-2.3112-19.12205-1.2138-19.64543l.011-.01611c-7.1271 4.17241-9.5453 11.89654-9.7678 15.76004.3309-.0227.6589-.0505.9971-.0505 2.5288.0046 5.0114.6787 7.1951 1.9538 2.1838 1.275 3.9909 3.1056 5.2376 5.3054z" fill="url(#d)"/><path d="m32.0847 26.7336c-.0468.7056-2.5404 3.1396-3.4123 3.1396-8.0686 0-9.3784 4.8802-9.3784 4.8802.3573 4.1095 3.2213 7.4943 6.6835 9.2847.1581.082.3184.1559.4788.2284.2777.123.5554.2367.8331.3411 1.1882.4205 2.4327.6606 3.692.7123 14.1422.6632 16.8817-16.9093 6.6761-22.0084 2.4076-.3132 4.8457.2787 6.8416 1.6609-1.2467-2.1999-3.0538-4.0304-5.2376-5.3054-2.1837-1.2751-4.6662-1.9492-7.1951-1.9539-.3368 0-.6662.0279-.9971.0505-2.8462.1957-5.5674 1.2443-7.8087 3.0093.4327.366.921.855 1.9496 1.8688 1.9255 1.8966 6.8635 3.8613 6.8745 4.0919z" fill="url(#e)"/><path d="m32.0847 26.7336c-.0468.7056-2.5404 3.1396-3.4123 3.1396-8.0686 0-9.3784 4.8802-9.3784 4.8802.3573 4.1095 3.2213 7.4943 6.6835 9.2847.1581.082.3184.1559.4788.2284.2777.123.5554.2367.8331.3411 1.1882.4205 2.4327.6606 3.692.7123 14.1422.6632 16.8817-16.9093 6.6761-22.0084 2.4076-.3132 4.8457.2787 6.8416 1.6609-1.2467-2.1999-3.0538-4.0304-5.2376-5.3054-2.1837-1.2751-4.6662-1.9492-7.1951-1.9539-.3368 0-.6662.0279-.9971.0505-2.8462.1957-5.5674 1.2443-7.8087 3.0093.4327.366.921.855 1.9496 1.8688 1.9255 1.8966 6.8635 3.8613 6.8745 4.0919z" fill="url(#f)"/><path d="m21.9377 19.8293c.2299.1464.4195.2737.5857.3886-.6466-2.2626-.6741-4.6573-.0798-6.9342-2.6174 1.2678-4.943 3.0649-6.8299 5.2777.1384-.0036 4.2543-.0776 6.324 1.2679z" fill="url(#g)"/><path d="m3.91972 32.8604c2.18974 12.9374 13.91668 22.8151 27.23008 23.192 12.3214.3485 20.1931-6.8032 23.4451-13.7799 2.7536-6.0297 3.0699-12.8902.8829-19.1477v-.0271c0-.0212-.0044-.0337 0-.0271l.0051.0476c1.0067 6.5712-2.3361 12.9374-7.5619 17.2423l-.0161.0366c-10.1822 8.2914-19.9266 5.0025-21.8989 3.66-.1376-.0659-.2753-.1344-.4129-.2057-5.9367-2.8372-8.3893-8.2452-7.8636-12.8832-1.4092.0208-2.7943-.3675-3.9873-1.1178s-2.1427-1.8304-2.7342-3.1095c1.5584-.9546 3.3353-1.4942 5.1614-1.5675s3.6405.3222 5.2704 1.1488c3.3603 1.5252 7.1841 1.6755 10.6537.4187-.011-.2306-4.9491-2.196-6.8745-4.0919-1.0286-1.0138-1.5169-1.5021-1.9496-1.8688-.2339-.1981-.4782-.3833-.7321-.5549-.1684-.1149-.358-.2393-.5857-.3887-2.0697-1.3454-6.1856-1.2715-6.3218-1.2678h-.0132c-1.1245-1.4252-1.0454-6.1247-.981-7.1063-.3327.1337-.6502.3023-.9473.5029-.9927.7084-1.9208 1.5033-2.7733 2.3754-.97489.982-1.86581 2.0439-2.66339 3.1747v.0043-.0051c-1.82424 2.5859-3.11813 5.5074-3.80697 8.5959-.01391.0578-1.02203 4.4645-.52492 6.7498z" fill="url(#h)"/><path d="m42.0414 21.6652c1.0359 1.0172 1.9232 2.1754 2.6356 3.4404.156.1178.3016.235.4254.3484 6.433 5.9292 3.0624 14.3107 2.8113 14.9072 5.2258-4.3049 8.5657-10.6711 7.5619-17.2423-3.2095-8.0008-8.6498-11.2252-13.093-18.24659-.2248-.35502-.4495-.71077-.6684-1.08629-.1252-.21447-.2255-.40772-.3127-.5856-.1842-.35681-.3262-.7339-.4231-1.12362.0001-.01799-.0064-.03539-.0183-.04889-.0118-.0135-.0283-.02215-.0461-.02431-.0175-.0048-.036-.0048-.0535 0-.0036 0-.0095.00659-.0139.00805s-.0139.00805-.0205.01098c-1.0974.52045-7.6051 10.82337 1.2153 19.64257z" fill="url(#i)"/><path d="m45.098 25.4503c-.1237-.1135-.2694-.2306-.4254-.3484-.0578-.0432-.1149-.0864-.1764-.1296-1.9959-1.3822-4.434-1.9741-6.8416-1.6609 10.2056 5.102 7.4675 22.6716-6.6761 22.0084-1.2593-.0517-2.5038-.2918-3.692-.7123-.2777-.1039-.5555-.2176-.8332-.3411-.1603-.0732-.3206-.1464-.4788-.2284l.0198.0125c1.9723 1.3461 11.7138 4.635 21.8989-3.66l.0161-.0366c.254-.593 3.6247-8.9766-2.8113-14.9036z" fill="url(#j)"/><path d="m19.294 34.7534s1.3098-4.8802 9.3784-4.8802c.8719 0 3.3677-2.434 3.4123-3.1396-3.4696 1.2568-7.2934 1.1065-10.6536-.4187-1.6299-.8266-3.4444-1.2221-5.2705-1.1488s-3.603.6129-5.1614 1.5675c.5915 1.2791 1.5413 2.3592 2.7343 3.1095s2.578 1.1386 3.9872 1.1178c-.5256 4.6387 1.9269 10.0467 7.8636 12.8832.1325.0637.257.1325.3932.1933-3.4651-1.7897-6.3262-5.1745-6.6835-9.284z" fill="url(#k)"/><path d="m58.2877 21.6374c-1.2329-2.9661-3.7338-6.1686-5.6922-7.181 1.3969 2.7049 2.3662 5.6097 2.8735 8.6113l.0052.0476c-3.2081-7.9972-8.6484-11.2216-13.0916-18.24299-.2248-.35502-.4495-.71077-.6684-1.08629-.1252-.21447-.2255-.40772-.3126-.5856-.1843-.35681-.3263-.7339-.4232-1.12362.0001-.01799-.0064-.03539-.0183-.04889-.0118-.0135-.0283-.02215-.0461-.02431-.0175-.0048-.036-.0048-.0535 0-.0036 0-.0095.00659-.0139.00805s-.0139.00805-.0205.01098l.011-.01903c-7.1271 4.17241-9.5453 11.8965-9.7678 15.76.3309-.0227.6589-.0505.9971-.0505 2.5289.0046 5.0114.6787 7.1951 1.9538 2.1838 1.2751 3.9909 3.1056 5.2376 5.3055-1.9958-1.3823-4.434-1.9742-6.8416-1.661 10.2057 5.1021 7.4676 22.6716-6.6761 22.0084-1.2593-.0517-2.5038-.2918-3.692-.7122-.2777-.104-.5554-.2177-.8331-.3411-.1604-.0732-.3207-.1464-.4788-.2284l.0197.0124c-.1376-.0659-.2752-.1344-.4129-.2057.1325.0637.257.1325.3932.1933-3.4651-1.7905-6.3262-5.1753-6.6835-9.2847 0 0 1.3098-4.8803 9.3784-4.8803.8719 0 3.3677-2.4339 3.4123-3.1395-.011-.2306-4.949-2.196-6.8745-4.0919-1.0286-1.0139-1.5169-1.5021-1.9496-1.8688-.2338-.1981-.4782-.3833-.7321-.5549-.6465-2.2627-.6741-4.6573-.0798-6.9343-2.6173 1.2678-4.943 3.065-6.8299 5.2778h-.0131c-1.1246-1.4252-1.0455-6.1247-.9811-7.1063-.3326.1337-.6502.3023-.9473.5029-.9927.7084-1.9208 1.5033-2.7733 2.3753-.97139.9848-1.85863 2.0492-2.65239 3.1821v.0043-.0051c-1.82424 2.5859-3.11813 5.5074-3.80697 8.5959l-.03807.1874c-.05344.2496-.29284 1.5175-.32725 1.7898-.21897 1.3087-.35881 2.6294-.41877 3.955v.1464c.00622 7.1035 2.67735 13.9463 7.48545 19.176 4.8081 5.2296 11.4034 8.4656 18.4824 9.0684 7.079.6029 14.1266-1.4714 19.75-5.8127 5.6234-4.3414 9.4134-10.634 10.6209-17.6342.0476-.366.0864-.7283.1289-1.098.5844-4.8296-.0483-9.7286-1.8405-14.2513zm-2.815 1.4574.0051.03z" fill="url(#l)"/></g></svg>