<svg fill="none" height="64" viewBox="0 0 64 64" width="64" xmlns="http://www.w3.org/2000/svg"><path d="m32 64c17.6731 0 32-14.3269 32-32s-14.3269-32-32-32-32 14.3269-32 32 14.3269 32 32 32z" fill="#158af4"/><path d="m63.9487 33.7998-14.3713-14.3712-31.5357 3.863-5.6842 21.4792 19.2239 19.2239c.1395.0018.2788.0053.4186.0053 17.069 0 31.015-13.3645 31.9487-30.2002z" fill="#086fbc"/><path d="m12.3575 17.0209v27.75h10.0723v-17.5545h20.3911v17.5545h10.1134v-17.9655c0-5.4038-4.3806-9.7845-9.7845-9.7845z" fill="#fff"/><path d="m43.1497 17.0209h-10.7903v10.1955h10.4615v17.5545h10.1133v-17.9655c-.0001-5.4039-4.3807-9.7845-9.7845-9.7845z" fill="#e0e0e0"/><path d="m37.64 32.4788h-10.195v12.2925h10.195z" fill="#fff"/><path d="m37.64 32.4788h-5.2812v12.2925h5.2812z" fill="#e0e0e0"/></svg>