<svg fill="none" height="64" viewBox="0 0 64 64" width="64" xmlns="http://www.w3.org/2000/svg" xmlns:xlink="http://www.w3.org/1999/xlink"><linearGradient id="a" gradientUnits="userSpaceOnUse" x1="26.664" x2="26.664" y1="1.043" y2="63.069"><stop offset=".3" stop-color="#ff1b2d"/><stop offset=".438" stop-color="#fa1a2c"/><stop offset=".594" stop-color="#ed1528"/><stop offset=".758" stop-color="#d60e21"/><stop offset=".927" stop-color="#b70519"/><stop offset="1" stop-color="#a70014"/></linearGradient><linearGradient id="b" gradientUnits="userSpaceOnUse" x1="42.733" x2="42.733" y1="4.699" y2="59.557"><stop offset="0" stop-color="#9c0000"/><stop offset=".7" stop-color="#ff4b4b"/></linearGradient><path d="m21.475 50.025c-3.55-4.175-5.825-10.35-5.975-17.275v-1.5c.15-6.925 2.45-13.1 5.975-17.275 4.6-5.95 11.35-8.625 18.975-8.625 4.7 0 9.125.325 12.875 2.825-5.625-5.075-13.05-8.15-21.2-8.175h-.125c-17.675 0-32 14.325-32 32 0 17.15 13.5 31.175 30.475 31.975.5.025 1.025.025 1.525.025 8.2 0 15.675-3.075 21.325-8.15-3.75 2.5-7.925 2.6-12.625 2.6-7.6.025-14.65-2.45-19.225-8.425z" fill="url(#a)"/><path d="m21.475 13.975c2.925-3.475 6.725-5.55002 10.875-5.55002 9.325 0 16.875 10.55002 16.875 23.60002s-7.55 23.6-16.875 23.6c-4.15 0-7.925-2.1-10.875-5.55 4.6 5.95 11.425 9.75 19.025 9.75 4.675 0 9.075-1.425 12.825-3.925 6.55-5.9 10.675-14.425 10.675-23.9s-4.125-18-10.675-23.85002c-3.75-2.5-8.125-3.925-12.825-3.925-7.625 0-14.45 3.775-19.025 9.75002z" fill="url(#b)"/></svg>