<svg fill="none" height="64" viewBox="0 0 64 64" width="64" xmlns="http://www.w3.org/2000/svg" xmlns:xlink="http://www.w3.org/1999/xlink"><filter id="a" color-interpolation-filters="sRGB" filterUnits="userSpaceOnUse" height="62.853" width="65.09" x="-.462" y="1.52"><feFlood flood-opacity="0" result="BackgroundImageFix"/><feBlend in="SourceGraphic" in2="BackgroundImageFix" mode="normal" result="shape"/><feGaussianBlur result="effect1_foregroundBlur" stdDeviation="1.184"/></filter><filter id="b" color-interpolation-filters="sRGB" filterUnits="userSpaceOnUse" height="37.65" width="38.937" x="13.548" y="12.872"><feFlood flood-opacity="0" result="BackgroundImageFix"/><feBlend in="SourceGraphic" in2="BackgroundImageFix" mode="normal" result="shape"/><feGaussianBlur result="effect1_foregroundBlur" stdDeviation=".337"/></filter><linearGradient id="c" gradientUnits="userSpaceOnUse" x1="32.083" x2="32.083" y1="61.707" y2="-.943"><stop offset="0" stop-color="#bdbdbd"/><stop offset="1" stop-color="#fff"/></linearGradient><radialGradient id="d" cx="32.214" cy="26.172" gradientUnits="userSpaceOnUse" r="31.325"><stop offset="0" stop-color="#06c2e7"/><stop offset=".25" stop-color="#0db8ec"/><stop offset=".5" stop-color="#12aef1"/><stop offset=".75" stop-color="#1f86f9"/><stop offset="1" stop-color="#107ddd"/></radialGradient><clipPath id="e"><path d="m0 0h64v64h-64z"/></clipPath><clipPath id="f"><path d="m-1-1h66.1658v65.8038h-66.1658z"/></clipPath><g clip-path="url(#e)"><g clip-path="url(#f)"><g filter="url(#a)" opacity=".53"><path d="m62.2589 32.9467c0 3.8159-.7805 7.5944-2.297 11.1199-1.5165 3.5254-3.7392 6.7287-6.5413 9.4269-2.8021 2.6983-6.1287 4.8386-9.7898 6.2989-3.6612 1.4603-7.5851 2.2119-11.5479 2.2119s-7.8867-.7516-11.5479-2.2119c-3.6611-1.4603-6.9877-3.6006-9.7898-6.2989-2.80206-2.6982-5.02481-5.9015-6.5413-9.4269-1.51648-3.5255-2.29701-7.304-2.29701-11.1199 0-7.7065 3.17925-15.0974 8.83831-20.5468 5.6591-5.44933 13.3345-8.51074 21.3377-8.51074 3.9628 0 7.8867.75159 11.5479 2.21187 3.6611 1.46028 6.9877 3.60065 9.7898 6.29887 2.8021 2.6983 5.0248 5.9015 6.5413 9.427 1.5165 3.5254 2.297 7.3039 2.297 11.1198z" fill="#000"/></g><path d="m63.4081 30.3817c0 4.1137-.8102 8.1871-2.3845 11.9876-1.5742 3.8006-3.8816 7.2539-6.7904 10.1627s-6.3621 5.2162-10.1626 6.7904c-3.8006 1.5743-7.874 2.3845-11.9877 2.3845-8.3079 0-16.2756-3.3003-22.15022-9.1749-5.87461-5.8746-9.174929-13.8423-9.174929-22.1503 0-8.3079 3.300319-16.2756 9.174929-22.15024 5.87462-5.87461 13.84232-9.174939 22.15022-9.174941 4.1137-.000001 8.1871.810252 11.9877 2.384491 3.8005 1.57424 7.2538 3.88164 10.1626 6.79045 2.9088 2.90884 5.2162 6.36204 6.7904 10.16264 1.5743 3.8005 2.3845 7.8739 2.3845 11.9876z" fill="url(#c)" stroke="#cdcdcd" stroke-linecap="round" stroke-linejoin="round" stroke-width=".093"/><path d="m60.9535 30.3817c0 7.6569-3.0417 15.0003-8.456 20.4145-5.4143 5.4143-12.7576 8.456-20.4146 8.456-7.6569 0-15.0003-3.0417-20.4146-8.456-5.41425-5.4142-8.45596-12.7576-8.45596-20.4145 0-7.657 3.04171-15.0003 8.45596-20.4146 5.4143-5.41428 12.7577-8.45599 20.4146-8.45599 7.657 0 15.0003 3.04171 20.4146 8.45599 5.4143 5.4143 8.456 12.7576 8.456 20.4146z" fill="url(#d)"/><path d="m32.0829 3.01672c-.2332 0-.4209.18772-.4209.42092v4.85518c0 .2332.1877.42091.4209.42091s.4209-.18771.4209-.42091v-4.85518c0-.2332-.1877-.42092-.4209-.42092zm-2.7536.17405c-.0279-.003-.0566-.003-.0856.00035-.232.0242-.3992.23038-.375.46232l.2122 2.03119c.0242.23194.2304.39919.4623.37497.232-.0242.3992-.2304.375-.46234l-.212-2.03117c-.0212-.20295-.1818-.35637-.377-.37532zm5.5265.00199c-.1952.0188-.3557.17221-.3771.37513l-.2136 2.03102c-.0244.23192.1428.43831.3748.4627.2319.0244.4381-.14268.4625-.3746l.2136-2.03119c.0244-.23192-.1429-.43814-.3748-.46252-.029-.003-.0575-.003-.0854-.00052zm-8.3553.40819c-.028.00022-.0564.003-.0849.009-.2282.0483-.373.2709-.3247.49904l1.0055 4.74981c.0483.22814.2709.37293.4991.32464.2281-.0483.3729-.27071.3246-.49885l-1.0055-4.74999c-.0423-.19963-.2179-.33544-.414-.33391zm11.1839.00402c-.1961-.002-.3718.13393-.4142.33352l-1.009 4.74925c-.0485.22811.0962.45077.3243.49923.2281.0485.4507-.0962.4992-.32428l1.009-4.74927c.0485-.2281-.0963-.45076-.3243-.49921-.0285-.006-.057-.009-.085-.009zm-13.8834.75715c-.0545-.005-.1108.00101-.1662.01941-.2218.0721-.3424.30849-.2703.53027l.6311 1.94237c.0721.22179.3087.34237.5304.27031.2218-.0721.3422-.30868.2702-.53046l-.6311-1.94235c-.054-.16634-.2006-.27568-.3641-.28958zm16.5677.00101c-.1635.0139-.3101.12323-.3641.28956l-.6315 1.94219c-.0721.22177.0484.45837.2701.53046.2218.0721.4584-.0484.5305-.27013l.6315-1.94237c.0721-.22178-.0484-.45836-.2701-.53045-.0554-.018-.112-.02391-.1664-.01931zm-19.2373.97591c-.0547.001-.11.01299-.1633.03669-.2129.0947-.3083.34244-.2136.55553l1.972 4.43664c.0947.2131.3424.3083.5555.2136.213-.0947.3085-.3424.2138-.5555l-1.9721-4.43663c-.071-.15983-.2282-.25351-.3923-.25033zm21.937.01489c-.1641-.003-.3213.09009-.3926.24978l-1.978 4.43389c-.095.213 0 .4609.2129.5559.213.095.4609.0001.5559-.2129l1.978-4.43388c.095-.21297 0-.4609-.2129-.55591-.0532-.0237-.1087-.0357-.1633-.0369zm-24.4149 1.29619c-.0808-.006-.164.01198-.2398.05578-.2019.1166-.2706.37303-.154.57498l1.0211 1.7687c.1166.20196.373.27063.575.15403s.2706-.373.1541-.57496l-1.0212-1.76868c-.0729-.12623-.2005-.20042-.3352-.20984zm26.8588 0c-.1347.009-.2621.08359-.335.20982l-1.0213 1.76868c-.1166.20196-.0477.45836.1542.57496.202.1166.4584.04792.575-.15403l1.0211-1.7687c.1166-.20195.0479-.45838-.154-.57498-.0757-.0437-.1592-.06138-.24-.05578zm-29.2649 1.50071c-.081.003-.1621.02901-.2329.08031-.1888.13693-.2305.39912-.0935.58788l2.8509 3.92998c.1369.1887.3992.2304.588.0936.1888-.137.2305-.3992.0935-.5879l-2.851-3.92996c-.0856-.11798-.2201-.17847-.355-.17386zm31.7012.02141c-.1349-.005-.2694.0555-.3552.17331l-2.8562 3.92615c-.1372.1886-.0958.4509.0928.588.1885.1372.4508.0959.588-.0926l2.8561-3.9261c.1372-.18858.0957-.45087-.0928-.58806-.0707-.0514-.1517-.0778-.2327-.0807zm-33.852 1.7823c-.1074-.006-.217.0299-.3037.10796-.1733.156-.1872.4211-.0312.5944l1.3665 1.518c.156.1733.4211.1872.5944.0312.1733-.1561.1873-.4213.0312-.5946l-1.3663-1.5178c-.078-.0867-.1834-.13355-.2909-.1392zm35.9757.00301c-.1075.006-.2128.05245-.2909.13915l-1.3665 1.5176c-.156.1733-.1422.4386.0311.5946.1733.1561.4384.1421.5945-.0312l1.3666-1.5176c.1561-.1733.1421-.4386-.0312-.5946-.0867-.07799-.1961-.11353-.3035-.1079zm-38.037 1.97705c-.1074.006-.2127.0525-.2907.1392-.156.1733-.142.4383.0312.5944l3.6084 3.2483c.1734.156.4384.1421.5944-.0312.1561-.1733.1423-.4384-.0311-.5944l-3.6085-3.2483c-.0867-.078-.1963-.1136-.3038-.108zm40.1083.0142c-.1074-.006-.2172.0298-.3039.1077l-3.6106 3.2458c-.1734.1559-.1877.421-.0318.5944.1559.1735.4212.1876.5946.0316l3.6107-3.2458c.1735-.1559.1876-.4209.0317-.5944-.078-.0867-.1833-.1336-.2907-.1393zm-41.8225 2.19c-.1349-.005-.2695.0558-.35513.1737-.13707.1886-.0955.4507.09323.5878l1.6522 1.2005c.1887.137.4508.0957.5879-.093.137-.1887.0956-.451-.093-.5881l-1.6523-1.2004c-.0707-.0514-.1519-.0776-.2329-.0805zm43.5351.0153c-.081.003-.1621.0289-.2329.0803l-1.653 1.1993c-.1887.137-.2305.3993-.0936.5881.137.1887.3991.2303.5879.0934l1.6531-1.1994c.1888-.1369.2304-.3991.0935-.5878-.0856-.118-.2201-.1785-.355-.1739zm-45.13699 2.3358c-.13469.009-.26211.0836-.33499.2099-.1166.2019-.0479.4583.15405.5749l4.20463 2.4276c.2019.1166.4584.0479.575-.1541.1166-.2019.0479-.4583-.1541-.5749l-4.20463-2.4276c-.0757-.0437-.15915-.0614-.23996-.0558zm46.72739 0c-.0808-.006-.1642.012-.2399.0558l-4.2047 2.4276c-.2019.1166-.2706.373-.154.575.1166.2019.373.2706.5749.154l4.2049-2.4275c.2019-.1166.2706-.3731.154-.575-.0729-.1262-.2005-.2004-.3352-.2098zm-47.93857 2.5061c-.16403-.004-.32133.0899-.39258.2496-.095.213-.00006.4609.21292.5559l1.86533.832c.21298.095.46091.0001.5559-.2129.095-.213-.00013-.4609-.2131-.5559l-1.86514-.832c-.0532-.0238-.10866-.0356-.16333-.0367zm49.15797.0173c-.0547.001-.1103.013-.1635.0367l-1.8657.8306c-.2131.0949-.3083.3426-.2135.5557.0949.213.3429.3083.5559.2134l1.8657-.8307c.213-.0948.3081-.3427.2133-.5557-.0711-.1598-.2282-.2533-.3922-.25zm-50.23741 2.602c-.16349.0137-.31005.1229-.36423.2892-.0722.2217.04798.4584.26975.5306l4.61629 1.5042c.2217.0722.4584-.0481.5306-.2698s-.048-.4584-.2697-.5306l-4.6163-1.5042c-.0554-.0181-.11192-.024-.16641-.0194zm51.31481.018c-.0545-.005-.1107.001-.1662.0194l-4.6174 1.5009c-.2217.0721-.3422.3087-.2701.5305.0721.2217.3087.3422.5305.2701l4.6171-1.5009c.2218-.0721.3424-.3087.2704-.5305-.0541-.1663-.2008-.2757-.3643-.2895zm-51.98733 2.7315c-.1961-.002-.37198.1341-.4144.3337-.0485.2281.09621.4507.32428.4992l1.99778.4246c.2281.0485.45071-.0962.4992-.3243.0485-.2281-.09618-.4507-.32425-.4992l-1.99759-.4246c-.0285-.006-.05702-.009-.08502-.009zm52.65463.004c-.028.0002-.0563.004-.0848.009l-1.9978.4244c-.2281.0485-.3727.2709-.3243.499.0485.2281.2711.3729.4993.3245l1.9975-.4244c.2281-.0485.373-.2711.3245-.4992-.0424-.1996-.2183-.3354-.4144-.3337zm-53.16366 2.7617c-.1952.0187-.35588.1718-.37732.3747-.0245.2319.14234.4384.37424.4629l4.82824.5105c.2319.0245.4384-.1425.4629-.3744s-.1425-.4384-.3744-.4629l-4.82827-.5105c-.029-.003-.05749-.003-.08539-.0003zm53.67626.0363c-.0279-.003-.0566-.003-.0856.0003l-4.8288.504c-.2319.0242-.3991.2304-.375.4623.0242.2319.2304.3992.4624.3749l4.8288-.5039c.2319-.0242.3992-.2304.375-.4623-.0212-.203-.1816-.3564-.3768-.3754zm-53.75802 2.7947c-.2332 0-.4209.1877-.4209.4209s.1877.4209.4209.4209h2.0423c.23319 0 .42108-.1877.42108-.4209s-.18789-.4209-.42108-.4209zm51.79302 0c-.2332 0-.4209.1877-.4209.4209s.1877.4209.4209.4209h2.0422c.2332 0 .421-.1877.421-.4209s-.1878-.4209-.421-.4209zm-46.8032 2.2946c-.0279-.003-.0564-.003-.0854.0004l-4.82904.5039c-.23194.0242-.39912.2304-.37494.4623.0242.232.23038.3992.46231.375l4.82907-.5039c.2319-.0242.3991-.2305.3749-.4624-.0212-.2029-.1818-.3563-.3769-.3753zm43.8531.0298c-.1952.0187-.3559.1719-.3773.3748-.0245.2319.1423.4384.3742.4629l4.8283.5104c.2319.0245.4384-.1425.4629-.3744s-.1425-.4383-.3744-.4628l-4.8281-.5105c-.029-.003-.0577-.003-.0856-.0004zm-46.26018 2.8436c-.028.0002-.0565.003-.085.009l-1.99777.4244c-.22811.0485-.37272.2711-.32428.4992.0485.2281.27113.3727.49924.3243l1.99777-.4242c.2281-.0485.3727-.2711.32425-.4992-.0424-.1996-.21809-.3354-.41418-.3338zm48.66928.004c-.1961-.002-.3718.134-.4142.3335-.0485.2281.096.4508.3241.4993l1.9978.4245c.228.0485.4507-.096.4992-.3241s-.0963-.4509-.3243-.4994l-1.9976-.4245c-.0285-.006-.057-.009-.085-.009zm-45.3052 1.6579c-.0545-.005-.1108.001-.1662.0194l-4.61741 1.5009c-.22178.0721-.34223.3087-.27014.5304.0721.2218.30868.3423.53046.2702l4.61719-1.5009c.2218-.0721.3424-.3087.2703-.5305-.0541-.1663-.2007-.2757-.3642-.2896zm41.9371.0149c-.1635.0137-.3101.1229-.3642.2892-.0722.2217.048.4584.2697.5306l4.6163 1.5042c.2218.0722.4584-.0481.5307-.2698s-.048-.4584-.2698-.5306l-4.6163-1.5042c-.0554-.0181-.1119-.024-.1664-.0194zm-43.69907 3.2725c-.0547.001-.11007.0128-.16333.0365l-1.86588.8307c-.21304.0948-.30812.3427-.21328.5558.0949.213.34269.3081.55572.2132l1.86588-.8306c.21303-.0948.30812-.3426.21328-.5557-.0711-.1597-.22836-.2532-.39239-.2499zm45.45887.016c-.164-.004-.3213.0899-.3926.2496-.095.213 0 .4609.2129.5559l1.8652.832c.2129.095.4609.0001.5559-.2129s0-.4609-.2129-.5559l-1.8652-.832c-.0532-.0238-.1086-.0356-.1633-.0367zm-41.8261.9121c-.0808-.006-.1643.012-.24.0558l-4.20463 2.4276c-.20195.1166-.27065.373-.15405.575.1166.2019.373.2706.57495.154l4.20463-2.4274c.202-.1166.2707-.3732.1541-.5751-.0729-.1262-.2003-.2004-.335-.2098zm38.2002 0c-.1347.009-.2622.0836-.3351.2099-.1166.2019-.0479.4585.154.5751l4.2047 2.4274c.2019.1166.4585.0479.5751-.1541.1166-.2019.0479-.4583-.154-.5749l-4.2049-2.4276c-.0757-.0437-.159-.0614-.2398-.0558zm-39.249 3.5625c-.081.003-.1621.0291-.2329.0805l-1.653 1.1993c-.1887.137-.23045.3991-.09355.5879.13695.1887.39915.2305.58785.0935l1.6532-1.1994c.1887-.1369.2305-.3991.0936-.5878-.0856-.118-.2202-.1787-.3552-.1741zm40.2876.0142c-.1349-.005-.2695.0558-.3551.1736-.1371.1887-.0955.451.0932.5881l1.6522 1.2004c.1887.1371.4508.0955.5879-.0932.1371-.1886.0956-.4508-.093-.5878l-1.6522-1.2005c-.0707-.0514-.152-.0778-.2329-.0807zm-36.5438.1453c-.1075-.006-.2171.0298-.3038.1077l-3.6107 3.2458c-.1735.1559-.1876.421-.0316.5944.1558.1735.4209.1875.5944.0316l3.6107-3.2458c.1734-.1559.1875-.4209.0316-.5944-.0779-.0867-.1832-.1336-.2906-.1393zm32.8001.0116c-.1075.006-.2129.0525-.2909.1392-.156.1733-.142.4383.0313.5944l3.6084 3.2483c.1733.156.4385.1421.5945-.0312.1561-.1733.1421-.4384-.0312-.5944l-3.6086-3.2484c-.0867-.078-.1961-.1135-.3035-.1079zm-29.3747 3.0836c-.1349-.005-.2696.0554-.3553.1733l-2.8561 3.9261c-.1372.1886-.0959.4509.0926.5881s.4508.0959.588-.0927l2.8561-3.9262c.1372-.1885.096-.4508-.0925-.588-.0707-.0514-.1518-.0778-.2328-.0806zm25.9358.0176c-.081.003-.1621.0289-.2329.0803-.1888.1369-.2305.3991-.0936.5878l2.8508 3.93c.1369.1888.3991.2305.5879.0936s.2305-.3991.0936-.5879l-2.8509-3.9299c-.0856-.118-.22-.1785-.3549-.1739zm-29.6228.6064c-.1075.006-.2129.0525-.2909.1391l-1.3665 1.5177c-.156.1733-.1422.4385.0311.5945.1733.1561.4384.1421.5944-.0312l1.3667-1.5177c.1561-.1733.1421-.4385-.0312-.5946-.0867-.078-.1961-.1135-.3036-.1079zm33.3307.002c-.1074-.006-.2169.0299-.3035.1079-.1733.156-.1873.4211-.0313.5944l1.3663 1.518c.156.1733.4211.1872.5944.0312s.1872-.4213.0312-.5946l-1.3663-1.5178c-.078-.0867-.1834-.1335-.2909-.1392zm-25.6552 1.6836c-.164-.004-.3211.0899-.3924.2496l-1.9781 4.4339c-.095.213-.0001.4609.2129.5559.2129.095.4609.0001.5559-.2129l1.9781-4.4339c.095-.2129 0-.4609-.2129-.5559-.0532-.0238-.1088-.0356-.1635-.0367zm17.9556.0122c-.0547.001-.1103.0128-.1635.0365-.213.0947-.3084.3425-.2137.5556l1.972 4.4366c.0947.213.3426.3083.5557.2136.213-.0947.3083-.3424.2136-.5555l-1.972-4.4366c-.071-.1598-.2281-.2533-.3921-.2502zm-21.4316 1.3587c-.1347.009-.2621.0836-.335.2098l-1.0211 1.7687c-.1166.202-.0479.4584.154.575.202.1166.4584.0479.575-.1541l1.0212-1.7687c.1165-.2019.0479-.4583-.1541-.5749-.0757-.0437-.1592-.0614-.24-.0558zm24.9342 0c-.0808-.006-.164.0121-.2398.0558-.2019.1166-.2706.373-.154.575l1.0211 1.7687c.1166.2019.373.2706.575.154.2019-.1166.2706-.373.154-.5749l-1.0211-1.7687c-.0729-.1263-.2005-.2005-.3352-.2099zm-17.0545.0634c-.1961-.002-.3718.134-.4142.3336l-1.0089 4.7492c-.0485.2281.0962.4508.3242.4992.2281.0485.4508-.0962.4992-.3243l1.009-4.7492c.0485-.2281-.0962-.4508-.3243-.4992-.0285-.006-.057-.009-.085-.009zm9.1599.003c-.028.0002-.0563.003-.0848.009-.2281.0483-.3729.2707-.3246.4989l1.0055 4.7499c.0483.2282.2709.373.499.3247.2282-.0483.373-.2709.3247-.499l-1.0057-4.7497c-.0423-.1996-.218-.3354-.414-.3339zm-4.5725.4791c-.2332 0-.4209.1877-.4209.4209v4.8551c0 .2332.1877.421.4209.421s.4209-.1878.4209-.421v-4.8551c0-.2332-.1877-.4209-.4209-.4209zm-7.7265 1.5688c-.1635.0139-.3102.1233-.3643.2896l-.6313 1.9423c-.0721.2218.0484.4584.2702.5305s.4583-.0486.5304-.2703l.6313-1.9422c.0721-.2217-.0484-.4583-.2701-.5304-.0554-.018-.1117-.024-.1662-.0194zm15.4498.001c-.0545-.005-.1107.001-.1662.0193-.2218.0721-.3424.3087-.2703.5305l.6311 1.9423c.0721.2218.3087.3422.5304.2702.2218-.0721.3424-.3085.2704-.5303l-.6313-1.9424c-.0541-.1663-.2006-.2756-.3641-.2895zm-10.3654 1.0818c-.1952.0188-.356.1721-.3773.375l-.2135 2.0312c-.0244.2319.1427.4381.3746.4625s.4383-.1427.4627-.3746l.2135-2.031c.0244-.2319-.1427-.4383-.3746-.4627-.029-.003-.0575-.003-.0854-.0004zm5.2674.002c-.0279-.003-.0566-.003-.0856.0004-.232.0242-.3992.2304-.375.4623l.2122 2.0314c.0242.2319.2304.399.4623.3748s.3992-.2304.375-.4624l-.212-2.0312c-.0212-.2029-.1818-.3563-.377-.3753z" fill="#f4f2f3"/><g filter="url(#b)" opacity=".409"><path d="m51.8119 13.5452-23.0294 13.3801-14.5608 22.9229 21.3013-15.7776z" fill="#000"/></g><path d="m35.3834 33.8381-6.601-6.9127 23.4161-15.752z" fill="#ff5150"/><path d="m35.3834 33.8381-6.601-6.9127-16.8151 22.6647z" fill="#f1f1f1"/><path d="m11.9673 49.5901 23.4161-15.752 16.8151-22.6648z" fill="#000" opacity=".243"/></g></g></svg>