<svg fill="none" height="64" viewBox="0 0 64 64" width="64" xmlns="http://www.w3.org/2000/svg"><path d="m0 0h64v30.69c-.35-4.93-1.54-9.88-4.05-14.18-4.16-7.09-10.91-12.825-18.93-14.96-6.595-1.73-13.75-1.5049999-20.155.89-7.11 2.715-12.955 8.225-16.605 14.84-3.61 6.77-4.41 14.87-2.7 22.305 1.3 5.67 4.41 10.845 8.535 14.91.3-.185.6-.375.895-.57 6.36-4.585 11.67-10.525 15.9-17.1 1.3-2.095 2.47-4.275 3.505-6.51.355-.77.675-1.55.99-2.33 1.665-3.93 2.265-8.225 4.13-12.08 1.28-2.655 2.865-5.44 5.625-6.785 2.535-1.275 6.085-2.225 8.37.02 1.685 2.38-.85 4.825-2.45 6.44 2.375.635 4.41 2.525 5.025 4.925.96 3.125 1.245 6.485.7 9.715-.075.635-.17 1.275-.295 1.905-.075.29-.215.875-.285 1.165-2.2 7.6-9.38 12.33-16.535 14.665-5.01 1.73-10.245 2.68-15.495 3.29-2.27 1.57-4.415 3.335-6.675 4.93-.21.15-.635.46-.845.61 5.65 4.68 13.03 7.155 20.355 6.81 10.11.18 19.695-5.5 25.405-13.675 3.44-4.715 5.11-10.47 5.585-16.235v30.315h-64z" fill="#fff"/><path d="m20.865 2.44c6.405-2.3950033 13.56-2.620003 20.155-.89 8.02 2.135 14.77 7.87 18.93 14.96 2.51 4.3 3.7 9.25 4.05 14.18v2.995c-.475 5.765-2.145 11.52-5.585 16.235-5.71 8.175-15.295 13.855-25.405 13.675-7.325.345-14.705-2.13-20.355-6.81.21-.15.635-.46.845-.61 1.115.815 2.225 1.64 3.41 2.35 3.89 2.33 8.33 3.8 12.87 4.05 3.23.075 6.51.13 9.67-.675 8.15-1.85 15.13-7.5 19.395-14.585 2.065-3.4 3.34-7.26 3.8-11.2.155-1.36.265-2.73.295-4.1-.1-1.595-.225-3.195-.38-4.785-3.4.45-6.67 1.555-9.775 2.99.545-3.23.26-6.59-.7-9.715-.615-2.4-2.65-4.29-5.025-4.925 1.6-1.615 4.135-4.06 2.45-6.44.515-.36 1.035-.725 1.55-1.085-2.615-2.195-5.625-3.98-8.9-4.98-8-2.530003-17.115-2.080003-24.52 2.025-5.25 2.835-9.40002 7.415-12.36002 12.54-1.89 3.27-2.7 7.005-3.225 10.705-.19 1.16-.26 2.33-.27 3.505.015 1.21.075 2.42.185 3.625.585 7 3.98 13.605 9.02002 18.45-.295.195-.595.385-.895.57-4.12502-4.065-7.23502-9.24-8.53502-14.91-1.710001-7.435-.91-15.535 2.7-22.305 3.65-6.615 9.49502-12.125 16.60502-14.84z" fill="#06067d"/><path d="m17.64 5.09994c7.405-4.105 16.52-4.555 24.52-2.025-5.49 2.71-11.295 4.655-16.845 7.21496-2.71 1.165-5.585 1.925-8.21 3.29-2.27 1.185-4.745 1.89-7.065 2.96-1.40497.6-2.77997 1.34-4.27997 1.67-.12-.14-.36-.425-.48-.57 2.96-5.125 7.10997-9.70496 12.35997-12.53996z" fill="#272793"/><path d="m42.16 3.07495c3.275 1 6.285 2.785 8.9 4.98-.515.36-1.035.725-1.55 1.085-2.285-2.245-5.835-1.295-8.37-.02-2.76 1.34505-4.345 4.13005-5.625 6.78505-.735.04-1.495.055-2.17.39-6.275 2.835-12.74 5.24-19.075 7.9249-1.85.88-3.82 1.4501-5.76001 2.08.53.195 1.07.3801 1.61001.555-1.06501.15-2.12501.3501-3.19001.5401-1.645.2099-3.27.5349-4.875.9499.525-3.7 1.335-7.4349 3.225-10.7049.12.145.36.43.48.57 1.5-.33 2.875-1.07 4.28001-1.67 2.32-1.07 4.795-1.775 7.065-2.96 2.625-1.365 5.5-2.125 8.21-3.29 5.55-2.56005 11.355-4.50505 16.845-7.21505z" fill="#1b1b8b"/><path d="m38.32 12.79c1.855-2.555 5-4.15502 8.17-3.99002.97 0 1.97.43 2.535 1.24502.54 2.09-1.415 3.675-2.65 5.085.09.33.275.99.37 1.32-.575-.02-1.145-.1-1.71-.2-.175-1.445.875-2.395 1.71-3.405.645-.745 1.13-1.61 1.32-2.585l-.06-.035c-1.43-1.09502-3.41-.51502-4.96.005-3.03 1.04-4.815 3.98-6.03 6.77-1.71 3.895-2.305 8.14-3.845 12.09-.96 1.2-1.38 2.705-2.065 4.06-1.73 3.595-3.705 7.115-6.26 10.2-1.21 1.59-2.675 2.975-3.825 4.615 2.12-.92 3.995-2.295 5.99-3.445 3.82-2.24 7.515-4.805 10.39-8.215l.17.485c-.53 1.065-1.27 2.055-1.445 3.26.62.31 1.235.615 1.86.92-.595.445-1.195.885-1.795 1.32.115-1.175-.03-2.335-.595-3.38-1.78 2.03-4.155 3.35-6.405 4.78-.695.44-.745 1.385-1.085 2.06-.6.045-1.195-.015-1.79-.05-.505.515-1.015 1.025-1.54 1.52-1.695-.035-2.8 1.46-4.21 2.17-.405.31-.74.7-1.08 1.08-5.495 4.4-11.38501 9.29-18.62001 10.14l.425-.395c10.68501-4.165 19.33001-12.395 25.62001-21.825 3.04-4.58 5.46-9.6 6.895-14.915 1.02-3.73 2.24-7.51 4.515-10.685z" fill="#2388ff"/><path d="m43.045 10.23c1.55-.51999 3.53-1.09999 4.96-.005-1.795.26-3.695.09-5.355.945-2.365 1.14-3.9 3.47-4.87 5.835-.98 2.445-2.285 4.835-2.645 7.48-.575 1.88-1.495 3.64-1.935 5.56-.01-.235-.02-.715-.03-.955 1.54-3.95 2.135-8.195 3.845-12.09 1.215-2.79 3-5.73 6.03-6.77z" fill="#fff"/><path d="m48.005 10.225.06.035c-.19.975-.675 1.84-1.32 2.585-3.325.575-5.67 3.445-8.965 4.16.97-2.365 2.505-4.695 4.87-5.835 1.66-.855 3.56-.685 5.355-.945z" fill="#acd5ff"/><path d="m37.78 17.005c3.295-.715 5.64-3.585 8.965-4.16-.835 1.01-1.885 1.96-1.71 3.405-.825-.1-1.65-.06-2.475-.02-.135 1.68-.055 3.38-.34 5.045-2.275 1.235-4.4 3.04-7.085 3.21.36-2.645 1.665-5.035 2.645-7.48z" fill="#80beff"/><path d="m33.345 16.295c.675-.335 1.435-.35 2.17-.39-1.865 3.855-2.465 8.15-4.13 12.08-1.445.235-2.81.77-4.18 1.27-5.465-1.96-11.285-2.825-17.085-2.4-.53999-.175-1.07999-.36-1.60999-.555 1.93999-.63 3.90999-1.2 5.75999-2.08 6.335-2.685 12.8-5.09 19.075-7.925z" fill="#0e0e82"/><path d="m42.56 16.23c.825-.04 1.65-.08 2.475.02.565.1 1.135.18 1.71.2 2.54.27 4.265 2.71 4.755 5.055 1.45 5.855.77 12.595-3.14 17.39-3.95 4.88-9.945 7.49-15.85 9.15-4.27 1.14-8.62 2.005-13.025 2.425.34-.38.675-.77 1.08-1.08.185.1.56.29.745.385 4.21-.575 8.36-1.53 12.46-2.645.195-.06.58-.18.775-.24.76-.245 1.515-.51 2.26-.795.49-.205.985-.415 1.465-.64.655-.305 1.3-.615 1.945-.935.46-.235.915-.485 1.37-.735.915-.51 1.83-1.035 2.65-1.695.345-.28.69-.57 1.03-.865 1.195-1.09 2.44-2.18 3.285-3.58l.14-.22c1.07-1.695 2.09-3.49 2.42-5.495.015-.11.05-.335.065-.445.53-3.2.71-6.565-.18-9.72-.03-.11-.085-.325-.115-.435-.3-1.805-1.76-3.09-3.2-4.05-1.58-.16-3.2.005-4.79.055 1.36.545 2.825.14 4.225.375.04.22.12.66.155.88-1.205-.13-2.435-.455-3.64-.165-.07.285-.21.86-.28 1.15-.355 2.295-.18 4.655-.79 6.915-.38 1.665-1.175 3.245-1.25 4.975-.03 1.465.365 2.885.63 4.315.715-.015 1.425-.04 2.14-.07-.65.8-1.265 1.625-1.97 2.375-.635-1.31-1.13-2.92-2.55-3.59-.255 1.13-.31 2.29-.215 3.445.56.365 1.115.73 1.68 1.09-.665.56-1.325 1.125-2.025 1.645-.34-1.34-.8-2.65-1.43-3.885l-.17-.485c1.17-1.62 2.23-3.32 3.065-5.135-3.41 2.16-6.835 4.355-10.485 6.08.815-2.52 2.625-4.6 3.22-7.205.44-1.92 1.36-3.68 1.935-5.56 2.685-.17 4.81-1.975 7.085-3.21.285-1.665.205-3.365.34-5.045z" fill="#4da1ff"/><path d="m42.89 17.335c1.59-.05 3.21-.215 4.79-.055 1.44.96 2.9 2.245 3.2 4.05-1.02-.025-2.325.25-3.015-.72-.33-.63-.45-1.335-.595-2.02-.035-.22-.115-.66-.155-.88-1.4-.235-2.865.17-4.225-.375z" fill="#c8e0f9"/><path d="m43.63 18.425c1.205-.29 2.435.035 3.64.165.145.685.265 1.39.595 2.02.69.97 1.995.695 3.015.72.03.11.085.325.115.435-1.06-.04-2.12-.06-3.18-.07-.62 2.34 1.555 3.7 3.265 4.71-1.11-.24-2.215-.505-3.325-.725-.035.815-.05 1.625-.045 2.435.945 1.325 2.205 2.365 3.465 3.37-.015.11-.05.335-.065.445-1.29-.855-2.58-2.005-4.195-2.08-.86 2.695 1.175 5.06 1.775 7.575l-.14.22c-1.005-1.185-2.045-2.34-3.16-3.43-.335.365-.66.735-.985 1.11l-.325.385c-.715.03-1.425.055-2.14.07-.265-1.43-.66-2.85-.63-4.315 1.575.48 2.84 1.535 4.08 2.565.13-.545.26-1.09.38-1.635-2.1.11-4.02-2.24-2.86-4.185 1.56.305 3.035.905 4.565 1.33-.36-1.52-2.165-1.45-3.21-2.27-.87-.41-.6-1.515-.78-2.28 1.555.01 3.08.35 4.625.505-.855-1.675-3.135-1.06-4.325-2.32-.115-.495-.2-1-.255-1.51 1.39-.115 2.785-.115 4.175-.165-.185-1.14-1.42-.7-2.225-.885-.83-.02-1.48-.6-2.13-1.04.07-.29.21-.865.28-1.15z" fill="#88bef9"/><path d="m42.56 26.49c.61-2.2601.435-4.62.79-6.915.65.44 1.3 1.02 2.13 1.04.805.185 2.04-.255 2.225.885-1.39.05-2.785.05-4.175.165.055.51.14 1.0149.255 1.5099 1.19 1.26 3.47.6451 4.325 2.3201-1.545-.155-3.07-.495-4.625-.505.18.765-.09 1.87.78 2.28 1.045.82 2.85.75 3.21 2.27-1.53-.425-3.005-1.0251-4.565-1.3301-1.16 1.945.76 4.2951 2.86 4.1851-.12.545-.25 1.0899-.38 1.6349-1.24-1.03-2.505-2.0849-4.08-2.5649.075-1.73.87-3.31 1.25-4.975z" fill="#50a0f8"/><path d="m51.08 26.4051c-1.71-1.01-3.885-2.37-3.265-4.71 1.06.01 2.12.03 3.18.07.89 3.155.71 6.52.18 9.72-1.26-1.005-2.52-2.045-3.465-3.37-.005-.81.01-1.62.045-2.435 1.11.22 2.215.485 3.325.725z" fill="#c5def9"/><path d="m6.92999 27.3949c1.065-.19 2.125-.39 3.19001-.54 5.8-.425 11.62.44 17.085 2.4l-.305.1c-3.575 1.15-7.515.975-11.075-.155-2.84-1.08-5.83001-1.885-8.89501-1.805z" fill="#5454b7"/><path d="m2.05503 28.345c1.605-.415 3.23-.74 4.875-.95 3.065-.08 6.05497.725 8.89497 1.805 3.56 1.13 7.5 1.305 11.075.155 1.195.195 2.345.59 3.495.96-1.035 2.235-2.205 4.415-3.505 6.51-3.565-.615-7.06-1.545-10.455-2.8-4.625-1.86-9.69497-2.445-14.64997-2.175.01-1.175.08-2.345.27-3.505z" fill="#8788fe"/><path d="m52.785 30.22c3.105-1.435 6.375-2.54 9.775-2.99.155 1.59.28 3.19.38 4.785-3.475-.285-6.99-.345-10.45.11.125-.63.22-1.27.295-1.905z" fill="#8b8cfe"/><path d="m27.205 29.255c1.37-.5 2.735-1.035 4.18-1.27-.315.78-.635 1.56-.99 2.33-1.15-.37-2.3-.765-3.495-.96z" fill="#3f3fab"/><path d="m31.105 33.1501c.685-1.355 1.105-2.86 2.065-4.06.01.24.02.72.03.955-.595 2.605-2.405 4.685-3.22 7.205 3.65-1.725 7.075-3.92 10.485-6.08-.835 1.815-1.895 3.515-3.065 5.135-2.875 3.41-6.57 5.975-10.39 8.215-1.995 1.15-3.87 2.525-5.99 3.445 1.15-1.64 2.615-3.025 3.825-4.615 2.555-3.085 4.53-6.605 6.26-10.2z" fill="#6eb4ff"/><path d="m46.915 29.85c1.615.075 2.905 1.225 4.195 2.08-.33 2.005-1.35 3.8-2.42 5.495-.6-2.515-2.635-4.88-1.775-7.575z" fill="#c2ddf9"/><path d="m1.78503 31.85c4.955-.27 10.02497.315 14.64997 2.175-2.905.935-5.81 2.13-8.91497 2.115-1.875.07-3.715-.365-5.55-.665-.11-1.205-.17-2.415-.185-3.625z" fill="#595afd"/><path d="m52.49 32.1251c3.46-.455 6.975-.395 10.45-.11-.03 1.37-.14 2.74-.295 4.1-3.61-.46-6.88-2.165-10.44-2.825.07-.29.21-.875.285-1.165z" fill="#5252fe"/><path d="m35.67 47.955c7.155-2.335 14.335-7.065 16.535-14.665 3.56.66 6.83 2.365 10.44 2.825-.46 3.94-1.735 7.8-3.8 11.2-2.42-.145-4.21 1.745-6.205 2.805-4.255 2.365-8.43 4.875-12.645 7.315-3.36 1.8-6.555 3.97-10.215 5.14-4.54-.25-8.98-1.72-12.87-4.05 5.505-2.19 10.18-5.95 15.49-8.515 1.19-.525 2.7-.7 3.27-2.055z" fill="#1d1de3"/><path d="m16.435 34.025c3.395 1.255 6.89 2.185 10.455 2.8-4.23 6.575-9.54 12.515-15.9 17.1-5.04003-4.845-8.43503-11.45-9.02003-18.45 1.835.3 3.675.735 5.55.665 3.10503.015 6.01003-1.18 8.91503-2.115z" fill="#0202de"/><path d="m39.56 34.495c1.42.67 1.915 2.28 2.55 3.59-.08.07-.235.215-.315.29l-.435.375-.335.28c-.565-.36-1.12-.725-1.68-1.09-.095-1.155-.04-2.315.215-3.445z" fill="#7cb9f9"/><path d="m44.405 35.3251c.325-.375.65-.745.985-1.11 1.115 1.09 2.155 2.245 3.16 3.43-.845 1.4-2.09 2.49-3.285 3.58-.065-1.995-.425-3.96-.86-5.9z" fill="#bfdbf9"/><path d="m44.08 35.7099.325-.3849c.435 1.94.795 3.9049.86 5.8999-.34.295-.685.5851-1.03.8651-.69-1.315-1.49-2.575-2.44-3.715.08-.075.235-.2201.315-.2901.705-.75 1.32-1.575 1.97-2.375z" fill="#a4cbf6"/><path d="m37.57 36.79c.63 1.235 1.09 2.545 1.43 3.885.7-.52 1.36-1.085 2.025-1.645l.335-.28c-.1 1.68-.005 3.37.225 5.035-.455.25-.91.5-1.37.735-.425-1.275-.84-2.585-1.64-3.685-.485 1.495-.545 3.08-.305 4.62-.48.225-.975.435-1.465.64-.145-1.185-.35-2.365-.855-3.455-1.005 1.19-1.315 2.735-1.405 4.25-.195.06-.58.18-.775.24-.105-1.03-.24-2.05-.42-3.065-1.68.755-3.42 1.375-5.245 1.685.34-.675.39-1.62 1.085-2.06 2.25-1.43 4.625-2.75 6.405-4.78.565 1.045.71 2.205.595 3.38.6-.435 1.2-.875 1.795-1.32-.625-.305-1.24-.61-1.86-.92.175-1.205.915-2.195 1.445-3.26z" fill="#9bc7f6"/><path d="m41.795 38.375c.95 1.14 1.75 2.4 2.44 3.715-.82.66-1.735 1.185-2.65 1.695-.23-1.665-.325-3.355-.225-5.035z" fill="#bddaf9"/><path d="m38.575 40.835c.8 1.1 1.215 2.41 1.64 3.685-.645.32-1.29.63-1.945.935-.24-1.54-.18-3.125.305-4.62z" fill="#bfdbf9"/><path d="m33.325 41.6551c1.015-.25 1.735.01 2.16.785-.795.55-1.63 1.52-2.72 1.12.18-.64.365-1.275.56-1.905z" fill="#5ca5f6"/><path d="m34.545 46.89c.09-1.515.4-3.06 1.405-4.25.505 1.09.71 2.27.855 3.455-.745.285-1.5.55-2.26.795z" fill="#c1dcf8"/><path d="m30.68 43.4799c.77-.75 1.745.53.65.915-.785.74-1.645-.44-.65-.915z" fill="#56a2f6"/><path d="m28.105 45.7499c1.825-.31 3.565-.93 5.245-1.685.18 1.015.315 2.035.42 3.065-4.1 1.115-8.25 2.07-12.46 2.645-.185-.095-.56-.285-.745-.385 1.41-.71 2.515-2.205 4.21-2.17.525-.495 1.035-1.005 1.54-1.52.595.035 1.19.095 1.79.05z" fill="#c6dff8"/><path d="m52.64 50.12c1.995-1.06 3.785-2.95 6.205-2.805-4.265 7.085-11.245 12.735-19.395 14.585-3.16.805-6.44.75-9.67.675 3.66-1.17 6.855-3.34 10.215-5.14 4.215-2.44 8.39-4.95 12.645-7.315z" fill="#2c2ce5"/><path d="m20.175 51.2451c5.25-.61 10.485-1.56 15.495-3.29-.57 1.355-2.08 1.53-3.27 2.055-5.31 2.565-9.985 6.325-15.49 8.515-1.185-.71-2.295-1.535-3.41-2.35 2.26-1.595 4.405-3.36 6.675-4.93z" fill="#1111e2"/></svg>