<svg fill="none" height="64" viewBox="0 0 64 64" width="64" xmlns="http://www.w3.org/2000/svg" xmlns:xlink="http://www.w3.org/1999/xlink"><linearGradient id="a" gradientUnits="userSpaceOnUse" x1="20.028" x2="50.305" y1="11.283" y2="64.104"><stop offset="0" stop-opacity=".2"/><stop offset=".791" stop-opacity=".05"/></linearGradient><path d="m32 63.7614c13.993 0 21.7684 0 26.8632-5.0666 5.0807-5.0667 5.0807-12.8141 5.0807-26.765 0-13.9508 0-21.6982-5.0807-26.76486-5.0948-5.052635-12.8702-5.052635-26.8632-5.052635s-21.7684 0-26.86315 5.066665c-5.0806977 5.06663-5.0806977 12.81403-5.0806977 26.76493s0 21.6982 5.0806977 26.7649c5.09475 5.0526 12.87015 5.0526 26.86315 5.0526z" fill="#ef3939"/><path d="m52.7719 20.1685c-3.0596-5.3474-8.1824-9.5158-14.6245-11.2421-12.786-3.41053-25.9228 4.1403-29.34738 16.8702-1.72632 6.4-.65965 12.8982 2.45618 18.2035.0421.0702.0842.1544.1403.2245l11.2561 19.4386c1.8667.0562 3.8878.0702 6.0632.0702h3.1719c6.2176 0 11.2141 0 15.2983-.4491 5.0947-.5614 8.7438-1.8105 11.5649-4.6176 4.1123-4.0982 4.8982-9.9649 5.0526-19.4666-6.5684-11.3404-11.0175-19.0176-11.0316-19.0316z" fill="url(#a)"/><path d="m48.8141 15.1018c-9.3334-9.31932-24.4772-9.31932-33.8246 0-9.33333 9.3193-9.33333 24.421 0 33.7263 9.3333 9.3193 24.4772 9.3193 33.8246 0 9.3473-9.3193 9.3473-24.4211 0-33.7263zm-1.4316 10.9614c-3.9439 6.8351-7.8877 13.6702-11.8316 20.5193-.7298 1.2772-1.7965 2.0351-3.2561 2.1473-1.6281.1123-2.9193-.5754-3.7474-1.9789-2.4982-4.2807-4.9684-8.5895-7.4386-12.8842-1.5018-2.6105-3.0175-5.2211-4.5193-7.8456-1.5158-2.6386.1965-5.8527 3.2281-6.007 1.6-.0843 2.8351.6596 3.6491 2.0491 1.1088 1.8947 2.2035 3.8175 3.3123 5.7263.8 1.3754 1.5719 2.7649 2.3859 4.1123 1.179 1.9789 2.9193 3.0877 5.2351 3.228 3.2702.1965 6.3158-2.1754 6.7088-5.6421.0281-.2526.0421-.5193.0561-.6456-.014-1.1228-.2245-2.0772-.6736-2.9614-1.2211-2.4421.0842-5.1789 2.7368-5.7684 2.1614-.4772 4.407 1.1088 4.6877 3.2983.1404.9403-.0561 1.8245-.5333 2.6526z" fill="#fff"/></svg>