<svg fill="none" height="12" viewBox="0 0 11 12" width="11" xmlns="http://www.w3.org/2000/svg"><path d="m5.62033 7.87234-.24069.30049.10551.08451h.13518zm4.60547 0 .2382.30244c.0922-.07259.1462-.18325.1468-.30057s-.0524-.22849-.1438-.30198zm-8.87387.27632-.23776.30281zm8.52722-4.25348.23995-.30104zm-4.03961 7.43212-.23822-.3024zm-.43869.0004-.23776.3028zm.44032-10.651645-.24.301043zm-4.49296 3.218785-.23952-.30142zm.23952.30142 4.05101-3.219132-.47905-.60284-4.051 3.219132zm4.01344-3.219162 4.03798 3.219132.47995-.60209-4.03793-3.219128zm4.03789 3.172032-1.95715 1.5727.48232.60022 1.95717-1.5727zm-1.95715 1.5727-2.30274 1.8504.48232.60022 2.30274-1.8504zm0 .60022 2.30274 1.8504.48235-.60022-2.30277-1.8504zm2.54389 1.16529h-4.60547v.77h4.60547zm-.23822.08256-4.38626 3.455.47645.6049 4.38623-3.45502zm-4.34898 3.455-4.04891-3.17906-.47552.60563 4.04892 3.17903zm.22242-3.45305-2.31017-1.8504-.48137.60098 2.31016 1.8504zm-2.31017-1.8504-1.96302-1.57235-.48138.60098 1.96303 1.57235zm-1.96094 2.17166 1.96094-1.57068-.48137-.60098-1.96094 1.57068zm-.00022-.04727c.01528.012.01539.03512.00022.04727l-.48137-.60098c-.372064.29801-.36931.86496.00563 1.15934zm8.04946-3.64961c-.01511-.01205-.01515-.035-.00009-.0471l.48234.60022c.3694-.29689.3684-.85975-.0023-1.15521zm-4.03783 6.82867c.01093-.0086.02634-.0086.03728 0l-.47551.6056c.26854.2108.64648.2105.91468-.0007zm.03742-10.047772c-.011.008741-.02658.008729-.03757-.00003l.48-.602086c-.2695-.214844-.65164-.215144-.92148-.000724zm-4.53005 2.616292c-.371825.29547-.372916.85976-.00224 1.15666l.48138-.60098c.01511.01211.01506.03511-.0001.04716z" fill="#445b6a"/></svg>