<svg width="17" height="17" fill="none" xmlns="http://www.w3.org/2000/svg"><path d="M8.367 16.328c4.36 0 7.969-3.617 7.969-7.969C16.336 4 12.719.391 8.359.391 4.008.39.4 4 .4 8.359c0 4.352 3.617 7.97 7.968 7.97zm-2.18-9.476a1.215 1.215 0 0 0-.375-.774 12.105 12.105 0 0 1 3.211-4.594c.11.008.22.024.329.04a13 13 0 0 0-1.79 5.671 9.074 9.074 0 0 1-1.375-.343zM2.587 4.609c1.117-1.703 2.969-2.906 5.078-3.125A13.24 13.24 0 0 0 4.93 5.742a1.23 1.23 0 0 0-.657.211A8.984 8.984 0 0 1 2.586 4.61zm7.242.094c.008.711.094 1.414.258 2.094-.14.14-.242.32-.297.516-.195.015-.39.023-.594.023-.234 0-.468-.008-.695-.024a11.949 11.949 0 0 1 1.695-5.359 9.5 9.5 0 0 0-.367 2.75zm.945-.008a8.576 8.576 0 0 1 .383-2.64 7.038 7.038 0 0 1 3.485 3.453 8.955 8.955 0 0 1-2.727 1.406 1.194 1.194 0 0 0-.945-.484 9.07 9.07 0 0 1-.196-1.735zM1.461 8.36c0-1.023.226-1.992.64-2.875a9.397 9.397 0 0 0 1.665 1.274c-.016.062-.016.133-.016.203 0 .414.203.781.523 1.008a12.7 12.7 0 0 0-.25 2.508A12.374 12.374 0 0 1 1.477 8.82c-.008-.156-.016-.304-.016-.46zm13.812 0c0 .672-.101 1.329-.289 1.946a11.37 11.37 0 0 1-1.406.633 8.593 8.593 0 0 1-1.844-2.391c.211-.18.352-.43.407-.711a9.904 9.904 0 0 0 2.851-1.406c.18.617.281 1.265.281 1.93zm-7.75-.164c0 1.016.118 2.016.344 2.992a1.167 1.167 0 0 0-.32.383 12.425 12.425 0 0 1-2.578-.68c-.024-.93.047-1.843.226-2.726.282-.055.524-.203.703-.414.524.18 1.07.313 1.625.398v.047zm1.672.086c.25 0 .492-.008.727-.031.187.313.515.531.898.578a9.292 9.292 0 0 0 1.75 2.438c-.922.257-1.86.398-2.804.43a1.222 1.222 0 0 0-.993-.766 12.182 12.182 0 0 1-.304-2.672c.242.015.484.023.726.023zm-7.476 1.93c.734.523 1.515.969 2.336 1.32.03.836.156 1.664.375 2.477a6.999 6.999 0 0 1-2.711-3.797zm6.648 5.055c-.96 0-1.89-.204-2.726-.579-.329-.89-.54-1.82-.618-2.773.797.274 1.61.477 2.446.594.148.476.586.82 1.11.844.265.625.585 1.234.952 1.812a7.165 7.165 0 0 1-1.164.102zm1.102-2.243c.11-.109.203-.242.265-.382a13.014 13.014 0 0 0 3.657-.633c.171.14.359.273.539.406a7.028 7.028 0 0 1-3.438 2.508 12.037 12.037 0 0 1-1.023-1.899z" fill="#37404A"/></svg>