<svg width="16" height="16" viewBox="0 0 16 16" fill="none" xmlns="http://www.w3.org/2000/svg">
<defs>
<linearGradient id="paint0_linear_2838_43066" x1="7.56106" y1="3.24072" x2="4.25928" y2="6.65331" gradientUnits="userSpaceOnUse">
<stop offset="0.18" stop-color="#0052CC"/>
<stop offset="1" stop-color="#2684FF"/>
</linearGradient>
<linearGradient id="paint1_linear_2838_43066" x1="8.46571" y1="12.7308" x2="11.7611" y2="9.32484" gradientUnits="userSpaceOnUse">
<stop offset="0.18" stop-color="#0052CC"/>
<stop offset="1" stop-color="#2684FF"/>
</linearGradient>
</defs>
<path d="M15.8065 7.55214L8.68882 0.667143L7.99914 0L2.64116 5.18286L0.19108 7.55214C0.0686997 7.67113 0 7.83215 0 8C0 8.16785 0.0686997 8.32887 0.19108 8.44786L5.08607 13.1829L7.99914 16L13.3564 10.8171L13.4398 10.7371L15.8065 8.45143C15.8678 8.39254 15.9165 8.32249 15.9497 8.24532C15.9829 8.16815 16 8.08538 16 8.00179C16 7.91819 15.9829 7.83543 15.9497 7.75826C15.9165 7.68108 15.8678 7.61104 15.8065 7.55214V7.55214ZM7.99914 10.3657L5.55349 8L7.99914 5.63429L10.444 8L7.99914 10.3657Z" fill="#2684FF"/>
<path d="M7.99894 5.63429C7.22979 4.89044 6.79619 3.88239 6.79287 2.83032C6.78955 1.77825 7.21677 0.767661 7.98122 0.0192871L2.62988 5.19357L5.54221 8.01072L7.99894 5.63429Z" fill="url(#paint0_linear_2838_43066)"/>
<path d="M10.4506 7.99365L7.99902 10.3658C8.77109 11.1128 9.20481 12.1259 9.20481 13.1822C9.20481 14.2385 8.77109 15.2516 7.99902 15.9987L13.3651 10.8108L10.4506 7.99365Z" fill="url(#paint1_linear_2838_43066)"/>
</svg>