<svg enable-background="new 0 0 135 135" viewBox="0 0 135 135" xmlns="http://www.w3.org/2000/svg"><path d="m31.9 83.7c0 7.1-5.8 12.9-12.9 12.9s-12.9-5.8-12.9-12.9 5.8-12.9 12.9-12.9h12.9z" fill="#e01e5a"/><path d="m38.4 83.7c0-7.1 5.8-12.9 12.9-12.9s12.9 5.8 12.9 12.9v32.3c0 7.1-5.8 12.9-12.9 12.9s-12.9-5.8-12.9-12.9z" fill="#e01e5a"/><path d="m51.3 31.9c-7.1 0-12.9-5.8-12.9-12.9s5.8-12.9 12.9-12.9 12.9 5.8 12.9 12.9v12.9z" fill="#36c5f0"/><path d="m51.3 38.4c7.1 0 12.9 5.8 12.9 12.9s-5.8 12.9-12.9 12.9h-32.3c-7.1 0-12.9-5.8-12.9-12.9s5.8-12.9 12.9-12.9z" fill="#36c5f0"/><path d="m103.1 51.3c0-7.1 5.8-12.9 12.9-12.9s12.9 5.8 12.9 12.9-5.8 12.9-12.9 12.9h-12.9z" fill="#2eb67d"/><path d="m96.6 51.3c0 7.1-5.8 12.9-12.9 12.9s-12.9-5.8-12.9-12.9v-32.3c0-7.1 5.8-12.9 12.9-12.9s12.9 5.8 12.9 12.9z" fill="#2eb67d"/><g fill="#ecb22e"><path d="m83.7 103.1c7.1 0 12.9 5.8 12.9 12.9s-5.8 12.9-12.9 12.9-12.9-5.8-12.9-12.9v-12.9z"/><path d="m83.7 96.6c-7.1 0-12.9-5.8-12.9-12.9s5.8-12.9 12.9-12.9h32.3c7.1 0 12.9 5.8 12.9 12.9s-5.8 12.9-12.9 12.9z"/></g></svg>