<svg width="18" height="18" viewBox="0 0 18 18" fill="none" xmlns="http://www.w3.org/2000/svg">
<g clip-path="url(#clip0_1172_9408)">
<path fill-rule="evenodd" clip-rule="evenodd" d="M6.79952 0.75C5.88742 0.750673 5.14925 1.48939 5.14992 2.39966C5.14925 3.30994 5.8881 4.04865 6.80019 4.04933H8.45046V2.40034C8.45114 1.49006 7.71229 0.751346 6.79952 0.75C6.80019 0.75 6.80019 0.75 6.79952 0.75V0.75ZM6.79952 5.15H2.40015C1.48805 5.15067 0.749206 5.88939 0.74988 6.79966C0.748532 7.70994 1.48738 8.44865 2.39948 8.45H6.79952C7.71162 8.44933 8.45046 7.71061 8.44979 6.80034C8.45046 5.88939 7.71162 5.15067 6.79952 5.15V5.15Z" fill="#36C5F0"/>
<path fill-rule="evenodd" clip-rule="evenodd" d="M17.2498 6.79966C17.2505 5.88939 16.5117 5.15067 15.5996 5.15C14.6875 5.15067 13.9486 5.88939 13.9493 6.79966V8.45H15.5996C16.5117 8.44933 17.2505 7.71061 17.2498 6.79966ZM12.8498 6.79966V2.39966C12.8505 1.49006 12.1123 0.751346 11.2002 0.75C10.2881 0.750673 9.54925 1.48939 9.54993 2.39966V6.79966C9.54858 7.70994 10.2874 8.44865 11.1995 8.45C12.1116 8.44933 12.8505 7.71061 12.8498 6.79966Z" fill="#2EB67D"/>
<path fill-rule="evenodd" clip-rule="evenodd" d="M11.1997 17.2495C12.1118 17.2488 12.8507 16.5101 12.85 15.5998C12.8507 14.6896 12.1118 13.9509 11.1997 13.9502H9.54944V15.5998C9.54876 16.5094 10.2876 17.2482 11.1997 17.2495ZM11.1997 12.8488H15.5998C16.5119 12.8482 17.2507 12.1094 17.25 11.1992C17.2514 10.2889 16.5125 9.55017 15.6004 9.54883H11.2004C10.2883 9.5495 9.54944 10.2882 9.55011 11.1985C9.54944 12.1094 10.2876 12.8482 11.1997 12.8488V12.8488Z" fill="#ECB22E"/>
<path fill-rule="evenodd" clip-rule="evenodd" d="M0.75 11.1995C0.749326 12.1097 1.48817 12.8485 2.40027 12.8491C3.31237 12.8485 4.05121 12.1097 4.05054 11.1995V9.5498H2.40027C1.48817 9.55048 0.749326 10.2892 0.75 11.1995ZM5.15005 11.1995V15.5995C5.1487 16.5097 5.88754 17.2485 6.79964 17.2498C7.71174 17.2491 8.45059 16.5104 8.44991 15.6001V11.2008C8.45126 10.2905 7.71241 9.55182 6.80032 9.55048C5.88754 9.55048 5.14937 10.2892 5.15005 11.1995C5.15005 11.2001 5.15005 11.1995 5.15005 11.1995Z" fill="#E01E5A"/>
</g>
<defs>
<clipPath id="clip0_1172_9408">
<rect width="16.5" height="16.5" fill="white" transform="translate(0.75 0.75)"/>
</clipPath>
</defs>
</svg>
