<svg fill="none" height="25" viewBox="0 0 24 25" width="24" xmlns="http://www.w3.org/2000/svg"><path d="m16.3459 3.96051-3.97 1.38349-.8421-2.58652c-.3609-1.08273.1804-2.285763 1.3233-2.646672 1.0827-.36091 2.2858.180455 2.6467 1.323332zm-1.203 9.62429 3.97-1.3835-1.3835-4.27078-3.97 1.38348zm2.0451 6.1354c.3008.8421 1.1429 1.4437 1.985 1.4437.2406 0 .4812-.0602.6617-.1203 1.0827-.3609 1.6842-1.564 1.3233-2.6467l-.7218-2.1655-3.97 1.3835z" fill="#ffb300"/><path d="m7.92472 6.90805-3.97 1.38348-.84213-2.52636c-.36091-1.08273.18046-2.28576 1.32334-2.64667 1.08273-.36091 2.28576.18045 2.64667 1.32333zm.84212 15.81985c.30076.8421 1.14288 1.4437 1.98496 1.4437.2407 0 .4813-.0602.6617-.1203 1.0827-.361 1.6843-1.564 1.3233-2.6467l-.7218-2.2256-3.96998 1.3835zm.48121-11.7897-3.97 1.3835 1.38349 4.2708 3.96996-1.3835z" fill="#00bfa5"/><path d="m17.6692 7.99087-1.3233-3.97001 2.4662-.84212c1.0827-.36091 2.2857.18045 2.6466 1.32334.361 1.08272-.1804 2.28576-1.3233 2.64667zm-3.97 1.38348-1.3233-3.97-4.45127 1.56394 1.32334 3.97001zm-12.27094-.18045c-1.082729.36091-1.684245 1.5639-1.323336 2.6467.300758.9022 1.142876 1.4436 1.985006 1.4436.2406 0 .48121-.0601.66167-.1203l2.46621-.8421-1.32333-3.97002z" fill="#00bcd4"/><path d="m6.66145 16.5322 1.32333 3.97-2.82712.9625c-.24061.0601-.48122.1203-.66167.1203-.90228 0-1.68425-.5414-1.98501-1.4437-.3609-1.0827.18046-2.2857 1.32334-2.6466zm17.20335-3.7294c-.3609-1.0827-1.5639-1.6842-2.6467-1.3233l-2.1053.7218 1.3234 4.0302 2.1654-.7218c1.0827-.4211 1.6843-1.6241 1.2632-2.7069zm-13.2333 2.3459 1.3233 3.97 4.4512-1.5639-1.3233-3.97z" fill="#e91e63"/><path d="m17.6691 7.99054-1.3233-4.03015-3.97 1.38348 1.3233 4.03016z" fill="#388e3c"/><path d="m7.92444 6.9079-3.97 1.38348 1.32333 4.03012 3.97001-1.3834z" fill="#00897b"/><path d="m15.1428 13.5848 1.3233 4.0302 3.97-1.3835-1.3233-4.0301z" fill="#bf360c"/><path d="m6.66135 16.5321 1.32333 4.0302 3.97002-1.3835-1.3233-4.0302z" fill="#4e342e"/></svg>