<svg width="22" height="22" viewBox="0 0 22 22" fill="none" xmlns="http://www.w3.org/2000/svg">
<path fill-rule="evenodd" clip-rule="evenodd" d="M7.35587 18.711C14.7683 18.711 18.8226 12.5698 18.8226 7.24426C18.8226 7.06983 18.8226 6.89619 18.8108 6.72333C19.5995 6.15283 20.2804 5.44645 20.8214 4.63726C20.0859 4.96318 19.3057 5.17691 18.5067 5.27133C19.348 4.76768 19.9777 3.97551 20.2785 3.04226C19.4874 3.51169 18.622 3.84252 17.7194 4.02048C16.4702 2.69214 14.4852 2.36703 12.8775 3.22744C11.2698 4.08785 10.4392 5.9198 10.8515 7.69605C7.61115 7.5336 4.59211 6.00309 2.54573 3.4854C1.47608 5.32684 2.02244 7.68258 3.79345 8.86519C3.1521 8.84618 2.52474 8.67317 1.9643 8.36076V8.41183C1.96483 10.3302 3.31711 11.9825 5.19752 12.3624C4.6042 12.5242 3.98169 12.5479 3.3778 12.4315C3.90576 14.0732 5.41875 15.1979 7.14295 15.2303C5.71588 16.3518 3.95299 16.9607 2.13795 16.9588C1.8173 16.9582 1.49696 16.9388 1.17859 16.9007C3.02159 18.0834 5.16602 18.7108 7.35587 18.7078" fill="#59B6EB"/>
</svg>
