<svg width="16" height="16" viewBox="0 0 16 16" fill="none" xmlns="http://www.w3.org/2000/svg">
<path d="M6.1046 12.9586C10.9779 12.9586 13.6429 9.14326 13.6429 5.83468C13.6429 5.72631 13.6405 5.61843 13.6354 5.51104C14.1527 5.15762 14.6023 4.71658 14.957 4.21451C14.4823 4.41392 13.9714 4.54816 13.4355 4.60869C13.9825 4.29872 14.4024 3.80837 14.6006 3.22383C14.0887 3.51062 13.5218 3.71906 12.9182 3.83159C12.4347 3.34492 11.7464 3.04053 10.9843 3.04053C9.52115 3.04053 8.33468 4.16183 8.33468 5.54399C8.33468 5.74047 8.35793 5.93158 8.40338 6.1149C6.2014 6.01019 4.24884 5.01387 2.94208 3.4989C2.71455 3.86891 2.58335 4.29873 2.58335 4.75735C2.58335 5.62602 3.05109 6.39288 3.76236 6.8415C3.32769 6.82881 2.91936 6.71605 2.56246 6.52835C2.56207 6.53886 2.56207 6.5491 2.56207 6.56033C2.56207 7.77291 3.47532 8.78532 4.68762 9.01473C4.46499 9.07208 4.23075 9.10284 3.989 9.10284C3.81854 9.10284 3.65247 9.08698 3.49105 9.05769C3.82835 10.0525 4.80643 10.7765 5.96603 10.7967C5.05924 11.4684 3.91693 11.8684 2.67543 11.8684C2.46184 11.8684 2.25084 11.857 2.04346 11.8338C3.21601 12.5441 4.60832 12.9585 6.10475 12.9585" fill="#1DA1F2"/>
</svg>
